/* XPM */
static const char *editredo_xpm[] = {
"15 14 12 1",
"$ c None",
"% c #888888",
"& c #404848",
"' c #009090",
"( c #00c0c0",
") c #089090",
"* c #003838",
"+ c #002828",
", c #000000",
"- c #00d0d0",
". c #00e8e8",
"/ c #70e8e8",
"$$$$$$$$$$$$$$$",
"$$''''$$$$$$$$$",
"$$/..(''$$$$$$$",
"'/)**'(('$$$))$",
").*+%%&(.'$).),",
").*%$$$'(.'.-',",
").+%$$$$'(..-',",
"'-*%$$$$$'..-',",
"'()&$$$$'''''',",
"$'(*$$$$$+++*+,",
"$'()&$$$$$$$$$$",
"$$''&$$$$$$$$$$",
"$$%&$$$$$$$$$$$",
"$$$$$$$$$$$$$$$"
};

