/* XPM */
static const char* editpaste_xpm[]={
"16 16 26 1",
"a c #ffffff",
"b c #ffcc99",
"f c #fcfcfc",
"e c #fbfcfc",
"i c #fafafa",
"g c #f8f8f8",
"k c #f7f8f8",
"j c #f7f7f8",
"l c #f5f6f5",
"n c #f5f4f5",
"m c #f4f4f4",
"o c #f2f3f2",
"r c #f0eff0",
"p c #efefef",
"q c #eaeae9",
"u c #eae9ea",
"t c #e9e9e9",
"v c #e9e9e8",
"w c #e6e6e6",
"s c #e3e4e3",
"x c #e2e2e2",
"c c #cc9966",
"h c #999999",
"d c #996633",
"# c #000000",
". c None",
"................",
"................",
"......####......",
"..#####aa#####..",
".#bbb#a##a#bbb#.",
".#bc#aaaaaa#cd#.",
".#bc########cd#.",
".#bccccc#######.",
".#bccccc#eafgh#.",
".#bccccc#ifijha#",
".#bccccc#k##lhh#",
".#bccccc#mnmopq#",
".#dddddd#r####s#",
"..#######tuvwxx#",
"........########",
"................"};



