/* XPM */
static const char *editundo_xpm[] = {
"15 14 12 1",
"$ c None",
"% c #484848",
"& c #007878",
"' c #004040",
"( c #00c0c0",
") c #282828",
"* c #000000",
"+ c #009090",
", c #00d8d8",
"- c #289090",
". c #00b8b8",
"/ c #a0ffff",
"$$$$$$$$$$$$$$$",
"$$$$$$$++++-$$$",
"$$$$$++.,,,(+$$",
"&$$$+.(.'''(&%$",
"&%$+,,&')$%+(+*",
"-/%,,&*$$$$+(+*",
"-//,&*$$$$$+(+*",
"-/,()$$$$$$+(+*",
"--,.&%$$$$+(++*",
"''))'*)$$$+,'%$",
"$$$$$$$$$&(&'%$",
"$$$$$$$$$&&'%$$",
"$$$$$$$$$$$%$$$",
"$$$$$$$$$$$$$$$"
};

