/* XPM */
static const char* editcopy_xpm[]={
"16 16 6 1",
"a c #ffffff",
"d c #cccccc",
"b c #999999",
"c c #000066",
"# c #000000",
". c None",
"................",
"................",
".########.......",
".#aaaaaa#.......",
".#aaaaaa#.......",
".#a##abcccccc...",
".#aaaabcaaaacc..",
".#a####caaaacac.",
".#aaaabcaccacccc",
".#d####caaaaaaac",
".#bbbbbcacccccac",
".######caaaaaaac",
".......cacccccac",
".......caaaaaaac",
".......ccccccccc",
"................"};



