/* XPM */
static const char* editcut_xpm[]={
"16 16 6 1",
"b c #ffffff",
"d c #cccccc",
"a c #c3c3c3",
"c c #666666",
"# c #000000",
". c None",
"................",
"................",
"..###...........",
".#...#......##..",
".#....#....#b##.",
"..#c.c#...#b#cc.",
"...###...#b#c...",
".....####b#c....",
".....#c.c#c.....",
".....####d#.....",
"...###ccc#d#....",
"..#c.c#..c#d#...",
".#....#...c#d##.",
".#...#c....c##c.",
".c###c......cc..",
"..ccc..........."};



