/* XPM */
static const char *fileprintpreview_xpm[] = {
"13 15 2 1",
"$ c #000000",
"% c #ffffff",
"$$$$$$$$$$$$$",
"$%%%%%%%%%%%$",
"$%%%%%%%%%%%$",
"$%%%$$$%%%%%$",
"$%%$%%%$%%%%$",
"$%%$%%%$%%%%$",
"$%%$%%%$%%%%$",
"$%%%$$$%%$%%$",
"$%%%%%%%$$%%$",
"$%%%%%%$%$%%$",
"$%%%%%$%%$%%$",
"$%%%%$$$$$%%$",
"$%%%%%%%%%%%$",
"$%%%%%%%%%%%$",
"$$$$$$$$$$$$$"
};

