/* XPM */
static const char* fileopen_xpm[]={
"16 16 6 1",
"a c #ffffff",
"b c #ffcc99",
"c c #cc9966",
"d c #996633",
"# c #000000",
". c None",
".........####...",
"............##.#",
".............###",
".............###",
".####.......####",
".#aaa#######....",
".#bbbbbbbbb#....",
".#bb##########..",
".#bb#bbcccccd#..",
".#b#bbcbcccd#...",
".#b#bbcccdcd#...",
".##bbcbcccd#....",
".##bbcccdcd#....",
".#dddddddd#.....",
".##########.....",
"................"};



