/* XPM */
static const char *zoomredraw_xpm[] = {
"16 15 3 1",
"$ c #000000",
"% c None",
"& c #ff0000",
"%$%%$$%%$$%%$$$$",
"$%%%%%%%%%%%%%%$",
"%%%%%%%%%%%%%%%$",
"$%%%%%%%%%%%%%%$",
"$%%%%%%&&%%%%%%$",
"%%%%%%&%%&%%%%%$",
"%%%%%&%%%%&%%%%$",
"$%%%%&%%%%&%%%%$",
"$%%%%%%%&&%%%%%$",
"%%%%%%%&&%%%%%%$",
"%%%%%%%&&&%%%%$%",
"$%%%%%%%%%%%%$%%",
"$%%%%%%%%%%%$%%%",
"$%%%%%%%%%%$%%%%",
"$$$$$$$$$$$%%%%%"
};

