/* XPM */
static const char *zoomin_xpm[] = {
"16 16 7 1",
"$ c None",
"% c #000000",
"& c #00ffff",
"' c #0000ff",
"( c #ffffff",
") c #808080",
"* c #000080",
"$$$))))$$$$$$$$$",
"$$)(&(&)$$$$$$$$",
"$)&(**$&%$$$$$$$",
")(((**&$&%$$$$$$",
")&******$%$$$$$$",
")(******&%$$$$$$",
"$)(&**&$%$$$$$$$",
"$)&(**$&%%$$$$$$",
"$$%&$&&%$)%$$$$$",
"$$$%%%%%($'%$$$$",
"$$$$$$$$%&&'%$$$",
"$$$$$$$$$%(&'%$$",
"$$$$$$$$$$%&&'%$",
"$$$$$$$$$$$%&&'%",
"$$$$$$$$$$$$%&%$",
"$$$$$$$$$$$$$%$$"
};

