/* XPM */
static const char *zoomauto_xpm[] = {
"16 16 7 1",
"$ c None",
"% c #000000",
"& c #c6c6c6",
"' c #00ffff",
"( c #0000ff",
") c #ffffff",
"* c #848484",
"$$$$$$$%$$$$$$$$",
"$$$$$$%%%$$$$$$$",
"$$$$$$$%$$$$$$$$",
"$$$$$$$%$$$$$$$$",
"$$$$$$$%$$$$$$$$",
"$$$$$$$***$$$$$$",
"$%$$$$*)')*$$$%$",
"%%%%%*)')'$%%%%%",
"$%$$$*'))''%$$%$",
"$$$$$*))'$$%$$$$",
"$$$$$$*''$%*%$$$",
"$$$$$$$%%%))(%$$",
"$$$$$$$%$$%)'(%$",
"$$$$$$$%$$$%''(%",
"$$$$$$%%%$$$%''%",
"$$$$$$$%$$$$$%%&"
};

