/* XPM */
static const char *zoompan_xpm[] = {
"16 16 6 1",
"$ c None",
"% c #000000",
"& c #00ffff",
"' c #0000ff",
"( c #ffffff",
") c #848484",
"%%%%%%%%%%%%%$$$",
"%(((((((((((%$$$",
"%(((((((((((%$$$",
"%(((((((((((%$$$",
"%(%%(%(%(%(%%%%$",
"%(%(((()))((%$%$",
"%((((()(&()(%$$$",
"%(%(()(&(&$%%$%$",
"%(((()&((&&%%$$$",
"%%%%%)((&$$%%$%$",
"$$%$$$)&&$%)%$$$",
"$$$$$$$%%%(('%$$",
"$$%$$$$$$$%(&'%$",
"$$%%$%$%$%$%&&'%",
"$$$$$$$$$$$$%&&%",
"$$$$$$$$$$$$$%%$"
};

