999
dxfrw 0.5.10
0
SECTION
2
HEADER
9
$ACADVER
1
AC1021
9
$HANDSEED
5
20000
9
$DWGCODEPAGE
3
ANSI_1252
9
$INSBASE
10
0
20
0
30
0
9
$EXTMIN
10
0
20
0
30
0
9
$EXTMAX
10
0
20
0
30
0
9
$LIMMIN
10
0
20
0
9
$LIMMAX
10
420
20
297
9
$ORTHOMODE
70
0
9
$LTSCALE
40
1
9
$TEXTSTYLE
7
STANDARD
9
$CLAYER
8
0
9
$DIMASZ
40
2.5
9
$DIMLFAC
40
1
9
$DIMSCALE
40
1
9
$DIMEXO
40
0.625
9
$DIMEXE
40
1.25
9
$DIMTXT
40
2.5
9
$DIMTSZ
40
0
9
$DIMAUNIT
70
0
9
$DIMADEC
70
0
9
$DIMLUNIT
70
2
9
$DIMSTYLE
2
STANDARD
9
$DIMGAP
40
0.625
9
$DIMTIH
70
0
9
$LUNITS
70
2
9
$LUPREC
70
4
9
$AUNITS
70
0
9
$AUPREC
70
2
9
$SPLINESEGS
70
8
9
$GRIDMODE
70
1
9
$SNAPSTYLE
70
0
9
$PINSBASE
10
0
20
0
30
0
9
$PLIMMIN
10
0
20
0
9
$PLIMMAX
10
210
20
297
9
$INSUNITS
70
0
9
$PSVPSCALE
40
1
0
ENDSEC
0
SECTION
2
CLASSES
0
ENDSEC
0
SECTION
2
TABLES
0
TABLE
2
VPORT
5
8
330
0
100
AcDbSymbolTable
70
1
0
VPORT
5
31
330
2
100
AcDbSymbolTableRecord
100
AcDbViewportTableRecord
2
*ACTIVE
70
0
10
0
20
0
11
1
21
1
12
153.75
22
71.125
13
0
23
0
14
10
24
10
15
10
25
10
16
0
26
0
36
1
17
0
27
0
37
0
40
154.75
41
2.06785137318
42
50
43
0
44
0
50
0
51
0
71
0
72
100
73
1
74
3
75
0
76
1
77
0
78
0
281
0
65
1
110
0
120
0
130
0
111
1
121
0
131
0
112
0
122
1
132
0
79
0
146
0
348
10020
60
7
61
5
292
1
282
1
141
0
142
0
63
250
421
3358443
0
ENDTAB
0
TABLE
2
LTYPE
5
5
330
0
100
AcDbSymbolTable
70
4
0
LTYPE
5
14
330
5
100
AcDbSymbolTableRecord
100
AcDbLinetypeTableRecord
2
ByBlock
70
0
3

72
65
73
0
40
0
0
LTYPE
5
15
330
5
100
AcDbSymbolTableRecord
100
AcDbLinetypeTableRecord
2
ByLayer
70
0
3

72
65
73
0
40
0
0
LTYPE
5
16
330
5
100
AcDbSymbolTableRecord
100
AcDbLinetypeTableRecord
2
Continuous
70
0
3
Solid line
72
65
73
0
40
0
0
LTYPE
5
32
330
5
100
AcDbSymbolTableRecord
100
AcDbLinetypeTableRecord
2
DOT
70
0
3
Dot . . . . . . . . . . . . . . . . . . . . . .
72
65
73
2
40
6.35
49
0
74
0
49
-6.35
74
0
0
LTYPE
5
33
330
5
100
AcDbSymbolTableRecord
100
AcDbLinetypeTableRecord
2
DOT2
70
0
3
Dot (.5x) .....................................
72
65
73
2
40
3.175
49
0
74
0
49
-3.175
74
0
0
LTYPE
5
34
330
5
100
AcDbSymbolTableRecord
100
AcDbLinetypeTableRecord
2
DOTX2
70
0
3
Dot (2x) .  .  .  .  .  .  .  .  .  .  .  .  .
72
65
73
2
40
12.7
49
0
74
0
49
-12.7
74
0
0
LTYPE
5
35
330
5
100
AcDbSymbolTableRecord
100
AcDbLinetypeTableRecord
2
DASHED
70
0
3
Dot . . . . . . . . . . . . . . . . . . . . . .
72
65
73
2
40
19.05
49
12.7
74
0
49
-6.35
74
0
0
LTYPE
5
36
330
5
100
AcDbSymbolTableRecord
100
AcDbLinetypeTableRecord
2
DASHED2
70
0
3
Dashed (.5x) _ _ _ _ _ _ _ _ _ _ _ _ _ _ _ _ _
72
65
73
2
40
9.525
49
6.35
74
0
49
-3.175
74
0
0
LTYPE
5
37
330
5
100
AcDbSymbolTableRecord
100
AcDbLinetypeTableRecord
2
DASHEDX2
70
0
3
Dashed (2x) ____  ____  ____  ____  ____  ___
72
65
73
2
40
38.1
49
25.4
74
0
49
-12.7
74
0
0
LTYPE
5
38
330
5
100
AcDbSymbolTableRecord
100
AcDbLinetypeTableRecord
2
DASHDOT
70
0
3
Dash dot __ . __ . __ . __ . __ . __ . __ . __
72
65
73
4
40
25.4
49
12.7
74
0
49
-6.35
74
0
49
0
74
0
49
-6.35
74
0
0
LTYPE
5
39
330
5
100
AcDbSymbolTableRecord
100
AcDbLinetypeTableRecord
2
DASHDOT2
70
0
3
Dash dot (.5x) _._._._._._._._._._._._._._._.
72
65
73
4
40
12.7
49
6.35
74
0
49
-3.175
74
0
49
0
74
0
49
-3.175
74
0
0
LTYPE
5
3A
330
5
100
AcDbSymbolTableRecord
100
AcDbLinetypeTableRecord
2
DASHDOTX2
70
0
3
Dash dot (2x) ____  .  ____  .  ____  .  ___
72
65
73
4
40
50.8
49
25.4
74
0
49
-12.7
74
0
49
0
74
0
49
-12.7
74
0
0
LTYPE
5
3B
330
5
100
AcDbSymbolTableRecord
100
AcDbLinetypeTableRecord
2
DIVIDE
70
0
3
Divide ____ . . ____ . . ____ . . ____ . . ____
72
65
73
6
40
31.75
49
12.7
74
0
49
-6.35
74
0
49
0
74
0
49
-6.35
74
0
49
0
74
0
49
-6.35
74
0
0
LTYPE
5
3C
330
5
100
AcDbSymbolTableRecord
100
AcDbLinetypeTableRecord
2
DIVIDE2
70
0
3
Divide (.5x) __..__..__..__..__..__..__..__.._
72
65
73
6
40
15.875
49
6.35
74
0
49
-3.175
74
0
49
0
74
0
49
-3.175
74
0
49
0
74
0
49
-3.175
74
0
0
LTYPE
5
3D
330
5
100
AcDbSymbolTableRecord
100
AcDbLinetypeTableRecord
2
DIVIDEX2
70
0
3
Divide (2x) ________  .  .  ________  .  .  _
72
65
73
6
40
63.5
49
25.4
74
0
49
-12.7
74
0
49
0
74
0
49
-12.7
74
0
49
0
74
0
49
-12.7
74
0
0
LTYPE
5
3E
330
5
100
AcDbSymbolTableRecord
100
AcDbLinetypeTableRecord
2
BORDER
70
0
3
Border __ __ . __ __ . __ __ . __ __ . __ __ .
72
65
73
6
40
44.45
49
12.7
74
0
49
-6.35
74
0
49
12.7
74
0
49
-6.35
74
0
49
0
74
0
49
-6.35
74
0
0
LTYPE
5
3F
330
5
100
AcDbSymbolTableRecord
100
AcDbLinetypeTableRecord
2
BORDER2
70
0
3
Border (.5x) __.__.__.__.__.__.__.__.__.__.__.
72
65
73
6
40
22.225
49
6.35
74
0
49
-3.175
74
0
49
6.35
74
0
49
-3.175
74
0
49
0
74
0
49
-3.175
74
0
0
LTYPE
5
40
330
5
100
AcDbSymbolTableRecord
100
AcDbLinetypeTableRecord
2
BORDERX2
70
0
3
Border (2x) ____  ____  .  ____  ____  .  ___
72
65
73
6
40
88.9
49
25.4
74
0
49
-12.7
74
0
49
25.4
74
0
49
-12.7
74
0
49
0
74
0
49
-12.7
74
0
0
LTYPE
5
41
330
5
100
AcDbSymbolTableRecord
100
AcDbLinetypeTableRecord
2
CENTER
70
0
3
Center ____ _ ____ _ ____ _ ____ _ ____ _ ____
72
65
73
4
40
50.8
49
31.75
74
0
49
-6.35
74
0
49
6.35
74
0
49
-6.35
74
0
0
LTYPE
5
42
330
5
100
AcDbSymbolTableRecord
100
AcDbLinetypeTableRecord
2
CENTER2
70
0
3
Center (.5x) ___ _ ___ _ ___ _ ___ _ ___ _ ___
72
65
73
4
40
28.575
49
19.05
74
0
49
-3.175
74
0
49
3.175
74
0
49
-3.175
74
0
0
LTYPE
5
43
330
5
100
AcDbSymbolTableRecord
100
AcDbLinetypeTableRecord
2
CENTERX2
70
0
3
Center (2x) ________  __  ________  __  _____
72
65
73
4
40
101.6
49
63.5
74
0
49
-12.7
74
0
49
12.7
74
0
49
-12.7
74
0
0
ENDTAB
0
TABLE
2
LAYER
5
2
330
0
100
AcDbSymbolTable
70
1
0
LAYER
5
10
330
2
100
AcDbSymbolTableRecord
100
AcDbLayerTableRecord
2
0
70
0
62
7
6
CONTINUOUS
370
0
390
F
0
ENDTAB
0
TABLE
2
STYLE
5
3
330
0
100
AcDbSymbolTable
70
3
0
STYLE
5
44
330
2
100
AcDbSymbolTableRecord
100
AcDbTextStyleTableRecord
2
Standard
70
0
40
0
41
1
50
0
71
0
42
1
3
txt
4

0
ENDTAB
0
TABLE
2
VIEW
5
6
330
0
100
AcDbSymbolTable
70
0
0
ENDTAB
0
TABLE
2
UCS
5
7
330
0
100
AcDbSymbolTable
70
0
0
ENDTAB
0
TABLE
2
APPID
5
9
330
0
100
AcDbSymbolTable
70
1
0
APPID
5
12
330
9
100
AcDbSymbolTableRecord
100
AcDbRegAppTableRecord
2
ACAD
70
0
0
ENDTAB
0
TABLE
2
DIMSTYLE
5
A
330
0
100
AcDbSymbolTable
70
1
100
AcDbDimStyleTable
71
1
0
DIMSTYLE
105
45
330
A
100
AcDbSymbolTableRecord
100
AcDbDimStyleTableRecord
2
Standard
70
0
40
1
41
2.5
42
0.625
43
0.38
44
1.25
45
0
46
0
47
0
48
0
140
2.5
141
0.09
142
0
143
25.4
144
1
145
0
146
1
147
0.625
148
0
71
0
72
0
73
0
74
1
75
0
76
0
77
0
78
0
79
0
170
0
171
2
172
0
173
0
174
0
175
0
176
0
177
0
178
0
179
0
271
4
272
4
273
2
274
2
275
0
276
0
277
2
278
46
279
0
280
0
281
0
282
0
283
1
284
0
285
0
286
0
288
0
289
3
340
Standard
341

371
-2
372
-2
0
ENDTAB
0
TABLE
2
BLOCK_RECORD
5
1
330
0
100
AcDbSymbolTable
70
2
0
BLOCK_RECORD
5
1F
330
1
100
AcDbSymbolTableRecord
100
AcDbBlockTableRecord
2
*Model_Space
70
0
280
1
281
0
0
BLOCK_RECORD
5
1E
330
1
100
AcDbSymbolTableRecord
100
AcDbBlockTableRecord
2
*Paper_Space
70
0
280
1
281
0
0
ENDTAB
0
ENDSEC
0
SECTION
2
BLOCKS
0
BLOCK
5
20
330
1F
100
AcDbEntity
8
0
100
AcDbBlockBegin
2
*Model_Space
70
0
10
0
20
0
30
0
3
*Model_Space
1

0
ENDBLK
5
21
330
1F
100
AcDbEntity
8
0
100
AcDbBlockEnd
0
BLOCK
5
1C
330
1B
100
AcDbEntity
8
0
100
AcDbBlockBegin
2
*Paper_Space
70
0
10
0
20
0
30
0
3
*Paper_Space
1

0
ENDBLK
5
1D
330
1F
100
AcDbEntity
8
0
100
AcDbBlockEnd
0
ENDSEC
0
SECTION
2
ENTITIES
0
LINE
5
46
100
AcDbEntity
8
0
6
CONTINUOUS
62
7
370
18
100
AcDbLine
10
2.5
20
2.5
11
2.5
21
5
0
ARC
5
47
100
AcDbEntity
8
0
6
CONTINUOUS
62
7
370
18
100
AcDbCircle
10
2.5
20
0
40
2.5
100
AcDbArc
50
0
51
180
0
LINE
5
48
100
AcDbEntity
8
0
6
CONTINUOUS
62
7
370
18
100
AcDbLine
10
0
20
0
11
5
21
0
0
LINE
5
49
100
AcDbEntity
8
0
6
CONTINUOUS
62
7
370
18
100
AcDbLine
10
2.237415
20
2.486172
11
2.762585
21
2.486172
0
LINE
5
4A
100
AcDbEntity
8
0
6
CONTINUOUS
62
7
370
18
100
AcDbLine
10
2.0248
20
2.454422
11
2.9752
21
2.454422
0
LINE
5
4B
100
AcDbEntity
8
0
6
CONTINUOUS
62
7
370
18
100
AcDbLine
10
1.883021
20
2.422672
11
3.116979
21
2.422672
0
LINE
5
4C
100
AcDbEntity
8
0
6
CONTINUOUS
62
7
370
18
100
AcDbLine
10
1.769593
20
2.390922
11
3.230407
21
2.390922
0
LINE
5
4D
100
AcDbEntity
8
0
6
CONTINUOUS
62
7
370
18
100
AcDbLine
10
1.67277
20
2.359172
11
3.32723
21
2.359172
0
LINE
5
4E
100
AcDbEntity
8
0
6
CONTINUOUS
62
7
370
18
100
AcDbLine
10
1.587252
20
2.327422
11
3.412748
21
2.327422
0
LINE
5
4F
100
AcDbEntity
8
0
6
CONTINUOUS
62
7
370
18
100
AcDbLine
10
1.510105
20
2.295672
11
3.489895
21
2.295672
0
LINE
5
50
100
AcDbEntity
8
0
6
CONTINUOUS
62
7
370
18
100
AcDbLine
10
1.4395
20
2.263922
11
3.5605
21
2.263922
0
LINE
5
51
100
AcDbEntity
8
0
6
CONTINUOUS
62
7
370
18
100
AcDbLine
10
1.374207
20
2.232172
11
3.625793
21
2.232172
0
LINE
5
52
100
AcDbEntity
8
0
6
CONTINUOUS
62
7
370
18
100
AcDbLine
10
1.313347
20
2.200422
11
3.686653
21
2.200422
0
LINE
5
53
100
AcDbEntity
8
0
6
CONTINUOUS
62
7
370
18
100
AcDbLine
10
1.25627
20
2.168672
11
3.74373
21
2.168672
0
LINE
5
54
100
AcDbEntity
8
0
6
CONTINUOUS
62
7
370
18
100
AcDbLine
10
1.202477
20
2.136922
11
3.797523
21
2.136922
0
LINE
5
55
100
AcDbEntity
8
0
6
CONTINUOUS
62
7
370
18
100
AcDbLine
10
1.151574
20
2.105172
11
3.848426
21
2.105172
0
LINE
5
56
100
AcDbEntity
8
0
6
CONTINUOUS
62
7
370
18
100
AcDbLine
10
1.103246
20
2.073422
11
3.896754
21
2.073422
0
LINE
5
57
100
AcDbEntity
8
0
6
CONTINUOUS
62
7
370
18
100
AcDbLine
10
1.057233
20
2.041672
11
3.942767
21
2.041672
0
LINE
5
58
100
AcDbEntity
8
0
6
CONTINUOUS
62
7
370
18
100
AcDbLine
10
1.013321
20
2.009922
11
3.986679
21
2.009922
0
LINE
5
59
100
AcDbEntity
8
0
6
CONTINUOUS
62
7
370
18
100
AcDbLine
10
0.971328
20
1.978172
11
4.028672
21
1.978172
0
LINE
5
5A
100
AcDbEntity
8
0
6
CONTINUOUS
62
7
370
18
100
AcDbLine
10
0.931101
20
1.946422
11
4.068899
21
1.946422
0
LINE
5
5B
100
AcDbEntity
8
0
6
CONTINUOUS
62
7
370
18
100
AcDbLine
10
0.892507
20
1.914672
11
4.107493
21
1.914672
0
LINE
5
5C
100
AcDbEntity
8
0
6
CONTINUOUS
62
7
370
18
100
AcDbLine
10
0.855431
20
1.882922
11
4.144569
21
1.882922
0
LINE
5
5D
100
AcDbEntity
8
0
6
CONTINUOUS
62
7
370
18
100
AcDbLine
10
0.819773
20
1.851172
11
4.180227
21
1.851172
0
LINE
5
5E
100
AcDbEntity
8
0
6
CONTINUOUS
62
7
370
18
100
AcDbLine
10
0.785443
20
1.819422
11
4.214557
21
1.819422
0
LINE
5
5F
100
AcDbEntity
8
0
6
CONTINUOUS
62
7
370
18
100
AcDbLine
10
0.752364
20
1.787672
11
4.247636
21
1.787672
0
LINE
5
60
100
AcDbEntity
8
0
6
CONTINUOUS
62
7
370
18
100
AcDbLine
10
0.720466
20
1.755922
11
4.279534
21
1.755922
0
LINE
5
61
100
AcDbEntity
8
0
6
CONTINUOUS
62
7
370
18
100
AcDbLine
10
0.689687
20
1.724172
11
4.310313
21
1.724172
0
LINE
5
62
100
AcDbEntity
8
0
6
CONTINUOUS
62
7
370
18
100
AcDbLine
10
0.65997
20
1.692422
11
4.34003
21
1.692422
0
LINE
5
63
100
AcDbEntity
8
0
6
CONTINUOUS
62
7
370
18
100
AcDbLine
10
0.631265
20
1.660672
11
4.368735
21
1.660672
0
LINE
5
64
100
AcDbEntity
8
0
6
CONTINUOUS
62
7
370
18
100
AcDbLine
10
0.603526
20
1.628922
11
4.396474
21
1.628922
0
LINE
5
65
100
AcDbEntity
8
0
6
CONTINUOUS
62
7
370
18
100
AcDbLine
10
0.57671
20
1.597172
11
4.42329
21
1.597172
0
LINE
5
66
100
AcDbEntity
8
0
6
CONTINUOUS
62
7
370
18
100
AcDbLine
10
0.550781
20
1.565422
11
4.449219
21
1.565422
0
LINE
5
67
100
AcDbEntity
8
0
6
CONTINUOUS
62
7
370
18
100
AcDbLine
10
0.525702
20
1.533672
11
4.474298
21
1.533672
0
LINE
5
68
100
AcDbEntity
8
0
6
CONTINUOUS
62
7
370
18
100
AcDbLine
10
0.501443
20
1.501922
11
4.498557
21
1.501922
0
LINE
5
69
100
AcDbEntity
8
0
6
CONTINUOUS
62
7
370
18
100
AcDbLine
10
0.477972
20
1.470172
11
4.522028
21
1.470172
0
LINE
5
6A
100
AcDbEntity
8
0
6
CONTINUOUS
62
7
370
18
100
AcDbLine
10
0.455264
20
1.438422
11
4.544736
21
1.438422
0
LINE
5
6B
100
AcDbEntity
8
0
6
CONTINUOUS
62
7
370
18
100
AcDbLine
10
0.433294
20
1.406672
11
4.566706
21
1.406672
0
LINE
5
6C
100
AcDbEntity
8
0
6
CONTINUOUS
62
7
370
18
100
AcDbLine
10
0.412037
20
1.374922
11
4.587963
21
1.374922
0
LINE
5
6D
100
AcDbEntity
8
0
6
CONTINUOUS
62
7
370
18
100
AcDbLine
10
0.391472
20
1.343172
11
4.608528
21
1.343172
0
LINE
5
6E
100
AcDbEntity
8
0
6
CONTINUOUS
62
7
370
18
100
AcDbLine
10
0.37158
20
1.311422
11
4.62842
21
1.311422
0
LINE
5
6F
100
AcDbEntity
8
0
6
CONTINUOUS
62
7
370
18
100
AcDbLine
10
0.352341
20
1.279672
11
4.647659
21
1.279672
0
LINE
5
70
100
AcDbEntity
8
0
6
CONTINUOUS
62
7
370
18
100
AcDbLine
10
0.333738
20
1.247922
11
4.666262
21
1.247922
0
LINE
5
71
100
AcDbEntity
8
0
6
CONTINUOUS
62
7
370
18
100
AcDbLine
10
0.315755
20
1.216172
11
4.684245
21
1.216172
0
LINE
5
72
100
AcDbEntity
8
0
6
CONTINUOUS
62
7
370
18
100
AcDbLine
10
0.298377
20
1.184422
11
4.701623
21
1.184422
0
LINE
5
73
100
AcDbEntity
8
0
6
CONTINUOUS
62
7
370
18
100
AcDbLine
10
0.281589
20
1.152672
11
4.718411
21
1.152672
0
LINE
5
74
100
AcDbEntity
8
0
6
CONTINUOUS
62
7
370
18
100
AcDbLine
10
0.265378
20
1.120922
11
4.734622
21
1.120922
0
LINE
5
75
100
AcDbEntity
8
0
6
CONTINUOUS
62
7
370
18
100
AcDbLine
10
0.249732
20
1.089172
11
4.750268
21
1.089172
0
LINE
5
76
100
AcDbEntity
8
0
6
CONTINUOUS
62
7
370
18
100
AcDbLine
10
0.234639
20
1.057422
11
4.765361
21
1.057422
0
LINE
5
77
100
AcDbEntity
8
0
6
CONTINUOUS
62
7
370
18
100
AcDbLine
10
0.220088
20
1.025672
11
4.779912
21
1.025672
0
LINE
5
78
100
AcDbEntity
8
0
6
CONTINUOUS
62
7
370
18
100
AcDbLine
10
0.206069
20
0.993922
11
4.793931
21
0.993922
0
LINE
5
79
100
AcDbEntity
8
0
6
CONTINUOUS
62
7
370
18
100
AcDbLine
10
0.192572
20
0.962172
11
4.807428
21
0.962172
0
LINE
5
7A
100
AcDbEntity
8
0
6
CONTINUOUS
62
7
370
18
100
AcDbLine
10
0.179587
20
0.930422
11
4.820413
21
0.930422
0
LINE
5
7B
100
AcDbEntity
8
0
6
CONTINUOUS
62
7
370
18
100
AcDbLine
10
0.167107
20
0.898672
11
4.832893
21
0.898672
0
LINE
5
7C
100
AcDbEntity
8
0
6
CONTINUOUS
62
7
370
18
100
AcDbLine
10
0.155123
20
0.866922
11
4.844877
21
0.866922
0
LINE
5
7D
100
AcDbEntity
8
0
6
CONTINUOUS
62
7
370
18
100
AcDbLine
10
0.143628
20
0.835172
11
4.856372
21
0.835172
0
LINE
5
7E
100
AcDbEntity
8
0
6
CONTINUOUS
62
7
370
18
100
AcDbLine
10
0.132615
20
0.803422
11
4.867385
21
0.803422
0
LINE
5
7F
100
AcDbEntity
8
0
6
CONTINUOUS
62
7
370
18
100
AcDbLine
10
0.122076
20
0.771672
11
4.877924
21
0.771672
0
LINE
5
80
100
AcDbEntity
8
0
6
CONTINUOUS
62
7
370
18
100
AcDbLine
10
0.112006
20
0.739922
11
4.887994
21
0.739922
0
LINE
5
81
100
AcDbEntity
8
0
6
CONTINUOUS
62
7
370
18
100
AcDbLine
10
0.102398
20
0.708172
11
4.897602
21
0.708172
0
LINE
5
82
100
AcDbEntity
8
0
6
CONTINUOUS
62
7
370
18
100
AcDbLine
10
0.093248
20
0.676422
11
4.906752
21
0.676422
0
LINE
5
83
100
AcDbEntity
8
0
6
CONTINUOUS
62
7
370
18
100
AcDbLine
10
0.08455
20
0.644672
11
4.91545
21
0.644672
0
LINE
5
84
100
AcDbEntity
8
0
6
CONTINUOUS
62
7
370
18
100
AcDbLine
10
0.076299
20
0.612922
11
4.923701
21
0.612922
0
LINE
5
85
100
AcDbEntity
8
0
6
CONTINUOUS
62
7
370
18
100
AcDbLine
10
0.06849
20
0.581172
11
4.93151
21
0.581172
0
LINE
5
86
100
AcDbEntity
8
0
6
CONTINUOUS
62
7
370
18
100
AcDbLine
10
0.06112
20
0.549422
11
4.93888
21
0.549422
0
LINE
5
87
100
AcDbEntity
8
0
6
CONTINUOUS
62
7
370
18
100
AcDbLine
10
0.054184
20
0.517672
11
4.945816
21
0.517672
0
LINE
5
88
100
AcDbEntity
8
0
6
CONTINUOUS
62
7
370
18
100
AcDbLine
10
0.047679
20
0.485922
11
4.952321
21
0.485922
0
LINE
5
89
100
AcDbEntity
8
0
6
CONTINUOUS
62
7
370
18
100
AcDbLine
10
0.0416
20
0.454172
11
4.9584
21
0.454172
0
LINE
5
8A
100
AcDbEntity
8
0
6
CONTINUOUS
62
7
370
18
100
AcDbLine
10
0.035946
20
0.422422
11
4.964054
21
0.422422
0
LINE
5
8B
100
AcDbEntity
8
0
6
CONTINUOUS
62
7
370
18
100
AcDbLine
10
0.030714
20
0.390672
11
4.969286
21
0.390672
0
LINE
5
8C
100
AcDbEntity
8
0
6
CONTINUOUS
62
7
370
18
100
AcDbLine
10
0.025899
20
0.358922
11
4.974101
21
0.358922
0
LINE
5
8D
100
AcDbEntity
8
0
6
CONTINUOUS
62
7
370
18
100
AcDbLine
10
0.021501
20
0.327172
11
4.978499
21
0.327172
0
LINE
5
8E
100
AcDbEntity
8
0
6
CONTINUOUS
62
7
370
18
100
AcDbLine
10
0.017516
20
0.295422
11
4.982484
21
0.295422
0
LINE
5
8F
100
AcDbEntity
8
0
6
CONTINUOUS
62
7
370
18
100
AcDbLine
10
0.013943
20
0.263672
11
4.986057
21
0.263672
0
LINE
5
90
100
AcDbEntity
8
0
6
CONTINUOUS
62
7
370
18
100
AcDbLine
10
0.010781
20
0.231922
11
4.989219
21
0.231922
0
LINE
5
91
100
AcDbEntity
8
0
6
CONTINUOUS
62
7
370
18
100
AcDbLine
10
0.008027
20
0.200172
11
4.991973
21
0.200172
0
LINE
5
92
100
AcDbEntity
8
0
6
CONTINUOUS
62
7
370
18
100
AcDbLine
10
0.00568
20
0.168422
11
4.99432
21
0.168422
0
LINE
5
93
100
AcDbEntity
8
0
6
CONTINUOUS
62
7
370
18
100
AcDbLine
10
0.003739
20
0.136672
11
4.996261
21
0.136672
0
LINE
5
94
100
AcDbEntity
8
0
6
CONTINUOUS
62
7
370
18
100
AcDbLine
10
0.002203
20
0.104922
11
4.997797
21
0.104922
0
LINE
5
95
100
AcDbEntity
8
0
6
CONTINUOUS
62
7
370
18
100
AcDbLine
10
0.001071
20
0.073172
11
4.998929
21
0.073172
0
LINE
5
96
100
AcDbEntity
8
0
6
CONTINUOUS
62
7
370
18
100
AcDbLine
10
0.000343000000001
20
0.041422
11
4.999657
21
0.041422
0
LINE
5
97
100
AcDbEntity
8
0
6
CONTINUOUS
62
7
370
18
100
AcDbLine
10
1.90000000018e-005
20
0.00967199999999
11
4.999981
21
0.00967199999999
0
ENDSEC
0
SECTION
2
OBJECTS
0
DICTIONARY
5
C
330
0
100
AcDbDictionary
281
1
3
ACAD_GROUP
350
D
0
DICTIONARY
5
D
330
C
100
AcDbDictionary
281
1
0
ENDSEC
0
EOF
