999
dxfrw 0.5.10
0
SECTION
2
HEADER
9
$ACADVER
1
AC1021
9
$HANDSEED
5
20000
9
$DWGCODEPAGE
3
ANSI_1252
9
$INSBASE
10
0
20
0
30
0
9
$EXTMIN
10
0
20
0
30
0
9
$EXTMAX
10
0
20
0
30
0
9
$LIMMIN
10
0
20
0
9
$LIMMAX
10
420
20
297
9
$ORTHOMODE
70
0
9
$LTSCALE
40
1
9
$TEXTSTYLE
7
STANDARD
9
$CLAYER
8
0
9
$DIMASZ
40
2.5
9
$DIMLFAC
40
1
9
$DIMSCALE
40
1
9
$DIMEXO
40
0.625
9
$DIMEXE
40
1.25
9
$DIMTXT
40
2.5
9
$DIMTSZ
40
0
9
$DIMAUNIT
70
0
9
$DIMADEC
70
0
9
$DIMLUNIT
70
2
9
$DIMSTYLE
2
STANDARD
9
$DIMGAP
40
0.625
9
$DIMTIH
70
0
9
$LUNITS
70
2
9
$LUPREC
70
4
9
$AUNITS
70
0
9
$AUPREC
70
2
9
$SPLINESEGS
70
8
9
$GRIDMODE
70
1
9
$SNAPSTYLE
70
0
9
$PINSBASE
10
0
20
0
30
0
9
$PLIMMIN
10
0
20
0
9
$PLIMMAX
10
210
20
297
9
$INSUNITS
70
0
9
$PSVPSCALE
40
1
0
ENDSEC
0
SECTION
2
CLASSES
0
ENDSEC
0
SECTION
2
TABLES
0
TABLE
2
VPORT
5
8
330
0
100
AcDbSymbolTable
70
1
0
VPORT
5
31
330
2
100
AcDbSymbolTableRecord
100
AcDbViewportTableRecord
2
*ACTIVE
70
0
10
0
20
0
11
1
21
1
12
153.75
22
71.125
13
0
23
0
14
10
24
10
15
10
25
10
16
0
26
0
36
1
17
0
27
0
37
0
40
154.75
41
2.06785137318
42
50
43
0
44
0
50
0
51
0
71
0
72
100
73
1
74
3
75
0
76
1
77
0
78
0
281
0
65
1
110
0
120
0
130
0
111
1
121
0
131
0
112
0
122
1
132
0
79
0
146
0
348
10020
60
7
61
5
292
1
282
1
141
0
142
0
63
250
421
3358443
0
ENDTAB
0
TABLE
2
LTYPE
5
5
330
0
100
AcDbSymbolTable
70
4
0
LTYPE
5
14
330
5
100
AcDbSymbolTableRecord
100
AcDbLinetypeTableRecord
2
ByBlock
70
0
3

72
65
73
0
40
0
0
LTYPE
5
15
330
5
100
AcDbSymbolTableRecord
100
AcDbLinetypeTableRecord
2
ByLayer
70
0
3

72
65
73
0
40
0
0
LTYPE
5
16
330
5
100
AcDbSymbolTableRecord
100
AcDbLinetypeTableRecord
2
Continuous
70
0
3
Solid line
72
65
73
0
40
0
0
LTYPE
5
32
330
5
100
AcDbSymbolTableRecord
100
AcDbLinetypeTableRecord
2
DOT
70
0
3
Dot . . . . . . . . . . . . . . . . . . . . . .
72
65
73
2
40
6.35
49
0
74
0
49
-6.35
74
0
0
LTYPE
5
33
330
5
100
AcDbSymbolTableRecord
100
AcDbLinetypeTableRecord
2
DOT2
70
0
3
Dot (.5x) .....................................
72
65
73
2
40
3.175
49
0
74
0
49
-3.175
74
0
0
LTYPE
5
34
330
5
100
AcDbSymbolTableRecord
100
AcDbLinetypeTableRecord
2
DOTX2
70
0
3
Dot (2x) .  .  .  .  .  .  .  .  .  .  .  .  .
72
65
73
2
40
12.7
49
0
74
0
49
-12.7
74
0
0
LTYPE
5
35
330
5
100
AcDbSymbolTableRecord
100
AcDbLinetypeTableRecord
2
DASHED
70
0
3
Dot . . . . . . . . . . . . . . . . . . . . . .
72
65
73
2
40
19.05
49
12.7
74
0
49
-6.35
74
0
0
LTYPE
5
36
330
5
100
AcDbSymbolTableRecord
100
AcDbLinetypeTableRecord
2
DASHED2
70
0
3
Dashed (.5x) _ _ _ _ _ _ _ _ _ _ _ _ _ _ _ _ _
72
65
73
2
40
9.525
49
6.35
74
0
49
-3.175
74
0
0
LTYPE
5
37
330
5
100
AcDbSymbolTableRecord
100
AcDbLinetypeTableRecord
2
DASHEDX2
70
0
3
Dashed (2x) ____  ____  ____  ____  ____  ___
72
65
73
2
40
38.1
49
25.4
74
0
49
-12.7
74
0
0
LTYPE
5
38
330
5
100
AcDbSymbolTableRecord
100
AcDbLinetypeTableRecord
2
DASHDOT
70
0
3
Dash dot __ . __ . __ . __ . __ . __ . __ . __
72
65
73
4
40
25.4
49
12.7
74
0
49
-6.35
74
0
49
0
74
0
49
-6.35
74
0
0
LTYPE
5
39
330
5
100
AcDbSymbolTableRecord
100
AcDbLinetypeTableRecord
2
DASHDOT2
70
0
3
Dash dot (.5x) _._._._._._._._._._._._._._._.
72
65
73
4
40
12.7
49
6.35
74
0
49
-3.175
74
0
49
0
74
0
49
-3.175
74
0
0
LTYPE
5
3A
330
5
100
AcDbSymbolTableRecord
100
AcDbLinetypeTableRecord
2
DASHDOTX2
70
0
3
Dash dot (2x) ____  .  ____  .  ____  .  ___
72
65
73
4
40
50.8
49
25.4
74
0
49
-12.7
74
0
49
0
74
0
49
-12.7
74
0
0
LTYPE
5
3B
330
5
100
AcDbSymbolTableRecord
100
AcDbLinetypeTableRecord
2
DIVIDE
70
0
3
Divide ____ . . ____ . . ____ . . ____ . . ____
72
65
73
6
40
31.75
49
12.7
74
0
49
-6.35
74
0
49
0
74
0
49
-6.35
74
0
49
0
74
0
49
-6.35
74
0
0
LTYPE
5
3C
330
5
100
AcDbSymbolTableRecord
100
AcDbLinetypeTableRecord
2
DIVIDE2
70
0
3
Divide (.5x) __..__..__..__..__..__..__..__.._
72
65
73
6
40
15.875
49
6.35
74
0
49
-3.175
74
0
49
0
74
0
49
-3.175
74
0
49
0
74
0
49
-3.175
74
0
0
LTYPE
5
3D
330
5
100
AcDbSymbolTableRecord
100
AcDbLinetypeTableRecord
2
DIVIDEX2
70
0
3
Divide (2x) ________  .  .  ________  .  .  _
72
65
73
6
40
63.5
49
25.4
74
0
49
-12.7
74
0
49
0
74
0
49
-12.7
74
0
49
0
74
0
49
-12.7
74
0
0
LTYPE
5
3E
330
5
100
AcDbSymbolTableRecord
100
AcDbLinetypeTableRecord
2
BORDER
70
0
3
Border __ __ . __ __ . __ __ . __ __ . __ __ .
72
65
73
6
40
44.45
49
12.7
74
0
49
-6.35
74
0
49
12.7
74
0
49
-6.35
74
0
49
0
74
0
49
-6.35
74
0
0
LTYPE
5
3F
330
5
100
AcDbSymbolTableRecord
100
AcDbLinetypeTableRecord
2
BORDER2
70
0
3
Border (.5x) __.__.__.__.__.__.__.__.__.__.__.
72
65
73
6
40
22.225
49
6.35
74
0
49
-3.175
74
0
49
6.35
74
0
49
-3.175
74
0
49
0
74
0
49
-3.175
74
0
0
LTYPE
5
40
330
5
100
AcDbSymbolTableRecord
100
AcDbLinetypeTableRecord
2
BORDERX2
70
0
3
Border (2x) ____  ____  .  ____  ____  .  ___
72
65
73
6
40
88.9
49
25.4
74
0
49
-12.7
74
0
49
25.4
74
0
49
-12.7
74
0
49
0
74
0
49
-12.7
74
0
0
LTYPE
5
41
330
5
100
AcDbSymbolTableRecord
100
AcDbLinetypeTableRecord
2
CENTER
70
0
3
Center ____ _ ____ _ ____ _ ____ _ ____ _ ____
72
65
73
4
40
50.8
49
31.75
74
0
49
-6.35
74
0
49
6.35
74
0
49
-6.35
74
0
0
LTYPE
5
42
330
5
100
AcDbSymbolTableRecord
100
AcDbLinetypeTableRecord
2
CENTER2
70
0
3
Center (.5x) ___ _ ___ _ ___ _ ___ _ ___ _ ___
72
65
73
4
40
28.575
49
19.05
74
0
49
-3.175
74
0
49
3.175
74
0
49
-3.175
74
0
0
LTYPE
5
43
330
5
100
AcDbSymbolTableRecord
100
AcDbLinetypeTableRecord
2
CENTERX2
70
0
3
Center (2x) ________  __  ________  __  _____
72
65
73
4
40
101.6
49
63.5
74
0
49
-12.7
74
0
49
12.7
74
0
49
-12.7
74
0
0
ENDTAB
0
TABLE
2
LAYER
5
2
330
0
100
AcDbSymbolTable
70
1
0
LAYER
5
10
330
2
100
AcDbSymbolTableRecord
100
AcDbLayerTableRecord
2
0
70
0
62
7
6
CONTINUOUS
370
0
390
F
0
ENDTAB
0
TABLE
2
STYLE
5
3
330
0
100
AcDbSymbolTable
70
3
0
STYLE
5
44
330
2
100
AcDbSymbolTableRecord
100
AcDbTextStyleTableRecord
2
Standard
70
0
40
0
41
1
50
0
71
0
42
1
3
txt
4

0
ENDTAB
0
TABLE
2
VIEW
5
6
330
0
100
AcDbSymbolTable
70
0
0
ENDTAB
0
TABLE
2
UCS
5
7
330
0
100
AcDbSymbolTable
70
0
0
ENDTAB
0
TABLE
2
APPID
5
9
330
0
100
AcDbSymbolTable
70
1
0
APPID
5
12
330
9
100
AcDbSymbolTableRecord
100
AcDbRegAppTableRecord
2
ACAD
70
0
0
ENDTAB
0
TABLE
2
DIMSTYLE
5
A
330
0
100
AcDbSymbolTable
70
1
100
AcDbDimStyleTable
71
1
0
DIMSTYLE
105
45
330
A
100
AcDbSymbolTableRecord
100
AcDbDimStyleTableRecord
2
Standard
70
0
40
1
41
2.5
42
0.625
43
0.38
44
1.25
45
0
46
0
47
0
48
0
140
2.5
141
0.09
142
0
143
25.4
144
1
145
0
146
1
147
0.625
148
0
71
0
72
0
73
0
74
1
75
0
76
0
77
0
78
0
79
0
170
0
171
2
172
0
173
0
174
0
175
0
176
0
177
0
178
0
179
0
271
4
272
4
273
2
274
2
275
0
276
0
277
2
278
46
279
0
280
0
281
0
282
0
283
1
284
0
285
0
286
0
288
0
289
3
340
Standard
341

371
-2
372
-2
0
ENDTAB
0
TABLE
2
BLOCK_RECORD
5
1
330
0
100
AcDbSymbolTable
70
2
0
BLOCK_RECORD
5
1F
330
1
100
AcDbSymbolTableRecord
100
AcDbBlockTableRecord
2
*Model_Space
70
0
280
1
281
0
0
BLOCK_RECORD
5
1E
330
1
100
AcDbSymbolTableRecord
100
AcDbBlockTableRecord
2
*Paper_Space
70
0
280
1
281
0
0
ENDTAB
0
ENDSEC
0
SECTION
2
BLOCKS
0
BLOCK
5
20
330
1F
100
AcDbEntity
8
0
100
AcDbBlockBegin
2
*Model_Space
70
0
10
0
20
0
30
0
3
*Model_Space
1

0
ENDBLK
5
21
330
1F
100
AcDbEntity
8
0
100
AcDbBlockEnd
0
BLOCK
5
1C
330
1B
100
AcDbEntity
8
0
100
AcDbBlockBegin
2
*Paper_Space
70
0
10
0
20
0
30
0
3
*Paper_Space
1

0
ENDBLK
5
1D
330
1F
100
AcDbEntity
8
0
100
AcDbBlockEnd
0
ENDSEC
0
SECTION
2
ENTITIES
0
LINE
5
46
100
AcDbEntity
8
0
6
CONTINUOUS
62
7
370
18
100
AcDbLine
10
2.5
20
3.5
11
4.267767
21
5.267767
0
LINE
5
47
100
AcDbEntity
8
0
6
CONTINUOUS
62
7
370
18
100
AcDbLine
10
2.5
20
3.5
11
5
21
3.5
0
LINE
5
48
100
AcDbEntity
8
0
6
CONTINUOUS
62
7
370
18
100
AcDbLine
10
0
20
0.75
11
5
21
0.75
0
ARC
5
49
100
AcDbEntity
8
0
6
CONTINUOUS
62
7
370
18
100
AcDbCircle
10
2.5
20
0.75
40
2.5
100
AcDbArc
50
0
51
180
0
LINE
5
4A
100
AcDbEntity
8
0
6
CONTINUOUS
62
7
370
18
100
AcDbLine
10
2.5
20
3.5
11
2.5
21
6
0
CIRCLE
5
4B
100
AcDbEntity
8
0
6
CONTINUOUS
62
7
370
18
100
AcDbCircle
10
2.5
20
3.5
40
0.25
0
CIRCLE
5
4C
100
AcDbEntity
8
0
6
CONTINUOUS
62
7
370
18
100
AcDbCircle
10
2.5
20
3.5
40
0.2
0
CIRCLE
5
4D
100
AcDbEntity
8
0
6
CONTINUOUS
62
7
370
18
100
AcDbCircle
10
2.5
20
3.5
40
0.15
0
CIRCLE
5
4E
100
AcDbEntity
8
0
6
CONTINUOUS
62
7
370
18
100
AcDbCircle
10
2.5
20
3.5
40
0.1
0
CIRCLE
5
4F
100
AcDbEntity
8
0
6
CONTINUOUS
62
7
370
18
100
AcDbCircle
10
2.5
20
3.5
40
0.05
0
LINE
5
50
100
AcDbEntity
8
0
6
CONTINUOUS
62
7
370
18
100
AcDbLine
10
2.5
20
3.5
11
0.732233
21
5.267767
0
LINE
5
51
100
AcDbEntity
8
0
6
CONTINUOUS
62
7
370
18
100
AcDbLine
10
2.549997
20
3.4995
11
0.049997
21
3.4995
0
LINE
5
52
100
AcDbEntity
8
0
6
CONTINUOUS
62
7
370
18
100
AcDbLine
10
2.152195
20
3.225688
11
2.847805
21
3.225688
0
LINE
5
53
100
AcDbEntity
8
0
6
CONTINUOUS
62
7
370
18
100
AcDbLine
10
1.973534
20
3.193938
11
3.026466
21
3.193938
0
LINE
5
54
100
AcDbEntity
8
0
6
CONTINUOUS
62
7
370
18
100
AcDbLine
10
1.843229
20
3.162188
11
3.156771
21
3.162188
0
LINE
5
55
100
AcDbEntity
8
0
6
CONTINUOUS
62
7
370
18
100
AcDbLine
10
1.736119
20
3.130438
11
3.263881
21
3.130438
0
LINE
5
56
100
AcDbEntity
8
0
6
CONTINUOUS
62
7
370
18
100
AcDbLine
10
1.643458
20
3.098688
11
3.356542
21
3.098688
0
LINE
5
57
100
AcDbEntity
8
0
6
CONTINUOUS
62
7
370
18
100
AcDbLine
10
1.560959
20
3.066938
11
3.439041
21
3.066938
0
LINE
5
58
100
AcDbEntity
8
0
6
CONTINUOUS
62
7
370
18
100
AcDbLine
10
1.486139
20
3.035188
11
3.513861
21
3.035188
0
LINE
5
59
100
AcDbEntity
8
0
6
CONTINUOUS
62
7
370
18
100
AcDbLine
10
1.417403
20
3.003438
11
3.582597
21
3.003438
0
LINE
5
5A
100
AcDbEntity
8
0
6
CONTINUOUS
62
7
370
18
100
AcDbLine
10
1.353657
20
2.971688
11
3.646343
21
2.971688
0
LINE
5
5B
100
AcDbEntity
8
0
6
CONTINUOUS
62
7
370
18
100
AcDbLine
10
1.29411
20
2.939938
11
3.70589
21
2.939938
0
LINE
5
5C
100
AcDbEntity
8
0
6
CONTINUOUS
62
7
370
18
100
AcDbLine
10
1.238166
20
2.908188
11
3.761834
21
2.908188
0
LINE
5
5D
100
AcDbEntity
8
0
6
CONTINUOUS
62
7
370
18
100
AcDbLine
10
1.185367
20
2.876438
11
3.814633
21
2.876438
0
LINE
5
5E
100
AcDbEntity
8
0
6
CONTINUOUS
62
7
370
18
100
AcDbLine
10
1.135346
20
2.844688
11
3.864654
21
2.844688
0
LINE
5
5F
100
AcDbEntity
8
0
6
CONTINUOUS
62
7
370
18
100
AcDbLine
10
1.087808
20
2.812938
11
3.912192
21
2.812938
0
LINE
5
60
100
AcDbEntity
8
0
6
CONTINUOUS
62
7
370
18
100
AcDbLine
10
1.042511
20
2.781188
11
3.957489
21
2.781188
0
LINE
5
61
100
AcDbEntity
8
0
6
CONTINUOUS
62
7
370
18
100
AcDbLine
10
0.999251
20
2.749438
11
4.000749
21
2.749438
0
LINE
5
62
100
AcDbEntity
8
0
6
CONTINUOUS
62
7
370
18
100
AcDbLine
10
0.957858
20
2.717688
11
4.042142
21
2.717688
0
LINE
5
63
100
AcDbEntity
8
0
6
CONTINUOUS
62
7
370
18
100
AcDbLine
10
0.918183
20
2.685938
11
4.081817
21
2.685938
0
LINE
5
64
100
AcDbEntity
8
0
6
CONTINUOUS
62
7
370
18
100
AcDbLine
10
0.880103
20
2.654188
11
4.119897
21
2.654188
0
LINE
5
65
100
AcDbEntity
8
0
6
CONTINUOUS
62
7
370
18
100
AcDbLine
10
0.843505
20
2.622438
11
4.156495
21
2.622438
0
LINE
5
66
100
AcDbEntity
8
0
6
CONTINUOUS
62
7
370
18
100
AcDbLine
10
0.808295
20
2.590688
11
4.191705
21
2.590688
0
LINE
5
67
100
AcDbEntity
8
0
6
CONTINUOUS
62
7
370
18
100
AcDbLine
10
0.774386
20
2.558938
11
4.225614
21
2.558938
0
LINE
5
68
100
AcDbEntity
8
0
6
CONTINUOUS
62
7
370
18
100
AcDbLine
10
0.741705
20
2.527188
11
4.258295
21
2.527188
0
LINE
5
69
100
AcDbEntity
8
0
6
CONTINUOUS
62
7
370
18
100
AcDbLine
10
0.710183
20
2.495438
11
4.289817
21
2.495438
0
LINE
5
6A
100
AcDbEntity
8
0
6
CONTINUOUS
62
7
370
18
100
AcDbLine
10
0.67976
20
2.463688
11
4.32024
21
2.463688
0
LINE
5
6B
100
AcDbEntity
8
0
6
CONTINUOUS
62
7
370
18
100
AcDbLine
10
0.650383
20
2.431938
11
4.349617
21
2.431938
0
LINE
5
6C
100
AcDbEntity
8
0
6
CONTINUOUS
62
7
370
18
100
AcDbLine
10
0.622001
20
2.400188
11
4.377999
21
2.400188
0
LINE
5
6D
100
AcDbEntity
8
0
6
CONTINUOUS
62
7
370
18
100
AcDbLine
10
0.594571
20
2.368438
11
4.405429
21
2.368438
0
LINE
5
6E
100
AcDbEntity
8
0
6
CONTINUOUS
62
7
370
18
100
AcDbLine
10
0.568053
20
2.336688
11
4.431947
21
2.336688
0
LINE
5
6F
100
AcDbEntity
8
0
6
CONTINUOUS
62
7
370
18
100
AcDbLine
10
0.542408
20
2.304938
11
4.457592
21
2.304938
0
LINE
5
70
100
AcDbEntity
8
0
6
CONTINUOUS
62
7
370
18
100
AcDbLine
10
0.517603
20
2.273188
11
4.482397
21
2.273188
0
LINE
5
71
100
AcDbEntity
8
0
6
CONTINUOUS
62
7
370
18
100
AcDbLine
10
0.493607
20
2.241438
11
4.506393
21
2.241438
0
LINE
5
72
100
AcDbEntity
8
0
6
CONTINUOUS
62
7
370
18
100
AcDbLine
10
0.470392
20
2.209688
11
4.529608
21
2.209688
0
LINE
5
73
100
AcDbEntity
8
0
6
CONTINUOUS
62
7
370
18
100
AcDbLine
10
0.44793
20
2.177938
11
4.55207
21
2.177938
0
LINE
5
74
100
AcDbEntity
8
0
6
CONTINUOUS
62
7
370
18
100
AcDbLine
10
0.426197
20
2.146188
11
4.573803
21
2.146188
0
LINE
5
75
100
AcDbEntity
8
0
6
CONTINUOUS
62
7
370
18
100
AcDbLine
10
0.405171
20
2.114438
11
4.594829
21
2.114438
0
LINE
5
76
100
AcDbEntity
8
0
6
CONTINUOUS
62
7
370
18
100
AcDbLine
10
0.38483
20
2.082688
11
4.61517
21
2.082688
0
LINE
5
77
100
AcDbEntity
8
0
6
CONTINUOUS
62
7
370
18
100
AcDbLine
10
0.365156
20
2.050938
11
4.634844
21
2.050938
0
LINE
5
78
100
AcDbEntity
8
0
6
CONTINUOUS
62
7
370
18
100
AcDbLine
10
0.346129
20
2.019188
11
4.653871
21
2.019188
0
LINE
5
79
100
AcDbEntity
8
0
6
CONTINUOUS
62
7
370
18
100
AcDbLine
10
0.327732
20
1.987438
11
4.672268
21
1.987438
0
LINE
5
7A
100
AcDbEntity
8
0
6
CONTINUOUS
62
7
370
18
100
AcDbLine
10
0.309951
20
1.955688
11
4.690049
21
1.955688
0
LINE
5
7B
100
AcDbEntity
8
0
6
CONTINUOUS
62
7
370
18
100
AcDbLine
10
0.292769
20
1.923938
11
4.707231
21
1.923938
0
LINE
5
7C
100
AcDbEntity
8
0
6
CONTINUOUS
62
7
370
18
100
AcDbLine
10
0.276173
20
1.892188
11
4.723827
21
1.892188
0
LINE
5
7D
100
AcDbEntity
8
0
6
CONTINUOUS
62
7
370
18
100
AcDbLine
10
0.26015
20
1.860438
11
4.73985
21
1.860438
0
LINE
5
7E
100
AcDbEntity
8
0
6
CONTINUOUS
62
7
370
18
100
AcDbLine
10
0.244688
20
1.828688
11
4.755312
21
1.828688
0
LINE
5
7F
100
AcDbEntity
8
0
6
CONTINUOUS
62
7
370
18
100
AcDbLine
10
0.229775
20
1.796938
11
4.770225
21
1.796938
0
LINE
5
80
100
AcDbEntity
8
0
6
CONTINUOUS
62
7
370
18
100
AcDbLine
10
0.215401
20
1.765188
11
4.784599
21
1.765188
0
LINE
5
81
100
AcDbEntity
8
0
6
CONTINUOUS
62
7
370
18
100
AcDbLine
10
0.201555
20
1.733438
11
4.798445
21
1.733438
0
LINE
5
82
100
AcDbEntity
8
0
6
CONTINUOUS
62
7
370
18
100
AcDbLine
10
0.188228
20
1.701688
11
4.811772
21
1.701688
0
LINE
5
83
100
AcDbEntity
8
0
6
CONTINUOUS
62
7
370
18
100
AcDbLine
10
0.175411
20
1.669938
11
4.824589
21
1.669938
0
LINE
5
84
100
AcDbEntity
8
0
6
CONTINUOUS
62
7
370
18
100
AcDbLine
10
0.163096
20
1.638188
11
4.836904
21
1.638188
0
LINE
5
85
100
AcDbEntity
8
0
6
CONTINUOUS
62
7
370
18
100
AcDbLine
10
0.151274
20
1.606438
11
4.848726
21
1.606438
0
LINE
5
86
100
AcDbEntity
8
0
6
CONTINUOUS
62
7
370
18
100
AcDbLine
10
0.139939
20
1.574688
11
4.860061
21
1.574688
0
LINE
5
87
100
AcDbEntity
8
0
6
CONTINUOUS
62
7
370
18
100
AcDbLine
10
0.129083
20
1.542938
11
4.870917
21
1.542938
0
LINE
5
88
100
AcDbEntity
8
0
6
CONTINUOUS
62
7
370
18
100
AcDbLine
10
0.118699
20
1.511188
11
4.881301
21
1.511188
0
LINE
5
89
100
AcDbEntity
8
0
6
CONTINUOUS
62
7
370
18
100
AcDbLine
10
0.108783
20
1.479438
11
4.891217
21
1.479438
0
LINE
5
8A
100
AcDbEntity
8
0
6
CONTINUOUS
62
7
370
18
100
AcDbLine
10
0.099327
20
1.447688
11
4.900673
21
1.447688
0
LINE
5
8B
100
AcDbEntity
8
0
6
CONTINUOUS
62
7
370
18
100
AcDbLine
10
0.090327
20
1.415938
11
4.909673
21
1.415938
0
LINE
5
8C
100
AcDbEntity
8
0
6
CONTINUOUS
62
7
370
18
100
AcDbLine
10
0.081776
20
1.384188
11
4.918224
21
1.384188
0
LINE
5
8D
100
AcDbEntity
8
0
6
CONTINUOUS
62
7
370
18
100
AcDbLine
10
0.073672
20
1.352438
11
4.926328
21
1.352438
0
LINE
5
8E
100
AcDbEntity
8
0
6
CONTINUOUS
62
7
370
18
100
AcDbLine
10
0.066008
20
1.320688
11
4.933992
21
1.320688
0
LINE
5
8F
100
AcDbEntity
8
0
6
CONTINUOUS
62
7
370
18
100
AcDbLine
10
0.058782
20
1.288938
11
4.941218
21
1.288938
0
LINE
5
90
100
AcDbEntity
8
0
6
CONTINUOUS
62
7
370
18
100
AcDbLine
10
0.051989
20
1.257188
11
4.948011
21
1.257188
0
LINE
5
91
100
AcDbEntity
8
0
6
CONTINUOUS
62
7
370
18
100
AcDbLine
10
0.045625
20
1.225438
11
4.954375
21
1.225438
0
LINE
5
92
100
AcDbEntity
8
0
6
CONTINUOUS
62
7
370
18
100
AcDbLine
10
0.039687
20
1.193688
11
4.960313
21
1.193688
0
LINE
5
93
100
AcDbEntity
8
0
6
CONTINUOUS
62
7
370
18
100
AcDbLine
10
0.034172
20
1.161938
11
4.965828
21
1.161938
0
LINE
5
94
100
AcDbEntity
8
0
6
CONTINUOUS
62
7
370
18
100
AcDbLine
10
0.029078
20
1.130188
11
4.970922
21
1.130188
0
LINE
5
95
100
AcDbEntity
8
0
6
CONTINUOUS
62
7
370
18
100
AcDbLine
10
0.024401
20
1.098438
11
4.975599
21
1.098438
0
LINE
5
96
100
AcDbEntity
8
0
6
CONTINUOUS
62
7
370
18
100
AcDbLine
10
0.020139
20
1.066688
11
4.979861
21
1.066688
0
LINE
5
97
100
AcDbEntity
8
0
6
CONTINUOUS
62
7
370
18
100
AcDbLine
10
0.016291
20
1.034938
11
4.983709
21
1.034938
0
LINE
5
98
100
AcDbEntity
8
0
6
CONTINUOUS
62
7
370
18
100
AcDbLine
10
0.012854
20
1.003188
11
4.987146
21
1.003188
0
LINE
5
99
100
AcDbEntity
8
0
6
CONTINUOUS
62
7
370
18
100
AcDbLine
10
0.009826
20
0.971438
11
4.990174
21
0.971438
0
LINE
5
9A
100
AcDbEntity
8
0
6
CONTINUOUS
62
7
370
18
100
AcDbLine
10
0.007207
20
0.939688
11
4.992793
21
0.939688
0
LINE
5
9B
100
AcDbEntity
8
0
6
CONTINUOUS
62
7
370
18
100
AcDbLine
10
0.004994
20
0.907938
11
4.995006
21
0.907938
0
LINE
5
9C
100
AcDbEntity
8
0
6
CONTINUOUS
62
7
370
18
100
AcDbLine
10
0.003187
20
0.876188
11
4.996813
21
0.876188
0
LINE
5
9D
100
AcDbEntity
8
0
6
CONTINUOUS
62
7
370
18
100
AcDbLine
10
0.001784
20
0.844438
11
4.998216
21
0.844438
0
LINE
5
9E
100
AcDbEntity
8
0
6
CONTINUOUS
62
7
370
18
100
AcDbLine
10
0.000786000000002
20
0.812688
11
4.999214
21
0.812688
0
LINE
5
9F
100
AcDbEntity
8
0
6
CONTINUOUS
62
7
370
18
100
AcDbLine
10
0.000191000000001
20
0.780938
11
4.999809
21
0.780938
0
ENDSEC
0
SECTION
2
OBJECTS
0
DICTIONARY
5
C
330
0
100
AcDbDictionary
281
1
3
ACAD_GROUP
350
D
0
DICTIONARY
5
D
330
C
100
AcDbDictionary
281
1
0
ENDSEC
0
EOF
