999
dxfrw 0.5.10
0
SECTION
2
HEADER
9
$ACADVER
1
AC1021
9
$HANDSEED
5
20000
9
$DWGCODEPAGE
3
ANSI_1252
9
$INSBASE
10
0
20
0
30
0
9
$EXTMIN
10
0
20
0
30
0
9
$EXTMAX
10
0
20
0
30
0
9
$LIMMIN
10
0
20
0
9
$LIMMAX
10
420
20
297
9
$ORTHOMODE
70
0
9
$LTSCALE
40
1
9
$TEXTSTYLE
7
STANDARD
9
$CLAYER
8
0
9
$DIMASZ
40
2.5
9
$DIMLFAC
40
1
9
$DIMSCALE
40
1
9
$DIMEXO
40
0.625
9
$DIMEXE
40
1.25
9
$DIMTXT
40
2.5
9
$DIMTSZ
40
0
9
$DIMAUNIT
70
0
9
$DIMADEC
70
0
9
$DIMLUNIT
70
2
9
$DIMSTYLE
2
STANDARD
9
$DIMGAP
40
0.625
9
$DIMTIH
70
0
9
$LUNITS
70
2
9
$LUPREC
70
4
9
$AUNITS
70
0
9
$AUPREC
70
2
9
$SPLINESEGS
70
8
9
$GRIDMODE
70
1
9
$SNAPSTYLE
70
0
9
$PINSBASE
10
0
20
0
30
0
9
$PLIMMIN
10
0
20
0
9
$PLIMMAX
10
210
20
297
9
$INSUNITS
70
0
9
$PSVPSCALE
40
1
0
ENDSEC
0
SECTION
2
CLASSES
0
ENDSEC
0
SECTION
2
TABLES
0
TABLE
2
VPORT
5
8
330
0
100
AcDbSymbolTable
70
1
0
VPORT
5
31
330
2
100
AcDbSymbolTableRecord
100
AcDbViewportTableRecord
2
*ACTIVE
70
0
10
0
20
0
11
1
21
1
12
153.75
22
71.125
13
0
23
0
14
10
24
10
15
10
25
10
16
0
26
0
36
1
17
0
27
0
37
0
40
154.75
41
2.06785137318
42
50
43
0
44
0
50
0
51
0
71
0
72
100
73
1
74
3
75
0
76
1
77
0
78
0
281
0
65
1
110
0
120
0
130
0
111
1
121
0
131
0
112
0
122
1
132
0
79
0
146
0
348
10020
60
7
61
5
292
1
282
1
141
0
142
0
63
250
421
3358443
0
ENDTAB
0
TABLE
2
LTYPE
5
5
330
0
100
AcDbSymbolTable
70
4
0
LTYPE
5
14
330
5
100
AcDbSymbolTableRecord
100
AcDbLinetypeTableRecord
2
ByBlock
70
0
3

72
65
73
0
40
0
0
LTYPE
5
15
330
5
100
AcDbSymbolTableRecord
100
AcDbLinetypeTableRecord
2
ByLayer
70
0
3

72
65
73
0
40
0
0
LTYPE
5
16
330
5
100
AcDbSymbolTableRecord
100
AcDbLinetypeTableRecord
2
Continuous
70
0
3
Solid line
72
65
73
0
40
0
0
LTYPE
5
32
330
5
100
AcDbSymbolTableRecord
100
AcDbLinetypeTableRecord
2
DOT
70
0
3
Dot . . . . . . . . . . . . . . . . . . . . . .
72
65
73
2
40
6.35
49
0
74
0
49
-6.35
74
0
0
LTYPE
5
33
330
5
100
AcDbSymbolTableRecord
100
AcDbLinetypeTableRecord
2
DOT2
70
0
3
Dot (.5x) .....................................
72
65
73
2
40
3.175
49
0
74
0
49
-3.175
74
0
0
LTYPE
5
34
330
5
100
AcDbSymbolTableRecord
100
AcDbLinetypeTableRecord
2
DOTX2
70
0
3
Dot (2x) .  .  .  .  .  .  .  .  .  .  .  .  .
72
65
73
2
40
12.7
49
0
74
0
49
-12.7
74
0
0
LTYPE
5
35
330
5
100
AcDbSymbolTableRecord
100
AcDbLinetypeTableRecord
2
DASHED
70
0
3
Dot . . . . . . . . . . . . . . . . . . . . . .
72
65
73
2
40
19.05
49
12.7
74
0
49
-6.35
74
0
0
LTYPE
5
36
330
5
100
AcDbSymbolTableRecord
100
AcDbLinetypeTableRecord
2
DASHED2
70
0
3
Dashed (.5x) _ _ _ _ _ _ _ _ _ _ _ _ _ _ _ _ _
72
65
73
2
40
9.525
49
6.35
74
0
49
-3.175
74
0
0
LTYPE
5
37
330
5
100
AcDbSymbolTableRecord
100
AcDbLinetypeTableRecord
2
DASHEDX2
70
0
3
Dashed (2x) ____  ____  ____  ____  ____  ___
72
65
73
2
40
38.1
49
25.4
74
0
49
-12.7
74
0
0
LTYPE
5
38
330
5
100
AcDbSymbolTableRecord
100
AcDbLinetypeTableRecord
2
DASHDOT
70
0
3
Dash dot __ . __ . __ . __ . __ . __ . __ . __
72
65
73
4
40
25.4
49
12.7
74
0
49
-6.35
74
0
49
0
74
0
49
-6.35
74
0
0
LTYPE
5
39
330
5
100
AcDbSymbolTableRecord
100
AcDbLinetypeTableRecord
2
DASHDOT2
70
0
3
Dash dot (.5x) _._._._._._._._._._._._._._._.
72
65
73
4
40
12.7
49
6.35
74
0
49
-3.175
74
0
49
0
74
0
49
-3.175
74
0
0
LTYPE
5
3A
330
5
100
AcDbSymbolTableRecord
100
AcDbLinetypeTableRecord
2
DASHDOTX2
70
0
3
Dash dot (2x) ____  .  ____  .  ____  .  ___
72
65
73
4
40
50.8
49
25.4
74
0
49
-12.7
74
0
49
0
74
0
49
-12.7
74
0
0
LTYPE
5
3B
330
5
100
AcDbSymbolTableRecord
100
AcDbLinetypeTableRecord
2
DIVIDE
70
0
3
Divide ____ . . ____ . . ____ . . ____ . . ____
72
65
73
6
40
31.75
49
12.7
74
0
49
-6.35
74
0
49
0
74
0
49
-6.35
74
0
49
0
74
0
49
-6.35
74
0
0
LTYPE
5
3C
330
5
100
AcDbSymbolTableRecord
100
AcDbLinetypeTableRecord
2
DIVIDE2
70
0
3
Divide (.5x) __..__..__..__..__..__..__..__.._
72
65
73
6
40
15.875
49
6.35
74
0
49
-3.175
74
0
49
0
74
0
49
-3.175
74
0
49
0
74
0
49
-3.175
74
0
0
LTYPE
5
3D
330
5
100
AcDbSymbolTableRecord
100
AcDbLinetypeTableRecord
2
DIVIDEX2
70
0
3
Divide (2x) ________  .  .  ________  .  .  _
72
65
73
6
40
63.5
49
25.4
74
0
49
-12.7
74
0
49
0
74
0
49
-12.7
74
0
49
0
74
0
49
-12.7
74
0
0
LTYPE
5
3E
330
5
100
AcDbSymbolTableRecord
100
AcDbLinetypeTableRecord
2
BORDER
70
0
3
Border __ __ . __ __ . __ __ . __ __ . __ __ .
72
65
73
6
40
44.45
49
12.7
74
0
49
-6.35
74
0
49
12.7
74
0
49
-6.35
74
0
49
0
74
0
49
-6.35
74
0
0
LTYPE
5
3F
330
5
100
AcDbSymbolTableRecord
100
AcDbLinetypeTableRecord
2
BORDER2
70
0
3
Border (.5x) __.__.__.__.__.__.__.__.__.__.__.
72
65
73
6
40
22.225
49
6.35
74
0
49
-3.175
74
0
49
6.35
74
0
49
-3.175
74
0
49
0
74
0
49
-3.175
74
0
0
LTYPE
5
40
330
5
100
AcDbSymbolTableRecord
100
AcDbLinetypeTableRecord
2
BORDERX2
70
0
3
Border (2x) ____  ____  .  ____  ____  .  ___
72
65
73
6
40
88.9
49
25.4
74
0
49
-12.7
74
0
49
25.4
74
0
49
-12.7
74
0
49
0
74
0
49
-12.7
74
0
0
LTYPE
5
41
330
5
100
AcDbSymbolTableRecord
100
AcDbLinetypeTableRecord
2
CENTER
70
0
3
Center ____ _ ____ _ ____ _ ____ _ ____ _ ____
72
65
73
4
40
50.8
49
31.75
74
0
49
-6.35
74
0
49
6.35
74
0
49
-6.35
74
0
0
LTYPE
5
42
330
5
100
AcDbSymbolTableRecord
100
AcDbLinetypeTableRecord
2
CENTER2
70
0
3
Center (.5x) ___ _ ___ _ ___ _ ___ _ ___ _ ___
72
65
73
4
40
28.575
49
19.05
74
0
49
-3.175
74
0
49
3.175
74
0
49
-3.175
74
0
0
LTYPE
5
43
330
5
100
AcDbSymbolTableRecord
100
AcDbLinetypeTableRecord
2
CENTERX2
70
0
3
Center (2x) ________  __  ________  __  _____
72
65
73
4
40
101.6
49
63.5
74
0
49
-12.7
74
0
49
12.7
74
0
49
-12.7
74
0
0
ENDTAB
0
TABLE
2
LAYER
5
2
330
0
100
AcDbSymbolTable
70
1
0
LAYER
5
10
330
2
100
AcDbSymbolTableRecord
100
AcDbLayerTableRecord
2
0
70
0
62
7
6
CONTINUOUS
370
0
390
F
0
ENDTAB
0
TABLE
2
STYLE
5
3
330
0
100
AcDbSymbolTable
70
3
0
STYLE
5
44
330
2
100
AcDbSymbolTableRecord
100
AcDbTextStyleTableRecord
2
Standard
70
0
40
0
41
1
50
0
71
0
42
1
3
txt
4

0
ENDTAB
0
TABLE
2
VIEW
5
6
330
0
100
AcDbSymbolTable
70
0
0
ENDTAB
0
TABLE
2
UCS
5
7
330
0
100
AcDbSymbolTable
70
0
0
ENDTAB
0
TABLE
2
APPID
5
9
330
0
100
AcDbSymbolTable
70
1
0
APPID
5
12
330
9
100
AcDbSymbolTableRecord
100
AcDbRegAppTableRecord
2
ACAD
70
0
0
ENDTAB
0
TABLE
2
DIMSTYLE
5
A
330
0
100
AcDbSymbolTable
70
1
100
AcDbDimStyleTable
71
1
0
DIMSTYLE
105
45
330
A
100
AcDbSymbolTableRecord
100
AcDbDimStyleTableRecord
2
Standard
70
0
40
1
41
2.5
42
0.625
43
0.38
44
1.25
45
0
46
0
47
0
48
0
140
2.5
141
0.09
142
0
143
25.4
144
1
145
0
146
1
147
0.625
148
0
71
0
72
0
73
0
74
1
75
0
76
0
77
0
78
0
79
0
170
0
171
2
172
0
173
0
174
0
175
0
176
0
177
0
178
0
179
0
271
4
272
4
273
2
274
2
275
0
276
0
277
2
278
46
279
0
280
0
281
0
282
0
283
1
284
0
285
0
286
0
288
0
289
3
340
Standard
341

371
-2
372
-2
0
ENDTAB
0
TABLE
2
BLOCK_RECORD
5
1
330
0
100
AcDbSymbolTable
70
2
0
BLOCK_RECORD
5
1F
330
1
100
AcDbSymbolTableRecord
100
AcDbBlockTableRecord
2
*Model_Space
70
0
280
1
281
0
0
BLOCK_RECORD
5
1E
330
1
100
AcDbSymbolTableRecord
100
AcDbBlockTableRecord
2
*Paper_Space
70
0
280
1
281
0
0
ENDTAB
0
ENDSEC
0
SECTION
2
BLOCKS
0
BLOCK
5
20
330
1F
100
AcDbEntity
8
0
100
AcDbBlockBegin
2
*Model_Space
70
0
10
0
20
0
30
0
3
*Model_Space
1

0
ENDBLK
5
21
330
1F
100
AcDbEntity
8
0
100
AcDbBlockEnd
0
BLOCK
5
1C
330
1B
100
AcDbEntity
8
0
100
AcDbBlockBegin
2
*Paper_Space
70
0
10
0
20
0
30
0
3
*Paper_Space
1

0
ENDBLK
5
1D
330
1F
100
AcDbEntity
8
0
100
AcDbBlockEnd
0
ENDSEC
0
SECTION
2
ENTITIES
0
LINE
5
46
100
AcDbEntity
8
0
6
CONTINUOUS
62
7
370
18
100
AcDbLine
10
0
20
3
11
6
21
3
0
LINE
5
47
100
AcDbEntity
8
0
6
CONTINUOUS
62
7
370
18
100
AcDbLine
10
6
20
3
11
6
21
0
0
LINE
5
48
100
AcDbEntity
8
0
6
CONTINUOUS
62
7
370
18
100
AcDbLine
10
6
20
0
11
0
21
0
0
LINE
5
49
100
AcDbEntity
8
0
6
CONTINUOUS
62
7
370
18
100
AcDbLine
10
0
20
0
11
0
21
3
0
LINE
5
4A
100
AcDbEntity
8
0
6
CONTINUOUS
62
7
370
18
100
AcDbLine
10
0
20
0
11
3
21
3
0
LINE
5
4B
100
AcDbEntity
8
0
6
CONTINUOUS
62
7
370
18
100
AcDbLine
10
3
20
3
11
6
21
0
0
LINE
5
4C
100
AcDbEntity
8
0
6
CONTINUOUS
62
7
370
18
100
AcDbLine
10
0
20
2.966429
11
0.033571
21
3
0
LINE
5
4D
100
AcDbEntity
8
0
6
CONTINUOUS
62
7
370
18
100
AcDbLine
10
0
20
2.921528
11
0.078472
21
3
0
LINE
5
4E
100
AcDbEntity
8
0
6
CONTINUOUS
62
7
370
18
100
AcDbLine
10
0
20
2.876627
11
0.123373
21
3
0
LINE
5
4F
100
AcDbEntity
8
0
6
CONTINUOUS
62
7
370
18
100
AcDbLine
10
0
20
2.831725
11
0.168275
21
3
0
LINE
5
50
100
AcDbEntity
8
0
6
CONTINUOUS
62
7
370
18
100
AcDbLine
10
0
20
2.786824
11
0.213176
21
3
0
LINE
5
51
100
AcDbEntity
8
0
6
CONTINUOUS
62
7
370
18
100
AcDbLine
10
0
20
2.741923
11
0.258077
21
3
0
LINE
5
52
100
AcDbEntity
8
0
6
CONTINUOUS
62
7
370
18
100
AcDbLine
10
0
20
2.697022
11
0.302978
21
3
0
LINE
5
53
100
AcDbEntity
8
0
6
CONTINUOUS
62
7
370
18
100
AcDbLine
10
0
20
2.65212
11
0.34788
21
3
0
LINE
5
54
100
AcDbEntity
8
0
6
CONTINUOUS
62
7
370
18
100
AcDbLine
10
0
20
2.607219
11
0.392781
21
3
0
LINE
5
55
100
AcDbEntity
8
0
6
CONTINUOUS
62
7
370
18
100
AcDbLine
10
0
20
2.562318
11
0.437682
21
3
0
LINE
5
56
100
AcDbEntity
8
0
6
CONTINUOUS
62
7
370
18
100
AcDbLine
10
0
20
2.517416
11
0.482584
21
3
0
LINE
5
57
100
AcDbEntity
8
0
6
CONTINUOUS
62
7
370
18
100
AcDbLine
10
0
20
2.472515
11
0.527485
21
3
0
LINE
5
58
100
AcDbEntity
8
0
6
CONTINUOUS
62
7
370
18
100
AcDbLine
10
0
20
2.427614
11
0.572386
21
3
0
LINE
5
59
100
AcDbEntity
8
0
6
CONTINUOUS
62
7
370
18
100
AcDbLine
10
0
20
2.382713
11
0.617287
21
3
0
LINE
5
5A
100
AcDbEntity
8
0
6
CONTINUOUS
62
7
370
18
100
AcDbLine
10
0
20
2.337811
11
0.662189
21
3
0
LINE
5
5B
100
AcDbEntity
8
0
6
CONTINUOUS
62
7
370
18
100
AcDbLine
10
0
20
2.29291
11
0.70709
21
3
0
LINE
5
5C
100
AcDbEntity
8
0
6
CONTINUOUS
62
7
370
18
100
AcDbLine
10
0
20
2.248009
11
0.751991
21
3
0
LINE
5
5D
100
AcDbEntity
8
0
6
CONTINUOUS
62
7
370
18
100
AcDbLine
10
0
20
2.203107
11
0.796893
21
3
0
LINE
5
5E
100
AcDbEntity
8
0
6
CONTINUOUS
62
7
370
18
100
AcDbLine
10
0
20
2.158206
11
0.841794
21
3
0
LINE
5
5F
100
AcDbEntity
8
0
6
CONTINUOUS
62
7
370
18
100
AcDbLine
10
0
20
2.113305
11
0.886695
21
3
0
LINE
5
60
100
AcDbEntity
8
0
6
CONTINUOUS
62
7
370
18
100
AcDbLine
10
0
20
2.068404
11
0.931596
21
3
0
LINE
5
61
100
AcDbEntity
8
0
6
CONTINUOUS
62
7
370
18
100
AcDbLine
10
0
20
2.023502
11
0.976498
21
3
0
LINE
5
62
100
AcDbEntity
8
0
6
CONTINUOUS
62
7
370
18
100
AcDbLine
10
0
20
1.978601
11
1.021399
21
3
0
LINE
5
63
100
AcDbEntity
8
0
6
CONTINUOUS
62
7
370
18
100
AcDbLine
10
0
20
1.9337
11
1.0663
21
3
0
LINE
5
64
100
AcDbEntity
8
0
6
CONTINUOUS
62
7
370
18
100
AcDbLine
10
0
20
1.888798
11
1.111202
21
3
0
LINE
5
65
100
AcDbEntity
8
0
6
CONTINUOUS
62
7
370
18
100
AcDbLine
10
0
20
1.843897
11
1.156103
21
3
0
LINE
5
66
100
AcDbEntity
8
0
6
CONTINUOUS
62
7
370
18
100
AcDbLine
10
0
20
1.798996
11
1.201004
21
3
0
LINE
5
67
100
AcDbEntity
8
0
6
CONTINUOUS
62
7
370
18
100
AcDbLine
10
0
20
1.754095
11
1.245905
21
3
0
LINE
5
68
100
AcDbEntity
8
0
6
CONTINUOUS
62
7
370
18
100
AcDbLine
10
0
20
1.709193
11
1.290807
21
3
0
LINE
5
69
100
AcDbEntity
8
0
6
CONTINUOUS
62
7
370
18
100
AcDbLine
10
0
20
1.664292
11
1.335708
21
3
0
LINE
5
6A
100
AcDbEntity
8
0
6
CONTINUOUS
62
7
370
18
100
AcDbLine
10
0
20
1.619391
11
1.380609
21
3
0
LINE
5
6B
100
AcDbEntity
8
0
6
CONTINUOUS
62
7
370
18
100
AcDbLine
10
0
20
1.57449
11
1.42551
21
3
0
LINE
5
6C
100
AcDbEntity
8
0
6
CONTINUOUS
62
7
370
18
100
AcDbLine
10
0
20
1.529588
11
1.470412
21
3
0
LINE
5
6D
100
AcDbEntity
8
0
6
CONTINUOUS
62
7
370
18
100
AcDbLine
10
0
20
1.484687
11
1.515313
21
3
0
LINE
5
6E
100
AcDbEntity
8
0
6
CONTINUOUS
62
7
370
18
100
AcDbLine
10
0
20
1.439786
11
1.560214
21
3
0
LINE
5
6F
100
AcDbEntity
8
0
6
CONTINUOUS
62
7
370
18
100
AcDbLine
10
0
20
1.394884
11
1.605116
21
3
0
LINE
5
70
100
AcDbEntity
8
0
6
CONTINUOUS
62
7
370
18
100
AcDbLine
10
0
20
1.349983
11
1.650017
21
3
0
LINE
5
71
100
AcDbEntity
8
0
6
CONTINUOUS
62
7
370
18
100
AcDbLine
10
0
20
1.305082
11
1.694918
21
3
0
LINE
5
72
100
AcDbEntity
8
0
6
CONTINUOUS
62
7
370
18
100
AcDbLine
10
0
20
1.260181
11
1.739819
21
3
0
LINE
5
73
100
AcDbEntity
8
0
6
CONTINUOUS
62
7
370
18
100
AcDbLine
10
0
20
1.215279
11
1.784721
21
3
0
LINE
5
74
100
AcDbEntity
8
0
6
CONTINUOUS
62
7
370
18
100
AcDbLine
10
0
20
1.170378
11
1.829622
21
3
0
LINE
5
75
100
AcDbEntity
8
0
6
CONTINUOUS
62
7
370
18
100
AcDbLine
10
0
20
1.125477
11
1.874523
21
3
0
LINE
5
76
100
AcDbEntity
8
0
6
CONTINUOUS
62
7
370
18
100
AcDbLine
10
0
20
1.080575
11
1.919425
21
3
0
LINE
5
77
100
AcDbEntity
8
0
6
CONTINUOUS
62
7
370
18
100
AcDbLine
10
0
20
1.035674
11
1.964326
21
3
0
LINE
5
78
100
AcDbEntity
8
0
6
CONTINUOUS
62
7
370
18
100
AcDbLine
10
0
20
0.990773
11
2.009227
21
3
0
LINE
5
79
100
AcDbEntity
8
0
6
CONTINUOUS
62
7
370
18
100
AcDbLine
10
0
20
0.945872
11
2.054128
21
3
0
LINE
5
7A
100
AcDbEntity
8
0
6
CONTINUOUS
62
7
370
18
100
AcDbLine
10
0
20
0.90097
11
2.09903
21
3
0
LINE
5
7B
100
AcDbEntity
8
0
6
CONTINUOUS
62
7
370
18
100
AcDbLine
10
0
20
0.856069
11
2.143931
21
3
0
LINE
5
7C
100
AcDbEntity
8
0
6
CONTINUOUS
62
7
370
18
100
AcDbLine
10
0
20
0.811168
11
2.188832
21
3
0
LINE
5
7D
100
AcDbEntity
8
0
6
CONTINUOUS
62
7
370
18
100
AcDbLine
10
0
20
0.766266
11
2.233734
21
3
0
LINE
5
7E
100
AcDbEntity
8
0
6
CONTINUOUS
62
7
370
18
100
AcDbLine
10
0
20
0.721365
11
2.278635
21
3
0
LINE
5
7F
100
AcDbEntity
8
0
6
CONTINUOUS
62
7
370
18
100
AcDbLine
10
0
20
0.676464
11
2.323536
21
3
0
LINE
5
80
100
AcDbEntity
8
0
6
CONTINUOUS
62
7
370
18
100
AcDbLine
10
0
20
0.631563
11
2.368437
21
3
0
LINE
5
81
100
AcDbEntity
8
0
6
CONTINUOUS
62
7
370
18
100
AcDbLine
10
0
20
0.586661
11
2.413339
21
3
0
LINE
5
82
100
AcDbEntity
8
0
6
CONTINUOUS
62
7
370
18
100
AcDbLine
10
0
20
0.54176
11
2.45824
21
3
0
LINE
5
83
100
AcDbEntity
8
0
6
CONTINUOUS
62
7
370
18
100
AcDbLine
10
0
20
0.496859
11
2.503141
21
3
0
LINE
5
84
100
AcDbEntity
8
0
6
CONTINUOUS
62
7
370
18
100
AcDbLine
10
0
20
0.451957
11
2.548043
21
3
0
LINE
5
85
100
AcDbEntity
8
0
6
CONTINUOUS
62
7
370
18
100
AcDbLine
10
0
20
0.407056
11
2.592944
21
3
0
LINE
5
86
100
AcDbEntity
8
0
6
CONTINUOUS
62
7
370
18
100
AcDbLine
10
0
20
0.362155
11
2.637845
21
3
0
LINE
5
87
100
AcDbEntity
8
0
6
CONTINUOUS
62
7
370
18
100
AcDbLine
10
0
20
0.317254
11
2.682746
21
3
0
LINE
5
88
100
AcDbEntity
8
0
6
CONTINUOUS
62
7
370
18
100
AcDbLine
10
0
20
0.272352
11
2.727648
21
3
0
LINE
5
89
100
AcDbEntity
8
0
6
CONTINUOUS
62
7
370
18
100
AcDbLine
10
0
20
0.227451
11
2.772549
21
3
0
LINE
5
8A
100
AcDbEntity
8
0
6
CONTINUOUS
62
7
370
18
100
AcDbLine
10
0
20
0.18255
11
2.81745
21
3
0
LINE
5
8B
100
AcDbEntity
8
0
6
CONTINUOUS
62
7
370
18
100
AcDbLine
10
0
20
0.137649
11
2.862351
21
3
0
LINE
5
8C
100
AcDbEntity
8
0
6
CONTINUOUS
62
7
370
18
100
AcDbLine
10
0
20
0.092747
11
2.907253
21
3
0
LINE
5
8D
100
AcDbEntity
8
0
6
CONTINUOUS
62
7
370
18
100
AcDbLine
10
0
20
0.047846
11
2.952154
21
3
0
LINE
5
8E
100
AcDbEntity
8
0
6
CONTINUOUS
62
7
370
18
100
AcDbLine
10
0
20
0.00294500000001
11
2.997055
21
3
0
LINE
5
8F
100
AcDbEntity
8
0
6
CONTINUOUS
62
7
370
18
100
AcDbLine
10
6
20
0.02788
11
3.02788
21
3
0
LINE
5
90
100
AcDbEntity
8
0
6
CONTINUOUS
62
7
370
18
100
AcDbLine
10
6
20
0.072781
11
3.072781
21
3
0
LINE
5
91
100
AcDbEntity
8
0
6
CONTINUOUS
62
7
370
18
100
AcDbLine
10
6
20
0.117683
11
3.117683
21
3
0
LINE
5
92
100
AcDbEntity
8
0
6
CONTINUOUS
62
7
370
18
100
AcDbLine
10
6
20
0.162584
11
3.162584
21
3
0
LINE
5
93
100
AcDbEntity
8
0
6
CONTINUOUS
62
7
370
18
100
AcDbLine
10
6
20
0.207485
11
3.207485
21
3
0
LINE
5
94
100
AcDbEntity
8
0
6
CONTINUOUS
62
7
370
18
100
AcDbLine
10
6
20
0.252387
11
3.252387
21
3
0
LINE
5
95
100
AcDbEntity
8
0
6
CONTINUOUS
62
7
370
18
100
AcDbLine
10
6
20
0.297288
11
3.297288
21
3
0
LINE
5
96
100
AcDbEntity
8
0
6
CONTINUOUS
62
7
370
18
100
AcDbLine
10
6
20
0.342189
11
3.342189
21
3
0
LINE
5
97
100
AcDbEntity
8
0
6
CONTINUOUS
62
7
370
18
100
AcDbLine
10
6
20
0.38709
11
3.38709
21
3
0
LINE
5
98
100
AcDbEntity
8
0
6
CONTINUOUS
62
7
370
18
100
AcDbLine
10
6
20
0.431992
11
3.431992
21
3
0
LINE
5
99
100
AcDbEntity
8
0
6
CONTINUOUS
62
7
370
18
100
AcDbLine
10
6
20
0.476893
11
3.476893
21
3
0
LINE
5
9A
100
AcDbEntity
8
0
6
CONTINUOUS
62
7
370
18
100
AcDbLine
10
6
20
0.521794
11
3.521794
21
3
0
LINE
5
9B
100
AcDbEntity
8
0
6
CONTINUOUS
62
7
370
18
100
AcDbLine
10
6
20
0.566696
11
3.566696
21
3
0
LINE
5
9C
100
AcDbEntity
8
0
6
CONTINUOUS
62
7
370
18
100
AcDbLine
10
6
20
0.611597
11
3.611597
21
3
0
LINE
5
9D
100
AcDbEntity
8
0
6
CONTINUOUS
62
7
370
18
100
AcDbLine
10
6
20
0.656498
11
3.656498
21
3
0
LINE
5
9E
100
AcDbEntity
8
0
6
CONTINUOUS
62
7
370
18
100
AcDbLine
10
6
20
0.701399
11
3.701399
21
3
0
LINE
5
9F
100
AcDbEntity
8
0
6
CONTINUOUS
62
7
370
18
100
AcDbLine
10
6
20
0.746301
11
3.746301
21
3
0
LINE
5
A0
100
AcDbEntity
8
0
6
CONTINUOUS
62
7
370
18
100
AcDbLine
10
6
20
0.791202
11
3.791202
21
3
0
LINE
5
A1
100
AcDbEntity
8
0
6
CONTINUOUS
62
7
370
18
100
AcDbLine
10
6
20
0.836103
11
3.836103
21
3
0
LINE
5
A2
100
AcDbEntity
8
0
6
CONTINUOUS
62
7
370
18
100
AcDbLine
10
6
20
0.881004
11
3.881004
21
3
0
LINE
5
A3
100
AcDbEntity
8
0
6
CONTINUOUS
62
7
370
18
100
AcDbLine
10
6
20
0.925906
11
3.925906
21
3
0
LINE
5
A4
100
AcDbEntity
8
0
6
CONTINUOUS
62
7
370
18
100
AcDbLine
10
6
20
0.970807
11
3.970807
21
3
0
LINE
5
A5
100
AcDbEntity
8
0
6
CONTINUOUS
62
7
370
18
100
AcDbLine
10
6
20
1.015708
11
4.015708
21
3
0
LINE
5
A6
100
AcDbEntity
8
0
6
CONTINUOUS
62
7
370
18
100
AcDbLine
10
6
20
1.06061
11
4.06061
21
3
0
LINE
5
A7
100
AcDbEntity
8
0
6
CONTINUOUS
62
7
370
18
100
AcDbLine
10
6
20
1.105511
11
4.105511
21
3
0
LINE
5
A8
100
AcDbEntity
8
0
6
CONTINUOUS
62
7
370
18
100
AcDbLine
10
6
20
1.150412
11
4.150412
21
3
0
LINE
5
A9
100
AcDbEntity
8
0
6
CONTINUOUS
62
7
370
18
100
AcDbLine
10
6
20
1.195313
11
4.195313
21
3
0
LINE
5
AA
100
AcDbEntity
8
0
6
CONTINUOUS
62
7
370
18
100
AcDbLine
10
6
20
1.240215
11
4.240215
21
3
0
LINE
5
AB
100
AcDbEntity
8
0
6
CONTINUOUS
62
7
370
18
100
AcDbLine
10
6
20
1.285116
11
4.285116
21
3
0
LINE
5
AC
100
AcDbEntity
8
0
6
CONTINUOUS
62
7
370
18
100
AcDbLine
10
6
20
1.330017
11
4.330017
21
3
0
LINE
5
AD
100
AcDbEntity
8
0
6
CONTINUOUS
62
7
370
18
100
AcDbLine
10
6
20
1.374919
11
4.374919
21
3
0
LINE
5
AE
100
AcDbEntity
8
0
6
CONTINUOUS
62
7
370
18
100
AcDbLine
10
6
20
1.41982
11
4.41982
21
3
0
LINE
5
AF
100
AcDbEntity
8
0
6
CONTINUOUS
62
7
370
18
100
AcDbLine
10
6
20
1.464721
11
4.464721
21
3
0
LINE
5
B0
100
AcDbEntity
8
0
6
CONTINUOUS
62
7
370
18
100
AcDbLine
10
6
20
1.509622
11
4.509622
21
3
0
LINE
5
B1
100
AcDbEntity
8
0
6
CONTINUOUS
62
7
370
18
100
AcDbLine
10
6
20
1.554524
11
4.554524
21
3
0
LINE
5
B2
100
AcDbEntity
8
0
6
CONTINUOUS
62
7
370
18
100
AcDbLine
10
6
20
1.599425
11
4.599425
21
3
0
LINE
5
B3
100
AcDbEntity
8
0
6
CONTINUOUS
62
7
370
18
100
AcDbLine
10
6
20
1.644326
11
4.644326
21
3
0
LINE
5
B4
100
AcDbEntity
8
0
6
CONTINUOUS
62
7
370
18
100
AcDbLine
10
6
20
1.689228
11
4.689228
21
3
0
LINE
5
B5
100
AcDbEntity
8
0
6
CONTINUOUS
62
7
370
18
100
AcDbLine
10
6
20
1.734129
11
4.734129
21
3
0
LINE
5
B6
100
AcDbEntity
8
0
6
CONTINUOUS
62
7
370
18
100
AcDbLine
10
6
20
1.77903
11
4.77903
21
3
0
LINE
5
B7
100
AcDbEntity
8
0
6
CONTINUOUS
62
7
370
18
100
AcDbLine
10
6
20
1.823931
11
4.823931
21
3
0
LINE
5
B8
100
AcDbEntity
8
0
6
CONTINUOUS
62
7
370
18
100
AcDbLine
10
6
20
1.868833
11
4.868833
21
3
0
LINE
5
B9
100
AcDbEntity
8
0
6
CONTINUOUS
62
7
370
18
100
AcDbLine
10
6
20
1.913734
11
4.913734
21
3
0
LINE
5
BA
100
AcDbEntity
8
0
6
CONTINUOUS
62
7
370
18
100
AcDbLine
10
6
20
1.958635
11
4.958635
21
3
0
LINE
5
BB
100
AcDbEntity
8
0
6
CONTINUOUS
62
7
370
18
100
AcDbLine
10
6
20
2.003536
11
5.003536
21
3
0
LINE
5
BC
100
AcDbEntity
8
0
6
CONTINUOUS
62
7
370
18
100
AcDbLine
10
6
20
2.048438
11
5.048438
21
3
0
LINE
5
BD
100
AcDbEntity
8
0
6
CONTINUOUS
62
7
370
18
100
AcDbLine
10
6
20
2.093339
11
5.093339
21
3
0
LINE
5
BE
100
AcDbEntity
8
0
6
CONTINUOUS
62
7
370
18
100
AcDbLine
10
6
20
2.13824
11
5.13824
21
3
0
LINE
5
BF
100
AcDbEntity
8
0
6
CONTINUOUS
62
7
370
18
100
AcDbLine
10
6
20
2.183142
11
5.183142
21
3
0
LINE
5
C0
100
AcDbEntity
8
0
6
CONTINUOUS
62
7
370
18
100
AcDbLine
10
6
20
2.228043
11
5.228043
21
3
0
LINE
5
C1
100
AcDbEntity
8
0
6
CONTINUOUS
62
7
370
18
100
AcDbLine
10
6
20
2.272944
11
5.272944
21
3
0
LINE
5
C2
100
AcDbEntity
8
0
6
CONTINUOUS
62
7
370
18
100
AcDbLine
10
6
20
2.317845
11
5.317845
21
3
0
LINE
5
C3
100
AcDbEntity
8
0
6
CONTINUOUS
62
7
370
18
100
AcDbLine
10
6
20
2.362747
11
5.362747
21
3
0
LINE
5
C4
100
AcDbEntity
8
0
6
CONTINUOUS
62
7
370
18
100
AcDbLine
10
6
20
2.407648
11
5.407648
21
3
0
LINE
5
C5
100
AcDbEntity
8
0
6
CONTINUOUS
62
7
370
18
100
AcDbLine
10
6
20
2.452549
11
5.452549
21
3
0
LINE
5
C6
100
AcDbEntity
8
0
6
CONTINUOUS
62
7
370
18
100
AcDbLine
10
6
20
2.497451
11
5.497451
21
3
0
LINE
5
C7
100
AcDbEntity
8
0
6
CONTINUOUS
62
7
370
18
100
AcDbLine
10
6
20
2.542352
11
5.542352
21
3
0
LINE
5
C8
100
AcDbEntity
8
0
6
CONTINUOUS
62
7
370
18
100
AcDbLine
10
6
20
2.587253
11
5.587253
21
3
0
LINE
5
C9
100
AcDbEntity
8
0
6
CONTINUOUS
62
7
370
18
100
AcDbLine
10
6
20
2.632154
11
5.632154
21
3
0
LINE
5
CA
100
AcDbEntity
8
0
6
CONTINUOUS
62
7
370
18
100
AcDbLine
10
6
20
2.677056
11
5.677056
21
3
0
LINE
5
CB
100
AcDbEntity
8
0
6
CONTINUOUS
62
7
370
18
100
AcDbLine
10
6
20
2.721957
11
5.721957
21
3
0
LINE
5
CC
100
AcDbEntity
8
0
6
CONTINUOUS
62
7
370
18
100
AcDbLine
10
6
20
2.766858
11
5.766858
21
3
0
LINE
5
CD
100
AcDbEntity
8
0
6
CONTINUOUS
62
7
370
18
100
AcDbLine
10
6
20
2.81176
11
5.81176
21
3
0
LINE
5
CE
100
AcDbEntity
8
0
6
CONTINUOUS
62
7
370
18
100
AcDbLine
10
6
20
2.856661
11
5.856661
21
3
0
LINE
5
CF
100
AcDbEntity
8
0
6
CONTINUOUS
62
7
370
18
100
AcDbLine
10
6
20
2.901562
11
5.901562
21
3
0
LINE
5
D0
100
AcDbEntity
8
0
6
CONTINUOUS
62
7
370
18
100
AcDbLine
10
6
20
2.946463
11
5.946463
21
3
0
LINE
5
D1
100
AcDbEntity
8
0
6
CONTINUOUS
62
7
370
18
100
AcDbLine
10
6
20
2.991365
11
5.991365
21
3
0
ENDSEC
0
SECTION
2
OBJECTS
0
DICTIONARY
5
C
330
0
100
AcDbDictionary
281
1
3
ACAD_GROUP
350
D
0
DICTIONARY
5
D
330
C
100
AcDbDictionary
281
1
0
ENDSEC
0
EOF
