<?xml version="1.0" encoding="UTF-8" standalone="no"?>
<svg
   xmlns:dc="http://purl.org/dc/elements/1.1/"
   xmlns:cc="http://creativecommons.org/ns#"
   xmlns:rdf="http://www.w3.org/1999/02/22-rdf-syntax-ns#"
   xmlns:svg="http://www.w3.org/2000/svg"
   xmlns="http://www.w3.org/2000/svg"
   xmlns:sodipodi="http://sodipodi.sourceforge.net/DTD/sodipodi-0.dtd"
   xmlns:inkscape="http://www.inkscape.org/namespaces/inkscape"
   version="1.1"
   id="svg2"
   viewBox="0 0 15.999999 14.178613"
   height="14.178613"
   width="15.999999"
   inkscape:version="0.92.4 (5da689c313, 2019-01-14)"
   sodipodi:docname="dim_angular.svg"
   inkscape:export-filename="E:\icons\angle_l2l.png"
   inkscape:export-xdpi="8.4375"
   inkscape:export-ydpi="8.4375">
  <sodipodi:namedview
     pagecolor="#ffffff"
     bordercolor="#666666"
     borderopacity="1"
     objecttolerance="10"
     gridtolerance="10"
     guidetolerance="10"
     inkscape:pageopacity="0"
     inkscape:pageshadow="2"
     inkscape:window-width="1920"
     inkscape:window-height="1137"
     id="namedview4295"
     showgrid="true"
     inkscape:zoom="3.7226562"
     inkscape:cx="106.82843"
     inkscape:cy="79.999997"
     inkscape:window-x="-8"
     inkscape:window-y="-8"
     inkscape:window-maximized="1"
     inkscape:current-layer="svg2"
     inkscape:object-nodes="true">
    <inkscape:grid
       type="xygrid"
       id="grid4297"
       originx="-21.171573"
       originy="-48.000004" />
  </sodipodi:namedview>
  <defs
     id="defs4">
    <marker
       style="overflow:visible"
       id="Arrow2Lend"
       refX="0"
       refY="0"
       orient="auto">
      <path
         transform="matrix(-1.1,0,0,-1.1,-1.1,0)"
         d="M 8.7185878,4.0337352 -2.2072895,0.01601326 8.7185884,-4.0017078 c -1.7454984,2.3720609 -1.7354408,5.6174519 -6e-7,8.035443 z"
         style="fill:#000000;fill-opacity:1;fill-rule:evenodd;stroke:#000000;stroke-width:0.625;stroke-linejoin:round;stroke-opacity:1"
         id="path4196"
         inkscape:connector-curvature="0" />
    </marker>
    <marker
       style="overflow:visible"
       id="Arrow2Lstart"
       refX="0"
       refY="0"
       orient="auto">
      <path
         transform="matrix(1.1,0,0,1.1,1.1,0)"
         d="M 8.7185878,4.0337352 -2.2072895,0.01601326 8.7185884,-4.0017078 c -1.7454984,2.3720609 -1.7354408,5.6174519 -6e-7,8.035443 z"
         style="fill:#000000;fill-opacity:1;fill-rule:evenodd;stroke:#000000;stroke-width:0.625;stroke-linejoin:round;stroke-opacity:1"
         id="path4193"
         inkscape:connector-curvature="0" />
    </marker>
    <marker
       style="overflow:visible"
       id="Arrow1Mstart"
       refX="0"
       refY="0"
       orient="auto">
      <path
         transform="matrix(0.4,0,0,0.4,4,0)"
         style="fill:#000000;fill-opacity:1;fill-rule:evenodd;stroke:#000000;stroke-width:1.00000003pt;stroke-opacity:1"
         d="M 0,0 5,-5 -12.5,0 5,5 Z"
         id="path4181"
         inkscape:connector-curvature="0" />
    </marker>
  </defs>
  <metadata
     id="metadata7">
    <rdf:RDF>
      <cc:Work
         rdf:about="">
        <dc:format>image/svg+xml</dc:format>
        <dc:type
           rdf:resource="http://purl.org/dc/dcmitype/StillImage" />
        <dc:title />
      </cc:Work>
    </rdf:RDF>
  </metadata>
  <g
     id="g8827"
     transform="matrix(0.07589109,0,0,0.07589109,-1.6067337,-1.6067337)">
    <path
       sodipodi:nodetypes="cc"
       id="path4163"
       d="M 32,204 H 232"
       style="fill:none;fill-rule:evenodd;stroke:#000000;stroke-width:8;stroke-linecap:butt;stroke-linejoin:miter;stroke-miterlimit:4;stroke-dasharray:none;stroke-dashoffset:8;stroke-opacity:1"
       inkscape:connector-curvature="0" />
    <path
       sodipodi:nodetypes="cc"
       inkscape:connector-curvature="0"
       style="fill:none;fill-rule:evenodd;stroke:#000000;stroke-width:8;stroke-linecap:butt;stroke-linejoin:miter;stroke-miterlimit:4;stroke-dasharray:none;stroke-dashoffset:8;stroke-opacity:1"
       d="M 24,184 184,24"
       id="path5049" />
    <g
       id="text5035"
       style="font-style:normal;font-variant:normal;font-weight:normal;font-stretch:normal;font-size:80px;line-height:100%;font-family:Mael;-inkscape-font-specification:'Mael, Normal';text-align:start;letter-spacing:0px;word-spacing:0px;writing-mode:lr-tb;text-anchor:start;fill:#000000;fill-opacity:1;stroke:none;stroke-width:1px;stroke-linecap:butt;stroke-linejoin:miter;stroke-opacity:1"
       transform="matrix(1.0132811,0,0,0.98689297,-40,8)">
      <path
         id="path4829"
         d="m 162.09168,162.74629 q 5.04,0 8.48,-4 3.12,-3.6 3.68,-8.88 0.24,-2.24 0.24,-3.92 0,-18.08 -18.72,-17.92 -5.44,0.08 -8.4,6.88 -2.24,5.2 -2.24,11.52 0,8.16 6,12.64 4.96,3.68 10.96,3.68 z m 17.28,7.44 q -0.48,-1.92 -1.04,-7.36 -0.16,-1.12 -0.64,-5.92 -4.72,5.84 -11.6,9.52 -7.44,4 -14.48,4 -8.64,0 -13.44,-6.56 -4.32,-5.84 -4.32,-14.72 0,-9.84 6.56,-16.48 4.88,-4.96 15.52,-9.52 3.36,-1.44 7.44,-1.44 8.96,0 14.16,6.4 0.64,-2.32 1.6,-4.16 0.88,0.24 2,0.24 4.8,0 11.84,-2.96 -4.8,3.76 -4.8,19.04 0,2.56 0.16,7.68 0.24,5.12 0.24,7.68 0,5.52 0.96,8.24 1.6,4.56 6.08,6.08 z"
         inkscape:connector-curvature="0" />
    </g>
    <path
       sodipodi:open="true"
       d="M 157.20888,75.442462 A 200,200 0 0 1 203.23894,186.56883"
       sodipodi:end="6.1959188"
       sodipodi:start="5.5850536"
       sodipodi:ry="200"
       sodipodi:rx="200"
       sodipodi:cy="203.99998"
       sodipodi:cx="3.9999962"
       sodipodi:type="arc"
       id="circle8825"
       style="opacity:1;fill:none;fill-opacity:1;fill-rule:nonzero;stroke:#000000;stroke-width:8;stroke-linecap:butt;stroke-linejoin:round;stroke-miterlimit:4;stroke-dasharray:none;stroke-dashoffset:14.15999985;stroke-opacity:1" />
    <path
       sodipodi:nodetypes="cccc"
       inkscape:connector-curvature="0"
       id="path4192"
       d="m 204,196 17.99999,-32 h -36 l 18,32"
       style="fill:#00ff7f;fill-rule:evenodd;stroke:#000000;stroke-width:8;stroke-linecap:round;stroke-linejoin:miter;stroke-miterlimit:4;stroke-dasharray:none;stroke-opacity:1" />
    <path
       sodipodi:nodetypes="cccc"
       inkscape:connector-curvature="0"
       id="path6026"
       d="m 150.00001,69.999995 9.89949,35.355335 25.45583,-25.455843 -35.35532,-9.899492"
       style="fill:#00ff7f;fill-opacity:1;fill-rule:evenodd;stroke:#000000;stroke-width:8;stroke-linecap:round;stroke-linejoin:miter;stroke-miterlimit:4;stroke-dasharray:none;stroke-opacity:1" />
  </g>
</svg>
