<?xml version="1.0" encoding="UTF-8" standalone="no"?>
<!-- Created with Inkscape (http://www.inkscape.org/) -->

<svg
   xmlns:dc="http://purl.org/dc/elements/1.1/"
   xmlns:cc="http://creativecommons.org/ns#"
   xmlns:rdf="http://www.w3.org/1999/02/22-rdf-syntax-ns#"
   xmlns:svg="http://www.w3.org/2000/svg"
   xmlns="http://www.w3.org/2000/svg"
   xmlns:sodipodi="http://sodipodi.sourceforge.net/DTD/sodipodi-0.dtd"
   xmlns:inkscape="http://www.inkscape.org/namespaces/inkscape"
   id="svg2"
   version="1.1"
   inkscape:version="0.48.3.1 r9886"
   width="150"
   height="150"
   sodipodi:docname="circletan3.png">
  <metadata
     id="metadata8">
    <rdf:RDF>
      <cc:Work
         rdf:about="">
        <dc:format>image/svg+xml</dc:format>
        <dc:type
           rdf:resource="http://purl.org/dc/dcmitype/StillImage" />
        <dc:title></dc:title>
      </cc:Work>
    </rdf:RDF>
  </metadata>
  <defs
     id="defs6" />
  <sodipodi:namedview
     pagecolor="#ffffff"
     bordercolor="#666666"
     borderopacity="1"
     objecttolerance="10"
     gridtolerance="10"
     guidetolerance="10"
     inkscape:pageopacity="0"
     inkscape:pageshadow="2"
     inkscape:window-width="1008"
     inkscape:window-height="596"
     id="namedview4"
     showgrid="false"
     inkscape:object-nodes="true"
     inkscape:zoom="2.2250293"
     inkscape:cx="51.834393"
     inkscape:cy="111.51742"
     inkscape:window-x="15"
     inkscape:window-y="31"
     inkscape:window-maximized="0"
     inkscape:current-layer="svg2" />
  <path
     style="fill:#000000;stroke:#000000;stroke-width:0.44943228;stroke-miterlimit:4;stroke-opacity:1;stroke-dasharray:none"
     d=""
     id="path3868"
     inkscape:connector-curvature="0" />
  <path
     style="fill:#000000;stroke:#000000;stroke-width:0.44943228;stroke-miterlimit:4;stroke-opacity:1;stroke-dasharray:none"
     d=""
     id="path3870"
     inkscape:connector-curvature="0" />
  <path
     style="fill:#000000;stroke:#000000;stroke-width:0.44943228;stroke-miterlimit:4;stroke-opacity:1;stroke-dasharray:none"
     d=""
     id="path3874"
     inkscape:connector-curvature="0" />
  <path
     style="fill:#000000;stroke:#000000;stroke-width:0.44943228;stroke-miterlimit:4;stroke-opacity:1;stroke-dasharray:none"
     d=""
     id="path3876"
     inkscape:connector-curvature="0" />
  <g
     inkscape:groupmode="layer"
     id="layer1"
     inkscape:label="a" />
  <path
     sodipodi:type="arc"
     style="fill:#000000;fill-opacity:1;stroke:#000000;stroke-width:1;stroke-miterlimit:4;stroke-opacity:1;stroke-dasharray:none"
     id="path3887-2-7"
     sodipodi:cx="88.987587"
     sodipodi:cy="125.73066"
     sodipodi:rx="68.250603"
     sodipodi:ry="45.8923"
     d="m 157.23819,125.73066 a 68.250603,45.8923 0 1 1 -136.501206,0 68.250603,45.8923 0 1 1 136.501206,0 z"
     transform="matrix(0.34690136,-0.00863447,0,0.53707504,72.719368,39.20379)" />
  <path
     sodipodi:type="arc"
     style="fill:#ffffff;stroke:#000000;stroke-width:1;stroke-miterlimit:4;stroke-opacity:1;stroke-dasharray:none"
     id="path3887-2"
     sodipodi:cx="88.987587"
     sodipodi:cy="125.73066"
     sodipodi:rx="68.250603"
     sodipodi:ry="45.8923"
     d="m 157.23819,125.73066 a 68.250603,45.8923 0 1 1 -136.501206,0 68.250603,45.8923 0 1 1 136.501206,0 z"
     transform="matrix(0.30635729,-0.00766658,0,0.47687083,75.948072,46.940556)" />
  <path
     sodipodi:type="arc"
     style="fill:#000000;fill-opacity:1;stroke:#000000;stroke-width:1;stroke-miterlimit:4;stroke-opacity:1;stroke-dasharray:none"
     id="path3887-2-7-9"
     sodipodi:cx="88.987587"
     sodipodi:cy="125.73066"
     sodipodi:rx="68.250603"
     sodipodi:ry="45.8923"
     d="m 157.23819,125.73066 a 68.250603,45.8923 0 1 1 -136.501206,0 68.250603,45.8923 0 1 1 136.501206,0 z"
     transform="matrix(0.36756327,-0.00982665,0,0.61122953,5.9978191,24.895847)" />
  <path
     sodipodi:type="arc"
     style="fill:#ffffff;stroke:#000000;stroke-width:1;stroke-miterlimit:4;stroke-opacity:1;stroke-dasharray:none"
     id="path3887-2-75"
     sodipodi:cx="88.987587"
     sodipodi:cy="125.73066"
     sodipodi:rx="68.250603"
     sodipodi:ry="45.8923"
     d="m 157.23819,125.73066 a 68.250603,45.8923 0 1 1 -136.501206,0 68.250603,45.8923 0 1 1 136.501206,0 z"
     transform="matrix(0.32952899,-0.00879399,0,0.54699709,9.5202551,32.809461)" />
  <path
     sodipodi:type="arc"
     style="fill:#000000;fill-opacity:1;stroke:#000000;stroke-width:1;stroke-miterlimit:4;stroke-opacity:1;stroke-dasharray:none"
     id="path3887-2-7-8"
     sodipodi:cx="88.987587"
     sodipodi:cy="125.73066"
     sodipodi:rx="68.250603"
     sodipodi:ry="45.8923"
     d="m 157.23819,125.73066 a 68.250603,45.8923 0 1 1 -136.501206,0 68.250603,45.8923 0 1 1 136.501206,0 z"
     transform="matrix(0.3630862,-0.00929451,0,0.57813049,43.676025,-4.2281683)" />
  <path
     sodipodi:type="arc"
     style="fill:#ffffff;stroke:#000000;stroke-width:1;stroke-miterlimit:4;stroke-opacity:1;stroke-dasharray:none"
     id="path3887-2-6"
     sodipodi:cx="88.987587"
     sodipodi:cy="125.73066"
     sodipodi:rx="68.250603"
     sodipodi:ry="45.8923"
     d="m 157.23819,125.73066 a 68.250603,45.8923 0 1 1 -136.501206,0 68.250603,45.8923 0 1 1 136.501206,0 z"
     transform="matrix(0.32065054,-0.00819401,0,0.50967769,47.055365,4.5713912)" />
  <path
     sodipodi:type="arc"
     style="fill:#000000;stroke:#000000;stroke-width:1;stroke-miterlimit:4;stroke-opacity:1;stroke-dasharray:none"
     id="path3910-53-4"
     sodipodi:cx="29.887247"
     sodipodi:cy="105.05677"
     sodipodi:rx="7.8650646"
     sodipodi:ry="7.6403489"
     d="m 37.752312,105.05677 a 7.8650646,7.6403489 0 1 1 -15.73013,0 7.8650646,7.6403489 0 1 1 15.73013,0 z"
     transform="matrix(1.17592,0,0,1.230277,41.585167,-60.986598)" />
  <path
     sodipodi:type="arc"
     style="fill:#7cfc00;fill-opacity:1;stroke:#000000;stroke-width:1;stroke-miterlimit:4;stroke-opacity:1;stroke-dasharray:none"
     id="path3910-3-9-6"
     sodipodi:cx="29.887247"
     sodipodi:cy="105.05677"
     sodipodi:rx="7.8650646"
     sodipodi:ry="7.6403489"
     d="m 37.752312,105.05677 a 7.8650646,7.6403489 0 1 1 -15.73013,0 7.8650646,7.6403489 0 1 1 15.73013,0 z"
     transform="matrix(1.0154558,0,0,0.97608483,46.475545,-34.424059)" />
  <path
     sodipodi:type="arc"
     style="fill:#000000;fill-opacity:1;stroke:#000000;stroke-width:1;stroke-miterlimit:4;stroke-opacity:1;stroke-dasharray:none"
     id="path3887-2-7-9-5"
     sodipodi:cx="88.987587"
     sodipodi:cy="125.73066"
     sodipodi:rx="68.250603"
     sodipodi:ry="45.8923"
     d="m 157.23819,125.73066 a 68.250603,45.8923 0 1 1 -136.501206,0 68.250603,45.8923 0 1 1 136.501206,0 z"
     transform="matrix(0.36756327,-0.00982665,0,0.61122953,82.143826,-36.536184)" />
  <path
     sodipodi:type="arc"
     style="fill:#ffffff;stroke:#000000;stroke-width:1;stroke-miterlimit:4;stroke-opacity:1;stroke-dasharray:none"
     id="path3887-2-75-1"
     sodipodi:cx="88.987587"
     sodipodi:cy="125.73066"
     sodipodi:rx="68.250603"
     sodipodi:ry="45.8923"
     d="m 157.23819,125.73066 a 68.250603,45.8923 0 1 1 -136.501206,0 68.250603,45.8923 0 1 1 136.501206,0 z"
     transform="matrix(0.32952899,-0.00879399,0,0.54699709,85.666262,-28.62257)" />
</svg>
