<?xml version="1.0" encoding="UTF-8" standalone="no"?>
<!-- Created with Inkscape (http://www.inkscape.org/) -->

<svg
   xmlns:dc="http://purl.org/dc/elements/1.1/"
   xmlns:cc="http://creativecommons.org/ns#"
   xmlns:rdf="http://www.w3.org/1999/02/22-rdf-syntax-ns#"
   xmlns:svg="http://www.w3.org/2000/svg"
   xmlns="http://www.w3.org/2000/svg"
   xmlns:sodipodi="http://sodipodi.sourceforge.net/DTD/sodipodi-0.dtd"
   xmlns:inkscape="http://www.inkscape.org/namespaces/inkscape"
   width="128"
   height="128"
   id="svg2"
   version="1.1"
   inkscape:version="0.48.4 r9939"
   sodipodi:docname="reverse4.svg">
  <defs
     id="defs4">
    <inkscape:perspective
       sodipodi:type="inkscape:persp3d"
       inkscape:vp_x="0 : 526.18109 : 1"
       inkscape:vp_y="0 : 1000 : 0"
       inkscape:vp_z="744.09448 : 526.18109 : 1"
       inkscape:persp3d-origin="372.04724 : 350.78739 : 1"
       id="perspective927" />
    <inkscape:perspective
       id="perspective3741"
       inkscape:persp3d-origin="0.5 : 0.33333333 : 1"
       inkscape:vp_z="1 : 0.5 : 1"
       inkscape:vp_y="0 : 1000 : 0"
       inkscape:vp_x="0 : 0.5 : 1"
       sodipodi:type="inkscape:persp3d" />
    <inkscape:perspective
       id="perspective3955"
       inkscape:persp3d-origin="0.5 : 0.33333333 : 1"
       inkscape:vp_z="1 : 0.5 : 1"
       inkscape:vp_y="0 : 1000 : 0"
       inkscape:vp_x="0 : 0.5 : 1"
       sodipodi:type="inkscape:persp3d" />
    <inkscape:perspective
       id="perspective3977"
       inkscape:persp3d-origin="0.5 : 0.33333333 : 1"
       inkscape:vp_z="1 : 0.5 : 1"
       inkscape:vp_y="0 : 1000 : 0"
       inkscape:vp_x="0 : 0.5 : 1"
       sodipodi:type="inkscape:persp3d" />
  </defs>
  <sodipodi:namedview
     id="base"
     pagecolor="#ffffff"
     bordercolor="#666666"
     borderopacity="1.0"
     inkscape:pageopacity="0.0"
     inkscape:pageshadow="2"
     inkscape:zoom="2.4181819"
     inkscape:cx="124.46929"
     inkscape:cy="68.993782"
     inkscape:document-units="px"
     inkscape:current-layer="layer1"
     showgrid="false"
     inkscape:window-width="1920"
     inkscape:window-height="1042"
     inkscape:window-x="0"
     inkscape:window-y="23"
     inkscape:window-maximized="1"
     showguides="true"
     inkscape:guide-bbox="true"
     inkscape:snap-bbox="true"
     inkscape:snap-page="true"
     inkscape:bbox-nodes="true"
     inkscape:bbox-paths="false"
     inkscape:object-nodes="true"
     inkscape:snap-nodes="true"
     inkscape:snap-smooth-nodes="false"
     inkscape:snap-midpoints="false"
     inkscape:snap-center="false"
     inkscape:snap-object-midpoints="true"
     inkscape:object-paths="true"
     inkscape:snap-to-guides="false"
     inkscape:snap-global="false" />
  <metadata
     id="metadata7">
    <rdf:RDF>
      <cc:Work
         rdf:about="">
        <dc:format>image/svg+xml</dc:format>
        <dc:type
           rdf:resource="http://purl.org/dc/dcmitype/StillImage" />
        <dc:title></dc:title>
      </cc:Work>
    </rdf:RDF>
  </metadata>
  <g
     inkscape:label="Capa 1"
     inkscape:groupmode="layer"
     id="layer1"
     transform="translate(0,-924.36195)">
    <rect
       style="color:#000000;fill:#ff0000;fill-opacity:0;fill-rule:evenodd;stroke:none;stroke-width:7.12799978;marker:none;visibility:visible;display:inline;overflow:visible;enable-background:accumulate"
       id="rect3991"
       width="2104.7244"
       height="1488.189"
       x="0"
       y="0"
       transform="translate(0,-435.82701)" />
    <path
       style="opacity:0;color:#000000;fill:#808000;fill-opacity:1;fill-rule:nonzero;stroke:#000000;stroke-width:1.65413535;stroke-linecap:square;stroke-linejoin:round;stroke-miterlimit:4;stroke-opacity:1;stroke-dasharray:3.30827069, 1.65413534;stroke-dashoffset:0;marker:none;visibility:visible;display:inline;overflow:visible;enable-background:accumulate"
       d="m -167.43863,2692.5054 0,-365.1504 568.19549,0 568.19549,0 0,365.1504 0,365.1504 -568.19549,0 -568.19549,0 0,-365.1504 z m 668.94591,-5.5898 c 0.21062,-1.8247 -0.0719,-2.2673 -1.44736,-2.2673 -1.35665,0 -1.70907,0.5241 -1.70907,2.5418 0,1.974 0.32334,2.4805 1.44736,2.2674 0.87296,-0.1656 1.55124,-1.1744 1.70907,-2.5419 z m -372.85568,-34.9365 0,-35.1504 -35.150379,0 -35.150376,0 0,35.1504 0,35.1504 35.150376,0 35.150379,0 0,-35.1504 z m 373.00752,28.5338 c 0,-1.9298 -0.36758,-2.4812 -1.65414,-2.4812 -1.28655,0 -1.65413,0.5514 -1.65413,2.4812 0,1.9298 0.36758,2.4812 1.65413,2.4812 1.28656,0 1.65414,-0.5514 1.65414,-2.4812 z m -33.08271,-3.3083 c 0,-0.4548 -0.55827,-0.827 -1.2406,-0.827 -0.68233,0 -1.2406,0.3722 -1.2406,0.827 0,0.4549 0.55827,0.8271 1.2406,0.8271 0.68233,0 1.2406,-0.3722 1.2406,-0.8271 z m 33.08271,-1.6541 c 0,-0.919 0.55138,-1.6541 1.2406,-1.6541 0.68233,0 1.2406,-0.5583 1.2406,-1.2406 0,-0.6824 -0.55827,-1.2406 -1.2406,-1.2406 -0.82707,0 -1.2406,-0.8271 -1.2406,-2.4812 0,-1.9299 -0.36758,-2.4812 -1.65414,-2.4812 -1.28655,0 -1.65413,0.5513 -1.65413,2.4812 0,2.2055 -0.27569,2.4812 -2.48121,2.4812 -1.65413,0 -2.4812,0.4135 -2.4812,1.2406 0,0.827 0.82707,1.2406 2.4812,1.2406 1.92983,0 2.48121,0.3676 2.48121,1.6541 0,1.1028 0.55138,1.6541 1.65413,1.6541 1.10276,0 1.65414,-0.5513 1.65414,-1.6541 z m -33.08271,-2.5777 c 0,-2.2695 -0.22246,-2.518 -1.8609,-2.0789 -1.0235,0.2743 -2.32613,0.5038 -2.89474,0.51 -0.56861,0.01 -1.03383,0.5695 -1.03383,1.2519 0,0.6892 0.73517,1.2406 1.65413,1.2406 0.90978,0 1.65414,0.3722 1.65414,0.827 0,0.4549 0.55827,0.8271 1.2406,0.8271 0.83738,0 1.2406,-0.8378 1.2406,-2.5777 z m -6.61654,-0.317 c 0,-0.6824 -0.37218,-1.2406 -0.82707,-1.2406 -0.45489,0 -0.82707,0.5582 -0.82707,1.2406 0,0.6823 0.37218,1.2406 0.82707,1.2406 0.45489,0 0.82707,-0.5583 0.82707,-1.2406 z m 12.40601,0 c 0,-0.8271 -0.82706,-1.2406 -2.4812,-1.2406 -1.65413,0 -2.4812,0.4135 -2.4812,1.2406 0,0.827 0.82707,1.2406 2.4812,1.2406 1.65414,0 2.4812,-0.4136 2.4812,-1.2406 z m 5.78948,0 c 0,-0.8271 -0.82707,-1.2406 -2.48121,-1.2406 -1.65413,0 -2.4812,0.4135 -2.4812,1.2406 0,0.827 0.82707,1.2406 2.4812,1.2406 1.65414,0 2.48121,-0.4136 2.48121,-1.2406 z m 5.78947,0 c 0,-0.8271 -0.82707,-1.2406 -2.4812,-1.2406 -1.65414,0 -2.4812,0.4135 -2.4812,1.2406 0,0.827 0.82706,1.2406 2.4812,1.2406 1.65413,0 2.4812,-0.4136 2.4812,-1.2406 z m 5.78948,0 c 0,-0.8271 -0.82707,-1.2406 -2.48121,-1.2406 -1.65413,0 -2.4812,0.4135 -2.4812,1.2406 0,0.827 0.82707,1.2406 2.4812,1.2406 1.65414,0 2.48121,-0.4136 2.48121,-1.2406 z m 18.19548,0 c 0,-0.8271 -0.82706,-1.2406 -2.4812,-1.2406 -1.65413,0 -2.4812,0.4135 -2.4812,1.2406 0,0.827 0.82707,1.2406 2.4812,1.2406 1.65414,0 2.4812,-0.4136 2.4812,-1.2406 z m 5.78948,0 c 0,-0.8271 -0.82707,-1.2406 -2.48121,-1.2406 -1.65413,0 -2.4812,0.4135 -2.4812,1.2406 0,0.827 0.82707,1.2406 2.4812,1.2406 1.65414,0 2.48121,-0.4136 2.48121,-1.2406 z m -47.14286,-5.376 c 0,-1.6541 -0.41353,-2.4812 -1.2406,-2.4812 -0.82707,0 -1.2406,0.8271 -1.2406,2.4812 0,1.6542 0.41353,2.4812 1.2406,2.4812 0.82707,0 1.2406,-0.827 1.2406,-2.4812 z m -168.7218,-13.2535 c 0,-10.6971 0.0143,-10.7778 2.04456,-11.5497 1.14328,-0.4347 2.27657,-1.7017 2.57087,-2.8743 l 0.5263,-2.0969 10.24868,0 c 9.6973,0 10.24868,-0.089 10.24868,-1.6541 0,-1.5652 -0.55138,-1.6542 -10.24868,-1.6542 -10.22542,0 -10.24986,0 -10.76448,-2.0551 -0.3182,-1.2678 -1.30304,-2.2526 -2.57086,-2.5708 -2.03827,-0.5116 -2.05507,-0.5929 -2.05507,-9.9374 0,-8.8703 -0.0968,-9.4216 -1.65414,-9.4216 -1.55825,0 -1.65414,0.5513 -1.65414,9.5112 0,8.6077 -0.14143,9.5113 -1.48872,9.5113 -1.90545,0 -3.47368,1.5682 -3.47368,3.4737 0,1.3509 -0.91896,1.4887 -9.92481,1.4887 -9.37343,0 -9.92482,0.092 -9.92482,1.6542 0,1.5617 0.55139,1.6541 9.86729,1.6541 9.59051,0 9.8747,0.052 10.13158,1.8531 0.14912,1.0457 1.25542,2.3268 2.53873,2.9399 l 2.27443,1.0867 0,10.1554 c 0,10.2409 0.19929,11.2581 2.20552,11.2581 0.86252,0 1.10276,-2.3467 1.10276,-10.7723 z m 201.80451,8.7047 c 0,-1.5163 -0.4411,-2.0677 -1.65414,-2.0677 -1.21303,0 -1.65413,0.5514 -1.65413,2.0677 0,1.5162 0.4411,2.0676 1.65413,2.0676 1.21304,0 1.65414,-0.5514 1.65414,-2.0676 z m -33.08271,-1.6542 c 0,-1.2865 -0.46867,-2.0676 -1.2406,-2.0676 -0.77193,0 -1.2406,0.7811 -1.2406,2.0676 0,1.2866 0.46867,2.0677 1.2406,2.0677 0.77193,0 1.2406,-0.7811 1.2406,-2.0677 z m 33.08271,-4.5489 c 0,-1.9298 -0.36758,-2.4812 -1.65414,-2.4812 -1.28655,0 -1.65413,0.5514 -1.65413,2.4812 0,1.9299 0.36758,2.4813 1.65413,2.4813 1.28656,0 1.65414,-0.5514 1.65414,-2.4813 z m -33.08271,-1.6541 c 0,-1.6541 -0.41353,-2.4812 -1.2406,-2.4812 -0.82707,0 -1.2406,0.8271 -1.2406,2.4812 0,1.6541 0.41353,2.4812 1.2406,2.4812 0.82707,0 1.2406,-0.8271 1.2406,-2.4812 z m 33.08271,-4.1353 c 0,-1.9298 -0.36758,-2.4812 -1.65414,-2.4812 -1.28655,0 -1.65413,0.5514 -1.65413,2.4812 0,1.9298 0.36758,2.4812 1.65413,2.4812 1.28656,0 1.65414,-0.5514 1.65414,-2.4812 z m -33.08271,-1.6542 c 0,-1.6541 -0.41353,-2.4812 -1.2406,-2.4812 -0.82707,0 -1.2406,0.8271 -1.2406,2.4812 0,1.6542 0.41353,2.4812 1.2406,2.4812 0.82707,0 1.2406,-0.827 1.2406,-2.4812 z m 33.08271,-4.1353 c 0,-1.9298 -0.36758,-2.4812 -1.65414,-2.4812 -1.28655,0 -1.65413,0.5514 -1.65413,2.4812 0,1.9298 0.36758,2.4812 1.65413,2.4812 1.28656,0 1.65414,-0.5514 1.65414,-2.4812 z m -33.08271,-4.5489 c 0,-4.2272 -0.26508,-5.3759 -1.2406,-5.3759 -0.68233,0 -1.2406,0.5583 -1.2406,1.2406 0,0.6823 -0.55827,1.2406 -1.2406,1.2406 -0.68922,0 -1.24061,0.7352 -1.24061,1.6541 0,0.919 0.55139,1.6542 1.24061,1.6542 0.82706,0 1.2406,0.827 1.2406,2.4812 0,1.6541 0.41353,2.4812 1.2406,2.4812 0.97552,0 1.2406,-1.1487 1.2406,-5.376 z m -12.40601,-0.827 c 0,-0.8271 -0.82707,-1.2406 -2.48121,-1.2406 -1.65413,0 -2.4812,0.4135 -2.4812,1.2406 0,0.827 0.82707,1.2406 2.4812,1.2406 1.65414,0 2.48121,-0.4136 2.48121,-1.2406 z m 5.78947,-0.4711 c 0,-1.3 -0.44549,-1.6481 -1.85245,-1.4474 -2.74897,0.3922 -2.99058,3.1591 -0.27586,3.1591 1.60077,0 2.12831,-0.4243 2.12831,-1.7117 z m 12.40601,0.058 c 0,-1.2865 -0.55138,-1.6541 -2.4812,-1.6541 -1.92982,0 -2.4812,0.3676 -2.4812,1.6541 0,1.2866 0.55138,1.6542 2.4812,1.6542 1.92982,0 2.4812,-0.3676 2.4812,-1.6542 z m 5.78948,-0.055 c 0,-1.3754 -0.44266,-1.658 -2.26737,-1.4474 -1.36751,0.1579 -2.37629,0.8362 -2.54184,1.7091 -0.21317,1.124 0.29337,1.4474 2.26736,1.4474 2.0177,0 2.54185,-0.3525 2.54185,-1.7091 l 0,0 z m 5.78947,0.055 c 0,-1.213 -0.55138,-1.6541 -2.06767,-1.6541 -1.51629,0 -2.06767,0.4411 -2.06767,1.6541 0,1.2131 0.55138,1.6542 2.06767,1.6542 1.51629,0 2.06767,-0.4411 2.06767,-1.6542 z m 6.61654,0 c 0,-1.2865 -0.55138,-1.6541 -2.4812,-1.6541 -1.92982,0 -2.4812,0.3676 -2.4812,1.6541 0,1.2866 0.55138,1.6542 2.4812,1.6542 1.92982,0 2.4812,-0.3676 2.4812,-1.6542 z m 11.57895,0.096 c 0,-1.9519 -2.50925,-2.6556 -7.18465,-2.0147 -2.75428,0.3775 -3.56723,0.8403 -3.56723,2.0306 0,1.3462 0.68204,1.5418 5.37594,1.5418 4.71359,0 5.37594,-0.1919 5.37594,-1.5577 l 0,0 z m 2.20189,-1.1303 c -0.22944,-0.5686 -0.41717,-0.1034 -0.41717,1.0338 0,1.1372 0.18773,1.6025 0.41717,1.0339 0.22943,-0.5686 0.22943,-1.4991 0,-2.0677 z m -5.09663,-3.9286 c -0.28113,-0.4549 -1.04746,-0.827 -1.70295,-0.827 -0.65548,0 -1.19178,0.3721 -1.19178,0.827 0,0.4549 0.76632,0.8271 1.70295,0.8271 0.93662,0 1.47292,-0.3722 1.19178,-0.8271 z m -32.66917,-3.3082 c 0,-1.6542 -0.41353,-2.4813 -1.2406,-2.4813 -0.82707,0 -1.2406,0.8271 -1.2406,2.4813 0,1.6541 0.41353,2.4812 1.2406,2.4812 0.82707,0 1.2406,-0.8271 1.2406,-2.4812 z m 0,-5.7895 c 0,-1.6542 -0.41353,-2.4812 -1.2406,-2.4812 -0.82707,0 -1.2406,0.827 -1.2406,2.4812 0,1.6541 0.41353,2.4812 1.2406,2.4812 0.82707,0 1.2406,-0.8271 1.2406,-2.4812 z m 187.81589,-15.9211 c 0.47472,-1.0235 3.81941,-3.6589 7.43262,-5.8565 6.22253,-3.7845 8.79727,-6.307 7.62962,-7.4746 -0.28724,-0.2872 0.0981,-0.5223 0.85618,-0.5223 0.75817,0 1.37847,-0.5733 1.37847,-1.2741 0,-0.9661 -0.79415,-1.2272 -3.28577,-1.0802 -1.80714,0.1066 -3.49114,-0.012 -3.74215,-0.2626 -0.2511,-0.2511 0.66893,-2.8354 2.04443,-5.7431 2.80632,-5.9321 3.03856,-7.5337 1.30139,-8.9754 -1.88902,-1.5678 -3.98589,-0.6812 -5.80676,2.4552 -1.44671,2.4919 -2.04501,2.8522 -4.36452,2.6286 -1.66498,-0.1605 -2.68797,-0.7114 -2.68797,-1.4474 0,-1.5394 -2.99274,-1.5493 -3.58273,-0.012 -0.2543,0.6627 -1.11623,1.0025 -1.97393,0.7782 -4.88031,-1.2761 -10.15763,5.8865 -10.15763,13.7866 0,2.3195 -0.34621,4.8641 -0.76935,5.6547 -0.42315,0.7907 -0.50682,1.8624 -0.18593,2.3816 0.52202,0.8447 12.83256,6.6242 14.41287,6.7666 0.35091,0.032 1.02644,-0.78 1.50116,-1.8035 z m 33.01118,-0.6203 c 0,-1.6767 -0.41064,-2.4812 -1.26657,-2.4812 -1.49518,0 -2.41612,1.9668 -1.74263,3.7218 0.8819,2.2982 3.0092,1.4212 3.0092,-1.2406 z m -128.67083,0.2068 c 0.25475,-0.7961 3.6805,-3.4632 7.61276,-5.9271 3.93226,-2.4638 7.32803,-5.1621 7.54614,-5.9962 0.21812,-0.8341 0.8184,-1.5421 1.33395,-1.5732 0.51556,-0.031 3.82192,-0.1243 7.34749,-0.2068 6.1407,-0.1438 6.4101,-0.072 6.40977,1.7108 -1.9e-4,1.1029 0.505,1.8609 1.24027,1.8609 0.68922,0 1.2406,-0.7352 1.2406,-1.6541 0,-1.1028 0.55138,-1.6542 1.65413,-1.6542 1.10276,0 1.65414,-0.5513 1.65414,-1.6541 0,-1.1027 -0.55138,-1.6541 -1.65414,-1.6541 -1.59452,0 -1.65413,-0.5514 -1.65413,-15.3008 0,-14.7494 0.0596,-15.3007 1.65413,-15.3007 0.91897,0 1.65414,-0.5514 1.65414,-1.2406 0,-0.6893 -0.73517,-1.2406 -1.65414,-1.2406 -0.90977,0 -1.65413,-0.3722 -1.65413,-0.8271 0,-0.4549 -0.55827,-0.8271 -1.2406,-0.8271 -0.68233,0 -1.2406,0.3722 -1.2406,0.8271 0,0.5207 -5.51379,0.8271 -14.88722,0.8271 -14.33584,0 -14.88722,-0.061 -14.88722,-1.6542 0,-0.9189 -0.55138,-1.6541 -1.2406,-1.6541 -0.68922,0 -1.2406,0.7352 -1.2406,1.6541 0,0.919 -0.55138,1.6542 -1.2406,1.6542 -0.68234,0 -1.24061,0.5582 -1.24061,1.2406 0,0.6823 0.37218,1.2406 0.82707,1.2406 0.50749,0 0.82707,4.0148 0.82707,10.3903 0,9.4221 -0.13488,10.3713 -1.44737,10.1858 -0.79605,-0.1125 -2.61736,0.071 -4.04735,0.4079 -3.6037,0.8489 -6.60156,7.7298 -7.02314,16.1198 l -0.30169,6.004 6.20301,2.771 c 7.18727,3.2107 8.81175,3.4635 9.44947,1.4708 z m 32.73098,-1.0338 c 0,-1.6542 -0.41354,-2.4812 -1.2406,-2.4812 -0.82707,0 -1.2406,0.827 -1.2406,2.4812 0,1.6541 0.41353,2.4812 1.2406,2.4812 0.82706,0 1.2406,-0.8271 1.2406,-2.4812 z m 0,-5.7895 c 0,-1.6542 -0.41354,-2.4812 -1.2406,-2.4812 -0.82707,0 -1.2406,0.827 -1.2406,2.4812 0,1.6541 0.41353,2.4812 1.2406,2.4812 0.82706,0 1.2406,-0.8271 1.2406,-2.4812 z m 95.93985,0.4135 c 0,-1.2865 -0.4687,-2.0677 -1.2406,-2.0677 -0.77191,0 -1.2406,0.7812 -1.2406,2.0677 0,1.2866 0.46869,2.0677 1.2406,2.0677 0.7719,0 1.2406,-0.7811 1.2406,-2.0677 z m -190.22557,-5.2863 c 0,-4.5234 0.15004,-4.9104 2.09276,-5.398 1.4757,-0.3703 2.23778,-1.2503 2.58458,-2.9844 0.4723,-2.3614 0.66841,-2.4591 4.93733,-2.4591 3.40016,0 4.44548,-0.2917 4.44548,-1.2406 0,-0.9505 -1.05041,-1.2406 -4.49135,-1.2406 -4.02212,0 -4.51895,-0.1936 -4.75563,-1.8532 -0.14912,-1.0456 -1.25542,-2.3267 -2.53873,-2.9398 l -2.27444,-1.0867 0,-12.3609 0,-12.3609 2.48121,0 c 1.65413,0 2.4812,-0.4135 2.4812,-1.2406 0,-0.8271 -0.82707,-1.2406 -2.4812,-1.2406 -2.09524,0 -2.48121,-0.3217 -2.48121,-2.0677 0,-1.5163 -0.4411,-2.0677 -1.65413,-2.0677 -1.21304,0 -1.65414,0.5514 -1.65414,2.0677 l 0,2.0677 -11.88909,0 -11.8891,0 -0.50394,-2.5197 c -0.36835,-1.8418 -1.17502,-2.7537 -2.99812,-3.3892 -2.3591,-0.8224 -2.49418,-1.1115 -2.49418,-5.3374 0,-3.4202 -0.29095,-4.468 -1.2406,-4.468 -0.94456,0 -1.24185,1.0362 -1.24583,4.3421 -0.005,3.955 -0.22598,4.4677 -2.48121,5.751 -1.73288,0.9861 -2.47597,2.041 -2.47597,3.5151 0,2.0227 -0.19638,2.1061 -4.96241,2.1061 -3.85965,0 -4.9624,0.2757 -4.9624,1.2406 0,0.9649 1.10275,1.2406 4.9624,1.2406 4.22724,0 4.96241,0.2205 4.96241,1.4887 0,1.8694 1.55851,3.4737 3.37452,3.4737 1.23932,0 1.39526,1.386 1.44233,12.8195 l 0.0528,12.8196 -2.84835,0 c -1.9805,0 -2.84836,0.378 -2.84836,1.2406 0,0.8664 0.87302,1.2406 2.89474,1.2406 2.53634,0 2.89474,0.256 2.89474,2.0677 0,1.2865 0.46867,2.0676 1.2406,2.0676 0.77193,0 1.2406,-0.7811 1.2406,-2.0676 l 0,-2.0677 12.23498,0 12.23498,0 0.79133,2.688 c 0.54491,1.8509 1.37084,2.7702 2.65224,2.9522 1.69093,0.2402 1.86091,0.7123 1.86091,5.1692 0,4.3535 0.18595,4.9049 1.65413,4.9049 1.46696,0 1.65414,-0.5514 1.65414,-4.8728 l 10e-6,0 z m 190.22557,-0.09 c 0,-0.919 0.5514,-1.6542 1.2406,-1.6542 0.68233,0 1.2406,-0.5582 1.2406,-1.2406 0,-0.6823 -0.55827,-1.2406 -1.2406,-1.2406 -0.82707,0 -1.2406,-0.827 -1.2406,-2.4812 0,-1.6541 -0.41354,-2.4812 -1.2406,-2.4812 -0.97553,0 -1.2406,1.1487 -1.2406,5.376 0,4.2272 0.26507,5.3759 1.2406,5.3759 0.68919,0 1.2406,-0.7352 1.2406,-1.6541 z m -86.84211,-3.3083 c 0,-1.2865 -0.55138,-1.6541 -2.4812,-1.6541 -1.92982,0 -2.4812,0.3676 -2.4812,1.6541 0,1.2866 0.55138,1.6541 2.4812,1.6541 1.92982,0 2.4812,-0.3675 2.4812,-1.6541 z m 5.78948,0 c 0,-1.2865 -0.55138,-1.6541 -2.48121,-1.6541 -1.92982,0 -2.4812,0.3676 -2.4812,1.6541 0,1.2866 0.55138,1.6541 2.4812,1.6541 1.92983,0 2.48121,-0.3675 2.48121,-1.6541 z m 71.95488,0.4135 c 0,-0.827 -0.82706,-1.2406 -2.4812,-1.2406 -1.65413,0 -2.4812,0.4136 -2.4812,1.2406 0,0.8271 0.82707,1.2406 2.4812,1.2406 1.65414,0 2.4812,-0.4135 2.4812,-1.2406 z m 5.78948,0 c 0,-0.827 -0.82707,-1.2406 -2.48121,-1.2406 -1.65413,0 -2.4812,0.4136 -2.4812,1.2406 0,0.8271 0.82707,1.2406 2.4812,1.2406 1.65414,0 2.48121,-0.4135 2.48121,-1.2406 z m 11.57895,0 c 0,-0.7719 -0.78109,-1.2406 -2.06767,-1.2406 -1.28659,0 -2.06767,0.4687 -2.06767,1.2406 0,0.772 0.78108,1.2406 2.06767,1.2406 1.28658,0 2.06767,-0.4686 2.06767,-1.2406 z m 6.61654,0 c 0,-0.827 -0.82707,-1.2406 -2.48121,-1.2406 -1.65413,0 -2.4812,0.4136 -2.4812,1.2406 0,0.8271 0.82707,1.2406 2.4812,1.2406 1.65414,0 2.48121,-0.4135 2.48121,-1.2406 z m -579.11279,-8.0225 c 1.27066,-1.2707 1.42792,-40.8213 0.16542,-41.6015 -0.45489,-0.2812 -0.82707,-1.7653 -0.82707,-3.298 0,-5.2543 -0.51677,-5.3862 -21.1024,-5.3862 -18.182952,0 -18.525324,0.032 -19.790556,1.8381 -1.015391,1.4497 -1.287496,1.5474 -1.287496,0.4624 0,-0.7567 -0.442068,-1.649 -0.982366,-1.983 -1.465581,-0.9057 -10.792398,-1.0407 -12.457484,-0.1802 -1.669329,0.8626 -1.954055,4.8146 -0.454887,6.3138 0.771927,0.7719 0.771927,1.213 0,1.985 -1.28528,1.2852 -1.409489,38.8634 -0.136317,41.2423 0.820128,1.5324 2.014331,1.5998 28.368421,1.5998 20.295665,0 27.772595,-0.2604 28.504735,-0.9925 z m 564.22557,-1.4887 c 0,-1.6542 -0.41354,-2.4812 -1.2406,-2.4812 -0.82707,0 -1.2406,0.827 -1.2406,2.4812 0,1.6541 0.41353,2.4812 1.2406,2.4812 0.82706,0 1.2406,-0.8271 1.2406,-2.4812 z m -415.83931,-7.3947 0.2378,-7.3946 5.78948,3.6423 c 3.18421,2.0032 6.58117,4.6283 7.5488,5.8334 l 1.75934,2.1912 7.33841,-3.2613 c 4.98403,-2.215 7.23599,-3.6379 7.01918,-4.4351 -0.17557,-0.6455 -0.56592,-3.779 -0.86744,-6.9632 -0.64178,-6.7775 -3.30088,-12.5227 -6.32879,-13.6739 -1.82524,-0.694 -13.17016,-0.3036 -14.48766,0.4985 -0.61052,0.3717 -2.39538,-3.3979 -2.39538,-5.059 0,-1.0098 2.57549,-1.2017 16.12782,-1.2017 15.57644,0 16.12782,-0.057 16.12782,-1.6541 0,-1.5973 -0.55138,-1.6542 -16.03815,-1.6542 l -16.03816,0 -0.54052,-2.1536 c -0.3416,-1.361 -1.43991,-2.493 -2.9844,-3.076 -2.28215,-0.8614 -2.44388,-1.2115 -2.44388,-5.29 0,-3.3309 -0.29446,-4.3676 -1.2406,-4.3676 -0.94455,0 -1.24185,1.0362 -1.24583,4.3421 -0.005,3.955 -0.22598,4.4678 -2.4812,5.751 -1.40791,0.8012 -2.47598,2.0975 -2.47598,3.0051 0,1.793 -2.0814,2.5876 -6.82331,2.6048 -2.20049,0.01 -3.1015,0.3717 -3.1015,1.2519 0,0.9649 1.10275,1.2406 4.9624,1.2406 4.22724,0 4.96241,0.2206 4.96241,1.4887 0,1.9055 1.56823,3.4737 3.47368,3.4737 1.38269,0 1.48873,1.1487 1.48873,16.1278 0,13.6006 0.18954,16.1279 1.20956,16.1279 0.95345,0 1.25992,-1.5658 1.44737,-7.3947 l 0,0 z m 113.13254,4.9135 c 0,-1.9299 -0.36758,-2.4812 -1.65413,-2.4812 -1.28656,0 -1.65414,0.5513 -1.65414,2.4812 0,1.9298 0.36758,2.4812 1.65414,2.4812 1.28655,0 1.65413,-0.5514 1.65413,-2.4812 z m 302.70677,-3.7218 c 0,-1.2866 -0.4687,-2.0677 -1.2406,-2.0677 -0.77191,0 -1.2406,0.7811 -1.2406,2.0677 0,1.2865 0.46869,2.0676 1.2406,2.0676 0.7719,0 1.2406,-0.7811 1.2406,-2.0676 z m -302.70677,-2.0677 c 0,-1.9298 -0.36758,-2.4812 -1.65413,-2.4812 -1.28656,0 -1.65414,0.5514 -1.65414,2.4812 0,1.9298 0.36758,2.4812 1.65414,2.4812 1.28655,0 1.65413,-0.5514 1.65413,-2.4812 z m 270.45113,0 c 0,-1.9298 -0.36758,-2.4812 -1.65414,-2.4812 -1.28655,0 -1.65413,0.5514 -1.65413,2.4812 0,1.9298 0.36758,2.4812 1.65413,2.4812 1.28656,0 1.65414,-0.5514 1.65414,-2.4812 z m 32.25564,-4.1354 c 0,-1.6541 -0.41354,-2.4812 -1.2406,-2.4812 -0.82707,0 -1.2406,0.8271 -1.2406,2.4812 0,1.6542 0.41353,2.4812 1.2406,2.4812 0.82706,0 1.2406,-0.827 1.2406,-2.4812 z m -302.70677,-1.6541 c 0,-1.9298 -0.36758,-2.4812 -1.65413,-2.4812 -1.28656,0 -1.65414,0.5514 -1.65414,2.4812 0,1.9298 0.36758,2.4812 1.65414,2.4812 1.28655,0 1.65413,-0.5514 1.65413,-2.4812 z m 270.45113,0 c 0,-1.9298 -0.36758,-2.4812 -1.65414,-2.4812 -1.28655,0 -1.65413,0.5514 -1.65413,2.4812 0,1.9298 0.36758,2.4812 1.65413,2.4812 1.28656,0 1.65414,-0.5514 1.65414,-2.4812 z m 32.25564,-4.1353 c 0,-1.6542 -0.41354,-2.4812 -1.2406,-2.4812 -0.82707,0 -1.2406,0.827 -1.2406,2.4812 0,1.6541 0.41353,2.4812 1.2406,2.4812 0.82706,0 1.2406,-0.8271 1.2406,-2.4812 z m -302.70677,-1.6542 c 0,-1.9298 -0.36758,-2.4812 -1.65413,-2.4812 -1.28656,0 -1.65414,0.5514 -1.65414,2.4812 0,1.9299 0.36758,2.4812 1.65414,2.4812 1.28655,0 1.65413,-0.5513 1.65413,-2.4812 z m 270.45113,0 c 0,-2.2055 0.27569,-2.4812 2.4812,-2.4812 1.65414,0 2.48121,-0.4135 2.48121,-1.2406 0,-0.827 -0.82707,-1.2406 -2.48121,-1.2406 -1.92982,0 -2.4812,-0.3676 -2.4812,-1.6541 0,-1.1028 -0.55138,-1.6541 -1.65414,-1.6541 -1.10275,0 -1.65413,0.5513 -1.65413,1.6541 0,0.919 -0.55138,1.6541 -1.2406,1.6541 -0.68233,0 -1.2406,0.5583 -1.2406,1.2406 0,0.6824 0.55827,1.2406 1.2406,1.2406 0.82706,0 1.2406,0.8271 1.2406,2.4812 0,1.9299 0.36758,2.4812 1.65413,2.4812 1.28656,0 1.65414,-0.5513 1.65414,-2.4812 z m 34.53007,-2.4699 c 0.56861,-0.01 1.03384,-0.5695 1.03384,-1.2519 0,-0.6892 -0.73518,-1.2406 -1.65414,-1.2406 -0.90977,0 -1.65413,-0.3721 -1.65413,-0.827 0,-0.4549 -0.55827,-0.8271 -1.2406,-0.8271 -0.83741,0 -1.2406,0.8378 -1.2406,2.5777 0,2.2695 0.22248,2.518 1.8609,2.0789 1.02349,-0.2743 2.32613,-0.5038 2.89473,-0.51 z m -47.76315,-1.2519 c 0,-0.7719 -0.78112,-1.2406 -2.06767,-1.2406 -1.28656,0 -2.06767,0.4687 -2.06767,1.2406 0,0.772 0.78111,1.2406 2.06767,1.2406 1.28655,0 2.06767,-0.4686 2.06767,-1.2406 z m 6.61654,0 c 0,-0.827 -0.82707,-1.2406 -2.4812,-1.2406 -1.65414,0 -2.48121,0.4136 -2.48121,1.2406 0,0.8271 0.82707,1.2406 2.48121,1.2406 1.65413,0 2.4812,-0.4135 2.4812,-1.2406 z m 17.36842,0 c 0,-0.7719 -0.78108,-1.2406 -2.06767,-1.2406 -1.28659,0 -2.06767,0.4687 -2.06767,1.2406 0,0.772 0.78108,1.2406 2.06767,1.2406 1.28659,0 2.06767,-0.4686 2.06767,-1.2406 z m 6.61654,0 c 0,-0.827 -0.82707,-1.2406 -2.4812,-1.2406 -1.65414,0 -2.48121,0.4136 -2.48121,1.2406 0,0.8271 0.82707,1.2406 2.48121,1.2406 1.65413,0 2.4812,-0.4135 2.4812,-1.2406 z m 5.78947,0 c 0,-0.827 -0.82706,-1.2406 -2.4812,-1.2406 -1.65413,0 -2.4812,0.4136 -2.4812,1.2406 0,0.8271 0.82707,1.2406 2.4812,1.2406 1.65414,0 2.4812,-0.4135 2.4812,-1.2406 z m 5.78948,0 c 0,-0.827 -0.82707,-1.2406 -2.48121,-1.2406 -1.65413,0 -2.4812,0.4136 -2.4812,1.2406 0,0.8271 0.82707,1.2406 2.4812,1.2406 1.65414,0 2.48121,-0.4135 2.48121,-1.2406 z m 9.09774,0 c 0,-0.6823 -0.37218,-1.2406 -0.82707,-1.2406 -0.45488,0 -0.82706,0.5583 -0.82706,1.2406 0,0.6824 0.37218,1.2406 0.82706,1.2406 0.45489,0 0.82707,-0.5582 0.82707,-1.2406 z m -308.49624,-0.4135 c 0,-0.4549 0.55827,-0.8271 1.2406,-0.8271 0.68922,0 1.2406,-0.7351 1.2406,-1.6541 0,-1.4845 -0.55138,-1.6541 -5.37594,-1.6541 -4.82455,0 -5.37594,0.1696 -5.37594,1.6541 0,1.2792 0.55139,1.6541 2.43239,1.6541 1.33782,0 2.66242,0.3722 2.94355,0.8271 0.28114,0.4549 1.04747,0.8271 1.70295,0.8271 0.65549,0 1.19179,-0.3722 1.19179,-0.8271 z m 162.10526,-0.4135 c 0,-0.8271 -0.82706,-1.2406 -2.4812,-1.2406 -1.65413,0 -2.4812,0.4135 -2.4812,1.2406 0,0.827 0.82707,1.2406 2.4812,1.2406 1.65414,0 2.4812,-0.4136 2.4812,-1.2406 z m 5.78948,0 c 0,-0.8271 -0.82707,-1.2406 -2.4812,-1.2406 -1.65414,0 -2.48121,0.4135 -2.48121,1.2406 0,0.827 0.82707,1.2406 2.48121,1.2406 1.65413,0 2.4812,-0.4136 2.4812,-1.2406 z m 44.66165,0 c 0,-0.6824 -0.37218,-1.2406 -0.82707,-1.2406 -0.45488,0 -0.82706,0.5582 -0.82706,1.2406 0,0.6823 0.37218,1.2406 0.82706,1.2406 0.45489,0 0.82707,-0.5583 0.82707,-1.2406 z m -234.06015,-2.0677 c 0,-1.2866 -0.55138,-1.6541 -2.4812,-1.6541 -1.51629,0 -2.4812,0.4288 -2.4812,1.1027 0,1.5938 0.84116,2.2055 3.03258,2.2055 1.37844,0 1.92982,-0.4726 1.92982,-1.6541 z m 5.78948,0 c 0,-1.213 -0.55139,-1.6541 -2.06767,-1.6541 -1.51629,0 -2.06767,0.4411 -2.06767,1.6541 0,1.213 0.55138,1.6541 2.06767,1.6541 1.51628,0 2.06767,-0.4411 2.06767,-1.6541 z m 5.78947,0 c 0,-1.213 -0.55138,-1.6541 -2.06767,-1.6541 -1.51629,0 -2.06767,0.4411 -2.06767,1.6541 0,1.213 0.55138,1.6541 2.06767,1.6541 1.51629,0 2.06767,-0.4411 2.06767,-1.6541 z m 18.19549,0 c 0,-1.2866 -0.55138,-1.6541 -2.48121,-1.6541 -1.92982,0 -2.4812,0.3675 -2.4812,1.6541 0,1.2865 0.55138,1.6541 2.4812,1.6541 1.92983,0 2.48121,-0.3676 2.48121,-1.6541 z m 5.78947,0 c 0,-1.2866 -0.55138,-1.6541 -2.4812,-1.6541 -1.92982,0 -2.4812,0.3675 -2.4812,1.6541 0,1.2865 0.55138,1.6541 2.4812,1.6541 1.92982,0 2.4812,-0.3676 2.4812,-1.6541 z m 5.78947,0 c 0,-1.213 -0.55138,-1.6541 -2.06766,-1.6541 -1.51629,0 -2.06767,0.4411 -2.06767,1.6541 0,1.213 0.55138,1.6541 2.06767,1.6541 1.51628,0 2.06766,-0.4411 2.06766,-1.6541 z m 5.78948,0 c 0,-1.213 -0.55138,-1.6541 -2.06767,-1.6541 -1.51629,0 -2.06767,0.4411 -2.06767,1.6541 0,1.213 0.55138,1.6541 2.06767,1.6541 1.51629,0 2.06767,-0.4411 2.06767,-1.6541 z m 181.12782,-2.4812 c 0,-0.4549 -0.55827,-0.8271 -1.2406,-0.8271 -0.68233,0 -1.2406,0.3722 -1.2406,0.8271 0,0.4549 0.55827,0.8271 1.2406,0.8271 0.68233,0 1.2406,-0.3722 1.2406,-0.8271 z m 95.71588,0.3274 c -0.27484,-0.2749 -0.98818,-0.3042 -1.58524,-0.065 -0.65975,0.264 -0.46382,0.46 0.49971,0.4997 0.87181,0.036 1.36036,-0.1596 1.08553,-0.4344 l 0,0 z m -302.4828,-3.2221 c 0,-1.5163 -0.4411,-2.0677 -1.65413,-2.0677 -1.21304,0 -1.65414,0.5514 -1.65414,2.0677 0,1.5162 0.4411,2.0676 1.65414,2.0676 1.21303,0 1.65413,-0.5514 1.65413,-2.0676 z m 174.51128,-0.4136 c 0,-1.6541 -0.41353,-2.4812 -1.2406,-2.4812 -0.82707,0 -1.2406,0.8271 -1.2406,2.4812 0,1.6542 0.41353,2.4812 1.2406,2.4812 0.82707,0 1.2406,-0.827 1.2406,-2.4812 z m 95.93985,0 c 0,-1.9298 -0.36758,-2.4812 -1.65414,-2.4812 -1.28655,0 -1.65413,0.5514 -1.65413,2.4812 0,1.9298 0.36758,2.4812 1.65413,2.4812 1.28656,0 1.65414,-0.5514 1.65414,-2.4812 z m -270.45113,-5.8501 c 0,-1.974 -0.32334,-2.4805 -1.44737,-2.2674 -0.87295,0.1656 -1.55123,1.1744 -1.70907,2.5419 -0.21061,1.8247 0.072,2.2674 1.44737,2.2674 1.35665,0 1.70907,-0.5242 1.70907,-2.5419 z m 270.45113,0.061 c 0,-1.9298 -0.36758,-2.4812 -1.65414,-2.4812 -1.28655,0 -1.65413,0.5514 -1.65413,2.4812 0,1.9299 0.36758,2.4813 1.65413,2.4813 1.28656,0 1.65414,-0.5514 1.65414,-2.4813 z m -95.93985,-0.4135 c 0,-1.2865 -0.46867,-2.0677 -1.2406,-2.0677 -0.77193,0 -1.2406,0.7812 -1.2406,2.0677 0,1.2866 0.46867,2.0677 1.2406,2.0677 0.77193,0 1.2406,-0.7811 1.2406,-2.0677 z m -174.51128,-5.3759 c 0,-1.9298 -0.36758,-2.4812 -1.65413,-2.4812 -1.28656,0 -1.65414,0.5514 -1.65414,2.4812 0,1.9298 0.36758,2.4812 1.65414,2.4812 1.28655,0 1.65413,-0.5514 1.65413,-2.4812 z m 0,-5.7895 c 0,-1.9298 -0.36758,-2.4812 -1.65413,-2.4812 -1.28656,0 -1.65414,0.5514 -1.65414,2.4812 0,1.9298 0.36758,2.4812 1.65414,2.4812 1.28655,0 1.65413,-0.5514 1.65413,-2.4812 z m 316.76692,-37.0752 c 3.86654,-2.9539 7.37984,-5.6794 7.80735,-6.0567 0.47168,-0.4162 0.094,-1.9089 -0.96014,-3.7958 -0.95568,-1.7104 -2.00192,-4.8974 -2.32514,-7.082 -0.84195,-5.6916 -7.84275,-14.7293 -12.26351,-15.8315 -2.21381,-0.552 -3.59658,-0.4914 -4.71445,0.2067 -2.51296,1.5694 -3.48038,1.171 -2.06469,-0.8503 2.72841,-3.8953 1.7954,-5.8631 -5.94935,-12.5482 -10.34934,-8.9332 -10.14315,-8.9742 -21.41873,4.2658 l -8.98991,10.5561 0.13226,7.8461 c 0.2363,14.0189 0.29516,14.2646 3.81022,15.9077 9.93928,4.646 9.32047,4.1344 9.11519,7.5364 -0.24555,4.0681 1.739,3.6852 2.09034,-0.4033 0.30783,-3.5823 -1.21629,-5.0745 -7.77998,-7.6169 -6.07515,-2.3532 -6.9683,-4.4151 -1.73209,-3.9987 1.99774,0.1589 4.92837,-0.2692 6.58697,-0.9622 1.64347,-0.6866 3.76796,-1.0445 4.72124,-0.7952 1.00083,0.2617 2.35722,-0.1116 3.21018,-0.8834 1.37525,-1.2447 1.59855,-1.1722 3.24392,1.0533 l 1.76703,2.39 -3.069,-0.4116 c -3.97273,-0.5329 -6.71198,1.9805 -5.36957,4.9268 0.65314,1.4334 3.29057,2.7033 11.50336,5.5384 7.1495,2.4681 11.15408,4.307 12.16963,5.5883 1.75546,2.2148 1.35764,2.3886 10.47887,-4.5798 l 0,0 z m -577.29324,-30.3308 0,-35.1504 -35.563906,0 -35.563909,0 0,35.1504 0,35.1504 35.563909,0 35.563906,0 0,-35.1504 z m 362.56967,33.3083 c 0.70577,-1.1273 0.24371,-2.7436 -2.19102,-7.6641 -1.69698,-3.4295 -3.08541,-6.4154 -3.08541,-6.6353 0,-0.22 0.71392,-0.3999 1.58649,-0.3999 2.83028,0 4.20298,-0.9636 4.20298,-2.9505 0,-1.5556 -1.42356,-2.8164 -7.08855,-6.2781 -3.89869,-2.3825 -7.46873,-5.0421 -7.9334,-5.9104 -1.0531,-1.9677 -3.19598,-1.6142 -10.73466,1.771 l -5.49346,2.4669 0.43395,5.6573 c 0.27764,3.6195 1.25554,7.4885 2.71479,10.7409 1.88959,4.2115 2.70526,5.1767 4.75509,5.627 2.54993,0.56 13.35925,-0.034 14.10026,-0.7753 0.22913,-0.2292 1.09375,1.0958 1.92137,2.9444 1.28312,2.8659 1.82973,3.3222 3.71097,3.0978 1.21341,-0.1447 2.60868,-0.906 3.1006,-1.6917 l 0,0 z m -451.892974,-23.3835 0,-23.5714 -35.1503763,0 -35.1503757,0 0,23.5714 0,23.5714 35.1503757,0 35.1503763,0 0,-23.5714 z m 547.524024,7.2368 0.005,-10.5451 2.47597,-1.4089 c 2.27716,-1.2956 2.47625,-1.773 2.47625,-5.9371 0,-4.6197 -1.33034,-7.1277 -3.78088,-7.1277 -0.9555,0 -1.18153,-1.8195 -1.18153,-9.5112 0,-7.9031 -0.20976,-9.5113 -1.2406,-9.5113 -1.03084,0 -1.2406,1.6082 -1.2406,9.5113 0,8.8424 -0.11216,9.5112 -1.59506,9.5112 -3.02782,0 -4.29089,2.301 -4.02601,7.3343 0.22866,4.3452 0.42455,4.7416 2.9152,5.8988 l 2.67008,1.2406 0.0179,10.5451 c 0.015,8.8141 0.22155,10.5452 1.2585,10.5452 1.03761,0 1.24145,-1.7254 1.24583,-10.5452 l 3e-5,0 z m -387.99103,6.106 c 0.70985,-0.8553 0.66051,-1.3616 -0.20253,-2.0779 -0.87179,-0.7235 -1.37894,-0.6603 -2.14907,0.2676 -0.99964,1.2045 -0.56501,2.9412 0.73607,2.9412 0.37235,0 1.09933,-0.5089 1.61553,-1.1309 z m 312.22627,0.4378 c 0.50747,-0.821 -37.69165,-39.0062 -39.02051,-39.0062 -0.50149,0 -1.15274,0.3899 -1.44722,0.8664 -0.58468,0.946 37.45097,38.7265 39.05439,38.7924 0.54176,0.022 1.17777,-0.2714 1.41334,-0.6526 z m -227.55712,-3.6722 c 0.67896,-1.0362 4.24922,-3.7345 7.93389,-5.9962 3.68468,-2.2617 6.92452,-4.7814 7.19964,-5.5993 0.66703,-1.9828 -1.02854,-3.8888 -3.4595,-3.8888 -1.08152,0 -1.9664,-0.1616 -1.9664,-0.3591 0,-0.9731 4.42171,-10.3928 4.87853,-10.3928 0.28983,0 4.42156,3.9079 9.18162,8.6842 4.76007,4.7763 8.95212,8.6842 9.31569,8.6842 3.11814,0 -0.31182,-4.1328 -17.60005,-21.2065 -10.52908,-10.3985 -19.48541,-19.0303 -19.90296,-19.1818 -0.41755,-0.1516 -0.98589,0.3152 -1.26299,1.0373 -0.35367,0.9217 1.84106,3.5321 7.36485,8.7598 l 7.86865,7.4469 -1.60883,3.3299 c -0.88486,1.8314 -1.89634,3.1522 -2.24776,2.935 -1.42433,-0.8803 -12.52932,-1.2747 -14.52517,-0.5159 -3.0809,1.1714 -5.88917,8.0255 -6.47796,15.8106 l -0.47359,6.2619 6.74875,2.9549 c 3.71181,1.6251 6.98507,2.9919 7.27392,3.0373 0.28884,0.045 1.0807,-0.7653 1.75967,-1.8016 l 0,0 z m -80.9636,-0.4785 c 1.16751,-1.2901 1.20807,-1.6863 0.25373,-2.4783 -0.87669,-0.7276 -1.4662,-0.5778 -2.58309,0.6563 -0.79594,0.8796 -1.20265,1.9948 -0.9038,2.4783 0.78267,1.2664 1.653,1.0897 3.23316,-0.6563 z m 3.23058,-11.5955 9.65172,-8.582 -1.70344,-2.1656 c -2.8634,-3.6402 -9.88574,-10.8582 -10.56388,-10.8582 -0.35162,0 -2.84277,1.9578 -5.53589,4.3507 -2.69312,2.3928 -5.53218,4.8446 -6.30904,5.4482 -1.25384,0.9743 -2.46303,0.01 -10.76816,-8.5935 -7.52433,-7.7941 -9.53635,-9.4677 -10.27859,-8.5498 -0.73102,0.9041 1.19352,3.3652 9.25717,11.8382 l 10.18005,10.6969 3.85904,-3.2532 c 2.12248,-1.7893 5.18578,-4.3588 6.80735,-5.71 l 2.94828,-2.4567 3.99888,4.4647 c 2.19938,2.4556 3.91001,4.5306 3.8014,4.6112 -0.40699,0.3018 -17.61314,15.5205 -18.71282,16.5513 -0.63081,0.5914 -0.91096,1.6901 -0.62255,2.4417 0.64084,1.67 0.4273,1.8262 13.99048,-10.2339 l 0,0 z m 1.39555,7.7913 c 1.12198,-1.3519 0.49807,-2.931 -1.15808,-2.931 -1.48713,0 -3.21292,2.2092 -2.55605,3.2721 0.76062,1.2307 2.54571,1.0668 3.71413,-0.3411 z m 4.15666,-4.161 c 0.56148,-0.6766 0.78342,-1.8489 0.49322,-2.6051 -0.46713,-1.2173 -0.7594,-1.1573 -2.54824,0.5232 -2.03944,1.9159 -2.06319,3.3119 -0.0564,3.3119 0.59979,0 1.54991,-0.5535 2.11139,-1.23 l 4e-5,0 z m 183.95436,-1.2219 c 1.19346,-0.4538 2.32537,-1.7021 2.6247,-2.8948 l 0.5263,-2.0969 10.24868,0 c 9.69731,0 10.24869,-0.089 10.24869,-1.6541 0,-1.5659 -0.55138,-1.6541 -10.33835,-1.6541 -8.40852,0 -10.33834,-0.2206 -10.33834,-1.1816 0,-2.4094 -2.51146,-3.7809 -6.92374,-3.7809 -4.52921,0 -6.30935,0.9801 -6.30935,3.4737 0,1.3509 -0.91896,1.4888 -9.92481,1.4888 -9.37343,0 -9.92481,0.092 -9.92481,1.6541 0,1.5617 0.55138,1.6541 9.86729,1.6541 9.56928,0 9.87527,0.056 10.13158,1.8402 0.46358,3.2279 5.65539,4.8459 10.11216,3.1515 l 0,0 z m -179.53622,-3.1834 c 1.03826,-1.1473 1.12941,-1.7281 0.38759,-2.4699 -0.74181,-0.7418 -1.32263,-0.6507 -2.46991,0.3876 -1.76136,1.594 -1.97649,3.5823 -0.3876,3.5823 0.61183,0 1.7233,-0.675 2.46992,-1.5 z m 4.16749,-4.1709 c 1.16751,-1.2901 1.20807,-1.6862 0.25373,-2.4783 -0.87668,-0.7276 -1.4662,-0.5778 -2.58309,0.6564 -0.79594,0.8795 -1.20265,1.9947 -0.90379,2.4783 0.78266,1.2664 1.65299,1.0897 3.23315,-0.6564 z m 4.36115,-3.8509 c 0.26405,-0.6881 0.005,-1.8234 -0.57521,-2.5227 -0.92935,-1.1198 -1.20071,-1.1262 -2.2733,-0.054 -1.43902,1.439 -0.76764,3.8274 1.07589,3.8274 0.71088,0 1.50856,-0.563 1.77262,-1.2511 l 0,0 z m -3.37656,-3.7925 c 0.30876,-0.4996 -0.78582,-2.2168 -2.43239,-3.8162 -1.64656,-1.5993 -2.99375,-3.2375 -2.99375,-3.6405 0,-1.03 -2.27062,-0.9155 -2.92761,0.1475 -0.50939,0.8242 5.97479,8.1977 7.2209,8.2113 0.31432,0 0.82411,-0.4026 1.13285,-0.9021 l 0,0 z m -29.89356,-5.5015 c 0.34117,-0.3412 0.86842,-0.6335 1.17168,-0.6496 0.30326,-0.016 1.43221,-0.5177 2.50877,-1.1146 1.78684,-0.9907 1.84313,-1.1995 0.64604,-2.3966 -1.19708,-1.1971 -1.45636,-1.1801 -2.9757,0.1949 -1.25763,1.1381 -1.93574,1.281 -2.77476,0.5847 -1.88791,-1.5668 -3.3639,0.6363 -1.6759,2.5015 1.48165,1.6372 2.15211,1.8275 3.09987,0.8797 l 0,0 z m 21.60489,-3.5671 c 0.29885,-0.4836 -0.10786,-1.5988 -0.9038,-2.4783 -1.11688,-1.2342 -1.7064,-1.384 -2.58309,-0.6564 -0.95433,0.792 -0.91377,1.1882 0.25373,2.4783 1.58016,1.7461 2.4505,1.9227 3.23316,0.6564 z m -25.6391,-0.8271 c 0.29885,-0.4836 -0.10786,-1.5988 -0.90379,-2.4783 -1.11689,-1.2341 -1.70641,-1.3839 -2.58309,-0.6564 -0.95434,0.7921 -0.91378,1.1882 0.25372,2.4783 1.58017,1.7461 2.4505,1.9228 3.23316,0.6564 z m 13.07055,-2.4291 c 2.53362,-2.8436 3.5237,-3.0348 5.66745,-1.0947 1.15669,1.0468 1.76562,1.1529 2.48543,0.433 0.71982,-0.7198 0.58118,-1.3646 -0.56584,-2.6321 -0.83559,-0.9233 -1.70184,-1.4962 -1.925,-1.273 -0.22316,0.2232 -0.85036,-0.2023 -1.39378,-0.9455 -0.8755,-1.1973 -1.43921,-0.9249 -4.94967,2.3915 -2.26447,2.1392 -3.71548,4.1409 -3.38704,4.6723 0.88735,1.4358 1.67412,1.1357 4.06845,-1.5515 l 0,0 z m -17.19854,-1.7181 c 0.30289,-0.4901 -1.16681,-2.6086 -3.26599,-4.7078 -2.91982,-2.9198 -4.04468,-3.5887 -4.78688,-2.8465 -0.74221,0.7422 -0.10903,1.847 2.69449,4.7015 3.88286,3.9535 4.4812,4.2721 5.35838,2.8528 l 0,0 z m 315.04626,-48.7526 c -0.063,-16.3717 -6.81046,-26.2473 -20.90852,-30.6017 -6.26113,-1.9339 -15.86902,-2.2458 -15.86902,-0.5151 0,0.7936 1.78247,1.2699 6.1265,1.6371 8.93137,0.755 14.95672,3.2591 20.0164,8.3188 5.76479,5.7648 7.92813,11.6255 7.91223,21.435 -0.0103,6.3653 0.16244,7.2501 1.36879,7.0105 1.1619,-0.2307 1.37631,-1.3846 1.35362,-7.2846 l 0,0 z m -24.53694,5.6436 c 1.55186,-1.5518 1.27171,-10.1522 -0.37523,-11.519 -2.15496,-1.7885 -9.2686,-1.4755 -10.69144,0.4703 -1.60668,2.1973 -1.52599,9.0898 0.12575,10.7415 1.56903,1.5691 9.45759,1.7906 10.94092,0.3072 l 0,0 z m 238.19549,-4.1353 c 0.54586,-0.5459 0.99248,-3.1426 0.99248,-5.7704 0,-4.1945 -0.25465,-4.9448 -2.08512,-6.1442 -2.31256,-1.5152 -7.83109,-1.2221 -9.93978,0.528 -1.69533,1.4069 -1.62957,9.3583 0.0915,11.0794 1.56903,1.569 9.4576,1.7905 10.94095,0.3072 l 0,0 z m -513.62764,-1.9492 c 1.4805,-1.0369 1.83816,-2.0878 1.83816,-5.4005 0,-4.1038 0.0173,-4.1298 7.65038,-11.5015 7.60743,-7.347 7.67449,-7.3886 11.94559,-7.419 5.02596,-0.036 6.8702,-1.8201 6.8702,-6.6471 0,-4.8329 -1.84505,-6.6165 -6.8442,-6.6165 -4.02694,0 -4.51262,-0.2404 -8.55902,-4.2366 -4.00801,-3.9582 -4.23437,-4.3955 -3.44585,-6.6575 0.91483,-2.6243 0.37027,-6.8903 -1.10673,-8.67 -1.16765,-1.4069 -9.92751,-1.5 -11.30736,-0.1202 -0.54586,0.5459 -0.99248,3.0767 -0.99248,5.6241 0,2.5474 -0.44662,5.0782 -0.99248,5.6241 -1.28861,1.2886 -9.95952,1.2886 -11.24812,0 -0.54587,-0.5459 -0.99248,-3.0767 -0.99248,-5.6241 0,-2.5474 -0.44662,-5.0782 -0.99248,-5.6241 -0.54587,-0.5458 -3.10556,-0.9924 -5.68821,-0.9924 -5.63285,0 -6.96593,1.1948 -6.96593,6.2433 0,5.0739 1.9234,6.8519 7.74373,7.158 l 4.66229,0.2453 0.25381,4.9493 c 0.32805,6.3967 1.62075,7.8702 6.90445,7.8702 5.42037,0 7.5183,-2.0407 7.21236,-7.0158 -0.29836,-4.8518 0.99982,-6.2173 5.91081,-6.2173 3.73235,0 4.18051,0.2511 8.09522,4.5344 3.91107,4.2793 4.15993,4.8219 4.42509,9.6482 l 0.28096,5.1138 -7.23335,6.6686 -7.23336,6.6686 -5.03238,0.018 c -5.98277,0.021 -7.38061,1.3076 -7.38061,6.7924 0,4.7721 2.09199,6.872 6.84605,6.872 1.94578,0 4.36496,-0.5793 5.37594,-1.2875 z m 496.42463,-2.4343 c 0,-1.066 -2.61907,-1.2406 -18.60902,-1.2406 -15.98997,0 -18.60902,0.1746 -18.60902,1.2406 0,1.066 2.61905,1.2406 18.60902,1.2406 15.98995,0 18.60902,-0.1746 18.60902,-1.2406 z m -392.03007,-6.6165 c 0,-3.0326 0.36051,-5.3759 0.82706,-5.3759 2.07797,0 4.13534,-3.406 4.13534,-6.8461 0,-4.9946 -1.77849,-7.2141 -5.78064,-7.2141 -2.45472,0 -3.32585,-0.3788 -3.71885,-1.617 -0.88697,-2.7946 -8.57453,-8.9694 -13.49164,-10.8368 -2.90652,-1.1039 -7.49199,-1.9582 -11.95248,-2.2269 -6.33098,-0.3814 -7.23684,-0.2663 -7.23684,0.9194 0,1.0527 0.82191,1.3553 3.6811,1.3553 5.19757,0 11.72233,1.5045 16.76692,3.8663 4.84133,2.2665 10.68792,8.3361 9.33404,9.69 -0.45908,0.4591 -0.83469,2.9667 -0.83469,5.5726 0,5.0731 1.29431,7.3373 4.19441,7.3373 1.41178,0 1.59506,0.6177 1.59506,5.3759 0,4.2272 0.26509,5.3759 1.2406,5.3759 0.97552,0 1.24061,-1.1487 1.24061,-5.3759 z m -205.112787,-6.1134 c 0,-9.8325 5.62e-4,-9.8352 2.092754,-10.3604 1.475704,-0.3703 2.23778,-1.2503 2.584586,-2.9844 l 0.491833,-2.4591 11.062034,0 c 9.28153,0 11.06203,-0.1997 11.06203,-1.2406 0,-1.0409 -1.7805,-1.2406 -11.06203,-1.2406 l -11.062034,0 -0.491833,-2.4592 c -0.346806,-1.734 -1.108882,-2.614 -2.584586,-2.9844 l -2.092754,-0.5252 0,-10.6622 c 0,-8.9262 -0.202003,-10.6622 -1.240602,-10.6622 -1.039136,0 -1.240601,1.746 -1.240601,10.7518 0,9.4956 -0.161518,10.7519 -1.382245,10.7519 -1.906714,0 -4.407229,2.419 -4.407229,4.2635 0,1.3985 -0.829284,1.526 -9.924812,1.526 -8.270677,0 -9.924812,0.2068 -9.924812,1.2406 0,1.0338 1.654135,1.2406 9.924812,1.2406 8.722686,0 9.924812,0.1674 9.924812,1.3822 0,1.9068 2.418983,4.4073 4.263526,4.4073 1.398447,0 1.525948,0.8293 1.525948,9.9248 0,8.2707 0.206767,9.9248 1.240601,9.9248 1.033206,0 1.240602,-1.6442 1.240602,-9.8352 z m 297.315437,8.2295 c 0.28029,-0.8831 3.84108,-3.7077 7.91288,-6.2769 7.7099,-4.8648 9.04714,-6.8937 5.71789,-8.6755 -0.92696,-0.4961 -2.43629,-0.6636 -3.35406,-0.3723 -1.48985,0.4728 -1.36134,-0.076 1.19925,-5.1234 1.57736,-3.1091 3.64495,-6.1213 4.59465,-6.6938 1.43236,-0.8634 1.72674,-1.8575 1.72674,-5.8308 0,-2.6345 -0.44662,-5.2366 -0.99249,-5.7825 -1.50899,-1.509 -8.93261,-1.2486 -10.72811,0.3763 -1.95839,1.7723 -2.09754,8.6799 -0.21281,10.5646 1.13944,1.1395 1.00923,1.5461 -0.47261,1.476 -0.22744,-0.011 -3.09941,-0.2386 -6.38215,-0.5063 -3.62518,-0.2957 -6.7468,-0.1322 -7.95062,0.4163 -2.98383,1.3595 -6.15929,9.0728 -6.64985,16.1526 l -0.40886,5.9005 6.76717,2.9278 c 7.9917,3.4576 8.56638,3.5477 9.23298,1.4474 l 0,0 z m -111.81427,-9.9732 c 3.49704,-2.047 6.36281,-3.9481 6.36839,-4.2246 0.006,-0.2765 -2.31599,-1.9248 -5.15903,-3.6629 -2.84305,-1.7381 -6.00658,-3.6947 -7.03008,-4.348 l -1.8609,-1.1879 0,8.8483 c 0,4.8665 0.29776,8.7242 0.66169,8.5725 0.36393,-0.1516 3.52289,-1.9505 7.01993,-3.9974 z m 229.82782,-5.3112 c -6.9405,-7.0415 -7.4269,-7.7624 -7.82223,-11.5934 -0.51016,-4.9438 -2.00539,-6.2533 -7.14004,-6.2533 -3.59404,0 -4.04285,-0.2882 -10.58222,-6.7936 -5.39586,-5.3678 -7.04204,-6.5805 -7.84408,-5.7784 -0.80204,0.802 0.36713,2.406 5.57113,7.6432 l 6.5862,6.6281 -0.28473,4.1389 c -0.1989,2.8913 0.13945,4.7863 1.12243,6.2865 1.32594,2.0237 1.70737,2.1236 6.60768,1.7302 l 5.20051,-0.4174 6.86181,6.8976 c 5.4434,5.4718 7.09564,6.7036 7.99302,5.9588 0.91382,-0.7584 -0.29095,-2.3817 -6.26948,-8.4472 l 0,0 z m 197.52816,-9.5761 c 0,-10.0075 -0.31346,-18.1955 -0.69656,-18.1955 -0.78654,0 -2.07958,34.4176 -1.33811,35.6174 1.6304,2.6379 2.03467,-0.824 2.03467,-17.4219 z m -386.24061,5.4294 c 0,-0.5992 -4.55921,-5.367 -10.13157,-10.595 l -10.13158,-9.5054 0,-4.5299 c 0,-6.1075 -1.09847,-7.2652 -6.89327,-7.2652 -4.31903,0 -4.85646,-0.2291 -8.17195,-3.483 -3.22074,-3.1609 -3.66861,-3.3632 -4.84382,-2.188 -1.17521,1.1752 -0.93041,1.6158 2.64758,4.7653 3.70542,3.2616 3.92899,3.6902 3.71765,7.127 -0.1855,3.0165 0.15562,4.0371 1.94882,5.8303 1.81802,1.818 2.74145,2.1173 5.64373,1.8293 3.44935,-0.3424 3.5337,-0.2838 14.1393,9.8143 9.97115,9.494 12.07511,10.9229 12.07511,8.2003 z m -2.42295,-25.8554 c -0.0896,-4.441 -0.23596,-8.1477 -0.32531,-8.237 -0.36861,-0.3686 -13.12555,7.7727 -13.10419,8.3629 0.0263,0.7269 12.78492,8.6199 13.27505,8.2125 0.17453,-0.1451 0.24403,-3.8974 0.15445,-8.3384 l 0,0 z"
       id="path19438"
       inkscape:connector-curvature="0" />
    <g
       id="g4527-2-2-3"
       transform="matrix(-1,0,0,1,915.11671,43.842442)"
       inkscape:export-filename="/home/noob/progs/bugs/LCAD/reverseicons/g4527-2-2-7-9-7-1-4-7.png"
       inkscape:export-xdpi="200"
       inkscape:export-ydpi="200">
      <rect
         style="opacity:0;color:#000000;fill:none;stroke:#000000;stroke-width:1.88833213;stroke-linecap:square;stroke-linejoin:miter;stroke-miterlimit:4;stroke-opacity:1;stroke-dasharray:none;stroke-dashoffset:0;marker:none;visibility:visible;display:inline;overflow:visible;enable-background:accumulate"
         id="rect3021-8-3-9-7-5-6-2-0-7-0-0-3-3-3-9-1"
         width="68.10891"
         height="68.11409"
         x="817.06226"
         y="910.46246"
         ry="0"
         inkscape:export-filename="/home/prar/LibreCAD editado/res/extui/linesnormal.png"
         inkscape:export-xdpi="192.85715"
         inkscape:export-ydpi="192.85715" />
      <path
         inkscape:export-ydpi="90"
         inkscape:export-xdpi="90"
         inkscape:export-filename="/home/prar/LibreCADicons.png"
         style="fill:none;stroke:#000000;stroke-width:2;stroke-linecap:butt;stroke-linejoin:miter;stroke-miterlimit:4;stroke-opacity:1;stroke-dasharray:none"
         d="m 866.79702,961.13109 -28.61256,-27.5014"
         id="path4267-3-1-0-7-1-1-4"
         inkscape:connector-curvature="0" />
      <rect
         transform="scale(-1,1)"
         inkscape:export-ydpi="90"
         inkscape:export-xdpi="90"
         inkscape:export-filename="/home/prar/LibreCADicons.png"
         ry="3.3965125"
         y="924.01715"
         x="-839.30389"
         height="10.674783"
         width="11.258166"
         id="rect5494-21-2-6-4-2-4-7-7-6-1-4-2"
         style="color:#000000;fill:#7cfc00;fill-opacity:1;fill-rule:nonzero;stroke:#000000;stroke-width:2;stroke-linecap:square;stroke-linejoin:miter;stroke-miterlimit:4;stroke-opacity:1;stroke-dasharray:none;stroke-dashoffset:0;marker:none;visibility:visible;display:inline;overflow:visible;enable-background:accumulate" />
      <rect
         transform="scale(-1,1)"
         inkscape:export-ydpi="90"
         inkscape:export-xdpi="90"
         inkscape:export-filename="/home/prar/LibreCADicons.png"
         ry="3.3965125"
         y="958.22748"
         x="-874.69006"
         height="10.674783"
         width="11.258166"
         id="rect5494-21-2-6-4-2-4-8-2-8-3-8-4"
         style="color:#000000;fill:#7cfc00;fill-opacity:1;fill-rule:nonzero;stroke:#000000;stroke-width:2;stroke-linecap:square;stroke-linejoin:miter;stroke-miterlimit:4;stroke-opacity:1;stroke-dasharray:none;stroke-dashoffset:0;marker:none;visibility:visible;display:inline;overflow:visible;enable-background:accumulate" />
      <path
         inkscape:export-ydpi="90"
         inkscape:export-xdpi="90"
         inkscape:export-filename="/home/prar/LibreCADicons.png"
         sodipodi:nodetypes="cccc"
         inkscape:transform-center-y="2.965601"
         inkscape:transform-center-x="2.5319563"
         style="fill:#000000;fill-opacity:1;stroke:#000000;stroke-width:1.38903189;stroke-linecap:butt;stroke-linejoin:miter;stroke-miterlimit:4;stroke-opacity:1;stroke-dasharray:none"
         d="m 846.15812,946.54457 -6.2619,6.17842 -1.92395,-8.25884 z"
         id="path6048-9-8-6-0-08-3-8-5-0-5-84-2-7-8"
         inkscape:connector-curvature="0" />
      <path
         inkscape:export-ydpi="90"
         inkscape:export-xdpi="90"
         inkscape:export-filename="/home/prar/LibreCADicons.png"
         sodipodi:nodetypes="cccc"
         style="fill:#7cfc00;fill-opacity:1;stroke:#000000;stroke-width:1.38903189;stroke-linecap:butt;stroke-linejoin:miter;stroke-miterlimit:4;stroke-opacity:1;stroke-dasharray:none"
         d="m 856.65942,946.19624 6.2619,-6.17842 1.92395,8.25884 z"
         id="path6048-9-8-6-0-08-3-8-5-0-5-6-8-0-8-0"
         inkscape:connector-curvature="0" />
      <path
         inkscape:export-ydpi="90"
         inkscape:export-xdpi="90"
         inkscape:export-filename="/home/prar/LibreCADicons.png"
         style="fill:none;stroke:#000000;stroke-width:2;stroke-linecap:butt;stroke-linejoin:miter;stroke-miterlimit:4;stroke-opacity:1;stroke-dasharray:none"
         d="m 859.57947,943.31512 -9.16985,-8.81373"
         id="path4267-3-1-0-7-1-1-4-2"
         inkscape:connector-curvature="0"
         sodipodi:nodetypes="cc" />
      <path
         inkscape:export-ydpi="90"
         inkscape:export-xdpi="90"
         inkscape:export-filename="/home/prar/LibreCADicons.png"
         style="fill:none;stroke:#000000;stroke-width:2;stroke-linecap:butt;stroke-linejoin:miter;stroke-miterlimit:4;stroke-opacity:1;stroke-dasharray:none"
         d="m 852.4837,958.1646 -9.1698,-8.81373"
         id="path4267-3-1-0-7-1-1-4-2-1"
         inkscape:connector-curvature="0"
         sodipodi:nodetypes="cc" />
    </g>
  </g>
</svg>
