  0
SECTION
  2
HEADER
  9
$LIMMIN
 10
0.000000
 20
-0.004000
  9
$LIMMAX
 10
100.000000
 20
97.407000
  9
$EXTMIN
 10
0.000000
 20
-0.004000
  9
$EXTMAX
 10
100.000000
 20
97.407000
  9
$ANGBASE
 50
0.000000
  9
$ANGDIR
 70
0
  9
$INSUNITS
 70
0
  9
$DIMALT
 70
4
  9
$DIMLUNIT
 70
2
  9
$DIMASZ
 40
3.000000
  9
$DIMTXT
 40
5.000000
  9
$DIMRND
 40
0.010000
  9
$DIMEXE
 40
2.000000
  9
$DIMEXO
 40
2.000000
  9
$DIMAUNIT
 70
0
  9
$DIMADEC
 70
2
  9
$GRIDUNIT
 10
0.001000
 20
0.001000
  9
$PLIMMIN
 10
0.000000
 20
0.000000
  9
$PLIMMAX
 10
210.000000
 20
297.000000
  9
$PSVPSCALE
 40
1.000000
  0
ENDSEC
  0
SECTION
  2
TABLES
  0
TABLE
  2
LTYPE
 70
     1
  0
LTYPE
  2
CONTINUOUS
 70
    64
  3
Ausgez
 72
    65
 73
  0
 40
0.000000
  0
ENDTAB
  0
TABLE
  2
LAYER
 70
     1
  0
LAYER
  2
default
 70
    64
 62
0
  6
CONTINUOUS
  0
ENDTAB
  0
ENDSEC
  0
SECTION
  2
BLOCKS
  0
ENDSEC
  0
SECTION
  2
ENTITIES
  0
LINE
  8
default
  6
CONTINUOUS
 10
37.500000
 20
83.344000
 11
85.156000
 21
83.344000
 39
0
 62
7
  0
LINE
  8
default
  6
CONTINUOUS
 10
37.500000
 20
50.006000
 11
85.156000
 21
50.006000
 39
0
 62
7
  0
LINE
  8
default
  6
CONTINUOUS
 10
37.500000
 20
16.669000
 11
85.156000
 21
16.669000
 39
0
 62
7
  0
LINE
  8
default
  6
CONTINUOUS
 10
37.500000
 20
97.407000
 11
85.156000
 21
97.407000
 39
0
 62
7
  0
LINE
  8
default
  6
CONTINUOUS
 10
37.500000
 20
64.069000
 11
85.156000
 21
64.069000
 39
0
 62
7
  0
LINE
  8
default
  6
CONTINUOUS
 10
37.500000
 20
30.731000
 11
85.156000
 21
30.731000
 39
0
 62
7
  0
LINE
  8
default
  6
CONTINUOUS
 10
25.000000
 20
66.675000
 11
47.656000
 21
66.675000
 39
0
 62
7
  0
LINE
  8
default
  6
CONTINUOUS
 10
50.000000
 20
66.675000
 11
72.656000
 21
66.675000
 39
0
 62
7
  0
LINE
  8
default
  6
CONTINUOUS
 10
75.000000
 20
66.675000
 11
97.656000
 21
66.675000
 39
0
 62
7
  0
LINE
  8
default
  6
CONTINUOUS
 10
25.000000
 20
33.337000
 11
47.656000
 21
33.337000
 39
0
 62
7
  0
LINE
  8
default
  6
CONTINUOUS
 10
50.000000
 20
33.337000
 11
72.656000
 21
33.337000
 39
0
 62
7
  0
LINE
  8
default
  6
CONTINUOUS
 10
75.000000
 20
33.337000
 11
97.656000
 21
33.337000
 39
0
 62
7
  0
LINE
  8
default
  6
CONTINUOUS
 10
25.000000
 20
0.000000
 11
47.656000
 21
0.000000
 39
0
 62
7
  0
LINE
  8
default
  6
CONTINUOUS
 10
50.000000
 20
0.000000
 11
72.656000
 21
0.000000
 39
0
 62
7
  0
LINE
  8
default
  6
CONTINUOUS
 10
75.000000
 20
0.000000
 11
97.656000
 21
0.000000
 39
0
 62
7
  0
LINE
  8
default
  6
CONTINUOUS
 10
25.000000
 20
80.738000
 11
47.656000
 21
80.738000
 39
0
 62
7
  0
LINE
  8
default
  6
CONTINUOUS
 10
50.000000
 20
80.738000
 11
72.656000
 21
80.738000
 39
0
 62
7
  0
LINE
  8
default
  6
CONTINUOUS
 10
75.000000
 20
80.738000
 11
97.656000
 21
80.738000
 39
0
 62
7
  0
LINE
  8
default
  6
CONTINUOUS
 10
25.000000
 20
47.400000
 11
47.656000
 21
47.400000
 39
0
 62
7
  0
LINE
  8
default
  6
CONTINUOUS
 10
50.000000
 20
47.400000
 11
72.656000
 21
47.400000
 39
0
 62
7
  0
LINE
  8
default
  6
CONTINUOUS
 10
75.000000
 20
47.400000
 11
97.656000
 21
47.400000
 39
0
 62
7
  0
LINE
  8
default
  6
CONTINUOUS
 10
25.000000
 20
14.062000
 11
47.656000
 21
14.062000
 39
0
 62
7
  0
LINE
  8
default
  6
CONTINUOUS
 10
50.000000
 20
14.062000
 11
72.656000
 21
14.062000
 39
0
 62
7
  0
LINE
  8
default
  6
CONTINUOUS
 10
75.000000
 20
14.062000
 11
97.656000
 21
14.062000
 39
0
 62
7
  0
LINE
  8
default
  6
CONTINUOUS
 10
37.500000
 20
16.665000
 11
37.500000
 21
30.727000
 39
0
 62
7
  0
LINE
  8
default
  6
CONTINUOUS
 10
37.500000
 20
50.002000
 11
37.500000
 21
64.065000
 39
0
 62
7
  0
LINE
  8
default
  6
CONTINUOUS
 10
37.500000
 20
83.340000
 11
37.500000
 21
97.402000
 39
0
 62
7
  0
LINE
  8
default
  6
CONTINUOUS
 10
87.500000
 20
16.665000
 11
87.500000
 21
30.727000
 39
0
 62
7
  0
LINE
  8
default
  6
CONTINUOUS
 10
87.500000
 20
50.002000
 11
87.500000
 21
64.065000
 39
0
 62
7
  0
LINE
  8
default
  6
CONTINUOUS
 10
87.500000
 20
83.340000
 11
87.500000
 21
97.402000
 39
0
 62
7
  0
LINE
  8
default
  6
CONTINUOUS
 10
35.156000
 20
16.665000
 11
35.156000
 21
30.727000
 39
0
 62
7
  0
LINE
  8
default
  6
CONTINUOUS
 10
35.156000
 20
50.002000
 11
35.156000
 21
64.065000
 39
0
 62
7
  0
LINE
  8
default
  6
CONTINUOUS
 10
35.156000
 20
83.340000
 11
35.156000
 21
97.402000
 39
0
 62
7
  0
LINE
  8
default
  6
CONTINUOUS
 10
85.156000
 20
16.665000
 11
85.156000
 21
30.727000
 39
0
 62
7
  0
LINE
  8
default
  6
CONTINUOUS
 10
85.156000
 20
50.002000
 11
85.156000
 21
64.065000
 39
0
 62
7
  0
LINE
  8
default
  6
CONTINUOUS
 10
85.156000
 20
83.340000
 11
85.156000
 21
97.402000
 39
0
 62
7
  0
LINE
  8
default
  6
CONTINUOUS
 10
0.000000
 20
-0.004000
 11
0.000000
 21
14.058000
 39
0
 62
7
  0
LINE
  8
default
  6
CONTINUOUS
 10
0.000000
 20
33.333000
 11
0.000000
 21
47.396000
 39
0
 62
7
  0
LINE
  8
default
  6
CONTINUOUS
 10
0.000000
 20
66.671000
 11
0.000000
 21
80.733000
 39
0
 62
7
  0
LINE
  8
default
  6
CONTINUOUS
 10
25.000000
 20
-0.004000
 11
25.000000
 21
14.058000
 39
0
 62
7
  0
LINE
  8
default
  6
CONTINUOUS
 10
25.000000
 20
33.333000
 11
25.000000
 21
47.396000
 39
0
 62
7
  0
LINE
  8
default
  6
CONTINUOUS
 10
25.000000
 20
66.671000
 11
25.000000
 21
80.733000
 39
0
 62
7
  0
LINE
  8
default
  6
CONTINUOUS
 10
50.000000
 20
-0.004000
 11
50.000000
 21
14.058000
 39
0
 62
7
  0
LINE
  8
default
  6
CONTINUOUS
 10
50.000000
 20
33.333000
 11
50.000000
 21
47.396000
 39
0
 62
7
  0
LINE
  8
default
  6
CONTINUOUS
 10
50.000000
 20
66.671000
 11
50.000000
 21
80.733000
 39
0
 62
7
  0
LINE
  8
default
  6
CONTINUOUS
 10
75.000000
 20
-0.004000
 11
75.000000
 21
14.058000
 39
0
 62
7
  0
LINE
  8
default
  6
CONTINUOUS
 10
75.000000
 20
33.333000
 11
75.000000
 21
47.396000
 39
0
 62
7
  0
LINE
  8
default
  6
CONTINUOUS
 10
75.000000
 20
66.671000
 11
75.000000
 21
80.733000
 39
0
 62
7
  0
LINE
  8
default
  6
CONTINUOUS
 10
22.656000
 20
-0.004000
 11
22.656000
 21
14.058000
 39
0
 62
7
  0
LINE
  8
default
  6
CONTINUOUS
 10
22.656000
 20
33.333000
 11
22.656000
 21
47.396000
 39
0
 62
7
  0
LINE
  8
default
  6
CONTINUOUS
 10
22.656000
 20
66.671000
 11
22.656000
 21
80.733000
 39
0
 62
7
  0
LINE
  8
default
  6
CONTINUOUS
 10
47.656000
 20
-0.004000
 11
47.656000
 21
14.058000
 39
0
 62
7
  0
LINE
  8
default
  6
CONTINUOUS
 10
47.656000
 20
33.333000
 11
47.656000
 21
47.396000
 39
0
 62
7
  0
LINE
  8
default
  6
CONTINUOUS
 10
47.656000
 20
66.671000
 11
47.656000
 21
80.733000
 39
0
 62
7
  0
LINE
  8
default
  6
CONTINUOUS
 10
72.656000
 20
-0.004000
 11
72.656000
 21
14.058000
 39
0
 62
7
  0
LINE
  8
default
  6
CONTINUOUS
 10
72.656000
 20
33.333000
 11
72.656000
 21
47.396000
 39
0
 62
7
  0
LINE
  8
default
  6
CONTINUOUS
 10
72.656000
 20
66.671000
 11
72.656000
 21
80.733000
 39
0
 62
7
  0
LINE
  8
default
  6
CONTINUOUS
 10
97.656000
 20
-0.004000
 11
97.656000
 21
14.058000
 39
0
 62
7
  0
LINE
  8
default
  6
CONTINUOUS
 10
97.656000
 20
33.333000
 11
97.656000
 21
47.396000
 39
0
 62
7
  0
LINE
  8
default
  6
CONTINUOUS
 10
97.656000
 20
66.671000
 11
97.656000
 21
80.733000
 39
0
 62
7
  0
LINE
  8
default
  6
CONTINUOUS
 10
0.000000
 20
83.344000
 11
35.156000
 21
83.344000
 39
0
 62
7
  0
LINE
  8
default
  6
CONTINUOUS
 10
0.000000
 20
50.006000
 11
35.156000
 21
50.006000
 39
0
 62
7
  0
LINE
  8
default
  6
CONTINUOUS
 10
0.000000
 20
16.669000
 11
35.156000
 21
16.669000
 39
0
 62
7
  0
LINE
  8
default
  6
CONTINUOUS
 10
0.000000
 20
97.407000
 11
35.156000
 21
97.407000
 39
0
 62
7
  0
LINE
  8
default
  6
CONTINUOUS
 10
0.000000
 20
64.069000
 11
35.156000
 21
64.069000
 39
0
 62
7
  0
LINE
  8
default
  6
CONTINUOUS
 10
0.000000
 20
30.731000
 11
35.156000
 21
30.731000
 39
0
 62
7
  0
LINE
  8
default
  6
CONTINUOUS
 10
0.000000
 20
66.675000
 11
22.656000
 21
66.675000
 39
0
 62
7
  0
LINE
  8
default
  6
CONTINUOUS
 10
0.000000
 20
33.337000
 11
22.656000
 21
33.337000
 39
0
 62
7
  0
LINE
  8
default
  6
CONTINUOUS
 10
0.000000
 20
0.000000
 11
22.656000
 21
0.000000
 39
0
 62
7
  0
LINE
  8
default
  6
CONTINUOUS
 10
0.000000
 20
80.738000
 11
22.656000
 21
80.738000
 39
0
 62
7
  0
LINE
  8
default
  6
CONTINUOUS
 10
0.000000
 20
47.400000
 11
22.656000
 21
47.400000
 39
0
 62
7
  0
LINE
  8
default
  6
CONTINUOUS
 10
0.000000
 20
14.062000
 11
22.656000
 21
14.062000
 39
0
 62
7
  0
LINE
  8
default
  6
CONTINUOUS
 10
87.500000
 20
83.344000
 11
100.000000
 21
83.344000
 39
0
 62
7
  0
LINE
  8
default
  6
CONTINUOUS
 10
87.500000
 20
50.006000
 11
100.000000
 21
50.006000
 39
0
 62
7
  0
LINE
  8
default
  6
CONTINUOUS
 10
87.500000
 20
16.669000
 11
100.000000
 21
16.669000
 39
0
 62
7
  0
LINE
  8
default
  6
CONTINUOUS
 10
87.500000
 20
97.407000
 11
100.000000
 21
97.407000
 39
0
 62
7
  0
LINE
  8
default
  6
CONTINUOUS
 10
87.500000
 20
64.069000
 11
100.000000
 21
64.069000
 39
0
 62
7
  0
LINE
  8
default
  6
CONTINUOUS
 10
87.500000
 20
30.731000
 11
100.000000
 21
30.731000
 39
0
 62
7
  0
ENDSEC
  0
EOF
