  0
SECTION
  2
HEADER
  9
$LIMMIN
 10
0.000000
 20
0.000000
  9
$LIMMAX
 10
98.807000
 20
97.002000
  9
$EXTMIN
 10
0.000000
 20
0.000000
  9
$EXTMAX
 10
98.807000
 20
97.002000
  9
$ANGBASE
 50
0.000000
  9
$ANGDIR
 70
0
  9
$INSUNITS
 70
0
  9
$DIMALT
 70
4
  9
$DIMLUNIT
 70
2
  9
$DIMASZ
 40
3.000000
  9
$DIMTXT
 40
5.000000
  9
$DIMRND
 40
0.010000
  9
$DIMEXE
 40
2.000000
  9
$DIMEXO
 40
2.000000
  9
$DIMAUNIT
 70
0
  9
$DIMADEC
 70
2
  9
$GRIDUNIT
 10
0.001000
 20
0.001000
  9
$PLIMMIN
 10
0.000000
 20
0.000000
  9
$PLIMMAX
 10
210.000000
 20
297.000000
  9
$PSVPSCALE
 40
1.000000
  0
ENDSEC
  0
SECTION
  2
TABLES
  0
TABLE
  2
LTYPE
 70
     1
  0
LTYPE
  2
CONTINUOUS
 70
    64
  3
Ausgez
 72
    65
 73
  0
 40
0.000000
  0
ENDTAB
  0
TABLE
  2
LAYER
 70
     1
  0
LAYER
  2
default
 70
    64
 62
0
  6
CONTINUOUS
  0
ENDTAB
  0
ENDSEC
  0
SECTION
  2
BLOCKS
  0
ENDSEC
  0
SECTION
  2
ENTITIES
  0
LINE
  8
default
  6
CONTINUOUS
 10
0.000000
 20
3.000000
 11
4.000000
 21
0.000000
 39
0
 62
7
  0
LINE
  8
default
  6
CONTINUOUS
 10
0.000000
 20
0.000000
 11
4.000000
 21
0.000000
 39
0
 62
7
  0
LINE
  8
default
  6
CONTINUOUS
 10
0.000000
 20
0.000000
 11
0.000000
 21
3.000000
 39
0
 62
7
  0
LINE
  8
default
  6
CONTINUOUS
 10
12.807000
 20
15.828000
 11
17.757000
 21
16.535000
 39
0
 62
7
  0
LINE
  8
default
  6
CONTINUOUS
 10
14.928000
 20
13.706000
 11
17.757000
 21
16.535000
 39
0
 62
7
  0
LINE
  8
default
  6
CONTINUOUS
 10
14.928000
 20
13.706000
 11
12.807000
 21
15.828000
 39
0
 62
7
  0
LINE
  8
default
  6
CONTINUOUS
 10
85.499000
 20
80.594000
 11
90.449000
 21
81.301000
 39
0
 62
7
  0
LINE
  8
default
  6
CONTINUOUS
 10
87.620000
 20
78.473000
 11
90.449000
 21
81.301000
 39
0
 62
7
  0
LINE
  8
default
  6
CONTINUOUS
 10
87.620000
 20
78.473000
 11
85.499000
 21
80.594000
 39
0
 62
7
  0
LINE
  8
default
  6
CONTINUOUS
 10
29.041000
 20
58.776000
 11
32.041000
 21
62.776000
 39
0
 62
7
  0
LINE
  8
default
  6
CONTINUOUS
 10
32.041000
 20
58.776000
 11
32.041000
 21
62.776000
 39
0
 62
7
  0
LINE
  8
default
  6
CONTINUOUS
 10
32.041000
 20
58.776000
 11
29.041000
 21
58.776000
 39
0
 62
7
  0
LINE
  8
default
  6
CONTINUOUS
 10
98.100000
 20
29.959000
 11
98.807000
 21
25.009000
 39
0
 62
7
  0
LINE
  8
default
  6
CONTINUOUS
 10
95.979000
 20
27.838000
 11
98.807000
 21
25.009000
 39
0
 62
7
  0
LINE
  8
default
  6
CONTINUOUS
 10
95.979000
 20
27.838000
 11
98.100000
 21
29.959000
 39
0
 62
7
  0
LINE
  8
default
  6
CONTINUOUS
 10
20.752000
 20
51.930000
 11
24.752000
 21
48.930000
 39
0
 62
7
  0
LINE
  8
default
  6
CONTINUOUS
 10
20.752000
 20
48.930000
 11
24.752000
 21
48.930000
 39
0
 62
7
  0
LINE
  8
default
  6
CONTINUOUS
 10
20.752000
 20
48.930000
 11
20.752000
 21
51.930000
 39
0
 62
7
  0
LINE
  8
default
  6
CONTINUOUS
 10
40.461000
 20
90.879000
 11
45.059000
 21
92.842000
 39
0
 62
7
  0
LINE
  8
default
  6
CONTINUOUS
 10
43.059000
 20
89.378000
 11
45.059000
 21
92.842000
 39
0
 62
7
  0
LINE
  8
default
  6
CONTINUOUS
 10
43.059000
 20
89.378000
 11
40.461000
 21
90.879000
 39
0
 62
7
  0
LINE
  8
default
  6
CONTINUOUS
 10
54.135000
 20
92.362000
 11
55.997000
 21
97.002000
 39
0
 62
7
  0
LINE
  8
default
  6
CONTINUOUS
 10
57.032000
 20
93.138000
 11
55.997000
 21
97.002000
 39
0
 62
7
  0
LINE
  8
default
  6
CONTINUOUS
 10
57.032000
 20
93.138000
 11
54.135000
 21
92.362000
 39
0
 62
7
  0
LINE
  8
default
  6
CONTINUOUS
 10
38.945000
 20
59.530000
 11
38.238000
 21
64.480000
 39
0
 62
7
  0
LINE
  8
default
  6
CONTINUOUS
 10
41.067000
 20
61.652000
 11
38.238000
 21
64.480000
 39
0
 62
7
  0
LINE
  8
default
  6
CONTINUOUS
 10
41.067000
 20
61.652000
 11
38.945000
 21
59.530000
 39
0
 62
7
  0
LINE
  8
default
  6
CONTINUOUS
 10
67.962000
 20
32.470000
 11
72.911000
 21
33.177000
 39
0
 62
7
  0
LINE
  8
default
  6
CONTINUOUS
 10
70.083000
 20
30.349000
 11
72.911000
 21
33.177000
 39
0
 62
7
  0
LINE
  8
default
  6
CONTINUOUS
 10
70.083000
 20
30.349000
 11
67.962000
 21
32.470000
 39
0
 62
7
  0
LINE
  8
default
  6
CONTINUOUS
 10
53.036000
 20
80.195000
 11
54.899000
 21
84.835000
 39
0
 62
7
  0
LINE
  8
default
  6
CONTINUOUS
 10
55.934000
 20
80.972000
 11
54.899000
 21
84.835000
 39
0
 62
7
  0
LINE
  8
default
  6
CONTINUOUS
 10
55.934000
 20
80.972000
 11
53.036000
 21
80.195000
 39
0
 62
7
  0
LINE
  8
default
  6
CONTINUOUS
 10
61.656000
 20
90.913000
 11
59.692000
 21
95.511000
 39
0
 62
7
  0
LINE
  8
default
  6
CONTINUOUS
 10
63.156000
 20
93.511000
 11
59.692000
 21
95.511000
 39
0
 62
7
  0
LINE
  8
default
  6
CONTINUOUS
 10
63.156000
 20
93.511000
 11
61.656000
 21
90.913000
 39
0
 62
7
  0
LINE
  8
default
  6
CONTINUOUS
 10
75.452000
 20
50.709000
 11
71.452000
 21
53.709000
 39
0
 62
7
  0
LINE
  8
default
  6
CONTINUOUS
 10
75.452000
 20
53.709000
 11
71.452000
 21
53.709000
 39
0
 62
7
  0
LINE
  8
default
  6
CONTINUOUS
 10
75.452000
 20
53.709000
 11
75.452000
 21
50.709000
 39
0
 62
7
  0
LINE
  8
default
  6
CONTINUOUS
 10
80.835000
 20
45.262000
 11
81.542000
 21
40.312000
 39
0
 62
7
  0
LINE
  8
default
  6
CONTINUOUS
 10
78.714000
 20
43.141000
 11
81.542000
 21
40.312000
 39
0
 62
7
  0
LINE
  8
default
  6
CONTINUOUS
 10
78.714000
 20
43.141000
 11
80.835000
 21
45.262000
 39
0
 62
7
  0
LINE
  8
default
  6
CONTINUOUS
 10
65.535000
 20
4.376000
 11
69.535000
 21
1.376000
 39
0
 62
7
  0
LINE
  8
default
  6
CONTINUOUS
 10
65.535000
 20
1.376000
 11
69.535000
 21
1.376000
 39
0
 62
7
  0
LINE
  8
default
  6
CONTINUOUS
 10
65.535000
 20
1.376000
 11
65.535000
 21
4.376000
 39
0
 62
7
  0
LINE
  8
default
  6
CONTINUOUS
 10
2.271000
 20
67.556000
 11
7.221000
 21
68.263000
 39
0
 62
7
  0
LINE
  8
default
  6
CONTINUOUS
 10
4.392000
 20
65.435000
 11
7.221000
 21
68.263000
 39
0
 62
7
  0
LINE
  8
default
  6
CONTINUOUS
 10
4.392000
 20
65.435000
 11
2.271000
 21
67.556000
 39
0
 62
7
  0
LINE
  8
default
  6
CONTINUOUS
 10
77.911000
 20
2.594000
 11
80.911000
 21
6.594000
 39
0
 62
7
  0
LINE
  8
default
  6
CONTINUOUS
 10
80.911000
 20
2.594000
 11
80.911000
 21
6.594000
 39
0
 62
7
  0
LINE
  8
default
  6
CONTINUOUS
 10
80.911000
 20
2.594000
 11
77.911000
 21
2.594000
 39
0
 62
7
  0
LINE
  8
default
  6
CONTINUOUS
 10
59.721000
 20
40.005000
 11
59.014000
 21
44.954000
 39
0
 62
7
  0
LINE
  8
default
  6
CONTINUOUS
 10
61.843000
 20
42.126000
 11
59.014000
 21
44.954000
 39
0
 62
7
  0
LINE
  8
default
  6
CONTINUOUS
 10
61.843000
 20
42.126000
 11
59.721000
 21
40.005000
 39
0
 62
7
  0
LINE
  8
default
  6
CONTINUOUS
 10
9.761000
 20
85.795000
 11
5.761000
 21
88.796000
 39
0
 62
7
  0
LINE
  8
default
  6
CONTINUOUS
 10
9.761000
 20
88.796000
 11
5.761000
 21
88.796000
 39
0
 62
7
  0
LINE
  8
default
  6
CONTINUOUS
 10
9.761000
 20
88.796000
 11
9.761000
 21
85.795000
 39
0
 62
7
  0
LINE
  8
default
  6
CONTINUOUS
 10
50.050000
 20
87.957000
 11
50.528000
 21
83.985000
 39
0
 62
7
  0
LINE
  8
default
  6
CONTINUOUS
 10
52.128000
 20
86.757000
 11
50.528000
 21
83.985000
 39
0
 62
7
  0
LINE
  8
default
  6
CONTINUOUS
 10
52.128000
 20
86.757000
 11
50.050000
 21
87.957000
 39
0
 62
7
  0
LINE
  8
default
  6
CONTINUOUS
 10
87.695000
 20
24.314000
 11
84.495000
 21
21.914000
 39
0
 62
7
  0
LINE
  8
default
  6
CONTINUOUS
 10
87.695000
 20
21.914000
 11
84.495000
 21
21.914000
 39
0
 62
7
  0
LINE
  8
default
  6
CONTINUOUS
 10
87.695000
 20
21.914000
 11
87.695000
 21
24.314000
 39
0
 62
7
  0
LINE
  8
default
  6
CONTINUOUS
 10
5.714000
 20
30.258000
 11
2.514000
 21
27.858000
 39
0
 62
7
  0
LINE
  8
default
  6
CONTINUOUS
 10
5.714000
 20
27.858000
 11
2.514000
 21
27.858000
 39
0
 62
7
  0
LINE
  8
default
  6
CONTINUOUS
 10
5.714000
 20
27.858000
 11
5.714000
 21
30.258000
 39
0
 62
7
  0
LINE
  8
default
  6
CONTINUOUS
 10
57.766000
 20
38.865000
 11
53.806000
 21
39.431000
 39
0
 62
7
  0
LINE
  8
default
  6
CONTINUOUS
 10
56.069000
 20
37.168000
 11
53.806000
 21
39.431000
 39
0
 62
7
  0
LINE
  8
default
  6
CONTINUOUS
 10
56.069000
 20
37.168000
 11
57.766000
 21
38.865000
 39
0
 62
7
  0
LINE
  8
default
  6
CONTINUOUS
 10
66.328000
 20
39.682000
 11
65.762000
 21
35.722000
 39
0
 62
7
  0
LINE
  8
default
  6
CONTINUOUS
 10
68.025000
 20
37.985000
 11
65.762000
 21
35.722000
 39
0
 62
7
  0
LINE
  8
default
  6
CONTINUOUS
 10
68.025000
 20
37.985000
 11
66.328000
 21
39.682000
 39
0
 62
7
  0
LINE
  8
default
  6
CONTINUOUS
 10
31.297000
 20
68.218000
 11
28.097000
 21
65.818000
 39
0
 62
7
  0
LINE
  8
default
  6
CONTINUOUS
 10
31.297000
 20
65.818000
 11
28.097000
 21
65.818000
 39
0
 62
7
  0
LINE
  8
default
  6
CONTINUOUS
 10
31.297000
 20
65.818000
 11
31.297000
 21
68.218000
 39
0
 62
7
  0
LINE
  8
default
  6
CONTINUOUS
 10
24.800000
 20
59.338000
 11
20.840000
 21
59.904000
 39
0
 62
7
  0
LINE
  8
default
  6
CONTINUOUS
 10
23.103000
 20
57.641000
 11
20.840000
 21
59.904000
 39
0
 62
7
  0
LINE
  8
default
  6
CONTINUOUS
 10
23.103000
 20
57.641000
 11
24.800000
 21
59.338000
 39
0
 62
7
  0
LINE
  8
default
  6
CONTINUOUS
 10
51.736000
 20
33.689000
 11
49.336000
 21
36.890000
 39
0
 62
7
  0
LINE
  8
default
  6
CONTINUOUS
 10
49.336000
 20
33.690000
 11
49.336000
 21
36.890000
 39
0
 62
7
  0
LINE
  8
default
  6
CONTINUOUS
 10
49.336000
 20
33.690000
 11
51.736000
 21
33.689000
 39
0
 62
7
  0
LINE
  8
default
  6
CONTINUOUS
 10
44.839000
 20
7.011000
 11
41.639000
 21
4.611000
 39
0
 62
7
  0
LINE
  8
default
  6
CONTINUOUS
 10
44.839000
 20
4.611000
 11
41.639000
 21
4.611000
 39
0
 62
7
  0
LINE
  8
default
  6
CONTINUOUS
 10
44.839000
 20
4.611000
 11
44.839000
 21
7.011000
 39
0
 62
7
  0
LINE
  8
default
  6
CONTINUOUS
 10
33.669000
 20
55.232000
 11
29.709000
 21
55.798000
 39
0
 62
7
  0
LINE
  8
default
  6
CONTINUOUS
 10
31.972000
 20
53.535000
 11
29.709000
 21
55.798000
 39
0
 62
7
  0
LINE
  8
default
  6
CONTINUOUS
 10
31.972000
 20
53.535000
 11
33.669000
 21
55.232000
 39
0
 62
7
  0
LINE
  8
default
  6
CONTINUOUS
 10
22.795000
 20
53.547000
 11
20.395000
 21
56.747000
 39
0
 62
7
  0
LINE
  8
default
  6
CONTINUOUS
 10
20.395000
 20
53.547000
 11
20.395000
 21
56.747000
 39
0
 62
7
  0
LINE
  8
default
  6
CONTINUOUS
 10
20.395000
 20
53.547000
 11
22.795000
 21
53.547000
 39
0
 62
7
  0
LINE
  8
default
  6
CONTINUOUS
 10
30.284000
 20
13.092000
 11
30.850000
 21
17.052000
 39
0
 62
7
  0
LINE
  8
default
  6
CONTINUOUS
 10
28.587000
 20
14.789000
 11
30.850000
 21
17.052000
 39
0
 62
7
  0
LINE
  8
default
  6
CONTINUOUS
 10
28.587000
 20
14.789000
 11
30.284000
 21
13.092000
 39
0
 62
7
  0
LINE
  8
default
  6
CONTINUOUS
 10
30.320000
 20
6.965000
 11
32.720000
 21
3.765000
 39
0
 62
7
  0
LINE
  8
default
  6
CONTINUOUS
 10
32.720000
 20
6.965000
 11
32.720000
 21
3.765000
 39
0
 62
7
  0
LINE
  8
default
  6
CONTINUOUS
 10
32.720000
 20
6.965000
 11
30.320000
 21
6.965000
 39
0
 62
7
  0
LINE
  8
default
  6
CONTINUOUS
 10
6.196000
 20
58.637000
 11
5.630000
 21
54.677000
 39
0
 62
7
  0
LINE
  8
default
  6
CONTINUOUS
 10
7.893000
 20
56.940000
 11
5.630000
 21
54.677000
 39
0
 62
7
  0
LINE
  8
default
  6
CONTINUOUS
 10
7.893000
 20
56.940000
 11
6.196000
 21
58.637000
 39
0
 62
7
  0
LINE
  8
default
  6
CONTINUOUS
 10
67.943000
 20
58.976000
 11
64.743000
 21
56.576000
 39
0
 62
7
  0
LINE
  8
default
  6
CONTINUOUS
 10
67.943000
 20
56.576000
 11
64.743000
 21
56.576000
 39
0
 62
7
  0
LINE
  8
default
  6
CONTINUOUS
 10
67.943000
 20
56.576000
 11
67.943000
 21
58.976000
 39
0
 62
7
  0
LINE
  8
default
  6
CONTINUOUS
 10
45.238000
 20
15.935000
 11
42.838000
 21
19.135000
 39
0
 62
7
  0
LINE
  8
default
  6
CONTINUOUS
 10
42.838000
 20
15.935000
 11
42.838000
 21
19.135000
 39
0
 62
7
  0
LINE
  8
default
  6
CONTINUOUS
 10
42.838000
 20
15.935000
 11
45.238000
 21
15.935000
 39
0
 62
7
  0
LINE
  8
default
  6
CONTINUOUS
 10
53.388000
 20
65.056000
 11
53.953000
 21
69.016000
 39
0
 62
7
  0
LINE
  8
default
  6
CONTINUOUS
 10
51.691000
 20
66.754000
 11
53.953000
 21
69.016000
 39
0
 62
7
  0
LINE
  8
default
  6
CONTINUOUS
 10
51.691000
 20
66.754000
 11
53.388000
 21
65.056000
 39
0
 62
7
  0
ENDSEC
  0
EOF
