  0
SECTION
  2
HEADER
  9
$LIMMIN
 10
0.000000
 20
0.000000
  9
$LIMMAX
 10
100.000000
 20
100.000000
  9
$EXTMIN
 10
0.000000
 20
0.000000
  9
$EXTMAX
 10
100.000000
 20
100.000000
  9
$ANGBASE
 50
0.000000
  9
$ANGDIR
 70
0
  9
$INSUNITS
 70
0
  9
$DIMALT
 70
4
  9
$DIMLUNIT
 70
2
  9
$DIMASZ
 40
3.000000
  9
$DIMTXT
 40
5.000000
  9
$DIMRND
 40
0.010000
  9
$DIMEXE
 40
2.000000
  9
$DIMEXO
 40
2.000000
  9
$DIMAUNIT
 70
0
  9
$DIMADEC
 70
2
  9
$GRIDUNIT
 10
0.001000
 20
0.001000
  9
$PLIMMIN
 10
0.000000
 20
0.000000
  9
$PLIMMAX
 10
210.000000
 20
297.000000
  9
$PSVPSCALE
 40
1.000000
  0
ENDSEC
  0
SECTION
  2
TABLES
  0
TABLE
  2
LTYPE
 70
     1
  0
LTYPE
  2
CONTINUOUS
 70
    64
  3
Ausgez
 72
    65
 73
  0
 40
0.000000
  0
ENDTAB
  0
TABLE
  2
LAYER
 70
     1
  0
LAYER
  2
default
 70
    64
 62
0
  6
CONTINUOUS
  0
ENDTAB
  0
ENDSEC
  0
SECTION
  2
BLOCKS
  0
ENDSEC
  0
SECTION
  2
ENTITIES
  0
LINE
  8
default
  6
CONTINUOUS
 10
33.333000
 20
86.667000
 11
53.333000
 21
86.667000
 39
0
 62
7
  0
LINE
  8
default
  6
CONTINUOUS
 10
66.667000
 20
86.667000
 11
86.667000
 21
86.667000
 39
0
 62
7
  0
LINE
  8
default
  6
CONTINUOUS
 10
33.333000
 20
66.667000
 11
53.333000
 21
66.667000
 39
0
 62
7
  0
LINE
  8
default
  6
CONTINUOUS
 10
66.667000
 20
66.667000
 11
86.667000
 21
66.667000
 39
0
 62
7
  0
LINE
  8
default
  6
CONTINUOUS
 10
33.333000
 20
46.666000
 11
53.333000
 21
46.666000
 39
0
 62
7
  0
LINE
  8
default
  6
CONTINUOUS
 10
66.667000
 20
46.666000
 11
86.667000
 21
46.666000
 39
0
 62
7
  0
LINE
  8
default
  6
CONTINUOUS
 10
33.333000
 20
26.667000
 11
53.333000
 21
26.667000
 39
0
 62
7
  0
LINE
  8
default
  6
CONTINUOUS
 10
66.667000
 20
26.667000
 11
86.667000
 21
26.667000
 39
0
 62
7
  0
LINE
  8
default
  6
CONTINUOUS
 10
33.333000
 20
6.667000
 11
53.333000
 21
6.667000
 39
0
 62
7
  0
LINE
  8
default
  6
CONTINUOUS
 10
66.667000
 20
6.667000
 11
86.667000
 21
6.667000
 39
0
 62
7
  0
LINE
  8
default
  6
CONTINUOUS
 10
0.000000
 20
86.667000
 11
20.000000
 21
86.667000
 39
0
 62
7
  0
LINE
  8
default
  6
CONTINUOUS
 10
0.000000
 20
66.667000
 11
20.000000
 21
66.667000
 39
0
 62
7
  0
LINE
  8
default
  6
CONTINUOUS
 10
0.000000
 20
46.666000
 11
20.000000
 21
46.666000
 39
0
 62
7
  0
LINE
  8
default
  6
CONTINUOUS
 10
0.000000
 20
26.667000
 11
20.000000
 21
26.667000
 39
0
 62
7
  0
LINE
  8
default
  6
CONTINUOUS
 10
0.000000
 20
6.667000
 11
20.000000
 21
6.667000
 39
0
 62
7
  0
LINE
  8
default
  6
CONTINUOUS
 10
0.000000
 20
93.333000
 11
100.000000
 21
93.333000
 39
0
 62
7
  0
LINE
  8
default
  6
CONTINUOUS
 10
0.000000
 20
73.333000
 11
100.000000
 21
73.333000
 39
0
 62
7
  0
LINE
  8
default
  6
CONTINUOUS
 10
0.000000
 20
53.333000
 11
100.000000
 21
53.333000
 39
0
 62
7
  0
LINE
  8
default
  6
CONTINUOUS
 10
0.000000
 20
33.333000
 11
100.000000
 21
33.333000
 39
0
 62
7
  0
LINE
  8
default
  6
CONTINUOUS
 10
0.000000
 20
13.333000
 11
100.000000
 21
13.333000
 39
0
 62
7
  0
LINE
  8
default
  6
CONTINUOUS
 10
0.000000
 20
96.667000
 11
100.000000
 21
96.667000
 39
0
 62
7
  0
LINE
  8
default
  6
CONTINUOUS
 10
0.000000
 20
76.667000
 11
100.000000
 21
76.667000
 39
0
 62
7
  0
LINE
  8
default
  6
CONTINUOUS
 10
0.000000
 20
56.667000
 11
100.000000
 21
56.667000
 39
0
 62
7
  0
LINE
  8
default
  6
CONTINUOUS
 10
0.000000
 20
36.667000
 11
100.000000
 21
36.667000
 39
0
 62
7
  0
LINE
  8
default
  6
CONTINUOUS
 10
0.000000
 20
16.667000
 11
100.000000
 21
16.667000
 39
0
 62
7
  0
LINE
  8
default
  6
CONTINUOUS
 10
0.000000
 20
100.000000
 11
100.000000
 21
100.000000
 39
0
 62
7
  0
LINE
  8
default
  6
CONTINUOUS
 10
0.000000
 20
80.000000
 11
100.000000
 21
80.000000
 39
0
 62
7
  0
LINE
  8
default
  6
CONTINUOUS
 10
0.000000
 20
60.000000
 11
100.000000
 21
60.000000
 39
0
 62
7
  0
LINE
  8
default
  6
CONTINUOUS
 10
0.000000
 20
40.000000
 11
100.000000
 21
40.000000
 39
0
 62
7
  0
LINE
  8
default
  6
CONTINUOUS
 10
0.000000
 20
20.000000
 11
100.000000
 21
20.000000
 39
0
 62
7
  0
ENDSEC
  0
EOF
