  0
SECTION
  2
HEADER
  9
$LIMMIN
 10
0.000000
 20
-0.000004
  9
$LIMMAX
 10
100.000008
 20
100.000000
  9
$EXTMIN
 10
0.000000
 20
-0.000004
  9
$EXTMAX
 10
100.000008
 20
100.000000
  0
ENDSEC
  0
SECTION
  2
TABLES
  0
TABLE
  2
LTYPE
 70
     1
  0
LTYPE
  2
CONTINUOUS
 70
    64
  3
Ausgez
 72
    65
 73
  0
 40
0.000000
  0
ENDTAB
  0
TABLE
  2
LAYER
 70
     1
  0
LAYER
  2
default
 70
    64
 62
     0
  6
CONTINUOUS
  0
ENDTAB
  0
ENDSEC
  0
SECTION
  2
BLOCKS
  0
ENDSEC
  0
SECTION
  2
ENTITIES
  0
LINE
  8
default
  6
CONTINUOUS
 10
0.000000
 20
0.000000
 11
100.000000
 21
100.000000
 39
0
 62
0
  0
LINE
  8
default
  6
CONTINUOUS
 10
0.000000
 20
2.000000
 11
2.000000
 21
4.000000
 39
0
 62
0
  0
LINE
  8
default
  6
CONTINUOUS
 10
3.000000
 20
5.000000
 11
5.000000
 21
7.000000
 39
0
 62
0
  0
LINE
  8
default
  6
CONTINUOUS
 10
6.000000
 20
8.000000
 11
8.000000
 21
10.000000
 39
0
 62
0
  0
LINE
  8
default
  6
CONTINUOUS
 10
9.000000
 20
11.000000
 11
11.000000
 21
13.000000
 39
0
 62
0
  0
LINE
  8
default
  6
CONTINUOUS
 10
12.000000
 20
14.000000
 11
14.000000
 21
16.000000
 39
0
 62
0
  0
LINE
  8
default
  6
CONTINUOUS
 10
15.000000
 20
17.000000
 11
17.000000
 21
19.000000
 39
0
 62
0
  0
LINE
  8
default
  6
CONTINUOUS
 10
18.000000
 20
20.000000
 11
20.000000
 21
22.000000
 39
0
 62
0
  0
LINE
  8
default
  6
CONTINUOUS
 10
21.000000
 20
23.000000
 11
23.000000
 21
25.000000
 39
0
 62
0
  0
LINE
  8
default
  6
CONTINUOUS
 10
24.000000
 20
26.000000
 11
26.000000
 21
28.000000
 39
0
 62
0
  0
LINE
  8
default
  6
CONTINUOUS
 10
27.000000
 20
29.000000
 11
29.000000
 21
31.000000
 39
0
 62
0
  0
LINE
  8
default
  6
CONTINUOUS
 10
30.000000
 20
32.000000
 11
32.000000
 21
34.000000
 39
0
 62
0
  0
LINE
  8
default
  6
CONTINUOUS
 10
33.000000
 20
35.000000
 11
35.000000
 21
37.000000
 39
0
 62
0
  0
LINE
  8
default
  6
CONTINUOUS
 10
36.000000
 20
38.000000
 11
38.000000
 21
40.000000
 39
0
 62
0
  0
LINE
  8
default
  6
CONTINUOUS
 10
39.000000
 20
41.000000
 11
41.000000
 21
43.000000
 39
0
 62
0
  0
LINE
  8
default
  6
CONTINUOUS
 10
42.000000
 20
44.000000
 11
44.000000
 21
46.000000
 39
0
 62
0
  0
LINE
  8
default
  6
CONTINUOUS
 10
45.000000
 20
47.000000
 11
47.000000
 21
49.000000
 39
0
 62
0
  0
LINE
  8
default
  6
CONTINUOUS
 10
48.000000
 20
50.000000
 11
50.000000
 21
52.000000
 39
0
 62
0
  0
LINE
  8
default
  6
CONTINUOUS
 10
51.000000
 20
53.000000
 11
53.000000
 21
55.000000
 39
0
 62
0
  0
LINE
  8
default
  6
CONTINUOUS
 10
54.000000
 20
56.000000
 11
56.000000
 21
58.000000
 39
0
 62
0
  0
LINE
  8
default
  6
CONTINUOUS
 10
57.000000
 20
59.000000
 11
59.000000
 21
61.000000
 39
0
 62
0
  0
LINE
  8
default
  6
CONTINUOUS
 10
60.000000
 20
62.000000
 11
62.000000
 21
64.000000
 39
0
 62
0
  0
LINE
  8
default
  6
CONTINUOUS
 10
63.000000
 20
65.000000
 11
65.000000
 21
67.000000
 39
0
 62
0
  0
LINE
  8
default
  6
CONTINUOUS
 10
66.000000
 20
68.000000
 11
68.000000
 21
70.000000
 39
0
 62
0
  0
LINE
  8
default
  6
CONTINUOUS
 10
69.000000
 20
71.000000
 11
71.000000
 21
73.000000
 39
0
 62
0
  0
LINE
  8
default
  6
CONTINUOUS
 10
72.000000
 20
74.000000
 11
74.000000
 21
76.000000
 39
0
 62
0
  0
LINE
  8
default
  6
CONTINUOUS
 10
75.000000
 20
77.000000
 11
77.000000
 21
79.000000
 39
0
 62
0
  0
LINE
  8
default
  6
CONTINUOUS
 10
78.000000
 20
80.000000
 11
80.000000
 21
82.000000
 39
0
 62
0
  0
LINE
  8
default
  6
CONTINUOUS
 10
81.000000
 20
83.000000
 11
83.000000
 21
85.000000
 39
0
 62
0
  0
LINE
  8
default
  6
CONTINUOUS
 10
84.000000
 20
86.000000
 11
86.000000
 21
88.000000
 39
0
 62
0
  0
LINE
  8
default
  6
CONTINUOUS
 10
87.000000
 20
89.000000
 11
89.000000
 21
91.000000
 39
0
 62
0
  0
LINE
  8
default
  6
CONTINUOUS
 10
90.000000
 20
92.000000
 11
92.000000
 21
94.000000
 39
0
 62
0
  0
LINE
  8
default
  6
CONTINUOUS
 10
93.000000
 20
95.000000
 11
95.000000
 21
97.000000
 39
0
 62
0
  0
LINE
  8
default
  6
CONTINUOUS
 10
96.000000
 20
98.000000
 11
98.000000
 21
100.000000
 39
0
 62
0
  0
LINE
  8
default
  6
CONTINUOUS
 10
0.000000
 20
6.000000
 11
2.000000
 21
8.000000
 39
0
 62
0
  0
LINE
  8
default
  6
CONTINUOUS
 10
3.000000
 20
9.000000
 11
5.000000
 21
11.000000
 39
0
 62
0
  0
LINE
  8
default
  6
CONTINUOUS
 10
6.000000
 20
12.000000
 11
8.000000
 21
14.000000
 39
0
 62
0
  0
LINE
  8
default
  6
CONTINUOUS
 10
9.000000
 20
15.000000
 11
11.000000
 21
17.000000
 39
0
 62
0
  0
LINE
  8
default
  6
CONTINUOUS
 10
12.000000
 20
18.000000
 11
14.000000
 21
20.000000
 39
0
 62
0
  0
LINE
  8
default
  6
CONTINUOUS
 10
15.000000
 20
21.000000
 11
17.000000
 21
23.000000
 39
0
 62
0
  0
LINE
  8
default
  6
CONTINUOUS
 10
18.000000
 20
24.000000
 11
20.000000
 21
26.000000
 39
0
 62
0
  0
LINE
  8
default
  6
CONTINUOUS
 10
21.000000
 20
27.000000
 11
23.000000
 21
29.000000
 39
0
 62
0
  0
LINE
  8
default
  6
CONTINUOUS
 10
24.000000
 20
30.000000
 11
26.000000
 21
32.000000
 39
0
 62
0
  0
LINE
  8
default
  6
CONTINUOUS
 10
27.000000
 20
33.000000
 11
29.000000
 21
35.000000
 39
0
 62
0
  0
LINE
  8
default
  6
CONTINUOUS
 10
30.000000
 20
36.000000
 11
32.000000
 21
38.000000
 39
0
 62
0
  0
LINE
  8
default
  6
CONTINUOUS
 10
33.000000
 20
39.000000
 11
35.000000
 21
41.000000
 39
0
 62
0
  0
LINE
  8
default
  6
CONTINUOUS
 10
36.000000
 20
42.000000
 11
38.000000
 21
44.000000
 39
0
 62
0
  0
LINE
  8
default
  6
CONTINUOUS
 10
39.000000
 20
45.000000
 11
41.000000
 21
47.000000
 39
0
 62
0
  0
LINE
  8
default
  6
CONTINUOUS
 10
42.000000
 20
48.000000
 11
44.000000
 21
50.000000
 39
0
 62
0
  0
LINE
  8
default
  6
CONTINUOUS
 10
45.000000
 20
51.000000
 11
47.000000
 21
53.000000
 39
0
 62
0
  0
LINE
  8
default
  6
CONTINUOUS
 10
48.000000
 20
54.000000
 11
50.000000
 21
56.000000
 39
0
 62
0
  0
LINE
  8
default
  6
CONTINUOUS
 10
51.000000
 20
57.000000
 11
53.000000
 21
59.000000
 39
0
 62
0
  0
LINE
  8
default
  6
CONTINUOUS
 10
54.000000
 20
60.000000
 11
56.000000
 21
62.000000
 39
0
 62
0
  0
LINE
  8
default
  6
CONTINUOUS
 10
57.000000
 20
63.000000
 11
59.000000
 21
65.000000
 39
0
 62
0
  0
LINE
  8
default
  6
CONTINUOUS
 10
60.000000
 20
66.000000
 11
62.000000
 21
68.000000
 39
0
 62
0
  0
LINE
  8
default
  6
CONTINUOUS
 10
63.000000
 20
69.000000
 11
65.000000
 21
71.000000
 39
0
 62
0
  0
LINE
  8
default
  6
CONTINUOUS
 10
66.000000
 20
72.000000
 11
68.000000
 21
74.000000
 39
0
 62
0
  0
LINE
  8
default
  6
CONTINUOUS
 10
69.000000
 20
75.000000
 11
71.000000
 21
77.000000
 39
0
 62
0
  0
LINE
  8
default
  6
CONTINUOUS
 10
72.000000
 20
78.000000
 11
74.000000
 21
80.000000
 39
0
 62
0
  0
LINE
  8
default
  6
CONTINUOUS
 10
75.000000
 20
81.000000
 11
77.000000
 21
83.000000
 39
0
 62
0
  0
LINE
  8
default
  6
CONTINUOUS
 10
78.000000
 20
84.000000
 11
80.000000
 21
86.000000
 39
0
 62
0
  0
LINE
  8
default
  6
CONTINUOUS
 10
81.000000
 20
87.000000
 11
83.000000
 21
89.000000
 39
0
 62
0
  0
LINE
  8
default
  6
CONTINUOUS
 10
84.000000
 20
90.000000
 11
86.000000
 21
92.000000
 39
0
 62
0
  0
LINE
  8
default
  6
CONTINUOUS
 10
87.000000
 20
93.000000
 11
89.000000
 21
95.000000
 39
0
 62
0
  0
LINE
  8
default
  6
CONTINUOUS
 10
90.000000
 20
96.000000
 11
92.000000
 21
98.000000
 39
0
 62
0
  0
LINE
  8
default
  6
CONTINUOUS
 10
0.000000
 20
10.000000
 11
2.000000
 21
12.000000
 39
0
 62
0
  0
LINE
  8
default
  6
CONTINUOUS
 10
3.000000
 20
13.000000
 11
5.000000
 21
15.000000
 39
0
 62
0
  0
LINE
  8
default
  6
CONTINUOUS
 10
6.000000
 20
16.000000
 11
8.000000
 21
18.000000
 39
0
 62
0
  0
LINE
  8
default
  6
CONTINUOUS
 10
9.000000
 20
19.000000
 11
11.000000
 21
21.000000
 39
0
 62
0
  0
LINE
  8
default
  6
CONTINUOUS
 10
12.000000
 20
22.000000
 11
14.000000
 21
24.000000
 39
0
 62
0
  0
LINE
  8
default
  6
CONTINUOUS
 10
15.000000
 20
25.000000
 11
17.000000
 21
27.000000
 39
0
 62
0
  0
LINE
  8
default
  6
CONTINUOUS
 10
18.000000
 20
28.000000
 11
20.000000
 21
30.000000
 39
0
 62
0
  0
LINE
  8
default
  6
CONTINUOUS
 10
21.000000
 20
31.000000
 11
23.000000
 21
33.000000
 39
0
 62
0
  0
LINE
  8
default
  6
CONTINUOUS
 10
24.000000
 20
34.000000
 11
26.000000
 21
36.000000
 39
0
 62
0
  0
LINE
  8
default
  6
CONTINUOUS
 10
27.000000
 20
37.000000
 11
29.000000
 21
39.000000
 39
0
 62
0
  0
LINE
  8
default
  6
CONTINUOUS
 10
30.000000
 20
40.000000
 11
32.000000
 21
42.000000
 39
0
 62
0
  0
LINE
  8
default
  6
CONTINUOUS
 10
33.000000
 20
43.000000
 11
35.000000
 21
45.000000
 39
0
 62
0
  0
LINE
  8
default
  6
CONTINUOUS
 10
36.000000
 20
46.000000
 11
38.000000
 21
48.000000
 39
0
 62
0
  0
LINE
  8
default
  6
CONTINUOUS
 10
39.000000
 20
49.000000
 11
41.000000
 21
51.000000
 39
0
 62
0
  0
LINE
  8
default
  6
CONTINUOUS
 10
42.000000
 20
52.000000
 11
44.000000
 21
54.000000
 39
0
 62
0
  0
LINE
  8
default
  6
CONTINUOUS
 10
45.000000
 20
55.000000
 11
47.000000
 21
57.000000
 39
0
 62
0
  0
LINE
  8
default
  6
CONTINUOUS
 10
48.000000
 20
58.000000
 11
50.000000
 21
60.000000
 39
0
 62
0
  0
LINE
  8
default
  6
CONTINUOUS
 10
51.000000
 20
61.000000
 11
53.000000
 21
63.000000
 39
0
 62
0
  0
LINE
  8
default
  6
CONTINUOUS
 10
54.000000
 20
64.000000
 11
56.000000
 21
66.000000
 39
0
 62
0
  0
LINE
  8
default
  6
CONTINUOUS
 10
57.000000
 20
67.000000
 11
59.000000
 21
69.000000
 39
0
 62
0
  0
LINE
  8
default
  6
CONTINUOUS
 10
60.000000
 20
70.000000
 11
62.000000
 21
72.000000
 39
0
 62
0
  0
LINE
  8
default
  6
CONTINUOUS
 10
63.000000
 20
73.000000
 11
65.000000
 21
75.000000
 39
0
 62
0
  0
LINE
  8
default
  6
CONTINUOUS
 10
66.000000
 20
76.000000
 11
68.000000
 21
78.000000
 39
0
 62
0
  0
LINE
  8
default
  6
CONTINUOUS
 10
69.000000
 20
79.000000
 11
71.000000
 21
81.000000
 39
0
 62
0
  0
LINE
  8
default
  6
CONTINUOUS
 10
72.000000
 20
82.000000
 11
74.000000
 21
84.000000
 39
0
 62
0
  0
LINE
  8
default
  6
CONTINUOUS
 10
75.000000
 20
85.000000
 11
77.000000
 21
87.000000
 39
0
 62
0
  0
LINE
  8
default
  6
CONTINUOUS
 10
78.000000
 20
88.000000
 11
80.000000
 21
90.000000
 39
0
 62
0
  0
LINE
  8
default
  6
CONTINUOUS
 10
81.000000
 20
91.000000
 11
83.000000
 21
93.000000
 39
0
 62
0
  0
LINE
  8
default
  6
CONTINUOUS
 10
84.000000
 20
94.000000
 11
86.000000
 21
96.000000
 39
0
 62
0
  0
LINE
  8
default
  6
CONTINUOUS
 10
87.000000
 20
97.000000
 11
89.000000
 21
99.000000
 39
0
 62
0
  0
LINE
  8
default
  6
CONTINUOUS
 10
0.000000
 20
14.000000
 11
2.000000
 21
16.000000
 39
0
 62
0
  0
LINE
  8
default
  6
CONTINUOUS
 10
3.000000
 20
17.000000
 11
5.000000
 21
19.000000
 39
0
 62
0
  0
LINE
  8
default
  6
CONTINUOUS
 10
6.000000
 20
20.000000
 11
8.000000
 21
22.000000
 39
0
 62
0
  0
LINE
  8
default
  6
CONTINUOUS
 10
9.000000
 20
23.000000
 11
11.000000
 21
25.000000
 39
0
 62
0
  0
LINE
  8
default
  6
CONTINUOUS
 10
12.000000
 20
26.000000
 11
14.000000
 21
28.000000
 39
0
 62
0
  0
LINE
  8
default
  6
CONTINUOUS
 10
15.000000
 20
29.000000
 11
17.000000
 21
31.000000
 39
0
 62
0
  0
LINE
  8
default
  6
CONTINUOUS
 10
18.000000
 20
32.000000
 11
20.000000
 21
34.000000
 39
0
 62
0
  0
LINE
  8
default
  6
CONTINUOUS
 10
21.000000
 20
35.000000
 11
23.000000
 21
37.000000
 39
0
 62
0
  0
LINE
  8
default
  6
CONTINUOUS
 10
24.000000
 20
38.000000
 11
26.000000
 21
40.000000
 39
0
 62
0
  0
LINE
  8
default
  6
CONTINUOUS
 10
27.000000
 20
41.000000
 11
29.000000
 21
43.000000
 39
0
 62
0
  0
LINE
  8
default
  6
CONTINUOUS
 10
30.000000
 20
44.000000
 11
32.000000
 21
46.000000
 39
0
 62
0
  0
LINE
  8
default
  6
CONTINUOUS
 10
33.000000
 20
47.000000
 11
35.000000
 21
49.000000
 39
0
 62
0
  0
LINE
  8
default
  6
CONTINUOUS
 10
36.000000
 20
50.000000
 11
38.000000
 21
52.000000
 39
0
 62
0
  0
LINE
  8
default
  6
CONTINUOUS
 10
39.000000
 20
53.000000
 11
41.000000
 21
55.000000
 39
0
 62
0
  0
LINE
  8
default
  6
CONTINUOUS
 10
42.000000
 20
56.000000
 11
44.000000
 21
58.000000
 39
0
 62
0
  0
LINE
  8
default
  6
CONTINUOUS
 10
45.000000
 20
59.000000
 11
47.000000
 21
61.000000
 39
0
 62
0
  0
LINE
  8
default
  6
CONTINUOUS
 10
48.000000
 20
62.000000
 11
50.000000
 21
64.000000
 39
0
 62
0
  0
LINE
  8
default
  6
CONTINUOUS
 10
51.000000
 20
65.000000
 11
53.000000
 21
67.000000
 39
0
 62
0
  0
LINE
  8
default
  6
CONTINUOUS
 10
54.000000
 20
68.000000
 11
56.000000
 21
70.000000
 39
0
 62
0
  0
LINE
  8
default
  6
CONTINUOUS
 10
57.000000
 20
71.000000
 11
59.000000
 21
73.000000
 39
0
 62
0
  0
LINE
  8
default
  6
CONTINUOUS
 10
60.000000
 20
74.000000
 11
62.000000
 21
76.000000
 39
0
 62
0
  0
LINE
  8
default
  6
CONTINUOUS
 10
63.000000
 20
77.000000
 11
65.000000
 21
79.000000
 39
0
 62
0
  0
LINE
  8
default
  6
CONTINUOUS
 10
66.000000
 20
80.000000
 11
68.000000
 21
82.000000
 39
0
 62
0
  0
LINE
  8
default
  6
CONTINUOUS
 10
69.000000
 20
83.000000
 11
71.000000
 21
85.000000
 39
0
 62
0
  0
LINE
  8
default
  6
CONTINUOUS
 10
72.000000
 20
86.000000
 11
74.000000
 21
88.000000
 39
0
 62
0
  0
LINE
  8
default
  6
CONTINUOUS
 10
75.000000
 20
89.000000
 11
77.000000
 21
91.000000
 39
0
 62
0
  0
LINE
  8
default
  6
CONTINUOUS
 10
78.000000
 20
92.000000
 11
80.000000
 21
94.000000
 39
0
 62
0
  0
LINE
  8
default
  6
CONTINUOUS
 10
81.000000
 20
95.000000
 11
83.000000
 21
97.000000
 39
0
 62
0
  0
LINE
  8
default
  6
CONTINUOUS
 10
0.000000
 20
18.000000
 11
2.000000
 21
20.000000
 39
0
 62
0
  0
LINE
  8
default
  6
CONTINUOUS
 10
3.000000
 20
21.000000
 11
5.000000
 21
23.000000
 39
0
 62
0
  0
LINE
  8
default
  6
CONTINUOUS
 10
6.000000
 20
24.000000
 11
8.000000
 21
26.000000
 39
0
 62
0
  0
LINE
  8
default
  6
CONTINUOUS
 10
9.000000
 20
27.000000
 11
11.000000
 21
29.000000
 39
0
 62
0
  0
LINE
  8
default
  6
CONTINUOUS
 10
12.000000
 20
30.000000
 11
14.000000
 21
32.000000
 39
0
 62
0
  0
LINE
  8
default
  6
CONTINUOUS
 10
15.000000
 20
33.000000
 11
17.000000
 21
35.000000
 39
0
 62
0
  0
LINE
  8
default
  6
CONTINUOUS
 10
18.000000
 20
36.000000
 11
20.000000
 21
38.000000
 39
0
 62
0
  0
LINE
  8
default
  6
CONTINUOUS
 10
21.000000
 20
39.000000
 11
23.000000
 21
41.000000
 39
0
 62
0
  0
LINE
  8
default
  6
CONTINUOUS
 10
24.000000
 20
42.000000
 11
26.000000
 21
44.000000
 39
0
 62
0
  0
LINE
  8
default
  6
CONTINUOUS
 10
27.000000
 20
45.000000
 11
29.000000
 21
47.000000
 39
0
 62
0
  0
LINE
  8
default
  6
CONTINUOUS
 10
30.000000
 20
48.000000
 11
32.000000
 21
50.000000
 39
0
 62
0
  0
LINE
  8
default
  6
CONTINUOUS
 10
33.000000
 20
51.000000
 11
35.000000
 21
53.000000
 39
0
 62
0
  0
LINE
  8
default
  6
CONTINUOUS
 10
36.000000
 20
54.000000
 11
38.000000
 21
56.000000
 39
0
 62
0
  0
LINE
  8
default
  6
CONTINUOUS
 10
39.000000
 20
57.000000
 11
41.000000
 21
59.000000
 39
0
 62
0
  0
LINE
  8
default
  6
CONTINUOUS
 10
42.000000
 20
60.000000
 11
44.000000
 21
62.000000
 39
0
 62
0
  0
LINE
  8
default
  6
CONTINUOUS
 10
45.000000
 20
63.000000
 11
47.000000
 21
65.000000
 39
0
 62
0
  0
LINE
  8
default
  6
CONTINUOUS
 10
48.000000
 20
66.000000
 11
50.000000
 21
68.000000
 39
0
 62
0
  0
LINE
  8
default
  6
CONTINUOUS
 10
51.000000
 20
69.000000
 11
53.000000
 21
71.000000
 39
0
 62
0
  0
LINE
  8
default
  6
CONTINUOUS
 10
54.000000
 20
72.000000
 11
56.000000
 21
74.000000
 39
0
 62
0
  0
LINE
  8
default
  6
CONTINUOUS
 10
57.000000
 20
75.000000
 11
59.000000
 21
77.000000
 39
0
 62
0
  0
LINE
  8
default
  6
CONTINUOUS
 10
60.000000
 20
78.000000
 11
62.000000
 21
80.000000
 39
0
 62
0
  0
LINE
  8
default
  6
CONTINUOUS
 10
63.000000
 20
81.000000
 11
65.000000
 21
83.000000
 39
0
 62
0
  0
LINE
  8
default
  6
CONTINUOUS
 10
66.000000
 20
84.000000
 11
68.000000
 21
86.000000
 39
0
 62
0
  0
LINE
  8
default
  6
CONTINUOUS
 10
69.000000
 20
87.000000
 11
71.000000
 21
89.000000
 39
0
 62
0
  0
LINE
  8
default
  6
CONTINUOUS
 10
72.000000
 20
90.000000
 11
74.000000
 21
92.000000
 39
0
 62
0
  0
LINE
  8
default
  6
CONTINUOUS
 10
75.000000
 20
93.000000
 11
77.000000
 21
95.000000
 39
0
 62
0
  0
LINE
  8
default
  6
CONTINUOUS
 10
78.000000
 20
96.000000
 11
80.000000
 21
98.000000
 39
0
 62
0
  0
LINE
  8
default
  6
CONTINUOUS
 10
0.000000
 20
22.000000
 11
2.000000
 21
24.000000
 39
0
 62
0
  0
LINE
  8
default
  6
CONTINUOUS
 10
3.000000
 20
25.000000
 11
5.000000
 21
27.000000
 39
0
 62
0
  0
LINE
  8
default
  6
CONTINUOUS
 10
6.000000
 20
28.000000
 11
8.000000
 21
30.000000
 39
0
 62
0
  0
LINE
  8
default
  6
CONTINUOUS
 10
9.000000
 20
31.000000
 11
11.000000
 21
33.000000
 39
0
 62
0
  0
LINE
  8
default
  6
CONTINUOUS
 10
12.000000
 20
34.000000
 11
14.000000
 21
36.000000
 39
0
 62
0
  0
LINE
  8
default
  6
CONTINUOUS
 10
15.000000
 20
37.000000
 11
17.000000
 21
39.000000
 39
0
 62
0
  0
LINE
  8
default
  6
CONTINUOUS
 10
18.000000
 20
40.000000
 11
20.000000
 21
42.000000
 39
0
 62
0
  0
LINE
  8
default
  6
CONTINUOUS
 10
21.000000
 20
43.000000
 11
23.000000
 21
45.000000
 39
0
 62
0
  0
LINE
  8
default
  6
CONTINUOUS
 10
24.000000
 20
46.000000
 11
26.000000
 21
48.000000
 39
0
 62
0
  0
LINE
  8
default
  6
CONTINUOUS
 10
27.000000
 20
49.000000
 11
29.000000
 21
51.000000
 39
0
 62
0
  0
LINE
  8
default
  6
CONTINUOUS
 10
30.000000
 20
52.000000
 11
32.000000
 21
54.000000
 39
0
 62
0
  0
LINE
  8
default
  6
CONTINUOUS
 10
33.000000
 20
55.000000
 11
35.000000
 21
57.000000
 39
0
 62
0
  0
LINE
  8
default
  6
CONTINUOUS
 10
36.000000
 20
58.000000
 11
38.000000
 21
60.000000
 39
0
 62
0
  0
LINE
  8
default
  6
CONTINUOUS
 10
39.000000
 20
61.000000
 11
41.000000
 21
63.000000
 39
0
 62
0
  0
LINE
  8
default
  6
CONTINUOUS
 10
42.000000
 20
64.000000
 11
44.000000
 21
66.000000
 39
0
 62
0
  0
LINE
  8
default
  6
CONTINUOUS
 10
45.000000
 20
67.000000
 11
47.000000
 21
69.000000
 39
0
 62
0
  0
LINE
  8
default
  6
CONTINUOUS
 10
48.000000
 20
70.000000
 11
50.000000
 21
72.000000
 39
0
 62
0
  0
LINE
  8
default
  6
CONTINUOUS
 10
51.000000
 20
73.000000
 11
53.000000
 21
75.000000
 39
0
 62
0
  0
LINE
  8
default
  6
CONTINUOUS
 10
54.000000
 20
76.000000
 11
56.000000
 21
78.000000
 39
0
 62
0
  0
LINE
  8
default
  6
CONTINUOUS
 10
57.000000
 20
79.000000
 11
59.000000
 21
81.000000
 39
0
 62
0
  0
LINE
  8
default
  6
CONTINUOUS
 10
60.000000
 20
82.000000
 11
62.000000
 21
84.000000
 39
0
 62
0
  0
LINE
  8
default
  6
CONTINUOUS
 10
63.000000
 20
85.000000
 11
65.000000
 21
87.000000
 39
0
 62
0
  0
LINE
  8
default
  6
CONTINUOUS
 10
66.000000
 20
88.000000
 11
68.000000
 21
90.000000
 39
0
 62
0
  0
LINE
  8
default
  6
CONTINUOUS
 10
69.000000
 20
91.000000
 11
71.000000
 21
93.000000
 39
0
 62
0
  0
LINE
  8
default
  6
CONTINUOUS
 10
72.000000
 20
94.000000
 11
74.000000
 21
96.000000
 39
0
 62
0
  0
LINE
  8
default
  6
CONTINUOUS
 10
75.000000
 20
97.000000
 11
77.000000
 21
99.000000
 39
0
 62
0
  0
LINE
  8
default
  6
CONTINUOUS
 10
0.000000
 20
26.000000
 11
2.000000
 21
28.000000
 39
0
 62
0
  0
LINE
  8
default
  6
CONTINUOUS
 10
3.000000
 20
29.000000
 11
5.000000
 21
31.000000
 39
0
 62
0
  0
LINE
  8
default
  6
CONTINUOUS
 10
6.000000
 20
32.000000
 11
8.000000
 21
34.000000
 39
0
 62
0
  0
LINE
  8
default
  6
CONTINUOUS
 10
9.000000
 20
35.000000
 11
11.000000
 21
37.000000
 39
0
 62
0
  0
LINE
  8
default
  6
CONTINUOUS
 10
12.000000
 20
38.000000
 11
14.000000
 21
40.000000
 39
0
 62
0
  0
LINE
  8
default
  6
CONTINUOUS
 10
15.000000
 20
41.000000
 11
17.000000
 21
43.000000
 39
0
 62
0
  0
LINE
  8
default
  6
CONTINUOUS
 10
18.000000
 20
44.000000
 11
20.000000
 21
46.000000
 39
0
 62
0
  0
LINE
  8
default
  6
CONTINUOUS
 10
21.000000
 20
47.000000
 11
23.000000
 21
49.000000
 39
0
 62
0
  0
LINE
  8
default
  6
CONTINUOUS
 10
24.000000
 20
50.000000
 11
26.000000
 21
52.000000
 39
0
 62
0
  0
LINE
  8
default
  6
CONTINUOUS
 10
27.000000
 20
53.000000
 11
29.000000
 21
55.000000
 39
0
 62
0
  0
LINE
  8
default
  6
CONTINUOUS
 10
30.000000
 20
56.000000
 11
32.000000
 21
58.000000
 39
0
 62
0
  0
LINE
  8
default
  6
CONTINUOUS
 10
33.000000
 20
59.000000
 11
35.000000
 21
61.000000
 39
0
 62
0
  0
LINE
  8
default
  6
CONTINUOUS
 10
36.000000
 20
62.000000
 11
38.000000
 21
64.000000
 39
0
 62
0
  0
LINE
  8
default
  6
CONTINUOUS
 10
39.000000
 20
65.000000
 11
41.000000
 21
67.000000
 39
0
 62
0
  0
LINE
  8
default
  6
CONTINUOUS
 10
42.000000
 20
68.000000
 11
44.000000
 21
70.000000
 39
0
 62
0
  0
LINE
  8
default
  6
CONTINUOUS
 10
45.000000
 20
71.000000
 11
47.000000
 21
73.000000
 39
0
 62
0
  0
LINE
  8
default
  6
CONTINUOUS
 10
48.000000
 20
74.000000
 11
50.000000
 21
76.000000
 39
0
 62
0
  0
LINE
  8
default
  6
CONTINUOUS
 10
51.000000
 20
77.000000
 11
53.000000
 21
79.000000
 39
0
 62
0
  0
LINE
  8
default
  6
CONTINUOUS
 10
54.000000
 20
80.000000
 11
56.000000
 21
82.000000
 39
0
 62
0
  0
LINE
  8
default
  6
CONTINUOUS
 10
57.000000
 20
83.000000
 11
59.000000
 21
85.000000
 39
0
 62
0
  0
LINE
  8
default
  6
CONTINUOUS
 10
60.000000
 20
86.000000
 11
62.000000
 21
88.000000
 39
0
 62
0
  0
LINE
  8
default
  6
CONTINUOUS
 10
63.000000
 20
89.000000
 11
65.000000
 21
91.000000
 39
0
 62
0
  0
LINE
  8
default
  6
CONTINUOUS
 10
66.000000
 20
92.000000
 11
68.000000
 21
94.000000
 39
0
 62
0
  0
LINE
  8
default
  6
CONTINUOUS
 10
69.000000
 20
95.000000
 11
71.000000
 21
97.000000
 39
0
 62
0
  0
LINE
  8
default
  6
CONTINUOUS
 10
72.000000
 20
98.000000
 11
74.000000
 21
100.000000
 39
0
 62
0
  0
LINE
  8
default
  6
CONTINUOUS
 10
0.000000
 20
30.000000
 11
2.000000
 21
32.000000
 39
0
 62
0
  0
LINE
  8
default
  6
CONTINUOUS
 10
3.000000
 20
33.000000
 11
5.000000
 21
35.000000
 39
0
 62
0
  0
LINE
  8
default
  6
CONTINUOUS
 10
6.000000
 20
36.000000
 11
8.000000
 21
38.000000
 39
0
 62
0
  0
LINE
  8
default
  6
CONTINUOUS
 10
9.000000
 20
39.000000
 11
11.000000
 21
41.000000
 39
0
 62
0
  0
LINE
  8
default
  6
CONTINUOUS
 10
12.000000
 20
42.000000
 11
14.000000
 21
44.000000
 39
0
 62
0
  0
LINE
  8
default
  6
CONTINUOUS
 10
15.000000
 20
45.000000
 11
17.000000
 21
47.000000
 39
0
 62
0
  0
LINE
  8
default
  6
CONTINUOUS
 10
18.000000
 20
48.000000
 11
20.000000
 21
50.000000
 39
0
 62
0
  0
LINE
  8
default
  6
CONTINUOUS
 10
21.000000
 20
51.000000
 11
23.000000
 21
53.000000
 39
0
 62
0
  0
LINE
  8
default
  6
CONTINUOUS
 10
24.000000
 20
54.000000
 11
26.000000
 21
56.000000
 39
0
 62
0
  0
LINE
  8
default
  6
CONTINUOUS
 10
27.000000
 20
57.000000
 11
29.000000
 21
59.000000
 39
0
 62
0
  0
LINE
  8
default
  6
CONTINUOUS
 10
30.000000
 20
60.000000
 11
32.000000
 21
62.000000
 39
0
 62
0
  0
LINE
  8
default
  6
CONTINUOUS
 10
33.000000
 20
63.000000
 11
35.000000
 21
65.000000
 39
0
 62
0
  0
LINE
  8
default
  6
CONTINUOUS
 10
36.000000
 20
66.000000
 11
38.000000
 21
68.000000
 39
0
 62
0
  0
LINE
  8
default
  6
CONTINUOUS
 10
39.000000
 20
69.000000
 11
41.000000
 21
71.000000
 39
0
 62
0
  0
LINE
  8
default
  6
CONTINUOUS
 10
42.000000
 20
72.000000
 11
44.000000
 21
74.000000
 39
0
 62
0
  0
LINE
  8
default
  6
CONTINUOUS
 10
45.000000
 20
75.000000
 11
47.000000
 21
77.000000
 39
0
 62
0
  0
LINE
  8
default
  6
CONTINUOUS
 10
48.000000
 20
78.000000
 11
50.000000
 21
80.000000
 39
0
 62
0
  0
LINE
  8
default
  6
CONTINUOUS
 10
51.000000
 20
81.000000
 11
53.000000
 21
83.000000
 39
0
 62
0
  0
LINE
  8
default
  6
CONTINUOUS
 10
54.000000
 20
84.000000
 11
56.000000
 21
86.000000
 39
0
 62
0
  0
LINE
  8
default
  6
CONTINUOUS
 10
57.000000
 20
87.000000
 11
59.000000
 21
89.000000
 39
0
 62
0
  0
LINE
  8
default
  6
CONTINUOUS
 10
60.000000
 20
90.000000
 11
62.000000
 21
92.000000
 39
0
 62
0
  0
LINE
  8
default
  6
CONTINUOUS
 10
63.000000
 20
93.000000
 11
65.000000
 21
95.000000
 39
0
 62
0
  0
LINE
  8
default
  6
CONTINUOUS
 10
66.000000
 20
96.000000
 11
68.000000
 21
98.000000
 39
0
 62
0
  0
LINE
  8
default
  6
CONTINUOUS
 10
0.000000
 20
34.000000
 11
2.000000
 21
36.000000
 39
0
 62
0
  0
LINE
  8
default
  6
CONTINUOUS
 10
3.000000
 20
37.000000
 11
5.000000
 21
39.000000
 39
0
 62
0
  0
LINE
  8
default
  6
CONTINUOUS
 10
6.000000
 20
40.000000
 11
8.000000
 21
42.000000
 39
0
 62
0
  0
LINE
  8
default
  6
CONTINUOUS
 10
9.000000
 20
43.000000
 11
11.000000
 21
45.000000
 39
0
 62
0
  0
LINE
  8
default
  6
CONTINUOUS
 10
12.000000
 20
46.000000
 11
14.000000
 21
48.000000
 39
0
 62
0
  0
LINE
  8
default
  6
CONTINUOUS
 10
15.000000
 20
49.000000
 11
17.000000
 21
51.000000
 39
0
 62
0
  0
LINE
  8
default
  6
CONTINUOUS
 10
18.000000
 20
52.000000
 11
20.000000
 21
54.000000
 39
0
 62
0
  0
LINE
  8
default
  6
CONTINUOUS
 10
21.000000
 20
55.000000
 11
23.000000
 21
57.000000
 39
0
 62
0
  0
LINE
  8
default
  6
CONTINUOUS
 10
24.000000
 20
58.000000
 11
26.000000
 21
60.000000
 39
0
 62
0
  0
LINE
  8
default
  6
CONTINUOUS
 10
27.000000
 20
61.000000
 11
29.000000
 21
63.000000
 39
0
 62
0
  0
LINE
  8
default
  6
CONTINUOUS
 10
30.000000
 20
64.000000
 11
32.000000
 21
66.000000
 39
0
 62
0
  0
LINE
  8
default
  6
CONTINUOUS
 10
33.000000
 20
67.000000
 11
35.000000
 21
69.000000
 39
0
 62
0
  0
LINE
  8
default
  6
CONTINUOUS
 10
36.000000
 20
70.000000
 11
38.000000
 21
72.000000
 39
0
 62
0
  0
LINE
  8
default
  6
CONTINUOUS
 10
39.000000
 20
73.000000
 11
41.000000
 21
75.000000
 39
0
 62
0
  0
LINE
  8
default
  6
CONTINUOUS
 10
42.000000
 20
76.000000
 11
44.000000
 21
78.000000
 39
0
 62
0
  0
LINE
  8
default
  6
CONTINUOUS
 10
45.000000
 20
79.000000
 11
47.000000
 21
81.000000
 39
0
 62
0
  0
LINE
  8
default
  6
CONTINUOUS
 10
48.000000
 20
82.000000
 11
50.000000
 21
84.000000
 39
0
 62
0
  0
LINE
  8
default
  6
CONTINUOUS
 10
51.000000
 20
85.000000
 11
53.000000
 21
87.000000
 39
0
 62
0
  0
LINE
  8
default
  6
CONTINUOUS
 10
54.000000
 20
88.000000
 11
56.000000
 21
90.000000
 39
0
 62
0
  0
LINE
  8
default
  6
CONTINUOUS
 10
57.000000
 20
91.000000
 11
59.000000
 21
93.000000
 39
0
 62
0
  0
LINE
  8
default
  6
CONTINUOUS
 10
60.000000
 20
94.000000
 11
62.000000
 21
96.000000
 39
0
 62
0
  0
LINE
  8
default
  6
CONTINUOUS
 10
63.000000
 20
97.000000
 11
65.000000
 21
99.000000
 39
0
 62
0
  0
LINE
  8
default
  6
CONTINUOUS
 10
0.000000
 20
38.000000
 11
2.000000
 21
40.000000
 39
0
 62
0
  0
LINE
  8
default
  6
CONTINUOUS
 10
3.000000
 20
41.000000
 11
5.000000
 21
43.000000
 39
0
 62
0
  0
LINE
  8
default
  6
CONTINUOUS
 10
6.000000
 20
44.000000
 11
8.000000
 21
46.000000
 39
0
 62
0
  0
LINE
  8
default
  6
CONTINUOUS
 10
9.000000
 20
47.000000
 11
11.000000
 21
49.000000
 39
0
 62
0
  0
LINE
  8
default
  6
CONTINUOUS
 10
12.000000
 20
50.000000
 11
14.000000
 21
52.000000
 39
0
 62
0
  0
LINE
  8
default
  6
CONTINUOUS
 10
15.000000
 20
53.000000
 11
17.000000
 21
55.000000
 39
0
 62
0
  0
LINE
  8
default
  6
CONTINUOUS
 10
18.000000
 20
56.000000
 11
20.000000
 21
58.000000
 39
0
 62
0
  0
LINE
  8
default
  6
CONTINUOUS
 10
21.000000
 20
59.000000
 11
23.000000
 21
61.000000
 39
0
 62
0
  0
LINE
  8
default
  6
CONTINUOUS
 10
24.000000
 20
62.000000
 11
26.000000
 21
64.000000
 39
0
 62
0
  0
LINE
  8
default
  6
CONTINUOUS
 10
27.000000
 20
65.000000
 11
29.000000
 21
67.000000
 39
0
 62
0
  0
LINE
  8
default
  6
CONTINUOUS
 10
30.000000
 20
68.000000
 11
32.000000
 21
70.000000
 39
0
 62
0
  0
LINE
  8
default
  6
CONTINUOUS
 10
33.000000
 20
71.000000
 11
35.000000
 21
73.000000
 39
0
 62
0
  0
LINE
  8
default
  6
CONTINUOUS
 10
36.000000
 20
74.000000
 11
38.000000
 21
76.000000
 39
0
 62
0
  0
LINE
  8
default
  6
CONTINUOUS
 10
39.000000
 20
77.000000
 11
41.000000
 21
79.000000
 39
0
 62
0
  0
LINE
  8
default
  6
CONTINUOUS
 10
42.000000
 20
80.000000
 11
44.000000
 21
82.000000
 39
0
 62
0
  0
LINE
  8
default
  6
CONTINUOUS
 10
45.000000
 20
83.000000
 11
47.000000
 21
85.000000
 39
0
 62
0
  0
LINE
  8
default
  6
CONTINUOUS
 10
48.000000
 20
86.000000
 11
50.000000
 21
88.000000
 39
0
 62
0
  0
LINE
  8
default
  6
CONTINUOUS
 10
51.000000
 20
89.000000
 11
53.000000
 21
91.000000
 39
0
 62
0
  0
LINE
  8
default
  6
CONTINUOUS
 10
54.000000
 20
92.000000
 11
56.000000
 21
94.000000
 39
0
 62
0
  0
LINE
  8
default
  6
CONTINUOUS
 10
57.000000
 20
95.000000
 11
59.000000
 21
97.000000
 39
0
 62
0
  0
LINE
  8
default
  6
CONTINUOUS
 10
0.000000
 20
42.000000
 11
2.000000
 21
44.000000
 39
0
 62
0
  0
LINE
  8
default
  6
CONTINUOUS
 10
3.000000
 20
45.000000
 11
5.000000
 21
47.000000
 39
0
 62
0
  0
LINE
  8
default
  6
CONTINUOUS
 10
6.000000
 20
48.000000
 11
8.000000
 21
50.000000
 39
0
 62
0
  0
LINE
  8
default
  6
CONTINUOUS
 10
9.000000
 20
51.000000
 11
11.000000
 21
53.000000
 39
0
 62
0
  0
LINE
  8
default
  6
CONTINUOUS
 10
12.000000
 20
54.000000
 11
14.000000
 21
56.000000
 39
0
 62
0
  0
LINE
  8
default
  6
CONTINUOUS
 10
15.000000
 20
57.000000
 11
17.000000
 21
59.000000
 39
0
 62
0
  0
LINE
  8
default
  6
CONTINUOUS
 10
18.000000
 20
60.000000
 11
20.000000
 21
62.000000
 39
0
 62
0
  0
LINE
  8
default
  6
CONTINUOUS
 10
21.000000
 20
63.000000
 11
23.000000
 21
65.000000
 39
0
 62
0
  0
LINE
  8
default
  6
CONTINUOUS
 10
24.000000
 20
66.000000
 11
26.000000
 21
68.000000
 39
0
 62
0
  0
LINE
  8
default
  6
CONTINUOUS
 10
27.000000
 20
69.000000
 11
29.000000
 21
71.000000
 39
0
 62
0
  0
LINE
  8
default
  6
CONTINUOUS
 10
30.000000
 20
72.000000
 11
32.000000
 21
74.000000
 39
0
 62
0
  0
LINE
  8
default
  6
CONTINUOUS
 10
33.000000
 20
75.000000
 11
35.000000
 21
77.000000
 39
0
 62
0
  0
LINE
  8
default
  6
CONTINUOUS
 10
36.000000
 20
78.000000
 11
38.000000
 21
80.000000
 39
0
 62
0
  0
LINE
  8
default
  6
CONTINUOUS
 10
39.000000
 20
81.000000
 11
41.000000
 21
83.000000
 39
0
 62
0
  0
LINE
  8
default
  6
CONTINUOUS
 10
42.000000
 20
84.000000
 11
44.000000
 21
86.000000
 39
0
 62
0
  0
LINE
  8
default
  6
CONTINUOUS
 10
45.000000
 20
87.000000
 11
47.000000
 21
89.000000
 39
0
 62
0
  0
LINE
  8
default
  6
CONTINUOUS
 10
48.000000
 20
90.000000
 11
50.000000
 21
92.000000
 39
0
 62
0
  0
LINE
  8
default
  6
CONTINUOUS
 10
51.000000
 20
93.000000
 11
53.000000
 21
95.000000
 39
0
 62
0
  0
LINE
  8
default
  6
CONTINUOUS
 10
54.000000
 20
96.000000
 11
56.000000
 21
98.000000
 39
0
 62
0
  0
LINE
  8
default
  6
CONTINUOUS
 10
0.000000
 20
46.000000
 11
2.000000
 21
48.000000
 39
0
 62
0
  0
LINE
  8
default
  6
CONTINUOUS
 10
3.000000
 20
49.000000
 11
5.000000
 21
51.000000
 39
0
 62
0
  0
LINE
  8
default
  6
CONTINUOUS
 10
6.000000
 20
52.000000
 11
8.000000
 21
54.000000
 39
0
 62
0
  0
LINE
  8
default
  6
CONTINUOUS
 10
9.000000
 20
55.000000
 11
11.000000
 21
57.000000
 39
0
 62
0
  0
LINE
  8
default
  6
CONTINUOUS
 10
12.000000
 20
58.000000
 11
14.000000
 21
60.000000
 39
0
 62
0
  0
LINE
  8
default
  6
CONTINUOUS
 10
15.000000
 20
61.000000
 11
17.000000
 21
63.000000
 39
0
 62
0
  0
LINE
  8
default
  6
CONTINUOUS
 10
18.000000
 20
64.000000
 11
20.000000
 21
66.000000
 39
0
 62
0
  0
LINE
  8
default
  6
CONTINUOUS
 10
21.000000
 20
67.000000
 11
23.000000
 21
69.000000
 39
0
 62
0
  0
LINE
  8
default
  6
CONTINUOUS
 10
24.000000
 20
70.000000
 11
26.000000
 21
72.000000
 39
0
 62
0
  0
LINE
  8
default
  6
CONTINUOUS
 10
27.000000
 20
73.000000
 11
29.000000
 21
75.000000
 39
0
 62
0
  0
LINE
  8
default
  6
CONTINUOUS
 10
30.000000
 20
76.000000
 11
32.000000
 21
78.000000
 39
0
 62
0
  0
LINE
  8
default
  6
CONTINUOUS
 10
33.000000
 20
79.000000
 11
35.000000
 21
81.000000
 39
0
 62
0
  0
LINE
  8
default
  6
CONTINUOUS
 10
36.000000
 20
82.000000
 11
38.000000
 21
84.000000
 39
0
 62
0
  0
LINE
  8
default
  6
CONTINUOUS
 10
39.000000
 20
85.000000
 11
41.000000
 21
87.000000
 39
0
 62
0
  0
LINE
  8
default
  6
CONTINUOUS
 10
42.000000
 20
88.000000
 11
44.000000
 21
90.000000
 39
0
 62
0
  0
LINE
  8
default
  6
CONTINUOUS
 10
45.000000
 20
91.000000
 11
47.000000
 21
93.000000
 39
0
 62
0
  0
LINE
  8
default
  6
CONTINUOUS
 10
48.000000
 20
94.000000
 11
50.000000
 21
96.000000
 39
0
 62
0
  0
LINE
  8
default
  6
CONTINUOUS
 10
51.000000
 20
97.000000
 11
53.000000
 21
99.000000
 39
0
 62
0
  0
LINE
  8
default
  6
CONTINUOUS
 10
0.000000
 20
50.000000
 11
2.000000
 21
52.000000
 39
0
 62
0
  0
LINE
  8
default
  6
CONTINUOUS
 10
3.000000
 20
53.000000
 11
5.000000
 21
55.000000
 39
0
 62
0
  0
LINE
  8
default
  6
CONTINUOUS
 10
6.000000
 20
56.000000
 11
8.000000
 21
58.000000
 39
0
 62
0
  0
LINE
  8
default
  6
CONTINUOUS
 10
9.000000
 20
59.000000
 11
11.000000
 21
61.000000
 39
0
 62
0
  0
LINE
  8
default
  6
CONTINUOUS
 10
12.000000
 20
62.000000
 11
14.000000
 21
64.000000
 39
0
 62
0
  0
LINE
  8
default
  6
CONTINUOUS
 10
15.000000
 20
65.000000
 11
17.000000
 21
67.000000
 39
0
 62
0
  0
LINE
  8
default
  6
CONTINUOUS
 10
18.000000
 20
68.000000
 11
20.000000
 21
70.000000
 39
0
 62
0
  0
LINE
  8
default
  6
CONTINUOUS
 10
21.000000
 20
71.000000
 11
23.000000
 21
73.000000
 39
0
 62
0
  0
LINE
  8
default
  6
CONTINUOUS
 10
24.000000
 20
74.000000
 11
26.000000
 21
76.000000
 39
0
 62
0
  0
LINE
  8
default
  6
CONTINUOUS
 10
27.000000
 20
77.000000
 11
29.000000
 21
79.000000
 39
0
 62
0
  0
LINE
  8
default
  6
CONTINUOUS
 10
30.000000
 20
80.000000
 11
32.000000
 21
82.000000
 39
0
 62
0
  0
LINE
  8
default
  6
CONTINUOUS
 10
33.000000
 20
83.000000
 11
35.000000
 21
85.000000
 39
0
 62
0
  0
LINE
  8
default
  6
CONTINUOUS
 10
36.000000
 20
86.000000
 11
38.000000
 21
88.000000
 39
0
 62
0
  0
LINE
  8
default
  6
CONTINUOUS
 10
39.000000
 20
89.000000
 11
41.000000
 21
91.000000
 39
0
 62
0
  0
LINE
  8
default
  6
CONTINUOUS
 10
42.000000
 20
92.000000
 11
44.000000
 21
94.000000
 39
0
 62
0
  0
LINE
  8
default
  6
CONTINUOUS
 10
45.000000
 20
95.000000
 11
47.000000
 21
97.000000
 39
0
 62
0
  0
LINE
  8
default
  6
CONTINUOUS
 10
48.000000
 20
98.000000
 11
50.000000
 21
100.000000
 39
0
 62
0
  0
LINE
  8
default
  6
CONTINUOUS
 10
0.000000
 20
54.000000
 11
2.000000
 21
56.000000
 39
0
 62
0
  0
LINE
  8
default
  6
CONTINUOUS
 10
3.000000
 20
57.000000
 11
5.000000
 21
59.000000
 39
0
 62
0
  0
LINE
  8
default
  6
CONTINUOUS
 10
6.000000
 20
60.000000
 11
8.000000
 21
62.000000
 39
0
 62
0
  0
LINE
  8
default
  6
CONTINUOUS
 10
9.000000
 20
63.000000
 11
11.000000
 21
65.000000
 39
0
 62
0
  0
LINE
  8
default
  6
CONTINUOUS
 10
12.000000
 20
66.000000
 11
14.000000
 21
68.000000
 39
0
 62
0
  0
LINE
  8
default
  6
CONTINUOUS
 10
15.000000
 20
69.000000
 11
17.000000
 21
71.000000
 39
0
 62
0
  0
LINE
  8
default
  6
CONTINUOUS
 10
18.000000
 20
72.000000
 11
20.000000
 21
74.000000
 39
0
 62
0
  0
LINE
  8
default
  6
CONTINUOUS
 10
21.000000
 20
75.000000
 11
23.000000
 21
77.000000
 39
0
 62
0
  0
LINE
  8
default
  6
CONTINUOUS
 10
24.000000
 20
78.000000
 11
26.000000
 21
80.000000
 39
0
 62
0
  0
LINE
  8
default
  6
CONTINUOUS
 10
27.000000
 20
81.000000
 11
29.000000
 21
83.000000
 39
0
 62
0
  0
LINE
  8
default
  6
CONTINUOUS
 10
30.000000
 20
84.000000
 11
32.000000
 21
86.000000
 39
0
 62
0
  0
LINE
  8
default
  6
CONTINUOUS
 10
33.000000
 20
87.000000
 11
35.000000
 21
89.000000
 39
0
 62
0
  0
LINE
  8
default
  6
CONTINUOUS
 10
36.000000
 20
90.000000
 11
38.000000
 21
92.000000
 39
0
 62
0
  0
LINE
  8
default
  6
CONTINUOUS
 10
39.000000
 20
93.000000
 11
41.000000
 21
95.000000
 39
0
 62
0
  0
LINE
  8
default
  6
CONTINUOUS
 10
42.000000
 20
96.000000
 11
44.000000
 21
98.000000
 39
0
 62
0
  0
LINE
  8
default
  6
CONTINUOUS
 10
0.000000
 20
58.000000
 11
2.000000
 21
60.000000
 39
0
 62
0
  0
LINE
  8
default
  6
CONTINUOUS
 10
3.000000
 20
61.000000
 11
5.000000
 21
63.000000
 39
0
 62
0
  0
LINE
  8
default
  6
CONTINUOUS
 10
6.000000
 20
64.000000
 11
8.000000
 21
66.000000
 39
0
 62
0
  0
LINE
  8
default
  6
CONTINUOUS
 10
9.000000
 20
67.000000
 11
11.000000
 21
69.000000
 39
0
 62
0
  0
LINE
  8
default
  6
CONTINUOUS
 10
12.000000
 20
70.000000
 11
14.000000
 21
72.000000
 39
0
 62
0
  0
LINE
  8
default
  6
CONTINUOUS
 10
15.000000
 20
73.000000
 11
17.000000
 21
75.000000
 39
0
 62
0
  0
LINE
  8
default
  6
CONTINUOUS
 10
18.000000
 20
76.000000
 11
20.000000
 21
78.000000
 39
0
 62
0
  0
LINE
  8
default
  6
CONTINUOUS
 10
21.000000
 20
79.000000
 11
23.000000
 21
81.000000
 39
0
 62
0
  0
LINE
  8
default
  6
CONTINUOUS
 10
24.000000
 20
82.000000
 11
26.000000
 21
84.000000
 39
0
 62
0
  0
LINE
  8
default
  6
CONTINUOUS
 10
27.000000
 20
85.000000
 11
29.000000
 21
87.000000
 39
0
 62
0
  0
LINE
  8
default
  6
CONTINUOUS
 10
30.000000
 20
88.000000
 11
32.000000
 21
90.000000
 39
0
 62
0
  0
LINE
  8
default
  6
CONTINUOUS
 10
33.000000
 20
91.000000
 11
35.000000
 21
93.000000
 39
0
 62
0
  0
LINE
  8
default
  6
CONTINUOUS
 10
36.000000
 20
94.000000
 11
38.000000
 21
96.000000
 39
0
 62
0
  0
LINE
  8
default
  6
CONTINUOUS
 10
39.000000
 20
97.000000
 11
41.000000
 21
99.000000
 39
0
 62
0
  0
LINE
  8
default
  6
CONTINUOUS
 10
0.000000
 20
62.000000
 11
2.000000
 21
64.000000
 39
0
 62
0
  0
LINE
  8
default
  6
CONTINUOUS
 10
3.000000
 20
65.000000
 11
5.000000
 21
67.000000
 39
0
 62
0
  0
LINE
  8
default
  6
CONTINUOUS
 10
6.000000
 20
68.000000
 11
8.000000
 21
70.000000
 39
0
 62
0
  0
LINE
  8
default
  6
CONTINUOUS
 10
9.000000
 20
71.000000
 11
11.000000
 21
73.000000
 39
0
 62
0
  0
LINE
  8
default
  6
CONTINUOUS
 10
12.000000
 20
74.000000
 11
14.000000
 21
76.000000
 39
0
 62
0
  0
LINE
  8
default
  6
CONTINUOUS
 10
15.000000
 20
77.000000
 11
17.000000
 21
79.000000
 39
0
 62
0
  0
LINE
  8
default
  6
CONTINUOUS
 10
18.000000
 20
80.000000
 11
20.000000
 21
82.000000
 39
0
 62
0
  0
LINE
  8
default
  6
CONTINUOUS
 10
21.000000
 20
83.000000
 11
23.000000
 21
85.000000
 39
0
 62
0
  0
LINE
  8
default
  6
CONTINUOUS
 10
24.000000
 20
86.000000
 11
26.000000
 21
88.000000
 39
0
 62
0
  0
LINE
  8
default
  6
CONTINUOUS
 10
27.000000
 20
89.000000
 11
29.000000
 21
91.000000
 39
0
 62
0
  0
LINE
  8
default
  6
CONTINUOUS
 10
30.000000
 20
92.000000
 11
32.000000
 21
94.000000
 39
0
 62
0
  0
LINE
  8
default
  6
CONTINUOUS
 10
33.000000
 20
95.000000
 11
35.000000
 21
97.000000
 39
0
 62
0
  0
LINE
  8
default
  6
CONTINUOUS
 10
36.000000
 20
98.000000
 11
38.000000
 21
100.000000
 39
0
 62
0
  0
LINE
  8
default
  6
CONTINUOUS
 10
0.000000
 20
66.000000
 11
2.000000
 21
68.000000
 39
0
 62
0
  0
LINE
  8
default
  6
CONTINUOUS
 10
3.000000
 20
69.000000
 11
5.000000
 21
71.000000
 39
0
 62
0
  0
LINE
  8
default
  6
CONTINUOUS
 10
6.000000
 20
72.000000
 11
8.000000
 21
74.000000
 39
0
 62
0
  0
LINE
  8
default
  6
CONTINUOUS
 10
9.000000
 20
75.000000
 11
11.000000
 21
77.000000
 39
0
 62
0
  0
LINE
  8
default
  6
CONTINUOUS
 10
12.000000
 20
78.000000
 11
14.000000
 21
80.000000
 39
0
 62
0
  0
LINE
  8
default
  6
CONTINUOUS
 10
15.000000
 20
81.000000
 11
17.000000
 21
83.000000
 39
0
 62
0
  0
LINE
  8
default
  6
CONTINUOUS
 10
18.000000
 20
84.000000
 11
20.000000
 21
86.000000
 39
0
 62
0
  0
LINE
  8
default
  6
CONTINUOUS
 10
21.000000
 20
87.000000
 11
23.000000
 21
89.000000
 39
0
 62
0
  0
LINE
  8
default
  6
CONTINUOUS
 10
24.000000
 20
90.000000
 11
26.000000
 21
92.000000
 39
0
 62
0
  0
LINE
  8
default
  6
CONTINUOUS
 10
27.000000
 20
93.000000
 11
29.000000
 21
95.000000
 39
0
 62
0
  0
LINE
  8
default
  6
CONTINUOUS
 10
30.000000
 20
96.000000
 11
32.000000
 21
98.000000
 39
0
 62
0
  0
LINE
  8
default
  6
CONTINUOUS
 10
0.000000
 20
70.000000
 11
2.000000
 21
72.000000
 39
0
 62
0
  0
LINE
  8
default
  6
CONTINUOUS
 10
3.000000
 20
73.000000
 11
5.000000
 21
75.000000
 39
0
 62
0
  0
LINE
  8
default
  6
CONTINUOUS
 10
6.000000
 20
76.000000
 11
8.000000
 21
78.000000
 39
0
 62
0
  0
LINE
  8
default
  6
CONTINUOUS
 10
9.000000
 20
79.000000
 11
11.000000
 21
81.000000
 39
0
 62
0
  0
LINE
  8
default
  6
CONTINUOUS
 10
12.000000
 20
82.000000
 11
14.000000
 21
84.000000
 39
0
 62
0
  0
LINE
  8
default
  6
CONTINUOUS
 10
15.000000
 20
85.000000
 11
17.000000
 21
87.000000
 39
0
 62
0
  0
LINE
  8
default
  6
CONTINUOUS
 10
18.000000
 20
88.000000
 11
20.000000
 21
90.000000
 39
0
 62
0
  0
LINE
  8
default
  6
CONTINUOUS
 10
21.000000
 20
91.000000
 11
23.000000
 21
93.000000
 39
0
 62
0
  0
LINE
  8
default
  6
CONTINUOUS
 10
24.000000
 20
94.000000
 11
26.000000
 21
96.000000
 39
0
 62
0
  0
LINE
  8
default
  6
CONTINUOUS
 10
27.000000
 20
97.000000
 11
29.000000
 21
99.000000
 39
0
 62
0
  0
LINE
  8
default
  6
CONTINUOUS
 10
0.000000
 20
74.000000
 11
2.000000
 21
76.000000
 39
0
 62
0
  0
LINE
  8
default
  6
CONTINUOUS
 10
3.000000
 20
77.000000
 11
5.000000
 21
79.000000
 39
0
 62
0
  0
LINE
  8
default
  6
CONTINUOUS
 10
6.000000
 20
80.000000
 11
8.000000
 21
82.000000
 39
0
 62
0
  0
LINE
  8
default
  6
CONTINUOUS
 10
9.000000
 20
83.000000
 11
11.000000
 21
85.000000
 39
0
 62
0
  0
LINE
  8
default
  6
CONTINUOUS
 10
12.000000
 20
86.000000
 11
14.000000
 21
88.000000
 39
0
 62
0
  0
LINE
  8
default
  6
CONTINUOUS
 10
15.000000
 20
89.000000
 11
17.000000
 21
91.000000
 39
0
 62
0
  0
LINE
  8
default
  6
CONTINUOUS
 10
18.000000
 20
92.000000
 11
20.000000
 21
94.000000
 39
0
 62
0
  0
LINE
  8
default
  6
CONTINUOUS
 10
21.000000
 20
95.000000
 11
23.000000
 21
97.000000
 39
0
 62
0
  0
LINE
  8
default
  6
CONTINUOUS
 10
24.000000
 20
98.000000
 11
26.000000
 21
100.000000
 39
0
 62
0
  0
LINE
  8
default
  6
CONTINUOUS
 10
0.000000
 20
78.000000
 11
2.000000
 21
80.000000
 39
0
 62
0
  0
LINE
  8
default
  6
CONTINUOUS
 10
3.000000
 20
81.000000
 11
5.000000
 21
83.000000
 39
0
 62
0
  0
LINE
  8
default
  6
CONTINUOUS
 10
6.000000
 20
84.000000
 11
8.000000
 21
86.000000
 39
0
 62
0
  0
LINE
  8
default
  6
CONTINUOUS
 10
9.000000
 20
87.000000
 11
11.000000
 21
89.000000
 39
0
 62
0
  0
LINE
  8
default
  6
CONTINUOUS
 10
12.000000
 20
90.000000
 11
14.000000
 21
92.000000
 39
0
 62
0
  0
LINE
  8
default
  6
CONTINUOUS
 10
15.000000
 20
93.000000
 11
17.000000
 21
95.000000
 39
0
 62
0
  0
LINE
  8
default
  6
CONTINUOUS
 10
18.000000
 20
96.000000
 11
20.000000
 21
98.000000
 39
0
 62
0
  0
LINE
  8
default
  6
CONTINUOUS
 10
0.000000
 20
82.000000
 11
2.000000
 21
84.000000
 39
0
 62
0
  0
LINE
  8
default
  6
CONTINUOUS
 10
3.000000
 20
85.000000
 11
5.000000
 21
87.000000
 39
0
 62
0
  0
LINE
  8
default
  6
CONTINUOUS
 10
6.000000
 20
88.000000
 11
8.000000
 21
90.000000
 39
0
 62
0
  0
LINE
  8
default
  6
CONTINUOUS
 10
9.000000
 20
91.000000
 11
11.000000
 21
93.000000
 39
0
 62
0
  0
LINE
  8
default
  6
CONTINUOUS
 10
12.000000
 20
94.000000
 11
14.000000
 21
96.000000
 39
0
 62
0
  0
LINE
  8
default
  6
CONTINUOUS
 10
15.000000
 20
97.000000
 11
17.000000
 21
99.000000
 39
0
 62
0
  0
LINE
  8
default
  6
CONTINUOUS
 10
0.000000
 20
86.000000
 11
2.000000
 21
88.000000
 39
0
 62
0
  0
LINE
  8
default
  6
CONTINUOUS
 10
3.000000
 20
89.000000
 11
5.000000
 21
91.000000
 39
0
 62
0
  0
LINE
  8
default
  6
CONTINUOUS
 10
6.000000
 20
92.000000
 11
8.000000
 21
94.000000
 39
0
 62
0
  0
LINE
  8
default
  6
CONTINUOUS
 10
9.000000
 20
95.000000
 11
11.000000
 21
97.000000
 39
0
 62
0
  0
LINE
  8
default
  6
CONTINUOUS
 10
12.000000
 20
98.000000
 11
14.000000
 21
100.000000
 39
0
 62
0
  0
LINE
  8
default
  6
CONTINUOUS
 10
0.000000
 20
90.000000
 11
2.000000
 21
92.000000
 39
0
 62
0
  0
LINE
  8
default
  6
CONTINUOUS
 10
3.000000
 20
93.000000
 11
5.000000
 21
95.000000
 39
0
 62
0
  0
LINE
  8
default
  6
CONTINUOUS
 10
6.000000
 20
96.000000
 11
8.000000
 21
98.000000
 39
0
 62
0
  0
LINE
  8
default
  6
CONTINUOUS
 10
0.000000
 20
94.000000
 11
2.000000
 21
96.000000
 39
0
 62
0
  0
LINE
  8
default
  6
CONTINUOUS
 10
3.000000
 20
97.000000
 11
5.000000
 21
99.000000
 39
0
 62
0
  0
LINE
  8
default
  6
CONTINUOUS
 10
0.000000
 20
98.000000
 11
2.000000
 21
100.000000
 39
0
 62
0
  0
LINE
  8
default
  6
CONTINUOUS
 10
0.000000
 20
4.000000
 11
96.000000
 21
100.000000
 39
0
 62
0
  0
LINE
  8
default
  6
CONTINUOUS
 10
93.000000
 20
99.000000
 11
94.000000
 21
100.000000
 39
0
 62
0
  0
LINE
  8
default
  6
CONTINUOUS
 10
0.000000
 20
8.000000
 11
92.000000
 21
100.000000
 39
0
 62
0
  0
LINE
  8
default
  6
CONTINUOUS
 10
0.000000
 20
12.000000
 11
88.000000
 21
100.000000
 39
0
 62
0
  0
LINE
  8
default
  6
CONTINUOUS
 10
84.000000
 20
98.000000
 11
86.000000
 21
100.000000
 39
0
 62
0
  0
LINE
  8
default
  6
CONTINUOUS
 10
0.000000
 20
16.000000
 11
84.000000
 21
100.000000
 39
0
 62
0
  0
LINE
  8
default
  6
CONTINUOUS
 10
81.000000
 20
99.000000
 11
82.000000
 21
100.000000
 39
0
 62
0
  0
LINE
  8
default
  6
CONTINUOUS
 10
0.000000
 20
20.000000
 11
80.000000
 21
100.000000
 39
0
 62
0
  0
LINE
  8
default
  6
CONTINUOUS
 10
0.000000
 20
24.000000
 11
76.000000
 21
100.000000
 39
0
 62
0
  0
LINE
  8
default
  6
CONTINUOUS
 10
0.000000
 20
28.000000
 11
72.000000
 21
100.000000
 39
0
 62
0
  0
LINE
  8
default
  6
CONTINUOUS
 10
69.000000
 20
99.000000
 11
70.000000
 21
100.000000
 39
0
 62
0
  0
LINE
  8
default
  6
CONTINUOUS
 10
0.000000
 20
32.000000
 11
68.000000
 21
100.000000
 39
0
 62
0
  0
LINE
  8
default
  6
CONTINUOUS
 10
0.000000
 20
36.000000
 11
64.000000
 21
100.000000
 39
0
 62
0
  0
LINE
  8
default
  6
CONTINUOUS
 10
60.000000
 20
98.000000
 11
62.000000
 21
100.000000
 39
0
 62
0
  0
LINE
  8
default
  6
CONTINUOUS
 10
0.000000
 20
40.000000
 11
60.000000
 21
100.000000
 39
0
 62
0
  0
LINE
  8
default
  6
CONTINUOUS
 10
57.000000
 20
99.000000
 11
58.000000
 21
100.000000
 39
0
 62
0
  0
LINE
  8
default
  6
CONTINUOUS
 10
0.000000
 20
44.000000
 11
56.000000
 21
100.000000
 39
0
 62
0
  0
LINE
  8
default
  6
CONTINUOUS
 10
0.000000
 20
48.000000
 11
52.000000
 21
100.000000
 39
0
 62
0
  0
LINE
  8
default
  6
CONTINUOUS
 10
45.000000
 20
99.000000
 11
45.999996
 21
100.000000
 39
0
 62
0
  0
LINE
  8
default
  6
CONTINUOUS
 10
0.000000
 20
56.000000
 11
44.000000
 21
100.000000
 39
0
 62
0
  0
LINE
  8
default
  6
CONTINUOUS
 10
0.000000
 20
60.000000
 11
39.999996
 21
100.000000
 39
0
 62
0
  0
LINE
  8
default
  6
CONTINUOUS
 10
0.000000
 20
64.000000
 11
36.000000
 21
100.000000
 39
0
 62
0
  0
LINE
  8
default
  6
CONTINUOUS
 10
33.000000
 20
99.000000
 11
33.999996
 21
100.000000
 39
0
 62
0
  0
LINE
  8
default
  6
CONTINUOUS
 10
0.000000
 20
68.000000
 11
32.000000
 21
100.000000
 39
0
 62
0
  0
LINE
  8
default
  6
CONTINUOUS
 10
0.000000
 20
72.000000
 11
27.999996
 21
100.000000
 39
0
 62
0
  0
LINE
  8
default
  6
CONTINUOUS
 10
0.000000
 20
76.000000
 11
24.000000
 21
100.000000
 39
0
 62
0
  0
LINE
  8
default
  6
CONTINUOUS
 10
21.000000
 20
99.000000
 11
22.000004
 21
100.000000
 39
0
 62
0
  0
LINE
  8
default
  6
CONTINUOUS
 10
0.000000
 20
80.000000
 11
19.999998
 21
100.000000
 39
0
 62
0
  0
LINE
  8
default
  6
CONTINUOUS
 10
0.000000
 20
84.000000
 11
16.000002
 21
100.000000
 39
0
 62
0
  0
LINE
  8
default
  6
CONTINUOUS
 10
0.000000
 20
88.000000
 11
12.000000
 21
100.000000
 39
0
 62
0
  0
LINE
  8
default
  6
CONTINUOUS
 10
0.000000
 20
92.000000
 11
7.999998
 21
100.000000
 39
0
 62
0
  0
LINE
  8
default
  6
CONTINUOUS
 10
0.000000
 20
96.000000
 11
4.000002
 21
100.000000
 39
0
 62
0
  0
LINE
  8
default
  6
CONTINUOUS
 10
9.000000
 20
99.000000
 11
10.000002
 21
100.000000
 39
0
 62
0
  0
LINE
  8
default
  6
CONTINUOUS
 10
0.000000
 20
52.000000
 11
48.000000
 21
100.000000
 39
0
 62
0
  0
LINE
  8
default
  6
CONTINUOUS
 10
2.000000
 20
0.000000
 11
4.000000
 21
2.000000
 39
0
 62
0
  0
LINE
  8
default
  6
CONTINUOUS
 10
5.000000
 20
3.000000
 11
7.000000
 21
5.000000
 39
0
 62
0
  0
LINE
  8
default
  6
CONTINUOUS
 10
8.000000
 20
6.000000
 11
10.000000
 21
8.000000
 39
0
 62
0
  0
LINE
  8
default
  6
CONTINUOUS
 10
11.000000
 20
9.000000
 11
13.000000
 21
11.000000
 39
0
 62
0
  0
LINE
  8
default
  6
CONTINUOUS
 10
14.000000
 20
12.000000
 11
16.000000
 21
14.000000
 39
0
 62
0
  0
LINE
  8
default
  6
CONTINUOUS
 10
17.000000
 20
14.999999
 11
19.000000
 21
17.000000
 39
0
 62
0
  0
LINE
  8
default
  6
CONTINUOUS
 10
20.000000
 20
18.000000
 11
22.000000
 21
20.000000
 39
0
 62
0
  0
LINE
  8
default
  6
CONTINUOUS
 10
23.000000
 20
21.000000
 11
25.000000
 21
23.000000
 39
0
 62
0
  0
LINE
  8
default
  6
CONTINUOUS
 10
26.000002
 20
23.999998
 11
28.000002
 21
25.999998
 39
0
 62
0
  0
LINE
  8
default
  6
CONTINUOUS
 10
29.000002
 20
26.999998
 11
31.000000
 21
29.000000
 39
0
 62
0
  0
LINE
  8
default
  6
CONTINUOUS
 10
32.000000
 20
30.000000
 11
34.000004
 21
31.999998
 39
0
 62
0
  0
LINE
  8
default
  6
CONTINUOUS
 10
35.000000
 20
33.000000
 11
37.000000
 21
35.000000
 39
0
 62
0
  0
LINE
  8
default
  6
CONTINUOUS
 10
38.000000
 20
36.000000
 11
40.000000
 21
38.000000
 39
0
 62
0
  0
LINE
  8
default
  6
CONTINUOUS
 10
40.999996
 20
39.000004
 11
42.999996
 21
41.000004
 39
0
 62
0
  0
LINE
  8
default
  6
CONTINUOUS
 10
43.999996
 20
42.000004
 11
46.000000
 21
44.000000
 39
0
 62
0
  0
LINE
  8
default
  6
CONTINUOUS
 10
47.000000
 20
45.000000
 11
49.000000
 21
47.000000
 39
0
 62
0
  0
LINE
  8
default
  6
CONTINUOUS
 10
50.000000
 20
48.000000
 11
52.000000
 21
50.000000
 39
0
 62
0
  0
LINE
  8
default
  6
CONTINUOUS
 10
53.000004
 20
50.999996
 11
55.000004
 21
52.999996
 39
0
 62
0
  0
LINE
  8
default
  6
CONTINUOUS
 10
56.000000
 20
54.000000
 11
57.999996
 21
56.000004
 39
0
 62
0
  0
LINE
  8
default
  6
CONTINUOUS
 10
58.999996
 20
57.000004
 11
61.000000
 21
59.000000
 39
0
 62
0
  0
LINE
  8
default
  6
CONTINUOUS
 10
61.999996
 20
60.000004
 11
64.000000
 21
61.999996
 39
0
 62
0
  0
LINE
  8
default
  6
CONTINUOUS
 10
65.000000
 20
63.000004
 11
66.999992
 21
65.000008
 39
0
 62
0
  0
LINE
  8
default
  6
CONTINUOUS
 10
68.000000
 20
66.000000
 11
70.000000
 21
68.000000
 39
0
 62
0
  0
LINE
  8
default
  6
CONTINUOUS
 10
71.000000
 20
69.000000
 11
73.000000
 21
71.000000
 39
0
 62
0
  0
LINE
  8
default
  6
CONTINUOUS
 10
74.000000
 20
72.000000
 11
75.999992
 21
74.000008
 39
0
 62
0
  0
LINE
  8
default
  6
CONTINUOUS
 10
77.000000
 20
75.000000
 11
79.000000
 21
77.000000
 39
0
 62
0
  0
LINE
  8
default
  6
CONTINUOUS
 10
80.000000
 20
78.000000
 11
82.000008
 21
79.999992
 39
0
 62
0
  0
LINE
  8
default
  6
CONTINUOUS
 10
83.000008
 20
80.999992
 11
85.000000
 21
83.000000
 39
0
 62
0
  0
LINE
  8
default
  6
CONTINUOUS
 10
86.000000
 20
84.000000
 11
88.000000
 21
86.000000
 39
0
 62
0
  0
LINE
  8
default
  6
CONTINUOUS
 10
89.000008
 20
86.999992
 11
91.000000
 21
89.000000
 39
0
 62
0
  0
LINE
  8
default
  6
CONTINUOUS
 10
91.999992
 20
90.000008
 11
93.999992
 21
92.000008
 39
0
 62
0
  0
LINE
  8
default
  6
CONTINUOUS
 10
94.999992
 20
93.000008
 11
97.000000
 21
95.000000
 39
0
 62
0
  0
LINE
  8
default
  6
CONTINUOUS
 10
98.000000
 20
96.000000
 11
99.999992
 21
98.000008
 39
0
 62
0
  0
LINE
  8
default
  6
CONTINUOUS
 10
6.000000
 20
0.000000
 11
7.999999
 21
2.000001
 39
0
 62
0
  0
LINE
  8
default
  6
CONTINUOUS
 10
8.999999
 20
3.000001
 11
11.000000
 21
5.000000
 39
0
 62
0
  0
LINE
  8
default
  6
CONTINUOUS
 10
12.000000
 20
6.000000
 11
14.000000
 21
8.000000
 39
0
 62
0
  0
LINE
  8
default
  6
CONTINUOUS
 10
15.000000
 20
9.000000
 11
17.000000
 21
11.000000
 39
0
 62
0
  0
LINE
  8
default
  6
CONTINUOUS
 10
18.000000
 20
12.000000
 11
20.000000
 21
14.000000
 39
0
 62
0
  0
LINE
  8
default
  6
CONTINUOUS
 10
21.000000
 20
15.000000
 11
23.000000
 21
17.000000
 39
0
 62
0
  0
LINE
  8
default
  6
CONTINUOUS
 10
24.000002
 20
17.999998
 11
26.000000
 21
20.000000
 39
0
 62
0
  0
LINE
  8
default
  6
CONTINUOUS
 10
27.000000
 20
21.000000
 11
29.000000
 21
23.000000
 39
0
 62
0
  0
LINE
  8
default
  6
CONTINUOUS
 10
30.000000
 20
24.000000
 11
31.999998
 21
26.000002
 39
0
 62
0
  0
LINE
  8
default
  6
CONTINUOUS
 10
33.000000
 20
26.999998
 11
35.000000
 21
29.000002
 39
0
 62
0
  0
LINE
  8
default
  6
CONTINUOUS
 10
36.000000
 20
30.000002
 11
38.000000
 21
31.999998
 39
0
 62
0
  0
LINE
  8
default
  6
CONTINUOUS
 10
39.000000
 20
33.000000
 11
41.000000
 21
35.000000
 39
0
 62
0
  0
LINE
  8
default
  6
CONTINUOUS
 10
42.000000
 20
36.000000
 11
44.000000
 21
38.000000
 39
0
 62
0
  0
LINE
  8
default
  6
CONTINUOUS
 10
45.000000
 20
39.000000
 11
47.000000
 21
41.000000
 39
0
 62
0
  0
LINE
  8
default
  6
CONTINUOUS
 10
48.000000
 20
42.000000
 11
50.000000
 21
44.000000
 39
0
 62
0
  0
LINE
  8
default
  6
CONTINUOUS
 10
51.000004
 20
44.999996
 11
53.000004
 21
46.999996
 39
0
 62
0
  0
LINE
  8
default
  6
CONTINUOUS
 10
53.999996
 20
48.000004
 11
56.000000
 21
50.000000
 39
0
 62
0
  0
LINE
  8
default
  6
CONTINUOUS
 10
56.999996
 20
51.000004
 11
59.000000
 21
53.000000
 39
0
 62
0
  0
LINE
  8
default
  6
CONTINUOUS
 10
60.000000
 20
54.000000
 11
62.000004
 21
55.999996
 39
0
 62
0
  0
LINE
  8
default
  6
CONTINUOUS
 10
62.999996
 20
57.000004
 11
65.000000
 21
59.000004
 39
0
 62
0
  0
LINE
  8
default
  6
CONTINUOUS
 10
66.000000
 20
60.000000
 11
68.000000
 21
62.000004
 39
0
 62
0
  0
LINE
  8
default
  6
CONTINUOUS
 10
69.000000
 20
63.000000
 11
71.000000
 21
65.000000
 39
0
 62
0
  0
LINE
  8
default
  6
CONTINUOUS
 10
72.000000
 20
66.000000
 11
74.000000
 21
68.000000
 39
0
 62
0
  0
LINE
  8
default
  6
CONTINUOUS
 10
75.000000
 20
69.000000
 11
77.000000
 21
71.000000
 39
0
 62
0
  0
LINE
  8
default
  6
CONTINUOUS
 10
78.000000
 20
72.000000
 11
80.000000
 21
74.000000
 39
0
 62
0
  0
LINE
  8
default
  6
CONTINUOUS
 10
81.000000
 20
75.000000
 11
83.000000
 21
77.000000
 39
0
 62
0
  0
LINE
  8
default
  6
CONTINUOUS
 10
84.000000
 20
78.000000
 11
86.000000
 21
80.000000
 39
0
 62
0
  0
LINE
  8
default
  6
CONTINUOUS
 10
87.000008
 20
80.999992
 11
89.000000
 21
83.000000
 39
0
 62
0
  0
LINE
  8
default
  6
CONTINUOUS
 10
90.000000
 20
84.000000
 11
92.000000
 21
86.000000
 39
0
 62
0
  0
LINE
  8
default
  6
CONTINUOUS
 10
93.000000
 20
87.000000
 11
95.000000
 21
89.000000
 39
0
 62
0
  0
LINE
  8
default
  6
CONTINUOUS
 10
96.000000
 20
90.000000
 11
98.000000
 21
92.000000
 39
0
 62
0
  0
LINE
  8
default
  6
CONTINUOUS
 10
10.000000
 20
0.000000
 11
12.000001
 21
1.999999
 39
0
 62
0
  0
LINE
  8
default
  6
CONTINUOUS
 10
13.000001
 20
2.999999
 11
14.999999
 21
5.000001
 39
0
 62
0
  0
LINE
  8
default
  6
CONTINUOUS
 10
15.999999
 20
6.000000
 11
18.000002
 21
7.999999
 39
0
 62
0
  0
LINE
  8
default
  6
CONTINUOUS
 10
19.000000
 20
9.000000
 11
21.000000
 21
11.000001
 39
0
 62
0
  0
LINE
  8
default
  6
CONTINUOUS
 10
22.000002
 20
11.999999
 11
24.000000
 21
13.999999
 39
0
 62
0
  0
LINE
  8
default
  6
CONTINUOUS
 10
25.000000
 20
15.000000
 11
27.000002
 21
16.999998
 39
0
 62
0
  0
LINE
  8
default
  6
CONTINUOUS
 10
28.000000
 20
18.000000
 11
30.000000
 21
20.000000
 39
0
 62
0
  0
LINE
  8
default
  6
CONTINUOUS
 10
31.000002
 20
20.999998
 11
33.000000
 21
23.000000
 39
0
 62
0
  0
LINE
  8
default
  6
CONTINUOUS
 10
34.000000
 20
24.000000
 11
36.000000
 21
26.000002
 39
0
 62
0
  0
LINE
  8
default
  6
CONTINUOUS
 10
37.000004
 20
26.999998
 11
39.000000
 21
29.000000
 39
0
 62
0
  0
LINE
  8
default
  6
CONTINUOUS
 10
40.000004
 20
29.999998
 11
42.000000
 21
32.000000
 39
0
 62
0
  0
LINE
  8
default
  6
CONTINUOUS
 10
43.000000
 20
33.000000
 11
44.999996
 21
35.000004
 39
0
 62
0
  0
LINE
  8
default
  6
CONTINUOUS
 10
46.000000
 20
36.000000
 11
48.000000
 21
38.000000
 39
0
 62
0
  0
LINE
  8
default
  6
CONTINUOUS
 10
49.000000
 20
39.000000
 11
51.000000
 21
41.000000
 39
0
 62
0
  0
LINE
  8
default
  6
CONTINUOUS
 10
52.000000
 20
42.000000
 11
54.000004
 21
43.999996
 39
0
 62
0
  0
LINE
  8
default
  6
CONTINUOUS
 10
55.000004
 20
44.999996
 11
57.000000
 21
47.000000
 39
0
 62
0
  0
LINE
  8
default
  6
CONTINUOUS
 10
58.000000
 20
48.000000
 11
59.999996
 21
50.000004
 39
0
 62
0
  0
LINE
  8
default
  6
CONTINUOUS
 10
61.000000
 20
51.000000
 11
62.999996
 21
53.000004
 39
0
 62
0
  0
LINE
  8
default
  6
CONTINUOUS
 10
64.000000
 20
53.999996
 11
66.000008
 21
55.999996
 39
0
 62
0
  0
LINE
  8
default
  6
CONTINUOUS
 10
67.000000
 20
57.000000
 11
69.000000
 21
59.000000
 39
0
 62
0
  0
LINE
  8
default
  6
CONTINUOUS
 10
70.000000
 20
60.000004
 11
72.000000
 21
61.999996
 39
0
 62
0
  0
LINE
  8
default
  6
CONTINUOUS
 10
73.000000
 20
63.000000
 11
75.000000
 21
65.000000
 39
0
 62
0
  0
LINE
  8
default
  6
CONTINUOUS
 10
76.000000
 20
66.000000
 11
77.999992
 21
68.000008
 39
0
 62
0
  0
LINE
  8
default
  6
CONTINUOUS
 10
78.999992
 20
69.000008
 11
81.000000
 21
71.000000
 39
0
 62
0
  0
LINE
  8
default
  6
CONTINUOUS
 10
82.000000
 20
72.000000
 11
83.999992
 21
74.000008
 39
0
 62
0
  0
LINE
  8
default
  6
CONTINUOUS
 10
85.000008
 20
74.999992
 11
87.000008
 21
76.999992
 39
0
 62
0
  0
LINE
  8
default
  6
CONTINUOUS
 10
88.000000
 20
78.000000
 11
89.999992
 21
80.000008
 39
0
 62
0
  0
LINE
  8
default
  6
CONTINUOUS
 10
91.000000
 20
81.000000
 11
93.000000
 21
83.000000
 39
0
 62
0
  0
LINE
  8
default
  6
CONTINUOUS
 10
94.000000
 20
84.000000
 11
96.000000
 21
86.000000
 39
0
 62
0
  0
LINE
  8
default
  6
CONTINUOUS
 10
97.000000
 20
87.000000
 11
98.999992
 21
89.000008
 39
0
 62
0
  0
LINE
  8
default
  6
CONTINUOUS
 10
14.000000
 20
-0.000000
 11
16.000000
 21
2.000000
 39
0
 62
0
  0
LINE
  8
default
  6
CONTINUOUS
 10
17.000000
 20
3.000000
 11
19.000002
 21
4.999999
 39
0
 62
0
  0
LINE
  8
default
  6
CONTINUOUS
 10
20.000002
 20
5.999999
 11
21.999998
 21
8.000001
 39
0
 62
0
  0
LINE
  8
default
  6
CONTINUOUS
 10
23.000000
 20
9.000000
 11
24.999998
 21
11.000001
 39
0
 62
0
  0
LINE
  8
default
  6
CONTINUOUS
 10
26.000002
 20
11.999998
 11
28.000000
 21
14.000000
 39
0
 62
0
  0
LINE
  8
default
  6
CONTINUOUS
 10
28.999998
 20
15.000001
 11
31.000000
 21
17.000000
 39
0
 62
0
  0
LINE
  8
default
  6
CONTINUOUS
 10
31.999998
 20
18.000002
 11
34.000000
 21
20.000000
 39
0
 62
0
  0
LINE
  8
default
  6
CONTINUOUS
 10
35.000000
 20
21.000002
 11
37.000000
 21
23.000002
 39
0
 62
0
  0
LINE
  8
default
  6
CONTINUOUS
 10
37.999996
 20
24.000002
 11
40.000000
 21
26.000002
 39
0
 62
0
  0
LINE
  8
default
  6
CONTINUOUS
 10
41.000000
 20
27.000002
 11
43.000000
 21
29.000002
 39
0
 62
0
  0
LINE
  8
default
  6
CONTINUOUS
 10
44.000000
 20
30.000000
 11
46.000000
 21
32.000000
 39
0
 62
0
  0
LINE
  8
default
  6
CONTINUOUS
 10
47.000000
 20
33.000000
 11
49.000000
 21
35.000000
 39
0
 62
0
  0
LINE
  8
default
  6
CONTINUOUS
 10
50.000000
 20
36.000000
 11
52.000000
 21
38.000000
 39
0
 62
0
  0
LINE
  8
default
  6
CONTINUOUS
 10
53.000000
 20
39.000000
 11
55.000000
 21
41.000000
 39
0
 62
0
  0
LINE
  8
default
  6
CONTINUOUS
 10
56.000004
 20
41.999996
 11
58.000000
 21
44.000000
 39
0
 62
0
  0
LINE
  8
default
  6
CONTINUOUS
 10
59.000000
 20
45.000000
 11
61.000000
 21
47.000000
 39
0
 62
0
  0
LINE
  8
default
  6
CONTINUOUS
 10
61.999996
 20
48.000004
 11
63.999996
 21
50.000004
 39
0
 62
0
  0
LINE
  8
default
  6
CONTINUOUS
 10
65.000008
 20
50.999996
 11
67.000000
 21
52.999996
 39
0
 62
0
  0
LINE
  8
default
  6
CONTINUOUS
 10
68.000000
 20
54.000000
 11
70.000000
 21
56.000004
 39
0
 62
0
  0
LINE
  8
default
  6
CONTINUOUS
 10
71.000000
 20
57.000004
 11
73.000000
 21
59.000000
 39
0
 62
0
  0
LINE
  8
default
  6
CONTINUOUS
 10
74.000008
 20
59.999996
 11
76.000000
 21
62.000000
 39
0
 62
0
  0
LINE
  8
default
  6
CONTINUOUS
 10
77.000000
 20
62.999996
 11
79.000000
 21
65.000000
 39
0
 62
0
  0
LINE
  8
default
  6
CONTINUOUS
 10
80.000000
 20
66.000000
 11
82.000000
 21
68.000000
 39
0
 62
0
  0
LINE
  8
default
  6
CONTINUOUS
 10
83.000000
 20
69.000000
 11
85.000008
 21
70.999992
 39
0
 62
0
  0
LINE
  8
default
  6
CONTINUOUS
 10
86.000000
 20
72.000000
 11
88.000000
 21
74.000000
 39
0
 62
0
  0
LINE
  8
default
  6
CONTINUOUS
 10
89.000000
 20
75.000000
 11
91.000000
 21
77.000000
 39
0
 62
0
  0
LINE
  8
default
  6
CONTINUOUS
 10
92.000000
 20
78.000000
 11
93.999992
 21
80.000008
 39
0
 62
0
  0
LINE
  8
default
  6
CONTINUOUS
 10
95.000000
 20
81.000000
 11
97.000000
 21
83.000000
 39
0
 62
0
  0
LINE
  8
default
  6
CONTINUOUS
 10
18.000000
 20
-0.000001
 11
20.000000
 21
2.000001
 39
0
 62
0
  0
LINE
  8
default
  6
CONTINUOUS
 10
21.000000
 20
3.000001
 11
23.000002
 21
4.999998
 39
0
 62
0
  0
LINE
  8
default
  6
CONTINUOUS
 10
23.999998
 20
6.000002
 11
26.000000
 21
8.000000
 39
0
 62
0
  0
LINE
  8
default
  6
CONTINUOUS
 10
26.999998
 20
9.000002
 11
29.000000
 21
11.000001
 39
0
 62
0
  0
LINE
  8
default
  6
CONTINUOUS
 10
30.000002
 20
11.999998
 11
31.999998
 21
14.000002
 39
0
 62
0
  0
LINE
  8
default
  6
CONTINUOUS
 10
33.000000
 20
14.999999
 11
34.999996
 21
17.000002
 39
0
 62
0
  0
LINE
  8
default
  6
CONTINUOUS
 10
35.999996
 20
18.000002
 11
38.000000
 21
20.000000
 39
0
 62
0
  0
LINE
  8
default
  6
CONTINUOUS
 10
39.000000
 20
21.000000
 11
41.000000
 21
23.000000
 39
0
 62
0
  0
LINE
  8
default
  6
CONTINUOUS
 10
42.000000
 20
24.000000
 11
44.000000
 21
26.000000
 39
0
 62
0
  0
LINE
  8
default
  6
CONTINUOUS
 10
45.000000
 20
27.000000
 11
47.000000
 21
29.000000
 39
0
 62
0
  0
LINE
  8
default
  6
CONTINUOUS
 10
48.000000
 20
30.000000
 11
50.000000
 21
32.000000
 39
0
 62
0
  0
LINE
  8
default
  6
CONTINUOUS
 10
51.000000
 20
33.000000
 11
53.000000
 21
35.000000
 39
0
 62
0
  0
LINE
  8
default
  6
CONTINUOUS
 10
54.000000
 20
36.000000
 11
56.000000
 21
38.000000
 39
0
 62
0
  0
LINE
  8
default
  6
CONTINUOUS
 10
57.000000
 20
39.000000
 11
58.999996
 21
41.000004
 39
0
 62
0
  0
LINE
  8
default
  6
CONTINUOUS
 10
60.000000
 20
42.000000
 11
62.000000
 21
44.000000
 39
0
 62
0
  0
LINE
  8
default
  6
CONTINUOUS
 10
63.000000
 20
45.000000
 11
65.000000
 21
47.000000
 39
0
 62
0
  0
LINE
  8
default
  6
CONTINUOUS
 10
66.000000
 20
48.000000
 11
68.000008
 21
49.999996
 39
0
 62
0
  0
LINE
  8
default
  6
CONTINUOUS
 10
69.000000
 20
51.000000
 11
71.000000
 21
53.000000
 39
0
 62
0
  0
LINE
  8
default
  6
CONTINUOUS
 10
72.000000
 20
53.999996
 11
74.000000
 21
55.999996
 39
0
 62
0
  0
LINE
  8
default
  6
CONTINUOUS
 10
75.000000
 20
56.999996
 11
77.000000
 21
59.000004
 39
0
 62
0
  0
LINE
  8
default
  6
CONTINUOUS
 10
78.000000
 20
60.000000
 11
80.000000
 21
62.000000
 39
0
 62
0
  0
LINE
  8
default
  6
CONTINUOUS
 10
81.000000
 20
63.000004
 11
83.000000
 21
65.000000
 39
0
 62
0
  0
LINE
  8
default
  6
CONTINUOUS
 10
84.000000
 20
66.000000
 11
86.000000
 21
68.000000
 39
0
 62
0
  0
LINE
  8
default
  6
CONTINUOUS
 10
87.000000
 20
69.000000
 11
88.999992
 21
71.000008
 39
0
 62
0
  0
LINE
  8
default
  6
CONTINUOUS
 10
90.000000
 20
72.000000
 11
92.000008
 21
73.999992
 39
0
 62
0
  0
LINE
  8
default
  6
CONTINUOUS
 10
93.000008
 20
74.999992
 11
95.000000
 21
77.000000
 39
0
 62
0
  0
LINE
  8
default
  6
CONTINUOUS
 10
95.999992
 20
78.000008
 11
98.000000
 21
80.000000
 39
0
 62
0
  0
LINE
  8
default
  6
CONTINUOUS
 10
22.000000
 20
0.000001
 11
24.000000
 21
2.000000
 39
0
 62
0
  0
LINE
  8
default
  6
CONTINUOUS
 10
25.000000
 20
2.999999
 11
27.000000
 21
5.000000
 39
0
 62
0
  0
LINE
  8
default
  6
CONTINUOUS
 10
28.000000
 20
5.999999
 11
29.999998
 21
8.000002
 39
0
 62
0
  0
LINE
  8
default
  6
CONTINUOUS
 10
30.999998
 20
9.000002
 11
32.999996
 21
11.000003
 39
0
 62
0
  0
LINE
  8
default
  6
CONTINUOUS
 10
34.000000
 20
11.999999
 11
36.000000
 21
13.999999
 39
0
 62
0
  0
LINE
  8
default
  6
CONTINUOUS
 10
37.000000
 20
15.000002
 11
39.000004
 21
16.999998
 39
0
 62
0
  0
LINE
  8
default
  6
CONTINUOUS
 10
40.000000
 20
18.000000
 11
41.999996
 21
20.000004
 39
0
 62
0
  0
LINE
  8
default
  6
CONTINUOUS
 10
43.000000
 20
21.000000
 11
45.000000
 21
23.000000
 39
0
 62
0
  0
LINE
  8
default
  6
CONTINUOUS
 10
46.000000
 20
24.000000
 11
48.000000
 21
26.000000
 39
0
 62
0
  0
LINE
  8
default
  6
CONTINUOUS
 10
49.000004
 20
26.999998
 11
51.000000
 21
29.000000
 39
0
 62
0
  0
LINE
  8
default
  6
CONTINUOUS
 10
52.000000
 20
30.000000
 11
54.000000
 21
32.000000
 39
0
 62
0
  0
LINE
  8
default
  6
CONTINUOUS
 10
55.000000
 20
33.000000
 11
57.000000
 21
35.000000
 39
0
 62
0
  0
LINE
  8
default
  6
CONTINUOUS
 10
58.000000
 20
36.000000
 11
60.000004
 21
37.999996
 39
0
 62
0
  0
LINE
  8
default
  6
CONTINUOUS
 10
61.000000
 20
39.000000
 11
62.999996
 21
41.000004
 39
0
 62
0
  0
LINE
  8
default
  6
CONTINUOUS
 10
64.000000
 20
41.999996
 11
66.000000
 21
44.000000
 39
0
 62
0
  0
LINE
  8
default
  6
CONTINUOUS
 10
67.000000
 20
44.999996
 11
69.000000
 21
47.000004
 39
0
 62
0
  0
LINE
  8
default
  6
CONTINUOUS
 10
70.000000
 20
47.999996
 11
72.000000
 21
50.000000
 39
0
 62
0
  0
LINE
  8
default
  6
CONTINUOUS
 10
72.999992
 20
51.000004
 11
75.000000
 21
52.999996
 39
0
 62
0
  0
LINE
  8
default
  6
CONTINUOUS
 10
76.000000
 20
53.999996
 11
78.000000
 21
55.999996
 39
0
 62
0
  0
LINE
  8
default
  6
CONTINUOUS
 10
79.000000
 20
57.000000
 11
81.000000
 21
58.999996
 39
0
 62
0
  0
LINE
  8
default
  6
CONTINUOUS
 10
82.000000
 20
60.000000
 11
84.000000
 21
62.000000
 39
0
 62
0
  0
LINE
  8
default
  6
CONTINUOUS
 10
85.000000
 20
62.999996
 11
87.000000
 21
65.000000
 39
0
 62
0
  0
LINE
  8
default
  6
CONTINUOUS
 10
88.000008
 20
65.999992
 11
90.000000
 21
68.000000
 39
0
 62
0
  0
LINE
  8
default
  6
CONTINUOUS
 10
90.999992
 20
69.000008
 11
93.000000
 21
71.000000
 39
0
 62
0
  0
LINE
  8
default
  6
CONTINUOUS
 10
94.000008
 20
71.999992
 11
96.000008
 21
73.999992
 39
0
 62
0
  0
LINE
  8
default
  6
CONTINUOUS
 10
97.000000
 20
75.000000
 11
99.000000
 21
77.000000
 39
0
 62
0
  0
LINE
  8
default
  6
CONTINUOUS
 10
26.000002
 20
-0.000001
 11
27.999998
 21
2.000002
 39
0
 62
0
  0
LINE
  8
default
  6
CONTINUOUS
 10
28.999998
 20
3.000002
 11
31.000002
 21
4.999999
 39
0
 62
0
  0
LINE
  8
default
  6
CONTINUOUS
 10
32.000000
 20
5.999999
 11
34.000000
 21
7.999999
 39
0
 62
0
  0
LINE
  8
default
  6
CONTINUOUS
 10
35.000000
 20
9.000002
 11
37.000000
 21
10.999999
 39
0
 62
0
  0
LINE
  8
default
  6
CONTINUOUS
 10
38.000000
 20
11.999999
 11
40.000000
 21
13.999999
 39
0
 62
0
  0
LINE
  8
default
  6
CONTINUOUS
 10
41.000000
 20
14.999999
 11
43.000004
 21
16.999996
 39
0
 62
0
  0
LINE
  8
default
  6
CONTINUOUS
 10
44.000000
 20
18.000002
 11
46.000000
 21
20.000002
 39
0
 62
0
  0
LINE
  8
default
  6
CONTINUOUS
 10
46.999996
 20
21.000004
 11
49.000004
 21
22.999996
 39
0
 62
0
  0
LINE
  8
default
  6
CONTINUOUS
 10
50.000000
 20
24.000002
 11
52.000000
 21
26.000002
 39
0
 62
0
  0
LINE
  8
default
  6
CONTINUOUS
 10
53.000000
 20
26.999998
 11
55.000000
 21
29.000002
 39
0
 62
0
  0
LINE
  8
default
  6
CONTINUOUS
 10
56.000000
 20
29.999998
 11
58.000000
 21
31.999998
 39
0
 62
0
  0
LINE
  8
default
  6
CONTINUOUS
 10
59.000000
 20
33.000000
 11
61.000000
 21
35.000000
 39
0
 62
0
  0
LINE
  8
default
  6
CONTINUOUS
 10
62.000004
 20
35.999996
 11
64.000000
 21
38.000000
 39
0
 62
0
  0
LINE
  8
default
  6
CONTINUOUS
 10
65.000000
 20
39.000000
 11
67.000000
 21
40.999996
 39
0
 62
0
  0
LINE
  8
default
  6
CONTINUOUS
 10
67.999992
 20
42.000004
 11
70.000000
 21
44.000000
 39
0
 62
0
  0
LINE
  8
default
  6
CONTINUOUS
 10
71.000000
 20
45.000000
 11
73.000000
 21
46.999996
 39
0
 62
0
  0
LINE
  8
default
  6
CONTINUOUS
 10
74.000000
 20
47.999996
 11
76.000000
 21
49.999996
 39
0
 62
0
  0
LINE
  8
default
  6
CONTINUOUS
 10
77.000000
 20
51.000000
 11
79.000000
 21
53.000000
 39
0
 62
0
  0
LINE
  8
default
  6
CONTINUOUS
 10
80.000000
 20
53.999996
 11
82.000000
 21
55.999996
 39
0
 62
0
  0
LINE
  8
default
  6
CONTINUOUS
 10
82.999992
 20
57.000004
 11
85.000000
 21
59.000000
 39
0
 62
0
  0
LINE
  8
default
  6
CONTINUOUS
 10
86.000000
 20
60.000000
 11
88.000000
 21
61.999996
 39
0
 62
0
  0
LINE
  8
default
  6
CONTINUOUS
 10
89.000000
 20
62.999996
 11
91.000000
 21
65.000000
 39
0
 62
0
  0
LINE
  8
default
  6
CONTINUOUS
 10
92.000000
 20
66.000000
 11
94.000000
 21
68.000000
 39
0
 62
0
  0
LINE
  8
default
  6
CONTINUOUS
 10
95.000000
 20
69.000000
 11
96.999992
 21
71.000008
 39
0
 62
0
  0
LINE
  8
default
  6
CONTINUOUS
 10
98.000000
 20
72.000000
 11
100.000000
 21
74.000000
 39
0
 62
0
  0
LINE
  8
default
  6
CONTINUOUS
 10
30.000000
 20
0.000000
 11
32.000000
 21
2.000000
 39
0
 62
0
  0
LINE
  8
default
  6
CONTINUOUS
 10
33.000000
 20
3.000000
 11
35.000000
 21
5.000000
 39
0
 62
0
  0
LINE
  8
default
  6
CONTINUOUS
 10
36.000004
 20
5.999997
 11
38.000004
 21
7.999997
 39
0
 62
0
  0
LINE
  8
default
  6
CONTINUOUS
 10
39.000004
 20
8.999997
 11
40.999996
 21
11.000003
 39
0
 62
0
  0
LINE
  8
default
  6
CONTINUOUS
 10
42.000000
 20
12.000000
 11
44.000000
 21
14.000000
 39
0
 62
0
  0
LINE
  8
default
  6
CONTINUOUS
 10
44.999996
 20
15.000003
 11
47.000004
 21
16.999998
 39
0
 62
0
  0
LINE
  8
default
  6
CONTINUOUS
 10
48.000000
 20
18.000000
 11
50.000004
 21
19.999998
 39
0
 62
0
  0
LINE
  8
default
  6
CONTINUOUS
 10
51.000000
 20
21.000000
 11
53.000004
 21
22.999998
 39
0
 62
0
  0
LINE
  8
default
  6
CONTINUOUS
 10
54.000004
 20
23.999998
 11
56.000000
 21
26.000000
 39
0
 62
0
  0
LINE
  8
default
  6
CONTINUOUS
 10
57.000000
 20
27.000000
 11
59.000004
 21
28.999998
 39
0
 62
0
  0
LINE
  8
default
  6
CONTINUOUS
 10
59.999996
 20
30.000002
 11
62.000004
 21
31.999998
 39
0
 62
0
  0
LINE
  8
default
  6
CONTINUOUS
 10
63.000000
 20
33.000000
 11
65.000000
 21
35.000000
 39
0
 62
0
  0
LINE
  8
default
  6
CONTINUOUS
 10
66.000000
 20
35.999996
 11
68.000000
 21
38.000000
 39
0
 62
0
  0
LINE
  8
default
  6
CONTINUOUS
 10
69.000008
 20
38.999996
 11
71.000000
 21
41.000004
 39
0
 62
0
  0
LINE
  8
default
  6
CONTINUOUS
 10
72.000008
 20
41.999996
 11
74.000000
 21
44.000004
 39
0
 62
0
  0
LINE
  8
default
  6
CONTINUOUS
 10
75.000000
 20
45.000000
 11
77.000000
 21
46.999996
 39
0
 62
0
  0
LINE
  8
default
  6
CONTINUOUS
 10
78.000000
 20
48.000000
 11
80.000000
 21
49.999996
 39
0
 62
0
  0
LINE
  8
default
  6
CONTINUOUS
 10
81.000008
 20
50.999996
 11
83.000008
 21
52.999996
 39
0
 62
0
  0
LINE
  8
default
  6
CONTINUOUS
 10
84.000000
 20
54.000000
 11
86.000000
 21
56.000004
 39
0
 62
0
  0
LINE
  8
default
  6
CONTINUOUS
 10
87.000000
 20
57.000004
 11
89.000000
 21
59.000000
 39
0
 62
0
  0
LINE
  8
default
  6
CONTINUOUS
 10
90.000000
 20
59.999996
 11
92.000000
 21
61.999996
 39
0
 62
0
  0
LINE
  8
default
  6
CONTINUOUS
 10
93.000008
 20
62.999996
 11
95.000000
 21
65.000000
 39
0
 62
0
  0
LINE
  8
default
  6
CONTINUOUS
 10
96.000000
 20
66.000000
 11
98.000000
 21
68.000000
 39
0
 62
0
  0
LINE
  8
default
  6
CONTINUOUS
 10
34.000000
 20
0.000001
 11
35.999996
 21
2.000004
 39
0
 62
0
  0
LINE
  8
default
  6
CONTINUOUS
 10
37.000000
 20
2.999998
 11
38.999996
 21
5.000004
 39
0
 62
0
  0
LINE
  8
default
  6
CONTINUOUS
 10
40.000000
 20
6.000001
 11
42.000000
 21
7.999999
 39
0
 62
0
  0
LINE
  8
default
  6
CONTINUOUS
 10
43.000000
 20
8.999998
 11
45.000000
 21
10.999998
 39
0
 62
0
  0
LINE
  8
default
  6
CONTINUOUS
 10
46.000000
 20
12.000001
 11
47.999996
 21
14.000004
 39
0
 62
0
  0
LINE
  8
default
  6
CONTINUOUS
 10
49.000000
 20
14.999998
 11
50.999996
 21
17.000004
 39
0
 62
0
  0
LINE
  8
default
  6
CONTINUOUS
 10
52.000000
 20
17.999998
 11
54.000000
 21
19.999998
 39
0
 62
0
  0
LINE
  8
default
  6
CONTINUOUS
 10
55.000000
 20
21.000002
 11
57.000000
 21
23.000002
 39
0
 62
0
  0
LINE
  8
default
  6
CONTINUOUS
 10
58.000004
 20
23.999996
 11
59.999992
 21
26.000006
 39
0
 62
0
  0
LINE
  8
default
  6
CONTINUOUS
 10
61.000000
 20
27.000002
 11
63.000004
 21
28.999996
 39
0
 62
0
  0
LINE
  8
default
  6
CONTINUOUS
 10
63.999996
 20
30.000004
 11
66.000000
 21
32.000000
 39
0
 62
0
  0
LINE
  8
default
  6
CONTINUOUS
 10
67.000008
 20
32.999996
 11
69.000000
 21
35.000000
 39
0
 62
0
  0
LINE
  8
default
  6
CONTINUOUS
 10
70.000008
 20
35.999996
 11
72.000000
 21
38.000000
 39
0
 62
0
  0
LINE
  8
default
  6
CONTINUOUS
 10
73.000000
 20
39.000000
 11
75.000008
 21
40.999996
 39
0
 62
0
  0
LINE
  8
default
  6
CONTINUOUS
 10
76.000000
 20
42.000000
 11
78.000000
 21
44.000000
 39
0
 62
0
  0
LINE
  8
default
  6
CONTINUOUS
 10
79.000000
 20
45.000000
 11
81.000000
 21
47.000000
 39
0
 62
0
  0
LINE
  8
default
  6
CONTINUOUS
 10
82.000000
 20
48.000004
 11
84.000008
 21
49.999996
 39
0
 62
0
  0
LINE
  8
default
  6
CONTINUOUS
 10
85.000000
 20
51.000000
 11
86.999992
 21
53.000008
 39
0
 62
0
  0
LINE
  8
default
  6
CONTINUOUS
 10
88.000008
 20
53.999996
 11
90.000000
 21
56.000004
 39
0
 62
0
  0
LINE
  8
default
  6
CONTINUOUS
 10
91.000000
 20
57.000000
 11
93.000000
 21
59.000000
 39
0
 62
0
  0
LINE
  8
default
  6
CONTINUOUS
 10
94.000000
 20
60.000000
 11
96.000008
 21
61.999996
 39
0
 62
0
  0
LINE
  8
default
  6
CONTINUOUS
 10
97.000000
 20
63.000000
 11
99.000000
 21
65.000000
 39
0
 62
0
  0
LINE
  8
default
  6
CONTINUOUS
 10
38.000000
 20
-0.000001
 11
40.000000
 21
2.000000
 39
0
 62
0
  0
LINE
  8
default
  6
CONTINUOUS
 10
41.000000
 20
3.000000
 11
43.000000
 21
5.000000
 39
0
 62
0
  0
LINE
  8
default
  6
CONTINUOUS
 10
44.000000
 20
6.000000
 11
46.000000
 21
8.000000
 39
0
 62
0
  0
LINE
  8
default
  6
CONTINUOUS
 10
46.999996
 20
9.000005
 11
48.999996
 21
11.000002
 39
0
 62
0
  0
LINE
  8
default
  6
CONTINUOUS
 10
49.999996
 20
12.000002
 11
51.999996
 21
14.000002
 39
0
 62
0
  0
LINE
  8
default
  6
CONTINUOUS
 10
53.000000
 20
14.999999
 11
55.000000
 21
17.000000
 39
0
 62
0
  0
LINE
  8
default
  6
CONTINUOUS
 10
56.000008
 20
17.999994
 11
58.000004
 21
19.999996
 39
0
 62
0
  0
LINE
  8
default
  6
CONTINUOUS
 10
58.999996
 20
21.000006
 11
60.999996
 21
23.000006
 39
0
 62
0
  0
LINE
  8
default
  6
CONTINUOUS
 10
61.999996
 20
24.000006
 11
63.999996
 21
26.000006
 39
0
 62
0
  0
LINE
  8
default
  6
CONTINUOUS
 10
65.000008
 20
26.999994
 11
67.000008
 21
28.999994
 39
0
 62
0
  0
LINE
  8
default
  6
CONTINUOUS
 10
67.999992
 20
30.000006
 11
70.000008
 21
31.999994
 39
0
 62
0
  0
LINE
  8
default
  6
CONTINUOUS
 10
71.000000
 20
33.000000
 11
73.000000
 21
35.000004
 39
0
 62
0
  0
LINE
  8
default
  6
CONTINUOUS
 10
73.999992
 20
36.000008
 11
76.000000
 21
38.000004
 39
0
 62
0
  0
LINE
  8
default
  6
CONTINUOUS
 10
77.000000
 20
39.000004
 11
79.000000
 21
41.000004
 39
0
 62
0
  0
LINE
  8
default
  6
CONTINUOUS
 10
80.000000
 20
42.000004
 11
81.999992
 21
44.000004
 39
0
 62
0
  0
LINE
  8
default
  6
CONTINUOUS
 10
83.000000
 20
44.999996
 11
85.000000
 21
47.000004
 39
0
 62
0
  0
LINE
  8
default
  6
CONTINUOUS
 10
86.000000
 20
48.000004
 11
88.000000
 21
50.000000
 39
0
 62
0
  0
LINE
  8
default
  6
CONTINUOUS
 10
89.000000
 20
51.000004
 11
91.000000
 21
53.000000
 39
0
 62
0
  0
LINE
  8
default
  6
CONTINUOUS
 10
92.000008
 20
53.999992
 11
94.000000
 21
55.999996
 39
0
 62
0
  0
LINE
  8
default
  6
CONTINUOUS
 10
95.000000
 20
57.000000
 11
96.999992
 21
59.000004
 39
0
 62
0
  0
LINE
  8
default
  6
CONTINUOUS
 10
42.000000
 20
0.000001
 11
44.000000
 21
2.000000
 39
0
 62
0
  0
LINE
  8
default
  6
CONTINUOUS
 10
45.000004
 20
2.999998
 11
47.000000
 21
5.000000
 39
0
 62
0
  0
LINE
  8
default
  6
CONTINUOUS
 10
48.000004
 20
5.999998
 11
50.000000
 21
8.000001
 39
0
 62
0
  0
LINE
  8
default
  6
CONTINUOUS
 10
51.000000
 20
9.000001
 11
53.000000
 21
11.000001
 39
0
 62
0
  0
LINE
  8
default
  6
CONTINUOUS
 10
54.000000
 20
12.000001
 11
55.999996
 21
14.000003
 39
0
 62
0
  0
LINE
  8
default
  6
CONTINUOUS
 10
57.000004
 20
14.999998
 11
58.999992
 21
17.000006
 39
0
 62
0
  0
LINE
  8
default
  6
CONTINUOUS
 10
60.000004
 20
17.999998
 11
61.999992
 21
20.000006
 39
0
 62
0
  0
LINE
  8
default
  6
CONTINUOUS
 10
62.999992
 20
21.000006
 11
65.000000
 21
23.000000
 39
0
 62
0
  0
LINE
  8
default
  6
CONTINUOUS
 10
66.000000
 20
24.000000
 11
68.000008
 21
25.999994
 39
0
 62
0
  0
LINE
  8
default
  6
CONTINUOUS
 10
69.000008
 20
26.999994
 11
70.999992
 21
29.000006
 39
0
 62
0
  0
LINE
  8
default
  6
CONTINUOUS
 10
72.000000
 20
30.000000
 11
73.999992
 21
32.000008
 39
0
 62
0
  0
LINE
  8
default
  6
CONTINUOUS
 10
75.000000
 20
33.000004
 11
77.000000
 21
35.000000
 39
0
 62
0
  0
LINE
  8
default
  6
CONTINUOUS
 10
78.000008
 20
35.999996
 11
80.000008
 21
37.999992
 39
0
 62
0
  0
LINE
  8
default
  6
CONTINUOUS
 10
81.000000
 20
38.999996
 11
83.000000
 21
40.999996
 39
0
 62
0
  0
LINE
  8
default
  6
CONTINUOUS
 10
84.000000
 20
42.000000
 11
86.000000
 21
44.000004
 39
0
 62
0
  0
LINE
  8
default
  6
CONTINUOUS
 10
87.000000
 20
45.000000
 11
89.000000
 21
47.000000
 39
0
 62
0
  0
LINE
  8
default
  6
CONTINUOUS
 10
90.000000
 20
48.000000
 11
92.000008
 21
49.999996
 39
0
 62
0
  0
LINE
  8
default
  6
CONTINUOUS
 10
93.000000
 20
51.000000
 11
95.000000
 21
53.000000
 39
0
 62
0
  0
LINE
  8
default
  6
CONTINUOUS
 10
96.000000
 20
54.000000
 11
98.000000
 21
56.000000
 39
0
 62
0
  0
LINE
  8
default
  6
CONTINUOUS
 10
46.000000
 20
-0.000001
 11
48.000000
 21
1.999999
 39
0
 62
0
  0
LINE
  8
default
  6
CONTINUOUS
 10
49.000000
 20
2.999999
 11
50.999996
 21
5.000004
 39
0
 62
0
  0
LINE
  8
default
  6
CONTINUOUS
 10
51.999996
 20
6.000004
 11
53.999996
 21
8.000005
 39
0
 62
0
  0
LINE
  8
default
  6
CONTINUOUS
 10
54.999996
 20
9.000005
 11
56.999996
 21
11.000005
 39
0
 62
0
  0
LINE
  8
default
  6
CONTINUOUS
 10
58.000000
 20
11.999999
 11
59.999996
 21
14.000005
 39
0
 62
0
  0
LINE
  8
default
  6
CONTINUOUS
 10
61.000000
 20
14.999999
 11
63.000000
 21
16.999998
 39
0
 62
0
  0
LINE
  8
default
  6
CONTINUOUS
 10
63.999996
 20
18.000004
 11
66.000000
 21
19.999998
 39
0
 62
0
  0
LINE
  8
default
  6
CONTINUOUS
 10
67.000000
 20
20.999998
 11
68.999992
 21
23.000004
 39
0
 62
0
  0
LINE
  8
default
  6
CONTINUOUS
 10
70.000000
 20
23.999998
 11
71.999992
 21
26.000004
 39
0
 62
0
  0
LINE
  8
default
  6
CONTINUOUS
 10
73.000000
 20
26.999998
 11
75.000000
 21
28.999998
 39
0
 62
0
  0
LINE
  8
default
  6
CONTINUOUS
 10
75.999992
 20
30.000004
 11
77.999992
 21
32.000004
 39
0
 62
0
  0
LINE
  8
default
  6
CONTINUOUS
 10
79.000008
 20
32.999992
 11
81.000008
 21
34.999992
 39
0
 62
0
  0
LINE
  8
default
  6
CONTINUOUS
 10
82.000000
 20
36.000000
 11
84.000008
 21
37.999992
 39
0
 62
0
  0
LINE
  8
default
  6
CONTINUOUS
 10
84.999992
 20
39.000011
 11
86.999992
 21
41.000004
 39
0
 62
0
  0
LINE
  8
default
  6
CONTINUOUS
 10
88.000000
 20
42.000000
 11
90.000008
 21
43.999992
 39
0
 62
0
  0
LINE
  8
default
  6
CONTINUOUS
 10
91.000000
 20
45.000000
 11
93.000000
 21
47.000000
 39
0
 62
0
  0
LINE
  8
default
  6
CONTINUOUS
 10
93.999992
 20
48.000004
 11
96.000000
 21
50.000000
 39
0
 62
0
  0
LINE
  8
default
  6
CONTINUOUS
 10
96.999992
 20
51.000004
 11
98.999992
 21
53.000004
 39
0
 62
0
  0
LINE
  8
default
  6
CONTINUOUS
 10
50.000000
 20
0.000000
 11
52.000000
 21
2.000000
 39
0
 62
0
  0
LINE
  8
default
  6
CONTINUOUS
 10
53.000000
 20
3.000000
 11
55.000004
 21
4.999995
 39
0
 62
0
  0
LINE
  8
default
  6
CONTINUOUS
 10
56.000000
 20
6.000000
 11
58.000004
 21
7.999995
 39
0
 62
0
  0
LINE
  8
default
  6
CONTINUOUS
 10
59.000004
 20
8.999994
 11
61.000000
 21
11.000000
 39
0
 62
0
  0
LINE
  8
default
  6
CONTINUOUS
 10
62.000000
 20
12.000000
 11
64.000000
 21
14.000000
 39
0
 62
0
  0
LINE
  8
default
  6
CONTINUOUS
 10
65.000008
 20
14.999994
 11
66.999992
 21
17.000006
 39
0
 62
0
  0
LINE
  8
default
  6
CONTINUOUS
 10
68.000000
 20
18.000000
 11
70.000000
 21
20.000000
 39
0
 62
0
  0
LINE
  8
default
  6
CONTINUOUS
 10
70.999992
 20
21.000006
 11
73.000000
 21
23.000000
 39
0
 62
0
  0
LINE
  8
default
  6
CONTINUOUS
 10
74.000000
 20
24.000000
 11
76.000000
 21
26.000000
 39
0
 62
0
  0
LINE
  8
default
  6
CONTINUOUS
 10
77.000008
 20
26.999994
 11
79.000008
 21
28.999994
 39
0
 62
0
  0
LINE
  8
default
  6
CONTINUOUS
 10
80.000000
 20
30.000000
 11
82.000008
 21
31.999989
 39
0
 62
0
  0
LINE
  8
default
  6
CONTINUOUS
 10
83.000008
 20
32.999996
 11
85.000000
 21
35.000000
 39
0
 62
0
  0
LINE
  8
default
  6
CONTINUOUS
 10
86.000008
 20
35.999996
 11
87.999992
 21
38.000004
 39
0
 62
0
  0
LINE
  8
default
  6
CONTINUOUS
 10
89.000000
 20
39.000000
 11
91.000000
 21
41.000000
 39
0
 62
0
  0
LINE
  8
default
  6
CONTINUOUS
 10
92.000008
 20
41.999996
 11
93.999992
 21
44.000004
 39
0
 62
0
  0
LINE
  8
default
  6
CONTINUOUS
 10
95.000000
 20
45.000000
 11
97.000008
 21
46.999996
 39
0
 62
0
  0
LINE
  8
default
  6
CONTINUOUS
 10
97.999992
 20
48.000004
 11
100.000000
 21
50.000000
 39
0
 62
0
  0
LINE
  8
default
  6
CONTINUOUS
 10
54.000000
 20
0.000001
 11
56.000000
 21
2.000001
 39
0
 62
0
  0
LINE
  8
default
  6
CONTINUOUS
 10
57.000000
 20
3.000001
 11
59.000000
 21
5.000001
 39
0
 62
0
  0
LINE
  8
default
  6
CONTINUOUS
 10
60.000000
 20
6.000001
 11
62.000004
 21
7.999996
 39
0
 62
0
  0
LINE
  8
default
  6
CONTINUOUS
 10
63.000000
 20
9.000001
 11
65.000008
 21
10.999995
 39
0
 62
0
  0
LINE
  8
default
  6
CONTINUOUS
 10
66.000000
 20
12.000001
 11
67.999992
 21
14.000007
 39
0
 62
0
  0
LINE
  8
default
  6
CONTINUOUS
 10
69.000008
 20
14.999995
 11
71.000000
 21
17.000002
 39
0
 62
0
  0
LINE
  8
default
  6
CONTINUOUS
 10
72.000000
 20
18.000002
 11
74.000000
 21
20.000002
 39
0
 62
0
  0
LINE
  8
default
  6
CONTINUOUS
 10
74.999992
 20
21.000006
 11
77.000008
 21
22.999996
 39
0
 62
0
  0
LINE
  8
default
  6
CONTINUOUS
 10
78.000000
 20
24.000002
 11
80.000008
 21
25.999990
 39
0
 62
0
  0
LINE
  8
default
  6
CONTINUOUS
 10
81.000000
 20
27.000002
 11
83.000000
 21
29.000002
 39
0
 62
0
  0
LINE
  8
default
  6
CONTINUOUS
 10
84.000000
 20
30.000002
 11
86.000008
 21
31.999996
 39
0
 62
0
  0
LINE
  8
default
  6
CONTINUOUS
 10
87.000000
 20
33.000000
 11
89.000000
 21
35.000000
 39
0
 62
0
  0
LINE
  8
default
  6
CONTINUOUS
 10
90.000008
 20
35.999996
 11
91.999992
 21
38.000008
 39
0
 62
0
  0
LINE
  8
default
  6
CONTINUOUS
 10
93.000000
 20
39.000000
 11
95.000008
 21
40.999996
 39
0
 62
0
  0
LINE
  8
default
  6
CONTINUOUS
 10
95.999992
 20
42.000008
 11
98.000000
 21
44.000000
 39
0
 62
0
  0
LINE
  8
default
  6
CONTINUOUS
 10
57.999996
 20
0.000002
 11
60.000004
 21
1.999997
 39
0
 62
0
  0
LINE
  8
default
  6
CONTINUOUS
 10
60.999996
 20
3.000002
 11
62.999996
 21
5.000002
 39
0
 62
0
  0
LINE
  8
default
  6
CONTINUOUS
 10
63.999992
 20
6.000008
 11
66.000000
 21
7.999997
 39
0
 62
0
  0
LINE
  8
default
  6
CONTINUOUS
 10
67.000000
 20
8.999997
 11
68.999992
 21
11.000008
 39
0
 62
0
  0
LINE
  8
default
  6
CONTINUOUS
 10
70.000000
 20
11.999997
 11
72.000000
 21
14.000002
 39
0
 62
0
  0
LINE
  8
default
  6
CONTINUOUS
 10
73.000000
 20
15.000002
 11
75.000000
 21
16.999996
 39
0
 62
0
  0
LINE
  8
default
  6
CONTINUOUS
 10
76.000000
 20
18.000002
 11
78.000000
 21
20.000002
 39
0
 62
0
  0
LINE
  8
default
  6
CONTINUOUS
 10
79.000000
 20
21.000002
 11
81.000000
 21
22.999996
 39
0
 62
0
  0
LINE
  8
default
  6
CONTINUOUS
 10
82.000000
 20
23.999996
 11
84.000000
 21
25.999996
 39
0
 62
0
  0
LINE
  8
default
  6
CONTINUOUS
 10
85.000000
 20
27.000002
 11
87.000000
 21
29.000002
 39
0
 62
0
  0
LINE
  8
default
  6
CONTINUOUS
 10
88.000000
 20
29.999996
 11
90.000000
 21
32.000004
 39
0
 62
0
  0
LINE
  8
default
  6
CONTINUOUS
 10
91.000008
 20
32.999992
 11
92.999992
 21
35.000008
 39
0
 62
0
  0
LINE
  8
default
  6
CONTINUOUS
 10
93.999992
 20
36.000008
 11
95.999992
 21
38.000008
 39
0
 62
0
  0
LINE
  8
default
  6
CONTINUOUS
 10
97.000000
 20
38.999996
 11
98.999985
 21
41.000011
 39
0
 62
0
  0
LINE
  8
default
  6
CONTINUOUS
 10
62.000004
 20
-0.000002
 11
64.000000
 21
1.999998
 39
0
 62
0
  0
LINE
  8
default
  6
CONTINUOUS
 10
65.000000
 20
3.000003
 11
67.000000
 21
4.999998
 39
0
 62
0
  0
LINE
  8
default
  6
CONTINUOUS
 10
68.000000
 20
5.999998
 11
70.000000
 21
7.999998
 39
0
 62
0
  0
LINE
  8
default
  6
CONTINUOUS
 10
70.999992
 20
9.000009
 11
72.999992
 21
11.000009
 39
0
 62
0
  0
LINE
  8
default
  6
CONTINUOUS
 10
74.000000
 20
12.000003
 11
76.000000
 21
14.000003
 39
0
 62
0
  0
LINE
  8
default
  6
CONTINUOUS
 10
77.000000
 20
14.999998
 11
79.000000
 21
16.999998
 39
0
 62
0
  0
LINE
  8
default
  6
CONTINUOUS
 10
80.000000
 20
17.999998
 11
82.000000
 21
20.000004
 39
0
 62
0
  0
LINE
  8
default
  6
CONTINUOUS
 10
83.000000
 20
21.000004
 11
85.000000
 21
22.999998
 39
0
 62
0
  0
LINE
  8
default
  6
CONTINUOUS
 10
86.000000
 20
24.000004
 11
88.000000
 21
25.999998
 39
0
 62
0
  0
LINE
  8
default
  6
CONTINUOUS
 10
89.000000
 20
27.000004
 11
91.000000
 21
29.000004
 39
0
 62
0
  0
LINE
  8
default
  6
CONTINUOUS
 10
92.000000
 20
29.999998
 11
93.999992
 21
32.000008
 39
0
 62
0
  0
LINE
  8
default
  6
CONTINUOUS
 10
95.000008
 20
32.999992
 11
97.000000
 21
35.000004
 39
0
 62
0
  0
LINE
  8
default
  6
CONTINUOUS
 10
98.000000
 20
35.999996
 11
99.999992
 21
38.000008
 39
0
 62
0
  0
LINE
  8
default
  6
CONTINUOUS
 10
66.000000
 20
-0.000001
 11
67.999992
 21
2.000004
 39
0
 62
0
  0
LINE
  8
default
  6
CONTINUOUS
 10
68.999992
 20
3.000004
 11
71.000000
 21
4.999999
 39
0
 62
0
  0
LINE
  8
default
  6
CONTINUOUS
 10
71.999992
 20
6.000004
 11
74.000000
 21
7.999999
 39
0
 62
0
  0
LINE
  8
default
  6
CONTINUOUS
 10
75.000000
 20
8.999999
 11
76.999992
 21
11.000005
 39
0
 62
0
  0
LINE
  8
default
  6
CONTINUOUS
 10
78.000000
 20
11.999999
 11
79.999992
 21
14.000005
 39
0
 62
0
  0
LINE
  8
default
  6
CONTINUOUS
 10
81.000000
 20
14.999999
 11
83.000000
 21
16.999998
 39
0
 62
0
  0
LINE
  8
default
  6
CONTINUOUS
 10
84.000000
 20
17.999998
 11
85.999992
 21
20.000004
 39
0
 62
0
  0
LINE
  8
default
  6
CONTINUOUS
 10
87.000000
 20
20.999998
 11
89.000000
 21
22.999998
 39
0
 62
0
  0
LINE
  8
default
  6
CONTINUOUS
 10
89.999992
 20
24.000004
 11
92.000000
 21
25.999998
 39
0
 62
0
  0
LINE
  8
default
  6
CONTINUOUS
 10
92.999992
 20
27.000004
 11
94.999992
 21
29.000004
 39
0
 62
0
  0
LINE
  8
default
  6
CONTINUOUS
 10
95.999992
 20
30.000004
 11
98.000008
 21
31.999994
 39
0
 62
0
  0
LINE
  8
default
  6
CONTINUOUS
 10
70.000000
 20
0.000000
 11
72.000000
 21
2.000000
 39
0
 62
0
  0
LINE
  8
default
  6
CONTINUOUS
 10
73.000000
 20
3.000000
 11
75.000008
 21
4.999995
 39
0
 62
0
  0
LINE
  8
default
  6
CONTINUOUS
 10
76.000008
 20
5.999995
 11
78.000000
 21
8.000000
 39
0
 62
0
  0
LINE
  8
default
  6
CONTINUOUS
 10
79.000008
 20
8.999994
 11
81.000000
 21
11.000000
 39
0
 62
0
  0
LINE
  8
default
  6
CONTINUOUS
 10
81.999992
 20
12.000006
 11
84.000008
 21
13.999994
 39
0
 62
0
  0
LINE
  8
default
  6
CONTINUOUS
 10
85.000000
 20
15.000000
 11
87.000008
 21
16.999994
 39
0
 62
0
  0
LINE
  8
default
  6
CONTINUOUS
 10
88.000008
 20
17.999994
 11
89.999992
 21
20.000006
 39
0
 62
0
  0
LINE
  8
default
  6
CONTINUOUS
 10
91.000008
 20
20.999994
 11
93.000008
 21
22.999994
 39
0
 62
0
  0
LINE
  8
default
  6
CONTINUOUS
 10
93.999992
 20
24.000006
 11
96.000000
 21
26.000000
 39
0
 62
0
  0
LINE
  8
default
  6
CONTINUOUS
 10
96.999992
 20
27.000006
 11
99.000008
 21
28.999994
 39
0
 62
0
  0
LINE
  8
default
  6
CONTINUOUS
 10
74.000000
 20
0.000001
 11
76.000000
 21
2.000001
 39
0
 62
0
  0
LINE
  8
default
  6
CONTINUOUS
 10
76.999992
 20
3.000006
 11
79.000008
 21
4.999996
 39
0
 62
0
  0
LINE
  8
default
  6
CONTINUOUS
 10
80.000000
 20
6.000001
 11
82.000008
 21
7.999996
 39
0
 62
0
  0
LINE
  8
default
  6
CONTINUOUS
 10
83.000008
 20
8.999995
 11
85.000008
 21
10.999995
 39
0
 62
0
  0
LINE
  8
default
  6
CONTINUOUS
 10
86.000000
 20
12.000001
 11
88.000000
 21
14.000001
 39
0
 62
0
  0
LINE
  8
default
  6
CONTINUOUS
 10
89.000000
 20
15.000001
 11
91.000008
 21
16.999996
 39
0
 62
0
  0
LINE
  8
default
  6
CONTINUOUS
 10
91.999992
 20
18.000006
 11
94.000008
 21
19.999990
 39
0
 62
0
  0
LINE
  8
default
  6
CONTINUOUS
 10
95.000000
 20
21.000002
 11
97.000008
 21
22.999996
 39
0
 62
0
  0
LINE
  8
default
  6
CONTINUOUS
 10
97.999992
 20
24.000006
 11
99.999992
 21
26.000006
 39
0
 62
0
  0
LINE
  8
default
  6
CONTINUOUS
 10
78.000000
 20
0.000002
 11
79.999992
 21
2.000008
 39
0
 62
0
  0
LINE
  8
default
  6
CONTINUOUS
 10
81.000000
 20
2.999997
 11
83.000000
 21
5.000002
 39
0
 62
0
  0
LINE
  8
default
  6
CONTINUOUS
 10
84.000000
 20
6.000002
 11
86.000000
 21
7.999997
 39
0
 62
0
  0
LINE
  8
default
  6
CONTINUOUS
 10
87.000000
 20
9.000002
 11
89.000000
 21
10.999997
 39
0
 62
0
  0
LINE
  8
default
  6
CONTINUOUS
 10
90.000000
 20
11.999997
 11
92.000000
 21
14.000002
 39
0
 62
0
  0
LINE
  8
default
  6
CONTINUOUS
 10
93.000000
 20
14.999997
 11
94.999992
 21
17.000008
 39
0
 62
0
  0
LINE
  8
default
  6
CONTINUOUS
 10
96.000000
 20
17.999996
 11
98.000000
 21
20.000002
 39
0
 62
0
  0
LINE
  8
default
  6
CONTINUOUS
 10
82.000000
 20
-0.000002
 11
84.000000
 21
2.000003
 39
0
 62
0
  0
LINE
  8
default
  6
CONTINUOUS
 10
85.000000
 20
2.999998
 11
87.000000
 21
5.000003
 39
0
 62
0
  0
LINE
  8
default
  6
CONTINUOUS
 10
87.999992
 20
6.000009
 11
90.000008
 21
7.999992
 39
0
 62
0
  0
LINE
  8
default
  6
CONTINUOUS
 10
91.000000
 20
9.000003
 11
92.999992
 21
11.000009
 39
0
 62
0
  0
LINE
  8
default
  6
CONTINUOUS
 10
94.000008
 20
11.999992
 11
96.000008
 21
13.999992
 39
0
 62
0
  0
LINE
  8
default
  6
CONTINUOUS
 10
97.000000
 20
15.000003
 11
98.999992
 21
17.000010
 39
0
 62
0
  0
LINE
  8
default
  6
CONTINUOUS
 10
86.000000
 20
-0.000001
 11
87.999992
 21
2.000004
 39
0
 62
0
  0
LINE
  8
default
  6
CONTINUOUS
 10
88.999992
 20
3.000004
 11
91.000000
 21
4.999999
 39
0
 62
0
  0
LINE
  8
default
  6
CONTINUOUS
 10
91.999992
 20
6.000004
 11
93.999992
 21
8.000005
 39
0
 62
0
  0
LINE
  8
default
  6
CONTINUOUS
 10
94.999992
 20
9.000010
 11
97.000008
 21
10.999993
 39
0
 62
0
  0
LINE
  8
default
  6
CONTINUOUS
 10
98.000008
 20
11.999993
 11
99.999992
 21
14.000005
 39
0
 62
0
  0
LINE
  8
default
  6
CONTINUOUS
 10
90.000000
 20
0.000000
 11
92.000008
 21
1.999995
 39
0
 62
0
  0
LINE
  8
default
  6
CONTINUOUS
 10
93.000008
 20
2.999995
 11
95.000000
 21
5.000000
 39
0
 62
0
  0
LINE
  8
default
  6
CONTINUOUS
 10
96.000008
 20
5.999995
 11
98.000008
 21
7.999995
 39
0
 62
0
  0
LINE
  8
default
  6
CONTINUOUS
 10
94.000008
 20
-0.000004
 11
95.999992
 21
2.000006
 39
0
 62
0
  0
LINE
  8
default
  6
CONTINUOUS
 10
97.000008
 20
2.999996
 11
99.000008
 21
4.999996
 39
0
 62
0
  0
LINE
  8
default
  6
CONTINUOUS
 10
98.000000
 20
0.000002
 11
100.000008
 21
1.999991
 39
0
 62
0
  0
LINE
  8
default
  6
CONTINUOUS
 10
4.000000
 20
0.000000
 11
100.000000
 21
96.000000
 39
0
 62
0
  0
LINE
  8
default
  6
CONTINUOUS
 10
98.999992
 20
93.000008
 11
100.000000
 21
94.000000
 39
0
 62
0
  0
LINE
  8
default
  6
CONTINUOUS
 10
8.000000
 20
0.000000
 11
100.000000
 21
92.000000
 39
0
 62
0
  0
LINE
  8
default
  6
CONTINUOUS
 10
11.999999
 20
0.000001
 11
100.000000
 21
88.000000
 39
0
 62
0
  0
LINE
  8
default
  6
CONTINUOUS
 10
98.000000
 20
84.000000
 11
100.000000
 21
86.000000
 39
0
 62
0
  0
LINE
  8
default
  6
CONTINUOUS
 10
16.000000
 20
0.000000
 11
100.000000
 21
84.000000
 39
0
 62
0
  0
LINE
  8
default
  6
CONTINUOUS
 10
99.000000
 20
81.000000
 11
100.000000
 21
82.000000
 39
0
 62
0
  0
LINE
  8
default
  6
CONTINUOUS
 10
20.000000
 20
0.000000
 11
100.000000
 21
80.000000
 39
0
 62
0
  0
LINE
  8
default
  6
CONTINUOUS
 10
23.999998
 20
0.000001
 11
100.000008
 21
75.999992
 39
0
 62
0
  0
LINE
  8
default
  6
CONTINUOUS
 10
28.000000
 20
-0.000001
 11
100.000000
 21
72.000000
 39
0
 62
0
  0
LINE
  8
default
  6
CONTINUOUS
 10
99.000000
 20
69.000000
 11
100.000000
 21
70.000000
 39
0
 62
0
  0
LINE
  8
default
  6
CONTINUOUS
 10
32.000000
 20
0.000001
 11
100.000000
 21
68.000000
 39
0
 62
0
  0
LINE
  8
default
  6
CONTINUOUS
 10
36.000000
 20
-0.000001
 11
100.000000
 21
64.000000
 39
0
 62
0
  0
LINE
  8
default
  6
CONTINUOUS
 10
97.999992
 20
60.000004
 11
100.000000
 21
61.999996
 39
0
 62
0
  0
LINE
  8
default
  6
CONTINUOUS
 10
40.000000
 20
0.000000
 11
100.000000
 21
60.000000
 39
0
 62
0
  0
LINE
  8
default
  6
CONTINUOUS
 10
99.000000
 20
56.999996
 11
100.000008
 21
57.999996
 39
0
 62
0
  0
LINE
  8
default
  6
CONTINUOUS
 10
44.000000
 20
0.000001
 11
100.000000
 21
56.000000
 39
0
 62
0
  0
LINE
  8
default
  6
CONTINUOUS
 10
47.999996
 20
0.000002
 11
100.000000
 21
51.999996
 39
0
 62
0
  0
LINE
  8
default
  6
CONTINUOUS
 10
99.000000
 20
45.000000
 11
99.999992
 21
46.000000
 39
0
 62
0
  0
LINE
  8
default
  6
CONTINUOUS
 10
56.000000
 20
-0.000001
 11
99.999992
 21
44.000004
 39
0
 62
0
  0
LINE
  8
default
  6
CONTINUOUS
 10
60.000000
 20
0.000000
 11
100.000000
 21
39.999996
 39
0
 62
0
  0
LINE
  8
default
  6
CONTINUOUS
 10
64.000000
 20
0.000001
 11
100.000008
 21
35.999996
 39
0
 62
0
  0
LINE
  8
default
  6
CONTINUOUS
 10
98.999992
 20
33.000004
 11
100.000000
 21
33.999992
 39
0
 62
0
  0
LINE
  8
default
  6
CONTINUOUS
 10
68.000000
 20
0.000002
 11
99.999992
 21
32.000008
 39
0
 62
0
  0
LINE
  8
default
  6
CONTINUOUS
 10
72.000000
 20
-0.000002
 11
100.000000
 21
27.999992
 39
0
 62
0
  0
LINE
  8
default
  6
CONTINUOUS
 10
76.000000
 20
-0.000001
 11
99.999992
 21
24.000004
 39
0
 62
0
  0
LINE
  8
default
  6
CONTINUOUS
 10
98.999992
 20
21.000008
 11
100.000008
 21
21.999996
 39
0
 62
0
  0
LINE
  8
default
  6
CONTINUOUS
 10
80.000000
 20
0.000000
 11
100.000008
 21
19.999989
 39
0
 62
0
  0
LINE
  8
default
  6
CONTINUOUS
 10
84.000000
 20
0.000001
 11
100.000000
 21
16.000002
 39
0
 62
0
  0
LINE
  8
default
  6
CONTINUOUS
 10
88.000000
 20
0.000002
 11
100.000000
 21
11.999997
 39
0
 62
0
  0
LINE
  8
default
  6
CONTINUOUS
 10
92.000000
 20
-0.000002
 11
100.000000
 21
7.999998
 39
0
 62
0
  0
LINE
  8
default
  6
CONTINUOUS
 10
95.999992
 20
0.000004
 11
100.000000
 21
4.000004
 39
0
 62
0
  0
LINE
  8
default
  6
CONTINUOUS
 10
99.000000
 20
9.000000
 11
100.000000
 21
10.000000
 39
0
 62
0
  0
LINE
  8
default
  6
CONTINUOUS
 10
52.000004
 20
-0.000002
 11
100.000000
 21
48.000004
 39
0
 62
0
  0
ENDSEC
  0
EOF