0
SECTION
2
HEADER
  9
$EXTMIN
10
-8.929
20
1.250
30
0.0
  9
$EXTMAX
10
83.929
20
72.750
30
0.0
  9
$LIMMIN
10
-8.929
20
1.250
30
0.0
  9
$LIMMAX
10
83.929
20
72.750
30
0.0
  9
$LTSCALE
40
1.000
  9
$PDMODE
70
0
  9
$PDSIZE
40
40
0
ENDSEC
0
SECTION
2
TABLES
0
TABLE
2
LTYPE
70
9
0
LTYPE
5
1f4
2
CONTINUOUS
70
0
3
é¿ê¸
72
65
73
0
40
0.0
0
LTYPE
5
1f5
2
DOT
70
0
3
--  --  --  --  --  --  --  --     
72
65
73
2
40
5.000
49
1.000
49
-4.000
0
LTYPE
5
1f6
2
DASHED
70
0
3
----    ----    ----    ----    
72
65
73
2
40
5.000
49
2.000
49
-3.000
0
LTYPE
5
1f7
2
DASHED2
70
0
3
------  ------  ------  ------ 
72
65
73
2
40
10.000
49
4.000
49
-6.000
0
LTYPE
5
1f8
2
CENTER
70
0
3
----- - ----- - ----- - ----- - 
72
65
73
4
40
9.000
49
6.000
49
-1.000
49
1.000
49
-1.000
0
LTYPE
5
1f9
2
CENTER2
70
0
3
----------  --  ----------  -- 
72
65
73
4
40
18.000
49
12.000
49
-2.000
49
2.000
49
-2.000
0
LTYPE
5
1fa
2
PHANTOM
70
0
3
--- - - --- - - --- - - --- - -
72
65
73
6
40
10.000
49
5.000
49
-1.000
49
1.000
49
-1.000
49
1.000
49
-1.000
0
LTYPE
5
1fb
2
PHANTOM2
70
0
3
--------  -  -  --------  -  -
72
65
73
6
40
16.000
49
6.000
49
-2.000
49
2.000
49
-2.000
49
2.000
49
-2.000
0
LTYPE
5
1fc
2
HIDDEN
70
0
3
-   -   -   -   -   -   -   -   
72
65
73
2
40
2.500
49
0.500
49
-2.000
0
ENDTAB
0
TABLE
2
STYLE
70
1
0
STYLE
5
1fd
100
AcDbSymbolTableRecord
100
AcDbTextStyleTableRecord
2
STANDARD
70
0
40
0.0
41
1.0
50
0.0
71
0
42
0.0
3
txt.shx
4
extfont.shx
0
STYLE
5
1fe
100
AcDbSymbolTableRecord
100
AcDbTextStyleTableRecord
2
TATEGAKI
70
4
40
0.0
41
1.0
50
0.0
71
0
42
0.0
3
txt.shx
4
extfont.shx
0
STYLE
5
1ff
100
AcDbSymbolTableRecord
100
AcDbTextStyleTableRecord
2
MT
70
0
40
0.0
41
1.0
50
0.0
71
0
42
0.0
3
MS Gothic
4

0
STYLE
5
200
100
AcDbSymbolTableRecord
100
AcDbTextStyleTableRecord
2
TMT
70
4
40
0.0
41
1.0
50
0.0
71
0
42
0.0
3
@MS Gothic
4

0
ENDTAB
0
TABLE
2
LAYER
5
4b9
100
AcDbSymbolTable
70
10
0
LAYER
5
4ba
100
AcDbSymbolTableRecord
100
AcDbLayerTableRecord
2
JW_ZUKEI
70
64
62
  7
  6
CONTINUOUS
0
LAYER
5
4bb
100
AcDbSymbolTableRecord
100
AcDbLayerTableRecord
2
ADD_LINE
70
64
62
  7
  6
CONTINUOUS
0
ENDTAB
0
ENDSEC
0
SECTION
2
ENTITIES
0
LINE
5
4bc
8
JW_ZUKEI
6
CONTINUOUS
62
  7
10
49.500
20
4.500
30
0.0
11
58.500
21
4.500
31
0.0
0
LINE
5
4bd
8
JW_ZUKEI
6
CONTINUOUS
62
  7
10
25.500
20
8.000
30
0.0
11
31.000
21
8.000
31
0.0
0
LINE
5
4be
8
JW_ZUKEI
6
CONTINUOUS
62
  7
10
22.500
20
8.500
30
0.0
11
23.000
21
8.500
31
0.0
0
LINE
5
4bf
8
JW_ZUKEI
6
CONTINUOUS
62
  7
10
21.000
20
9.000
30
0.0
11
21.500
21
9.000
31
0.0
0
LINE
5
4c0
8
JW_ZUKEI
6
CONTINUOUS
62
  7
10
16.000
20
10.000
30
0.0
11
20.000
21
10.000
31
0.0
0
LINE
5
4c1
8
JW_ZUKEI
6
CONTINUOUS
62
  7
10
13.500
20
10.500
30
0.0
11
14.500
21
10.500
31
0.0
0
LINE
5
4c2
8
JW_ZUKEI
6
CONTINUOUS
62
  7
10
22.000
20
10.500
30
0.0
11
23.000
21
10.500
31
0.0
0
LINE
5
4c3
8
JW_ZUKEI
6
CONTINUOUS
62
  7
10
19.000
20
12.000
30
0.0
11
20.500
21
12.000
31
0.0
0
LINE
5
4c4
8
JW_ZUKEI
6
CONTINUOUS
62
  7
10
12.000
20
12.500
30
0.0
11
12.500
21
12.500
31
0.0
0
LINE
5
4c5
8
JW_ZUKEI
6
CONTINUOUS
62
  7
10
14.000
20
12.500
30
0.0
11
14.500
21
12.500
31
0.0
0
LINE
5
4c6
8
JW_ZUKEI
6
CONTINUOUS
62
  7
10
13.500
20
14.000
30
0.0
11
14.500
21
14.000
31
0.0
0
LINE
5
4c7
8
JW_ZUKEI
6
CONTINUOUS
62
  7
10
14.000
20
14.500
30
0.0
11
15.000
21
14.500
31
0.0
0
LINE
5
4c8
8
JW_ZUKEI
6
CONTINUOUS
62
  7
10
16.000
20
15.000
30
0.0
11
18.000
21
15.000
31
0.0
0
LINE
5
4c9
8
JW_ZUKEI
6
CONTINUOUS
62
  7
10
12.500
20
37.500
30
0.0
11
15.000
21
37.500
31
0.0
0
LINE
5
4ca
8
JW_ZUKEI
6
CONTINUOUS
62
  7
10
21.500
20
40.000
30
0.0
11
23.500
21
40.000
31
0.0
0
LINE
5
4cb
8
JW_ZUKEI
6
CONTINUOUS
62
  7
10
10.000
20
40.500
30
0.0
11
11.500
21
40.500
31
0.0
0
LINE
5
4cc
8
JW_ZUKEI
6
CONTINUOUS
62
  7
10
13.000
20
42.500
30
0.0
11
15.500
21
42.500
31
0.0
0
LINE
5
4cd
8
JW_ZUKEI
6
CONTINUOUS
62
  7
10
12.000
20
44.500
30
0.0
11
13.000
21
44.500
31
0.0
0
LINE
5
4ce
8
JW_ZUKEI
6
CONTINUOUS
62
  7
10
16.000
20
45.000
30
0.0
11
16.500
21
45.000
31
0.0
0
LINE
5
4cf
8
JW_ZUKEI
6
CONTINUOUS
62
  7
10
16.500
20
45.500
30
0.0
11
18.000
21
45.500
31
0.0
0
LINE
5
4d0
8
JW_ZUKEI
6
CONTINUOUS
62
  7
10
33.500
20
64.000
30
0.0
11
36.500
21
64.000
31
0.0
0
LINE
5
4d1
8
JW_ZUKEI
6
CONTINUOUS
62
  7
10
48.000
20
67.000
30
0.0
11
49.000
21
67.000
31
0.0
0
LINE
5
4d2
8
JW_ZUKEI
6
CONTINUOUS
62
  7
10
10.000
20
39.000
30
0.0
11
10.000
21
39.500
31
0.0
0
LINE
5
4d3
8
JW_ZUKEI
6
CONTINUOUS
62
  7
10
12.000
20
12.500
30
0.0
11
12.000
21
13.000
31
0.0
0
LINE
5
4d4
8
JW_ZUKEI
6
CONTINUOUS
62
  7
10
12.500
20
11.000
30
0.0
11
12.500
21
11.500
31
0.0
0
LINE
5
4d5
8
JW_ZUKEI
6
CONTINUOUS
62
  7
10
13.000
20
42.000
30
0.0
11
13.000
21
44.500
31
0.0
0
LINE
5
4d6
8
JW_ZUKEI
6
CONTINUOUS
62
  7
10
14.000
20
14.000
30
0.0
11
14.000
21
14.500
31
0.0
0
LINE
5
4d7
8
JW_ZUKEI
6
CONTINUOUS
62
  7
10
14.500
20
14.000
30
0.0
11
14.500
21
14.500
31
0.0
0
LINE
5
4d8
8
JW_ZUKEI
6
CONTINUOUS
62
  7
10
14.500
20
42.000
30
0.0
11
14.500
21
44.000
31
0.0
0
LINE
5
4d9
8
JW_ZUKEI
6
CONTINUOUS
62
  7
10
17.500
20
44.000
30
0.0
11
17.500
21
46.000
31
0.0
0
LINE
5
4da
8
JW_ZUKEI
6
CONTINUOUS
62
  7
10
18.000
20
12.000
30
0.0
11
18.000
21
12.500
31
0.0
0
LINE
5
4db
8
JW_ZUKEI
6
CONTINUOUS
62
  7
10
18.500
20
10.000
30
0.0
11
18.500
21
11.500
31
0.0
0
LINE
5
4dc
8
JW_ZUKEI
6
CONTINUOUS
62
  7
10
19.000
20
41.500
30
0.0
11
19.000
21
44.000
31
0.0
0
LINE
5
4dd
8
JW_ZUKEI
6
CONTINUOUS
62
  7
10
19.500
20
46.500
30
0.0
11
19.500
21
48.000
31
0.0
0
LINE
5
4de
8
JW_ZUKEI
6
CONTINUOUS
62
  7
10
20.000
20
10.000
30
0.0
11
20.000
21
13.500
31
0.0
0
LINE
5
4df
8
JW_ZUKEI
6
CONTINUOUS
62
  7
10
22.500
20
58.000
30
0.0
11
22.500
21
62.000
31
0.0
0
LINE
5
4e0
8
JW_ZUKEI
6
CONTINUOUS
62
  7
10
24.500
20
54.000
30
0.0
11
24.500
21
54.500
31
0.0
0
LINE
5
4e1
8
JW_ZUKEI
6
CONTINUOUS
62
  7
10
25.000
20
37.000
30
0.0
11
25.000
21
38.500
31
0.0
0
LINE
5
4e2
8
JW_ZUKEI
6
CONTINUOUS
62
  7
10
25.500
20
10.000
30
0.0
11
25.500
21
10.500
31
0.0
0
LINE
5
4e3
8
JW_ZUKEI
6
CONTINUOUS
62
  7
10
25.500
20
23.500
30
0.0
11
25.500
21
26.000
31
0.0
0
LINE
5
4e4
8
JW_ZUKEI
6
CONTINUOUS
62
  7
10
26.000
20
8.000
30
0.0
11
26.000
21
8.500
31
0.0
0
LINE
5
4e5
8
JW_ZUKEI
6
CONTINUOUS
62
  7
10
27.000
20
18.500
30
0.0
11
27.000
21
19.500
31
0.0
0
LINE
5
4e6
8
JW_ZUKEI
6
CONTINUOUS
62
  7
10
31.500
20
50.000
30
0.0
11
31.500
21
51.000
31
0.0
0
LINE
5
4e7
8
JW_ZUKEI
6
CONTINUOUS
62
  7
10
43.000
20
28.500
30
0.0
11
43.000
21
32.000
31
0.0
0
LINE
5
4e8
8
JW_ZUKEI
6
CONTINUOUS
62
  7
10
43.500
20
11.000
30
0.0
11
43.500
21
12.000
31
0.0
0
LINE
5
4e9
8
JW_ZUKEI
6
CONTINUOUS
62
  7
10
48.000
20
66.000
30
0.0
11
48.000
21
67.000
31
0.0
0
LINE
5
4ea
8
JW_ZUKEI
6
CONTINUOUS
62
  7
10
49.000
20
5.000
30
0.0
11
49.000
21
5.500
31
0.0
0
LINE
5
4eb
8
JW_ZUKEI
6
CONTINUOUS
62
  7
10
54.000
20
58.500
30
0.0
11
54.000
21
60.000
31
0.0
0
LINE
5
4ec
8
JW_ZUKEI
6
CONTINUOUS
62
  7
10
66.000
20
8.000
30
0.0
11
66.000
21
10.500
31
0.0
0
LINE
5
4ed
8
JW_ZUKEI
6
CONTINUOUS
62
  7
10
25.500
20
8.000
30
0.0
11
25.000
21
8.500
31
0.0
0
LINE
5
4ee
8
JW_ZUKEI
6
CONTINUOUS
62
  7
10
26.000
20
8.500
30
0.0
11
25.500
21
9.000
31
0.0
0
LINE
5
4ef
8
JW_ZUKEI
6
CONTINUOUS
62
  7
10
25.000
20
8.500
30
0.0
11
26.000
21
9.500
31
0.0
0
LINE
5
4f0
8
JW_ZUKEI
6
CONTINUOUS
62
  7
10
18.500
20
11.500
30
0.0
11
18.000
21
12.000
31
0.0
0
LINE
5
4f1
8
JW_ZUKEI
6
CONTINUOUS
62
  7
10
28.500
20
12.500
30
0.0
11
29.000
21
13.000
31
0.0
0
LINE
5
4f2
8
JW_ZUKEI
6
CONTINUOUS
62
  7
10
12.000
20
13.000
30
0.0
11
12.500
21
13.500
31
0.0
0
LINE
5
4f3
8
JW_ZUKEI
6
CONTINUOUS
62
  7
10
15.000
20
39.000
30
0.0
11
15.500
21
39.500
31
0.0
0
LINE
5
4f4
8
JW_ZUKEI
6
CONTINUOUS
62
  7
10
9.500
20
39.500
30
0.0
11
9.000
21
40.000
31
0.0
0
LINE
5
4f5
8
JW_ZUKEI
6
CONTINUOUS
62
  7
10
24.000
20
53.500
30
0.0
11
24.500
21
54.000
31
0.0
0
LINE
5
4f6
8
JW_ZUKEI
6
CONTINUOUS
62
  7
10
31.000
20
68.500
30
0.0
11
31.000
21
69.000
31
0.0
0
LINE
5
4f7
8
JW_ZUKEI
6
CONTINUOUS
62
  7
10
32.000
20
69.000
30
0.0
11
32.000
21
69.500
31
0.0
0
LINE
5
4f8
8
JW_ZUKEI
6
CONTINUOUS
62
  7
10
31.000
20
69.000
30
0.0
11
32.000
21
69.000
31
0.0
0
LINE
5
4f9
8
JW_ZUKEI
6
CONTINUOUS
62
  7
10
30.500
20
69.500
30
0.0
11
32.000
21
69.500
31
0.0
0
LINE
5
4fa
8
JW_ZUKEI
6
CONTINUOUS
62
  7
10
30.000
20
67.000
30
0.0
11
30.000
21
67.500
31
0.0
0
LINE
5
4fb
8
JW_ZUKEI
6
CONTINUOUS
62
  7
10
30.000
20
67.500
30
0.0
11
30.500
21
67.500
31
0.0
0
LINE
5
4fc
8
JW_ZUKEI
6
CONTINUOUS
62
  7
10
30.500
20
69.000
30
0.0
11
30.500
21
69.500
31
0.0
0
LINE
5
4fd
8
JW_ZUKEI
6
CONTINUOUS
62
  7
10
29.500
20
69.000
30
0.0
11
30.500
21
69.000
31
0.0
0
LINE
5
4fe
8
JW_ZUKEI
6
CONTINUOUS
62
  7
10
30.500
20
67.500
30
0.0
11
30.500
21
68.500
31
0.0
0
LINE
5
4ff
8
JW_ZUKEI
6
CONTINUOUS
62
  7
10
30.500
20
68.500
30
0.0
11
31.000
21
68.500
31
0.0
0
LINE
5
500
8
JW_ZUKEI
6
CONTINUOUS
62
  7
10
29.000
20
68.000
30
0.0
11
29.000
21
68.500
31
0.0
0
LINE
5
501
8
JW_ZUKEI
6
CONTINUOUS
62
  7
10
28.000
20
68.000
30
0.0
11
29.000
21
68.000
31
0.0
0
LINE
5
502
8
JW_ZUKEI
6
CONTINUOUS
62
  7
10
29.000
20
68.500
30
0.0
11
29.500
21
68.500
31
0.0
0
LINE
5
503
8
JW_ZUKEI
6
CONTINUOUS
62
  7
10
29.500
20
68.500
30
0.0
11
29.500
21
69.000
31
0.0
0
LINE
5
504
8
JW_ZUKEI
6
CONTINUOUS
62
  7
10
29.000
20
66.000
30
0.0
11
29.000
21
66.500
31
0.0
0
LINE
5
505
8
JW_ZUKEI
6
CONTINUOUS
62
  7
10
28.000
20
68.000
30
0.0
11
28.000
21
67.500
31
0.0
0
LINE
5
506
8
JW_ZUKEI
6
CONTINUOUS
62
  7
10
29.000
20
66.500
30
0.0
11
29.500
21
66.500
31
0.0
0
LINE
5
507
8
JW_ZUKEI
6
CONTINUOUS
62
  7
10
27.500
20
67.500
30
0.0
11
28.000
21
67.500
31
0.0
0
LINE
5
508
8
JW_ZUKEI
6
CONTINUOUS
62
  7
10
29.500
20
66.500
30
0.0
11
29.500
21
67.000
31
0.0
0
LINE
5
509
8
JW_ZUKEI
6
CONTINUOUS
62
  7
10
29.500
20
67.000
30
0.0
11
30.000
21
67.000
31
0.0
0
LINE
5
50a
8
JW_ZUKEI
6
CONTINUOUS
62
  7
10
28.500
20
66.000
30
0.0
11
29.000
21
66.000
31
0.0
0
LINE
5
50b
8
JW_ZUKEI
6
CONTINUOUS
62
  7
10
27.000
20
66.500
30
0.0
11
27.000
21
67.000
31
0.0
0
LINE
5
50c
8
JW_ZUKEI
6
CONTINUOUS
62
  7
10
26.000
20
66.500
30
0.0
11
27.000
21
66.500
31
0.0
0
LINE
5
50d
8
JW_ZUKEI
6
CONTINUOUS
62
  7
10
27.000
20
67.000
30
0.0
11
27.500
21
67.000
31
0.0
0
LINE
5
50e
8
JW_ZUKEI
6
CONTINUOUS
62
  7
10
27.500
20
67.000
30
0.0
11
27.500
21
67.500
31
0.0
0
LINE
5
50f
8
JW_ZUKEI
6
CONTINUOUS
62
  7
10
27.000
20
59.000
30
0.0
11
27.000
21
59.500
31
0.0
0
LINE
5
510
8
JW_ZUKEI
6
CONTINUOUS
62
  7
10
27.000
20
59.500
30
0.0
11
28.000
21
59.500
31
0.0
0
LINE
5
511
8
JW_ZUKEI
6
CONTINUOUS
62
  7
10
28.000
20
59.500
30
0.0
11
28.000
21
60.000
31
0.0
0
LINE
5
512
8
JW_ZUKEI
6
CONTINUOUS
62
  7
10
26.500
20
58.500
30
0.0
11
26.500
21
59.000
31
0.0
0
LINE
5
513
8
JW_ZUKEI
6
CONTINUOUS
62
  7
10
26.500
20
59.000
30
0.0
11
27.000
21
59.000
31
0.0
0
LINE
5
514
8
JW_ZUKEI
6
CONTINUOUS
62
  7
10
26.000
20
58.500
30
0.0
11
26.500
21
58.500
31
0.0
0
LINE
5
515
8
JW_ZUKEI
6
CONTINUOUS
62
  7
10
26.000
20
58.000
30
0.0
11
26.000
21
58.500
31
0.0
0
LINE
5
516
8
JW_ZUKEI
6
CONTINUOUS
62
  7
10
25.500
20
58.000
30
0.0
11
26.000
21
58.000
31
0.0
0
LINE
5
517
8
JW_ZUKEI
6
CONTINUOUS
62
  7
10
25.500
20
57.000
30
0.0
11
25.500
21
58.000
31
0.0
0
LINE
5
518
8
JW_ZUKEI
6
CONTINUOUS
62
  7
10
25.000
20
57.000
30
0.0
11
25.500
21
57.000
31
0.0
0
LINE
5
519
8
JW_ZUKEI
6
CONTINUOUS
62
  7
10
25.000
20
56.500
30
0.0
11
25.000
21
57.000
31
0.0
0
LINE
5
51a
8
JW_ZUKEI
6
CONTINUOUS
62
  7
10
24.500
20
56.500
30
0.0
11
25.000
21
56.500
31
0.0
0
LINE
5
51b
8
JW_ZUKEI
6
CONTINUOUS
62
  7
10
24.500
20
56.000
30
0.0
11
24.500
21
56.500
31
0.0
0
LINE
5
51c
8
JW_ZUKEI
6
CONTINUOUS
62
  7
10
24.000
20
56.000
30
0.0
11
24.500
21
56.000
31
0.0
0
LINE
5
51d
8
JW_ZUKEI
6
CONTINUOUS
62
  7
10
24.500
20
64.500
30
0.0
11
24.500
21
65.000
31
0.0
0
LINE
5
51e
8
JW_ZUKEI
6
CONTINUOUS
62
  7
10
24.000
20
64.500
30
0.0
11
24.500
21
64.500
31
0.0
0
LINE
5
51f
8
JW_ZUKEI
6
CONTINUOUS
62
  7
10
24.000
20
64.000
30
0.0
11
24.000
21
64.500
31
0.0
0
LINE
5
520
8
JW_ZUKEI
6
CONTINUOUS
62
  7
10
23.500
20
64.000
30
0.0
11
24.000
21
64.000
31
0.0
0
LINE
5
521
8
JW_ZUKEI
6
CONTINUOUS
62
  7
10
23.500
20
63.000
30
0.0
11
23.500
21
64.000
31
0.0
0
LINE
5
522
8
JW_ZUKEI
6
CONTINUOUS
62
  7
10
23.000
20
63.000
30
0.0
11
23.500
21
63.000
31
0.0
0
LINE
5
523
8
JW_ZUKEI
6
CONTINUOUS
62
  7
10
23.000
20
62.000
30
0.0
11
23.000
21
63.000
31
0.0
0
LINE
5
524
8
JW_ZUKEI
6
CONTINUOUS
62
  7
10
22.500
20
62.000
30
0.0
11
23.000
21
62.000
31
0.0
0
LINE
5
525
8
JW_ZUKEI
6
CONTINUOUS
62
  7
10
25.500
20
65.500
30
0.0
11
25.500
21
65.000
31
0.0
0
LINE
5
526
8
JW_ZUKEI
6
CONTINUOUS
62
  7
10
24.500
20
65.000
30
0.0
11
25.500
21
65.000
31
0.0
0
LINE
5
527
8
JW_ZUKEI
6
CONTINUOUS
62
  7
10
26.000
20
65.500
30
0.0
11
26.000
21
66.500
31
0.0
0
LINE
5
528
8
JW_ZUKEI
6
CONTINUOUS
62
  7
10
25.500
20
65.500
30
0.0
11
26.000
21
65.500
31
0.0
0
LINE
5
529
8
JW_ZUKEI
6
CONTINUOUS
62
  7
10
22.500
20
58.000
30
0.0
11
23.000
21
58.000
31
0.0
0
LINE
5
52a
8
JW_ZUKEI
6
CONTINUOUS
62
  7
10
28.500
20
64.000
30
0.0
11
29.000
21
64.000
31
0.0
0
LINE
5
52b
8
JW_ZUKEI
6
CONTINUOUS
62
  7
10
28.500
20
64.000
30
0.0
11
28.500
21
66.000
31
0.0
0
LINE
5
52c
8
JW_ZUKEI
6
CONTINUOUS
62
  7
10
29.000
20
63.000
30
0.0
11
29.000
21
64.000
31
0.0
0
LINE
5
52d
8
JW_ZUKEI
6
CONTINUOUS
62
  7
10
31.000
20
63.000
30
0.0
11
31.000
21
63.500
31
0.0
0
LINE
5
52e
8
JW_ZUKEI
6
CONTINUOUS
62
  7
10
29.000
20
63.000
30
0.0
11
31.000
21
63.000
31
0.0
0
LINE
5
52f
8
JW_ZUKEI
6
CONTINUOUS
62
  7
10
31.000
20
58.500
30
0.0
11
31.500
21
58.500
31
0.0
0
LINE
5
530
8
JW_ZUKEI
6
CONTINUOUS
62
  7
10
31.000
20
57.500
30
0.0
11
31.000
21
58.500
31
0.0
0
LINE
5
531
8
JW_ZUKEI
6
CONTINUOUS
62
  7
10
30.500
20
57.000
30
0.0
11
30.500
21
57.500
31
0.0
0
LINE
5
532
8
JW_ZUKEI
6
CONTINUOUS
62
  7
10
30.500
20
57.500
30
0.0
11
31.000
21
57.500
31
0.0
0
LINE
5
533
8
JW_ZUKEI
6
CONTINUOUS
62
  7
10
30.000
20
56.000
30
0.0
11
30.000
21
57.000
31
0.0
0
LINE
5
534
8
JW_ZUKEI
6
CONTINUOUS
62
  7
10
30.000
20
57.000
30
0.0
11
30.500
21
57.000
31
0.0
0
LINE
5
535
8
JW_ZUKEI
6
CONTINUOUS
62
  7
10
29.500
20
55.500
30
0.0
11
29.500
21
56.000
31
0.0
0
LINE
5
536
8
JW_ZUKEI
6
CONTINUOUS
62
  7
10
29.500
20
56.000
30
0.0
11
30.000
21
56.000
31
0.0
0
LINE
5
537
8
JW_ZUKEI
6
CONTINUOUS
62
  7
10
29.000
20
59.000
30
0.0
11
29.500
21
59.000
31
0.0
0
LINE
5
538
8
JW_ZUKEI
6
CONTINUOUS
62
  7
10
28.000
20
60.000
30
0.0
11
29.500
21
60.000
31
0.0
0
LINE
5
539
8
JW_ZUKEI
6
CONTINUOUS
62
  7
10
29.500
20
59.000
30
0.0
11
29.500
21
60.000
31
0.0
0
LINE
5
53a
8
JW_ZUKEI
6
CONTINUOUS
62
  7
10
31.500
20
58.500
30
0.0
11
31.500
21
59.000
31
0.0
0
LINE
5
53b
8
JW_ZUKEI
6
CONTINUOUS
62
  7
10
43.000
20
60.500
30
0.0
11
43.000
21
61.500
31
0.0
0
LINE
5
53c
8
JW_ZUKEI
6
CONTINUOUS
62
  7
10
43.000
20
60.500
30
0.0
11
43.500
21
60.500
31
0.0
0
LINE
5
53d
8
JW_ZUKEI
6
CONTINUOUS
62
  7
10
42.000
20
61.500
30
0.0
11
43.000
21
61.500
31
0.0
0
LINE
5
53e
8
JW_ZUKEI
6
CONTINUOUS
62
  7
10
42.000
20
61.500
30
0.0
11
42.000
21
62.000
31
0.0
0
LINE
5
53f
8
JW_ZUKEI
6
CONTINUOUS
62
  7
10
41.000
20
62.000
30
0.0
11
42.000
21
62.000
31
0.0
0
LINE
5
540
8
JW_ZUKEI
6
CONTINUOUS
62
  7
10
41.000
20
62.000
30
0.0
11
41.000
21
62.500
31
0.0
0
LINE
5
541
8
JW_ZUKEI
6
CONTINUOUS
62
  7
10
40.500
20
62.500
30
0.0
11
41.000
21
62.500
31
0.0
0
LINE
5
542
8
JW_ZUKEI
6
CONTINUOUS
62
  7
10
40.500
20
62.500
30
0.0
11
40.500
21
63.000
31
0.0
0
LINE
5
543
8
JW_ZUKEI
6
CONTINUOUS
62
  7
10
39.000
20
63.000
30
0.0
11
40.500
21
63.000
31
0.0
0
LINE
5
544
8
JW_ZUKEI
6
CONTINUOUS
62
  7
10
39.000
20
63.000
30
0.0
11
39.000
21
63.500
31
0.0
0
LINE
5
545
8
JW_ZUKEI
6
CONTINUOUS
62
  7
10
31.000
20
63.500
30
0.0
11
33.500
21
63.500
31
0.0
0
LINE
5
546
8
JW_ZUKEI
6
CONTINUOUS
62
  7
10
33.500
20
63.500
30
0.0
11
33.500
21
64.000
31
0.0
0
LINE
5
547
8
JW_ZUKEI
6
CONTINUOUS
62
  7
10
36.500
20
63.500
30
0.0
11
36.500
21
64.000
31
0.0
0
LINE
5
548
8
JW_ZUKEI
6
CONTINUOUS
62
  7
10
36.500
20
63.500
30
0.0
11
39.000
21
63.500
31
0.0
0
LINE
5
549
8
JW_ZUKEI
6
CONTINUOUS
62
  7
10
43.500
20
60.000
30
0.0
11
43.500
21
60.500
31
0.0
0
LINE
5
54a
8
JW_ZUKEI
6
CONTINUOUS
62
  7
10
44.000
20
60.000
30
0.0
11
43.500
21
60.000
31
0.0
0
LINE
5
54b
8
JW_ZUKEI
6
CONTINUOUS
62
  7
10
49.000
20
66.500
30
0.0
11
49.000
21
67.000
31
0.0
0
LINE
5
54c
8
JW_ZUKEI
6
CONTINUOUS
62
  7
10
49.000
20
66.500
30
0.0
11
50.000
21
66.500
31
0.0
0
LINE
5
54d
8
JW_ZUKEI
6
CONTINUOUS
62
  7
10
48.000
20
66.000
30
0.0
11
48.500
21
66.000
31
0.0
0
LINE
5
54e
8
JW_ZUKEI
6
CONTINUOUS
62
  7
10
48.500
20
64.000
30
0.0
11
48.500
21
66.000
31
0.0
0
LINE
5
54f
8
JW_ZUKEI
6
CONTINUOUS
62
  7
10
48.500
20
64.000
30
0.0
11
49.000
21
64.000
31
0.0
0
LINE
5
550
8
JW_ZUKEI
6
CONTINUOUS
62
  7
10
48.500
20
60.000
30
0.0
11
48.500
21
60.500
31
0.0
0
LINE
5
551
8
JW_ZUKEI
6
CONTINUOUS
62
  7
10
46.500
20
60.000
30
0.0
11
48.500
21
60.000
31
0.0
0
LINE
5
552
8
JW_ZUKEI
6
CONTINUOUS
62
  7
10
53.500
20
60.000
30
0.0
11
53.500
21
62.000
31
0.0
0
LINE
5
553
8
JW_ZUKEI
6
CONTINUOUS
62
  7
10
53.500
20
60.000
30
0.0
11
54.000
21
60.000
31
0.0
0
LINE
5
554
8
JW_ZUKEI
6
CONTINUOUS
62
  7
10
50.000
20
66.000
30
0.0
11
50.500
21
66.000
31
0.0
0
LINE
5
555
8
JW_ZUKEI
6
CONTINUOUS
62
  7
10
50.000
20
66.000
30
0.0
11
50.000
21
66.500
31
0.0
0
LINE
5
556
8
JW_ZUKEI
6
CONTINUOUS
62
  7
10
50.500
20
65.500
30
0.0
11
50.500
21
66.000
31
0.0
0
LINE
5
557
8
JW_ZUKEI
6
CONTINUOUS
62
  7
10
50.500
20
65.500
30
0.0
11
51.000
21
65.500
31
0.0
0
LINE
5
558
8
JW_ZUKEI
6
CONTINUOUS
62
  7
10
51.000
20
65.000
30
0.0
11
51.000
21
65.500
31
0.0
0
LINE
5
559
8
JW_ZUKEI
6
CONTINUOUS
62
  7
10
51.000
20
65.000
30
0.0
11
51.500
21
65.000
31
0.0
0
LINE
5
55a
8
JW_ZUKEI
6
CONTINUOUS
62
  7
10
51.500
20
64.500
30
0.0
11
51.500
21
65.000
31
0.0
0
LINE
5
55b
8
JW_ZUKEI
6
CONTINUOUS
62
  7
10
51.500
20
64.500
30
0.0
11
52.000
21
64.500
31
0.0
0
LINE
5
55c
8
JW_ZUKEI
6
CONTINUOUS
62
  7
10
52.000
20
63.500
30
0.0
11
52.000
21
64.500
31
0.0
0
LINE
5
55d
8
JW_ZUKEI
6
CONTINUOUS
62
  7
10
52.000
20
63.500
30
0.0
11
52.500
21
63.500
31
0.0
0
LINE
5
55e
8
JW_ZUKEI
6
CONTINUOUS
62
  7
10
52.500
20
62.500
30
0.0
11
52.500
21
63.500
31
0.0
0
LINE
5
55f
8
JW_ZUKEI
6
CONTINUOUS
62
  7
10
52.500
20
62.500
30
0.0
11
53.000
21
62.500
31
0.0
0
LINE
5
560
8
JW_ZUKEI
6
CONTINUOUS
62
  7
10
53.000
20
62.000
30
0.0
11
53.000
21
62.500
31
0.0
0
LINE
5
561
8
JW_ZUKEI
6
CONTINUOUS
62
  7
10
53.000
20
62.000
30
0.0
11
53.500
21
62.000
31
0.0
0
LINE
5
562
8
JW_ZUKEI
6
CONTINUOUS
62
  7
10
44.000
20
59.500
30
0.0
11
44.000
21
60.000
31
0.0
0
LINE
5
563
8
JW_ZUKEI
6
CONTINUOUS
62
  7
10
44.000
20
59.500
30
0.0
11
46.500
21
59.500
31
0.0
0
LINE
5
564
8
JW_ZUKEI
6
CONTINUOUS
62
  7
10
46.500
20
59.500
30
0.0
11
46.500
21
60.000
31
0.0
0
LINE
5
565
8
JW_ZUKEI
6
CONTINUOUS
62
  7
10
34.500
20
57.000
30
0.0
11
35.000
21
57.000
31
0.0
0
LINE
5
566
8
JW_ZUKEI
6
CONTINUOUS
62
  7
10
44.500
20
43.000
30
0.0
11
44.500
21
43.500
31
0.0
0
LINE
5
567
8
JW_ZUKEI
6
CONTINUOUS
62
  7
10
44.500
20
43.500
30
0.0
11
45.000
21
43.500
31
0.0
0
LINE
5
568
8
JW_ZUKEI
6
CONTINUOUS
62
  7
10
45.000
20
43.500
30
0.0
11
45.000
21
44.000
31
0.0
0
LINE
5
569
8
JW_ZUKEI
6
CONTINUOUS
62
  7
10
45.000
20
44.000
30
0.0
11
45.500
21
44.000
31
0.0
0
LINE
5
56a
8
JW_ZUKEI
6
CONTINUOUS
62
  7
10
45.500
20
44.000
30
0.0
11
45.500
21
45.000
31
0.0
0
LINE
5
56b
8
JW_ZUKEI
6
CONTINUOUS
62
  7
10
45.500
20
45.000
30
0.0
11
46.000
21
45.000
31
0.0
0
LINE
5
56c
8
JW_ZUKEI
6
CONTINUOUS
62
  7
10
46.000
20
45.000
30
0.0
11
46.000
21
45.500
31
0.0
0
LINE
5
56d
8
JW_ZUKEI
6
CONTINUOUS
62
  7
10
46.000
20
45.500
30
0.0
11
46.500
21
45.500
31
0.0
0
LINE
5
56e
8
JW_ZUKEI
6
CONTINUOUS
62
  7
10
47.000
20
50.500
30
0.0
11
47.000
21
51.000
31
0.0
0
LINE
5
56f
8
JW_ZUKEI
6
CONTINUOUS
62
  7
10
47.000
20
51.000
30
0.0
11
48.000
21
51.000
31
0.0
0
LINE
5
570
8
JW_ZUKEI
6
CONTINUOUS
62
  7
10
48.000
20
51.000
30
0.0
11
48.000
21
51.500
31
0.0
0
LINE
5
571
8
JW_ZUKEI
6
CONTINUOUS
62
  7
10
48.000
20
51.500
30
0.0
11
48.500
21
51.500
31
0.0
0
LINE
5
572
8
JW_ZUKEI
6
CONTINUOUS
62
  7
10
48.500
20
51.500
30
0.0
11
48.500
21
52.000
31
0.0
0
LINE
5
573
8
JW_ZUKEI
6
CONTINUOUS
62
  7
10
48.500
20
52.000
30
0.0
11
49.000
21
52.000
31
0.0
0
LINE
5
574
8
JW_ZUKEI
6
CONTINUOUS
62
  7
10
49.000
20
52.000
30
0.0
11
49.000
21
52.500
31
0.0
0
LINE
5
575
8
JW_ZUKEI
6
CONTINUOUS
62
  7
10
49.000
20
52.500
30
0.0
11
50.000
21
52.500
31
0.0
0
LINE
5
576
8
JW_ZUKEI
6
CONTINUOUS
62
  7
10
50.000
20
52.500
30
0.0
11
50.000
21
53.000
31
0.0
0
LINE
5
577
8
JW_ZUKEI
6
CONTINUOUS
62
  7
10
50.000
20
53.000
30
0.0
11
50.500
21
53.000
31
0.0
0
LINE
5
578
8
JW_ZUKEI
6
CONTINUOUS
62
  7
10
50.500
20
53.000
30
0.0
11
50.500
21
53.500
31
0.0
0
LINE
5
579
8
JW_ZUKEI
6
CONTINUOUS
62
  7
10
50.500
20
53.500
30
0.0
11
51.000
21
53.500
31
0.0
0
LINE
5
57a
8
JW_ZUKEI
6
CONTINUOUS
62
  7
10
51.000
20
53.500
30
0.0
11
51.000
21
54.000
31
0.0
0
LINE
5
57b
8
JW_ZUKEI
6
CONTINUOUS
62
  7
10
51.000
20
54.000
30
0.0
11
51.500
21
54.000
31
0.0
0
LINE
5
57c
8
JW_ZUKEI
6
CONTINUOUS
62
  7
10
51.500
20
54.000
30
0.0
11
51.500
21
55.000
31
0.0
0
LINE
5
57d
8
JW_ZUKEI
6
CONTINUOUS
62
  7
10
51.500
20
55.000
30
0.0
11
52.000
21
55.000
31
0.0
0
LINE
5
57e
8
JW_ZUKEI
6
CONTINUOUS
62
  7
10
52.000
20
55.000
30
0.0
11
52.000
21
55.500
31
0.0
0
LINE
5
57f
8
JW_ZUKEI
6
CONTINUOUS
62
  7
10
52.000
20
55.500
30
0.0
11
52.500
21
55.500
31
0.0
0
LINE
5
580
8
JW_ZUKEI
6
CONTINUOUS
62
  7
10
52.500
20
55.500
30
0.0
11
52.500
21
56.000
31
0.0
0
LINE
5
581
8
JW_ZUKEI
6
CONTINUOUS
62
  7
10
52.500
20
56.000
30
0.0
11
53.000
21
56.000
31
0.0
0
LINE
5
582
8
JW_ZUKEI
6
CONTINUOUS
62
  7
10
53.000
20
56.000
30
0.0
11
53.000
21
56.500
31
0.0
0
LINE
5
583
8
JW_ZUKEI
6
CONTINUOUS
62
  7
10
53.000
20
56.500
30
0.0
11
53.500
21
56.500
31
0.0
0
LINE
5
584
8
JW_ZUKEI
6
CONTINUOUS
62
  7
10
53.500
20
58.500
30
0.0
11
54.000
21
58.500
31
0.0
0
LINE
5
585
8
JW_ZUKEI
6
CONTINUOUS
62
  7
10
53.500
20
56.500
30
0.0
11
53.500
21
58.500
31
0.0
0
LINE
5
586
8
JW_ZUKEI
6
CONTINUOUS
62
  7
10
48.500
20
60.500
30
0.0
11
49.000
21
60.500
31
0.0
0
LINE
5
587
8
JW_ZUKEI
6
CONTINUOUS
62
  7
10
49.000
20
60.500
30
0.0
11
49.000
21
64.000
31
0.0
0
LINE
5
588
8
JW_ZUKEI
6
CONTINUOUS
62
  7
10
46.500
20
45.500
30
0.0
11
46.500
21
50.500
31
0.0
0
LINE
5
589
8
JW_ZUKEI
6
CONTINUOUS
62
  7
10
46.500
20
50.500
30
0.0
11
47.000
21
50.500
31
0.0
0
LINE
5
58a
8
JW_ZUKEI
6
CONTINUOUS
62
  7
10
34.000
20
58.500
30
0.0
11
34.000
21
59.000
31
0.0
0
LINE
5
58b
8
JW_ZUKEI
6
CONTINUOUS
62
  7
10
31.500
20
59.000
30
0.0
11
34.000
21
59.000
31
0.0
0
LINE
5
58c
8
JW_ZUKEI
6
CONTINUOUS
62
  7
10
34.500
20
58.000
30
0.0
11
34.500
21
58.500
31
0.0
0
LINE
5
58d
8
JW_ZUKEI
6
CONTINUOUS
62
  7
10
34.000
20
58.500
30
0.0
11
34.500
21
58.500
31
0.0
0
LINE
5
58e
8
JW_ZUKEI
6
CONTINUOUS
62
  7
10
34.500
20
58.000
30
0.0
11
35.000
21
58.000
31
0.0
0
LINE
5
58f
8
JW_ZUKEI
6
CONTINUOUS
62
  7
10
58.500
20
5.000
30
0.0
11
64.000
21
5.000
31
0.0
0
LINE
5
590
8
JW_ZUKEI
6
CONTINUOUS
62
  7
10
58.500
20
4.500
30
0.0
11
58.500
21
5.000
31
0.0
0
LINE
5
591
8
JW_ZUKEI
6
CONTINUOUS
62
  7
10
58.500
20
7.500
30
0.0
11
58.500
21
8.500
31
0.0
0
LINE
5
592
8
JW_ZUKEI
6
CONTINUOUS
62
  7
10
49.000
20
5.000
30
0.0
11
49.500
21
5.000
31
0.0
0
LINE
5
593
8
JW_ZUKEI
6
CONTINUOUS
62
  7
10
49.500
20
4.500
30
0.0
11
49.500
21
5.000
31
0.0
0
LINE
5
594
8
JW_ZUKEI
6
CONTINUOUS
62
  7
10
50.500
20
5.500
30
0.0
11
50.500
21
6.000
31
0.0
0
LINE
5
595
8
JW_ZUKEI
6
CONTINUOUS
62
  7
10
49.000
20
5.500
30
0.0
11
50.500
21
5.500
31
0.0
0
LINE
5
596
8
JW_ZUKEI
6
CONTINUOUS
62
  7
10
52.000
20
6.000
30
0.0
11
52.000
21
6.500
31
0.0
0
LINE
5
597
8
JW_ZUKEI
6
CONTINUOUS
62
  7
10
50.500
20
6.000
30
0.0
11
52.000
21
6.000
31
0.0
0
LINE
5
598
8
JW_ZUKEI
6
CONTINUOUS
62
  7
10
53.500
20
6.500
30
0.0
11
53.500
21
7.000
31
0.0
0
LINE
5
599
8
JW_ZUKEI
6
CONTINUOUS
62
  7
10
52.000
20
6.500
30
0.0
11
53.500
21
6.500
31
0.0
0
LINE
5
59a
8
JW_ZUKEI
6
CONTINUOUS
62
  7
10
54.500
20
7.000
30
0.0
11
54.500
21
7.500
31
0.0
0
LINE
5
59b
8
JW_ZUKEI
6
CONTINUOUS
62
  7
10
53.500
20
7.000
30
0.0
11
54.500
21
7.000
31
0.0
0
LINE
5
59c
8
JW_ZUKEI
6
CONTINUOUS
62
  7
10
55.000
20
7.500
30
0.0
11
55.000
21
8.000
31
0.0
0
LINE
5
59d
8
JW_ZUKEI
6
CONTINUOUS
62
  7
10
54.500
20
7.500
30
0.0
11
55.000
21
7.500
31
0.0
0
LINE
5
59e
8
JW_ZUKEI
6
CONTINUOUS
62
  7
10
56.000
20
8.000
30
0.0
11
56.000
21
8.500
31
0.0
0
LINE
5
59f
8
JW_ZUKEI
6
CONTINUOUS
62
  7
10
55.000
20
8.000
30
0.0
11
56.000
21
8.000
31
0.0
0
LINE
5
5a0
8
JW_ZUKEI
6
CONTINUOUS
62
  7
10
56.000
20
8.500
30
0.0
11
56.500
21
8.500
31
0.0
0
LINE
5
5a1
8
JW_ZUKEI
6
CONTINUOUS
62
  7
10
56.500
20
8.500
30
0.0
11
56.500
21
9.000
31
0.0
0
LINE
5
5a2
8
JW_ZUKEI
6
CONTINUOUS
62
  7
10
56.500
20
9.000
30
0.0
11
57.000
21
9.000
31
0.0
0
LINE
5
5a3
8
JW_ZUKEI
6
CONTINUOUS
62
  7
10
64.000
20
5.500
30
0.0
11
64.500
21
5.500
31
0.0
0
LINE
5
5a4
8
JW_ZUKEI
6
CONTINUOUS
62
  7
10
58.000
20
8.500
30
0.0
11
58.000
21
9.500
31
0.0
0
LINE
5
5a5
8
JW_ZUKEI
6
CONTINUOUS
62
  7
10
58.000
20
8.500
30
0.0
11
58.500
21
8.500
31
0.0
0
LINE
5
5a6
8
JW_ZUKEI
6
CONTINUOUS
62
  7
10
57.500
20
9.500
30
0.0
11
57.500
21
10.000
31
0.0
0
LINE
5
5a7
8
JW_ZUKEI
6
CONTINUOUS
62
  7
10
57.000
20
9.500
30
0.0
11
58.000
21
9.500
31
0.0
0
LINE
5
5a8
8
JW_ZUKEI
6
CONTINUOUS
62
  7
10
57.000
20
9.000
30
0.0
11
57.000
21
9.500
31
0.0
0
LINE
5
5a9
8
JW_ZUKEI
6
CONTINUOUS
62
  7
10
60.500
20
7.500
30
0.0
11
60.500
21
8.000
31
0.0
0
LINE
5
5aa
8
JW_ZUKEI
6
CONTINUOUS
62
  7
10
58.500
20
7.500
30
0.0
11
60.500
21
7.500
31
0.0
0
LINE
5
5ab
8
JW_ZUKEI
6
CONTINUOUS
62
  7
10
64.000
20
7.000
30
0.0
11
65.000
21
7.000
31
0.0
0
LINE
5
5ac
8
JW_ZUKEI
6
CONTINUOUS
62
  7
10
64.000
20
5.000
30
0.0
11
64.000
21
7.000
31
0.0
0
LINE
5
5ad
8
JW_ZUKEI
6
CONTINUOUS
62
  7
10
62.500
20
8.500
30
0.0
11
63.500
21
8.500
31
0.0
0
LINE
5
5ae
8
JW_ZUKEI
6
CONTINUOUS
62
  7
10
65.500
20
7.500
30
0.0
11
65.500
21
8.000
31
0.0
0
LINE
5
5af
8
JW_ZUKEI
6
CONTINUOUS
62
  7
10
65.500
20
8.000
30
0.0
11
66.000
21
8.000
31
0.0
0
LINE
5
5b0
8
JW_ZUKEI
6
CONTINUOUS
62
  7
10
62.500
20
8.000
30
0.0
11
62.500
21
8.500
31
0.0
0
LINE
5
5b1
8
JW_ZUKEI
6
CONTINUOUS
62
  7
10
60.500
20
8.000
30
0.0
11
62.500
21
8.000
31
0.0
0
LINE
5
5b2
8
JW_ZUKEI
6
CONTINUOUS
62
  7
10
65.000
20
7.500
30
0.0
11
65.500
21
7.500
31
0.0
0
LINE
5
5b3
8
JW_ZUKEI
6
CONTINUOUS
62
  7
10
65.000
20
7.000
30
0.0
11
65.000
21
7.500
31
0.0
0
LINE
5
5b4
8
JW_ZUKEI
6
CONTINUOUS
62
  7
10
34.500
20
50.500
30
0.0
11
35.000
21
50.500
31
0.0
0
LINE
5
5b5
8
JW_ZUKEI
6
CONTINUOUS
62
  7
10
35.000
20
50.500
30
0.0
11
35.000
21
58.000
31
0.0
0
LINE
5
5b6
8
JW_ZUKEI
6
CONTINUOUS
62
  7
10
34.500
20
48.500
30
0.0
11
34.500
21
50.500
31
0.0
0
LINE
5
5b7
8
JW_ZUKEI
6
CONTINUOUS
62
  7
10
34.000
20
48.500
30
0.0
11
34.500
21
48.500
31
0.0
0
LINE
5
5b8
8
JW_ZUKEI
6
CONTINUOUS
62
  7
10
34.000
20
48.000
30
0.0
11
34.000
21
48.500
31
0.0
0
LINE
5
5b9
8
JW_ZUKEI
6
CONTINUOUS
62
  7
10
33.500
20
48.000
30
0.0
11
34.000
21
48.000
31
0.0
0
LINE
5
5ba
8
JW_ZUKEI
6
CONTINUOUS
62
  7
10
33.500
20
47.000
30
0.0
11
33.500
21
48.000
31
0.0
0
LINE
5
5bb
8
JW_ZUKEI
6
CONTINUOUS
62
  7
10
30.500
20
47.000
30
0.0
11
33.500
21
47.000
31
0.0
0
LINE
5
5bc
8
JW_ZUKEI
6
CONTINUOUS
62
  7
10
20.000
20
48.000
30
0.0
11
20.000
21
49.000
31
0.0
0
LINE
5
5bd
8
JW_ZUKEI
6
CONTINUOUS
62
  7
10
19.500
20
48.000
30
0.0
11
20.000
21
48.000
31
0.0
0
LINE
5
5be
8
JW_ZUKEI
6
CONTINUOUS
62
  7
10
20.000
20
49.000
30
0.0
11
20.500
21
49.000
31
0.0
0
LINE
5
5bf
8
JW_ZUKEI
6
CONTINUOUS
62
  7
10
20.500
20
49.000
30
0.0
11
20.500
21
49.500
31
0.0
0
LINE
5
5c0
8
JW_ZUKEI
6
CONTINUOUS
62
  7
10
20.500
20
49.500
30
0.0
11
21.000
21
49.500
31
0.0
0
LINE
5
5c1
8
JW_ZUKEI
6
CONTINUOUS
62
  7
10
21.000
20
49.500
30
0.0
11
21.000
21
50.000
31
0.0
0
LINE
5
5c2
8
JW_ZUKEI
6
CONTINUOUS
62
  7
10
21.000
20
50.000
30
0.0
11
21.500
21
50.000
31
0.0
0
LINE
5
5c3
8
JW_ZUKEI
6
CONTINUOUS
62
  7
10
21.500
20
50.000
30
0.0
11
21.500
21
50.500
31
0.0
0
LINE
5
5c4
8
JW_ZUKEI
6
CONTINUOUS
62
  7
10
21.500
20
50.500
30
0.0
11
22.000
21
50.500
31
0.0
0
LINE
5
5c5
8
JW_ZUKEI
6
CONTINUOUS
62
  7
10
22.000
20
50.500
30
0.0
11
22.000
21
51.500
31
0.0
0
LINE
5
5c6
8
JW_ZUKEI
6
CONTINUOUS
62
  7
10
22.000
20
51.500
30
0.0
11
22.500
21
51.500
31
0.0
0
LINE
5
5c7
8
JW_ZUKEI
6
CONTINUOUS
62
  7
10
22.500
20
51.500
30
0.0
11
22.500
21
53.500
31
0.0
0
LINE
5
5c8
8
JW_ZUKEI
6
CONTINUOUS
62
  7
10
23.000
20
53.500
30
0.0
11
23.000
21
58.000
31
0.0
0
LINE
5
5c9
8
JW_ZUKEI
6
CONTINUOUS
62
  7
10
22.500
20
53.500
30
0.0
11
23.000
21
53.500
31
0.0
0
LINE
5
5ca
8
JW_ZUKEI
6
CONTINUOUS
62
  7
10
24.000
20
52.500
30
0.0
11
24.000
21
53.500
31
0.0
0
LINE
5
5cb
8
JW_ZUKEI
6
CONTINUOUS
62
  7
10
24.000
20
52.500
30
0.0
11
25.000
21
52.500
31
0.0
0
LINE
5
5cc
8
JW_ZUKEI
6
CONTINUOUS
62
  7
10
25.000
20
52.500
30
0.0
11
25.000
21
53.000
31
0.0
0
LINE
5
5cd
8
JW_ZUKEI
6
CONTINUOUS
62
  7
10
24.000
20
54.500
30
0.0
11
24.000
21
56.000
31
0.0
0
LINE
5
5ce
8
JW_ZUKEI
6
CONTINUOUS
62
  7
10
24.000
20
54.500
30
0.0
11
26.000
21
54.500
31
0.0
0
LINE
5
5cf
8
JW_ZUKEI
6
CONTINUOUS
62
  7
10
25.500
20
53.000
30
0.0
11
25.500
21
54.500
31
0.0
0
LINE
5
5d0
8
JW_ZUKEI
6
CONTINUOUS
62
  7
10
25.000
20
53.000
30
0.0
11
25.500
21
53.000
31
0.0
0
LINE
5
5d1
8
JW_ZUKEI
6
CONTINUOUS
62
  7
10
26.000
20
54.000
30
0.0
11
26.000
21
54.500
31
0.0
0
LINE
5
5d2
8
JW_ZUKEI
6
CONTINUOUS
62
  7
10
26.000
20
54.000
30
0.0
11
26.500
21
54.000
31
0.0
0
LINE
5
5d3
8
JW_ZUKEI
6
CONTINUOUS
62
  7
10
26.500
20
52.500
30
0.0
11
26.500
21
54.000
31
0.0
0
LINE
5
5d4
8
JW_ZUKEI
6
CONTINUOUS
62
  7
10
26.500
20
52.500
30
0.0
11
27.500
21
52.500
31
0.0
0
LINE
5
5d5
8
JW_ZUKEI
6
CONTINUOUS
62
  7
10
27.500
20
52.500
30
0.0
11
27.500
21
54.000
31
0.0
0
LINE
5
5d6
8
JW_ZUKEI
6
CONTINUOUS
62
  7
10
28.000
20
55.500
30
0.0
11
28.500
21
55.500
31
0.0
0
LINE
5
5d7
8
JW_ZUKEI
6
CONTINUOUS
62
  7
10
28.500
20
55.500
30
0.0
11
28.500
21
56.500
31
0.0
0
LINE
5
5d8
8
JW_ZUKEI
6
CONTINUOUS
62
  7
10
27.500
20
54.000
30
0.0
11
28.000
21
54.000
31
0.0
0
LINE
5
5d9
8
JW_ZUKEI
6
CONTINUOUS
62
  7
10
28.000
20
54.000
30
0.0
11
28.000
21
55.500
31
0.0
0
LINE
5
5da
8
JW_ZUKEI
6
CONTINUOUS
62
  7
10
29.000
20
53.500
30
0.0
11
30.500
21
53.500
31
0.0
0
LINE
5
5db
8
JW_ZUKEI
6
CONTINUOUS
62
  7
10
29.000
20
55.500
30
0.0
11
29.500
21
55.500
31
0.0
0
LINE
5
5dc
8
JW_ZUKEI
6
CONTINUOUS
62
  7
10
28.500
20
56.500
30
0.0
11
29.000
21
56.500
31
0.0
0
LINE
5
5dd
8
JW_ZUKEI
6
CONTINUOUS
62
  7
10
29.000
20
56.500
30
0.0
11
29.000
21
59.000
31
0.0
0
LINE
5
5de
8
JW_ZUKEI
6
CONTINUOUS
62
  7
10
30.500
20
53.000
30
0.0
11
30.500
21
53.500
31
0.0
0
LINE
5
5df
8
JW_ZUKEI
6
CONTINUOUS
62
  7
10
30.500
20
53.000
30
0.0
11
31.000
21
53.000
31
0.0
0
LINE
5
5e0
8
JW_ZUKEI
6
CONTINUOUS
62
  7
10
30.500
20
47.000
30
0.0
11
30.500
21
49.000
31
0.0
0
LINE
5
5e1
8
JW_ZUKEI
6
CONTINUOUS
62
  7
10
30.500
20
49.000
30
0.0
11
31.000
21
49.000
31
0.0
0
LINE
5
5e2
8
JW_ZUKEI
6
CONTINUOUS
62
  7
10
31.000
20
50.000
30
0.0
11
31.500
21
50.000
31
0.0
0
LINE
5
5e3
8
JW_ZUKEI
6
CONTINUOUS
62
  7
10
31.000
20
49.000
30
0.0
11
31.000
21
50.000
31
0.0
0
LINE
5
5e4
8
JW_ZUKEI
6
CONTINUOUS
62
  7
10
31.000
20
51.000
30
0.0
11
31.000
21
53.000
31
0.0
0
LINE
5
5e5
8
JW_ZUKEI
6
CONTINUOUS
62
  7
10
31.000
20
51.000
30
0.0
11
31.500
21
51.000
31
0.0
0
LINE
5
5e6
8
JW_ZUKEI
6
CONTINUOUS
62
  7
10
14.500
20
47.500
30
0.0
11
14.500
21
48.000
31
0.0
0
LINE
5
5e7
8
JW_ZUKEI
6
CONTINUOUS
62
  7
10
14.500
20
48.000
30
0.0
11
15.000
21
48.000
31
0.0
0
LINE
5
5e8
8
JW_ZUKEI
6
CONTINUOUS
62
  7
10
15.000
20
48.000
30
0.0
11
15.000
21
47.500
31
0.0
0
LINE
5
5e9
8
JW_ZUKEI
6
CONTINUOUS
62
  7
10
15.000
20
47.500
30
0.0
11
14.500
21
47.500
31
0.0
0
LINE
5
5ea
8
JW_ZUKEI
6
CONTINUOUS
62
  7
10
15.000
20
46.500
30
0.0
11
15.000
21
47.000
31
0.0
0
LINE
5
5eb
8
JW_ZUKEI
6
CONTINUOUS
62
  7
10
15.000
20
47.000
30
0.0
11
15.500
21
47.000
31
0.0
0
LINE
5
5ec
8
JW_ZUKEI
6
CONTINUOUS
62
  7
10
15.500
20
47.000
30
0.0
11
15.500
21
46.500
31
0.0
0
LINE
5
5ed
8
JW_ZUKEI
6
CONTINUOUS
62
  7
10
15.500
20
46.500
30
0.0
11
15.000
21
46.500
31
0.0
0
LINE
5
5ee
8
JW_ZUKEI
6
CONTINUOUS
62
  7
10
40.226
20
17.000
30
0.0
11
41.000
21
17.000
31
0.0
0
LINE
5
5ef
8
JW_ZUKEI
6
CONTINUOUS
62
  7
10
19.500
20
46.500
30
0.0
11
20.000
21
46.500
31
0.0
0
LINE
5
5f0
8
JW_ZUKEI
6
CONTINUOUS
62
  7
10
20.000
20
45.000
30
0.0
11
20.000
21
46.500
31
0.0
0
LINE
5
5f1
8
JW_ZUKEI
6
CONTINUOUS
62
  7
10
20.000
20
45.000
30
0.0
11
20.500
21
45.000
31
0.0
0
LINE
5
5f2
8
JW_ZUKEI
6
CONTINUOUS
62
  7
10
20.500
20
44.000
30
0.0
11
20.500
21
45.000
31
0.0
0
LINE
5
5f3
8
JW_ZUKEI
6
CONTINUOUS
62
  7
10
20.500
20
44.000
30
0.0
11
21.000
21
44.000
31
0.0
0
LINE
5
5f4
8
JW_ZUKEI
6
CONTINUOUS
62
  7
10
21.000
20
43.500
30
0.0
11
21.000
21
44.000
31
0.0
0
LINE
5
5f5
8
JW_ZUKEI
6
CONTINUOUS
62
  7
10
21.000
20
43.500
30
0.0
11
22.000
21
43.500
31
0.0
0
LINE
5
5f6
8
JW_ZUKEI
6
CONTINUOUS
62
  7
10
22.000
20
43.000
30
0.0
11
22.000
21
43.500
31
0.0
0
LINE
5
5f7
8
JW_ZUKEI
6
CONTINUOUS
62
  7
10
28.500
20
39.000
30
0.0
11
29.500
21
39.000
31
0.0
0
LINE
5
5f8
8
JW_ZUKEI
6
CONTINUOUS
62
  7
10
28.500
20
39.000
30
0.0
11
28.500
21
39.500
31
0.0
0
LINE
5
5f9
8
JW_ZUKEI
6
CONTINUOUS
62
  7
10
27.500
20
39.500
30
0.0
11
28.500
21
39.500
31
0.0
0
LINE
5
5fa
8
JW_ZUKEI
6
CONTINUOUS
62
  7
10
27.500
20
39.500
30
0.0
11
27.500
21
40.000
31
0.0
0
LINE
5
5fb
8
JW_ZUKEI
6
CONTINUOUS
62
  7
10
26.500
20
40.000
30
0.0
11
27.500
21
40.000
31
0.0
0
LINE
5
5fc
8
JW_ZUKEI
6
CONTINUOUS
62
  7
10
26.500
20
40.000
30
0.0
11
26.500
21
40.500
31
0.0
0
LINE
5
5fd
8
JW_ZUKEI
6
CONTINUOUS
62
  7
10
26.000
20
40.500
30
0.0
11
26.500
21
40.500
31
0.0
0
LINE
5
5fe
8
JW_ZUKEI
6
CONTINUOUS
62
  7
10
26.000
20
40.500
30
0.0
11
26.000
21
41.000
31
0.0
0
LINE
5
5ff
8
JW_ZUKEI
6
CONTINUOUS
62
  7
10
25.500
20
41.000
30
0.0
11
26.000
21
41.000
31
0.0
0
LINE
5
600
8
JW_ZUKEI
6
CONTINUOUS
62
  7
10
25.500
20
41.000
30
0.0
11
25.500
21
41.500
31
0.0
0
LINE
5
601
8
JW_ZUKEI
6
CONTINUOUS
62
  7
10
24.500
20
41.500
30
0.0
11
25.500
21
41.500
31
0.0
0
LINE
5
602
8
JW_ZUKEI
6
CONTINUOUS
62
  7
10
24.500
20
41.500
30
0.0
11
24.500
21
42.000
31
0.0
0
LINE
5
603
8
JW_ZUKEI
6
CONTINUOUS
62
  7
10
23.500
20
42.000
30
0.0
11
24.500
21
42.000
31
0.0
0
LINE
5
604
8
JW_ZUKEI
6
CONTINUOUS
62
  7
10
22.500
20
42.500
30
0.0
11
23.500
21
42.500
31
0.0
0
LINE
5
605
8
JW_ZUKEI
6
CONTINUOUS
62
  7
10
23.500
20
42.000
30
0.0
11
23.500
21
42.500
31
0.0
0
LINE
5
606
8
JW_ZUKEI
6
CONTINUOUS
62
  7
10
22.000
20
43.000
30
0.0
11
22.500
21
43.000
31
0.0
0
LINE
5
607
8
JW_ZUKEI
6
CONTINUOUS
62
  7
10
22.500
20
42.500
30
0.0
11
22.500
21
43.000
31
0.0
0
LINE
5
608
8
JW_ZUKEI
6
CONTINUOUS
62
  7
10
44.000
20
42.500
30
0.0
11
44.000
21
43.000
31
0.0
0
LINE
5
609
8
JW_ZUKEI
6
CONTINUOUS
62
  7
10
44.000
20
43.000
30
0.0
11
44.500
21
43.000
31
0.0
0
LINE
5
60a
8
JW_ZUKEI
6
CONTINUOUS
62
  7
10
43.500
20
42.500
30
0.0
11
44.000
21
42.500
31
0.0
0
LINE
5
60b
8
JW_ZUKEI
6
CONTINUOUS
62
  7
10
43.500
20
42.000
30
0.0
11
43.500
21
42.500
31
0.0
0
LINE
5
60c
8
JW_ZUKEI
6
CONTINUOUS
62
  7
10
43.000
20
42.000
30
0.0
11
43.500
21
42.000
31
0.0
0
LINE
5
60d
8
JW_ZUKEI
6
CONTINUOUS
62
  7
10
43.000
20
41.000
30
0.0
11
43.000
21
42.000
31
0.0
0
LINE
5
60e
8
JW_ZUKEI
6
CONTINUOUS
62
  7
10
42.000
20
40.500
30
0.0
11
42.000
21
41.000
31
0.0
0
LINE
5
60f
8
JW_ZUKEI
6
CONTINUOUS
62
  7
10
42.000
20
41.000
30
0.0
11
43.000
21
41.000
31
0.0
0
LINE
5
610
8
JW_ZUKEI
6
CONTINUOUS
62
  7
10
41.500
20
40.000
30
0.0
11
41.500
21
40.500
31
0.0
0
LINE
5
611
8
JW_ZUKEI
6
CONTINUOUS
62
  7
10
41.500
20
40.500
30
0.0
11
42.000
21
40.500
31
0.0
0
LINE
5
612
8
JW_ZUKEI
6
CONTINUOUS
62
  7
10
41.000
20
40.000
30
0.0
11
41.500
21
40.000
31
0.0
0
LINE
5
613
8
JW_ZUKEI
6
CONTINUOUS
62
  7
10
41.000
20
36.000
30
0.0
11
41.000
21
40.000
31
0.0
0
LINE
5
614
8
JW_ZUKEI
6
CONTINUOUS
62
  7
10
41.000
20
36.000
30
0.0
11
41.500
21
36.000
31
0.0
0
LINE
5
615
8
JW_ZUKEI
6
CONTINUOUS
62
  7
10
41.500
20
35.000
30
0.0
11
41.500
21
36.000
31
0.0
0
LINE
5
616
8
JW_ZUKEI
6
CONTINUOUS
62
  7
10
41.500
20
35.000
30
0.0
11
42.000
21
35.000
31
0.0
0
LINE
5
617
8
JW_ZUKEI
6
CONTINUOUS
62
  7
10
29.000
20
36.500
30
0.0
11
29.500
21
36.500
31
0.0
0
LINE
5
618
8
JW_ZUKEI
6
CONTINUOUS
62
  7
10
29.500
20
36.500
30
0.0
11
29.500
21
39.000
31
0.0
0
LINE
5
619
8
JW_ZUKEI
6
CONTINUOUS
62
  7
10
29.000
20
36.000
30
0.0
11
29.000
21
36.500
31
0.0
0
LINE
5
61a
8
JW_ZUKEI
6
CONTINUOUS
62
  7
10
28.500
20
36.000
30
0.0
11
29.000
21
36.000
31
0.0
0
LINE
5
61b
8
JW_ZUKEI
6
CONTINUOUS
62
  7
10
28.500
20
35.500
30
0.0
11
28.500
21
36.000
31
0.0
0
LINE
5
61c
8
JW_ZUKEI
6
CONTINUOUS
62
  7
10
26.500
20
35.500
30
0.0
11
26.500
21
36.000
31
0.0
0
LINE
5
61d
8
JW_ZUKEI
6
CONTINUOUS
62
  7
10
26.500
20
35.500
30
0.0
11
28.500
21
35.500
31
0.0
0
LINE
5
61e
8
JW_ZUKEI
6
CONTINUOUS
62
  7
10
42.000
20
32.500
30
0.0
11
42.500
21
32.500
31
0.0
0
LINE
5
61f
8
JW_ZUKEI
6
CONTINUOUS
62
  7
10
42.000
20
32.500
30
0.0
11
42.000
21
35.000
31
0.0
0
LINE
5
620
8
JW_ZUKEI
6
CONTINUOUS
62
  7
10
42.000
20
28.500
30
0.0
11
43.000
21
28.500
31
0.0
0
LINE
5
621
8
JW_ZUKEI
6
CONTINUOUS
62
  7
10
42.500
20
32.000
30
0.0
11
42.500
21
32.500
31
0.0
0
LINE
5
622
8
JW_ZUKEI
6
CONTINUOUS
62
  7
10
42.500
20
32.000
30
0.0
11
43.000
21
32.000
31
0.0
0
LINE
5
623
8
JW_ZUKEI
6
CONTINUOUS
62
  7
10
42.000
20
24.500
30
0.0
11
42.500
21
24.500
31
0.0
0
LINE
5
624
8
JW_ZUKEI
6
CONTINUOUS
62
  7
10
42.000
20
24.500
30
0.0
11
42.000
21
28.500
31
0.0
0
LINE
5
625
8
JW_ZUKEI
6
CONTINUOUS
62
  7
10
42.500
20
23.500
30
0.0
11
42.500
21
24.500
31
0.0
0
LINE
5
626
8
JW_ZUKEI
6
CONTINUOUS
62
  7
10
42.500
20
23.500
30
0.0
11
43.000
21
23.500
31
0.0
0
LINE
5
627
8
JW_ZUKEI
6
CONTINUOUS
62
  7
10
43.000
20
22.000
30
0.0
11
43.000
21
23.500
31
0.0
0
LINE
5
628
8
JW_ZUKEI
6
CONTINUOUS
62
  7
10
43.000
20
22.000
30
0.0
11
43.500
21
22.000
31
0.0
0
LINE
5
629
8
JW_ZUKEI
6
CONTINUOUS
62
  7
10
43.500
20
20.500
30
0.0
11
43.500
21
22.000
31
0.0
0
LINE
5
62a
8
JW_ZUKEI
6
CONTINUOUS
62
  7
10
43.500
20
20.500
30
0.0
11
44.000
21
20.500
31
0.0
0
LINE
5
62b
8
JW_ZUKEI
6
CONTINUOUS
62
  7
10
44.000
20
20.000
30
0.0
11
44.000
21
20.500
31
0.0
0
LINE
5
62c
8
JW_ZUKEI
6
CONTINUOUS
62
  7
10
44.000
20
20.000
30
0.0
11
44.500
21
20.000
31
0.0
0
LINE
5
62d
8
JW_ZUKEI
6
CONTINUOUS
62
  7
10
44.500
20
19.500
30
0.0
11
44.500
21
20.000
31
0.0
0
LINE
5
62e
8
JW_ZUKEI
6
CONTINUOUS
62
  7
10
44.500
20
19.500
30
0.0
11
45.000
21
19.500
31
0.0
0
LINE
5
62f
8
JW_ZUKEI
6
CONTINUOUS
62
  7
10
45.000
20
19.000
30
0.0
11
45.000
21
19.500
31
0.0
0
LINE
5
630
8
JW_ZUKEI
6
CONTINUOUS
62
  7
10
45.000
20
19.000
30
0.0
11
45.500
21
19.000
31
0.0
0
LINE
5
631
8
JW_ZUKEI
6
CONTINUOUS
62
  7
10
45.500
20
18.500
30
0.0
11
45.500
21
19.000
31
0.0
0
LINE
5
632
8
JW_ZUKEI
6
CONTINUOUS
62
  7
10
45.500
20
18.500
30
0.0
11
46.000
21
18.500
31
0.0
0
LINE
5
633
8
JW_ZUKEI
6
CONTINUOUS
62
  7
10
46.000
20
18.000
30
0.0
11
46.000
21
18.500
31
0.0
0
LINE
5
634
8
JW_ZUKEI
6
CONTINUOUS
62
  7
10
46.000
20
18.000
30
0.0
11
47.000
21
18.000
31
0.0
0
LINE
5
635
8
JW_ZUKEI
6
CONTINUOUS
62
  7
10
41.000
20
17.500
30
0.0
11
42.500
21
17.500
31
0.0
0
LINE
5
636
8
JW_ZUKEI
6
CONTINUOUS
62
  7
10
42.500
20
17.000
30
0.0
11
42.500
21
17.500
31
0.0
0
LINE
5
637
8
JW_ZUKEI
6
CONTINUOUS
62
  7
10
43.500
20
16.500
30
0.0
11
43.500
21
17.000
31
0.0
0
LINE
5
638
8
JW_ZUKEI
6
CONTINUOUS
62
  7
10
42.500
20
17.000
30
0.0
11
43.500
21
17.000
31
0.0
0
LINE
5
639
8
JW_ZUKEI
6
CONTINUOUS
62
  7
10
43.500
20
16.500
30
0.0
11
44.000
21
16.500
31
0.0
0
LINE
5
63a
8
JW_ZUKEI
6
CONTINUOUS
62
  7
10
44.000
20
16.000
30
0.0
11
44.000
21
16.500
31
0.0
0
LINE
5
63b
8
JW_ZUKEI
6
CONTINUOUS
62
  7
10
44.000
20
16.000
30
0.0
11
45.000
21
16.000
31
0.0
0
LINE
5
63c
8
JW_ZUKEI
6
CONTINUOUS
62
  7
10
45.000
20
15.500
30
0.0
11
45.000
21
16.000
31
0.0
0
LINE
5
63d
8
JW_ZUKEI
6
CONTINUOUS
62
  7
10
45.000
20
15.500
30
0.0
11
46.000
21
15.500
31
0.0
0
LINE
5
63e
8
JW_ZUKEI
6
CONTINUOUS
62
  7
10
46.000
20
15.000
30
0.0
11
46.000
21
15.500
31
0.0
0
LINE
5
63f
8
JW_ZUKEI
6
CONTINUOUS
62
  7
10
47.000
20
17.500
30
0.0
11
47.000
21
18.000
31
0.0
0
LINE
5
640
8
JW_ZUKEI
6
CONTINUOUS
62
  7
10
47.000
20
17.500
30
0.0
11
47.500
21
17.500
31
0.0
0
LINE
5
641
8
JW_ZUKEI
6
CONTINUOUS
62
  7
10
47.500
20
17.000
30
0.0
11
47.500
21
17.500
31
0.0
0
LINE
5
642
8
JW_ZUKEI
6
CONTINUOUS
62
  7
10
47.500
20
17.000
30
0.0
11
48.500
21
17.000
31
0.0
0
LINE
5
643
8
JW_ZUKEI
6
CONTINUOUS
62
  7
10
48.500
20
16.500
30
0.0
11
48.500
21
17.000
31
0.0
0
LINE
5
644
8
JW_ZUKEI
6
CONTINUOUS
62
  7
10
48.500
20
16.500
30
0.0
11
50.500
21
16.500
31
0.0
0
LINE
5
645
8
JW_ZUKEI
6
CONTINUOUS
62
  7
10
50.500
20
16.000
30
0.0
11
50.500
21
16.500
31
0.0
0
LINE
5
646
8
JW_ZUKEI
6
CONTINUOUS
62
  7
10
50.500
20
16.000
30
0.0
11
52.000
21
16.000
31
0.0
0
LINE
5
647
8
JW_ZUKEI
6
CONTINUOUS
62
  7
10
48.000
20
14.500
30
0.0
11
48.500
21
14.500
31
0.0
0
LINE
5
648
8
JW_ZUKEI
6
CONTINUOUS
62
  7
10
48.500
20
14.000
30
0.0
11
48.500
21
14.500
31
0.0
0
LINE
5
649
8
JW_ZUKEI
6
CONTINUOUS
62
  7
10
46.000
20
15.000
30
0.0
11
48.000
21
15.000
31
0.0
0
LINE
5
64a
8
JW_ZUKEI
6
CONTINUOUS
62
  7
10
48.000
20
14.500
30
0.0
11
48.000
21
15.000
31
0.0
0
LINE
5
64b
8
JW_ZUKEI
6
CONTINUOUS
62
  7
10
54.000
20
15.500
30
0.0
11
52.000
21
15.500
31
0.0
0
LINE
5
64c
8
JW_ZUKEI
6
CONTINUOUS
62
  7
10
52.000
20
15.500
30
0.0
11
52.000
21
16.000
31
0.0
0
LINE
5
64d
8
JW_ZUKEI
6
CONTINUOUS
62
  7
10
51.000
20
13.500
30
0.0
11
51.000
21
14.000
31
0.0
0
LINE
5
64e
8
JW_ZUKEI
6
CONTINUOUS
62
  7
10
48.500
20
14.000
30
0.0
11
51.000
21
14.000
31
0.0
0
LINE
5
64f
8
JW_ZUKEI
6
CONTINUOUS
62
  7
10
54.000
20
15.000
30
0.0
11
54.000
21
15.500
31
0.0
0
LINE
5
650
8
JW_ZUKEI
6
CONTINUOUS
62
  7
10
54.000
20
15.000
30
0.0
11
56.000
21
15.000
31
0.0
0
LINE
5
651
8
JW_ZUKEI
6
CONTINUOUS
62
  7
10
56.000
20
14.500
30
0.0
11
56.000
21
15.000
31
0.0
0
LINE
5
652
8
JW_ZUKEI
6
CONTINUOUS
62
  7
10
56.000
20
14.500
30
0.0
11
58.000
21
14.500
31
0.0
0
LINE
5
653
8
JW_ZUKEI
6
CONTINUOUS
62
  7
10
51.000
20
13.500
30
0.0
11
54.000
21
13.500
31
0.0
0
LINE
5
654
8
JW_ZUKEI
6
CONTINUOUS
62
  7
10
54.000
20
13.000
30
0.0
11
54.000
21
13.500
31
0.0
0
LINE
5
655
8
JW_ZUKEI
6
CONTINUOUS
62
  7
10
54.000
20
13.000
30
0.0
11
56.500
21
13.000
31
0.0
0
LINE
5
656
8
JW_ZUKEI
6
CONTINUOUS
62
  7
10
56.500
20
12.500
30
0.0
11
56.500
21
13.000
31
0.0
0
LINE
5
657
8
JW_ZUKEI
6
CONTINUOUS
62
  7
10
56.500
20
12.500
30
0.0
11
58.500
21
12.500
31
0.0
0
LINE
5
658
8
JW_ZUKEI
6
CONTINUOUS
62
  7
10
58.500
20
12.000
30
0.0
11
58.500
21
12.500
31
0.0
0
LINE
5
659
8
JW_ZUKEI
6
CONTINUOUS
62
  7
10
58.500
20
12.000
30
0.0
11
60.500
21
12.000
31
0.0
0
LINE
5
65a
8
JW_ZUKEI
6
CONTINUOUS
62
  7
10
60.500
20
11.500
30
0.0
11
60.500
21
12.000
31
0.0
0
LINE
5
65b
8
JW_ZUKEI
6
CONTINUOUS
62
  7
10
61.000
20
13.000
30
0.0
11
61.000
21
13.500
31
0.0
0
LINE
5
65c
8
JW_ZUKEI
6
CONTINUOUS
62
  7
10
62.500
20
13.000
30
0.0
11
61.000
21
13.000
31
0.0
0
LINE
5
65d
8
JW_ZUKEI
6
CONTINUOUS
62
  7
10
62.500
20
12.500
30
0.0
11
62.500
21
13.000
31
0.0
0
LINE
5
65e
8
JW_ZUKEI
6
CONTINUOUS
62
  7
10
64.500
20
12.500
30
0.0
11
62.500
21
12.500
31
0.0
0
LINE
5
65f
8
JW_ZUKEI
6
CONTINUOUS
62
  7
10
61.500
20
11.000
30
0.0
11
61.500
21
11.500
31
0.0
0
LINE
5
660
8
JW_ZUKEI
6
CONTINUOUS
62
  7
10
60.500
20
11.500
30
0.0
11
61.500
21
11.500
31
0.0
0
LINE
5
661
8
JW_ZUKEI
6
CONTINUOUS
62
  7
10
65.000
20
11.500
30
0.0
11
65.000
21
12.000
31
0.0
0
LINE
5
662
8
JW_ZUKEI
6
CONTINUOUS
62
  7
10
65.000
20
11.500
30
0.0
11
65.500
21
11.500
31
0.0
0
LINE
5
663
8
JW_ZUKEI
6
CONTINUOUS
62
  7
10
64.500
20
12.000
30
0.0
11
64.500
21
12.500
31
0.0
0
LINE
5
664
8
JW_ZUKEI
6
CONTINUOUS
62
  7
10
65.000
20
12.000
30
0.0
11
64.500
21
12.000
31
0.0
0
LINE
5
665
8
JW_ZUKEI
6
CONTINUOUS
62
  7
10
62.500
20
10.500
30
0.0
11
62.500
21
11.000
31
0.0
0
LINE
5
666
8
JW_ZUKEI
6
CONTINUOUS
62
  7
10
61.500
20
11.000
30
0.0
11
62.500
21
11.000
31
0.0
0
LINE
5
667
8
JW_ZUKEI
6
CONTINUOUS
62
  7
10
65.500
20
11.500
30
0.0
11
65.500
21
10.500
31
0.0
0
LINE
5
668
8
JW_ZUKEI
6
CONTINUOUS
62
  7
10
65.500
20
10.500
30
0.0
11
66.000
21
10.500
31
0.0
0
LINE
5
669
8
JW_ZUKEI
6
CONTINUOUS
62
  7
10
63.000
20
10.000
30
0.0
11
63.000
21
10.500
31
0.0
0
LINE
5
66a
8
JW_ZUKEI
6
CONTINUOUS
62
  7
10
62.500
20
10.500
30
0.0
11
63.000
21
10.500
31
0.0
0
LINE
5
66b
8
JW_ZUKEI
6
CONTINUOUS
62
  7
10
63.000
20
10.000
30
0.0
11
63.500
21
10.000
31
0.0
0
LINE
5
66c
8
JW_ZUKEI
6
CONTINUOUS
62
  7
10
63.500
20
8.500
30
0.0
11
63.500
21
10.000
31
0.0
0
LINE
5
66d
8
JW_ZUKEI
6
CONTINUOUS
62
  7
10
58.000
20
14.000
30
0.0
11
58.000
21
14.500
31
0.0
0
LINE
5
66e
8
JW_ZUKEI
6
CONTINUOUS
62
  7
10
58.000
20
14.000
30
0.0
11
59.000
21
14.000
31
0.0
0
LINE
5
66f
8
JW_ZUKEI
6
CONTINUOUS
62
  7
10
59.000
20
13.500
30
0.0
11
59.000
21
14.000
31
0.0
0
LINE
5
670
8
JW_ZUKEI
6
CONTINUOUS
62
  7
10
59.000
20
13.500
30
0.0
11
61.000
21
13.500
31
0.0
0
LINE
5
671
8
JW_ZUKEI
6
CONTINUOUS
62
  7
10
24.000
20
36.000
30
0.0
11
26.500
21
36.000
31
0.0
0
LINE
5
672
8
JW_ZUKEI
6
CONTINUOUS
62
  7
10
24.000
20
36.000
30
0.0
11
24.000
21
37.000
31
0.0
0
LINE
5
673
8
JW_ZUKEI
6
CONTINUOUS
62
  7
10
24.000
20
37.000
30
0.0
11
25.000
21
37.000
31
0.0
0
LINE
5
674
8
JW_ZUKEI
6
CONTINUOUS
62
  7
10
24.500
20
38.500
30
0.0
11
24.500
21
39.500
31
0.0
0
LINE
5
675
8
JW_ZUKEI
6
CONTINUOUS
62
  7
10
24.500
20
38.500
30
0.0
11
25.000
21
38.500
31
0.0
0
LINE
5
676
8
JW_ZUKEI
6
CONTINUOUS
62
  7
10
23.500
20
39.500
30
0.0
11
23.500
21
40.000
31
0.0
0
LINE
5
677
8
JW_ZUKEI
6
CONTINUOUS
62
  7
10
23.500
20
39.500
30
0.0
11
24.500
21
39.500
31
0.0
0
LINE
5
678
8
JW_ZUKEI
6
CONTINUOUS
62
  7
10
19.000
20
36.000
30
0.0
11
19.500
21
36.000
31
0.0
0
LINE
5
679
8
JW_ZUKEI
6
CONTINUOUS
62
  7
10
19.000
20
37.500
30
0.0
11
19.500
21
37.500
31
0.0
0
LINE
5
67a
8
JW_ZUKEI
6
CONTINUOUS
62
  7
10
19.500
20
36.000
30
0.0
11
19.500
21
37.500
31
0.0
0
LINE
5
67b
8
JW_ZUKEI
6
CONTINUOUS
62
  7
10
19.500
20
39.000
30
0.0
11
19.500
21
39.500
31
0.0
0
LINE
5
67c
8
JW_ZUKEI
6
CONTINUOUS
62
  7
10
19.500
20
39.000
30
0.0
11
20.500
21
39.000
31
0.0
0
LINE
5
67d
8
JW_ZUKEI
6
CONTINUOUS
62
  7
10
20.500
20
39.000
30
0.0
11
20.500
21
39.500
31
0.0
0
LINE
5
67e
8
JW_ZUKEI
6
CONTINUOUS
62
  7
10
21.500
20
39.500
30
0.0
11
21.500
21
40.000
31
0.0
0
LINE
5
67f
8
JW_ZUKEI
6
CONTINUOUS
62
  7
10
20.500
20
39.500
30
0.0
11
21.500
21
39.500
31
0.0
0
LINE
5
680
8
JW_ZUKEI
6
CONTINUOUS
62
  7
10
16.500
20
39.000
30
0.0
11
16.500
21
39.500
31
0.0
0
LINE
5
681
8
JW_ZUKEI
6
CONTINUOUS
62
  7
10
16.500
20
39.500
30
0.0
11
17.500
21
39.500
31
0.0
0
LINE
5
682
8
JW_ZUKEI
6
CONTINUOUS
62
  7
10
17.500
20
39.000
30
0.0
11
17.500
21
39.500
31
0.0
0
LINE
5
683
8
JW_ZUKEI
6
CONTINUOUS
62
  7
10
19.000
20
39.500
30
0.0
11
19.000
21
40.000
31
0.0
0
LINE
5
684
8
JW_ZUKEI
6
CONTINUOUS
62
  7
10
19.000
20
39.500
30
0.0
11
19.500
21
39.500
31
0.0
0
LINE
5
685
8
JW_ZUKEI
6
CONTINUOUS
62
  7
10
17.500
20
39.000
30
0.0
11
18.500
21
39.000
31
0.0
0
LINE
5
686
8
JW_ZUKEI
6
CONTINUOUS
62
  7
10
18.500
20
38.500
30
0.0
11
18.500
21
39.000
31
0.0
0
LINE
5
687
8
JW_ZUKEI
6
CONTINUOUS
62
  7
10
18.500
20
38.500
30
0.0
11
19.000
21
38.500
31
0.0
0
LINE
5
688
8
JW_ZUKEI
6
CONTINUOUS
62
  7
10
19.000
20
37.500
30
0.0
11
19.000
21
38.500
31
0.0
0
LINE
5
689
8
JW_ZUKEI
6
CONTINUOUS
62
  7
10
18.500
20
40.000
30
0.0
11
19.000
21
40.000
31
0.0
0
LINE
5
68a
8
JW_ZUKEI
6
CONTINUOUS
62
  7
10
18.500
20
40.000
30
0.0
11
18.500
21
41.214
31
0.0
0
LINE
5
68b
8
JW_ZUKEI
6
CONTINUOUS
62
  7
10
16.000
20
46.000
30
0.0
11
16.500
21
46.000
31
0.0
0
LINE
5
68c
8
JW_ZUKEI
6
CONTINUOUS
62
  7
10
16.500
20
45.000
30
0.0
11
16.500
21
46.000
31
0.0
0
LINE
5
68d
8
JW_ZUKEI
6
CONTINUOUS
62
  7
10
17.000
20
46.000
30
0.0
11
17.000
21
46.500
31
0.0
0
LINE
5
68e
8
JW_ZUKEI
6
CONTINUOUS
62
  7
10
17.000
20
46.000
30
0.0
11
17.500
21
46.000
31
0.0
0
LINE
5
68f
8
JW_ZUKEI
6
CONTINUOUS
62
  7
10
16.500
20
46.500
30
0.0
11
16.500
21
47.000
31
0.0
0
LINE
5
690
8
JW_ZUKEI
6
CONTINUOUS
62
  7
10
16.000
20
46.500
30
0.0
11
17.000
21
46.500
31
0.0
0
LINE
5
691
8
JW_ZUKEI
6
CONTINUOUS
62
  7
10
16.000
20
46.000
30
0.0
11
16.000
21
46.500
31
0.0
0
LINE
5
692
8
JW_ZUKEI
6
CONTINUOUS
62
  7
10
18.000
20
45.000
30
0.0
11
18.000
21
45.500
31
0.0
0
LINE
5
693
8
JW_ZUKEI
6
CONTINUOUS
62
  7
10
18.000
20
45.000
30
0.0
11
18.500
21
45.000
31
0.0
0
LINE
5
694
8
JW_ZUKEI
6
CONTINUOUS
62
  7
10
18.500
20
44.000
30
0.0
11
18.500
21
45.000
31
0.0
0
LINE
5
695
8
JW_ZUKEI
6
CONTINUOUS
62
  7
10
18.500
20
44.000
30
0.0
11
19.000
21
44.000
31
0.0
0
LINE
5
696
8
JW_ZUKEI
6
CONTINUOUS
62
  7
10
18.000
20
43.500
30
0.0
11
18.000
21
44.000
31
0.0
0
LINE
5
697
8
JW_ZUKEI
6
CONTINUOUS
62
  7
10
17.500
20
44.000
30
0.0
11
18.000
21
44.000
31
0.0
0
LINE
5
698
8
JW_ZUKEI
6
CONTINUOUS
62
  7
10
18.000
20
43.500
30
0.0
11
18.500
21
43.500
31
0.0
0
LINE
5
699
8
JW_ZUKEI
6
CONTINUOUS
62
  7
10
18.500
20
41.214
30
0.0
11
18.500
21
43.500
31
0.0
0
LINE
5
69a
8
JW_ZUKEI
6
CONTINUOUS
62
  7
10
15.500
20
41.000
30
0.0
11
16.000
21
41.000
31
0.0
0
LINE
5
69b
8
JW_ZUKEI
6
CONTINUOUS
62
  7
10
16.500
20
41.500
30
0.0
11
16.500
21
42.000
31
0.0
0
LINE
5
69c
8
JW_ZUKEI
6
CONTINUOUS
62
  7
10
16.500
20
41.500
30
0.0
11
19.000
21
41.500
31
0.0
0
LINE
5
69d
8
JW_ZUKEI
6
CONTINUOUS
62
  7
10
15.000
20
41.500
30
0.0
11
15.500
21
41.500
31
0.0
0
LINE
5
69e
8
JW_ZUKEI
6
CONTINUOUS
62
  7
10
15.500
20
41.000
30
0.0
11
15.500
21
41.500
31
0.0
0
LINE
5
69f
8
JW_ZUKEI
6
CONTINUOUS
62
  7
10
15.500
20
42.000
30
0.0
11
15.500
21
42.500
31
0.0
0
LINE
5
6a0
8
JW_ZUKEI
6
CONTINUOUS
62
  7
10
15.500
20
42.000
30
0.0
11
16.500
21
42.000
31
0.0
0
LINE
5
6a1
8
JW_ZUKEI
6
CONTINUOUS
62
  7
10
14.500
20
42.000
30
0.0
11
15.000
21
42.000
31
0.0
0
LINE
5
6a2
8
JW_ZUKEI
6
CONTINUOUS
62
  7
10
15.000
20
41.500
30
0.0
11
15.000
21
42.000
31
0.0
0
LINE
5
6a3
8
JW_ZUKEI
6
CONTINUOUS
62
  7
10
11.000
20
39.500
30
0.0
11
11.000
21
40.500
31
0.0
0
LINE
5
6a4
8
JW_ZUKEI
6
CONTINUOUS
62
  7
10
9.500
20
39.500
30
0.0
11
11.000
21
39.500
31
0.0
0
LINE
5
6a5
8
JW_ZUKEI
6
CONTINUOUS
62
  7
10
10.500
20
38.500
30
0.0
11
10.500
21
39.000
31
0.0
0
LINE
5
6a6
8
JW_ZUKEI
6
CONTINUOUS
62
  7
10
10.000
20
39.000
30
0.0
11
10.500
21
39.000
31
0.0
0
LINE
5
6a7
8
JW_ZUKEI
6
CONTINUOUS
62
  7
10
11.500
20
39.000
30
0.0
11
11.500
21
40.500
31
0.0
0
LINE
5
6a8
8
JW_ZUKEI
6
CONTINUOUS
62
  7
10
11.500
20
39.000
30
0.0
11
15.000
21
39.000
31
0.0
0
LINE
5
6a9
8
JW_ZUKEI
6
CONTINUOUS
62
  7
10
10.500
20
38.500
30
0.0
11
12.000
21
38.500
31
0.0
0
LINE
5
6aa
8
JW_ZUKEI
6
CONTINUOUS
62
  7
10
12.000
20
38.000
30
0.0
11
12.000
21
38.500
31
0.0
0
LINE
5
6ab
8
JW_ZUKEI
6
CONTINUOUS
62
  7
10
12.000
20
38.000
30
0.0
11
12.500
21
38.000
31
0.0
0
LINE
5
6ac
8
JW_ZUKEI
6
CONTINUOUS
62
  7
10
12.500
20
37.500
30
0.0
11
12.500
21
38.000
31
0.0
0
LINE
5
6ad
8
JW_ZUKEI
6
CONTINUOUS
62
  7
10
15.000
20
38.000
30
0.0
11
15.500
21
38.000
31
0.0
0
LINE
5
6ae
8
JW_ZUKEI
6
CONTINUOUS
62
  7
10
15.000
20
37.500
30
0.0
11
15.000
21
38.000
31
0.0
0
LINE
5
6af
8
JW_ZUKEI
6
CONTINUOUS
62
  7
10
15.500
20
38.000
30
0.0
11
15.500
21
38.500
31
0.0
0
LINE
5
6b0
8
JW_ZUKEI
6
CONTINUOUS
62
  7
10
15.500
20
38.500
30
0.0
11
16.000
21
38.500
31
0.0
0
LINE
5
6b1
8
JW_ZUKEI
6
CONTINUOUS
62
  7
10
15.500
20
39.500
30
0.0
11
16.000
21
39.500
31
0.0
0
LINE
5
6b2
8
JW_ZUKEI
6
CONTINUOUS
62
  7
10
16.000
20
39.500
30
0.0
11
16.000
21
41.000
31
0.0
0
LINE
5
6b3
8
JW_ZUKEI
6
CONTINUOUS
62
  7
10
16.000
20
38.500
30
0.0
11
16.000
21
39.000
31
0.0
0
LINE
5
6b4
8
JW_ZUKEI
6
CONTINUOUS
62
  7
10
16.000
20
39.000
30
0.0
11
16.500
21
39.000
31
0.0
0
LINE
5
6b5
8
JW_ZUKEI
6
CONTINUOUS
62
  7
10
13.000
20
44.000
30
0.0
11
15.000
21
44.000
31
0.0
0
LINE
5
6b6
8
JW_ZUKEI
6
CONTINUOUS
62
  7
10
19.500
20
33.000
30
0.0
11
20.500
21
33.000
31
0.0
0
LINE
5
6b7
8
JW_ZUKEI
6
CONTINUOUS
62
  7
10
20.500
20
32.500
30
0.0
11
20.500
21
33.000
31
0.0
0
LINE
5
6b8
8
JW_ZUKEI
6
CONTINUOUS
62
  7
10
20.500
20
32.500
30
0.0
11
21.000
21
32.500
31
0.0
0
LINE
5
6b9
8
JW_ZUKEI
6
CONTINUOUS
62
  7
10
21.000
20
31.500
30
0.0
11
21.000
21
32.500
31
0.0
0
LINE
5
6ba
8
JW_ZUKEI
6
CONTINUOUS
62
  7
10
21.000
20
31.500
30
0.0
11
21.500
21
31.500
31
0.0
0
LINE
5
6bb
8
JW_ZUKEI
6
CONTINUOUS
62
  7
10
21.500
20
31.000
30
0.0
11
21.500
21
31.500
31
0.0
0
LINE
5
6bc
8
JW_ZUKEI
6
CONTINUOUS
62
  7
10
21.500
20
31.000
30
0.0
11
24.000
21
31.000
31
0.0
0
LINE
5
6bd
8
JW_ZUKEI
6
CONTINUOUS
62
  7
10
24.000
20
30.500
30
0.0
11
24.000
21
31.000
31
0.0
0
LINE
5
6be
8
JW_ZUKEI
6
CONTINUOUS
62
  7
10
24.500
20
30.000
30
0.0
11
24.500
21
30.500
31
0.0
0
LINE
5
6bf
8
JW_ZUKEI
6
CONTINUOUS
62
  7
10
24.000
20
30.500
30
0.0
11
24.500
21
30.500
31
0.0
0
LINE
5
6c0
8
JW_ZUKEI
6
CONTINUOUS
62
  7
10
25.500
20
28.500
30
0.0
11
25.500
21
30.000
31
0.0
0
LINE
5
6c1
8
JW_ZUKEI
6
CONTINUOUS
62
  7
10
24.500
20
30.000
30
0.0
11
25.500
21
30.000
31
0.0
0
LINE
5
6c2
8
JW_ZUKEI
6
CONTINUOUS
62
  7
10
25.500
20
28.500
30
0.0
11
26.000
21
28.500
31
0.0
0
LINE
5
6c3
8
JW_ZUKEI
6
CONTINUOUS
62
  7
10
19.000
20
33.500
30
0.0
11
19.000
21
36.000
31
0.0
0
LINE
5
6c4
8
JW_ZUKEI
6
CONTINUOUS
62
  7
10
19.000
20
33.500
30
0.0
11
19.500
21
33.500
31
0.0
0
LINE
5
6c5
8
JW_ZUKEI
6
CONTINUOUS
62
  7
10
19.500
20
33.000
30
0.0
11
19.500
21
33.500
31
0.0
0
LINE
5
6c6
8
JW_ZUKEI
6
CONTINUOUS
62
  7
10
25.500
20
26.000
30
0.0
11
26.000
21
26.000
31
0.0
0
LINE
5
6c7
8
JW_ZUKEI
6
CONTINUOUS
62
  7
10
26.000
20
26.000
30
0.0
11
26.000
21
28.500
31
0.0
0
LINE
5
6c8
8
JW_ZUKEI
6
CONTINUOUS
62
  7
10
25.500
20
23.500
30
0.0
11
26.000
21
23.500
31
0.0
0
LINE
5
6c9
8
JW_ZUKEI
6
CONTINUOUS
62
  7
10
26.000
20
22.500
30
0.0
11
26.000
21
23.500
31
0.0
0
LINE
5
6ca
8
JW_ZUKEI
6
CONTINUOUS
62
  7
10
26.000
20
22.500
30
0.0
11
26.500
21
22.500
31
0.0
0
LINE
5
6cb
8
JW_ZUKEI
6
CONTINUOUS
62
  7
10
26.500
20
21.500
30
0.0
11
26.500
21
22.500
31
0.0
0
LINE
5
6cc
8
JW_ZUKEI
6
CONTINUOUS
62
  7
10
27.000
20
21.000
30
0.0
11
27.000
21
21.500
31
0.0
0
LINE
5
6cd
8
JW_ZUKEI
6
CONTINUOUS
62
  7
10
26.500
20
21.500
30
0.0
11
27.000
21
21.500
31
0.0
0
LINE
5
6ce
8
JW_ZUKEI
6
CONTINUOUS
62
  7
10
27.000
20
21.000
30
0.0
11
27.500
21
21.000
31
0.0
0
LINE
5
6cf
8
JW_ZUKEI
6
CONTINUOUS
62
  7
10
27.500
20
19.500
30
0.0
11
27.500
21
21.000
31
0.0
0
LINE
5
6d0
8
JW_ZUKEI
6
CONTINUOUS
62
  7
10
27.000
20
19.500
30
0.0
11
27.500
21
19.500
31
0.0
0
LINE
5
6d1
8
JW_ZUKEI
6
CONTINUOUS
62
  7
10
27.000
20
18.500
30
0.0
11
27.500
21
18.500
31
0.0
0
LINE
5
6d2
8
JW_ZUKEI
6
CONTINUOUS
62
  7
10
27.000
20
16.500
30
0.0
11
27.500
21
16.500
31
0.0
0
LINE
5
6d3
8
JW_ZUKEI
6
CONTINUOUS
62
  7
10
27.500
20
16.500
30
0.0
11
27.500
21
18.500
31
0.0
0
LINE
5
6d4
8
JW_ZUKEI
6
CONTINUOUS
62
  7
10
27.500
20
13.500
30
0.0
11
29.000
21
13.500
31
0.0
0
LINE
5
6d5
8
JW_ZUKEI
6
CONTINUOUS
62
  7
10
29.000
20
13.000
30
0.0
11
29.000
21
13.500
31
0.0
0
LINE
5
6d6
8
JW_ZUKEI
6
CONTINUOUS
62
  7
10
27.500
20
13.500
30
0.0
11
27.500
21
14.000
31
0.0
0
LINE
5
6d7
8
JW_ZUKEI
6
CONTINUOUS
62
  7
10
25.500
20
16.000
30
0.0
11
27.000
21
16.000
31
0.0
0
LINE
5
6d8
8
JW_ZUKEI
6
CONTINUOUS
62
  7
10
27.000
20
16.000
30
0.0
11
27.000
21
16.500
31
0.0
0
LINE
5
6d9
8
JW_ZUKEI
6
CONTINUOUS
62
  7
10
20.500
20
15.500
30
0.0
11
25.500
21
15.500
31
0.0
0
LINE
5
6da
8
JW_ZUKEI
6
CONTINUOUS
62
  7
10
25.500
20
15.500
30
0.0
11
25.500
21
16.000
31
0.0
0
LINE
5
6db
8
JW_ZUKEI
6
CONTINUOUS
62
  7
10
24.000
20
13.500
30
0.0
11
24.000
21
14.000
31
0.0
0
LINE
5
6dc
8
JW_ZUKEI
6
CONTINUOUS
62
  7
10
24.000
20
14.000
30
0.0
11
27.500
21
14.000
31
0.0
0
LINE
5
6dd
8
JW_ZUKEI
6
CONTINUOUS
62
  7
10
22.000
20
13.000
30
0.0
11
22.000
21
13.500
31
0.0
0
LINE
5
6de
8
JW_ZUKEI
6
CONTINUOUS
62
  7
10
22.000
20
13.500
30
0.0
11
24.000
21
13.500
31
0.0
0
LINE
5
6df
8
JW_ZUKEI
6
CONTINUOUS
62
  7
10
21.000
20
12.500
30
0.0
11
21.000
21
13.000
31
0.0
0
LINE
5
6e0
8
JW_ZUKEI
6
CONTINUOUS
62
  7
10
21.000
20
13.000
30
0.0
11
22.000
21
13.000
31
0.0
0
LINE
5
6e1
8
JW_ZUKEI
6
CONTINUOUS
62
  7
10
20.500
20
12.000
30
0.0
11
20.500
21
12.500
31
0.0
0
LINE
5
6e2
8
JW_ZUKEI
6
CONTINUOUS
62
  7
10
20.500
20
12.500
30
0.0
11
21.000
21
12.500
31
0.0
0
LINE
5
6e3
8
JW_ZUKEI
6
CONTINUOUS
62
  7
10
20.000
20
15.000
30
0.0
11
20.500
21
15.000
31
0.0
0
LINE
5
6e4
8
JW_ZUKEI
6
CONTINUOUS
62
  7
10
20.000
20
13.500
30
0.0
11
20.500
21
13.500
31
0.0
0
LINE
5
6e5
8
JW_ZUKEI
6
CONTINUOUS
62
  7
10
20.500
20
13.500
30
0.0
11
20.500
21
15.500
31
0.0
0
LINE
5
6e6
8
JW_ZUKEI
6
CONTINUOUS
62
  7
10
29.000
20
13.000
30
0.0
11
30.000
21
13.000
31
0.0
0
LINE
5
6e7
8
JW_ZUKEI
6
CONTINUOUS
62
  7
10
29.500
20
12.000
30
0.0
11
30.000
21
12.000
31
0.0
0
LINE
5
6e8
8
JW_ZUKEI
6
CONTINUOUS
62
  7
10
30.000
20
12.000
30
0.0
11
30.000
21
13.000
31
0.0
0
LINE
5
6e9
8
JW_ZUKEI
6
CONTINUOUS
62
  7
10
29.500
20
11.500
30
0.0
11
29.500
21
12.000
31
0.0
0
LINE
5
6ea
8
JW_ZUKEI
6
CONTINUOUS
62
  7
10
28.500
20
11.500
30
0.0
11
29.500
21
11.500
31
0.0
0
LINE
5
6eb
8
JW_ZUKEI
6
CONTINUOUS
62
  7
10
27.000
20
11.000
30
0.0
11
28.500
21
11.000
31
0.0
0
LINE
5
6ec
8
JW_ZUKEI
6
CONTINUOUS
62
  7
10
28.500
20
11.000
30
0.0
11
28.500
21
11.500
31
0.0
0
LINE
5
6ed
8
JW_ZUKEI
6
CONTINUOUS
62
  7
10
25.500
20
10.500
30
0.0
11
27.000
21
10.500
31
0.0
0
LINE
5
6ee
8
JW_ZUKEI
6
CONTINUOUS
62
  7
10
27.000
20
10.500
30
0.0
11
27.000
21
11.500
31
0.0
0
LINE
5
6ef
8
JW_ZUKEI
6
CONTINUOUS
62
  7
10
24.000
20
10.000
30
0.0
11
26.000
21
10.000
31
0.0
0
LINE
5
6f0
8
JW_ZUKEI
6
CONTINUOUS
62
  7
10
26.000
20
9.500
30
0.0
11
26.000
21
10.000
31
0.0
0
LINE
5
6f1
8
JW_ZUKEI
6
CONTINUOUS
62
  7
10
31.000
20
8.000
30
0.0
11
31.000
21
8.500
31
0.0
0
LINE
5
6f2
8
JW_ZUKEI
6
CONTINUOUS
62
  7
10
31.000
20
8.500
30
0.0
11
36.000
21
8.500
31
0.0
0
LINE
5
6f3
8
JW_ZUKEI
6
CONTINUOUS
62
  7
10
36.000
20
8.500
30
0.0
11
36.000
21
9.000
31
0.0
0
LINE
5
6f4
8
JW_ZUKEI
6
CONTINUOUS
62
  7
10
36.000
20
9.000
30
0.0
11
38.500
21
9.000
31
0.0
0
LINE
5
6f5
8
JW_ZUKEI
6
CONTINUOUS
62
  7
10
38.500
20
9.000
30
0.0
11
38.500
21
9.500
31
0.0
0
LINE
5
6f6
8
JW_ZUKEI
6
CONTINUOUS
62
  7
10
38.500
20
9.500
30
0.0
11
40.000
21
9.500
31
0.0
0
LINE
5
6f7
8
JW_ZUKEI
6
CONTINUOUS
62
  7
10
40.000
20
10.000
30
0.0
11
41.500
21
10.000
31
0.0
0
LINE
5
6f8
8
JW_ZUKEI
6
CONTINUOUS
62
  7
10
40.000
20
9.500
30
0.0
11
40.000
21
10.000
31
0.0
0
LINE
5
6f9
8
JW_ZUKEI
6
CONTINUOUS
62
  7
10
41.500
20
10.000
30
0.0
11
41.500
21
10.500
31
0.0
0
LINE
5
6fa
8
JW_ZUKEI
6
CONTINUOUS
62
  7
10
41.500
20
10.500
30
0.0
11
43.000
21
10.500
31
0.0
0
LINE
5
6fb
8
JW_ZUKEI
6
CONTINUOUS
62
  7
10
43.000
20
12.000
30
0.0
11
43.000
21
13.000
31
0.0
0
LINE
5
6fc
8
JW_ZUKEI
6
CONTINUOUS
62
  7
10
43.000
20
12.000
30
0.0
11
43.500
21
12.000
31
0.0
0
LINE
5
6fd
8
JW_ZUKEI
6
CONTINUOUS
62
  7
10
43.000
20
11.000
30
0.0
11
43.500
21
11.000
31
0.0
0
LINE
5
6fe
8
JW_ZUKEI
6
CONTINUOUS
62
  7
10
43.000
20
10.500
30
0.0
11
43.000
21
11.000
31
0.0
0
LINE
5
6ff
8
JW_ZUKEI
6
CONTINUOUS
62
  7
10
42.500
20
13.000
30
0.0
11
42.500
21
13.500
31
0.0
0
LINE
5
700
8
JW_ZUKEI
6
CONTINUOUS
62
  7
10
42.500
20
13.000
30
0.0
11
43.000
21
13.000
31
0.0
0
LINE
5
701
8
JW_ZUKEI
6
CONTINUOUS
62
  7
10
42.000
20
13.500
30
0.0
11
42.500
21
13.500
31
0.0
0
LINE
5
702
8
JW_ZUKEI
6
CONTINUOUS
62
  7
10
42.000
20
13.500
30
0.0
11
42.000
21
15.000
31
0.0
0
LINE
5
703
8
JW_ZUKEI
6
CONTINUOUS
62
  7
10
41.000
20
16.500
30
0.0
11
41.000
21
17.500
31
0.0
0
LINE
5
704
8
JW_ZUKEI
6
CONTINUOUS
62
  7
10
41.000
20
16.500
30
0.0
11
41.500
21
16.500
31
0.0
0
LINE
5
705
8
JW_ZUKEI
6
CONTINUOUS
62
  7
10
41.500
20
15.000
30
0.0
11
41.500
21
16.500
31
0.0
0
LINE
5
706
8
JW_ZUKEI
6
CONTINUOUS
62
  7
10
41.500
20
15.000
30
0.0
11
42.000
21
15.000
31
0.0
0
LINE
5
707
8
JW_ZUKEI
6
CONTINUOUS
62
  7
10
18.500
20
11.500
30
0.0
11
19.000
21
11.500
31
0.0
0
LINE
5
708
8
JW_ZUKEI
6
CONTINUOUS
62
  7
10
19.000
20
11.500
30
0.0
11
19.000
21
12.000
31
0.0
0
LINE
5
709
8
JW_ZUKEI
6
CONTINUOUS
62
  7
10
30.000
20
51.500
30
0.0
11
30.000
21
53.500
31
0.0
0
LINE
5
70a
8
JW_ZUKEI
6
CONTINUOUS
62
  7
10
29.000
20
51.500
30
0.0
11
30.000
21
51.500
31
0.0
0
LINE
5
70b
8
JW_ZUKEI
6
CONTINUOUS
62
  7
10
29.000
20
51.500
30
0.0
11
29.000
21
55.500
31
0.0
0
ENDSEC
0
EOF
