  0
SECTION
  2
HEADER
  9
$LIMMIN
 10
0.000000
 20
0.000000
  9
$LIMMAX
 10
100.000000
 20
95.238000
  9
$EXTMIN
 10
0.000000
 20
0.000000
  9
$EXTMAX
 10
100.000000
 20
95.238000
  9
$ANGBASE
 50
0.000000
  9
$ANGDIR
 70
0
  9
$INSUNITS
 70
0
  9
$DIMALT
 70
4
  9
$DIMLUNIT
 70
2
  9
$DIMASZ
 40
3.000000
  9
$DIMTXT
 40
5.000000
  9
$DIMRND
 40
0.010000
  9
$DIMEXE
 40
2.000000
  9
$DIMEXO
 40
2.000000
  9
$DIMAUNIT
 70
0
  9
$DIMADEC
 70
2
  9
$GRIDUNIT
 10
0.001000
 20
0.001000
  9
$PLIMMIN
 10
0.000000
 20
0.000000
  9
$PLIMMAX
 10
210.000000
 20
297.000000
  9
$PSVPSCALE
 40
1.000000
  0
ENDSEC
  0
SECTION
  2
TABLES
  0
TABLE
  2
LTYPE
 70
     1
  0
LTYPE
  2
CONTINUOUS
 70
    64
  3
Ausgez
 72
    65
 73
  0
 40
0.000000
  0
ENDTAB
  0
TABLE
  2
LAYER
 70
     1
  0
LAYER
  2
default
 70
    64
 62
0
  6
CONTINUOUS
  0
ENDTAB
  0
ENDSEC
  0
SECTION
  2
BLOCKS
  0
ENDSEC
  0
SECTION
  2
ENTITIES
  0
LINE
  8
default
  6
CONTINUOUS
 10
0.000000
 20
2.381000
 11
4.167000
 21
0.000000
 39
0
 62
7
  0
LINE
  8
default
  6
CONTINUOUS
 10
4.167000
 20
0.000000
 11
8.333000
 21
2.381000
 39
0
 62
7
  0
LINE
  8
default
  6
CONTINUOUS
 10
16.667000
 20
2.381000
 11
20.833000
 21
0.000000
 39
0
 62
7
  0
LINE
  8
default
  6
CONTINUOUS
 10
20.833000
 20
0.000000
 11
25.000000
 21
2.381000
 39
0
 62
7
  0
LINE
  8
default
  6
CONTINUOUS
 10
33.333000
 20
2.381000
 11
37.500000
 21
0.000000
 39
0
 62
7
  0
LINE
  8
default
  6
CONTINUOUS
 10
37.500000
 20
0.000000
 11
41.667000
 21
2.381000
 39
0
 62
7
  0
LINE
  8
default
  6
CONTINUOUS
 10
50.000000
 20
2.381000
 11
54.167000
 21
0.000000
 39
0
 62
7
  0
LINE
  8
default
  6
CONTINUOUS
 10
54.167000
 20
0.000000
 11
58.333000
 21
2.381000
 39
0
 62
7
  0
LINE
  8
default
  6
CONTINUOUS
 10
66.667000
 20
2.381000
 11
70.833000
 21
0.000000
 39
0
 62
7
  0
LINE
  8
default
  6
CONTINUOUS
 10
70.833000
 20
0.000000
 11
75.000000
 21
2.381000
 39
0
 62
7
  0
LINE
  8
default
  6
CONTINUOUS
 10
83.333000
 20
2.381000
 11
87.500000
 21
0.000000
 39
0
 62
7
  0
LINE
  8
default
  6
CONTINUOUS
 10
87.500000
 20
0.000000
 11
91.667000
 21
2.381000
 39
0
 62
7
  0
LINE
  8
default
  6
CONTINUOUS
 10
8.333000
 20
2.381000
 11
8.333000
 21
7.143000
 39
0
 62
7
  0
LINE
  8
default
  6
CONTINUOUS
 10
16.667000
 20
2.381000
 11
16.667000
 21
7.143000
 39
0
 62
7
  0
LINE
  8
default
  6
CONTINUOUS
 10
25.000000
 20
2.381000
 11
25.000000
 21
7.143000
 39
0
 62
7
  0
LINE
  8
default
  6
CONTINUOUS
 10
33.333000
 20
2.381000
 11
33.333000
 21
7.143000
 39
0
 62
7
  0
LINE
  8
default
  6
CONTINUOUS
 10
41.667000
 20
2.381000
 11
41.667000
 21
7.143000
 39
0
 62
7
  0
LINE
  8
default
  6
CONTINUOUS
 10
50.000000
 20
2.381000
 11
50.000000
 21
7.143000
 39
0
 62
7
  0
LINE
  8
default
  6
CONTINUOUS
 10
58.333000
 20
2.381000
 11
58.333000
 21
7.143000
 39
0
 62
7
  0
LINE
  8
default
  6
CONTINUOUS
 10
66.667000
 20
2.381000
 11
66.667000
 21
7.143000
 39
0
 62
7
  0
LINE
  8
default
  6
CONTINUOUS
 10
75.000000
 20
2.381000
 11
75.000000
 21
7.143000
 39
0
 62
7
  0
LINE
  8
default
  6
CONTINUOUS
 10
83.333000
 20
2.381000
 11
83.333000
 21
7.143000
 39
0
 62
7
  0
LINE
  8
default
  6
CONTINUOUS
 10
91.667000
 20
2.381000
 11
91.667000
 21
7.143000
 39
0
 62
7
  0
LINE
  8
default
  6
CONTINUOUS
 10
0.000000
 20
7.143000
 11
4.167000
 21
9.524000
 39
0
 62
7
  0
LINE
  8
default
  6
CONTINUOUS
 10
4.167000
 20
9.524000
 11
8.333000
 21
7.143000
 39
0
 62
7
  0
LINE
  8
default
  6
CONTINUOUS
 10
16.667000
 20
7.143000
 11
20.833000
 21
9.524000
 39
0
 62
7
  0
LINE
  8
default
  6
CONTINUOUS
 10
20.833000
 20
9.524000
 11
25.000000
 21
7.143000
 39
0
 62
7
  0
LINE
  8
default
  6
CONTINUOUS
 10
33.333000
 20
7.143000
 11
37.500000
 21
9.524000
 39
0
 62
7
  0
LINE
  8
default
  6
CONTINUOUS
 10
37.500000
 20
9.524000
 11
41.667000
 21
7.143000
 39
0
 62
7
  0
LINE
  8
default
  6
CONTINUOUS
 10
50.000000
 20
7.143000
 11
54.167000
 21
9.524000
 39
0
 62
7
  0
LINE
  8
default
  6
CONTINUOUS
 10
54.167000
 20
9.524000
 11
58.333000
 21
7.143000
 39
0
 62
7
  0
LINE
  8
default
  6
CONTINUOUS
 10
66.667000
 20
7.143000
 11
70.833000
 21
9.524000
 39
0
 62
7
  0
LINE
  8
default
  6
CONTINUOUS
 10
70.833000
 20
9.524000
 11
75.000000
 21
7.143000
 39
0
 62
7
  0
LINE
  8
default
  6
CONTINUOUS
 10
83.333000
 20
7.143000
 11
87.500000
 21
9.524000
 39
0
 62
7
  0
LINE
  8
default
  6
CONTINUOUS
 10
87.500000
 20
9.524000
 11
91.667000
 21
7.143000
 39
0
 62
7
  0
LINE
  8
default
  6
CONTINUOUS
 10
8.333000
 20
16.667000
 11
12.500000
 21
14.286000
 39
0
 62
7
  0
LINE
  8
default
  6
CONTINUOUS
 10
12.500000
 20
14.286000
 11
16.667000
 21
16.667000
 39
0
 62
7
  0
LINE
  8
default
  6
CONTINUOUS
 10
25.000000
 20
16.667000
 11
29.167000
 21
14.286000
 39
0
 62
7
  0
LINE
  8
default
  6
CONTINUOUS
 10
29.167000
 20
14.286000
 11
33.333000
 21
16.667000
 39
0
 62
7
  0
LINE
  8
default
  6
CONTINUOUS
 10
41.667000
 20
16.667000
 11
45.833000
 21
14.286000
 39
0
 62
7
  0
LINE
  8
default
  6
CONTINUOUS
 10
45.833000
 20
14.286000
 11
50.000000
 21
16.667000
 39
0
 62
7
  0
LINE
  8
default
  6
CONTINUOUS
 10
58.333000
 20
16.667000
 11
62.500000
 21
14.286000
 39
0
 62
7
  0
LINE
  8
default
  6
CONTINUOUS
 10
62.500000
 20
14.286000
 11
66.667000
 21
16.667000
 39
0
 62
7
  0
LINE
  8
default
  6
CONTINUOUS
 10
75.000000
 20
16.667000
 11
79.167000
 21
14.286000
 39
0
 62
7
  0
LINE
  8
default
  6
CONTINUOUS
 10
79.167000
 20
14.286000
 11
83.333000
 21
16.667000
 39
0
 62
7
  0
LINE
  8
default
  6
CONTINUOUS
 10
91.667000
 20
16.667000
 11
95.833000
 21
14.286000
 39
0
 62
7
  0
LINE
  8
default
  6
CONTINUOUS
 10
95.833000
 20
14.286000
 11
100.000000
 21
16.667000
 39
0
 62
7
  0
LINE
  8
default
  6
CONTINUOUS
 10
8.333000
 20
16.667000
 11
8.333000
 21
21.429000
 39
0
 62
7
  0
LINE
  8
default
  6
CONTINUOUS
 10
16.667000
 20
16.667000
 11
16.667000
 21
21.429000
 39
0
 62
7
  0
LINE
  8
default
  6
CONTINUOUS
 10
25.000000
 20
16.667000
 11
25.000000
 21
21.429000
 39
0
 62
7
  0
LINE
  8
default
  6
CONTINUOUS
 10
33.333000
 20
16.667000
 11
33.333000
 21
21.429000
 39
0
 62
7
  0
LINE
  8
default
  6
CONTINUOUS
 10
41.667000
 20
16.667000
 11
41.667000
 21
21.429000
 39
0
 62
7
  0
LINE
  8
default
  6
CONTINUOUS
 10
50.000000
 20
16.667000
 11
50.000000
 21
21.429000
 39
0
 62
7
  0
LINE
  8
default
  6
CONTINUOUS
 10
58.333000
 20
16.667000
 11
58.333000
 21
21.429000
 39
0
 62
7
  0
LINE
  8
default
  6
CONTINUOUS
 10
66.667000
 20
16.667000
 11
66.667000
 21
21.429000
 39
0
 62
7
  0
LINE
  8
default
  6
CONTINUOUS
 10
75.000000
 20
16.667000
 11
75.000000
 21
21.429000
 39
0
 62
7
  0
LINE
  8
default
  6
CONTINUOUS
 10
83.333000
 20
16.667000
 11
83.333000
 21
21.429000
 39
0
 62
7
  0
LINE
  8
default
  6
CONTINUOUS
 10
91.667000
 20
16.667000
 11
91.667000
 21
21.429000
 39
0
 62
7
  0
LINE
  8
default
  6
CONTINUOUS
 10
8.333000
 20
21.429000
 11
12.500000
 21
23.810000
 39
0
 62
7
  0
LINE
  8
default
  6
CONTINUOUS
 10
12.500000
 20
23.810000
 11
16.667000
 21
21.429000
 39
0
 62
7
  0
LINE
  8
default
  6
CONTINUOUS
 10
25.000000
 20
21.429000
 11
29.167000
 21
23.810000
 39
0
 62
7
  0
LINE
  8
default
  6
CONTINUOUS
 10
29.167000
 20
23.810000
 11
33.333000
 21
21.429000
 39
0
 62
7
  0
LINE
  8
default
  6
CONTINUOUS
 10
41.667000
 20
21.429000
 11
45.833000
 21
23.810000
 39
0
 62
7
  0
LINE
  8
default
  6
CONTINUOUS
 10
45.833000
 20
23.810000
 11
50.000000
 21
21.429000
 39
0
 62
7
  0
LINE
  8
default
  6
CONTINUOUS
 10
58.333000
 20
21.429000
 11
62.500000
 21
23.810000
 39
0
 62
7
  0
LINE
  8
default
  6
CONTINUOUS
 10
62.500000
 20
23.810000
 11
66.667000
 21
21.429000
 39
0
 62
7
  0
LINE
  8
default
  6
CONTINUOUS
 10
75.000000
 20
21.429000
 11
79.167000
 21
23.810000
 39
0
 62
7
  0
LINE
  8
default
  6
CONTINUOUS
 10
79.167000
 20
23.810000
 11
83.333000
 21
21.429000
 39
0
 62
7
  0
LINE
  8
default
  6
CONTINUOUS
 10
91.667000
 20
21.429000
 11
95.833000
 21
23.810000
 39
0
 62
7
  0
LINE
  8
default
  6
CONTINUOUS
 10
95.833000
 20
23.810000
 11
100.000000
 21
21.429000
 39
0
 62
7
  0
LINE
  8
default
  6
CONTINUOUS
 10
0.000000
 20
2.381000
 11
0.000000
 21
7.143000
 39
0
 62
7
  0
LINE
  8
default
  6
CONTINUOUS
 10
0.000000
 20
30.952000
 11
4.167000
 21
28.571000
 39
0
 62
7
  0
LINE
  8
default
  6
CONTINUOUS
 10
4.167000
 20
28.571000
 11
8.333000
 21
30.952000
 39
0
 62
7
  0
LINE
  8
default
  6
CONTINUOUS
 10
16.667000
 20
30.952000
 11
20.833000
 21
28.571000
 39
0
 62
7
  0
LINE
  8
default
  6
CONTINUOUS
 10
20.833000
 20
28.571000
 11
25.000000
 21
30.952000
 39
0
 62
7
  0
LINE
  8
default
  6
CONTINUOUS
 10
33.333000
 20
30.952000
 11
37.500000
 21
28.571000
 39
0
 62
7
  0
LINE
  8
default
  6
CONTINUOUS
 10
37.500000
 20
28.571000
 11
41.667000
 21
30.952000
 39
0
 62
7
  0
LINE
  8
default
  6
CONTINUOUS
 10
50.000000
 20
30.952000
 11
54.167000
 21
28.571000
 39
0
 62
7
  0
LINE
  8
default
  6
CONTINUOUS
 10
54.167000
 20
28.571000
 11
58.333000
 21
30.952000
 39
0
 62
7
  0
LINE
  8
default
  6
CONTINUOUS
 10
66.667000
 20
30.952000
 11
70.833000
 21
28.571000
 39
0
 62
7
  0
LINE
  8
default
  6
CONTINUOUS
 10
70.833000
 20
28.571000
 11
75.000000
 21
30.952000
 39
0
 62
7
  0
LINE
  8
default
  6
CONTINUOUS
 10
83.333000
 20
30.952000
 11
87.500000
 21
28.571000
 39
0
 62
7
  0
LINE
  8
default
  6
CONTINUOUS
 10
87.500000
 20
28.571000
 11
91.667000
 21
30.952000
 39
0
 62
7
  0
LINE
  8
default
  6
CONTINUOUS
 10
8.333000
 20
30.952000
 11
8.333000
 21
35.714000
 39
0
 62
7
  0
LINE
  8
default
  6
CONTINUOUS
 10
16.667000
 20
30.952000
 11
16.667000
 21
35.714000
 39
0
 62
7
  0
LINE
  8
default
  6
CONTINUOUS
 10
25.000000
 20
30.952000
 11
25.000000
 21
35.714000
 39
0
 62
7
  0
LINE
  8
default
  6
CONTINUOUS
 10
33.333000
 20
30.952000
 11
33.333000
 21
35.714000
 39
0
 62
7
  0
LINE
  8
default
  6
CONTINUOUS
 10
41.667000
 20
30.952000
 11
41.667000
 21
35.714000
 39
0
 62
7
  0
LINE
  8
default
  6
CONTINUOUS
 10
50.000000
 20
30.952000
 11
50.000000
 21
35.714000
 39
0
 62
7
  0
LINE
  8
default
  6
CONTINUOUS
 10
58.333000
 20
30.952000
 11
58.333000
 21
35.714000
 39
0
 62
7
  0
LINE
  8
default
  6
CONTINUOUS
 10
66.667000
 20
30.952000
 11
66.667000
 21
35.714000
 39
0
 62
7
  0
LINE
  8
default
  6
CONTINUOUS
 10
75.000000
 20
30.952000
 11
75.000000
 21
35.714000
 39
0
 62
7
  0
LINE
  8
default
  6
CONTINUOUS
 10
83.333000
 20
30.952000
 11
83.333000
 21
35.714000
 39
0
 62
7
  0
LINE
  8
default
  6
CONTINUOUS
 10
91.667000
 20
30.952000
 11
91.667000
 21
35.714000
 39
0
 62
7
  0
LINE
  8
default
  6
CONTINUOUS
 10
0.000000
 20
35.714000
 11
4.167000
 21
38.095000
 39
0
 62
7
  0
LINE
  8
default
  6
CONTINUOUS
 10
4.167000
 20
38.095000
 11
8.333000
 21
35.714000
 39
0
 62
7
  0
LINE
  8
default
  6
CONTINUOUS
 10
16.667000
 20
35.714000
 11
20.833000
 21
38.095000
 39
0
 62
7
  0
LINE
  8
default
  6
CONTINUOUS
 10
20.833000
 20
38.095000
 11
25.000000
 21
35.714000
 39
0
 62
7
  0
LINE
  8
default
  6
CONTINUOUS
 10
33.333000
 20
35.714000
 11
37.500000
 21
38.095000
 39
0
 62
7
  0
LINE
  8
default
  6
CONTINUOUS
 10
37.500000
 20
38.095000
 11
41.667000
 21
35.714000
 39
0
 62
7
  0
LINE
  8
default
  6
CONTINUOUS
 10
50.000000
 20
35.714000
 11
54.167000
 21
38.095000
 39
0
 62
7
  0
LINE
  8
default
  6
CONTINUOUS
 10
54.167000
 20
38.095000
 11
58.333000
 21
35.714000
 39
0
 62
7
  0
LINE
  8
default
  6
CONTINUOUS
 10
66.667000
 20
35.714000
 11
70.833000
 21
38.095000
 39
0
 62
7
  0
LINE
  8
default
  6
CONTINUOUS
 10
70.833000
 20
38.095000
 11
75.000000
 21
35.714000
 39
0
 62
7
  0
LINE
  8
default
  6
CONTINUOUS
 10
83.333000
 20
35.714000
 11
87.500000
 21
38.095000
 39
0
 62
7
  0
LINE
  8
default
  6
CONTINUOUS
 10
87.500000
 20
38.095000
 11
91.667000
 21
35.714000
 39
0
 62
7
  0
LINE
  8
default
  6
CONTINUOUS
 10
8.333000
 20
45.238000
 11
12.500000
 21
42.857000
 39
0
 62
7
  0
LINE
  8
default
  6
CONTINUOUS
 10
12.500000
 20
42.857000
 11
16.667000
 21
45.238000
 39
0
 62
7
  0
LINE
  8
default
  6
CONTINUOUS
 10
25.000000
 20
45.238000
 11
29.167000
 21
42.857000
 39
0
 62
7
  0
LINE
  8
default
  6
CONTINUOUS
 10
29.167000
 20
42.857000
 11
33.333000
 21
45.238000
 39
0
 62
7
  0
LINE
  8
default
  6
CONTINUOUS
 10
41.667000
 20
45.238000
 11
45.833000
 21
42.857000
 39
0
 62
7
  0
LINE
  8
default
  6
CONTINUOUS
 10
45.833000
 20
42.857000
 11
50.000000
 21
45.238000
 39
0
 62
7
  0
LINE
  8
default
  6
CONTINUOUS
 10
58.333000
 20
45.238000
 11
62.500000
 21
42.857000
 39
0
 62
7
  0
LINE
  8
default
  6
CONTINUOUS
 10
62.500000
 20
42.857000
 11
66.667000
 21
45.238000
 39
0
 62
7
  0
LINE
  8
default
  6
CONTINUOUS
 10
75.000000
 20
45.238000
 11
79.167000
 21
42.857000
 39
0
 62
7
  0
LINE
  8
default
  6
CONTINUOUS
 10
79.167000
 20
42.857000
 11
83.333000
 21
45.238000
 39
0
 62
7
  0
LINE
  8
default
  6
CONTINUOUS
 10
91.667000
 20
45.238000
 11
95.833000
 21
42.857000
 39
0
 62
7
  0
LINE
  8
default
  6
CONTINUOUS
 10
95.833000
 20
42.857000
 11
100.000000
 21
45.238000
 39
0
 62
7
  0
LINE
  8
default
  6
CONTINUOUS
 10
8.333000
 20
45.238000
 11
8.333000
 21
50.000000
 39
0
 62
7
  0
LINE
  8
default
  6
CONTINUOUS
 10
16.667000
 20
45.238000
 11
16.667000
 21
50.000000
 39
0
 62
7
  0
LINE
  8
default
  6
CONTINUOUS
 10
25.000000
 20
45.238000
 11
25.000000
 21
50.000000
 39
0
 62
7
  0
LINE
  8
default
  6
CONTINUOUS
 10
33.333000
 20
45.238000
 11
33.333000
 21
50.000000
 39
0
 62
7
  0
LINE
  8
default
  6
CONTINUOUS
 10
41.667000
 20
45.238000
 11
41.667000
 21
50.000000
 39
0
 62
7
  0
LINE
  8
default
  6
CONTINUOUS
 10
50.000000
 20
45.238000
 11
50.000000
 21
50.000000
 39
0
 62
7
  0
LINE
  8
default
  6
CONTINUOUS
 10
58.333000
 20
45.238000
 11
58.333000
 21
50.000000
 39
0
 62
7
  0
LINE
  8
default
  6
CONTINUOUS
 10
66.667000
 20
45.238000
 11
66.667000
 21
50.000000
 39
0
 62
7
  0
LINE
  8
default
  6
CONTINUOUS
 10
75.000000
 20
45.238000
 11
75.000000
 21
50.000000
 39
0
 62
7
  0
LINE
  8
default
  6
CONTINUOUS
 10
83.333000
 20
45.238000
 11
83.333000
 21
50.000000
 39
0
 62
7
  0
LINE
  8
default
  6
CONTINUOUS
 10
91.667000
 20
45.238000
 11
91.667000
 21
50.000000
 39
0
 62
7
  0
LINE
  8
default
  6
CONTINUOUS
 10
8.333000
 20
50.000000
 11
12.500000
 21
52.381000
 39
0
 62
7
  0
LINE
  8
default
  6
CONTINUOUS
 10
12.500000
 20
52.381000
 11
16.667000
 21
50.000000
 39
0
 62
7
  0
LINE
  8
default
  6
CONTINUOUS
 10
25.000000
 20
50.000000
 11
29.167000
 21
52.381000
 39
0
 62
7
  0
LINE
  8
default
  6
CONTINUOUS
 10
29.167000
 20
52.381000
 11
33.333000
 21
50.000000
 39
0
 62
7
  0
LINE
  8
default
  6
CONTINUOUS
 10
41.667000
 20
50.000000
 11
45.833000
 21
52.381000
 39
0
 62
7
  0
LINE
  8
default
  6
CONTINUOUS
 10
45.833000
 20
52.381000
 11
50.000000
 21
50.000000
 39
0
 62
7
  0
LINE
  8
default
  6
CONTINUOUS
 10
58.333000
 20
50.000000
 11
62.500000
 21
52.381000
 39
0
 62
7
  0
LINE
  8
default
  6
CONTINUOUS
 10
62.500000
 20
52.381000
 11
66.667000
 21
50.000000
 39
0
 62
7
  0
LINE
  8
default
  6
CONTINUOUS
 10
75.000000
 20
50.000000
 11
79.167000
 21
52.381000
 39
0
 62
7
  0
LINE
  8
default
  6
CONTINUOUS
 10
79.167000
 20
52.381000
 11
83.333000
 21
50.000000
 39
0
 62
7
  0
LINE
  8
default
  6
CONTINUOUS
 10
91.667000
 20
50.000000
 11
95.833000
 21
52.381000
 39
0
 62
7
  0
LINE
  8
default
  6
CONTINUOUS
 10
95.833000
 20
52.381000
 11
100.000000
 21
50.000000
 39
0
 62
7
  0
LINE
  8
default
  6
CONTINUOUS
 10
0.000000
 20
30.952000
 11
0.000000
 21
35.714000
 39
0
 62
7
  0
LINE
  8
default
  6
CONTINUOUS
 10
0.000000
 20
59.524000
 11
4.167000
 21
57.143000
 39
0
 62
7
  0
LINE
  8
default
  6
CONTINUOUS
 10
4.167000
 20
57.143000
 11
8.333000
 21
59.524000
 39
0
 62
7
  0
LINE
  8
default
  6
CONTINUOUS
 10
16.667000
 20
59.524000
 11
20.833000
 21
57.143000
 39
0
 62
7
  0
LINE
  8
default
  6
CONTINUOUS
 10
20.833000
 20
57.143000
 11
25.000000
 21
59.524000
 39
0
 62
7
  0
LINE
  8
default
  6
CONTINUOUS
 10
33.333000
 20
59.524000
 11
37.500000
 21
57.143000
 39
0
 62
7
  0
LINE
  8
default
  6
CONTINUOUS
 10
37.500000
 20
57.143000
 11
41.667000
 21
59.524000
 39
0
 62
7
  0
LINE
  8
default
  6
CONTINUOUS
 10
50.000000
 20
59.524000
 11
54.167000
 21
57.143000
 39
0
 62
7
  0
LINE
  8
default
  6
CONTINUOUS
 10
54.167000
 20
57.143000
 11
58.333000
 21
59.524000
 39
0
 62
7
  0
LINE
  8
default
  6
CONTINUOUS
 10
66.667000
 20
59.524000
 11
70.833000
 21
57.143000
 39
0
 62
7
  0
LINE
  8
default
  6
CONTINUOUS
 10
70.833000
 20
57.143000
 11
75.000000
 21
59.524000
 39
0
 62
7
  0
LINE
  8
default
  6
CONTINUOUS
 10
83.333000
 20
59.524000
 11
87.500000
 21
57.143000
 39
0
 62
7
  0
LINE
  8
default
  6
CONTINUOUS
 10
87.500000
 20
57.143000
 11
91.667000
 21
59.524000
 39
0
 62
7
  0
LINE
  8
default
  6
CONTINUOUS
 10
8.333000
 20
59.524000
 11
8.333000
 21
64.286000
 39
0
 62
7
  0
LINE
  8
default
  6
CONTINUOUS
 10
16.667000
 20
59.524000
 11
16.667000
 21
64.286000
 39
0
 62
7
  0
LINE
  8
default
  6
CONTINUOUS
 10
25.000000
 20
59.524000
 11
25.000000
 21
64.286000
 39
0
 62
7
  0
LINE
  8
default
  6
CONTINUOUS
 10
33.333000
 20
59.524000
 11
33.333000
 21
64.286000
 39
0
 62
7
  0
LINE
  8
default
  6
CONTINUOUS
 10
41.667000
 20
59.524000
 11
41.667000
 21
64.286000
 39
0
 62
7
  0
LINE
  8
default
  6
CONTINUOUS
 10
50.000000
 20
59.524000
 11
50.000000
 21
64.286000
 39
0
 62
7
  0
LINE
  8
default
  6
CONTINUOUS
 10
58.333000
 20
59.524000
 11
58.333000
 21
64.286000
 39
0
 62
7
  0
LINE
  8
default
  6
CONTINUOUS
 10
66.667000
 20
59.524000
 11
66.667000
 21
64.286000
 39
0
 62
7
  0
LINE
  8
default
  6
CONTINUOUS
 10
75.000000
 20
59.524000
 11
75.000000
 21
64.286000
 39
0
 62
7
  0
LINE
  8
default
  6
CONTINUOUS
 10
83.333000
 20
59.524000
 11
83.333000
 21
64.286000
 39
0
 62
7
  0
LINE
  8
default
  6
CONTINUOUS
 10
91.667000
 20
59.524000
 11
91.667000
 21
64.286000
 39
0
 62
7
  0
LINE
  8
default
  6
CONTINUOUS
 10
0.000000
 20
64.286000
 11
4.167000
 21
66.667000
 39
0
 62
7
  0
LINE
  8
default
  6
CONTINUOUS
 10
4.167000
 20
66.667000
 11
8.333000
 21
64.286000
 39
0
 62
7
  0
LINE
  8
default
  6
CONTINUOUS
 10
16.667000
 20
64.286000
 11
20.833000
 21
66.667000
 39
0
 62
7
  0
LINE
  8
default
  6
CONTINUOUS
 10
20.833000
 20
66.667000
 11
25.000000
 21
64.286000
 39
0
 62
7
  0
LINE
  8
default
  6
CONTINUOUS
 10
33.333000
 20
64.286000
 11
37.500000
 21
66.667000
 39
0
 62
7
  0
LINE
  8
default
  6
CONTINUOUS
 10
37.500000
 20
66.667000
 11
41.667000
 21
64.286000
 39
0
 62
7
  0
LINE
  8
default
  6
CONTINUOUS
 10
50.000000
 20
64.286000
 11
54.167000
 21
66.667000
 39
0
 62
7
  0
LINE
  8
default
  6
CONTINUOUS
 10
54.167000
 20
66.667000
 11
58.333000
 21
64.286000
 39
0
 62
7
  0
LINE
  8
default
  6
CONTINUOUS
 10
66.667000
 20
64.286000
 11
70.833000
 21
66.667000
 39
0
 62
7
  0
LINE
  8
default
  6
CONTINUOUS
 10
70.833000
 20
66.667000
 11
75.000000
 21
64.286000
 39
0
 62
7
  0
LINE
  8
default
  6
CONTINUOUS
 10
83.333000
 20
64.286000
 11
87.500000
 21
66.667000
 39
0
 62
7
  0
LINE
  8
default
  6
CONTINUOUS
 10
87.500000
 20
66.667000
 11
91.667000
 21
64.286000
 39
0
 62
7
  0
LINE
  8
default
  6
CONTINUOUS
 10
8.333000
 20
73.810000
 11
12.500000
 21
71.429000
 39
0
 62
7
  0
LINE
  8
default
  6
CONTINUOUS
 10
12.500000
 20
71.429000
 11
16.667000
 21
73.810000
 39
0
 62
7
  0
LINE
  8
default
  6
CONTINUOUS
 10
25.000000
 20
73.810000
 11
29.167000
 21
71.429000
 39
0
 62
7
  0
LINE
  8
default
  6
CONTINUOUS
 10
29.167000
 20
71.429000
 11
33.333000
 21
73.810000
 39
0
 62
7
  0
LINE
  8
default
  6
CONTINUOUS
 10
41.667000
 20
73.810000
 11
45.833000
 21
71.429000
 39
0
 62
7
  0
LINE
  8
default
  6
CONTINUOUS
 10
45.833000
 20
71.429000
 11
50.000000
 21
73.810000
 39
0
 62
7
  0
LINE
  8
default
  6
CONTINUOUS
 10
58.333000
 20
73.810000
 11
62.500000
 21
71.429000
 39
0
 62
7
  0
LINE
  8
default
  6
CONTINUOUS
 10
62.500000
 20
71.429000
 11
66.667000
 21
73.810000
 39
0
 62
7
  0
LINE
  8
default
  6
CONTINUOUS
 10
75.000000
 20
73.810000
 11
79.167000
 21
71.429000
 39
0
 62
7
  0
LINE
  8
default
  6
CONTINUOUS
 10
79.167000
 20
71.429000
 11
83.333000
 21
73.810000
 39
0
 62
7
  0
LINE
  8
default
  6
CONTINUOUS
 10
91.667000
 20
73.810000
 11
95.833000
 21
71.429000
 39
0
 62
7
  0
LINE
  8
default
  6
CONTINUOUS
 10
95.833000
 20
71.429000
 11
100.000000
 21
73.809000
 39
0
 62
7
  0
LINE
  8
default
  6
CONTINUOUS
 10
8.333000
 20
73.810000
 11
8.333000
 21
78.571000
 39
0
 62
7
  0
LINE
  8
default
  6
CONTINUOUS
 10
16.667000
 20
73.810000
 11
16.667000
 21
78.571000
 39
0
 62
7
  0
LINE
  8
default
  6
CONTINUOUS
 10
25.000000
 20
73.810000
 11
25.000000
 21
78.571000
 39
0
 62
7
  0
LINE
  8
default
  6
CONTINUOUS
 10
33.333000
 20
73.810000
 11
33.333000
 21
78.571000
 39
0
 62
7
  0
LINE
  8
default
  6
CONTINUOUS
 10
41.667000
 20
73.810000
 11
41.667000
 21
78.571000
 39
0
 62
7
  0
LINE
  8
default
  6
CONTINUOUS
 10
50.000000
 20
73.810000
 11
50.000000
 21
78.571000
 39
0
 62
7
  0
LINE
  8
default
  6
CONTINUOUS
 10
58.333000
 20
73.810000
 11
58.333000
 21
78.571000
 39
0
 62
7
  0
LINE
  8
default
  6
CONTINUOUS
 10
66.667000
 20
73.810000
 11
66.667000
 21
78.571000
 39
0
 62
7
  0
LINE
  8
default
  6
CONTINUOUS
 10
75.000000
 20
73.810000
 11
75.000000
 21
78.571000
 39
0
 62
7
  0
LINE
  8
default
  6
CONTINUOUS
 10
83.333000
 20
73.810000
 11
83.333000
 21
78.571000
 39
0
 62
7
  0
LINE
  8
default
  6
CONTINUOUS
 10
91.667000
 20
73.810000
 11
91.667000
 21
78.571000
 39
0
 62
7
  0
LINE
  8
default
  6
CONTINUOUS
 10
8.333000
 20
78.571000
 11
12.500000
 21
80.952000
 39
0
 62
7
  0
LINE
  8
default
  6
CONTINUOUS
 10
12.500000
 20
80.952000
 11
16.667000
 21
78.571000
 39
0
 62
7
  0
LINE
  8
default
  6
CONTINUOUS
 10
25.000000
 20
78.571000
 11
29.167000
 21
80.952000
 39
0
 62
7
  0
LINE
  8
default
  6
CONTINUOUS
 10
29.167000
 20
80.952000
 11
33.333000
 21
78.571000
 39
0
 62
7
  0
LINE
  8
default
  6
CONTINUOUS
 10
41.667000
 20
78.571000
 11
45.833000
 21
80.952000
 39
0
 62
7
  0
LINE
  8
default
  6
CONTINUOUS
 10
45.833000
 20
80.952000
 11
50.000000
 21
78.571000
 39
0
 62
7
  0
LINE
  8
default
  6
CONTINUOUS
 10
58.333000
 20
78.571000
 11
62.500000
 21
80.952000
 39
0
 62
7
  0
LINE
  8
default
  6
CONTINUOUS
 10
62.500000
 20
80.952000
 11
66.667000
 21
78.571000
 39
0
 62
7
  0
LINE
  8
default
  6
CONTINUOUS
 10
75.000000
 20
78.571000
 11
79.167000
 21
80.952000
 39
0
 62
7
  0
LINE
  8
default
  6
CONTINUOUS
 10
79.167000
 20
80.952000
 11
83.333000
 21
78.571000
 39
0
 62
7
  0
LINE
  8
default
  6
CONTINUOUS
 10
91.667000
 20
78.571000
 11
95.833000
 21
80.952000
 39
0
 62
7
  0
LINE
  8
default
  6
CONTINUOUS
 10
95.833000
 20
80.952000
 11
100.000000
 21
78.571000
 39
0
 62
7
  0
LINE
  8
default
  6
CONTINUOUS
 10
0.000000
 20
59.524000
 11
0.000000
 21
64.286000
 39
0
 62
7
  0
LINE
  8
default
  6
CONTINUOUS
 10
0.000000
 20
88.095000
 11
4.167000
 21
85.714000
 39
0
 62
7
  0
LINE
  8
default
  6
CONTINUOUS
 10
4.167000
 20
85.714000
 11
8.333000
 21
88.095000
 39
0
 62
7
  0
LINE
  8
default
  6
CONTINUOUS
 10
16.667000
 20
88.095000
 11
20.833000
 21
85.714000
 39
0
 62
7
  0
LINE
  8
default
  6
CONTINUOUS
 10
20.833000
 20
85.714000
 11
25.000000
 21
88.095000
 39
0
 62
7
  0
LINE
  8
default
  6
CONTINUOUS
 10
33.333000
 20
88.095000
 11
37.500000
 21
85.714000
 39
0
 62
7
  0
LINE
  8
default
  6
CONTINUOUS
 10
37.500000
 20
85.714000
 11
41.667000
 21
88.095000
 39
0
 62
7
  0
LINE
  8
default
  6
CONTINUOUS
 10
50.000000
 20
88.095000
 11
54.167000
 21
85.714000
 39
0
 62
7
  0
LINE
  8
default
  6
CONTINUOUS
 10
54.167000
 20
85.714000
 11
58.333000
 21
88.095000
 39
0
 62
7
  0
LINE
  8
default
  6
CONTINUOUS
 10
66.667000
 20
88.095000
 11
70.833000
 21
85.714000
 39
0
 62
7
  0
LINE
  8
default
  6
CONTINUOUS
 10
70.833000
 20
85.714000
 11
75.000000
 21
88.095000
 39
0
 62
7
  0
LINE
  8
default
  6
CONTINUOUS
 10
83.333000
 20
88.095000
 11
87.500000
 21
85.714000
 39
0
 62
7
  0
LINE
  8
default
  6
CONTINUOUS
 10
87.500000
 20
85.714000
 11
91.667000
 21
88.095000
 39
0
 62
7
  0
LINE
  8
default
  6
CONTINUOUS
 10
8.333000
 20
88.095000
 11
8.333000
 21
92.857000
 39
0
 62
7
  0
LINE
  8
default
  6
CONTINUOUS
 10
16.667000
 20
88.095000
 11
16.667000
 21
92.857000
 39
0
 62
7
  0
LINE
  8
default
  6
CONTINUOUS
 10
25.000000
 20
88.095000
 11
25.000000
 21
92.857000
 39
0
 62
7
  0
LINE
  8
default
  6
CONTINUOUS
 10
33.333000
 20
88.095000
 11
33.333000
 21
92.857000
 39
0
 62
7
  0
LINE
  8
default
  6
CONTINUOUS
 10
41.667000
 20
88.095000
 11
41.667000
 21
92.857000
 39
0
 62
7
  0
LINE
  8
default
  6
CONTINUOUS
 10
50.000000
 20
88.095000
 11
50.000000
 21
92.857000
 39
0
 62
7
  0
LINE
  8
default
  6
CONTINUOUS
 10
58.333000
 20
88.095000
 11
58.333000
 21
92.857000
 39
0
 62
7
  0
LINE
  8
default
  6
CONTINUOUS
 10
66.667000
 20
88.095000
 11
66.667000
 21
92.857000
 39
0
 62
7
  0
LINE
  8
default
  6
CONTINUOUS
 10
75.000000
 20
88.095000
 11
75.000000
 21
92.857000
 39
0
 62
7
  0
LINE
  8
default
  6
CONTINUOUS
 10
83.333000
 20
88.095000
 11
83.333000
 21
92.857000
 39
0
 62
7
  0
LINE
  8
default
  6
CONTINUOUS
 10
91.667000
 20
88.095000
 11
91.667000
 21
92.857000
 39
0
 62
7
  0
LINE
  8
default
  6
CONTINUOUS
 10
0.000000
 20
92.857000
 11
4.167000
 21
95.238000
 39
0
 62
7
  0
LINE
  8
default
  6
CONTINUOUS
 10
4.167000
 20
95.238000
 11
8.333000
 21
92.857000
 39
0
 62
7
  0
LINE
  8
default
  6
CONTINUOUS
 10
16.667000
 20
92.857000
 11
20.833000
 21
95.238000
 39
0
 62
7
  0
LINE
  8
default
  6
CONTINUOUS
 10
20.833000
 20
95.238000
 11
25.000000
 21
92.857000
 39
0
 62
7
  0
LINE
  8
default
  6
CONTINUOUS
 10
33.333000
 20
92.857000
 11
37.500000
 21
95.238000
 39
0
 62
7
  0
LINE
  8
default
  6
CONTINUOUS
 10
37.500000
 20
95.238000
 11
41.667000
 21
92.857000
 39
0
 62
7
  0
LINE
  8
default
  6
CONTINUOUS
 10
50.000000
 20
92.857000
 11
54.167000
 21
95.238000
 39
0
 62
7
  0
LINE
  8
default
  6
CONTINUOUS
 10
54.167000
 20
95.238000
 11
58.333000
 21
92.857000
 39
0
 62
7
  0
LINE
  8
default
  6
CONTINUOUS
 10
66.667000
 20
92.857000
 11
70.833000
 21
95.238000
 39
0
 62
7
  0
LINE
  8
default
  6
CONTINUOUS
 10
70.833000
 20
95.238000
 11
75.000000
 21
92.857000
 39
0
 62
7
  0
LINE
  8
default
  6
CONTINUOUS
 10
83.333000
 20
92.857000
 11
87.500000
 21
95.238000
 39
0
 62
7
  0
LINE
  8
default
  6
CONTINUOUS
 10
87.500000
 20
95.238000
 11
91.667000
 21
92.857000
 39
0
 62
7
  0
LINE
  8
default
  6
CONTINUOUS
 10
0.000000
 20
88.095000
 11
0.000000
 21
92.857000
 39
0
 62
7
  0
LINE
  8
default
  6
CONTINUOUS
 10
100.000000
 20
78.571000
 11
100.000000
 21
73.809000
 39
0
 62
7
  0
LINE
  8
default
  6
CONTINUOUS
 10
100.000000
 20
50.000000
 11
100.000000
 21
45.238000
 39
0
 62
7
  0
LINE
  8
default
  6
CONTINUOUS
 10
100.000000
 20
21.429000
 11
100.000000
 21
16.667000
 39
0
 62
7
  0
ENDSEC
  0
EOF
