  0
SECTION
  2
HEADER
  9
$LIMMIN
 10
0.000000
 20
0.000000
  9
$LIMMAX
 10
100.000000
 20
83.287000
  9
$EXTMIN
 10
0.000000
 20
0.000000
  9
$EXTMAX
 10
100.000000
 20
83.287000
  9
$ANGBASE
 50
0.000000
  9
$ANGDIR
 70
0
  9
$INSUNITS
 70
0
  9
$DIMALT
 70
4
  9
$DIMLUNIT
 70
2
  9
$DIMASZ
 40
3.000000
  9
$DIMTXT
 40
5.000000
  9
$DIMRND
 40
0.010000
  9
$DIMEXE
 40
2.000000
  9
$DIMEXO
 40
2.000000
  9
$DIMAUNIT
 70
0
  9
$DIMADEC
 70
2
  9
$GRIDUNIT
 10
0.001000
 20
0.001000
  9
$PLIMMIN
 10
0.000000
 20
0.000000
  9
$PLIMMAX
 10
210.000000
 20
297.000000
  9
$PSVPSCALE
 40
1.000000
  0
ENDSEC
  0
SECTION
  2
TABLES
  0
TABLE
  2
LTYPE
 70
     1
  0
LTYPE
  2
CONTINUOUS
 70
    64
  3
Ausgez
 72
    65
 73
  0
 40
0.000000
  0
ENDTAB
  0
TABLE
  2
LAYER
 70
     1
  0
LAYER
  2
default
 70
    64
 62
0
  6
CONTINUOUS
  0
ENDTAB
  0
ENDSEC
  0
SECTION
  2
BLOCKS
  0
ENDSEC
  0
SECTION
  2
ENTITIES
  0
LINE
  8
default
  6
CONTINUOUS
 10
43.316000
 20
33.287000
 11
39.184000
 21
20.572000
 39
0
 62
7
  0
LINE
  8
default
  6
CONTINUOUS
 10
32.500000
 20
0.000000
 11
43.316000
 21
7.858000
 39
0
 62
7
  0
LINE
  8
default
  6
CONTINUOUS
 10
50.000000
 20
12.714000
 11
60.816000
 21
20.572000
 39
0
 62
7
  0
LINE
  8
default
  6
CONTINUOUS
 10
39.184000
 20
20.572000
 11
25.816000
 21
20.572000
 39
0
 62
7
  0
LINE
  8
default
  6
CONTINUOUS
 10
43.316000
 20
7.858000
 11
54.131000
 21
0.000000
 39
0
 62
7
  0
LINE
  8
default
  6
CONTINUOUS
 10
54.131000
 20
0.000000
 11
50.000000
 21
12.714000
 39
0
 62
7
  0
LINE
  8
default
  6
CONTINUOUS
 10
60.816000
 20
20.572000
 11
47.447000
 21
20.572000
 39
0
 62
7
  0
LINE
  8
default
  6
CONTINUOUS
 10
43.316000
 20
33.287000
 11
47.447000
 21
20.572000
 39
0
 62
7
  0
LINE
  8
default
  6
CONTINUOUS
 10
32.500000
 20
0.000000
 11
36.631000
 21
12.714000
 39
0
 62
7
  0
LINE
  8
default
  6
CONTINUOUS
 10
25.816000
 20
20.572000
 11
36.631000
 21
12.714000
 39
0
 62
7
  0
LINE
  8
default
  6
CONTINUOUS
 10
93.316000
 20
33.287000
 11
89.184000
 21
20.572000
 39
0
 62
7
  0
LINE
  8
default
  6
CONTINUOUS
 10
82.500000
 20
0.000000
 11
93.316000
 21
7.858000
 39
0
 62
7
  0
LINE
  8
default
  6
CONTINUOUS
 10
89.184000
 20
20.572000
 11
75.816000
 21
20.572000
 39
0
 62
7
  0
LINE
  8
default
  6
CONTINUOUS
 10
93.316000
 20
33.287000
 11
97.447000
 21
20.572000
 39
0
 62
7
  0
LINE
  8
default
  6
CONTINUOUS
 10
82.500000
 20
0.000000
 11
86.631000
 21
12.714000
 39
0
 62
7
  0
LINE
  8
default
  6
CONTINUOUS
 10
75.816000
 20
20.572000
 11
86.631000
 21
12.714000
 39
0
 62
7
  0
LINE
  8
default
  6
CONTINUOUS
 10
68.316000
 20
83.287000
 11
64.184000
 21
70.572000
 39
0
 62
7
  0
LINE
  8
default
  6
CONTINUOUS
 10
57.500000
 20
50.000000
 11
68.316000
 21
57.858000
 39
0
 62
7
  0
LINE
  8
default
  6
CONTINUOUS
 10
75.000000
 20
62.714000
 11
85.816000
 21
70.572000
 39
0
 62
7
  0
LINE
  8
default
  6
CONTINUOUS
 10
64.184000
 20
70.572000
 11
50.816000
 21
70.572000
 39
0
 62
7
  0
LINE
  8
default
  6
CONTINUOUS
 10
68.316000
 20
57.858000
 11
79.131000
 21
50.000000
 39
0
 62
7
  0
LINE
  8
default
  6
CONTINUOUS
 10
79.131000
 20
50.000000
 11
75.000000
 21
62.714000
 39
0
 62
7
  0
LINE
  8
default
  6
CONTINUOUS
 10
85.816000
 20
70.572000
 11
72.447000
 21
70.572000
 39
0
 62
7
  0
LINE
  8
default
  6
CONTINUOUS
 10
68.316000
 20
83.287000
 11
72.447000
 21
70.572000
 39
0
 62
7
  0
LINE
  8
default
  6
CONTINUOUS
 10
57.500000
 20
50.000000
 11
61.631000
 21
62.715000
 39
0
 62
7
  0
LINE
  8
default
  6
CONTINUOUS
 10
50.816000
 20
70.572000
 11
61.631000
 21
62.714000
 39
0
 62
7
  0
LINE
  8
default
  6
CONTINUOUS
 10
18.316000
 20
83.287000
 11
22.447000
 21
70.572000
 39
0
 62
7
  0
LINE
  8
default
  6
CONTINUOUS
 10
29.131000
 20
50.000000
 11
18.316000
 21
57.858000
 39
0
 62
7
  0
LINE
  8
default
  6
CONTINUOUS
 10
11.631000
 20
62.714000
 11
0.816000
 21
70.572000
 39
0
 62
7
  0
LINE
  8
default
  6
CONTINUOUS
 10
22.447000
 20
70.572000
 11
35.816000
 21
70.572000
 39
0
 62
7
  0
LINE
  8
default
  6
CONTINUOUS
 10
18.316000
 20
57.858000
 11
7.500000
 21
50.000000
 39
0
 62
7
  0
LINE
  8
default
  6
CONTINUOUS
 10
7.500000
 20
50.000000
 11
11.631000
 21
62.714000
 39
0
 62
7
  0
LINE
  8
default
  6
CONTINUOUS
 10
0.816000
 20
70.572000
 11
14.184000
 21
70.572000
 39
0
 62
7
  0
LINE
  8
default
  6
CONTINUOUS
 10
18.316000
 20
83.287000
 11
14.184000
 21
70.572000
 39
0
 62
7
  0
LINE
  8
default
  6
CONTINUOUS
 10
29.131000
 20
50.000000
 11
25.000000
 21
62.715000
 39
0
 62
7
  0
LINE
  8
default
  6
CONTINUOUS
 10
35.816000
 20
70.572000
 11
25.000000
 21
62.714000
 39
0
 62
7
  0
LINE
  8
default
  6
CONTINUOUS
 10
4.131000
 20
0.000000
 11
0.000000
 21
12.714000
 39
0
 62
7
  0
LINE
  8
default
  6
CONTINUOUS
 10
10.816000
 20
20.572000
 11
0.000000
 21
12.714000
 39
0
 62
7
  0
LINE
  8
default
  6
CONTINUOUS
 10
100.000000
 20
20.572000
 11
97.447000
 21
20.572000
 39
0
 62
7
  0
LINE
  8
default
  6
CONTINUOUS
 10
93.316000
 20
7.858000
 11
100.000000
 21
3.001000
 39
0
 62
7
  0
LINE
  8
default
  6
CONTINUOUS
 10
0.000000
 20
20.572000
 11
10.816000
 21
20.572000
 39
0
 62
7
  0
LINE
  8
default
  6
CONTINUOUS
 10
4.131000
 20
0.000000
 11
0.000000
 21
3.001000
 39
0
 62
7
  0
ENDSEC
  0
EOF
