<?xml version="1.0" encoding="UTF-8" standalone="no"?>
<svg
   height="256"
   viewBox="0 0 72.248892 72.248892"
   width="256"
   version="1.1"
   id="svg6"
   sodipodi:docname="aim.svg"
   inkscape:version="1.4 (86a8ad7, 2024-10-11)"
   xmlns:inkscape="http://www.inkscape.org/namespaces/inkscape"
   xmlns:sodipodi="http://sodipodi.sourceforge.net/DTD/sodipodi-0.dtd"
   xmlns="http://www.w3.org/2000/svg"
   xmlns:svg="http://www.w3.org/2000/svg">
  <defs
     id="defs6" />
  <sodipodi:namedview
     id="namedview6"
     pagecolor="#ffffff"
     bordercolor="#000000"
     borderopacity="0.25"
     inkscape:showpageshadow="2"
     inkscape:pageopacity="0.0"
     inkscape:pagecheckerboard="0"
     inkscape:deskcolor="#d1d1d1"
     inkscape:zoom="2.3222656"
     inkscape:cx="53.396131"
     inkscape:cy="190.11606"
     inkscape:window-width="2560"
     inkscape:window-height="1412"
     inkscape:window-x="-8"
     inkscape:window-y="-8"
     inkscape:window-maximized="1"
     inkscape:current-layer="svg6" />
  <path
     d="M 37.854557,8.530597 A 26.164271,26.541318 0 0 0 11.017375,34.315488 l -0.0058,0.214819 A 26.164271,26.541318 0 0 0 36.592951,61.59748 26.164271,26.541318 0 0 0 63.32793,35.702273 26.164271,26.541318 0 0 0 37.854558,8.530597 Z m -0.05397,2.128283 A 24.443758,24.044985 75.222224 0 1 61.235609,35.849911 24.443758,24.044985 75.222224 0 1 36.639555,59.470026 24.443758,24.044985 75.222224 0 1 13.104792,34.375209 l 0.0049,-0.198234 A 24.443758,24.044985 75.222224 0 1 37.800632,10.65888 Z"
     fill="#000000"
     stroke="#000000"
     stroke-width="0.73841"
     id="path1" />
  <path
     d="m 36.124446,31.877835 v 2.123308 h -2.093142 v 2.123303 h 2.093142 v 2.123305 h 2.093142 v -2.123305 h 2.093142 v -2.123303 h -2.093142 v -2.123308 z"
     fill="#000000"
     stroke="#000000"
     stroke-width="0.431921"
     id="path2" />
  <path
     d="M 2.5103723,34.002469 H 34.033522 v 2.123408 H 2.5103723 Z"
     stroke-width="0.281994"
     id="path3"
     style="fill:#00ff7f" />
  <path
     d="m 40.306017,33.997738 h 31.173499 v 2.125309 H 40.306017 Z"
     stroke-width="0.284241"
     id="path4"
     style="fill:#00ff7f" />
  <path
     d="m 36.123908,38.247267 h 2.09512 v 30.686442 h -2.09512 z"
     stroke-width="0.459473"
     id="path5"
     style="fill:#00ff7f" />
  <path
     d="m 36.135044,3.4277836 h 2.085979 V 31.879384 h -2.085979 z"
     stroke-width="0.287416"
     id="path6"
     style="fill:#00ff7f" />
  <path
     d="m 36.135044,3.5645036 h 2.085979 V 25.021399 h -2.085979 z"
     stroke-width="0.287416"
     id="path7"
     style="fill:#00ff7f;stroke:#000000;stroke-opacity:1" />
  <path
     d="m 36.127986,47.857694 h 2.085979 v 20.90193 h -2.085979 z"
     stroke-width="0.287416"
     id="path7-0"
     style="fill:#00ff7f;stroke:#000000;stroke-opacity:1" />
  <path
     d="m 71.309084,34.004712 v 2.11604 H 49.784556 v -2.11604 z"
     stroke-width="0.287416"
     id="path8"
     style="fill:#00ff7f;stroke:#000000;stroke-opacity:1" />
  <path
     d="m 24.557397,34.004712 v 2.11604 H 2.6808068 v -2.11604 z"
     stroke-width="0.287416"
     id="path9"
     style="fill:#00ff7f;stroke:#000000;stroke-opacity:1" />
</svg>
