<svg height="256" viewBox="0 0 256 256" width="256" xmlns="http://www.w3.org/2000/svg"><g stroke="#000"><g stroke-width="8"><g fill="none" stroke-dashoffset="8"><path d="m16 188h224"/><path d="m24 224 168-168"/></g><circle cx="60" cy="188.00002" fill="#00ff7f" opacity=".98" r="24" stroke-dashoffset="6" stroke-linejoin="bevel"/></g><text fill="#000" font-family="'Cordia New'" font-size="121.511" letter-spacing="0" transform="matrix(1.0132811 0 0 .98689297 0 0)" word-spacing="0" x="44.864639" y="123.43602"><tspan x="44.864639" y="123.43602">?</tspan></text><path d="m164.24444 160.61317q5.10693 0 8.59262-3.94757 3.16144-3.55282 3.72887-8.76361.24319-2.21064.24319-3.86862 0-17.84303-18.96862-17.68512-5.51225.079-8.51156 6.78982-2.26975 5.13184-2.26975 11.36901 0 8.05304 6.07968 12.47432 5.02588 3.63177 11.10557 3.63177zm17.50949 7.34248q-.48637-1.89483-1.05381-7.26353-.16212-1.10532-.6485-5.84241-4.78269 5.76346-11.75406 9.39523-7.53881 3.94757-14.67231 3.94757-8.75475 0-13.6185-6.47402-4.37737-5.76346-4.37737-14.52706 0-9.71103 6.64712-16.264 4.94481-4.89499 15.72612-9.39522 3.40463-1.42113 7.53882-1.42113 9.07899 0 14.34806 6.31612.6485-2.28959 1.62125-4.10548.89168.23686 2.02656.23686 4.86375 0 11.99725-2.92121-4.86375 3.71072-4.86375 18.79045 0 2.52644.16212 7.57933.24319 5.0529.24319 7.57934 0 5.44765.97275 8.132 1.62125 4.50023 6.16075 6.00031z" fill="#000"/><path d="m151.77223 56.935671a160 160 0 0 1 65.79701 158.848039" fill="none" stroke-dashoffset="8" stroke-linecap="square" stroke-width="8"/></g></svg>