<svg height="256" viewBox="0 0 256 256" width="256" xmlns="http://www.w3.org/2000/svg"><g stroke="#000"><path d="m250.7113 188h-247.5648565" stroke-dashoffset="8" stroke-width="8.18904"/><path d="m242.7113 224-183.531381-182.460251" stroke-dashoffset="8" stroke-width="8"/><text fill="#000" font-family="Cordia New" font-size="121.511" letter-spacing="0" transform="matrix(1.0132811 0 0 .98689297 0 0)" word-spacing="0" x="161.95393" y="119.73899"><tspan x="161.95393" y="119.73899">?</tspan></text><path d="m158.1441 152.61349q5.04 0 8.48-4 3.12-3.6 3.68-8.88.24-2.24.24-3.92 0-18.08-18.72-17.92-5.44.08-8.4 6.88-2.24 5.2-2.24 11.52 0 8.16 6 12.64 4.96 3.68 10.96 3.68zm17.28 7.44q-.48-1.92-1.04-7.36-.16-1.12-.64-5.92-4.72 5.84-11.6 9.52-7.44 4-14.48 4-8.64 0-13.44-6.56-4.32-5.84-4.32-14.72 0-9.84 6.56-16.48 4.88-4.96 15.52-9.52 3.36-1.44 7.44-1.44 8.96 0 14.16 6.4.64-2.32 1.6-4.16.88.24 2 .24 4.8 0 11.84-2.96-4.8 3.76-4.8 19.04 0 2.56.16 7.68.24 5.12.24 7.68 0 5.52.96 8.24 1.6 4.56 6.08 6.08z" fill="#000" transform="matrix(1.0132811 0 0 .98689297 -58.376569 10.175733)"/><path d="m-122.71211 51.823149a160 160 0 0 1 69.931521 179.827001" fill="none" stroke-dashoffset="8" stroke-linecap="square" stroke-width="8" transform="matrix(-1 0 0 1 0 0)"/><g fill="#00ff7f" stroke-dashoffset="6" stroke-linejoin="bevel" stroke-width="6.73747"><ellipse cx="92.937241" cy="76.602531" opacity=".98" rx="20.078964" ry="20.346746"/><g transform="matrix(-1 0 0 1 0 0)"><ellipse cx="-47.916317" cy="186.92888" opacity=".98" rx="20.078964" ry="20.346746"/><ellipse cx="-208.58577" cy="190.67784" opacity=".98" rx="20.078964" ry="20.346746"/></g></g></g></svg>
