<svg height="256" viewBox="0 0 256 256" width="256" xmlns="http://www.w3.org/2000/svg"><g stroke="#000"><g stroke-width="8"><g fill="none" stroke-dashoffset="8"><path d="m16 188h224"/><path d="m24 224 168-168"/></g><circle cx="60" cy="188.00002" fill="#00ff7f" opacity=".98" r="24" stroke-dashoffset="6" stroke-linejoin="bevel"/></g><text fill="#000" font-family="Cordia New" font-size="121.510902" letter-spacing="0" transform="matrix(1.0132811 0 0 .98689297 0 0)" word-spacing="0" x="44.864639" y="123.43602"><tspan x="44.864639" y="123.43602">?</tspan></text><path d="m162.09168 162.74629q5.04 0 8.48-4 3.12-3.6 3.68-8.88.24-2.24.24-3.92 0-18.08-18.72-17.92-5.44.08-8.4 6.88-2.24 5.2-2.24 11.52 0 8.16 6 12.64 4.96 3.68 10.96 3.68zm17.28 7.44q-.48-1.92-1.04-7.36-.16-1.12-.64-5.92-4.72 5.84-11.6 9.52-7.44 4-14.48 4-8.64 0-13.44-6.56-4.32-5.84-4.32-14.72 0-9.84 6.56-16.48 4.88-4.96 15.52-9.52 3.36-1.44 7.44-1.44 8.96 0 14.16 6.4.64-2.32 1.6-4.16.88.24 2 .24 4.8 0 11.84-2.96-4.8 3.76-4.8 19.04 0 2.56.16 7.68.24 5.12.24 7.68 0 5.52.96 8.24 1.6 4.56 6.08 6.08z" fill="#000" transform="matrix(1.0132811 0 0 .98689297 0 0)"/><path d="m151.77223 56.935671a160 160 0 0 1 65.79701 158.848039" fill="none" stroke-dashoffset="8" stroke-linecap="square" stroke-width="7.999999"/></g></svg>
