<?xml version="1.0" encoding="UTF-8" standalone="no"?>
<!-- Svg Vector Icons : http://www.onlinewebfonts.com/icon -->

<svg
   version="1.1"
   x="0px"
   y="0px"
   viewBox="0 0 256 256"
   enable-background="new 0 0 256 256"
   xml:space="preserve"
   id="svg3"
   sodipodi:docname="anti_aliasing.svg"
   inkscape:version="1.3.2 (091e20e, 2023-11-25, custom)"
   xmlns:inkscape="http://www.inkscape.org/namespaces/inkscape"
   xmlns:sodipodi="http://sodipodi.sourceforge.net/DTD/sodipodi-0.dtd"
   xmlns="http://www.w3.org/2000/svg"
   xmlns:svg="http://www.w3.org/2000/svg"><defs
   id="defs3" /><sodipodi:namedview
   id="namedview3"
   pagecolor="#ffffff"
   bordercolor="#000000"
   borderopacity="0.25"
   inkscape:showpageshadow="2"
   inkscape:pageopacity="0.0"
   inkscape:pagecheckerboard="0"
   inkscape:deskcolor="#d1d1d1"
   inkscape:zoom="0.14978027"
   inkscape:cx="-3261.4442"
   inkscape:cy="1612.3619"
   inkscape:window-width="2560"
   inkscape:window-height="1377"
   inkscape:window-x="-8"
   inkscape:window-y="-8"
   inkscape:window-maximized="1"
   inkscape:current-layer="svg3" />
<metadata
   id="metadata1"> Svg Vector Icons : http://www.onlinewebfonts.com/icon </metadata>
<path
   style="fill:#e4e4e4;stroke:#e0e0e0;stroke-width:10;fill-opacity:0"
   id="path6"
   sodipodi:type="arc"
   sodipodi:cx="-134.2"
   sodipodi:cy="128.08661"
   sodipodi:rx="91.08712"
   sodipodi:ry="93.786606"
   sodipodi:start="1.5694057"
   sodipodi:end="4.7183051"
   sodipodi:arc-type="arc"
   d="m -134.07333,221.87312 a 91.08712,93.786606 0 0 1 -79.05797,-46.97811 91.08712,93.786606 0 0 1 0.20654,-93.984114 91.08712,93.786606 0 0 1 79.26364,-46.609252"
   sodipodi:open="true"
   transform="scale(-1,1)" />
<path
   style="fill:none;fill-opacity:0;stroke:#00ff80;stroke-width:10;stroke-opacity:1"
   d="M 134.36349,128.02302 V 39.248637 l 2.13855,0.09803 c 13.47417,0.617656 24.31838,3.382094 35.52078,9.055059 4.9292,2.496177 8.52155,4.723068 12.76998,7.916093 16.09115,12.093744 27.28363,28.965565 32.60472,49.149171 4.88584,18.53267 3.37312,39.71634 -4.11208,57.58435 -4.82315,11.51339 -11.49735,21.28675 -20.47025,29.97559 -4.10643,3.97643 -7.12732,6.38951 -12.34249,9.85915 -12.90576,8.58617 -28.70541,13.60504 -43.6577,13.86819 l -2.45151,0.0431 z"
   id="path7" /><g
   id="g1"><path
     d="m 128.1,10.3 c -4.63325,3.712738 0.39995,13.479894 -3.25652,16.1 -7.71449,0 -15.42899,0 -23.14348,0 1.63107,5.140491 -3.302385,3.716453 -6.728258,3.8 -5.529677,-1.886924 -4.858309,2.427196 -6.728258,4.2 C 84.816682,34.830445 79.676609,33.547619 77.3,35.028258 76.954684,38.396704 79.024621,44.180405 73.530453,42.4 70.397258,43.124052 63.629345,40.213387 65.1,45.541289 66.460573,50.688099 63.56622,51.579983 59,50.8 c -4.887751,-0.969645 -7.377639,0.458575 -6.1,5.65432 0.323635,4.081614 0.734445,8.250404 -4.628258,6.64568 -5.327992,-1.635914 -2.72479,4.792654 -3.403151,7.884512 1.704954,5.540113 -3.678148,4.046684 -7.308946,4.292082 -2.219367,1.653349 -0.332432,7.314067 -0.959645,10.52121 -1.195305,2.472353 -5.562809,1.824322 -3.794226,7.355731 0.08001,3.583313 0.812899,7.798125 -4.105774,6.546465 0,8.16667 0,16.33333 0,24.5 -5.17266,-1.59657 -4.353484,2.79869 -4.2,6.52826 -1.971847,5.54793 2.557979,4.59419 4.2,6.52826 0,6.44782 0,12.89565 0,19.34348 5.283936,-1.64118 4.296738,2.98877 4.2,6.72826 -1.75553,5.26495 2.137135,4.8817 3.8,6.72826 0.430445,3.4268 -0.852381,8.56687 0.628258,10.94348 3.434556,0.41254 9.532908,-1.83872 7.771742,3.76955 0.724052,3.13319 -2.186613,9.9011 3.141289,8.43045 5.111045,-1.45814 5.456267,1.84954 4.858711,6.1 -0.969645,4.88775 0.458575,7.37764 5.65432,6.1 4.073873,-0.41589 7.860351,-0.54439 6.34568,4.62826 -1.658919,5.44442 4.808448,2.76256 7.984773,3.37174 5.652192,-1.80002 4.090836,3.61351 4.215227,7.34129 1.439271,2.4129 7.311679,0.39266 10.497804,1.05871 2.703537,0.80588 1.080321,5.93852 6.728258,3.8 3.61001,0.10956 8.826438,-1.38729 7.173938,3.98477 7.70351,0.50157 16.33965,0.0705 24.4,0.21523 0.80646,5.49791 -3.07123,16.80137 5.50156,15.9125 6.00109,-5.18849 -2.8162,-20.16911 10.72082,-16.88325 46.51168,-4.71249 85.99475,-45.64584 89.0882,-92.30197 C 235.58975,93.961676 209.48972,50.825772 169.975,34.5625 158.64017,29.580927 146.36687,27.368976 134.1,26.3 c -0.95774,-5.296655 2.77137,-13.761439 -3.4125,-16.225 l -1.31719,-0.05625 z m 20.7,25.8 c 40.10405,7.552853 72.34188,44.007444 74.82671,84.72805 3.31255,36.77775 -17.52876,73.97246 -50.42593,90.62293 C 161.16839,217.78886 147.71022,221.01559 134.2,222 c 0,-62.56667 0,-125.133333 0,-187.7 4.90262,0.272613 9.81068,0.645568 14.6,1.8 z m -22.7,91.8 c 0,29.9 0,59.8 0,89.7 -8.13333,0 -16.26667,0 -24.4,0 1.63107,-5.14049 -3.302385,-3.71645 -6.728258,-3.8 -5.529677,1.88692 -4.858309,-2.4272 -6.728258,-4.2 -3.426802,-0.43044 -8.566875,0.85238 -10.943484,-0.62826 -0.345316,-3.36844 1.724621,-9.15214 -3.769547,-7.37174 -3.15085,-0.72384 -9.847792,2.18596 -8.507047,-3.14035 1.271627,-5.04271 -1.764207,-5.77794 -6.107619,-5.20561 -4.440675,0.48111 -1.258384,-6.47709 -2.215787,-9.39533 1.397602,-5.05051 -5.074504,-2.2313 -8,-2.95871 0,-4.06667 0,-8.13333 0,-12.2 -5.283936,1.64118 -4.296738,-2.98877 -4.2,-6.72826 1.821109,-5.31008 -2.280639,-4.98604 -4,-6.92826 0.0394,-7.64817 -0.0886,-15.29557 -0.1,-22.94348 -5.140078,1.63573 -3.706613,-3.30207 -3.8,-6.71303 4.590472,-2.20275 4.438432,-9.60667 3.916679,-16.47167 0.92668,-2.94888 -1.97075,-9.567815 2.083321,-9.5153 4.168763,0.217604 1.033748,-6.512506 2,-9.341289 -1.73659,-5.412676 6.648511,-0.703661 4.2,-6.828258 0.724052,-3.133195 -2.186613,-9.901108 3.141289,-8.430453 5.111045,1.458141 5.456267,-1.849541 4.858711,-6.1 -0.899755,-4.751926 0.317125,-7.387219 5.456516,-6.1 5.039317,1.39149 2.210735,-5.084921 2.943484,-8 4.066667,0 8.133333,0 12.2,0 0.741046,-3.10605 -2.192721,-9.886913 3.141289,-8.4 2.778149,-0.874754 9.306183,2.000376 9.058711,-1.9 -0.335821,-4.049584 6.504248,-0.923278 9.241289,-1.9 5.316671,1.673922 0.610847,-6.674658 6.728261,-4.2 6.87681,0 13.75363,0 20.63045,0 -0.0333,29.9 -0.0667,59.8 -0.1,89.7 z"
     id="path1" /></g><path
   style="fill:none;fill-opacity:0;stroke:#000000;stroke-width:10;stroke-opacity:1"
   d="M 136.36349,128.02506 V 48.387576 l 1.86613,0.08794 c 11.75781,0.554085 21.22066,3.033999 30.99608,8.123088 4.30131,2.239263 7.43606,4.236957 11.14331,7.101347 14.04143,10.849024 23.80819,25.984353 28.45147,44.090609 4.26347,16.62524 2.94344,35.62863 -3.58828,51.65762 -4.20876,10.3284 -10.03279,19.09586 -17.86271,26.89042 -3.58334,3.56717 -6.21942,5.73188 -10.77028,8.84442 -11.26179,7.70246 -25.04885,12.20478 -38.09649,12.44084 l -2.13923,0.0387 z"
   id="path8" /></svg>
