<svg enable-background="new 0 0 256 256" viewBox="0 0 256 256" xmlns="http://www.w3.org/2000/svg"><path d="m-134.07333 221.87312a91.08712 93.786606 0 0 1 -79.05797-46.97811 91.08712 93.786606 0 0 1 .20654-93.984114 91.08712 93.786606 0 0 1 79.26364-46.609252" fill="none" stroke="#e0e0e0" stroke-width="10" transform="matrix(-1 0 0 1 0 0)"/><path d="m134.36349 128.02302v-88.774383l2.13855.09803c13.47417.617656 24.31838 3.382094 35.52078 9.055059 4.9292 2.496177 8.52155 4.723068 12.76998 7.916093 16.09115 12.093744 27.28363 28.965565 32.60472 49.149171 4.88584 18.53267 3.37312 39.71634-4.11208 57.58435-4.82315 11.51339-11.49735 21.28675-20.47025 29.97559-4.10643 3.97643-7.12732 6.38951-12.34249 9.85915-12.90576 8.58617-28.70541 13.60504-43.6577 13.86819l-2.45151.0431z" fill="none" stroke="#00ff7f" stroke-width="12"/><path d="m128.1 10.3c-4.63325 3.712738.39995 13.479894-3.25652 16.1-7.71449 0-15.42899 0-23.14348 0 1.63107 5.140491-3.302385 3.716453-6.728258 3.8-5.529677-1.886924-4.858309 2.427196-6.728258 4.2-3.426802.430445-8.566875-.852381-10.943484.628258-.345316 3.368446 1.724621 9.152147-3.769547 7.371742-3.133195.724052-9.901108-2.186613-8.430453 3.141289 1.360573 5.14681-1.53378 6.038694-6.1 5.258711-4.887751-.969645-7.377639.458575-6.1 5.65432.323635 4.081614.734445 8.250404-4.628258 6.64568-5.327992-1.635914-2.72479 4.792654-3.403151 7.884512 1.704954 5.540113-3.678148 4.046684-7.308946 4.292082-2.219367 1.653349-.332432 7.314067-.959645 10.52121-1.195305 2.472353-5.562809 1.824322-3.794226 7.355731.08001 3.583313.812899 7.798125-4.105774 6.546465v24.5c-5.17266-1.59657-4.353484 2.79869-4.2 6.52826-1.971847 5.54793 2.557979 4.59419 4.2 6.52826v19.34348c5.283936-1.64118 4.296738 2.98877 4.2 6.72826-1.75553 5.26495 2.137135 4.8817 3.8 6.72826.430445 3.4268-.852381 8.56687.628258 10.94348 3.434556.41254 9.532908-1.83872 7.771742 3.76955.724052 3.13319-2.186613 9.9011 3.141289 8.43045 5.111045-1.45814 5.456267 1.84954 4.858711 6.1-.969645 4.88775.458575 7.37764 5.65432 6.1 4.073873-.41589 7.860351-.54439 6.34568 4.62826-1.658919 5.44442 4.808448 2.76256 7.984773 3.37174 5.652192-1.80002 4.090836 3.61351 4.215227 7.34129 1.439271 2.4129 7.311679.39266 10.497804 1.05871 2.703537.80588 1.080321 5.93852 6.728258 3.8 3.61001.10956 8.826438-1.38729 7.173938 3.98477 7.70351.50157 16.33965.0705 24.4.21523.80646 5.49791-3.07123 16.80137 5.50156 15.9125 6.00109-5.18849-2.8162-20.16911 10.72082-16.88325 46.51168-4.71249 85.99475-45.64584 89.0882-92.30197 4.17917-42.565604-21.92086-85.701508-61.43558-101.96478-11.33483-4.981573-23.60813-7.193524-35.875-8.2625-.95774-5.296655 2.77137-13.761439-3.4125-16.225l-1.31719-.05625zm20.7 25.8c40.10405 7.552853 72.34188 44.007444 74.82671 84.72805 3.31255 36.77775-17.52876 73.97246-50.42593 90.62293-12.03239 6.33788-25.49056 9.56461-39.00078 10.54902 0-62.56667 0-125.133333 0-187.7 4.90262.272613 9.81068.645568 14.6 1.8zm-22.7 91.8v89.7c-8.13333 0-16.26667 0-24.4 0 1.63107-5.14049-3.302385-3.71645-6.728258-3.8-5.529677 1.88692-4.858309-2.4272-6.728258-4.2-3.426802-.43044-8.566875.85238-10.943484-.62826-.345316-3.36844 1.724621-9.15214-3.769547-7.37174-3.15085-.72384-9.847792 2.18596-8.507047-3.14035 1.271627-5.04271-1.764207-5.77794-6.107619-5.20561-4.440675.48111-1.258384-6.47709-2.215787-9.39533 1.397602-5.05051-5.074504-2.2313-8-2.95871 0-4.06667 0-8.13333 0-12.2-5.283936 1.64118-4.296738-2.98877-4.2-6.72826 1.821109-5.31008-2.280639-4.98604-4-6.92826.0394-7.64817-.0886-15.29557-.1-22.94348-5.140078 1.63573-3.706613-3.30207-3.8-6.71303 4.590472-2.20275 4.438432-9.60667 3.916679-16.47167.92668-2.94888-1.97075-9.567815 2.083321-9.5153 4.168763.217604 1.033748-6.512506 2-9.341289-1.73659-5.412676 6.648511-.703661 4.2-6.828258.724052-3.133195-2.186613-9.901108 3.141289-8.430453 5.111045 1.458141 5.456267-1.849541 4.858711-6.1-.899755-4.751926.317125-7.387219 5.456516-6.1 5.039317 1.39149 2.210735-5.084921 2.943484-8h12.2c.741046-3.10605-2.192721-9.886913 3.141289-8.4 2.778149-.874754 9.306183 2.000376 9.058711-1.9-.335821-4.049584 6.504248-.923278 9.241289-1.9 5.316671 1.673922.610847-6.674658 6.728261-4.2h20.63045c-.0333 29.9-.0667 59.8-.1 89.7z" fill="#000" stroke="#000"/></svg>
