<svg height="256" viewBox="0 0 72.248892 72.248892" width="256" xmlns="http://www.w3.org/2000/svg"><g stroke="#000"><path d="m84.086212-3.401149h62.682362v62.687038h-62.682362z" fill="none" opacity="0" stroke-linecap="square" stroke-width=".532929"/><path d="m65.085396-9.497666h62.682362v62.687038h-62.682362z" fill="none" opacity="0" stroke-linecap="square" stroke-width=".532929"/><g fill-rule="evenodd" stroke-width="2.25778"><path d="m38.780081 38.802886 27.257714 26.927953"/><path d="m6.6923776 5.5699983 26.2003874 27.9577777"/></g></g><g fill="#00ff7f"><path d="m33.744636 15.549049-19.081186 19.234269" fill-rule="evenodd" stroke="#000" stroke-width="2.25778"/><path d="m59.572564 39.894001-19.081186 19.234268" fill-rule="evenodd" stroke="#000" stroke-width="2.25778"/><path d="m25.750921 26.701787-9.540177 9.620868-.795342-.789351-.79534-.789353 9.540177-9.620869 9.540176-9.620868.795343.789354.79534.789351z"/><path d="m50.120302 49.595969-9.517817 9.682783-.796934-.790625-.796937-.790627 9.517819-9.682782 9.517815-9.682784.796936.790627.796935.790626z"/><g fill-rule="evenodd" stroke="#000"><path d="m49.741686 49.442316 2.833701 9.966821 7.155445-7.212851z" stroke-linecap="round" stroke-width="2.25778"/><path d="m24.826389 25.1562-9.989145-2.753971 7.155445-7.212851z" stroke-linecap="round" stroke-width="2.25778"/><path d="m18.442584 41.600824 41.164331-26.526019 2.990026 3.683357-19.602053 12.631437 1.029814 4.946505c-9.1045 5.026808-20.709252 9.478658-25.582118 5.26472z" stroke-width="2.34489"/></g></g></svg>
