<svg xmlns="http://www.w3.org/2000/svg" shape-rendering="geometricPrecision" text-rendering="geometricPrecision" image-rendering="optimizeQuality" fill-rule="evenodd" clip-rule="evenodd" viewBox="0 0 512 472.34"><path fill="#009800" fill-rule="nonzero" d="M105.32 230.83c24.41 14.96 37.99 37.49 50.26 57.87l2.72 4.51c49.63-67.2 97.21-130.7 155.42-186.63C375.43 47.26 440.08 4.55 503.57.02c4.34-.3 8.11 2.97 8.41 7.3.19 2.64-.96 5.08-2.86 6.64C443.34 69.2 383.04 136.02 326.3 211.32 269.39 286.84 224.24 363.55 172.59 453c-6.7 11.59-13.51 18.57-21.75 19.28-8.54.74-16.5-5.11-24.68-19.28l-.24-.45c-13.45-23.4-24.64-49.93-35.35-75.36-23.76-56.37-45.17-107.15-80.89-98.62-5.92 1.4-11.03-4.15-9.36-9.85 6.21-21.1 20.08-39.02 41.28-46.69 21.57-7.79 44.63-2.87 63.72 8.8z"/></svg>