<svg height="256" viewBox="0 0 72.248892 72.248892" width="256" xmlns="http://www.w3.org/2000/svg"><g stroke="#000"><g fill="none" stroke-dashoffset="3.99627" stroke-linecap="round"><circle cx="36.12439" cy="36.124447" r="25.964447" stroke-width="2.25778"/><path d="m59.112969 41.248503a23.543329 23.391703 0 0 1 -23.568794 18.336354 23.543329 23.391703 0 0 1 -22.630705-19.468042 23.543329 23.391703 0 0 1 14.89301-25.799688" stroke-width="2.28951"/><path d="m35.682072 12.500614a23.743639 23.563736 0 0 1 23.6667 18.879916" stroke-width="2.05561"/></g><g fill="#00ff7f" stroke-dashoffset="8" stroke-linecap="square" stroke-width="2.25778"><circle cx="61.995251" cy="33.717457" r="5.644445"/><circle cx="35.347294" cy="10.253604" r="5.644445"/></g></g><g fill="#00ff7f"><path d="m209.96119 96.922754c-3.69053-9.845107-9.71913-19.631409-17.05964-27.693142-1.94487-2.135957-5.52496-5.594799-7.81865-7.553851-7.11806-6.079571-15.25583-11.023401-23.97482-14.565117-3.64006-1.478619-7.54086-2.766301-11.2844-3.725065-.78268-.200454-1.43399-.375398-1.44736-.388764-.0399-.03993.10864-.520424.16092-.520424.0265 0 .5313.122469 1.12171.272153 17.24307 4.371557 32.78614 13.921517 44.58888 27.396263 6.44636 7.359572 11.75845 16.040435 15.41063 25.183631.81822 2.048404.77968 1.922846.61692 2.009953-.11992.06418-.14849.02637-.31419-.415637z" transform="matrix(.28222223 0 0 .28222223 0 0)"/><circle cx="24.563107" cy="15.693096" r=".010771" stroke="#000" stroke-width=".282222"/><path d="m120.20987 214.7359c-17.21037-1.60967-33.419113-8.14289-47.016184-18.95071-3.918065-3.11433-10.96699-10.22374-13.940479-14.06011-10.305107-13.29555-16.36318-28.24635-18.177472-44.86044-.430352-3.94088-.428257-13.18844.0039-17.19203 1.786053-16.54655 7.836836-31.489234 18.165464-44.860437 3.055838-3.956016 10.64778-11.539847 14.621835-14.606216 6.951756-5.363951 13.745913-9.290688 21.480133-12.414613 3.204843-1.294467 4.572503-1.177566 6.164763.526938.82358.881625 1.07211 2.959199.48891 4.086976-.61103 1.181601-1.19849 1.599244-3.549527 2.523423-1.181952.464619-3.720462 1.612937-5.641133 2.551817-24.668029 12.058445-41.397335 36.172706-43.93655 63.331822-.462326 4.94498-.190192 14.93718.528629 19.41014 4.274601 26.59929 21.341628 48.97877 45.6932 59.91614 18.434931 8.27993 38.951021 9.32373 58.155431 2.95877 11.62128-3.85167 21.52321-9.88192 30.43539-18.53506 10.57972-10.27222 17.82045-22.86808 21.54015-37.47095.7631-2.99581 1.14452-3.66569 2.47307-4.34347 2.59662-1.3247 5.58551.49687 5.58817 3.40569.00054.60273-.41233 2.59727-.91751 4.43232-4.14197 15.04541-11.37094 27.53418-22.31758 38.55583-5.75417 5.7936-10.54747 9.56478-17.24484 13.56755-11.3141 6.76202-23.76255 10.75564-37.55474 12.04802-3.41272.31978-11.51844.30825-15.04302-.0214z" transform="matrix(.28222223 0 0 .28222223 0 0)"/></g></svg>
