<?xml version="1.0" encoding="UTF-8" standalone="no"?>
<svg
   width="256"
   height="256"
   viewBox="0 0 72.248892 72.248892"
   id="svg4295"
   version="1.1"
   inkscape:version="1.2.2 (732a01da63, 2022-12-09)"
   sodipodi:docname="circle_by_arc.svg"
   inkscape:export-filename="E:\icons\measure.png"
   inkscape:export-xdpi="8.4375"
   inkscape:export-ydpi="8.4375"
   xmlns:inkscape="http://www.inkscape.org/namespaces/inkscape"
   xmlns:sodipodi="http://sodipodi.sourceforge.net/DTD/sodipodi-0.dtd"
   xmlns="http://www.w3.org/2000/svg"
   xmlns:svg="http://www.w3.org/2000/svg"
   xmlns:rdf="http://www.w3.org/1999/02/22-rdf-syntax-ns#"
   xmlns:cc="http://creativecommons.org/ns#"
   xmlns:dc="http://purl.org/dc/elements/1.1/">
  <metadata
     id="metadata4325">
    <rdf:RDF>
      <cc:Work
         rdf:about="">
        <dc:format>image/svg+xml</dc:format>
        <dc:type
           rdf:resource="http://purl.org/dc/dcmitype/StillImage" />
        <dc:title />
      </cc:Work>
    </rdf:RDF>
  </metadata>
  <defs
     id="defs4323" />
  <sodipodi:namedview
     pagecolor="#ffffff"
     bordercolor="#666666"
     borderopacity="1"
     objecttolerance="10"
     gridtolerance="10"
     guidetolerance="10"
     inkscape:pageopacity="0"
     inkscape:pageshadow="2"
     inkscape:window-width="3840"
     inkscape:window-height="2126"
     id="namedview4321"
     showgrid="true"
     units="px"
     inkscape:snap-grids="true"
     inkscape:zoom="0.23266601"
     inkscape:cx="1255.0179"
     inkscape:cy="1171.2067"
     inkscape:window-x="-11"
     inkscape:window-y="-11"
     inkscape:window-maximized="1"
     inkscape:current-layer="svg4295"
     inkscape:object-nodes="true"
     inkscape:snap-object-midpoints="false"
     inkscape:showpageshadow="2"
     inkscape:pagecheckerboard="0"
     inkscape:deskcolor="#d1d1d1">
    <inkscape:grid
       type="xygrid"
       id="grid4867" />
  </sodipodi:namedview>
  <circle
     r="25.964447"
     style="fill:none;fill-opacity:1;fill-rule:nonzero;stroke:#000000;stroke-width:2.25778;stroke-linecap:round;stroke-linejoin:miter;stroke-miterlimit:4;stroke-dasharray:none;stroke-dashoffset:3.99627;stroke-opacity:1"
     id="circle6020"
     cx="36.12439"
     cy="36.124447" />
  <path
     style="fill:none;fill-opacity:1;fill-rule:nonzero;stroke:#000000;stroke-width:2.28951;stroke-linecap:round;stroke-linejoin:miter;stroke-miterlimit:4;stroke-dasharray:none;stroke-dashoffset:3.99627;stroke-opacity:1"
     id="circle6020-0"
     sodipodi:type="arc"
     sodipodi:cx="36.124447"
     sodipodi:cy="36.20026"
     sodipodi:rx="23.543329"
     sodipodi:ry="23.391703"
     sodipodi:start="0.2175248"
     sodipodi:end="4.3512878"
     sodipodi:open="true"
     sodipodi:arc-type="arc"
     d="M 59.112969,41.248503 A 23.543329,23.391703 0 0 1 35.544175,59.584857 23.543329,23.391703 0 0 1 12.91347,40.116815 23.543329,23.391703 0 0 1 27.80648,14.317127" />
  <path
     style="fill:none;fill-opacity:1;fill-rule:nonzero;stroke:#000000;stroke-width:2.05561;stroke-linecap:round;stroke-linejoin:miter;stroke-miterlimit:4;stroke-dasharray:none;stroke-dashoffset:3.99627;stroke-opacity:1"
     id="circle6020-4"
     sodipodi:type="arc"
     sodipodi:cx="36.078251"
     sodipodi:cy="36.061069"
     sodipodi:rx="23.743639"
     sodipodi:ry="23.563736"
     sodipodi:start="4.6957025"
     sodipodi:end="6.0832222"
     sodipodi:arc-type="arc"
     d="m 35.682072,12.500614 a 23.743639,23.563736 0 0 1 23.6667,18.879916"
     sodipodi:open="true" />
  <circle
     r="5.6444449"
     cy="33.717457"
     cx="61.995251"
     id="circle5725"
     style="fill:#00ff7f;fill-opacity:1;fill-rule:nonzero;stroke:#000000;stroke-width:2.25778;stroke-linecap:square;stroke-linejoin:miter;stroke-miterlimit:4;stroke-dasharray:none;stroke-dashoffset:8;stroke-opacity:1" />
  <circle
     style="fill:#00ff7f;fill-opacity:1;fill-rule:nonzero;stroke:#000000;stroke-width:2.25778;stroke-linecap:square;stroke-linejoin:miter;stroke-miterlimit:4;stroke-dasharray:none;stroke-dashoffset:8;stroke-opacity:1"
     id="circle4724"
     cx="35.347294"
     cy="10.253604"
     r="5.6444449" />
  <path
     style="fill:#00ff7f;fill-opacity:1;stroke:#000000;stroke-width:0.0671564;stroke-opacity:0"
     d="m 209.96119,96.922754 c -3.69053,-9.845107 -9.71913,-19.631409 -17.05964,-27.693142 -1.94487,-2.135957 -5.52496,-5.594799 -7.81865,-7.553851 -7.11806,-6.079571 -15.25583,-11.023401 -23.97482,-14.565117 -3.64006,-1.478619 -7.54086,-2.766301 -11.2844,-3.725065 -0.78268,-0.200454 -1.43399,-0.375398 -1.44736,-0.388764 -0.0399,-0.03993 0.10864,-0.520424 0.16092,-0.520424 0.0265,0 0.5313,0.122469 1.12171,0.272153 17.24307,4.371557 32.78614,13.921517 44.58888,27.396263 6.44636,7.359572 11.75845,16.040435 15.41063,25.183631 0.81822,2.048404 0.77968,1.922846 0.61692,2.009953 -0.11992,0.06418 -0.14849,0.02637 -0.31419,-0.415637 z"
     id="path2907"
     transform="scale(0.28222223)" />
  <circle
     id="path3095"
     style="fill:#00ff7f;stroke:#000000;stroke-width:0.282222;fill-opacity:1"
     cx="24.563107"
     cy="15.693096"
     r="0.0107713" />
  <path
     style="fill:#00ff7f;fill-opacity:1;stroke:#000000;stroke-width:0.268625;stroke-opacity:0"
     d="M 120.20987,214.7359 C 102.9995,213.12623 86.790757,206.59301 73.193686,195.78519 69.275621,192.67086 62.226696,185.56145 59.253207,181.72508 48.9481,168.42953 42.890027,153.47873 41.075735,136.86464 c -0.430352,-3.94088 -0.428257,-13.18844 0.0039,-17.19203 1.786053,-16.54655 7.836836,-31.489234 18.165464,-44.860437 3.055838,-3.956016 10.64778,-11.539847 14.621835,-14.606216 6.951756,-5.363951 13.745913,-9.290688 21.480133,-12.414613 3.204843,-1.294467 4.572503,-1.177566 6.164763,0.526938 0.82358,0.881625 1.07211,2.959199 0.48891,4.086976 -0.61103,1.181601 -1.19849,1.599244 -3.549527,2.523423 -1.181952,0.464619 -3.720462,1.612937 -5.641133,2.551817 -24.668029,12.058445 -41.397335,36.172706 -43.93655,63.331822 -0.462326,4.94498 -0.190192,14.93718 0.528629,19.41014 4.274601,26.59929 21.341628,48.97877 45.6932,59.91614 18.434931,8.27993 38.951021,9.32373 58.155431,2.95877 11.62128,-3.85167 21.52321,-9.88192 30.43539,-18.53506 10.57972,-10.27222 17.82045,-22.86808 21.54015,-37.47095 0.7631,-2.99581 1.14452,-3.66569 2.47307,-4.34347 2.59662,-1.3247 5.58551,0.49687 5.58817,3.40569 5.4e-4,0.60273 -0.41233,2.59727 -0.91751,4.43232 -4.14197,15.04541 -11.37094,27.53418 -22.31758,38.55583 -5.75417,5.7936 -10.54747,9.56478 -17.24484,13.56755 -11.3141,6.76202 -23.76255,10.75564 -37.55474,12.04802 -3.41272,0.31978 -11.51844,0.30825 -15.04302,-0.0214 z"
     id="path3099"
     transform="scale(0.28222223)" />
</svg>
