<svg height="256" viewBox="0 0 72.248892 72.248892" width="256" xmlns="http://www.w3.org/2000/svg"><g stroke="#000"><g fill="none" stroke-width="9.031112"><path d="m6.773333 38.382225h27.093335"/><path d="m20.32 24.835558.000001 27.093335"/></g><g stroke-width="1.128889"><g fill="none"><path d="m37.253336 64.911116v-54.751115h27.093335v54.751114"/><path d="m37.253336 37.253336h27.093335"/><path d="m37.253336 64.346671h27.093335"/></g><path d="m56.444448 18.062224-11.288889 11.288889" fill-rule="evenodd"/><g stroke-dashoffset="20" stroke-linecap="round"><circle cx="50.800003" cy="50.800003" fill="none" r="7.902223"/><circle cx="-56.444427" cy="18.062223" r="1.128889" transform="matrix(-1 0 0 1 0 0)"/><circle cx="-45.155556" cy="29.351114" r="1.128889" transform="matrix(-1 0 0 1 0 0)"/><circle cx="45.155556" cy="45.155548" r="1.128889"/><circle cx="56.444427" cy="56.44442" r="1.128889"/></g></g></g><g fill="none" stroke-width="2.257778"><path d="m38.382225 62.088893h23.706668l.000002-23.706668" stroke="#00ff7f"/><path d="m39.511114 62.088893v-22.577779l22.577781-.000002" stroke="#fff"/><path d="m38.369194 34.995557h23.719699v-23.706667" stroke="#00ff7f"/><path d="m39.511114 34.995558v-22.577779h22.577779" stroke="#fff"/></g></svg>
