<?xml version="1.0" encoding="UTF-8" standalone="no"?>
<svg
   width="256"
   height="256"
   viewBox="0 0 72.248892 72.248892"
   id="svg4295"
   version="1.1"
   inkscape:version="1.2.2 (732a01da63, 2022-12-09)"
   sodipodi:docname="cross_circle1.svg"
   inkscape:export-filename="D:\LC_Recources\icons\points24.png"
   inkscape:export-xdpi="8.4375"
   inkscape:export-ydpi="8.4375"
   xmlns:inkscape="http://www.inkscape.org/namespaces/inkscape"
   xmlns:sodipodi="http://sodipodi.sourceforge.net/DTD/sodipodi-0.dtd"
   xmlns="http://www.w3.org/2000/svg"
   xmlns:svg="http://www.w3.org/2000/svg"
   xmlns:rdf="http://www.w3.org/1999/02/22-rdf-syntax-ns#"
   xmlns:cc="http://creativecommons.org/ns#"
   xmlns:dc="http://purl.org/dc/elements/1.1/">
  <metadata
     id="metadata4325">
    <rdf:RDF>
      <cc:Work
         rdf:about="">
        <dc:format>image/svg+xml</dc:format>
        <dc:type
           rdf:resource="http://purl.org/dc/dcmitype/StillImage" />
      </cc:Work>
    </rdf:RDF>
  </metadata>
  <defs
     id="defs4323" />
  <sodipodi:namedview
     pagecolor="#ffffff"
     bordercolor="#666666"
     borderopacity="1"
     objecttolerance="10"
     gridtolerance="10"
     guidetolerance="10"
     inkscape:pageopacity="0"
     inkscape:pageshadow="2"
     inkscape:window-width="3840"
     inkscape:window-height="2126"
     id="namedview4321"
     showgrid="false"
     units="px"
     inkscape:snap-grids="true"
     inkscape:zoom="0.125"
     inkscape:cx="87.999999"
     inkscape:cy="228"
     inkscape:window-x="-11"
     inkscape:window-y="-11"
     inkscape:window-maximized="1"
     inkscape:current-layer="svg4295"
     inkscape:object-nodes="true"
     inkscape:snap-object-midpoints="false"
     showguides="false"
     inkscape:showpageshadow="2"
     inkscape:pagecheckerboard="0"
     inkscape:deskcolor="#d1d1d1">
    <inkscape:grid
       type="xygrid"
       id="grid4867" />
  </sodipodi:namedview>
  <path
     style="display:inline;fill:#00ff00;stroke-width:1.53163;stroke-miterlimit:4;stroke-dasharray:none"
     d="M 36.160316,24.865882 A 21.348189,10.961054 0 0 0 14.263078,35.514545 l -0.0047,0.08872 A 21.348189,10.961054 0 0 0 35.130937,46.781483 21.348189,10.961054 0 0 0 56.944781,36.087261 21.348189,10.961054 0 0 0 36.160316,24.865882 Z m -0.04404,0.878938 A 19.64057,10.083719 0.32412132 0 1 55.237594,36.148234 19.64057,10.083719 0.32412132 0 1 35.16896,45.902886 19.64057,10.083719 0.32412132 0 1 15.966265,35.539208 l 0.0041,-0.08186 A 19.64057,10.083719 0.32412132 0 1 36.11626,25.74482 Z"
     id="path1819" />
  <path
     style="fill:#000000;stroke-width:1.32067609;stroke-miterlimit:4;stroke-dasharray:none"
     d="M 125 121 L 125 126 L 120 126 L 120 131 L 125 131 L 125 136 L 130 136 L 130 131 L 135 131 L 135 126 L 130 126 L 130 121 L 125 121 z "
     id="rect4722"
     transform="scale(0.28222223)" />
  <circle
     id="path1594"
     style="fill:#000000;stroke:#000000;stroke-width:0.282222;fill-opacity:1"
     cx="40.012032"
     cy="31.630459"
     r="0.014176728" />
  <path
     style="display:inline;fill:#000000;stroke-width:2.20902;stroke-miterlimit:4;stroke-dasharray:none"
     d="M 36.554037,14.271228 A 22.567896,21.568602 0 0 0 13.405722,35.225123 l -0.0048,0.174572 A 22.567896,21.568602 0 0 0 35.465842,57.395626 22.567896,21.568602 0 0 0 58.525999,36.352084 22.567896,21.568602 0 0 0 36.554037,14.271228 Z m -0.04655,1.729533 A 20.769616,19.835629 5.0766371 0 1 56.72127,36.472062 20.769616,19.835629 5.0766371 0 1 35.506036,55.666768 20.769616,19.835629 5.0766371 0 1 15.206214,35.273651 l 0.0042,-0.161088 A 20.769616,19.835629 5.0766371 0 1 36.507468,16.000761 Z"
     id="path2498" />
  <rect
     style="fill:#00ff00;fill-opacity:1;stroke-width:0.278985"
     id="rect3226"
     width="65.056969"
     height="1.511322"
     x="3.6419928"
     y="35.50729" />
  <rect
     style="fill:#00ff00;fill-opacity:1;stroke-width:0.301057"
     id="rect3228"
     width="1.6463803"
     height="63.260918"
     x="35.172672"
     y="4.490128" />
  <rect
     style="fill:#000000;fill-opacity:1;stroke-width:0.37401"
     id="rect3299"
     width="0.69846439"
     height="63.186081"
     x="35.197613"
     y="4.6148539" />
  <rect
     style="fill:#000000;fill-opacity:1;stroke-width:0.212914"
     id="rect3301"
     width="0.60858619"
     height="63.009502"
     x="36.497154"
     y="4.8020577"
     ry="0.097764939" />
  <rect
     style="fill:#000000;fill-opacity:1;stroke-width:0.222087"
     id="rect3303"
     width="65.087502"
     height="0.56799006"
     x="3.6336112"
     y="35.450623"
     ry="0.043691546" />
  <rect
     style="fill:#000000;fill-opacity:1;stroke-width:0.240937"
     id="rect3305"
     width="65.016945"
     height="0.66777068"
     x="3.6336112"
     y="36.86528"
     ry="0.051366977" />
</svg>
