<svg height="256" viewBox="0 0 72.248892 72.248892" width="256" xmlns="http://www.w3.org/2000/svg"><path d="m36.160316 24.865882a21.348189 10.961054 0 0 0 -21.897238 10.648663l-.0047.08872a21.348189 10.961054 0 0 0 20.872559 11.178218 21.348189 10.961054 0 0 0 21.813844-10.694222 21.348189 10.961054 0 0 0 -20.784465-11.221379zm-.04404.878938a19.64057 10.083719.32412132 0 1 19.121318 10.403414 19.64057 10.083719.32412132 0 1 -20.068634 9.754652 19.64057 10.083719.32412132 0 1 -19.202695-10.363678l.0041-.08186a19.64057 10.083719.32412132 0 1 20.145895-9.712528z" fill="#00ff7f" stroke-width="1.53163"/><path d="m125 121v5h-5v5h5v5h5v-5h5v-5h-5v-5z" stroke="#000" stroke-width="1.320676" transform="matrix(.28222223 0 0 .28222223 0 0)"/><circle cx="40.012032" cy="31.630459" r=".014177" stroke="#000" stroke-width=".282222"/><path d="m36.554037 14.271228a22.567896 21.568602 0 0 0 -23.148315 20.953895l-.0048.174572a22.567896 21.568602 0 0 0 22.06492 21.995931 22.567896 21.568602 0 0 0 23.060157-21.043542 22.567896 21.568602 0 0 0 -21.971962-22.080856zm-.04655 1.729533a20.769616 19.835629 5.0766371 0 1 20.213783 20.471301 20.769616 19.835629 5.0766371 0 1 -21.215234 19.194706 20.769616 19.835629 5.0766371 0 1 -20.299822-20.393117l.0042-.161088a20.769616 19.835629 5.0766371 0 1 21.297054-19.111802z" fill="#000" stroke-width="2.20902"/><g style="fill:#00ff7f;stroke:#000;fill-opacity:1;stroke-width:.931333;stroke-linecap:square;stroke-dasharray:none;stroke-dashoffset:3.06142;stroke-opacity:1"><rect height="1.86881" ry=".213045" width="24.007713" x="38.568779" y="35.190041"/><rect height="1.86881" ry=".213045" width="24.007713" x="9.565229" y="35.33115"/><g transform="matrix(0 1 -1 0 0 0)"><rect height="1.86881" ry=".213045" width="24.007713" x="9.759923" y="-36.898872"/><rect height="1.86881" ry=".213045" width="24.007713" x="38.763474" y="-36.91774"/></g></g></svg>
