<?xml version="1.0" encoding="UTF-8" standalone="no"?>
<svg
   width="256"
   height="256"
   viewBox="0 0 72.248892 72.248892"
   id="svg4295"
   version="1.1"
   inkscape:version="1.2.2 (732a01da63, 2022-12-09)"
   sodipodi:docname="cross_circle.svg"
   inkscape:export-filename="D:\LC_Recources\icons\points24.png"
   inkscape:export-xdpi="8.4375"
   inkscape:export-ydpi="8.4375"
   xmlns:inkscape="http://www.inkscape.org/namespaces/inkscape"
   xmlns:sodipodi="http://sodipodi.sourceforge.net/DTD/sodipodi-0.dtd"
   xmlns="http://www.w3.org/2000/svg"
   xmlns:svg="http://www.w3.org/2000/svg"
   xmlns:rdf="http://www.w3.org/1999/02/22-rdf-syntax-ns#"
   xmlns:cc="http://creativecommons.org/ns#"
   xmlns:dc="http://purl.org/dc/elements/1.1/">
  <metadata
     id="metadata4325">
    <rdf:RDF>
      <cc:Work
         rdf:about="">
        <dc:format>image/svg+xml</dc:format>
        <dc:type
           rdf:resource="http://purl.org/dc/dcmitype/StillImage" />
        <dc:title />
      </cc:Work>
    </rdf:RDF>
  </metadata>
  <defs
     id="defs4323" />
  <sodipodi:namedview
     pagecolor="#ffffff"
     bordercolor="#666666"
     borderopacity="1"
     objecttolerance="10"
     gridtolerance="10"
     guidetolerance="10"
     inkscape:pageopacity="0"
     inkscape:pageshadow="2"
     inkscape:window-width="3840"
     inkscape:window-height="2126"
     id="namedview4321"
     showgrid="true"
     units="px"
     inkscape:snap-grids="true"
     inkscape:zoom="4"
     inkscape:cx="36.125"
     inkscape:cy="126.125"
     inkscape:window-x="-11"
     inkscape:window-y="-11"
     inkscape:window-maximized="1"
     inkscape:current-layer="svg4295"
     inkscape:object-nodes="true"
     inkscape:snap-object-midpoints="false"
     showguides="false"
     inkscape:showpageshadow="2"
     inkscape:pagecheckerboard="0"
     inkscape:deskcolor="#d1d1d1">
    <inkscape:grid
       type="xygrid"
       id="grid4867" />
  </sodipodi:namedview>
  <path
     style="display:inline;fill:#000000;stroke-width:6.25782633;stroke-miterlimit:4;stroke-dasharray:none"
     d="M 129.13281 66.021484 A 62.499999 62.499999 0 0 0 65.025391 126.74023 L 65.011719 127.24609 A 62.499999 62.499999 0 0 0 126.11914 190.98438 A 62.499999 62.499999 0 0 0 189.98242 130.00586 A 62.499999 62.499999 0 0 0 129.13281 66.021484 z M 129.00391 71.033203 A 57.732794 57.26626 44.999608 0 1 184.98438 130.35352 A 57.732794 57.26626 44.999608 0 1 126.23047 185.97461 A 57.732794 57.26626 44.999608 0 1 70.011719 126.88086 L 70.023438 126.41406 A 57.732794 57.26626 44.999608 0 1 129.00391 71.033203 z "
     transform="scale(0.28222223)"
     id="path4671" />
  <path
     style="fill:#000000;stroke-width:1.32067609;stroke-miterlimit:4;stroke-dasharray:none"
     d="M 125 121 L 125 126 L 120 126 L 120 131 L 125 131 L 125 136 L 130 136 L 130 131 L 135 131 L 135 126 L 130 126 L 130 121 L 125 121 z "
     id="rect4722"
     transform="scale(0.28222223)" />
  <rect
     style="fill:#00ff00;stroke-width:0.281994"
     id="rect869"
     width="21.251627"
     height="1.4111797"
     x="12.616535"
     y="35.560883" />
  <rect
     style="fill:#00ff00;stroke-width:0.284241"
     id="rect871"
     width="21.015907"
     height="1.4124432"
     x="38.096825"
     y="35.557739" />
  <rect
     style="fill:#00ff00;stroke-width:0.459474"
     id="rect873"
     width="1.4124464"
     height="20.393665"
     x="35.277416"
     y="38.381901" />
  <rect
     style="fill:#00ff00;stroke-width:0.287415"
     id="rect875"
     width="1.4062831"
     height="18.908428"
     x="35.284924"
     y="15.24149" />
</svg>
