<svg height="256" viewBox="0 0 72.248892 72.248892" width="256" xmlns="http://www.w3.org/2000/svg"><g stroke="#000" stroke-width="2.25778"><path d="m63.812524 65.214956v-42.468837" fill="none"/><path d="m23.006602 32.138462 28.623492.101609" fill="none"/><path d="m61.688486 31.935245-9.031112-5.08v10.160001z" fill="#00ff7f" fill-rule="evenodd" stroke-linecap="round"/><path d="m12.860628 32.341679 9.031112-5.08v10.160001z" fill="#00ff7f" fill-rule="evenodd" stroke-linecap="round"/><path d="m10.651334 65.595418v-42.612533" fill="none"/></g><path d="m45.18112 36.124447h-3.896059l-1.614716-4.814521h-7.777304l-1.585088 4.814521h-3.110921l6.710701-20.220989h4.488615zm-6.488493-7.732862-2.947969-9.021672-2.947968 9.021672z" fill="#000" transform="matrix(.76828448 0 0 .75127972 9.961124 -4.630673)"/><g stroke="#000" stroke-width="2.25778"><path d="m22.955798 53.730728 20.901237-.0508" fill="none"/><path d="m44.228594 53.629119-9.031112-5.08v10.160001z" fill="#00ff7f" fill-rule="evenodd" stroke-linecap="round"/><path d="m12.860628 53.781533 9.031112-5.08v10.160001z" fill="#00ff7f" fill-rule="evenodd" stroke-linecap="round"/><path d="m46.452357 64.856141-.0508-20.088065" fill="none"/></g></svg>
