<svg height="256" viewBox="0 0 72.248892 72.248892" width="256" xmlns="http://www.w3.org/2000/svg"><g stroke="#000" stroke-width="2.74078" transform="matrix(.84927617 0 0 .79903487 6.682484 8.24797)"><path d="m59.831115 56.444448v-27.093334" fill="none"/><path d="m24.835557 44.02667h22.577779" fill="none"/><path d="m57.573337 44.02667-9.031112-5.08v10.160001z" fill="#00ff7f" fill-rule="evenodd" stroke-linecap="round"/><path d="m14.689583 44.02667 9.031112-5.08v10.160001z" fill="#00ff7f" fill-rule="evenodd" stroke-linecap="round"/><path d="m12.417777 56.444448v-27.093334" fill="none"/></g><path d="m44.15574 37.495452h-2.943532l-1.219942-3.22914h-5.875871l-1.197558 3.22914h-2.350347l5.070035-13.562385h3.391217zm-4.902156-5.186495-2.227234-6.050911-2.227233 6.050911z" fill="#000" stroke-width=".999997"/><g stroke="#000"><path d="m36.124536 12.400212a31.176687 28.392403 0 0 1 28.803502 17.527101 31.176687 28.392403 0 0 1 -6.758257 30.941763 31.176687 28.392403 0 0 1 -33.976048 6.154698 31.176687 28.392403 0 0 1 -19.2458844-26.231161" fill="none" stroke-linecap="square" stroke-width="2.25779"/><path d="m34.768493 6.4350867-6.77334 5.6444453 6.77334 5.644445z" fill="#000" fill-rule="evenodd" stroke-width=".282222"/></g></svg>