<svg viewBox="0 0 512 512" xmlns="http://www.w3.org/2000/svg"><path d="m165.59413 309.21297v-243.786782" fill="none" stroke="#000" stroke-linecap="square" stroke-width="16.0001"/><path d="m99.033979 121.78084h280.595121" fill="none" stroke="#000" stroke-linecap="square" stroke-width="16.0001"/><path d="m122.51061 334.26951 41.92916 30.31051 44.23789-31.88155v16.24041l-33.85189 24.39785 33.85189 24.39786v16.24039l-45.08041-32.5553-41.08336 29.78577v-16.2404l30.69189-22.22757-30.69189-22.22758v-16.24039" stroke-width=".999996"/><path d="m450.04421 155.53039c-4.00033 9.97862-7.89891 16.48946-11.69464 19.53362-3.79573 3.04307-8.87275 4.56514-15.23324 4.56514h-11.30949v-11.52517h8.30923c3.89858 0 6.92401-.89834 9.07845-2.69396 2.15445-1.79668 4.53868-6.0372 7.15488-12.7226l2.53851-6.28627-34.85197-82.468626h15.00236l26.92679 65.555536 26.9268-65.555536h15.00236l-37.85222 91.601056" stroke-width=".999996"/><ellipse cx="163.07414" cy="118.25163" rx="29.541752" ry="27.05843" style="fill:#00ff7f;fill-opacity:1;fill-rule:nonzero;stroke:#000;stroke-width:8.00001;stroke-linecap:butt;stroke-linejoin:miter;stroke-miterlimit:4;stroke-dasharray:none;stroke-dashoffset:1.6;stroke-opacity:1"/><path d="m12.855341 471.34763 180.605109 1.68471" fill="none" stroke="#000" stroke-width="8.00001"/><path d="m226.51118 461.02428 13.0827.12564-.0131.92455q-1.24453-.012-1.76551.33292-.49063.34516-.49877.91988-.009.5997 1.03619 1.85929.32823.40301.98399 1.259l1.9362 2.61767 2.31339-2.57686q2.22057-2.45279 2.22978-3.10247.007-.52474-.50363-.87952-.51071-.37977-1.66417-.39085l.0131-.92455 9.40983.0904-.0131.92454q-1.48842.0607-2.58967.64989-1.4994.83529-4.11989 3.65911l-3.85342 4.13651 6.80462 8.26242q2.50691 3.048 3.59081 3.68319 1.08426.6102 2.81339.70178l-.0127.89955-13.11305-.12593.0128-.89956q1.36594.0131 2.13188-.47935.58169-.34429.58984-.919.008-.57472-1.9016-2.91723l-3.99806-4.93665-4.53149 4.85473q-2.09631 2.25406-2.10233 2.67885-.008.5997.65221 1.10587.69142.48147 2.05665.54457l-.0127.89955-9.07593-.0872.0127-.89956q1.09453-.11444 1.92118-.60633 1.16373-.71356 3.93776-3.66086l5.91832-6.31589-5.19241-6.34762q-2.20797-2.72024-3.44293-3.40686-1.20426-.71132-3.05587-.7291z" fill="#000" stroke-width="1.66556"/><g stroke-width="1.10784" transform="matrix(.91009476 -.00245828 .01354876 .89523803 28.485882 369.19537)"><path d="m176 100v32c10.66667-5.33333 21.33333-10.66667 32-16-10.66667-5.33333-21.33333-10.66667-32-16z" fill="#000"/><path d="m140.20142 116h35.79858" fill="none" stroke="#000" stroke-width="8.86275"/></g><g stroke-width="1.10784" transform="matrix(.00235084 -.8952077 .91012764 .01335611 -60.456411 486.60173)"><path d="m176 100v32c10.66667-5.33333 21.33333-10.66667 32-16-10.66667-5.33333-21.33333-10.66667-32-16z" fill="#000"/><path d="m140.20142 116h35.79858" fill="none" stroke="#000" stroke-width="8.86275"/></g><path d="m44.980269 507.83839.570944-177.24373" fill="none" stroke="#000" stroke-width="8.00004"/><ellipse cx="64.597771" cy="-466.51529" fill="#00ff7f" rx="18.204639" ry="17.904089" stroke="#000" stroke-dashoffset="8" stroke-linecap="square" stroke-width="8.00029" transform="matrix(.99872311 .0505189 .03850244 -.99925851 0 0)"/><g stroke="#00ff7f" transform="matrix(3.5433069 0 0 3.5433069 -102.99755 311.80669)"><text stroke-width="10" transform="matrix(.28222223 0 0 .28222223 0 0)"/><g fill="#fff"><text stroke-width="2.82222" x="-71.718208" y="-20"><tspan stroke-width="2.82222" x="-71.718208" y="-20"/></text><text stroke-width="10" transform="matrix(.28222223 0 0 .28222223 0 0)"/><text stroke-width="2.82222" x="-66" y="-15.389848"><tspan stroke-width="2.82222" x="-66" y="-15.389848"/></text><text stroke-width="10" transform="matrix(.28222223 0 0 .28222223 0 0)"/></g></g></svg>