<svg fill-rule="evenodd" height="9.0375mm" preserveAspectRatio="xMidYMid" stroke-linejoin="round" stroke-width="28.222" viewBox="0 0 7230 7230" width="9.0375mm" xmlns="http://www.w3.org/2000/svg"><g stroke="#000"><path d="m8374.5828-605.21117a3272.209 3455.97 0 0 1 -1558.044 3072.51227 3272.209 3455.97 0 0 1 -3299.2885 76.8468 3272.209 3455.97 0 0 1 -1684.78-2996.98062" fill="none" stroke-dasharray="374.401 374.401" stroke-dashoffset="0" stroke-linecap="butt" stroke-width="208.001" transform="matrix(.71614126 .69795537 .70082202 -.71333617 0 0)"/><g stroke-dasharray="none"><g fill="#00ff7f"><path d="m663.36973 1157.6322 393.05967 1168.8877 772.3071-794.2191z" fill-rule="evenodd" stroke-linecap="round" stroke-width="160.001"/><path d="m5806.9403 5773.1408-686.7346 716.109 1050.7804 299.2513z" fill-rule="evenodd" stroke-linecap="round" stroke-width="160.001"/><g stroke-dashoffset="3.06142" stroke-linecap="butt" stroke-width="208"><path d="m1408.0281 1999.1841 707.8696 709.2377"/><path d="m4552.464 5173.0865 924.2528 923.814"/></g></g><path d="m6981.0336-615.66565a1796.4563 1810.9832 0 0 1 -845.9561 1655.99195 1796.4563 1810.9832 0 0 1 -1847.5315 27.7911 1796.4563 1810.9832 0 0 1 -894.5923-1629.81007" fill="none" stroke-dashoffset="3.06142" stroke-linecap="butt" stroke-width="208.001" transform="matrix(.71547512 .69863822 .70024529 -.71390233 0 0)"/></g></g></svg>
