<svg height="256" viewBox="0 0 72.248892 72.248892" width="256" xmlns="http://www.w3.org/2000/svg"><g stroke="#000" stroke-width="2.257778"><circle cx="36.12439" cy="36.124447" fill="none" r="25.964447" stroke-dashoffset="3.996267" stroke-linecap="round"/><path d="m24.835559 24.835557 22.577797 22.57778" fill="none"/><g fill="#00ff7f" fill-rule="evenodd" stroke-linecap="round"><path d="m52.775586 52.77556-9.97807-2.793858 7.18421-7.184205z"/><path d="m19.473336 19.473334 2.793858 9.978063 7.184202-7.184206z"/></g></g><path d="m49.563003 36.124447h-2.07257v-1.289844q-.892969.771701-1.863108 1.201649-.970139.429948-2.105642.429948-2.204862 0-3.50573-1.697743-1.289844-1.697743-1.289844-4.707379 0-1.565451.440973-2.789149.451996-1.223698 1.212673-2.083594.749653-.837848 1.741841-1.27882 1.003212-.440972 2.072569-.440972.970139 0 1.719792.209462.749653.198437 1.576476.628385v-5.335764h2.07257zm-2.07257-3.031684v-7.066581q-.837847-.374826-1.499306-.518142-.661458-.143316-1.444184-.143316-1.74184 0-2.711979 1.212673-.970139 1.212674-.970139 3.439584 0 2.193837.749653 3.340365.749653 1.135504 2.403299 1.135504.881944 0 1.785937-.385851.903993-.396875 1.686719-1.014236z" fill="#000"/></svg>
