<svg height="256" viewBox="0 0 72.248892 72.248892" width="256" xmlns="http://www.w3.org/2000/svg"><g stroke="#000"><path d="m65.161252 41.79981v-27.093334" fill="none" stroke-width="2.25778"/><path d="m20.570141 29.382032h33.302224" fill="none" stroke-width="2.25779"/><g stroke-width="2.25778"><path d="m62.903474 29.382032-9.031112-5.08v10.160001z" fill="#00ff7f" fill-rule="evenodd" stroke-linecap="round"/><path d="m11.55306 29.382032 9.031112-5.08v10.160001z" fill="#00ff7f" fill-rule="evenodd" stroke-linecap="round"/><path d="m9.281253 41.79981v-27.093334" fill="none"/></g></g><g fill="#000"><path d="m47.090859 22.371803h-3.622488l-1.501335-4.403989h-7.231202l-1.473787 4.403989h-2.892479l6.239492-18.4967489h4.173436zm-6.032889-7.073483-2.740969-8.2523966-2.740968 8.2523966z" stroke-width="1"/><g stroke="none" stroke-width="1.37805" transform="matrix(.09990689 .68189611 -.71534417 .09265329 62.903412 26.326147)"><path d="m34.305863 29.599822c-.305122-.14562-3.883714-4.042591-4.794449-5.219964-1.218561-1.574465-2.211268-3.134958-2.838177-4.473964-.157487-.33316-.392503-1.031682-.521361-1.546632-.186622-.745789-.226738-1.054206-.201401-1.526838.04168-.777557-.05339-1.268564-.340757-1.694983-.176538-.279708-.295083-.383191-.547597-.503705-.852235-.40673-1.613946-.13699-2.873367 1.013213-2.289026 2.08954-7.805506 8.979283-11.824786 14.761942-2.2744549 3.277034-3.1770678 4.816431-3.5977096 6.17149-.221366.707439-.2887889 1.159985-.2804447 1.859782.011762 1.139244.2106442 1.656341 1.3008528 3.310275 1.4792931 2.246169 3.2546945 4.45384 6.3366615 7.902705 1.208961 1.350976 2.433348 2.615495 2.491446 2.588495.04149-.01929 1.131632-1.383189 3.192435-3.996011 8.873839-11.244859 14.487798-18.392987 14.560735-18.545814.01519-.03184-.01473-.07739-.06209-.09999zm-4.73563 2.438613c-1.346943 1.726065-11.840315 15.05162-12.488363 15.868149-.300529.37257-.365523.427551-.465476.379848-.226212-.10796-2.104249-2.262978-3.880468-4.455402-2.097605-2.588169-3.3312564-4.334017-3.6261317-5.123652-.3298349-.89232-.2495643-1.534189.3257551-2.604336.3028589-.566911 1.5908606-2.60256 1.6655586-2.637273.0664-.03086.36628.464079 1.218352 1.980908 1.269809 2.279101 1.443538 2.510559 1.876425 2.537338.31166.02365.746055-.128669.986391-.334512.226775-.204496.484275-.730509.492323-1.031576.01926-.459897-.156002-.864085-1.259793-2.8685-.408032-.742004-.900363-1.672784-1.092222-2.069257-.34046-.694119-.349347-.729633-.242982-.952504.629079-1.318126 7.942531-10.579153 9.900384-12.529656l.436364-.440651.298294 1.229083c.331618 1.362259.715234 2.358427 1.402693 3.624695 1.135125 2.074097 2.53689 3.954904 4.839536 6.492384.550176.606571.988472 1.136293.973277 1.168132-.01823.0382-.630045.83294-1.359917 1.766782z"/><path d="m55.208667 67.314492c.112778-.493445.08316-1.148668-.09937-1.970689-.569591-2.609462-2.400305-5.093712-6.058223-8.215454-1.042231-.888314-2.392391-1.970496-4.342399-3.487502-4.747474-3.680825-5.452662-4.314468-6.451091-5.768237-1.142815-1.679041-1.753608-3.268355-1.966139-5.191413-.212762-1.868441-.143162-3.015763.366927-5.938669.270762-1.528224.459472-2.884517.415395-2.968098-.03659-.07219.04442-.174257-3.287588 4.060052-10.005932 12.737282-13.379661 17.045495-13.368553 17.089888.01777.07103.866108-.204282 2.486905-.798927 2.86448-1.048726 4.254186-1.308028 5.86241-1.064314 1.274118.185895 2.807898.761533 3.712636 1.396593.744109.511489 1.756536 1.502852 3.323121 3.227776.870975.962944 2.292125 2.532459 3.153396 3.475136 2.427039 2.682847 3.940891 4.234059 5.367049 5.508874 1.596493 1.418654 2.456924 2.02475 4.047651 2.846472 1.360072.696007 2.301383 1.051432 2.869056 1.079994 1.051764.05632 2.103736-.2938 2.636301-.868355.553021-.603883 1.171474-1.723808 1.33252-2.413127zm-2.874102.47341c-.131392.08584-.367411.160833-.524875.1795-.617703.0492-2.012022-.561516-3.270403-1.443534-2.11355-1.485604-4.581604-3.906572-9.404117-9.257201-4.349614-4.812212-4.511648-4.959907-6.513759-5.9076-1.565489-.739266-2.337265-.935647-4.367498-1.107131-.556334-.03878-1.01693-.102242-1.028855-.131388-.03333-.133178 6.207409-8.053261 6.423202-8.153545.02794-.01794.05342.0099.05624.05811.0028.04826.06246.545807.126324 1.115737.302468 2.560159 1.248943 5.083674 2.57951 6.883593 1.011632 1.358436 2.221745 2.436326 6.29069 5.590049 5.579149 4.320108 7.624103 6.179516 8.885589 8.110647.665934 1.013632 1.221184 2.380985 1.250571 3.090824.01698.438101-.137194.747611-.502613.971938z"/><path d="m36.538255 32.189773c-.04829-.155955-1.200074-1.315461-1.399982-1.410867-.04734-.0226-.133967-.01703-.189845.01885-.150208.08467-.442442.453386-9.062742 11.397067-4.13376 5.251117-7.717077 9.795483-7.963135 10.10805l-.445124.55374.06326.178734c.07296.199001.715375.896503 1.141619 1.248472.248427.196747.316816.229385.416414.1831.235431-.114366-.126469.346185 7.575646-9.472074 2.087337-2.654885 5.121846-6.522995 6.740562-8.588445 1.623977-2.062938 2.999675-3.822188 3.058004-3.903805.08404-.108436.09945-.194902.06533-.31282z"/><path d="m10.17425 34.94c.345996-.544089.698717-1.08461.783821-1.201156.15202-.208182.157165-.208641.293259-.02615.07619.102159.568952.947191 1.095034 1.877843 1.339068 2.368843 1.506876 2.54858 2.237473 2.396539.803498-.167212 1.286414-1.053378 1.034689-1.89869-.0641-.215271-.296903-.733108-.517324-1.150752-.220423-.41764-.739105-1.396934-1.152628-2.176206-.982452-1.851402-.973128-1.819724-.675033-2.293423.841682-1.337496 4.024629-5.470989 6.87354-8.926229 1.578408-1.914339 3.028311-3.56543 3.181491-3.622951.03844-.01444.21165.53168.384905 1.213594.173256.681913.470887 1.602047.661406 2.044743.971734 2.257976 2.577929 4.598055 5.170708 7.533257.649589.735383 1.212869 1.396796 1.251728 1.469808.0635.119312-.101545.352473-1.630285 2.303093-4.584732 5.849952-12.231386 15.53997-12.359592 15.66236-.178439.170344-.1532.191549-1.255357-1.054661-2.103481-2.378408-4.844523-5.829644-5.746134-7.234944-.6130895-.95559-.8061153-1.452547-.8139492-2.095549-.0057416-.471276.0312944-.632323.2732609-1.188217.1539414-.353682.5629911-1.088219.9089873-1.632309z" fill="#00ff7f"/></g></g></svg>