<svg viewBox="0 0 32 32" xmlns="http://www.w3.org/2000/svg"><g fill-opacity="1"><path d="m20 20.721066h2l-5-12.0000002h-2l-5 12.0000002h2l1.24-3h5.53zm-5.93-5 1.82-4.42h.25l1.86 4.42z" fill="#00ff7f" stroke="#000" stroke-opacity="1"/><path d="m12 28h-6a2 2 0 0 1 -2-2v-20a2 2 0 0 1 2-2h20a2 2 0 0 1 2 2v11h-2v-11h-20v20h6z" fill="#000"/><path d="m23 27.18-2.59-2.59-1.41 1.41 4 4 7-7-1.41-1.41z" fill="#00ff7f" stroke="#000" stroke-opacity="1" stroke-width=".65314" transform="matrix(1.5013872 0 0 1.5613277 -14.80015 -15.560914)"/></g><path d="m0 0h32v32h-32z" fill="none"/></svg>