<?xml version="1.0" encoding="UTF-8" standalone="no"?>
<svg
   height="256"
   viewBox="0 0 72.248892 72.248892"
   width="256"
   version="1.1"
   id="svg6"
   sodipodi:docname="dim_style_manager.svg"
   inkscape:version="1.4 (86a8ad7, 2024-10-11)"
   xmlns:inkscape="http://www.inkscape.org/namespaces/inkscape"
   xmlns:sodipodi="http://sodipodi.sourceforge.net/DTD/sodipodi-0.dtd"
   xmlns="http://www.w3.org/2000/svg"
   xmlns:svg="http://www.w3.org/2000/svg">
  <defs
     id="defs6" />
  <sodipodi:namedview
     id="namedview6"
     pagecolor="#ffffff"
     bordercolor="#000000"
     borderopacity="0.25"
     inkscape:showpageshadow="2"
     inkscape:pageopacity="0.0"
     inkscape:pagecheckerboard="0"
     inkscape:deskcolor="#d1d1d1"
     inkscape:zoom="0.10366641"
     inkscape:cx="-1413.1868"
     inkscape:cy="998.39474"
     inkscape:window-width="2560"
     inkscape:window-height="1387"
     inkscape:window-x="-8"
     inkscape:window-y="-8"
     inkscape:window-maximized="1"
     inkscape:current-layer="svg6" />
  <g
     stroke="#000000"
     stroke-width="2.25778"
     id="g5"
     transform="translate(2.6056311,-9.3192028)">
    <path
       d="M 59.831115,56.444448 V 29.351114"
       fill="none"
       id="path1" />
    <path
       d="M 24.835557,44.02667 H 47.413336"
       fill="none"
       id="path2" />
    <path
       d="m 57.573337,44.02667 -9.031112,-5.08 v 10.160001 z"
       fill="#00ff7f"
       fill-rule="evenodd"
       stroke-linecap="round"
       id="path3" />
    <path
       d="m 14.689583,44.02667 9.031112,-5.08 v 10.160001 z"
       fill="#00ff7f"
       fill-rule="evenodd"
       stroke-linecap="round"
       id="path4" />
    <path
       d="M 12.417777,56.444448 V 29.351114"
       fill="none"
       id="path5" />
  </g>
  <path
     d="m 48.317461,27.697238 h -3.622488 l -1.501335,-4.403989 h -7.231202 l -1.473787,4.403989 H 31.59617 L 37.835662,9.2004897 h 4.173436 z m -6.032889,-7.073483 -2.740969,-8.252396 -2.740968,8.252396 z"
     fill="#000000"
     id="path6"
     style="stroke-width:1" />
  <g
     id="g7"
     transform="matrix(0.86299008,0,0,0.84889307,13.16041,37.042628)"
     style="stroke-width:1.16834">
    <g
       fill="none"
       stroke="#000000"
       stroke-linecap="square"
       stroke-miterlimit="4"
       stroke-width="4.95602"
       id="g19"
       transform="matrix(0.55407274,0,0,0.5112945,27.90787,2.2781193)">
      <path
         d="M 32.173336,6.2088909 H 40.07556"
         id="path1-1"
         style="stroke-width:4.95602" />
      <path
         d="m 52.327071,10.668076 6.053454,5.079451"
         id="path2-52"
         style="stroke-width:4.95602" />
      <path
         d="M 40.07556,6.2088909 Q 39.94728,25.621303 52.327071,10.668076"
         id="path3-7"
         style="stroke-width:4.95602" />
      <path
         d="m 64.899418,27.038581 1.372207,7.782171"
         id="path4-6"
         style="stroke-width:4.95602" />
      <path
         d="M 58.380525,15.747527 Q 45.804199,30.535842 64.899418,27.038581"
         id="path5-14"
         style="stroke-width:4.95602" />
      <path
         d="m 64.007637,47.660465 -3.951111,6.843526"
         id="path6-2"
         style="stroke-width:4.95602" />
      <path
         d="m 66.271625,34.820752 q -19.13977,3.2446 -2.263988,12.839713"
         id="path7"
         style="stroke-width:4.95602" />
      <path
         d="m 50.069002,62.884518 -7.425661,2.70272"
         id="path8"
         style="stroke-width:4.95602" />
      <path
         d="M 60.056526,54.503991 Q 43.309023,44.686692 50.069002,62.884518"
         id="path9"
         style="stroke-width:4.95602" />
      <path
         d="m 29.605555,65.587238 -7.425661,-2.70272"
         id="path10"
         style="stroke-width:4.95602" />
      <path
         d="m 42.643341,65.587238 q -6.518893,-18.285575 -13.037786,0"
         id="path11"
         style="stroke-width:4.95602" />
      <path
         d="M 12.19237,54.503991 8.2412587,47.660465"
         id="path12"
         style="stroke-width:4.95602" />
      <path
         d="M 22.179894,62.884518 Q 28.939873,44.686692 12.19237,54.503991"
         id="path13"
         style="stroke-width:4.95602" />
      <path
         d="M 5.9772707,34.820752 7.3494773,27.038581"
         id="path14"
         style="stroke-width:4.95602" />
      <path
         d="M 8.2412587,47.660465 Q 25.11704,38.065352 5.9772707,34.820752"
         id="path15"
         style="stroke-width:4.95602" />
      <path
         d="m 13.86837,15.747527 6.053454,-5.079451"
         id="path16"
         style="stroke-width:4.95602" />
      <path
         d="M 7.3494773,27.038581 Q 26.444696,30.535842 13.86837,15.747527"
         id="path17"
         style="stroke-width:4.95602" />
      <path
         d="M 19.921824,10.668076 Q 32.301615,25.621303 32.173336,6.2088909"
         id="path18"
         style="stroke-width:4.95602" />
      <path
         d="m 48.542227,36.124449 a 12.41778,12.41778 0 1 0 -24.835559,0 12.41778,12.41778 0 0 0 24.835559,0 z"
         id="path19"
         style="stroke-width:4.95602" />
    </g>
    <path
       d="m 42.47114,34.561936 c -0.773949,-0.258834 -1.415133,-0.476137 -1.424854,-0.482895 -0.0097,-0.0068 0.07965,-0.295663 0.198611,-0.642014 0.473254,-1.377912 0.647732,-2.217789 0.650212,-3.129897 0.0014,-0.534184 -0.01288,-0.688805 -0.08698,-0.938314 -0.236227,-0.795414 -0.7137,-1.273896 -1.477935,-1.481057 -1.047669,-0.283992 -2.639896,0.09005 -4.779214,1.122722 -0.329093,0.158856 -0.614279,0.28883 -0.633748,0.28883 -0.01947,0 -0.353812,-0.510209 -0.742984,-1.133797 -0.389173,-0.623589 -0.733126,-1.170874 -0.76434,-1.216191 -0.05372,-0.07799 -0.03928,-0.09236 0.270197,-0.268894 1.394771,-0.795614 2.580646,-1.677446 3.113279,-2.315074 0.867885,-1.038968 0.931675,-2.015942 0.185576,-2.842189 -0.306575,-0.339508 -0.703352,-0.601065 -1.375701,-0.906867 -0.840121,-0.382112 -1.853765,-0.679031 -3.17037,-0.928675 -0.242011,-0.04589 -0.445535,-0.08852 -0.452277,-0.09474 -0.01874,-0.0173 0.504168,-2.751951 0.53193,-2.781794 0.01338,-0.01439 0.109384,-0.01075 0.213348,0.0081 0.333251,0.06032 1.641641,0.186662 2.205283,0.212953 0.318855,0.01487 0.789814,0.0065 1.131865,-0.02005 1.603836,-0.124631 2.532319,-0.628414 2.837255,-1.53946 0.105525,-0.315273 0.112681,-0.868631 0.01634,-1.263542 -0.213156,-0.87375 -0.921426,-2.040075 -2.051644,-3.378497 -0.283801,-0.336083 -0.347814,-0.434557 -0.306205,-0.471055 0.163781,-0.143667 2.278167,-1.7592517 2.302409,-1.7592517 0.016,0 0.266387,0.24116 0.556422,0.535913 1.842728,1.8726967 3.395369,2.7078367 4.598303,2.4733497 0.419803,-0.08183 0.691613,-0.225612 1.047036,-0.553853 0.253399,-0.23402 0.33993,-0.350619 0.53294,-0.718128 0.455773,-0.8678307 0.674992,-1.9347917 0.765111,-3.7238497 l 0.0288,-0.571743 h 1.541524 1.541524 l 0.02652,0.707411 c 0.07228,1.927733 0.44506,3.3365317 1.089783,4.1184927 0.583575,0.707797 1.498094,0.951746 2.458658,0.655847 0.559342,-0.172304 1.060804,-0.44373 1.754842,-0.949843 0.404646,-0.295078 1.469587,-1.2549837 1.874793,-1.6898787 l 0.295449,-0.317096 1.184187,0.915711 1.184188,0.9157107 -0.422539,0.506631 c -2.13807,2.563574 -2.611742,4.269223 -1.47583,5.314328 0.431978,0.397446 0.968321,0.618696 1.799247,0.74222 0.828902,0.123223 2.436576,0.07014 3.74862,-0.123776 0.184824,-0.02732 0.340334,-0.04626 0.34558,-0.0421 0.0053,0.0041 0.129701,0.634456 0.276572,1.400664 l 0.267036,1.393103 -0.234567,0.04833 c -2.630125,0.541932 -3.899894,1.026634 -4.66973,1.782552 -1.014369,0.996031 -0.806649,2.180893 0.610034,3.479704 0.568276,0.520995 1.886332,1.425066 2.659436,1.824146 0.121268,0.0626 0.220506,0.127553 0.220529,0.144342 2.4e-5,0.01679 -0.343063,0.579437 -0.762414,1.250328 l -0.762455,1.219798 -0.172164,-0.093 c -0.354273,-0.191387 -1.532653,-0.721319 -1.978394,-0.889711 -0.519437,-0.196232 -1.281064,-0.415348 -1.722221,-0.495476 -0.16283,-0.02957 -0.528338,-0.05201 -0.819106,-0.05029 -0.564938,0.0034 -0.871331,0.07012 -1.248282,0.272021 -0.419831,0.224864 -0.801536,0.722588 -0.963204,1.255971 -0.117373,0.387242 -0.106839,1.525617 0.0199,2.151308 0.121876,0.601656 0.377158,1.50539 0.591112,2.092615 0.0931,0.255528 0.155775,0.475904 0.139277,0.489721 -0.07069,0.0592 -2.841153,0.963324 -2.868749,0.936201 -0.01675,-0.01646 -0.129062,-0.256692 -0.24958,-0.533842 -0.120519,-0.27715 -0.357299,-0.765555 -0.526178,-1.085344 -0.828922,-1.569651 -1.62501,-2.421029 -2.563134,-2.741151 -0.356461,-0.121637 -0.986221,-0.118286 -1.341323,0.0071 -1.118091,0.394912 -2.144491,1.695666 -3.128479,3.964717 -0.09939,0.229181 -0.192234,0.415888 -0.206327,0.414902 -0.01409,-10e-4 -0.658857,-0.213566 -1.432807,-0.4724 z m 6.994455,-7.019152 c 2.481348,-0.51091 4.458225,-2.024718 5.40321,-4.137548 1.047926,-2.342985 0.635251,-5.04191 -1.069466,-6.994387 -2.465063,-2.823331 -6.80771,-3.436004 -10.072998,-1.421128 -1.783389,1.100456 -2.93665,2.806751 -3.252925,4.812829 -0.09643,0.61165 -0.06694,1.667737 0.06327,2.265472 0.400017,1.836361 1.549914,3.420579 3.246883,4.473247 0.639715,0.396829 1.508092,0.749623 2.310475,0.938673 0.68208,0.160704 1.011791,0.189509 1.984819,0.173397 0.787701,-0.01304 0.992412,-0.02936 1.386735,-0.110555 z"
       fill="#00ff7f"
       id="path20"
       style="stroke-width:1.16834" />
  </g>
</svg>
