<svg height="256" viewBox="0 0 72.248892 72.248892" width="256" xmlns="http://www.w3.org/2000/svg"><g stroke="#000" stroke-width="2.25778" transform="matrix(1 0 0 1 2.605631 -9.319203)"><path d="m59.831115 56.444448v-27.093334" fill="none"/><path d="m24.835557 44.02667h22.577779" fill="none"/><path d="m57.573337 44.02667-9.031112-5.08v10.160001z" fill="#00ff7f" fill-rule="evenodd" stroke-linecap="round"/><path d="m14.689583 44.02667 9.031112-5.08v10.160001z" fill="#00ff7f" fill-rule="evenodd" stroke-linecap="round"/><path d="m12.417777 56.444448v-27.093334" fill="none"/></g><path d="m48.317461 27.697238h-3.622488l-1.501335-4.403989h-7.231202l-1.473787 4.403989h-2.892479l6.239492-18.4967483h4.173436zm-6.032889-7.073483-2.740969-8.252396-2.740968 8.252396z" fill="#000" stroke-width="1"/><g stroke-width="1.16834" transform="matrix(.86299008 0 0 .84889307 13.16041 37.042628)"><g fill="none" stroke="#000" stroke-linecap="square" stroke-miterlimit="4" stroke-width="4.95602" transform="matrix(.55407274 0 0 .5112945 27.90787 2.278119)"><path d="m32.173336 6.2088909h7.902224"/><path d="m52.327071 10.668076 6.053454 5.079451"/><path d="m40.07556 6.2088909q-.12828 19.4124121 12.251511 4.4591851"/><path d="m64.899418 27.038581 1.372207 7.782171"/><path d="m58.380525 15.747527q-12.576326 14.788315 6.518893 11.291054"/><path d="m64.007637 47.660465-3.951111 6.843526"/><path d="m66.271625 34.820752q-19.13977 3.2446-2.263988 12.839713"/><path d="m50.069002 62.884518-7.425661 2.70272"/><path d="m60.056526 54.503991q-16.747503-9.817299-9.987524 8.380527"/><path d="m29.605555 65.587238-7.425661-2.70272"/><path d="m42.643341 65.587238q-6.518893-18.285575-13.037786 0"/><path d="m12.19237 54.503991-3.9511113-6.843526"/><path d="m22.179894 62.884518q6.759979-18.197826-9.987524-8.380527"/><path d="m5.9772707 34.820752 1.3722066-7.782171"/><path d="m8.2412587 47.660465q16.8757813-9.595113-2.263988-12.839713"/><path d="m13.86837 15.747527 6.053454-5.079451"/><path d="m7.3494773 27.038581q19.0952187 3.497261 6.5188927-11.291054"/><path d="m19.921824 10.668076q12.379791 14.953227 12.251512-4.4591851"/><path d="m48.542227 36.124449a12.41778 12.41778 0 1 0 -24.835559 0 12.41778 12.41778 0 0 0 24.835559 0z"/></g><path d="m42.47114 34.561936c-.773949-.258834-1.415133-.476137-1.424854-.482895-.0097-.0068.07965-.295663.198611-.642014.473254-1.377912.647732-2.217789.650212-3.129897.0014-.534184-.01288-.688805-.08698-.938314-.236227-.795414-.7137-1.273896-1.477935-1.481057-1.047669-.283992-2.639896.09005-4.779214 1.122722-.329093.158856-.614279.28883-.633748.28883-.01947 0-.353812-.510209-.742984-1.133797-.389173-.623589-.733126-1.170874-.76434-1.216191-.05372-.07799-.03928-.09236.270197-.268894 1.394771-.795614 2.580646-1.677446 3.113279-2.315074.867885-1.038968.931675-2.015942.185576-2.842189-.306575-.339508-.703352-.601065-1.375701-.906867-.840121-.382112-1.853765-.679031-3.17037-.928675-.242011-.04589-.445535-.08852-.452277-.09474-.01874-.0173.504168-2.751951.53193-2.781794.01338-.01439.109384-.01075.213348.0081.333251.06032 1.641641.186662 2.205283.212953.318855.01487.789814.0065 1.131865-.02005 1.603836-.124631 2.532319-.628414 2.837255-1.53946.105525-.315273.112681-.868631.01634-1.263542-.213156-.87375-.921426-2.040075-2.051644-3.378497-.283801-.336083-.347814-.434557-.306205-.471055.163781-.143667 2.278167-1.7592517 2.302409-1.7592517.016 0 .266387.24116.556422.535913 1.842728 1.8726967 3.395369 2.7078367 4.598303 2.4733497.419803-.08183.691613-.225612 1.047036-.553853.253399-.23402.33993-.350619.53294-.718128.455773-.8678307.674992-1.9347917.765111-3.7238497l.0288-.571743h1.541524 1.541524l.02652.707411c.07228 1.927733.44506 3.3365317 1.089783 4.1184927.583575.707797 1.498094.951746 2.458658.655847.559342-.172304 1.060804-.44373 1.754842-.949843.404646-.295078 1.469587-1.2549837 1.874793-1.6898787l.295449-.317096 1.184187.915711 1.184188.9157107-.422539.506631c-2.13807 2.563574-2.611742 4.269223-1.47583 5.314328.431978.397446.968321.618696 1.799247.74222.828902.123223 2.436576.07014 3.74862-.123776.184824-.02732.340334-.04626.34558-.0421.0053.0041.129701.634456.276572 1.400664l.267036 1.393103-.234567.04833c-2.630125.541932-3.899894 1.026634-4.66973 1.782552-1.014369.996031-.806649 2.180893.610034 3.479704.568276.520995 1.886332 1.425066 2.659436 1.824146.121268.0626.220506.127553.220529.144342.000024.01679-.343063.579437-.762414 1.250328l-.762455 1.219798-.172164-.093c-.354273-.191387-1.532653-.721319-1.978394-.889711-.519437-.196232-1.281064-.415348-1.722221-.495476-.16283-.02957-.528338-.05201-.819106-.05029-.564938.0034-.871331.07012-1.248282.272021-.419831.224864-.801536.722588-.963204 1.255971-.117373.387242-.106839 1.525617.0199 2.151308.121876.601656.377158 1.50539.591112 2.092615.0931.255528.155775.475904.139277.489721-.07069.0592-2.841153.963324-2.868749.936201-.01675-.01646-.129062-.256692-.24958-.533842-.120519-.27715-.357299-.765555-.526178-1.085344-.828922-1.569651-1.62501-2.421029-2.563134-2.741151-.356461-.121637-.986221-.118286-1.341323.0071-1.118091.394912-2.144491 1.695666-3.128479 3.964717-.09939.229181-.192234.415888-.206327.414902-.01409-.001-.658857-.213566-1.432807-.4724zm6.994455-7.019152c2.481348-.51091 4.458225-2.024718 5.40321-4.137548 1.047926-2.342985.635251-5.04191-1.069466-6.994387-2.465063-2.823331-6.80771-3.436004-10.072998-1.421128-1.783389 1.100456-2.93665 2.806751-3.252925 4.812829-.09643.61165-.06694 1.667737.06327 2.265472.400017 1.836361 1.549914 3.420579 3.246883 4.473247.639715.396829 1.508092.749623 2.310475.938673.68208.160704 1.011791.189509 1.984819.173397.787701-.01304.992412-.02936 1.386735-.110555z" fill="#00ff7f" stroke-width="1.16834"/></g></svg>