<?xml version="1.0" encoding="UTF-8"?>
<!DOCTYPE svg PUBLIC "-//W3C//DTD SVG 1.1//EN" "http://www.w3.org/Graphics/SVG/1.1/DTD/svg11.dtd">
<svg version="1.2" width="9.0375mm" height="9.0375mm" viewBox="0 0 7230 7230" preserveAspectRatio="xMidYMid" fill-rule="evenodd" stroke-width="28.222" stroke-linejoin="round" xmlns="http://www.w3.org/2000/svg" xmlns:ooo="http://xml.openoffice.org/svg/export" xmlns:xlink="http://www.w3.org/1999/xlink" xmlns:presentation="http://sun.com/xmlns/staroffice/presentation" xmlns:smil="http://www.w3.org/2001/SMIL20/" xmlns:anim="urn:oasis:names:tc:opendocument:xmlns:animation:1.0" xml:space="preserve">
 <defs class="ClipPathGroup">
  <clipPath id="presentation_clip_path" clipPathUnits="userSpaceOnUse">
   <rect x="0" y="0" width="7230" height="7230"/>
  </clipPath>
  <clipPath id="presentation_clip_path_shrink" clipPathUnits="userSpaceOnUse">
   <rect x="7" y="7" width="7216" height="7216"/>
  </clipPath>
 </defs>
 <defs class="TextShapeIndex">
  <g ooo:slide="id1" ooo:id-list="id3 id4 id5 id6 id7 id8"/>
 </defs>
 <defs class="EmbeddedBulletChars">
  <g id="bullet-char-template-57356" transform="scale(0.00048828125,-0.00048828125)">
   <path d="M 580,1141 L 1163,571 580,0 -4,571 580,1141 Z"/>
  </g>
  <g id="bullet-char-template-57354" transform="scale(0.00048828125,-0.00048828125)">
   <path d="M 8,1128 L 1137,1128 1137,0 8,0 8,1128 Z"/>
  </g>
  <g id="bullet-char-template-10146" transform="scale(0.00048828125,-0.00048828125)">
   <path d="M 174,0 L 602,739 174,1481 1456,739 174,0 Z M 1358,739 L 309,1346 659,739 1358,739 Z"/>
  </g>
  <g id="bullet-char-template-10132" transform="scale(0.00048828125,-0.00048828125)">
   <path d="M 2015,739 L 1276,0 717,0 1260,543 174,543 174,936 1260,936 717,1481 1274,1481 2015,739 Z"/>
  </g>
  <g id="bullet-char-template-10007" transform="scale(0.00048828125,-0.00048828125)">
   <path d="M 0,-2 C -7,14 -16,27 -25,37 L 356,567 C 262,823 215,952 215,954 215,979 228,992 255,992 264,992 276,990 289,987 310,991 331,999 354,1012 L 381,999 492,748 772,1049 836,1024 860,1049 C 881,1039 901,1025 922,1006 886,937 835,863 770,784 769,783 710,716 594,584 L 774,223 C 774,196 753,168 711,139 L 727,119 C 717,90 699,76 672,76 641,76 570,178 457,381 L 164,-76 C 142,-110 111,-127 72,-127 30,-127 9,-110 8,-76 1,-67 -2,-52 -2,-32 -2,-23 -1,-13 0,-2 Z"/>
  </g>
  <g id="bullet-char-template-10004" transform="scale(0.00048828125,-0.00048828125)">
   <path d="M 285,-33 C 182,-33 111,30 74,156 52,228 41,333 41,471 41,549 55,616 82,672 116,743 169,778 240,778 293,778 328,747 346,684 L 369,508 C 377,444 397,411 428,410 L 1163,1116 C 1174,1127 1196,1133 1229,1133 1271,1133 1292,1118 1292,1087 L 1292,965 C 1292,929 1282,901 1262,881 L 442,47 C 390,-6 338,-33 285,-33 Z"/>
  </g>
  <g id="bullet-char-template-9679" transform="scale(0.00048828125,-0.00048828125)">
   <path d="M 813,0 C 632,0 489,54 383,161 276,268 223,411 223,592 223,773 276,916 383,1023 489,1130 632,1184 813,1184 992,1184 1136,1130 1245,1023 1353,916 1407,772 1407,592 1407,412 1353,268 1245,161 1136,54 992,0 813,0 Z"/>
  </g>
  <g id="bullet-char-template-8226" transform="scale(0.00048828125,-0.00048828125)">
   <path d="M 346,457 C 273,457 209,483 155,535 101,586 74,649 74,723 74,796 101,859 155,911 209,963 273,989 346,989 419,989 480,963 531,910 582,859 608,796 608,723 608,648 583,586 532,535 482,483 420,457 346,457 Z"/>
  </g>
  <g id="bullet-char-template-8211" transform="scale(0.00048828125,-0.00048828125)">
   <path d="M -4,459 L 1135,459 1135,606 -4,606 -4,459 Z"/>
  </g>
  <g id="bullet-char-template-61548" transform="scale(0.00048828125,-0.00048828125)">
   <path d="M 173,740 C 173,903 231,1043 346,1159 462,1274 601,1332 765,1332 928,1332 1067,1274 1183,1159 1299,1043 1357,903 1357,740 1357,577 1299,437 1183,322 1067,206 928,148 765,148 601,148 462,206 346,322 231,437 173,577 173,740 Z"/>
  </g>
 </defs>
 <g>
  <g id="id2" class="Master_Slide">
   <g id="bg-id2" class="Background"/>
   <g id="bo-id2" class="BackgroundObjects"/>
  </g>
 </g>
 <g class="SlideGroup">
  <g>
   <g id="container-id1">
    <g id="id1" class="Slide" clip-path="url(#presentation_clip_path)">
     <g class="Page">
      <g class="com.sun.star.drawing.EllipseShape">
       <g id="id3">
        <rect class="BoundingBox" stroke="none" fill="none" x="1650" y="2258" width="3400" height="3399"/>
        <path fill="none" stroke="rgb(0,0,0)" stroke-width="212" stroke-linejoin="round" d="M 1757,2911 C 1988,2679 2276,2512 2592,2428 2908,2343 3241,2343 3558,2428 3874,2512 4163,2679 4395,2911 4626,3142 4793,3431 4878,3747 4964,4064 4964,4397 4880,4713 4795,5030 4629,5318 4398,5550 L 4398,5550"/>
       </g>
      </g>
      <g class="com.sun.star.drawing.EllipseShape">
       <g id="id4">
        <rect class="BoundingBox" stroke="none" fill="none" x="922" y="611" width="5622" height="5926"/>
        <path fill="none" stroke="rgb(0,0,0)" stroke-width="176" stroke-linejoin="round" d="M 1010,1686 C 1090,1601 1174,1522 1262,1447"/>
        <path fill="none" stroke="rgb(0,0,0)" stroke-width="176" stroke-linejoin="round" d="M 1537,1237 C 1633,1171 1732,1112 1834,1058"/>
        <path fill="none" stroke="rgb(0,0,0)" stroke-width="176" stroke-linejoin="round" d="M 2149,912 C 2243,875 2340,842 2439,814 2452,811 2465,807 2478,804"/>
        <path fill="none" stroke="rgb(0,0,0)" stroke-width="176" stroke-linejoin="round" d="M 2817,733 C 2931,716 3047,705 3162,701"/>
        <path fill="none" stroke="rgb(0,0,0)" stroke-width="176" stroke-linejoin="round" d="M 3508,710 C 3623,719 3738,735 3852,757"/>
        <path fill="none" stroke="rgb(0,0,0)" stroke-width="176" stroke-linejoin="round" d="M 4187,844 C 4297,879 4405,921 4511,968"/>
        <path fill="none" stroke="rgb(0,0,0)" stroke-width="176" stroke-linejoin="round" d="M 4819,1127 C 4918,1186 5014,1250 5107,1320"/>
        <path fill="none" stroke="rgb(0,0,0)" stroke-width="176" stroke-linejoin="round" d="M 5373,1542 C 5423,1588 5471,1636 5518,1686 5551,1720 5583,1755 5614,1791"/>
        <path fill="none" stroke="rgb(0,0,0)" stroke-width="176" stroke-linejoin="round" d="M 5827,2064 C 5893,2159 5955,2257 6011,2358"/>
        <path fill="none" stroke="rgb(0,0,0)" stroke-width="176" stroke-linejoin="round" d="M 6165,2669 C 6211,2774 6251,2883 6287,2993"/>
        <path fill="none" stroke="rgb(0,0,0)" stroke-width="176" stroke-linejoin="round" d="M 6376,3328 C 6400,3441 6419,3556 6431,3670"/>
        <path fill="none" stroke="rgb(0,0,0)" stroke-width="176" stroke-linejoin="round" d="M 6454,4016 C 6455,4132 6451,4247 6442,4363"/>
        <path fill="none" stroke="rgb(0,0,0)" stroke-width="176" stroke-linejoin="round" d="M 6397,4706 C 6382,4784 6366,4861 6346,4938 6337,4974 6328,5009 6318,5044"/>
        <path fill="none" stroke="rgb(0,0,0)" stroke-width="176" stroke-linejoin="round" d="M 6206,5372 C 6163,5480 6115,5585 6062,5687"/>
        <path fill="none" stroke="rgb(0,0,0)" stroke-width="176" stroke-linejoin="round" d="M 5887,5986 C 5824,6083 5755,6177 5682,6266"/>
       </g>
      </g>
      <g class="com.sun.star.drawing.CustomShape">
       <g id="id5">
        <rect class="BoundingBox" stroke="none" fill="none" x="368" y="1268" width="1340" height="1340"/>
        <path fill="rgb(0,255,127)" stroke="none" d="M 475,1375 L 1601,1750 850,2501 475,1375 Z"/>
        <path fill="none" stroke="rgb(0,0,0)" stroke-width="212" stroke-linejoin="round" d="M 475,1375 L 1601,1750 850,2501 475,1375 Z"/>
       </g>
      </g>
      <g class="com.sun.star.drawing.CustomShape">
       <g id="id6">
        <rect class="BoundingBox" stroke="none" fill="none" x="4792" y="5693" width="1390" height="1291"/>
        <path fill="rgb(0,255,127)" stroke="none" d="M 6074,6876 L 4898,6648 5551,5799 6074,6876 Z"/>
        <path fill="none" stroke="rgb(0,0,0)" stroke-width="212" stroke-linejoin="round" d="M 6074,6876 L 4898,6648 5551,5799 6074,6876 Z"/>
       </g>
      </g>
      <g class="com.sun.star.drawing.LineShape">
       <g id="id7">
        <rect class="BoundingBox" stroke="none" fill="none" x="994" y="1994" width="1013" height="1013"/>
        <path fill="none" stroke="rgb(0,0,0)" stroke-width="212" stroke-linejoin="round" d="M 1100,2100 L 1900,2900"/>
       </g>
      </g>
      <g class="com.sun.star.drawing.LineShape">
       <g id="id8">
        <rect class="BoundingBox" stroke="none" fill="none" x="4294" y="5294" width="1013" height="1013"/>
        <path fill="none" stroke="rgb(0,0,0)" stroke-width="212" stroke-linejoin="round" d="M 4400,5400 L 5200,6200"/>
       </g>
      </g>
     </g>
    </g>
   </g>
  </g>
 </g>
</svg>
