<svg height="256" viewBox="0 0 72.248892 72.248892" width="256" xmlns="http://www.w3.org/2000/svg"><g stroke="#000" transform="matrix(1 0 0 1 -1.096807 27.057829)"><path d="m65.161252 41.79981v-27.093334" fill="none" stroke-width="2.25778"/><path d="m20.570141 29.382032h33.302224" fill="none" stroke-width="2.25779"/><g stroke-width="2.25778"><path d="m62.903474 29.382032-9.031112-5.08v10.160001z" fill="#00ff7f" fill-rule="evenodd" stroke-linecap="round"/><path d="m11.55306 29.382032 9.031112-5.08v10.160001z" fill="#00ff7f" fill-rule="evenodd" stroke-linecap="round"/><path d="m9.281253 41.79981v-27.093334" fill="none"/></g></g><path d="m36.591808 43.963192h-3.622488l-1.501335-4.403989h-7.231202l-1.473787 4.403989h-2.89248l6.239493-18.496749h4.173436zm-6.032889-7.073483-2.740969-8.252396-2.740968 8.252396z" fill="#000" stroke-width="1"/><g stroke-width="1.28245" transform="matrix(.55137058 -.55137058 .55137058 .55137058 -.389833 26.012794)"><path d="m60.960004 50.800003h-38.382225l-13.5466672 4.515556 13.5466672 4.515556h39.511114v-9.031112" fill="none" stroke="#000" stroke-linecap="square" stroke-width="2.8955"/><path d="m18.062224 55.315559h-5.644445" fill="none" stroke="#000" stroke-width="5.79099"/><g fill-rule="evenodd" stroke-width="2.8955"><path d="m22.577779 57.573337h38.426054" fill="#00ff7f" stroke="#00ff7f"/><path d="m22.577779 55.315559h38.426054" fill="#00ff7f" stroke="#00ff7f"/><path d="m22.577779 53.057781h38.426054" fill="#fff" stroke="#fff"/></g></g></svg>