<?xml version="1.0" encoding="UTF-8" standalone="no"?>
<svg
   height="256"
   viewBox="0 0 72.248892 72.248892"
   width="256"
   version="1.1"
   id="svg6"
   sodipodi:docname="dim_regenerate.svg"
   inkscape:version="1.4 (86a8ad7, 2024-10-11)"
   xmlns:inkscape="http://www.inkscape.org/namespaces/inkscape"
   xmlns:sodipodi="http://sodipodi.sourceforge.net/DTD/sodipodi-0.dtd"
   xmlns="http://www.w3.org/2000/svg"
   xmlns:svg="http://www.w3.org/2000/svg">
  <defs
     id="defs6" />
  <sodipodi:namedview
     id="namedview6"
     pagecolor="#ffffff"
     bordercolor="#000000"
     borderopacity="0.25"
     inkscape:showpageshadow="2"
     inkscape:pageopacity="0.0"
     inkscape:pagecheckerboard="0"
     inkscape:deskcolor="#d1d1d1"
     inkscape:zoom="1.6586626"
     inkscape:cx="121.48342"
     inkscape:cy="277.03043"
     inkscape:window-width="2560"
     inkscape:window-height="1387"
     inkscape:window-x="-8"
     inkscape:window-y="-8"
     inkscape:window-maximized="1"
     inkscape:current-layer="svg6" />
  <g
     stroke="#000000"
     stroke-width="2.74078"
     id="g5"
     transform="matrix(0.84927617,0,0,0.79903487,6.6824838,8.2479695)">
    <path
       d="M 59.831115,56.444448 V 29.351114"
       fill="none"
       id="path1"
       style="stroke-width:2.74078" />
    <path
       d="M 24.835557,44.02667 H 47.413336"
       fill="none"
       id="path2"
       style="stroke-width:2.74078" />
    <path
       d="m 57.573337,44.02667 -9.031112,-5.08 v 10.160001 z"
       fill="#00ff7f"
       fill-rule="evenodd"
       stroke-linecap="round"
       id="path3"
       style="stroke-width:2.74078" />
    <path
       d="m 14.689583,44.02667 9.031112,-5.08 v 10.160001 z"
       fill="#00ff7f"
       fill-rule="evenodd"
       stroke-linecap="round"
       id="path4"
       style="stroke-width:2.74078" />
    <path
       d="M 12.417777,56.444448 V 29.351114"
       fill="none"
       id="path5"
       style="stroke-width:2.74078" />
  </g>
  <path
     d="m 44.15574,37.495452 h -2.943532 l -1.219942,-3.22914 h -5.875871 l -1.197558,3.22914 H 30.56849 l 5.070035,-13.562385 h 3.391217 z m -4.902156,-5.186495 -2.227234,-6.050911 -2.227233,6.050911 z"
     fill="#000000"
     id="path6"
     style="stroke-width:0.999997" />
  <path
     d="M 36.124536,12.400212 A 31.176687,28.392403 0 0 1 64.928038,29.927313 31.176687,28.392403 0 0 1 58.169781,60.869076 31.176687,28.392403 0 0 1 24.193733,67.023774 31.176687,28.392403 0 0 1 4.9478486,40.792613"
     fill="none"
     stroke-linecap="square"
     stroke-width="2.25779"
     id="path6-0"
     style="stroke:#000000" />
  <path
     d="m 34.768493,6.4350867 -6.77334,5.6444453 6.77334,5.644445 z"
     fill="#000000"
     fill-rule="evenodd"
     stroke-width="0.282222"
     id="path7-9"
     style="stroke:#000000" />
</svg>
