<svg height="256" viewBox="0 0 256 256" width="256" xmlns="http://www.w3.org/2000/svg"><g stroke="#000" stroke-width="8"><path d="m48 172h160" fill="none"/><circle cx="52" cy="172.00002" fill="#00ff7f" opacity=".98" r="24" stroke-dashoffset="6" stroke-linejoin="bevel"/><path d="m80 100 24.07745.0947" fill="none"/></g><text font-family="Cordia New" font-size="121.510902" letter-spacing="0" transform="matrix(1.0132811 0 0 .98689297 0 0)" word-spacing="0" x="92.96225" y="139.2415"><tspan fill="#000" stroke="#000" x="92.96225" y="139.2415">?</tspan></text><g stroke="#000"><path d="m80 116c0-10.66667 0-21.33333 0-32-.000002 0-.000003 0-.000005 0-10.666663 5.33333-21.333327 10.66667-31.99999 16-.000002 0-.000003 0-.000005 0 10.666667 5.33333 21.333333 10.66667 32 16z" fill="#000" fill-rule="evenodd"/><path d="m176 84v32c10.66667-5.33333 21.33333-10.66667 32-16-10.66667-5.33333-21.33333-10.66667-32-16z" fill="#000" fill-rule="evenodd"/><g fill="none"><path d="m152 100 24.07745.0947" stroke-width="8"/><path d="m216 208v-168" stroke-width="16"/></g></g></svg>
