<svg height="256" viewBox="0 0 72.248892 72.248892" width="256" xmlns="http://www.w3.org/2000/svg"><g stroke="#000"><path d="m10.160001 64.346671v-51.928892l4.515556-4.5155563h24.835557l6.773333 6.7733333v49.671115z" fill="#fff" stroke-width="2.257778"/><g transform="matrix(.65130273 0 0 .65125828 19.36983 12.4975)"><g fill="none" stroke-linecap="square" stroke-width="3.466675"><path d="m32.406686 7.9004317h7.435525"/><path d="m51.370157 12.096229 5.695942 4.779427"/><path d="m39.842211 7.9004317q-.120704 18.2657923 11.527946 4.1957973"/><path d="m63.199991 27.499789 1.291166 7.322507"/><path d="m57.066099 16.875656q-11.833578 13.914824 6.133892 10.624133"/><path d="m62.360878 46.903615-3.717761 6.439304"/><path d="m64.491157 34.822296q-18.009391 3.052953-2.130279 12.081319"/><path d="m49.245448 61.228439-6.987108 2.54308"/><path d="m58.643117 53.342919q-15.758409-9.237428-9.397669 7.88552"/><path d="m29.990556 63.771519-6.987108-2.54308"/><path d="m42.25834 63.771519q-6.133892-17.205513-12.267784 0"/><path d="m13.60578 53.342919-3.717762-6.439304"/><path d="m23.003448 61.228439q6.36074-17.122948-9.397668-7.88552"/><path d="m7.7577393 34.822296 1.2911652-7.322507"/><path d="m9.888018 46.903615q15.879111-9.028366-2.1302787-12.081319"/><path d="m15.182797 16.875656 5.695941-4.779427"/><path d="m9.0489045 27.499789q17.9674705 3.290691 6.1338925-10.624133"/><path d="m20.878738 12.096229q11.648651 14.069995 11.527948-4.1957973"/><path d="m48.542227 36.124449a12.41778 12.41778 0 1 0 -24.835559 0 12.41778 12.41778 0 0 0 24.835559 0z"/></g><path d="m26.8283848 61.38939651c-2.06190468-.75803765-2.2951481-.86071574-2.26500055-.99709682.01848273-.08361963.20519278-.71494231.4149079-1.40293522.74878668-2.45647931 1.04130524-4.16457297.98022727-5.72381134-.04140765-1.05708316-.16548863-1.64643657-.48682038-2.31226657-.23452979-.48597259-.8933951-1.20809745-1.33993475-1.46858858-1.7967027-1.04811978-4.59204794-.54972659-8.75876299 1.56163725-.72644767.36810529-1.34574147.64274986-1.37620821.61031688-.03046674-.03243016-.60589869-1.01419666-1.27873768-2.18170209-1.1278549-1.95704472-1.21275412-2.13028685-1.08768338-2.21946625.07461279-.05319889.701852-.4683337 1.3938646-.92252241 2.88709767-1.89488245 4.57917353-3.59042569 5.19321123-5.20385637.28602434-.75155218.33166927-1.65679695.11886636-2.35740519-.18985372-.62505171-.74142887-1.44368529-1.27358487-1.89022296-1.39177051-1.1678441-3.71488824-2.10039387-6.96781649-2.79703124l-.98881021-.21175981.32312414-1.82699954c.17771845-1.00484946.37837112-2.13699245.44589505-2.5158758l.12277091-.68887627.39129126.06337018c2.15477273.34896498 5.04677288.46469585 6.38044371.25532646 1.47657858-.23180324 2.47475292-.6455354 3.17214806-1.31481782 1.74858917-1.67810078 1.39887941-4.33940655-1.05420251-8.02252559-.42028762-.63103058-1.04108595-1.50097415-1.37955198-1.93320739-.33846518-.43223352-.61325143-.81999474-.61063495-.86169139.00262467-.04169664.86723451-.79934257 1.92137465-1.68365801l1.91661752-1.60784607.86007736.95622172c1.68476687 1.87310195 3.46022613 3.34928542 4.88424279 4.06094322 2.25521308 1.12705141 4.17370625.69655045 5.42379273-1.21707099.9092241-1.39183796 1.40776404-3.54234321 1.5985999-6.89575584l.09167989-1.61100639h2.54999083 2.54999365l.04590627 1.34566414c.08175132 2.39638883.46091972 4.61456307 1.033035 6.04334929 1.17931079 2.94518719 3.58433534 3.7416573 6.40435358 2.12092215 1.30349422-.74915075 3.00851448-2.23076869 4.67659749-4.06383685l.66664562-.73258431 1.9377887 1.62542287c1.06578407.89398241 1.93779152 1.64535312 1.93779152 1.66971398 0 .0243586-.13136034.20254469-.29191375.39596627-1.04742551 1.26186898-2.27378557 3.09642614-2.87101298 4.29485269-.72694805 1.45873761-1.00436122 2.41090522-1.00471682 3.44849867-.00056444 1.58836285.68944635 2.67189983 2.14297556 3.36525383 1.2703331.60596502 2.3467767.76801703 4.67808763.70426584 1.38068482-.03775851 3.65133207-.25573004 4.09385372-.39299165.09373165-.02907454.18575303.37881845.52358999 2.32080944.22543066 1.29584599.42497589 2.43508122.44343041 2.53163227.03061265.1601329-.00539044.18325537-.40987136.26332464-2.78681762.55165135-5.34521867 1.43390911-6.70054582 2.31066355-2.13658605 1.38214955-2.75177691 3.20865802-1.77493236 5.26978067.77469158 1.63457477 2.97977579 3.6254523 6.08354874 5.49257255.45288767.27244042.4720675.29563062.37224549.45010214-.05788378.08957452-.62644306 1.06692142-1.26346381 2.17188358-.63702357 1.10495934-1.1697999 2.02175828-1.1839477 2.03733131-.01413933.01557867-.63275355-.27974151-1.37467066-.65624855-2.8670788-1.454977-4.8234857-2.0776016-6.54206675-2.08199862-1.25696141-.00321733-2.13003849.32460638-2.88085689 1.0817014-.80372096.8104435-1.14721083 1.86127261-1.15175178 3.52353338-.00445911 1.63438004.36918338 3.57464665 1.15142441 5.9790616.17370214.53392214.30453755.97897251.29074535.98900268-.08102883.058928-4.77043639 1.72871-4.78626341 1.70426955-.01061156-.01636889-.16684132-.40502843-.34720391-.86369037-.50060299-1.2730509-1.5270227-3.32000316-2.10983702-4.20756953-1.23049461-1.87392745-2.33517455-2.7970256-3.68914985-3.08275022-2.56853001-.54203321-4.95608782 1.88219939-7.10535694 7.21450639-.20167883.50036028-.41045556.9149391-.46395361.92128628-.05349523.00635-1.13163978-.36874029-2.39587491-.83352081zm12.07936869-11.9762588c4.4783787-.99924735 8.04628024-3.95998443 9.75180568-8.0922994 1.89131516-4.58245662 1.14651092-9.86106802-1.93019128-13.67976127-4.44898808-5.52192676-12.28667222-6.72020599-18.1799185-2.7794725-3.21869102 2.15229538-5.30011702 5.48950084-5.87093577 9.4130278-.17404166 1.19627799-.12081257 3.26179483.11418514 4.4308553.72195751 3.59159127 2.79731262 6.69003869 5.86002985 8.74886686 1.15456836.77612527 2.7218303 1.4661276 4.169986 1.83587543 1.23102801.31430809 1.82609643.37064529 3.5822356.33913235 1.42165502-.02551289 1.79112062-.05742658 2.50280327-.21622457z" fill="#00ff7f"/></g></g></svg>
