<svg height="256" viewBox="0 0 72.248892 72.248892" width="256" xmlns="http://www.w3.org/2000/svg"><g stroke="#000" stroke-width="2.25778"><path d="m10.165534 14.698478c0 51.928892-.0055 47.390414-.0055 47.390414h27.093335z" fill="none"/><path d="m27.817379 29.719106 6.783226-11.267027-3.354389-.01253.04218-11.288811-6.773287-.025308-.04218 11.288811-3.35439-.01253z" fill="#00ff7f" fill-rule="evenodd"/><path d="m40.419759 14.827494c0 51.928892-.0055 47.390414-.0055 47.390414h27.093335z" fill="none"/></g><path d="m41.943287 60.820024c-.105926-.03879-.26861-.177861-.361517-.309059-.153792-.217176-.168918-2.106362-.168851-21.087911l.000076-20.849365 12.193463 21.106438 12.193463 21.106438-3.284801.0258c-8.479628.06659-20.39875.07103-20.571833.0077zm11.124108-18.667974c-5.37611-9.305433-9.795626-16.939621-9.821145-16.964863-.02552-.02524-.04641 7.588293-.04641 16.918966v16.964864h9.821146 9.821147z" fill="#00ff7f"/></svg>
