<svg clip-rule="evenodd" fill-rule="evenodd" height="149" image-rendering="optimizeQuality" shape-rendering="geometricPrecision" text-rendering="geometricPrecision" width="149" xmlns="http://www.w3.org/2000/svg"><g stroke="#000" stroke-dasharray="none"><path d="m42.807004 28.53852 7.342114-7.109822 53.338492-.222188 11.22912 15.552744.43177 96.649116-71.477844.22216z" fill="#000" stroke-width="2.68723"/><path d="m9.3624814 124.90251 25.0422446 17.51738 3.285131-5.43134 14.656691-4.70205 13.589926-17.12457-2.81178-6.20802-7.495166 5.7367-1.374369-1.96383 5.573501-6.45714.228787-4.06899-4.349672-2.985014-7.560646 7.698204-2.06159-1.72816 7.711043-9.11216-.566587-3.023161-4.309366-3.098415-9.478079 9.342255-2.901216-2.120946 17.789132-20.188162.305527-2.985015-4.199205-2.985019-3.588365 1.256835-22.82803 28.200588-1.603373-10.997426-4.351822-3.377799-3.130217 1.256852.390155 30.770513z" fill="#00ff7f" stroke-linejoin="round" stroke-width="1.93134"/></g></svg>
