<svg height="256" viewBox="0 0 72.248892 72.248892" width="256" xmlns="http://www.w3.org/2000/svg"><g stroke="#000"><path d="m14.72912 54.056631-.153661-36.567412" style="fill:#fff;fill-opacity:1;stroke-width:2.25778;stroke-linecap:round;stroke-linejoin:round;stroke-dasharray:none"/><ellipse cx="3.036534" cy="57.169415" fill="#00ff7f" rx="6.527098" ry="6.405903" stroke-dashoffset="8" stroke-linecap="square" stroke-width="2.25788" transform="matrix(-.95480108 .29724552 .30990887 .95076627 0 0)"/><ellipse cx="-19.058136" cy="-11.88669" fill="#00ff7f" rx="6.527098" ry="6.405903" stroke-dashoffset="8" stroke-linecap="square" stroke-width="2.25788" transform="matrix(-.95480108 -.29724553 .30990887 -.95076627 0 0)"/><g fill="none" stroke-width="1.18533"><path d="m38.833476 14.831816h29.92873l-.195617 40.960132-29.341882.000003z"/><path d="m42.416232 19.100244 7.711285.03551"/><path d="m54.608735 19.206736 11.75711-.03551"/><path d="m42.412187 25.35788h.44954 6.708469"/><path d="m54.606087 25.389892h8.610365"/><path d="m42.61966 31.580018 9.647742-.000002"/><path d="m54.610409 31.608549 7.227165-.03551"/><path d="m42.421299 37.873093 6.846801-.07099"/><path d="m54.609401 37.791691 9.405691.03551"/><path d="m42.412187 44.095182h8.472034"/><path d="m54.62488 44.116631 4.979484-.106482"/><path d="m42.416005 50.352819 8.160823-.03551"/><path d="m54.611837 50.370557 10.858047-.07099"/></g><path d="m35.989703 29.738601q0 1.619474-.593849 2.891917-.593849 1.255918-1.560973 2.230908-.95016.941938-2.188758 1.7682-1.238598.826263-2.629901 1.60295v3.718178h-3.037109v-5.040198q1.102859-.611434 2.375393-1.338545 1.289501-.727111 2.103922-1.470746.98409-.859313 1.527039-1.768201.542947-.925414.542947-2.346584 0-1.867353-1.306468-2.776241-1.289501-.925413-3.34252-.925413-1.832447 0-3.478255.561858-1.628842.561858-2.578999 1.140241h-.169672v-3.371149q1.187698-.446181 3.003179-.793211 1.832447-.363556 3.461289-.363556 3.647925 0 5.751846 1.735151 2.120889 1.718625 2.120889 4.544441zm-6.702007 18.822248h-3.461289v-3.486825h3.461289z" fill="#000" stroke-width=".282222"/></g></svg>
