<?xml version="1.0" encoding="UTF-8" standalone="no"?>
<svg
   xmlns:dc="http://purl.org/dc/elements/1.1/"
   xmlns:cc="http://creativecommons.org/ns#"
   xmlns:rdf="http://www.w3.org/1999/02/22-rdf-syntax-ns#"
   xmlns:svg="http://www.w3.org/2000/svg"
   xmlns="http://www.w3.org/2000/svg"
   xmlns:sodipodi="http://sodipodi.sourceforge.net/DTD/sodipodi-0.dtd"
   xmlns:inkscape="http://www.inkscape.org/namespaces/inkscape"
   width="256"
   height="256"
   viewBox="0 0 72.248892 72.248892"
   id="svg4295"
   version="1.1"
   inkscape:version="0.91 r13725"
   sodipodi:docname="explode_text_to_letters.svg"
   inkscape:export-filename="D:\LC_Recources\icons\explodetext24.png"
   inkscape:export-xdpi="8.4375"
   inkscape:export-ydpi="8.4375">
  <metadata
     id="metadata4325">
    <rdf:RDF>
      <cc:Work
         rdf:about="">
        <dc:format>image/svg+xml</dc:format>
        <dc:type
           rdf:resource="http://purl.org/dc/dcmitype/StillImage" />
        <dc:title></dc:title>
      </cc:Work>
    </rdf:RDF>
  </metadata>
  <defs
     id="defs4323" />
  <sodipodi:namedview
     pagecolor="#ffffff"
     bordercolor="#666666"
     borderopacity="1"
     objecttolerance="10"
     gridtolerance="10"
     guidetolerance="10"
     inkscape:pageopacity="0"
     inkscape:pageshadow="2"
     inkscape:window-width="1920"
     inkscape:window-height="1176"
     id="namedview4321"
     showgrid="true"
     units="px"
     inkscape:snap-grids="true"
     inkscape:zoom="3.7226562"
     inkscape:cx="128"
     inkscape:cy="128"
     inkscape:window-x="-4"
     inkscape:window-y="-4"
     inkscape:window-maximized="1"
     inkscape:current-layer="svg4295"
     inkscape:object-nodes="true"
     inkscape:snap-object-midpoints="false"
     showguides="true">
    <inkscape:grid
       type="xygrid"
       id="grid4867" />
  </sodipodi:namedview>
  <g
     id="g5993">
    <path
       d="m 22.655227,45.15556 -2.319239,0 0,-1.475879 q -0.310058,0.21084 -0.843359,0.595312 -0.520899,0.372071 -1.016992,0.595313 -0.582911,0.285254 -1.339454,0.471289 -0.756543,0.198437 -1.773535,0.198437 -1.872754,0 -3.175,-1.240234 -1.302246,-1.240235 -1.302246,-3.162598 0,-1.575098 0.669726,-2.542481 0.682129,-0.979785 1.934766,-1.53789 1.265039,-0.558106 3.038574,-0.756543 1.773536,-0.198438 3.80752,-0.297657 l 0,-0.359668 q 0,-0.79375 -0.285254,-1.314648 -0.272851,-0.520899 -0.79375,-0.818555 -0.496094,-0.285254 -1.190625,-0.384472 -0.694531,-0.09922 -1.451074,-0.09922 -0.917774,0 -2.046387,0.248047 -1.128613,0.235644 -2.331641,0.694531 l -0.124023,0 0,-2.368848 q 0.682129,-0.186035 1.971973,-0.409277 1.289843,-0.223242 2.54248,-0.223242 1.463477,0 2.542481,0.248046 1.091406,0.235645 1.885156,0.818555 0.781348,0.570508 1.190625,1.475879 0.409278,0.905371 0.409278,2.244825 l 0,9.400977 z m -2.319239,-3.410645 0,-3.857129 q -1.066601,0.06201 -2.517676,0.186035 -1.438672,0.124023 -2.282031,0.359668 -1.00459,0.285254 -1.624707,0.892969 -0.620117,0.595312 -0.620117,1.649512 0,1.190625 0.719336,1.79834 0.719336,0.595312 2.195215,0.595312 1.227832,0 2.244824,-0.471289 1.016992,-0.483691 1.885156,-1.153418 z"
       style="font-style:normal;font-weight:normal;font-size:medium;line-height:125%;font-family:sans-serif;letter-spacing:0px;word-spacing:0px;fill:#000000;fill-opacity:1;stroke:none;stroke-width:1px;stroke-linecap:butt;stroke-linejoin:miter;stroke-opacity:1"
       id="path4789"
       inkscape:connector-curvature="0" />
    <path
       d="m 46.134517,38.12343 q 0,1.736329 -0.496094,3.125391 -0.483691,1.389063 -1.314648,2.331641 -0.880567,0.979785 -1.934766,1.475879 -1.054199,0.483691 -2.319238,0.483691 -1.178223,0 -2.05879,-0.285254 -0.880566,-0.272851 -1.736328,-0.74414 l -0.148828,0.644922 -2.182813,0 0,-19.298048 2.331641,0 0,6.895703 q 0.979785,-0.806152 2.083594,-1.314648 1.103809,-0.520899 2.480469,-0.520899 2.455664,0 3.869531,1.885157 1.42627,1.885156 1.42627,5.320605 z m -2.406055,0.06201 q 0,-2.480469 -0.818554,-3.75791 -0.818555,-1.289844 -2.6417,-1.289844 -1.016992,0 -2.058789,0.446484 -1.041797,0.434082 -1.934766,1.128614 l 0,7.9375 q 0.992188,0.446485 1.699121,0.620117 0.719336,0.173633 1.624708,0.173633 1.934765,0 3.026172,-1.265039 1.103808,-1.277441 1.103808,-3.993555 z"
       style="font-style:normal;font-weight:normal;font-size:medium;line-height:125%;font-family:sans-serif;letter-spacing:0px;word-spacing:0px;fill:#000000;fill-opacity:1;stroke:none;stroke-width:1px;stroke-linecap:butt;stroke-linejoin:miter;stroke-opacity:1"
       id="path4791"
       inkscape:connector-curvature="0" />
    <path
       d="m 67.632738,44.287396 q -1.165821,0.558105 -2.22002,0.868164 -1.041797,0.310058 -2.22002,0.310058 -1.500683,0 -2.75332,-0.434082 -1.252637,-0.446484 -2.145606,-1.339453 -0.905371,-0.892969 -1.401465,-2.257227 -0.496093,-1.364258 -0.496093,-3.187402 0,-3.398243 1.860351,-5.333008 1.872754,-1.934766 4.936133,-1.934766 1.190626,0 2.331641,0.334863 1.153418,0.334864 2.108399,0.818555 l 0,2.59209 -0.124024,0 q -1.066601,-0.830957 -2.207617,-1.277441 -1.128613,-0.446485 -2.207617,-0.446485 -1.984375,0 -3.137793,1.339453 -1.141016,1.327051 -1.141016,3.906739 0,2.505273 1.116211,3.857129 1.128613,1.339453 3.162598,1.339453 0.706933,0 1.438672,-0.186035 0.731738,-0.186035 1.314648,-0.483691 0.508496,-0.26045 0.954981,-0.545704 0.446484,-0.297656 0.706933,-0.508496 l 0.124024,0 0,2.567286 z"
       style="font-style:normal;font-weight:normal;font-size:medium;line-height:125%;font-family:sans-serif;letter-spacing:0px;word-spacing:0px;fill:#000000;fill-opacity:1;stroke:none;stroke-width:1px;stroke-linecap:butt;stroke-linejoin:miter;stroke-opacity:1"
       id="path4793"
       inkscape:connector-curvature="0" />
    <circle
       r="3.3866668"
       cy="45.155567"
       cx="9.0311108"
       id="path4146"
       style="opacity:0.98000004;fill:#00ff7f;fill-opacity:1;stroke:#000000;stroke-width:2.25777793;stroke-linecap:butt;stroke-linejoin:bevel;stroke-miterlimit:4;stroke-dasharray:none;stroke-dashoffset:6;stroke-opacity:1" />
    <path
       style="fill:none;fill-rule:evenodd;stroke:#000000;stroke-width:2.25777793;stroke-linecap:butt;stroke-linejoin:miter;stroke-miterlimit:4;stroke-dasharray:4.51555586, 2.25777793, 1.12888896, 2.25777793;stroke-dashoffset:0;stroke-opacity:1"
       d="m 25.964446,54.18667 1e-6,-38.382225"
       id="path5985"
       inkscape:connector-curvature="0"
       sodipodi:nodetypes="cc" />
    <path
       sodipodi:nodetypes="cc"
       inkscape:connector-curvature="0"
       id="path5987"
       d="m 48.542225,54.18667 2e-6,-38.382225"
       style="fill:none;fill-rule:evenodd;stroke:#000000;stroke-width:2.25777793;stroke-linecap:butt;stroke-linejoin:miter;stroke-miterlimit:4;stroke-dasharray:4.51555586, 2.25777793, 1.12888896, 2.25777793;stroke-dashoffset:0;stroke-opacity:1" />
    <circle
       style="opacity:0.98000004;fill:#00ff7f;fill-opacity:1;stroke:#000000;stroke-width:2.25777793;stroke-linecap:butt;stroke-linejoin:bevel;stroke-miterlimit:4;stroke-dasharray:none;stroke-dashoffset:6;stroke-opacity:1"
       id="circle5989"
       cx="31.608892"
       cy="45.155567"
       r="3.3866668" />
    <circle
       r="3.3866668"
       cy="45.155567"
       cx="54.186672"
       id="circle5991"
       style="opacity:0.98000004;fill:#00ff7f;fill-opacity:1;stroke:#000000;stroke-width:2.25777793;stroke-linecap:butt;stroke-linejoin:bevel;stroke-miterlimit:4;stroke-dasharray:none;stroke-dashoffset:6;stroke-opacity:1" />
  </g>
</svg>
