<svg height="256" viewBox="0 0 72.248892 72.248892" width="256" xmlns="http://www.w3.org/2000/svg"><g fill="#000" stroke="#000"><path d="m49.671116 9.031111h6.773333v6.773334h-6.773333z"/><path d="m56.444447 15.804445h6.773333v6.773334h-6.773333z"/><path d="m49.671116 22.577784h6.773333v6.773334h-6.773333z"/><path d="m56.44445 29.351116h6.773333v6.773334h-6.773333z"/><path d="m45.15556 42.897778h4.515555v6.773334h-4.515555z"/><path d="m49.671116 36.124443h6.773333v6.773334h-6.773333z"/><path d="m45.15556 22.577784h4.515555v6.773334h-4.515555z"/><path d="m49.671116 49.671112h6.773333v6.773334h-6.773333z"/><path d="m56.44445 42.897781h6.773333v6.773334h-6.773333z"/></g><g fill-rule="evenodd"><path d="m7.9022331 62.088893v-47.413336l4.5155559-4.515556 22.577779-.000001 6.773333 6.773334v45.155559z" fill="#fff" stroke="#000" stroke-linecap="square" stroke-width="2.257778"/><path d="m10.160011 59.831115v-42.897781l3.386666-3.386666h15.804446l4.515556 4.515555v41.768892z" fill="#00ff7f"/></g><g stroke="#000" stroke-width="2.257778"><path d="m50.800003 37.253336-20.320001-11.28889v6.773334h-11.28889v9.031112h11.28889v6.773334z" fill="#fff" fill-rule="evenodd"/><path d="m40.640003 10.160001h23.706668l.000001 6.773334v45.155559l-19.191113-.000001" fill="none"/></g></svg>
