<svg height="150pt" preserveAspectRatio="xMidYMid meet" viewBox="0 0 150 150" width="150pt" xmlns="http://www.w3.org/2000/svg"><g stroke="#000"><path d="m379 1173-125-4-52-52-51-52 14-390c8-214 14.43011-394.0108 14.43011-395.0108 2-6 640.56989 1.0108 715.56989 6.0108l80 7 213 269c118 148 215.122 279.63498 217.2993 279.08273 2.3342-.59205-86.581-3.28127-164.4283-3.685l-172.4409-.89431-3.4301 218.49658-175-4-175-3-58 66c-57 65-59 66-105 64-26-1-104-4-173-5zm259-103 52.39173-52.7007 153.618 1.6496c183.49847 3.6247 199.75017 7.1928 183.49847 3.6247 3.5518-8.0456.1845-65.81611.4918-96.5736 3.2509-106.35545 14.9956-78.44991-90.32056-85.53511l-59.23636-2.23074-42.75698-45.60126-56.6861-62.63289h-93c-179 0-146.51591.39773-305.51591-181.60227l-158.49488-207.45228-3.27834 84.29951c-.55909 27-9.71087 195.75504-13.71087 348.75504l-7 278 38 39 38 39h156 156zm630-337c-29-38-112-143-185-234l-132-166-338-6c-186-3-340-4-342-1-2 2 57 79 132 172 153 191 137 182 298 182l91.97841 7.74204 44.02159 47.25796 53.81508 60.08272 91.7656-1.65261c58.00002 1 155.41932 3.56989 220.41932 4.56989l119 2z" fill="#000" stroke-opacity="1" transform="matrix(.1 0 0 -.1 0 150)"/><path d="m22.2104925 114.689775c-.024555-.0836325-.13291125-2.5881975-.240792-5.56569s-.33057675-8.3972025-.49487925-12.0437925c-.61722825-13.69899-.7800225-18.5803875-1.278012-38.32116975l-.35139-13.92944025 1.53982425-1.5815085c.846903-.86982975 2.55079875-2.60796825 3.78643575-3.86253l2.2466115-2.28102225h15.602718 15.60271725l2.6723625 3.0717765c1.46979975 1.689477 3.82259475 4.21661475 5.2284345 5.615862l2.556072 2.54408625 10.6847625-.147231c5.8766175-.08097675 12.24498-.196287 14.151915-.256245 1.906935-.059955 4.651725-.14712975 6.099525-.19371375 2.5149975-.080922 2.635545-.074445 2.7034275.1452495.039075.126471.086265 3.954885.10485 8.50758525.032025 7.8449295-.024975 8.4584085-.235725 8.7802365-.430425.657345-.6764775.53770875-5.44446.649503-5.393655.126465-8.52483.232185-9.0085875.304164-.4026825.0599175-2.1961725 1.920012-7.53 7.80962625l-2.7819 3.07177875-8.40733425.00075c-4.62403575.0006075-9.03689925.05565-9.806364.1224525-2.77045575.2404425-4.37301825.64422-6.051489 1.5247275-2.4462075 1.28325-3.7546065 2.5931475-10.20142875 10.2130875-1.8114855 2.1411225-3.74574975 4.4130225-4.2983655 5.0486625-.5526165.6356475-4.403385 5.603715-8.557266 11.04015-6.89633325 9.0255975-7.58267925 9.88437-7.8997635 9.88437-.19098975 0-.36734475-.0684-.391899-.15207z" fill="#00ff7f" stroke-width="1.95"/></g></svg>
