<svg height="149" width="149" xmlns="http://www.w3.org/2000/svg"><path d="m40.585937 30.641357c2.4161165.04618184 4.8115647-.01998356 7.2265625-.09643555 11.5183945-.0821727 11.5183945-.0821727 15.9040525 3.95703125 1.519407 2.0061314 3.038206 4.0127232 4.556397 6.0197754 5.633482 5.1195599 13.583049 3.8340199 20.78955 3.6032719 2.419115-.02307 4.837983-.03107 7.257187-.03861 1.495883-.01056 2.991739-.0335 4.487214-.07001 1.730573-.04029 3.462139-.0332 5.193099-.01639 1 1 1 1 1 8l23 1c-4.340983 13.27339-8.801628 26.493655-13.513305 39.639679-.532554 1.489536-1.061613 2.980327-1.587158 4.472351-.74434 2.109599-1.501747 4.214045-2.262818 6.317657l-1.321533 3.694824c-1.315186 2.875489-1.315186 2.875489-4.315186 4.875489-2.671039.385321-5.27069.665152-7.956298.869628l-2.45485.207779c-2.681339.224776-5.36351.437097-8.045883.649155-1.864696.153396-3.729334.307489-5.593918.46225-3.911075.32286-7.822552.640065-11.734451.952789-5.007486.400359-10.014124.81031-15.020528 1.223963-4.779264.394482-9.5589152.784181-14.3386028 1.173498l-2.7563266.225697c-2.5846832.210759-5.1696154.418124-7.7546597.624401l-2.3005369.188827c-4.025755.317261-8.005917.484213-12.043945.422013-.599862-13.208047-1.155375-26.416906-1.638489-39.629776-.203044-5.489625-.433822-10.974575-.738587-16.459488-.163228-3.114654-.26402-6.231282-.372924-9.348236l-.230469-3.211914c-.131989-5.906518 1.114263-9.402026 4.902344-13.9912114 6.561152-5.83206128 13.2712959-5.91877104 21.664062-5.7180076z" fill="#00ff7f" fill-opacity="1"/><path d="m40.585937 30.641357c6.378099.333433 13.008808-1.039288 19.208259.811859 5.705913 2.755883 7.127726 10.599456 13.713563 12.034143 7.450345 2.028647 15.221978.113093 22.811927.599036 4.728174-.06183 12.627724-1.868497 10.678364 5.601105-1.17003 3.467215 2.6905 2.11209 4.7154 2.517432 6.09552.265023 12.19103.530045 18.28655.795068-6.0605 18.463688-12.31677 36.880871-19.12479 55.07755-2.03984 5.14283-8.23055 4.29263-12.712965 4.86669-25.048274 1.94873-50.071043 4.28064-75.13567 5.98705-3.821974.52688-7.401426.55812-6.221777-4.26521-.991015-21.795682-1.687415-43.608693-2.79358-65.395568-.40824-8.276775 5.696301-15.96542 13.73615-17.723682 4.182136-1.100673 8.552046-.995273 12.838569-.905473zm-19.548096 11.082764c-3.069915 7.123651-1.124261 14.990602-1.336086 22.482051.57861 16.593827.781199 33.198014 1.298244 49.793828 15.017079.26582 29.864285-2.40673 44.812872-3.41428 12.721788-1.26212 25.538275-1.65201 38.187129-3.58572-.42908-17.068302-.2916-34.159026-1.14238-51.211294-.0223-3.986071-.1932-8.211123-5.063618-6.679798-8.350962-.09472-16.714837.522072-25.053012.114461-7.669583-.91421-8.91988-10.932782-16.119145-12.744007-6.747521-1.671969-13.769708-.2307-20.635369-.59714-5.47337.006-11.524173 1.134787-14.948635 5.841899z" fill="#000" stroke="#000" stroke-opacity="1"/><path d="m107 57h16c-2.53450489 8.84049146-5.58811692 17.47176887-8.6875 26.125-.51650479 1.44783508-1.03278252 2.89575119-1.54882812 4.34375-1.25194374 3.51135364-2.50694702 7.02160427-3.76367188 10.53125-.33 0-.66 0-1 0-.94864925-4.77278898-1.13171421-9.39465977-1.09765625-14.2421875.00141495-.76837189.0028299-1.53674377.00428772-2.32839966.0055617-2.43484523.01810693-4.86959578.03086853-7.30441284.00501996-1.65885283.00958199-3.31770712.01367188-4.9765625.01012386-4.04954428.02970642-8.09888591.04882812-12.1484375z" fill="#000"/></svg>
