<svg height="256" viewBox="0 0 72.248892 72.248892" width="256" xmlns="http://www.w3.org/2000/svg"><g stroke="#000" stroke-width="2.25778"><g transform="matrix(1 0 0 1 -.300786 0)"><path d="m10.431373 18.839566 8.28788-7.86678-11.9459192-4.1994522z" fill="#00ff7f" fill-rule="evenodd"/><path d="m14.675556 14.675556 16.869418 16.568631" fill="none"/></g><g transform="matrix(-1 0 0 1 72.27418 0)"><path d="m10.431373 18.839566 8.28788-7.86678-11.9459192-4.1994522z" fill="#00ff7f" fill-rule="evenodd"/><path d="m14.675556 14.675556 16.869418 16.568631" fill="none"/></g><g transform="matrix(1 0 0 -1 -.300786 71.429376)"><path d="m10.431373 18.839566 8.28788-7.86678-11.9459192-4.1994522z" fill="#00ff7f" fill-rule="evenodd"/><path d="m14.675556 14.675556 16.869418 16.568631" fill="none"/></g><g transform="matrix(-1 0 0 -1 72.27418 71.429376)"><path d="m10.431373 18.839566 8.28788-7.86678-11.9459192-4.1994522z" fill="#00ff7f" fill-rule="evenodd"/><path d="m14.675556 14.675556 16.869418 16.568631" fill="none"/></g><ellipse cx="-36.124447" cy="-36.124447" fill="#00ff7f" rx="5.62695" ry="5.260881" stroke-dasharray="none" stroke-dashoffset="8" stroke-linecap="square" transform="matrix(0 -1 -1 0 0 0)"/></g></svg>