<svg height="375" viewBox="0 0 375 375" width="375" xmlns="http://www.w3.org/2000/svg"><g stroke-dasharray="none"><path d="m34.567387 98.67343h305.865223v188.74865h-305.865223zm0 0" fill="none" stroke="#000" stroke-miterlimit="10" stroke-width="9.99996"/><path d="m117.70111 193.89031c0-11.32805.93063-20.44502 2.79192-27.35095 1.52001-6.34097 4.27314-11.65919 8.2671-15.97419 1.9621-1.92861 4.13362-3.3799 6.50672-4.34422 2.3731-.96428 4.80826-1.39284 7.30547-1.27597 3.79234-.10719 7.38306.92534 10.7721 3.10721 3.17188 2.14285 5.72337 5.12342 7.64667 8.95136 2.19476 4.42214 3.76913 9.16567 4.73073 14.23066 1.30286 7.46115 1.86904 15.01966 1.71396 22.6561 0 11.22089-.91515 20.28917-2.75315 27.20484-1.5123 6.34098-4.25766 11.67868-8.25162 16.00341-1.96984 1.94807-4.1413 3.40911-6.52994 4.38316-2.3809.97403-4.82383 1.40262-7.32875 1.27599-7.35977 0-13.12973-3.31174-17.32532-9.93518-5.01766-7.90917-7.53813-20.88334-7.54589-38.93222zm9.62432 0c0 15.7112 1.47353 26.17234 4.40501 31.39317 2.93927 5.22084 6.55319 7.82152 10.84188 7.80206 4.32744 0 7.94142-2.61042 10.84962-7.83127 2.9005-5.22081 4.36622-15.682 4.38948-31.36396 0-15.78914-1.46572-26.26977-4.38948-31.43215-2.93148-5.17212-6.58423-7.76306-10.95821-7.78256-2.07064-.0486-4.02496.53573-5.85526 1.75327-1.83025 1.2273-3.3037 2.93186-4.43599 5.11367-3.22621 5.88321-4.84705 16.66579-4.84705 32.34777zm0 0" stroke-width="13.0001"/><path d="m166.0274 227.72832h5.60427v13.40274h-5.60427zm0 0" stroke-width="9.99996"/><g stroke-width="12"><path d="m227.76457 229.82252v11.30854h-45.74029c-.0633-2.81497.2674-5.53255.99219-8.16241 1.32997-4.69487 3.1948-8.94167 5.5944-12.74041 3.39888-5.28902 7.10734-10.12023 11.11841-14.51313 7.51549-8.52283 12.59617-15.28264 15.24911-20.27942 2.64587-4.99682 3.96885-9.71116 3.95476-14.15277.0351-2.23053-.26742-4.36367-.89367-6.41887-.62631-2.05524-1.53408-3.83774-2.70924-5.35723-1.27369-1.64612-2.73035-2.89288-4.36998-3.73054-1.63257-.82795-3.32144-1.19806-5.06661-1.09094-1.81552-.11691-3.58181.26299-5.28476 1.14937-1.70995.89612-3.22293 2.21106-4.5318 3.96434-2.45589 3.38963-3.69442 8.09426-3.72962 14.11376l-8.73284-1.25648c.59814-9.00986 2.84994-15.87679 6.75548-20.61062 3.90553-4.73382 9.14805-7.09097 15.71352-7.08124 6.63587 0 11.89251 2.54223 15.76283 7.63645 1.907 2.43508 3.36369 5.30848 4.37699 8.61048 1.01333 3.30196 1.49185 6.75005 1.43557 10.3345-.003 3.93513-.57001 7.70465-1.69595 11.30857-1.42145 4.32473-3.30733 8.22086-5.65064 11.69819-4.1096 6.0098-8.47957 11.63-13.11691 16.84108-5.0948 5.92212-8.36697 9.94491-9.82365 12.06831-1.337 1.9481-2.51923 4.07148-3.53252 6.36047zm0 0"/><path d="m257.27978 244.10693 28.60881-95.79647h10.62221l30.4651 95.79647h-11.22836l-8.6978-29.01655h-31.10907l-8.19016 29.01655zm21.50207-39.34131h25.26001l-7.78105-26.52303c-2.37904-8.06499-4.13674-14.68844-5.28083-19.88007-.96976 6.21435-2.31079 12.30209-4.00794 18.25345zm0 0"/><g fill="none" stroke="#000" stroke-miterlimit="10"><path d="m94.167633 233.19749h-49.108082"/><path d="m69.61359 233.19749v-88.72488"/></g></g></g><g fill="none" stroke="#000" stroke-miterlimit="10"><path d="m106.7312 280.20447v-182.73884" stroke-width="6.54257"/><path d="m241.42106 284.41719v-182.73887" stroke-dasharray="none" stroke-width="6.543"/></g></svg>