<svg height="256" viewBox="0 0 72.248892 72.248892" width="256" xmlns="http://www.w3.org/2000/svg"><g fill="none" stroke="#000" stroke-width="2.25778"><path d="m46.74698 12.657626-39.641161 28.100411"/><path d="m69.248628 28.182237-39.641161 28.100412"/><path d="m29.185991 12.740761 40.181515 27.722522"/><path d="m6.9869413 28.476992 40.1815147 27.722521"/></g><g fill="#00ff7f"><path d="m47.651218 27.502046-20.049436-13.832752.745404-.528394.745405-.528395 20.049436 13.832752 20.049438 13.832753-.745405.528394-.745404.528394z"/><path d="m38.058437 34.383818-20.049436-13.832751.745404-.528395.745405-.528394 20.049436 13.832752 20.049438 13.832753-.745404.528394-.745405.528395z"/><path d="m25.632339 43.1923-20.0494354-13.832752.7454044-.528394.7454043-.528395 20.0494357 13.832753 20.049439 13.832753-.745405.528394-.745404.528395z"/><path d="m28.797002 55.742741-.755564-.521288 19.779815-14.021308 19.779817-14.02131.755564.521288.755565.521289-19.779817 14.021309-19.779815 14.021309z"/><path d="m17.46462 47.843521-.755564-.521289 19.779815-14.021307 19.779817-14.021311.755564.521289.755565.521288-19.779817 14.02131-19.779815 14.021308z"/><path d="m6.4187473 40.303262-.7555644-.521288 19.7798151-14.021308 19.779817-14.02131.755564.521288.755565.521289-19.779817 14.021309-19.7798153 14.021309z"/></g><g fill="none" stroke="#000" stroke-width="2.25778"><path d="m18.086467 20.608877 40.181514 27.722521"/><path d="m57.997804 20.419932-39.641161 28.100411"/></g></svg>
