<svg height="256" viewBox="0 0 72.248892 72.248892" width="256" xmlns="http://www.w3.org/2000/svg"><g fill="none" stroke="#000" stroke-width="2.25778"><path d="m22.731414 12.366893.02815 58.016427"/><path d="m53.240434 1.8285747.028147 58.0164253"/><path d="m10.751918 29.270564 54.480395-18.818429"/><path d="m10.767683 61.759761 54.480394-18.81843"/></g><g fill="#00ff7f"><path d="m37.748622 22.060897-27.18417 9.389865-.00053-1.090929-.000529-1.09093 27.184172-9.389857 27.184175-9.389867.000529 1.090929.000529 1.090928z"/><path d="m37.834706 36.158475-27.184169 9.389865-.000528-1.09093-.000528-1.090928 27.18417-9.389866 27.184175-9.389858.000529 1.090931.000531 1.090929z"/><path d="m37.84353 54.344566-27.184169 9.389867-.00053-1.090932-.000529-1.090929 27.184168-9.389865 27.18418-9.389858.000527 1.090931.000531 1.090927z"/><path d="m52.188383 60.238274-1.024465.353773-.01405-28.948549-.01405-28.9485546 1.024467-.3537752 1.024467-.3537756.01401 28.9484574.01405 28.948552z"/><path d="m36.745083 65.488252-1.024466.353776-.01404-28.94855-.01405-28.9485567 1.024466-.3537752 1.024433-.3538704.01404 28.9485413.01404 28.948551z"/><path d="m21.846666 70.718801-1.024465.353775-.01405-28.948548-.01404-28.948559 1.024465-.353774 1.024467-.353775.01403 28.948499.01404 28.948552z"/></g><g fill="none" stroke="#000" stroke-width="2.25778"><path d="m10.759802 45.515161 54.480395-18.818427"/><path d="m37.985925 7.0977355.02815 58.0164255"/></g></svg>
