<svg height="256" viewBox="0 0 72.248892 72.248892" width="256" xmlns="http://www.w3.org/2000/svg"><g fill="#00ff7f" stroke="#000"><path d="m37.854557 8.530597a26.164271 26.541318 0 0 0 -26.837182 25.784891l-.0058.214819a26.164271 26.541318 0 0 0 25.581376 27.067173 26.164271 26.541318 0 0 0 26.734979-25.895207 26.164271 26.541318 0 0 0 -25.473372-27.171676zm-.05397 2.128283a24.443758 24.044985 75.222224 0 1 23.435022 25.191031 24.443758 24.044985 75.222224 0 1 -24.596054 23.620115 24.443758 24.044985 75.222224 0 1 -23.534763-25.094817l.0049-.198234a24.443758 24.044985 75.222224 0 1 24.69094-23.518095z" fill-opacity="1" stroke-dasharray="3.386667 3.386667" stroke-dashoffset="3.556" stroke-opacity=".917695" stroke-width="1.693333"/><ellipse cx="-35.115768" cy="37.195576" rx="3.15977" ry="3.057805" stroke-dashoffset="20" stroke-linecap="round" stroke-width="2.25778" transform="matrix(0 -1 1 0 0 0)"/></g></svg>