<svg height="256" viewBox="0 0 72.248892 72.248892" width="256" xmlns="http://www.w3.org/2000/svg"><g fill="#00ff7f"><path d="m32.421454 14.198231a26.164271 26.541318 0 0 0 -26.8371825 25.784891l-.0058.214819a26.164271 26.541318 0 0 0 25.5813765 27.067173 26.164271 26.541318 0 0 0 26.734978-25.895207 26.164271 26.541318 0 0 0 -25.473371-27.171676zm-.05397 2.128283a24.443758 24.044985 75.222224 0 1 23.435022 25.191031 24.443758 24.044985 75.222224 0 1 -24.596054 23.620115 24.443758 24.044985 75.222224 0 1 -23.5347635-25.094817l.0049-.198234a24.443758 24.044985 75.222224 0 1 24.6909405-23.518095z" style="fill-opacity:1;stroke:#000;stroke-width:1.69333;stroke-dasharray:3.38667 3.38667;stroke-dashoffset:3.556;stroke-opacity:.917695"/><g stroke-width="2.25778"><path d="m64.259161 7.8364117-56.2255761 57.1093403" fill-opacity="1" stroke="#000" stroke-dasharray="2.25778 2.25778" stroke-dashoffset="0"/><path d="m62.758199 9.5986493-53.0939887 53.6979297" style="fill-opacity:1;stroke:#00ff7f;stroke-miterlimit:4.2;stroke-dasharray:2.25778 2.25778;stroke-dashoffset:0;stroke-opacity:1"/><ellipse cx="-41.292419" cy="32.274055" rx="4.168447" ry="4.089012" stroke="#000" stroke-dashoffset="20" stroke-linecap="round" transform="matrix(0 -1 1 0 0 0)"/><path d="m30.510353 3.4514474 39.758753 39.4574596" fill-opacity="1" stroke="#000" stroke-dasharray="2.25778 2.25778" stroke-dashoffset="0"/><path d="m32.274055 5.3357422 36.626405 36.2148908" style="fill-opacity:1;stroke:#00ff7f;stroke-miterlimit:4.2;stroke-dasharray:2.25778 2.25778;stroke-dashoffset:0;stroke-opacity:1"/><ellipse cx="-23.744621" cy="49.260841" rx="4.341471" ry="4.46729" stroke="#000" stroke-dasharray="none" stroke-dashoffset="20" stroke-linecap="round" transform="matrix(0 -1 1 0 0 0)"/></g></g></svg>