<svg height="256" viewBox="0 0 72.248892 72.248892" width="256" xmlns="http://www.w3.org/2000/svg"><g stroke="#000"><ellipse cx="-55.131134" cy="-35.273693" fill="#00ff7f" rx="5.62695" ry="5.260881" stroke-dasharray="none" stroke-dashoffset="8" stroke-linecap="square" stroke-width="2.25778" transform="matrix(0 -1 -1 0 0 0)"/><path d="m43.326337 18.240923q0 1.863184-.573567 3.327113-.573566 1.444921-1.507651 2.566633-.917714 1.083689-2.114008 2.034295-1.196293.950603-2.540069 1.844171v4.277719h-2.933377v-5.798686q1.065195-.703447 2.294255-1.539978 1.245455-.836534 2.032069-1.692076.950469-.988629 1.474875-2.034295.524406-1.064675.524406-2.699715 0-2.148365-1.261849-3.194031-1.245454-1.064677-3.228352-1.064677-1.76986 0-3.35945.646412-1.573207.646411-2.490909 1.311834h-.163887v-3.878465q1.147133-.513327 2.90061-.91258 1.769861-.418266 3.343068-.418266 3.523326 0 5.555384 1.996269 2.048452 1.977256 2.048452 5.228323zm-6.473098 21.654761h-3.343067v-4.011548h3.343067z" fill="#000" stroke-width=".282222"/></g></svg>