<svg height="256" viewBox="0 0 256 256" width="256" xmlns="http://www.w3.org/2000/svg"><g stroke="#000"><path d="m10.377056 188.77092 235.245884-78.2848" stroke-dashoffset="8" stroke-width="8.18904"/><path d="m27.260732 214.13286 127.355628-199.400769" stroke-dashoffset="8" stroke-width="8"/><path d="m217.65928 53.798417q4.85281-1.61491 7.14726-5.77561 2.08811-3.75231 1.28383-7.96892-.33888-1.78963-.76635-3.07418-4.60041-13.824223-22.58443-7.703642-5.2176 1.804282-6.33743 7.952062-.83367 4.69375.77443 9.5261 2.07629 6.23926 8.99337 7.74222 5.71216 1.22449 11.48932-.69803zm18.5313.1519q-.95071-1.31427-2.87411-5.29433-.43904-.8051-2.12256-4.32144-3.05873 5.97771-8.74683 10.99599-6.14589 5.44237-12.92442 7.69812-8.31912 2.76842-14.61001-.70944-5.64553-3.08113-7.90502-9.87091-2.50376-7.5238 2.12307-14.7028 3.43668-5.35612 12.52124-12.252026 2.8688-2.177652 6.79728-3.484965 8.62722-2.870956 15.26255.356401.0259-1.978976.48208-3.693462.90838-.09846 1.98678-.457332 4.62173-1.538013 10.6471-6.057024-3.66501 4.412954.22295 16.096271.65138 1.957412 2.1082 5.820967 1.53386 3.83792 2.18525 5.79534 1.40455 4.22067 3.021 5.99281 2.70085 2.97398 7.40121 2.70071z" fill="#000" stroke-width="1"/><path d="m101.95586 42.789463a130.64683 160.2358 71.59366 0 1 112.81587 117.210727" fill="none" stroke-dashoffset="8" stroke-linecap="square" stroke-width="8"/><ellipse cx="-7.571406" cy="184.57677" fill="#00ff7f" opacity=".98" rx="20.108557" ry="16.613987" stroke-dashoffset="6" stroke-linejoin="bevel" stroke-width="6.73747" transform="matrix(.94884108 -.31575403 .31575403 .94884108 0 0)"/><path d="m67.280764 53.403319q0 4.968179-1.8229 8.871748-1.82289 3.852879-4.7916 6.843926-2.91664 2.889659-6.71867 5.424445-3.80204 2.534786-8.07282 4.917486v11.40654h-9.3228v-15.462202q3.38538-1.875738 7.29158-4.106352 3.95828-2.230615 6.45826-4.51192 3.02078-2.636181 4.68744-5.424445 1.66664-2.838961 1.66664-7.19879 0-5.728617-4.01037-8.516884-3.95829-2.838962-10.26029-2.838962-5.62493 0-10.67695 1.723656-4.99994 1.723656-7.91657 3.498006h-.52083v-10.341928q3.6458-1.368787 9.21864-2.433395 5.62494-1.115305 10.62487-1.115305 11.19777 0 17.65603 5.32305 6.51034 5.272356 6.51034 13.941326zm-20.57266 57.742431h-10.62487v-10.6968h10.62487z" fill="#000" stroke-width=".999999"/><path d="m135.25686 249.36973c-19.47163-8.82713-38.943221-17.65443-58.414841-26.48155 1.68361-4.45542 3.80383-8.82131 5.21573-13.33223-.23468-11.61874-.4692-23.23766-.70402-34.8564 5.3824-12.46548 10.76479-24.93095 16.14719-37.39644 3.367861-2.84446 6.735721-5.68893 10.103591-8.53338 4.07813.64518 8.15623 1.29036 12.23436 1.93487-3.20849 7.13566-6.41697 14.27131-9.62546 21.40697 2.25167.13284 5.11494 1.49042 6.99323.87025 2.96458-6.47514 5.52458-13.29488 8.73837-19.55797 2.15411-1.7183 4.30821-3.43663 6.46229-5.15493 4.03281 1.76699 8.06565 3.53416 12.09846 5.30115-3.35721 8.10491-6.7144 16.20986-10.0716 24.31479 2.08441.23177 5.22312 2.95532 6.59198 1.49369 3.18399-7.65746 6.05334-15.53366 9.43271-23.05543 1.7398-1.93204 3.47958-3.86408 5.21939-5.79612 3.87849 1.75699 7.75699 3.51381 11.63548 5.2708-3.78974 9.73922-7.57947 19.47861-11.36921 29.21783 4.52841 2.30582 6.66627 3.23091 7.76635-2.03857 7.06469-17.56558 14.12934-35.13113 21.19402-52.69671 2.20988-1.53371 4.41977-3.06686 6.62963-4.60029 3.2612 1.56877 6.52238 3.13871 9.78358 4.70815.54802 2.98317 1.81384 6.02818 1.93117 8.97418-9.76225 23.46555-19.52448 46.93127-29.28672 70.39682 6.42574-2.09159 12.85147-4.18301 19.27723-6.27459 4.1016 1.84051 8.20322 3.68102 12.3048 5.52153-1.43525 2.64424-1.98741 6.10088-3.98937 8.22347-20.12064 13.40542-40.24128 26.81083-60.36194 40.21623-1.97883 3.97461-3.95766 7.94906-5.93649 11.92368z" style="fill:#fff;fill-opacity:1;stroke-linecap:round;stroke-linejoin:round;stroke-width:8.00001;stroke-dasharray:none"/></g></svg>