<svg height="256" viewBox="0 0 72.248892 72.248892" width="256" xmlns="http://www.w3.org/2000/svg"><g stroke="#000"><ellipse cx="-19.739838" cy="-48.042881" fill="#00ff7f" rx="5.62695" ry="5.260881" stroke-dasharray="none" stroke-dashoffset="8" stroke-linecap="square" stroke-width="2.25778" transform="matrix(0 -1 -1 0 0 0)"/><path d="m27.077286 68.176969c-5.49532-2.491211-10.99064-4.982472-16.48596-7.473683.47515-1.257417 1.07352-2.489568 1.47199-3.76265-.0662-3.279067-.13242-6.558184-.19869-9.837252 1.51903-3.518035 3.03806-7.036069 4.5571-10.554107.95048-.80277 1.90097-1.605543 2.85145-2.408309 1.15094.182084 2.30187.364168 3.45281.546062-.90551 2.013843-1.81101 4.027682-2.71652 6.041525.63547.03749 1.44355.420628 1.97365.245603.83667-1.827428 1.55916-3.752112 2.46616-5.519693.60794-.484943 1.21587-.969894 1.8238-1.454838 1.13815.498685 2.27631.997418 3.41446 1.496103-.94748 2.287387-1.89495 4.574783-2.84243 6.862175.58827.06541 1.47408.834058 1.8604.421553.89859-2.161106 1.70839-4.383944 2.66212-6.506756.49101-.545265.98202-1.090529 1.47303-1.635794 1.0946.495863 2.18919.991675 3.28379 1.487538-1.06955 2.748623-2.1391 5.497296-3.20864 8.245921 1.27802.650752 1.88137.911833 2.19183-.57533 1.99382-4.957397 3.98762-9.914787 5.98143-14.872184.62367-.432848 1.24735-.865535 1.87103-1.298303.92038.44274 1.84075.885812 2.76114 1.328744.15466.841918.5119 1.701287.54502 2.532712-2.75513 6.6225-5.51024 13.245048-8.26536 19.867549 1.81348-.590293 3.62697-1.180539 5.44046-1.77083 1.15756.519434 2.31512 1.038867 3.47268 1.558301-.40506.746263-.56089 1.721803-1.12589 2.320845-5.67849 3.783308-11.35698 7.566613-17.03547 11.349914-.55847 1.121724-1.11694 2.243403-1.67541 3.365127z" style="fill:#fff;fill-opacity:1;stroke-linecap:round;stroke-linejoin:round;stroke-width:2.25778;stroke-dasharray:none"/><path d="m28.611563 10.8382q0 1.402131-.50309 2.503805-.50309 1.087369-1.3224 1.931508-.80495.815526-1.85425 1.5309-1.0493.715372-2.22796 1.387823v3.219179h-2.57294v-4.363776q.93431-.529376 2.01235-1.158904 1.09242-.62953 1.78238-1.273364.83368-.743989 1.29365-1.5309.45997-.801217.45997-2.031659 0-1.6167429-1.1068-2.4036539-1.09242-.801218-2.83167-.801218-1.55239 0-2.94666.486454-1.3799.486454-2.18484.987215h-.14375v-2.918722q1.00618-.386302 2.5442-.686758 1.55239-.314764 2.93229-.314764 3.0904 0 4.87277 1.502283 1.79675 1.487976 1.79675 3.9345519zm-5.67772 16.296197h-2.93229v-3.018873h2.93229z" fill="#000" stroke-width=".282222"/></g></svg>