<svg height="256" viewBox="0 0 72.248892 72.248892" width="256" xmlns="http://www.w3.org/2000/svg"><g stroke="#000"><ellipse cx="-19.739838" cy="-48.042862" fill="#00ff7f" rx="5.62695" ry="5.260881" stroke-dasharray="none" stroke-dashoffset="8" stroke-linecap="square" stroke-width="2.25778" transform="matrix(0 -1 -1 0 0 0)"/><path d="m27.077286 68.176969c-5.49532-2.491211-10.990641-4.982472-16.485966-7.473683.47515-1.257417 1.073521-2.489568 1.471991-3.76265-.0662-3.279067-.132419-6.558184-.19869-9.837252 1.519032-3.518035 3.038063-7.036069 4.557104-10.554107.950481-.80277 1.900971-1.605543 2.851451-2.408309 1.15094.182084 2.30187.364168 3.45281.546062-.90551 2.013843-1.81101 4.027682-2.71652 6.041525.63547.03749 1.44355.420628 1.97365.245603.83667-1.827428 1.55916-3.752112 2.46616-5.519693.60794-.484943 1.21587-.969894 1.8238-1.454838 1.13815.498685 2.27631.997418 3.41446 1.496103-.94748 2.287387-1.89495 4.574783-2.84243 6.862175.58827.06541 1.47408.834058 1.8604.421553.89859-2.161106 1.70839-4.383944 2.66212-6.506756.49101-.545265.98202-1.090529 1.47303-1.635794 1.0946.495863 2.18919.991675 3.28379 1.487538-1.06955 2.748623-2.1391 5.497296-3.20864 8.245921 1.27802.650752 1.88137.911833 2.19183-.57533 1.99382-4.957397 3.98762-9.914787 5.98143-14.872184.62367-.432848 1.24735-.865535 1.87103-1.298303.92038.44274 1.84075.885812 2.76114 1.328744.15466.841918.5119 1.701287.54502 2.532712-2.75513 6.6225-5.51024 13.245048-8.26536 19.867549 1.81348-.590293 3.62697-1.180539 5.44046-1.77083 1.15756.519434 2.31512 1.038867 3.47268 1.558301-.40506.746263-.56089 1.721803-1.12589 2.320845-5.67849 3.783308-11.35698 7.566613-17.03547 11.349914-.55847 1.121724-1.11694 2.243403-1.67541 3.365127z" style="fill:#fff;fill-opacity:1;stroke-width:2.25778;stroke-linecap:round;stroke-linejoin:round;stroke-dasharray:none"/><path d="m37.670983 14.102415q0 .954137-.363553 1.703815-.363553.739944-.95562 1.314373-.581689.554957-1.339957 1.041762-.758267.486804-1.610015.944401v2.19062h-1.859311v-2.969508q.67517-.360235 1.454207-.788623.789427-.428389 1.28802-.866512.602451-.506277.934844-1.041762.332393-.545221.332393-1.382525 0-1.100178-.799819-1.635663-.789428-.545221-2.04628-.545221-1.12182 0-2.129376.331027-.997172.331027-1.578855.671791h-.103879v-1.986163q.727106-.262874 1.838542-.467332 1.121821-.214194 2.118993-.214194 2.233249 0 3.521262 1.022289 1.298405 1.012554 1.298404 2.677425zm-4.102952 11.089405h-2.118993v-2.054314h2.118993z" fill="#000" stroke-width=".282222"/></g><path d="m18.476936 23.161211c-1.049608 2.276475-2.072524 3.761829-3.068456 4.45631-.995927.694231-2.32804 1.041471-3.996911 1.041471h-2.9673959v-2.629299h2.1801839c1.022917 0 1.816729-.204943 2.382012-.614589.565284-.409886 1.190867-1.377298 1.877308-2.902475l.666054-1.43412-9.1444919-18.8140094h3.9363319l7.06508 14.9555374 7.065078-14.9555374h3.936335l-9.931704 20.8974404" stroke-width=".28222"/></svg>