<svg height="256" viewBox="0 0 72.248892 72.248892" width="256" xmlns="http://www.w3.org/2000/svg"><g stroke="#000"><g stroke-dasharray="none" stroke-width="2.25778"><ellipse cx="-17.15374" cy="-61.56168" fill="#00ff7f" rx="5.62695" ry="5.260881" stroke-dashoffset="8" stroke-linecap="square" transform="matrix(0 -1 -1 0 0 0)"/><ellipse cx="-17.15374" cy="-13.894137" fill="#00ff7f" rx="5.62695" ry="5.260881" stroke-dashoffset="8" stroke-linecap="square" transform="matrix(0 -1 -1 0 0 0)"/><path d="m27.077288 68.176969c-5.495327-2.491211-10.990644-4.982472-16.485966-7.473683.475152-1.257417 1.073524-2.489568 1.471993-3.76265-.06623-3.279067-.132418-6.558184-.198689-9.837252 1.519034-3.518035 3.038064-7.036069 4.557097-10.554107.950485-.80277 1.900969-1.605543 2.851457-2.408309 1.150939.182084 2.301869.364168 3.452809.546062-.905509 2.013843-1.811012 4.027682-2.716521 6.041525.635472.03749 1.443552.420628 1.973646.245603.83667-1.827428 1.559159-3.752112 2.466163-5.519693.607936-.484943 1.215871-.969894 1.823802-1.454838 1.138149.498685 2.276306.997418 3.414454 1.496103-.94748 2.287387-1.894952 4.574783-2.842429 6.862175.588267.06541 1.47408.834058 1.860404.421553.898591-2.161106 1.708386-4.383944 2.662118-6.506756.491012-.545265.982017-1.090529 1.473029-1.635794 1.094596.495863 2.189195.991675 3.283791 1.487538-1.069549 2.748623-2.139096 5.497296-3.208644 8.245921 1.278019.650752 1.881371.911833 2.191838-.57533 1.993811-4.957397 3.987614-9.914787 5.981424-14.872184.623675-.432848 1.247355-.865535 1.871029-1.298303.920383.44274 1.84076.885812 2.761143 1.328744.154662.841918.511906 1.701287.545019 2.532712-2.755123 6.6225-5.510243 13.245048-8.265364 19.867549 1.813488-.590293 3.626972-1.180539 5.440464-1.77083 1.157563.519434 2.315129 1.038867 3.472687 1.558301-.405059.746263-.560892 1.721803-1.125888 2.320845-5.678494 3.783308-11.356986 7.566613-17.035481 11.349914-.558472 1.121724-1.11694 2.243403-1.675411 3.365127z" fill="#fff" fill-opacity="1" stroke-linecap="round" stroke-linejoin="round"/></g><path d="m43.413024 9.3961442q0 1.4021308-.503089 2.5038048-.503089 1.087368-1.322403 1.931508-.804945.815526-1.854243 1.530899-1.049301.715373-2.227966 1.387824v3.219179h-2.572939v-4.363777q.934307-.529375 2.012356-1.158904 1.09242-.629529 1.782373-1.273364.833687-.743989 1.293657-1.530899.459965-.801218.459965-2.0316588 0-1.616743-1.106795-2.403654-1.092424-.801218-2.831674-.801218-1.552388 0-2.946663.486454-1.3799.486454-2.184842.987215h-.143741v-2.9187221q1.00618-.386302 2.544193-.686758 1.55239-.314764 2.93229-.314764 3.090402 0 4.872774 1.5022831 1.796747 1.487976 1.796747 3.934552zm-5.677717 16.2961968h-2.932289v-3.018873h2.932289z" fill="#000" stroke-width=".282222"/><g fill="none" stroke-width="2.25778"><path d="m20.241278 17.136246 9.436318.01749"/><path d="m43.554135 17.15374 11.617773.000006"/></g></g></svg>