<svg height="256" viewBox="0 0 72.248892 72.248892" width="256" xmlns="http://www.w3.org/2000/svg"><g fill="#fff" fill-rule="evenodd" stroke="#000" stroke-width="2.25778"><path d="m28.987631 25.988004-18.06222 13.546667h33.866665l18.062224-13.546667z"/><path d="m28.987631 19.21467-18.06222 13.546667h33.866665l18.062224-13.546667z" fill-opacity="1"/><path d="m28.987631 12.441334-18.06222 13.546663h33.866665l18.062224-13.546663z"/></g><ellipse cx="17.356066" cy="55.509518" fill="#00ff7f" rx="7.541257" ry="7.414489" stroke-width="1"/><path d="m4.294235 56.039135a15.082522 14.828985 0 0 1 13.061846-7.414492 15.082522 14.828985 0 0 1 13.061847 7.414491" fill="none" stroke="#000" stroke-dasharray="none" stroke-dashoffset="15.2" stroke-width="2.257778"/><ellipse cx="17.356081" cy="55.509525" rx="3.770628" ry="3.707244" stroke-width="1"/><path d="m4.294235 54.97992a15.082522 14.828985 0 0 0 13.061846 7.414493 15.082522 14.828985 0 0 0 13.061847-7.414491" fill="none" stroke="#000" stroke-dasharray="none" stroke-dashoffset="15.2" stroke-width="2.257778"/><ellipse cx="20.049397" cy="52.331879" fill="#fff" rx="1.615982" ry="1.588818" stroke-width="1"/><g stroke="#000"><ellipse cx="17.356066" cy="55.509518" fill="none" rx="7.541257" ry="7.414489" stroke-dasharray="none" stroke-dashoffset="15.2" stroke-width="1.411111"/><path d="m68.862227 53.529911-20.320001-11.28889v6.773334h-11.28889v9.031112h11.28889v6.773334z" fill="#fff" fill-rule="evenodd" stroke-width="2.25778"/></g></svg>