<svg height="256" viewBox="0 0 72.248892 72.248892" width="256" xmlns="http://www.w3.org/2000/svg"><g stroke="#000" stroke-width="2.25778"><g transform="matrix(1 0 0 -1 -.035227 61.436162)"><path d="m65.61592 4.2333336-30.33814 21.1666684" fill="none"/><path d="m16.775767 22.030677-9.272542 5.261838-.0325187-10.159946z" fill="#00ff7f" fill-rule="evenodd" stroke-linecap="round" transform="matrix(-.84500762 .53475427 .53475427 .84500762 55.126073 -14.306787)"/><path d="m6.3432216 4.2333336 28.9345584 21.1666684" fill="none"/><path d="m16.775767 22.030677-9.272542 5.261838-.0325187-10.159946z" fill="#00ff7f" fill-rule="evenodd" stroke-linecap="round" transform="matrix(.81459687 .58002753 -.58002753 .81459687 17.96286 -14.056019)"/></g><path d="m3.6362146 35.081729 66.1053534-.086171" fill="none"/><g transform="matrix(1 0 0 1 .656274 9.710333)"><path d="m65.61592 4.2333336-30.33814 21.1666684" fill="none"/><path d="m16.775767 22.030677-9.272542 5.261838-.0325187-10.159946z" fill="#00ff7f" fill-rule="evenodd" stroke-linecap="round" transform="matrix(-.84500762 .53475427 .53475427 .84500762 55.126073 -14.306787)"/><path d="m6.3432216 4.2333336 28.9345584 21.1666684" fill="none"/><path d="m16.775767 22.030677-9.272542 5.261838-.0325187-10.159946z" fill="#00ff7f" fill-rule="evenodd" stroke-linecap="round" transform="matrix(.81459687 .58002753 -.58002753 .81459687 17.96286 -14.056019)"/></g><circle cx="36.159798" cy="35.432739" fill="#00ff7f" r="5.644445" stroke-dashoffset="8" stroke-linecap="square"/></g></svg>