<?xml version="1.0" encoding="UTF-8" standalone="no"?>
<svg
   width="256"
   height="256"
   viewBox="0 0 72.248892 72.248892"
   id="svg4295"
   version="1.1"
   inkscape:version="1.2.2 (732a01da63, 2022-12-09)"
   sodipodi:docname="line_join.svg"
   inkscape:export-filename="E:\icons\trim2.png"
   inkscape:export-xdpi="8.4375"
   inkscape:export-ydpi="8.4375"
   xmlns:inkscape="http://www.inkscape.org/namespaces/inkscape"
   xmlns:sodipodi="http://sodipodi.sourceforge.net/DTD/sodipodi-0.dtd"
   xmlns="http://www.w3.org/2000/svg"
   xmlns:svg="http://www.w3.org/2000/svg"
   xmlns:rdf="http://www.w3.org/1999/02/22-rdf-syntax-ns#"
   xmlns:cc="http://creativecommons.org/ns#"
   xmlns:dc="http://purl.org/dc/elements/1.1/">
  <metadata
     id="metadata4325">
    <rdf:RDF>
      <cc:Work
         rdf:about="">
        <dc:format>image/svg+xml</dc:format>
        <dc:type
           rdf:resource="http://purl.org/dc/dcmitype/StillImage" />
        <dc:title />
      </cc:Work>
    </rdf:RDF>
  </metadata>
  <defs
     id="defs4323" />
  <sodipodi:namedview
     pagecolor="#ffffff"
     bordercolor="#666666"
     borderopacity="1"
     objecttolerance="10"
     gridtolerance="10"
     guidetolerance="10"
     inkscape:pageopacity="0"
     inkscape:pageshadow="2"
     inkscape:window-width="3840"
     inkscape:window-height="2126"
     id="namedview4321"
     showgrid="true"
     units="px"
     inkscape:snap-grids="true"
     inkscape:zoom="0.66015045"
     inkscape:cx="140.87698"
     inkscape:cy="636.97601"
     inkscape:window-x="-11"
     inkscape:window-y="-11"
     inkscape:window-maximized="1"
     inkscape:current-layer="svg4295"
     inkscape:object-nodes="true"
     inkscape:snap-object-midpoints="false"
     inkscape:showpageshadow="2"
     inkscape:pagecheckerboard="0"
     inkscape:deskcolor="#d1d1d1">
    <inkscape:grid
       type="xygrid"
       id="grid4867" />
  </sodipodi:namedview>
  <path
     style="fill:#00ff7f;fill-opacity:1;stroke:#000000;stroke-width:0.0037787;stroke-opacity:0"
     d="m 30.092237,56.077103 c 0,-0.0087 0.06869,-0.571638 0.15264,-1.250837 0.08395,-0.679199 0.147718,-1.238451 0.141701,-1.242783 -0.006,-0.0043 -3.249753,-0.4027 -7.208303,-0.885266 -3.958551,-0.482563 -7.204936,-0.884959 -7.214188,-0.894213 -0.01451,-0.01451 2.464388,-16.003598 2.512921,-16.208576 0.01696,-0.07158 -0.0476,-0.08568 -1.221283,-0.266863 -0.681546,-0.10521 -1.242861,-0.181729 -1.247368,-0.170042 -0.0045,0.01168 -0.580475,3.694151 -1.279934,8.183257 -0.69946,4.489103 -1.284007,8.170511 -1.298996,8.180902 -0.01499,0.01039 -0.05608,0.266706 -0.09131,0.569587 -0.03523,0.302881 -0.104098,0.814406 -0.153032,1.136723 -0.110166,0.725616 -0.104022,0.772592 0.10504,0.802931 0.0863,0.01253 3.855317,0.473106 8.375597,1.023516 4.520277,0.550412 8.265451,1.009037 8.322603,1.019169 0.05715,0.01013 0.103915,0.01126 0.103915,0.0025 z"
     id="path1899" />
  <path
     style="fill:#00ff7f;fill-opacity:1;stroke:#000000;stroke-width:0.267782;stroke-opacity:0"
     d=""
     id="path978"
     transform="scale(0.28222223)" />
  <path
     style="fill:#00ff7f;fill-rule:evenodd;stroke:#000000;stroke-width:2.25778;stroke-linecap:round;stroke-linejoin:miter;stroke-miterlimit:4;stroke-dasharray:none;stroke-opacity:1"
     d="m 21.923352,53.922084 8.508949,5.913136 0.963008,-10.11426 -9.471957,4.201124"
     id="path4207"
     inkscape:connector-curvature="0"
     sodipodi:nodetypes="cccc" />
  <path
     sodipodi:nodetypes="cc"
     inkscape:connector-curvature="0"
     id="path4209"
     d="M 64.906782,59.3835 44.845565,57.055217"
     style="fill:none;fill-rule:evenodd;stroke:#000000;stroke-width:2.94326;stroke-linecap:butt;stroke-linejoin:miter;stroke-miterlimit:4;stroke-dasharray:none;stroke-opacity:1" />
  <path
     style="fill:#00ff7f;fill-opacity:1;stroke:#000000;stroke-width:0.103601;stroke-opacity:0"
     d="m 39.040413,57.206768 c 1.325969,0.147135 2.74905,0.304399 3.162407,0.349466 l 0.751561,0.08197 0.220744,-0.950661 0.220744,-0.95066 -3.169617,-0.347722 -3.16962,-0.347723 -0.184123,0.81631 c -0.101257,0.448971 -0.197355,0.875984 -0.213536,0.948921 -0.02251,0.10157 0.535021,0.19525 2.381421,0.40015 z"
     id="path980" />
  <path
     style="fill:#00ff7f;fill-opacity:1;stroke:#000000;stroke-width:0.075574;stroke-opacity:0"
     d="m 33.780871,56.574031 c 0.447423,0.0449 0.834947,0.06146 0.861162,0.0368 0.05817,-0.05473 0.21149,-1.643009 0.163499,-1.693778 -0.05929,-0.06272 -1.623286,-0.201376 -1.679107,-0.148861 -0.06334,0.05959 -0.244203,1.633693 -0.193862,1.687202 0.01914,0.02035 0.400884,0.07374 0.848308,0.11864 z"
     id="path982" />
  <path
     sodipodi:nodetypes="cccc"
     inkscape:connector-curvature="0"
     id="path4192"
     d="M 15.566744,45.47618 12.031049,35.736251 22.05444,37.396747 15.566744,45.47618"
     style="fill:#00ff7f;fill-rule:evenodd;stroke:#000000;stroke-width:2.25778;stroke-linecap:round;stroke-linejoin:miter;stroke-miterlimit:4;stroke-dasharray:none;stroke-opacity:1" />
  <path
     style="fill:#00ff7f;fill-opacity:1;stroke:#000000;stroke-width:0.0636619;stroke-opacity:0"
     d="m 17.581121,32.851952 c -0.07907,0.406168 -0.137488,0.766753 -0.129803,0.8013 0.0077,0.03455 0.360311,0.14526 0.783608,0.246026 l 0.769632,0.183215 0.156577,-0.763229 c 0.08612,-0.419778 0.147001,-0.779649 0.135295,-0.799715 -0.01171,-0.02007 -0.370085,-0.119645 -0.796408,-0.221286 L 17.724897,32.11346 Z"
     id="path984" />
  <path
     style="fill:#00ff7f;fill-opacity:1;stroke:#000000;stroke-width:0.0846665;stroke-opacity:0"
     d="m 18.428061,27.115139 c -0.135118,1.553546 -0.222982,2.841995 -0.19526,2.86322 0.02774,0.02123 0.401757,0.128631 0.831183,0.238662 l 0.780773,0.200072 0.248984,-2.811479 c 0.136938,-1.546312 0.235541,-2.844873 0.219112,-2.885693 -0.02908,-0.07226 -1.570995,-0.50647 -1.616353,-0.455164 -0.01251,0.01417 -0.13332,1.29683 -0.268439,2.850382 z"
     id="path986" />
  <path
     style="fill:none;fill-rule:evenodd;stroke:#000000;stroke-width:2.73755;stroke-linecap:butt;stroke-linejoin:miter;stroke-miterlimit:4;stroke-dasharray:none;stroke-opacity:1"
     d="M 22.815569,4.9468268 20.325985,23.322598"
     id="path4201"
     inkscape:connector-curvature="0"
     sodipodi:nodetypes="cc" />
  <circle
     r="5.6444449"
     cy="53.275059"
     cx="-14.259444"
     id="circle5725"
     style="fill:#00ff7f;fill-opacity:1;fill-rule:nonzero;stroke:#000000;stroke-width:2.25778;stroke-linecap:square;stroke-linejoin:miter;stroke-miterlimit:4;stroke-dasharray:none;stroke-dashoffset:8;stroke-opacity:1"
     transform="scale(-1,1)" />
</svg>
