<svg height="256" viewBox="0 0 72.248892 72.248892" width="256" xmlns="http://www.w3.org/2000/svg"><path d="m30.092237 56.077103c0-.0087.06869-.571638.15264-1.250837s.147718-1.238451.141701-1.242783c-.006-.0043-3.249753-.4027-7.208303-.885266-3.958551-.482563-7.204936-.884959-7.214188-.894213-.01451-.01451 2.464388-16.003598 2.512921-16.208576.01696-.07158-.0476-.08568-1.221283-.266863-.681546-.10521-1.242861-.181729-1.247368-.170042-.0045.01168-.580475 3.694151-1.279934 8.183257-.69946 4.489103-1.284007 8.170511-1.298996 8.180902-.01499.01039-.05608.266706-.09131.569587s-.104098.814406-.153032 1.136723c-.110166.725616-.104022.772592.10504.802931.0863.01253 3.855317.473106 8.375597 1.023516 4.520277.550412 8.265451 1.009037 8.322603 1.019169.05715.01013.103915.01126.103915.0025z" fill="#00ff7f"/><path d="m21.923352 53.922084 8.508949 5.913136.963008-10.11426z" fill="#00ff7f" fill-rule="evenodd" stroke="#000" stroke-linecap="round" stroke-width="2.25778"/><path d="m64.906782 59.3835-20.061217-2.328283" fill="none" stroke="#000" stroke-width="2.94326"/><g fill="#00ff7f"><path d="m39.040413 57.206768c1.325969.147135 2.74905.304399 3.162407.349466l.751561.08197.220744-.950661.220744-.95066-3.169617-.347722-3.16962-.347723-.184123.81631c-.101257.448971-.197355.875984-.213536.948921-.02251.10157.535021.19525 2.381421.40015z"/><path d="m33.780871 56.574031c.447423.0449.834947.06146.861162.0368.05817-.05473.21149-1.643009.163499-1.693778-.05929-.06272-1.623286-.201376-1.679107-.148861-.06334.05959-.244203 1.633693-.193862 1.687202.01914.02035.400884.07374.848308.11864z"/><path d="m15.566744 45.47618-3.535695-9.739929 10.023391 1.660496z" fill-rule="evenodd" stroke="#000" stroke-linecap="round" stroke-width="2.25778"/><path d="m17.581121 32.851952c-.07907.406168-.137488.766753-.129803.8013.0077.03455.360311.14526.783608.246026l.769632.183215.156577-.763229c.08612-.419778.147001-.779649.135295-.799715-.01171-.02007-.370085-.119645-.796408-.221286l-.775125-.184803z"/><path d="m18.428061 27.115139c-.135118 1.553546-.222982 2.841995-.19526 2.86322.02774.02123.401757.128631.831183.238662l.780773.200072.248984-2.811479c.136938-1.546312.235541-2.844873.219112-2.885693-.02908-.07226-1.570995-.50647-1.616353-.455164-.01251.01417-.13332 1.29683-.268439 2.850382z"/></g><g stroke="#000"><path d="m22.815569 4.9468268-2.489584 18.3757712" fill="none" stroke-width="2.73755"/><circle cx="-14.259444" cy="53.275059" fill="#00ff7f" r="5.644445" stroke-dashoffset="8" stroke-linecap="square" stroke-width="2.25778" transform="scale(-1 1)"/></g></svg>
