<svg height="256" viewBox="0 0 72.248892 72.248892" width="256" xmlns="http://www.w3.org/2000/svg"><g stroke="#000" stroke-width="2.257778"><circle cx="50.799999" cy="41.768887" fill="#00ff7f" r="9.031112" stroke-linecap="square"/><g fill="none"><path d="m50.800005 60.960004v-38.382225"/><path d="m31.608891 41.768893h38.382225"/></g></g><g fill="#fff"><path d="m29.086158 66.909395 2.710705-2.710711 3.879641-.843251 9.3034591-9.288997-1.5958442-1.595901 11.1733096-11.177552-3.19298016-3.19298-11.17330934 11.177552-7.983098-7.983041-9.303461 9.288995-5.072179 5.072185z" fill-rule="evenodd" stroke="#000" stroke-width="2.257778"/><path d="m44.1751334 45.279099-7.9830964-7.98304-3.542213 3.542212" fill-rule="evenodd" stroke="#000" stroke-width="2.257778"/><path d="m37.03041211 44.45203222-3.13232199-3.13382115 1.14690349-1.14690321 1.14690377-1.14690603 3.13502765 3.13502906 3.13502794 3.13502906-1.14960943 1.14569529-1.14960943 1.14569812z" stroke-width=".282222"/></g><g stroke="#000" stroke-width="2.257778"><path d="m7.9022228 37.312564v-20.379229h22.5777792v20.379229z" fill-rule="evenodd"/><path d="m11.28889 14.675403a7.9022226 7.9022226 0 0 1 7.902223-7.902222 7.9022226 7.9022226 0 0 1 7.902222 7.902223" fill="none" stroke-linecap="square"/></g></svg>
