<svg height="512pt" preserveAspectRatio="xMidYMid meet" viewBox="0 0 512 512" width="512pt" xmlns="http://www.w3.org/2000/svg"><g fill="#000" stroke="none" transform="matrix(.1 0 0 -.1 0 512)"><path d="m63 3919c-65-19-63-6-63-506v-452l24-28c24-28 24-28 170-31l146-3v-815c0-912-4-864 69-884 27-7 385-9 1110-8l1071 3 27 28 28 27 3 825 2 825 1211 2 1211 3 24 28 24 28v452c0 504 2 487-68 507-48 13-4943 12-4989-1zm4887-509v-340h-2390-2390v340 340h2390 2390zm-2480-1275v-765h-980-980v765 765h980 980z"/><path d="m2168 3566c-23-17-37-57-31-88 6-33 199-224 235-233 39-10 73 13 176 118 85 87 92 97 92 134 0 52-31 83-83 83-33 0-45-8-102-67l-64-68-68 68c-59 57-74 67-103 67-19 0-43-6-52-14z"/><path d="m390 3487c-55-28-64-94-18-137 21-20 32-20 780-20h759l24 25c34 33 34 83-1 116l-26 24-746 2c-585 2-752 0-772-10z"/><path d="m3294 3490c-55-22-65-90-22-137l21-23h377 377l20 23c39 41 31 107-17 132-24 13-85 15-382 14-194 0-362-4-374-9z"/><path d="m4321 3489c-55-22-69-92-26-134 24-25 25-25 228-25 190 0 205 1 225 20 46 43 37 109-18 137-30 15-372 17-409 2z"/><path d="m730 2717c-54-27-61-99-13-137 24-19 42-20 344-20 212 0 326 4 342 11 25 11 47 47 47 74s-22 63-47 74c-36 17-640 15-673-2z"/><path d="m1670 2717c-54-27-61-99-13-137 22-17 41-20 138-20 105 0 114 2 139 25 43 40 33 105-21 133-30 16-211 15-243-1z"/><path d="m2165 2707c-59-50-22-147 56-147 42 0 79 39 79 83 0 45-26 76-71 83-28 5-41 1-64-19z"/><path d="m714 2366c-37-31-38-84-4-121l23-25h589 589l24 25c34 33 34 84-1 119l-27 26h-583-583z"/><path d="m2165 2367c-64-54-18-156 64-143 44 7 71 38 71 81s-27 74-71 81c-28 5-41 1-64-19z"/><path d="m735 2036c-58-25-68-83-22-133 20-23 24-23 269-23 234 0 249 1 268 20 43 43 34 110-20 137-36 18-453 17-495-1z"/><path d="m1503 2035c-58-25-68-91-21-135 20-19 35-20 225-20 203 0 204 0 228 25 34 33 34 83-1 116-25 23-30 24-212 26-145 2-194 0-219-12z"/><path d="m2179 2035c-55-30-59-103-7-139 53-37 128 0 128 64 0 44-15 66-51 79-39 13-38 13-70-4z"/><path d="m735 1696c-16-7-36-25-44-39-12-23-12-32 0-64 25-64 21-64 657-61l564 3 24 28c33 38 32 86-2 118l-26 24-571 2c-456 2-578 0-602-11z"/><path d="m2179 1695c-55-30-59-103-7-139 53-37 128 0 128 64 0 44-15 66-51 79-39 13-38 13-70-4z"/></g></svg>