<svg height="256" viewBox="0 0 72.248892 72.248892" width="256" xmlns="http://www.w3.org/2000/svg"><path d="m26.409552 36.124449h19.429792" fill="none" stroke="#00ff7f" stroke-width="2.257778"/><g fill="#00ff7f" fill-rule="evenodd"><path d="m36.124448 26.409552v19.429793" stroke="#00ff7f" stroke-width="2.257778"/><path d="m27.623916 31.266996-7.286178 4.857451 7.286178 4.857452z"/><path d="m44.624976 31.266996 7.286177 4.857451-7.286177 4.857452z"/><path d="m40.981898 44.624977-4.857452 7.286178-4.857452-7.286178z"/><path d="m31.266994 27.623917 4.857452-7.286177 4.857452 7.286177z"/></g><g stroke="#000"><path d="m27.623913 31.267v3.238299h6.881385v-6.881385h-3.238299l4.857447-7.286174 4.857452 7.286177h-3.238301v6.881382h6.881385v-3.238299l7.286173 4.857449-7.286179 4.85745v-3.238301h-6.881379v6.881385h3.238299l-4.857448 7.286173-4.857454-7.286179 3.238304.000006v-6.881385h-6.881385v3.238299l-7.286175-4.85745z" fill="none" stroke-width="1.128889"/><path d="m62.03889264 36.12444636a25.91444603 25.91444603 0 1 1 -12.95722151-22.44256754" fill="none" stroke-width="2.257777"/><path d="m51.43427 9.595556 3.881288 7.849763-8.738738.563591z" fill="#00ff7f" fill-rule="evenodd"/></g></svg>
