<svg height="256" viewBox="0 0 72.248892 72.248892" width="256" xmlns="http://www.w3.org/2000/svg"><g style="fill:none;stroke-width:1.693333;stroke-linecap:square;stroke-linejoin:miter;stroke-dasharray:none;stroke:#000"><path d="m19.11955 7.7854343.02279 13.5114577-11.3908491.057792"/><path d="m52.897532 7.8766001-.02279 13.5114579 11.390849.05779"/><path d="m52.988698 64.571079-.02279-13.511458 11.390849-.05779"/><path d="m19.393047 64.297581.02279-13.511458-11.3908487-.05779"/><path d="m28.261396 7.8402581-.091166 13.4013719h15.954013v-13.310206"/><path d="m7.8466476 30.38491 11.1158374.06446.09117 11.304559-11.1425384.0055"/><path d="m64.274498 30.293744-11.115837.06446-.09117 11.304559 11.142538.0055"/><path d="m28.17023 64.264231-.09117-13.401372h15.954017v13.310206"/><path d="m28.364138 30.298058 15.729205.128927-.128928 11.055567-15.600277-.02765z"/></g></svg>
