<svg height="256" viewBox="0 0 72.248892 72.248892" width="256" xmlns="http://www.w3.org/2000/svg"><g fill="none" stroke="#000" stroke-dasharray="none" stroke-linecap="round" stroke-linejoin="round"><path d="m8.5251888 6.935116 2.0812732 2.1929384 51.615527 55.7011626" stroke-width="2.822222"/><path d="m53.021274 46.330813 8.533224-9.210436.104045-2.083311s-6.234766-6.995245-9.781972-9.977939c-1.488991-1.252021-3.067459-2.425462-4.786942-3.289439-2.039727-1.024874-4.236919-1.721348-6.451915-2.192963-1.569933-.334269-3.186003-.387606-4.786937-.438586-1.317979-.042-2.648535-.08285-3.954414.109665-1.241494.182992-3.642221.986827-3.642221.986827" stroke-width="2.822222"/><path d="m33.45733 26.265248s3.639973-.0028 5.307263.657889c1.260812.499587 2.432491 1.35389 3.330025 2.412253.78583.926642 1.328555 2.09838 1.665013 3.289415.44709 1.582585.41626 4.93417.41626 4.93417" stroke-width="2.54"/><path d="m17.951864 25.936302-8.9494828 8.771852v2.741172s6.3677938 7.314198 10.0941678 10.306898c1.249095 1.003162 2.627246 1.840484 4.058481 2.52191 1.729366.823374 3.557025 1.438665 5.41133 1.86401 1.807856.414672 3.666206.592277 5.515363.657899 1.526972.05425 3.064623-.0037 4.578805-.219217 1.092532-.154757 3.225959-.767512 3.225959-.767512" stroke-width="2.822222"/><path d="m26.172892 34.269552s-.154848 2.480797.104045 3.72802c.258856 1.247227.730461 2.555012 1.456879 3.618372.703437 1.029746 1.675 1.865906 2.705666 2.521909.920896.586122 1.975997.923265 3.017825 1.206148.950068.257828 2.913798.438561 2.913798.438561" stroke-width="2.54"/></g></svg>
