<svg height="256" viewBox="0 0 72.248892 72.248892" width="256" xmlns="http://www.w3.org/2000/svg"><g fill="none" stroke="#000" stroke-dasharray="none" stroke-linecap="round" stroke-linejoin="round"><path d="m8.8566581 7.266585 1.8114719 1.916717 51.966347 54.534908" stroke-width="2.82222"/><path d="m47.584603 41.700014 7.42704-8.050293.09056-1.820898s-5.426538-6.114126-8.51391-8.721121c-1.29597-1.094317-2.669817-2.119952-4.166399-2.875102-1.775312-.895782-3.687676-1.504528-5.615537-1.916739-1.366418-.292164-2.772993-.338783-4.166394-.383341-1.147126-.03671-2.305199-.07241-3.441793.09585-1.080556.159943-3.170071.862527-3.170071.862527" stroke-width="2.82222"/><path d="m30.556782 24.1619s3.168115-.0024 4.61927.575022c1.097369.436659 2.117161 1.183354 2.898345 2.108406.683961.809923 1.156331 1.834069 1.449173 2.875082.389133 1.383243.362299 4.312663.362299 4.312663" stroke-width="2.54"/><path d="m17.061329 23.874388-7.7893379 7.666953v2.395895s5.5423199 6.392904 8.7856349 9.008644c1.087171.876804 2.286669 1.608658 3.53237 2.204251 1.505184.719662 3.095919 1.257452 4.709845 1.62922 1.573499.36244 3.190947.517674 4.800393.575031 1.329027.04742 2.667348-.0032 3.985243-.191605.950904-.135264 2.80777-.670836 2.80777-.670836" stroke-width="2.82222"/><path d="m24.216645 31.157985s-.134775 2.168317.09056 3.25844c.2253 1.090126.635769 2.233183 1.26802 3.162603.612249.900039 1.457866 1.630877 2.354924 2.20425.801518.512294 1.719843.806971 2.626616 1.054222.826909.225352 2.536075.38332 2.536075.38332" stroke-width="2.54"/><g stroke-width="2.82222"><path d="m52.225171 47.334989 7.42704-8.050293.09056-1.820898c-8.107295-9.387515-4.711997-6.029312-8.917073-10.301105"/><path d="m16.564312 41.643893s3.777724 4.94301 6.133882 6.936962c1.059441.896576 2.286669 1.608658 3.53237 2.204251 1.505184.719662 3.095919 1.257452 4.709845 1.62922 1.573499.36244 3.190947.517674 4.800393.575031 1.329027.04742 2.667348-.0032 3.985243-.191605.950904-.135264 2.80777-.670836 2.80777-.670836"/><path d="m57.492691 51.644088 7.42704-8.050293.09056-1.820898s-11.191501-11.747471-8.51391-8.721121c2.900308 3.278077 1.350785.550603-3.508752-3.513653"/><path d="m19.14159 44.406949s5.605344 5.975646 8.824124 8.483005c1.094903.852906 2.286669 1.608658 3.53237 2.204251 1.505184.719662 3.095919 1.257452 4.709845 1.62922 1.573499.36244 3.190947.517674 4.800393.575031 1.329027.04742 2.667348-.0032 3.985243-.191605.950904-.135264 2.80777-.670836 2.80777-.670836"/></g></g></svg>
