<svg height="256" viewBox="0 0 72.248892 72.248892" width="256" xmlns="http://www.w3.org/2000/svg"><g transform="matrix(1 0 0 1 -1.768906 -14.964445)"><circle cx="36.124413" cy="36.124439" fill="#00ff7f" r="15.80444" stroke="#000"/><path d="m8.7503404 37.253352a31.608891 31.608891 0 0 1 27.3741026-15.804446 31.608891 31.608891 0 0 1 27.374102 15.804444" fill="none" stroke="#000" stroke-dashoffset="15.2" stroke-width="4.51556"/><circle cx="36.124443" cy="36.124451" fill="#000" r="7.902218"/><g stroke="#000"><path d="m8.7503404-34.99557a31.608891 31.608891 0 0 1 27.3741026-15.804446 31.608891 31.608891 0 0 1 27.374102 15.804444" fill="none" stroke-dashoffset="15.2" stroke-width="4.51556" transform="matrix(1 0 0 -1 0 0)"/><circle cx="41.768906" cy="29.351107" fill="#000" r="3.386662"/><circle cx="36.124413" cy="36.124439" fill="none" r="15.80444" stroke-dashoffset="15.2" stroke-width="2.25778"/></g></g><path d="m63.663896 57.27793-19.157878-19.157873-12.771919-6.385959 6.385959 12.771918 19.95612 19.956124 6.38596-6.385961" fill="none" stroke="#000" stroke-linecap="square" stroke-width="2.25778"/><g fill-rule="evenodd" transform="matrix(1 0 0 1 2.267987 4.998614)"><g stroke="#000"><path d="m35.852071 33.121444-3.991224-3.991224" stroke-width="4.51556"/><g stroke-width="2.25778"><path d="m37.448561 37.910912 19.188872 19.188879"/><path d="m39.045052 36.314422 19.188872 19.188879"/></g></g><path d="m40.641542 34.717931 19.188872 19.188879" stroke="#fff" stroke-width="2.25778"/><path d="m34.551566 34.431113 2.137325 4.233333 4.707291-4.692333-4.261225-2.187975z" fill="#fff"/></g></svg>