<svg height="256" viewBox="0 0 72.248892 72.248892" width="256" xmlns="http://www.w3.org/2000/svg"><ellipse cx="46.968887" cy="48.447674" fill="#00ff7f" rx="10.062195" ry="9.478787"/><path d="m6.9814348 22.288909a31.608891 31.608891 0 0 1 27.3741022-15.8044463 31.608891 31.608891 0 0 1 27.374102 15.8044443" fill="none" stroke="#000" stroke-dashoffset="15.2" stroke-width="4.51556"/><circle cx="34.355537" cy="21.160006" r="7.902218"/><path d="m6.9814348-20.031125a31.608891 31.608891 0 0 1 27.3741022-15.804446 31.608891 31.608891 0 0 1 27.374102 15.804444" fill="none" stroke="#000" stroke-dashoffset="15.2" stroke-width="4.51556" transform="matrix(1 0 0 -1 0 0)"/><circle cx="40" cy="14.386662" fill="#fff" r="3.386662"/><g fill="none" stroke="#000"><circle cx="34.355507" cy="21.159994" r="15.80444" stroke-dashoffset="15.2" stroke-width="2.25778"/><circle cx="46.968888" cy="48" r="9.031112" stroke-width="2.25778"/><path d="m53.742223 54.773333 14.368411 14.36841" stroke-width="4.51556"/></g></svg>
