<?xml version="1.0" encoding="UTF-8" standalone="no"?>
<svg
   width="256"
   height="256"
   viewBox="0 0 72.248892 72.248892"
   id="svg4295"
   version="1.1"
   inkscape:version="1.2.2 (b0a8486541, 2022-12-01)"
   sodipodi:docname="open_script.svg"
   inkscape:export-filename="D:\LC_Recources\icons\open24.png"
   inkscape:export-xdpi="8.4375"
   inkscape:export-ydpi="8.4375"
   xmlns:inkscape="http://www.inkscape.org/namespaces/inkscape"
   xmlns:sodipodi="http://sodipodi.sourceforge.net/DTD/sodipodi-0.dtd"
   xmlns="http://www.w3.org/2000/svg"
   xmlns:svg="http://www.w3.org/2000/svg"
   xmlns:rdf="http://www.w3.org/1999/02/22-rdf-syntax-ns#"
   xmlns:cc="http://creativecommons.org/ns#"
   xmlns:dc="http://purl.org/dc/elements/1.1/">
  <metadata
     id="metadata4325">
    <rdf:RDF>
      <cc:Work
         rdf:about="">
        <dc:format>image/svg+xml</dc:format>
        <dc:type
           rdf:resource="http://purl.org/dc/dcmitype/StillImage" />
      </cc:Work>
    </rdf:RDF>
  </metadata>
  <defs
     id="defs4323" />
  <sodipodi:namedview
     pagecolor="#ffffff"
     bordercolor="#666666"
     borderopacity="1"
     objecttolerance="10"
     gridtolerance="10"
     guidetolerance="10"
     inkscape:pageopacity="0"
     inkscape:pageshadow="2"
     inkscape:window-width="1920"
     inkscape:window-height="1008"
     id="namedview4321"
     showgrid="true"
     units="px"
     inkscape:snap-grids="true"
     inkscape:zoom="2"
     inkscape:cx="129.25"
     inkscape:cy="129.25"
     inkscape:window-x="0"
     inkscape:window-y="0"
     inkscape:window-maximized="1"
     inkscape:current-layer="svg4295"
     inkscape:object-nodes="true"
     inkscape:snap-object-midpoints="false"
     inkscape:showpageshadow="2"
     inkscape:pagecheckerboard="0"
     inkscape:deskcolor="#d1d1d1">
    <inkscape:grid
       type="xygrid"
       id="grid4867"
       spacingx="2.2577779"
       spacingy="2.2577779" />
  </sodipodi:namedview>
  <g
     id="g4202"
     transform="translate(-4.0639985,-11.40178)">
    <path
       sodipodi:nodetypes="ccccccccccc"
       inkscape:connector-curvature="0"
       id="path4194"
       d="M 10.160001,57.573337 V 19.191112 l 2.257778,-2.257778 h 15.804445 l 4.515556,4.515556 h 18.062223 v 11.28889 h -9.031111 l -3.386667,4.515556 H 24.835557 Z"
       style="fill:#00ff7f;fill-rule:evenodd;stroke:#000000;stroke-width:2.25778;stroke-linecap:round;stroke-linejoin:miter;stroke-miterlimit:3;stroke-dasharray:none;stroke-opacity:1" />
    <path
       sodipodi:nodetypes="cccc"
       inkscape:connector-curvature="0"
       id="path4196"
       d="M 50.800003,32.73778 H 64.346671 L 46.284447,57.573337 H 10.160001"
       style="fill:none;fill-rule:evenodd;stroke:#000000;stroke-width:2.25778;stroke-linecap:square;stroke-linejoin:miter;stroke-miterlimit:4;stroke-dasharray:none;stroke-opacity:1" />
  </g>
  <g
     id="g361"
     transform="translate(1.6933334,5.0800004)">
    <g
       id="g4326"
       transform="matrix(0.55617726,0,0,0.54607387,28.61671,26.186003)">
      <path
         inkscape:connector-curvature="0"
         style="fill:none;stroke:#000000;stroke-width:2.25778;stroke-linecap:square;stroke-miterlimit:4;stroke-dasharray:none"
         d="M 32.173336,6.2088909 H 40.07556"
         id="path4160" />
      <path
         inkscape:connector-curvature="0"
         style="fill:none;stroke:#000000;stroke-width:2.25778;stroke-linecap:square;stroke-miterlimit:4;stroke-dasharray:none"
         d="m 52.327071,10.668076 6.053454,5.079451"
         id="path4162" />
      <path
         inkscape:connector-curvature="0"
         style="fill:none;stroke:#000000;stroke-width:2.25778;stroke-linecap:square;stroke-miterlimit:4;stroke-dasharray:none"
         d="M 40.07556,6.2088909 Q 39.94728,25.621303 52.327071,10.668076"
         id="path4164" />
      <path
         inkscape:connector-curvature="0"
         style="fill:none;stroke:#000000;stroke-width:2.25778;stroke-linecap:square;stroke-miterlimit:4;stroke-dasharray:none"
         d="m 64.899418,27.038581 1.372207,7.782171"
         id="path4166" />
      <path
         inkscape:connector-curvature="0"
         style="fill:none;stroke:#000000;stroke-width:2.25778;stroke-linecap:square;stroke-miterlimit:4;stroke-dasharray:none"
         d="M 58.380525,15.747527 Q 45.804199,30.535842 64.899418,27.038581"
         id="path4168" />
      <path
         inkscape:connector-curvature="0"
         style="fill:none;stroke:#000000;stroke-width:2.25778;stroke-linecap:square;stroke-miterlimit:4;stroke-dasharray:none"
         d="m 64.007637,47.660465 -3.951111,6.843526"
         id="path4170" />
      <path
         inkscape:connector-curvature="0"
         style="fill:none;stroke:#000000;stroke-width:2.25778;stroke-linecap:square;stroke-miterlimit:4;stroke-dasharray:none"
         d="m 66.271625,34.820752 q -19.13977,3.2446 -2.263988,12.839713"
         id="path4172" />
      <path
         inkscape:connector-curvature="0"
         style="fill:none;stroke:#000000;stroke-width:2.25778;stroke-linecap:square;stroke-miterlimit:4;stroke-dasharray:none"
         d="m 50.069002,62.884518 -7.425661,2.70272"
         id="path4174" />
      <path
         inkscape:connector-curvature="0"
         style="fill:none;stroke:#000000;stroke-width:2.25778;stroke-linecap:square;stroke-miterlimit:4;stroke-dasharray:none"
         d="M 60.056526,54.503991 Q 43.309023,44.686692 50.069002,62.884518"
         id="path4176" />
      <path
         inkscape:connector-curvature="0"
         style="fill:none;stroke:#000000;stroke-width:2.25778;stroke-linecap:square;stroke-miterlimit:4;stroke-dasharray:none"
         d="m 29.605555,65.587238 -7.425661,-2.70272"
         id="path4178" />
      <path
         inkscape:connector-curvature="0"
         style="fill:none;stroke:#000000;stroke-width:2.25778;stroke-linecap:square;stroke-miterlimit:4;stroke-dasharray:none"
         d="m 42.643341,65.587238 q -6.518893,-18.285575 -13.037786,0"
         id="path4180" />
      <path
         inkscape:connector-curvature="0"
         style="fill:none;stroke:#000000;stroke-width:2.25778;stroke-linecap:square;stroke-miterlimit:4;stroke-dasharray:none"
         d="M 12.19237,54.503991 8.2412587,47.660465"
         id="path4182" />
      <path
         inkscape:connector-curvature="0"
         style="fill:none;stroke:#000000;stroke-width:2.25778;stroke-linecap:square;stroke-miterlimit:4;stroke-dasharray:none"
         d="M 22.179894,62.884518 Q 28.939873,44.686692 12.19237,54.503991"
         id="path4184" />
      <path
         inkscape:connector-curvature="0"
         style="fill:none;stroke:#000000;stroke-width:2.25778;stroke-linecap:square;stroke-miterlimit:4;stroke-dasharray:none"
         d="M 5.9772707,34.820752 7.3494773,27.038581"
         id="path4186" />
      <path
         inkscape:connector-curvature="0"
         style="fill:none;stroke:#000000;stroke-width:2.25778;stroke-linecap:square;stroke-miterlimit:4;stroke-dasharray:none"
         d="M 8.2412587,47.660465 Q 25.11704,38.065352 5.9772707,34.820752"
         id="path4188" />
      <path
         inkscape:connector-curvature="0"
         style="fill:none;stroke:#000000;stroke-width:2.25778;stroke-linecap:square;stroke-miterlimit:4;stroke-dasharray:none"
         d="m 13.86837,15.747527 6.053454,-5.079451"
         id="path4190" />
      <path
         inkscape:connector-curvature="0"
         style="fill:none;stroke:#000000;stroke-width:2.25778;stroke-linecap:square;stroke-miterlimit:4;stroke-dasharray:none"
         d="M 7.3494773,27.038581 Q 26.444696,30.535842 13.86837,15.747527"
         id="path4192" />
      <path
         inkscape:connector-curvature="0"
         style="fill:none;stroke:#000000;stroke-width:2.25778;stroke-linecap:square;stroke-miterlimit:4;stroke-dasharray:none"
         d="M 19.921824,10.668076 Q 32.301615,25.621303 32.173336,6.2088909"
         id="path4194-62" />
    </g>
    <g
       id="path4194-6"
       transform="matrix(0.55617726,0,0,0.54607387,28.61671,26.186003)"
       style="fill:#7cfc00;fill-opacity:1">
      <path
         style="opacity:1;fill:#ffffff;fill-opacity:1;fill-rule:evenodd;stroke:#000000;stroke-width:2.25778;stroke-linecap:butt;stroke-linejoin:miter;stroke-miterlimit:4;stroke-dasharray:none;stroke-opacity:1"
         d="M 47.9726,36.132033 27.652599,24.843143 27.531297,47.360274 Z"
         id="path4194-7"
         sodipodi:nodetypes="cccc" />
      <path
         style="opacity:1;fill:#7cfc00;fill-opacity:1;stroke-width:0.268625"
         d="m 93.0787,223.70243 c -4.875551,-1.78311 -8.915763,-3.28499 -8.978248,-3.3375 -0.06249,-0.0525 0.447065,-1.8779 1.132334,-4.05643 6.378483,-20.27768 5.716488,-32.15345 -2.07299,-37.18803 -2.541575,-1.6427 -4.792951,-2.22183 -8.616248,-2.21639 -6.622624,0.009 -13.871472,2.31926 -24.729436,7.88 l -5.119782,2.62202 -3.879169,-6.71939 c -2.133543,-3.69566 -4.335749,-7.53188 -4.89379,-8.52493 l -1.014622,-1.80554 1.686185,-1.01456 c 6.387917,-3.84355 12.535315,-8.41738 16.547133,-12.31153 5.707693,-5.54027 8.106524,-10.0081 8.106524,-15.0984 0,-9.14442 -8.726595,-15.57935 -27.263946,-20.10423 -2.660234,-0.64935 -5.531858,-1.31775 -6.381385,-1.48535 -0.849528,-0.16759 -1.541317,-0.44724 -1.537309,-0.62144 0.004,-0.17421 0.759517,-4.54838 1.678909,-9.72039 l 1.671621,-9.40365 2.01469,0.30773 c 8.940878,1.36567 19.328231,1.71781 24.444912,0.82872 8.413446,-1.46195 13.342021,-5.218372 14.672265,-11.182804 0.595344,-2.669352 0.381564,-6.319904 -0.559829,-9.559779 -1.541727,-5.305961 -6.560039,-13.949913 -12.457374,-21.457603 -2.050965,-2.611015 -2.44142,-3.251009 -2.147993,-3.520782 0.428866,-0.394286 13.580252,-11.390984 14.270604,-11.93254 0.434926,-0.341185 0.612637,-0.226008 1.865727,1.209198 2.716071,3.110811 8.978994,9.318155 11.581152,11.478381 11.295612,9.377245 20.108705,10.731853 26.634835,4.093881 4.86002,-4.943296 7.41225,-14.033645 8.18799,-29.163295 0.14772,-2.881008 0.26973,-5.328856 0.27115,-5.439664 0.001,-0.110808 4.41474,-0.201469 9.80739,-0.201469 5.39266,0 9.8065,0.09066 9.80855,0.201469 0.002,0.110808 0.12434,2.593524 0.27178,5.517146 0.75629,14.997158 3.34519,24.202308 8.18231,29.093205 6.65631,6.730302 15.86288,5.175681 27.2099,-4.594657 2.88523,-2.48432 8.80111,-8.391194 11.13992,-11.122968 1.1315,-1.321609 1.29093,-1.42055 1.73138,-1.074501 0.95691,0.75181 13.65828,11.352787 14.14163,11.803059 0.47494,0.44244 0.39778,0.582402 -2.01368,3.652342 -5.85871,7.458523 -10.85193,16.041212 -12.48427,21.458798 -0.63176,2.096767 -0.73029,2.898925 -0.74245,6.044072 -0.0123,3.186958 0.0616,3.816046 0.61023,5.190979 3.01074,7.5458 12.23976,10.902442 27.20228,9.893622 4.09753,-0.27627 12.33417,-1.19659 13.25932,-1.48152 0.21233,-0.0654 3.58812,17.73442 3.61915,19.08302 0.004,0.1742 -0.68778,0.45385 -1.53731,0.62144 -0.84952,0.1676 -3.72115,0.836 -6.38138,1.48535 -18.5137,4.51911 -27.26395,10.97148 -27.26395,20.10423 0,5.10802 2.44098,9.63617 8.16818,15.15245 4.09389,3.94313 10.14608,8.44313 16.48548,12.25748 l 1.68618,1.01456 -1.01462,1.80554 c -0.55804,0.99305 -2.76025,4.82927 -4.89379,8.52493 l -3.87917,6.71939 -5.11978,-2.62202 c -10.85796,-5.56074 -18.10681,-7.87057 -24.72943,-7.88 -3.8233,-0.005 -6.07468,0.57369 -8.61625,2.21639 -7.82827,5.05965 -8.47589,16.71284 -2.06675,37.18845 0.68184,2.1783 1.18858,4.00353 1.12609,4.05608 -0.24378,0.205 -18.27737,6.68001 -18.34687,6.58749 -0.0406,-0.0541 -0.72737,-1.73024 -1.52608,-3.72479 -1.91162,-4.77368 -5.72769,-12.42022 -7.70844,-15.44596 -2.3309,-3.56061 -4.74152,-6.43076 -6.75048,-8.03729 -3.54835,-2.83756 -5.90825,-3.7666 -9.56768,-3.7666 -6.00951,0 -10.9128,3.54684 -16.31816,11.80389 -2.00837,3.06793 -5.82438,10.72318 -7.7312,15.50948 -0.80853,2.02947 -1.59093,3.68169 -1.73868,3.67159 -0.14774,-0.0101 -4.257709,-1.47726 -9.13326,-3.26038 z m 42.93304,-72.24074 c 22.92618,-12.58268 41.84533,-23.02361 42.04256,-23.20205 0.28747,-0.2601 -7.99633,-4.96591 -41.76298,-23.72446 C 113.12446,91.665183 94.088707,81.223523 93.989649,81.331494 c -0.09906,0.107974 -0.266629,21.156846 -0.372382,46.775276 -0.179828,43.5624 -0.163047,46.56774 0.259116,46.40574 0.248266,-0.0953 19.209177,-10.46814 42.135357,-23.05082 z"
         id="path2074"
         transform="scale(0.28222223)" />
    </g>
  </g>
</svg>
