<?xml version="1.0" encoding="UTF-8" standalone="no"?>
<svg
   version="1.0"
   width="512.000000pt"
   height="512.000000pt"
   viewBox="0 0 512.000000 512.000000"
   preserveAspectRatio="xMidYMid meet"
   id="svg8"
   sodipodi:docname="page_landscape.svg"
   inkscape:version="1.2.2 (732a01da63, 2022-12-09)"
   xmlns:inkscape="http://www.inkscape.org/namespaces/inkscape"
   xmlns:sodipodi="http://sodipodi.sourceforge.net/DTD/sodipodi-0.dtd"
   xmlns="http://www.w3.org/2000/svg"
   xmlns:svg="http://www.w3.org/2000/svg">
  <defs
     id="defs12" />
  <sodipodi:namedview
     id="namedview10"
     pagecolor="#ffffff"
     bordercolor="#000000"
     borderopacity="0.25"
     inkscape:showpageshadow="2"
     inkscape:pageopacity="0.0"
     inkscape:pagecheckerboard="0"
     inkscape:deskcolor="#d1d1d1"
     inkscape:document-units="pt"
     showgrid="false"
     inkscape:zoom="0.055892944"
     inkscape:cx="2021.7221"
     inkscape:cy="1127.1548"
     inkscape:window-width="2560"
     inkscape:window-height="1377"
     inkscape:window-x="-8"
     inkscape:window-y="-8"
     inkscape:window-maximized="1"
     inkscape:current-layer="svg8" />
  <g
     transform="matrix(-0.1,0,0,-0.1,512.37087,512)"
     fill="#000000"
     stroke="none"
     id="g6">
    <path
       d="M 146,4465 C 89,4445 59,4420 30,4369 L 5,4325 V 2560 795 l 25,-45 c 28,-49 74,-85 130,-100 25,-7 846,-9 2422,-8 l 2385,3 49,30 c 31,20 58,47 74,75 l 25,45 3,1210 c 2,902 13.3429,1192.8316 4.3429,1226.8316 -11,41 -75.3429,123.1684 -601.3429,649.1684 -496,496 -582,577 -617,587 -31,9 -517,12 -1880,12 -1553,-1 -1845,-3 -1878,-15 z m 3626.3248,-870 c -1.2899,-474.1302 2.1502,-470.6134 0.5409,-569.4496 93.6429,-2.1974 -7.3194,0.8992 462.1343,-10.3907 l 631.02,-10.5705 9.7638,-983.063 1.4389,-1094.90458 -2306.7395,-16.77314 -2348.85748,2.09665 5.38657,1654.82797 c -1,817 -2.09665,2000.4841 -22.15971,1657.3448 216.94475,5.8504 544.95414,-2.6765 1817.95412,-4.6765 l 1744.8778,9.5799 z m 617.765,147.2738 486.8187,-542.3925 -656.2857,7.7107 -304.6227,-1.4388 -4.9128,411.5246 c -1.1221,93.9933 -13.1316,249.1981 -9.8161,491.6953 3.5907,262.6173 354.3072,-247.896 488.8186,-367.0993 z"
       id="path2"
       sodipodi:nodetypes="ccccccccccccccsccccccccccccccccccccssc" />
    <path
       d="m 2475,3606 c -40,-18 -79,-56 -100,-97 -10,-19 -162,-416 -338,-884 -307,-815 -320,-853 -321,-922 -1,-64 2,-76 29,-114 45,-64 104,-91 186,-87 124,7 163,54 255,310 l 39,108 h 335 335 l 39,-108 c 92,-256 131,-303 255,-310 82,-4 141,23 186,87 27,38 30,50 29,114 -1,69 -13,106 -322,925 -177,469 -331,870 -343,892 -36,63 -89,94 -168,97 -41,2 -77,-2 -96,-11 z m 173,-1029 c 45,-122 82,-225 82,-229 0,-5 -76,-8 -170,-8 -93,0 -170,3 -170,8 0,13 165,452 170,452 3,0 42,-100 88,-223 z"
       id="path4" />
  </g>
  <path
     style="fill:#00ff7f;fill-opacity:1;stroke:#000000;stroke-width:5.59105;stroke-opacity:0"
     d="m 323.02266,369.9936 c -2.25852,-0.14172 -3.21485,-0.43061 -3.21485,-0.97112 0,-1.01995 12.74725,-35.84664 17.88993,-48.87699 l 4.0593,-10.28531 0.82315,1.89874 c 2.88455,6.65371 20.31402,53.26882 21.11226,56.46473 l 0.36243,1.45105 -5.15674,0.36604 c -5.1558,0.36596 -29.80843,0.33357 -35.87548,-0.0471 z"
     id="path879"
     transform="scale(0.75)" />
  <path
     style="fill:#00ff7f;fill-opacity:1;stroke:#000000;stroke-width:5.59105;stroke-opacity:0"
     d="m 34.105378,255.57676 c 0,-0.47714 61.999429,-69.48382 67.371582,-74.98599 2.10168,-2.15255 8.72022,-9.57466 14.70785,-16.49358 24.61214,-28.44019 33.27019,-36.81848 39.88991,-38.60098 2.63523,-0.7096 3.98512,-0.10137 5.36093,2.41553 0.86099,1.57508 1.00658,3.79565 1.1628,17.735 0.0982,8.76396 -0.0965,22.7276 -0.43278,31.0303 -0.33624,8.3027 -0.77103,29.20751 -0.9662,46.45511 l -0.35484,31.35929 -47.29537,0.37413 c -26.012454,0.20577 -54.528785,0.53816 -63.369626,0.73862 -8.840841,0.20048 -16.074256,0.18813 -16.074256,-0.0274 z"
     id="path1048"
     transform="scale(0.75)" />
</svg>
