<svg height="512pt" preserveAspectRatio="xMidYMid meet" viewBox="0 0 512 512" width="512pt" xmlns="http://www.w3.org/2000/svg"><g fill="#000" transform="matrix(0 -.09374643 -.09134783 0 490.46764 493.89624)"><path d="m146 4465c-57-20-87-45-116-96l-25-44v-1765-1765l25-45c28-49 74-85 130-100 25-7 846-9 2422-8l2385 3 49 30c31 20 58 47 74 75l25 45 3 1210c2 902 13.3429 1192.8316 4.3429 1226.8316-11 41-75.3429 123.1684-601.3429 649.1684-496 496-582 577-617 587-31 9-517 12-1880 12-1553-1-1845-3-1878-15zm3626.3248-870c-1.2899-474.1302 2.1502-470.6134.5409-569.4496 93.6429-2.1974-7.3194.8992 462.1343-10.3907l631.02-10.5705 9.7638-983.063 1.4389-1094.90458-2306.7395-16.77314-2348.85748 2.09665 5.38657 1654.82797c-1 817-2.09665 2000.4841-22.15971 1657.3448 216.94475 5.8504 544.95414-2.6765 1817.95412-4.6765l1744.8778 9.5799zm617.765 147.2738 486.8187-542.3925-656.2857 7.7107-304.6227-1.4388-4.9128 411.5246c-1.1221 93.9933-13.1316 249.1981-9.8161 491.6953 3.5907 262.6173 354.3072-247.896 488.8186-367.0993z"/><path d="m3606.4404 2644.5596c-18 40-56 79-97 100-19 10-416 162-884 338-815 307-853 320-922 321-64 1-76-2-114-29-64-45-91-104-87-186 7-124 54-163 310-255l108-39v-335-335l-108-39c-256-92-303-131-310-255-4-82 23-141 87-186 38-27 50-30 114-29 69 1 106 13 925 322 469 177 870 331 892 343 63 36 94 89 97 168 2 41-2 77-11 96zm-1029-173c-122-45-225-82-229-82-5 0-8 76-8 170 0 93 3 170 8 170 13 0 452-165 452-170 0-3-100-42-223-88z"/></g><path d="m112.89407 126.05942c-1.50528-.95474-2.13538-3.34451-1.40022-5.31061.73515-1.96608 20.026-20.751368 42.86854-41.745071l41.5319-38.170375.59067 41.687311c.32487 22.928025.32487 41.905425 0 42.172005-1.83993 1.50983-81.3165 2.8093-83.59089 1.36674z" fill="#00ff7f"/></svg>
