<svg height="256" viewBox="0 0 72.248892 72.248892" width="256" xmlns="http://www.w3.org/2000/svg"><g fill-rule="evenodd"><g transform="matrix(.44316842 -.02316665 .03594055 .37039933 22.898202 -1.248658)"><path d="m7.9022231 64.346671v-47.413336l4.5155559-4.515556 22.577779-.000001 6.773333 6.773334v45.155559z" fill="#fff" stroke="#000" stroke-linecap="square" stroke-width="2.25778"/><path d="m10.160001 62.088893v-42.897781l3.386666-3.386666h15.804446l4.515556 4.515555v41.768892z" fill="#00ff7f"/></g><g transform="matrix(.44316842 -.02316665 .03594055 .37039933 45.638075 -2.776098)"><path d="m7.9022231 64.346671v-47.413336l4.5155559-4.515556 22.577779-.000001 6.773333 6.773334v45.155559z" fill="#fff" stroke="#000" stroke-linecap="square" stroke-width="2.25778"/><path d="m10.160001 62.088893v-42.897781l3.386666-3.386666h15.804446l4.515556 4.515555v41.768892z" fill="#00ff7f"/></g><g transform="matrix(.44316842 -.02316665 .03594055 .37039933 25.779691 22.911429)"><path d="m7.9022231 64.346671v-47.413336l4.5155559-4.515556 22.577779-.000001 6.773333 6.773334v45.155559z" fill="#fff" stroke="#000" stroke-linecap="square" stroke-width="2.25778"/><path d="m10.160001 62.088893v-42.897781l3.386666-3.386666h15.804446l4.515556 4.515555v41.768892z" fill="#00ff7f"/></g><g transform="matrix(.44320502 -.02269456 .03534927 .3704373 48.140043 21.292697)"><path d="m7.9022231 64.346671v-47.413336l4.5155559-4.515556 22.577779-.000001 6.773333 6.773334v45.155559z" fill="#fff" stroke="#000" stroke-linecap="square" stroke-width="2.25778"/><path d="m13.614135 62.300507v-42.897781l3.386666-3.386666h15.804446l4.515556 4.515555v41.768892z" fill="#00ff7f"/></g><g transform="matrix(.44316842 -.02316665 .03594055 .37039933 28.975652 46.632491)"><path d="m7.9022231 64.346671v-47.413336l4.5155559-4.515556 22.577779-.000001 6.773333 6.773334v45.155559z" fill="#fff" stroke="#000" stroke-linecap="square" stroke-width="2.25778"/><path d="m10.160001 62.088893v-42.897781l3.386666-3.386666h15.804446l4.515556 4.515555v41.768892z" fill="#00ff7f"/></g><g transform="matrix(.44320502 -.02269456 .03534927 .3704373 51.335997 45.013758)"><path d="m7.9022231 64.346671v-47.413336l4.5155559-4.515556 22.577779-.000001 6.773333 6.773334v45.155559z" fill="#fff" stroke="#000" stroke-linecap="square" stroke-width="2.25778"/><path d="m13.614135 62.300507v-42.897781l3.386666-3.386666h15.804446l4.515556 4.515555v41.768892z" fill="#00ff7f"/></g><path d="m.6621701 61.427907v-47.413336l4.5155559-4.515556 22.577779-.000001 6.773333 6.773334v45.155559z" fill="#fff" stroke="#000" stroke-linecap="square" stroke-width="2.25778"/><path d="m2.919948 59.170129v-42.897781l3.386666-3.386666h15.804446l4.515556 4.515555v41.768892z" fill="#00ff7f"/></g><g fill="none" stroke="#000" stroke-width="9.03111"><path d="m19.853282 35.463461h27.093335"/><path d="m33.399949 21.916794.000001 27.093335"/></g><g fill-rule="evenodd"><g transform="matrix(.51117827 -.00049854 .01955759 .36670332 -95.519009 76.989772)"><path d="m7.9022231 64.346671v-47.413336l4.5155559-4.515556 22.577779-.000001 6.773333 6.773334v45.155559z" fill="#fff" stroke="#000" stroke-linecap="square" stroke-width="2.25778"/><path d="m10.160001 62.088893v-42.897781l3.386666-3.386666h15.804446l4.515556 4.515555v41.768892z" fill="#00ff7f"/></g><g transform="matrix(.51117827 -.00049854 .01955759 .36670332 -69.269489 76.630514)"><path d="m7.9022231 64.346671v-47.413336l4.5155559-4.515556 22.577779-.000001 6.773333 6.773334v45.155559z" fill="#fff" stroke="#000" stroke-linecap="square" stroke-width="2.25778"/><path d="m10.160001 62.088893v-42.897781l3.386666-3.386666h15.804446l4.515556 4.515555v41.768892z" fill="#00ff7f"/></g><g transform="matrix(.51117827 -.00049854 .01955759 .36670332 -93.625346 100.935839)"><path d="m7.9022231 64.346671v-47.413336l4.5155559-4.515556 22.577779-.000001 6.773333 6.773334v45.155559z" fill="#fff" stroke="#000" stroke-linecap="square" stroke-width="2.25778"/><path d="m10.160001 62.088893v-42.897781l3.386666-3.386666h15.804446l4.515556 4.515555v41.768892z" fill="#00ff7f"/></g><g transform="matrix(.5111926 -.00003162 .01887516 .36671094 -67.807052 100.467529)"><path d="m7.9022231 64.346671v-47.413336l4.5155559-4.515556 22.577779-.000001 6.773333 6.773334v45.155559z" fill="#fff" stroke="#000" stroke-linecap="square" stroke-width="2.25778"/><path d="m13.614135 62.300507v-42.897781l3.386666-3.386666h15.804446l4.515556 4.515555v41.768892z" fill="#00ff7f"/></g><g transform="matrix(.51117827 -.00049854 .01955759 .36670332 -91.344095 124.465248)"><path d="m7.9022231 64.346671v-47.413336l4.5155559-4.515556 22.577779-.000001 6.773333 6.773334v45.155559z" fill="#fff" stroke="#000" stroke-linecap="square" stroke-width="2.25778"/><path d="m10.160001 62.088893v-42.897781l3.386666-3.386666h15.804446l4.515556 4.515555v41.768892z" fill="#00ff7f"/></g><g transform="matrix(.5111926 -.00003162 .01887516 .36671094 -65.525808 123.996937)"><path d="m7.9022231 64.346671v-47.413336l4.5155559-4.515556 22.577779-.000001 6.773333 6.773334v45.155559z" fill="#fff" stroke="#000" stroke-linecap="square" stroke-width="2.25778"/><path d="m13.614135 62.300507v-42.897781l3.386666-3.386666h15.804446l4.515556 4.515555v41.768892z" fill="#00ff7f"/></g><g transform="matrix(.51117827 -.00049854 .01955759 .36670332 66.338596 90.857681)"><path d="m7.9022231 64.346671v-47.413336l4.5155559-4.515556 22.577779-.000001 6.773333 6.773334v45.155559z" fill="#fff" stroke="#000" stroke-linecap="square" stroke-width="2.25778"/><path d="m10.160001 62.088893v-42.897781l3.386666-3.386666h15.804446l4.515556 4.515555v41.768892z" fill="#00ff7f"/></g><g transform="matrix(.5111926 -.00003162 .01887516 .36671094 92.156886 90.389371)"><path d="m7.9022231 64.346671v-47.413336l4.5155559-4.515556 22.577779-.000001 6.773333 6.773334v45.155559z" fill="#fff" stroke="#000" stroke-linecap="square" stroke-width="2.25778"/><path d="m13.614135 62.300507v-42.897781l3.386666-3.386666h15.804446l4.515556 4.515555v41.768892z" fill="#00ff7f"/></g></g></svg>
