<svg height="256" viewBox="0 0 72.248892 72.248892" width="256" xmlns="http://www.w3.org/2000/svg"><g stroke="#000" stroke-dasharray="none"><ellipse cx="-18.262653" cy="50.192703" fill="#00ff7f" rx="7.276144" ry="7.265125" stroke-dashoffset="8" stroke-linecap="square" stroke-width="2.54" transform="rotate(-90)"/><path d="m28.232737 64.747116c-6.28887-2.662132-12.577741-5.32432-18.8666096-7.986454.543765-1.343689 1.2285436-2.660378 1.6845546-4.020804-.0758-3.504047-.151542-7.008144-.227382-10.512189 1.738389-3.75941 3.476774-7.518819 5.215164-11.278228 1.087738-.85785 2.175477-1.715695 3.263219-2.573546 1.317139.194578 2.634269.389155 3.951409.58353-1.036268 2.152012-2.072531 4.304026-3.1088 6.456035.727239.04007 1.652008.449488 2.258654.262452.957484-1.952808 1.784305-4.009539 2.822283-5.898398.695726-.518217 1.391448-1.036433 2.08717-1.554656 1.302501.5329 2.605012 1.065852 3.907513 1.598752-1.084299 2.444331-2.168589 4.888657-3.252888 7.332988.673217.0699 1.686943.891285 2.129054.450479 1.028355-2.309382 1.955087-4.68473 3.046542-6.953187.561913-.582676 1.123825-1.165351 1.685737-1.748025 1.252661.529881 2.505327 1.059718 3.757985 1.5896-1.223994 2.937209-2.447988 5.874464-3.671983 8.811673 1.462571.6954 2.153048.974393 2.508347-.614804 2.281727-5.29752 4.563443-10.595044 6.845169-15.892569.71374-.462544 1.427477-.924919 2.141215-1.387379 1.053289.473123 2.106572.946593 3.159863 1.419913.176995.899678.585827 1.818013.623719 2.706478-3.152971 7.076872-6.305944 14.153796-9.458916 21.230667 2.075365-.630792 4.150723-1.261531 6.226091-1.892322 1.324718.555072 2.649444 1.110144 3.974162 1.665216-.46355.797464-.641894 1.839932-1.288474 2.480074-6.498496 4.042881-12.996985 8.08576-19.49548 12.128636-.639117 1.198685-1.27823 2.397323-1.917347 3.596007z" fill="#fff" fill-opacity="1" stroke-linecap="round" stroke-linejoin="bevel" stroke-width="2.257778"/></g></svg>
