<svg height="256" viewBox="0 0 72.248892 72.248892" width="256" xmlns="http://www.w3.org/2000/svg"><ellipse cx="-22.935057" cy="-13.466128" rx="7.276144" ry="8.572766" style="fill:#00ff7f;stroke-dashoffset:8;stroke-linecap:square;stroke-width:2.54;stroke:#000;stroke-dasharray:none" transform="matrix(0 -1 -1 0 0 0)"/><path d="m39.378643 69.419519c7.420796-2.662132 14.841593-5.32432 22.262388-7.986454-.641637-1.343689-1.449668-2.660378-1.987756-4.020804.08944-3.504047.178818-7.008144.268308-10.512189-2.051279-3.75941-4.102554-7.518819-6.153835-11.278228-1.283519-.85785-2.567038-1.715695-3.850562-2.573546-1.554209.194578-3.108408.389155-4.662618.58353 1.222785 2.152012 2.445563 4.304026 3.668349 6.456035-.858134.04007-1.949351.449488-2.665186.262452-1.129821-1.952808-2.10546-4.009539-3.330263-5.898398-.820949-.518217-1.641893-1.036433-2.462837-1.554656-1.536937.5329-3.073885 1.065852-4.610821 1.598752 1.27946 2.444331 2.55891 4.888657 3.838371 7.332988-.794389.0699-1.990574.891285-2.51226.450479-1.213447-2.309382-2.306981-4.68473-3.594885-6.953187-.663051-.582676-1.326101-1.165351-1.989151-1.748025-1.478126.529881-2.956258 1.059718-4.43438 1.5896 1.444299 2.937209 2.888598 5.874464 4.332898 8.811673-1.725817.6954-2.540572.974393-2.959821-.614804-2.692412-5.29752-5.384812-10.595044-8.077223-15.892569-.842205-.462544-1.684407-.924919-2.526609-1.387379-1.24287.473123-2.485732.946593-3.728603 1.419913-.208852.899678-.69127 1.818013-.735982 2.706478 3.720471 7.076872 7.440943 14.153796 11.161415 21.230667-2.448907-.630792-4.897807-1.261531-7.346718-1.892322-1.563152.555072-3.126314 1.110144-4.689466 1.665216.546984.797464.757428 1.839932 1.520385 2.480074 7.668152 4.042881 15.336296 8.08576 23.004448 12.128636.754151 1.198685 1.508297 2.397323 2.262448 3.596007z" style="fill:#fff;fill-opacity:1;stroke-linecap:round;stroke-linejoin:bevel;stroke-width:2.25777;stroke:#000;stroke-dasharray:none"/><g fill="#000"><path d="m42.61543 18.481215c-.06758-.210206-2.296114-2.868026-2.985029-3.560745-.921204-.926782-1.853935-1.706214-2.674884-2.229515-.204124-.131177-.640822-.344632-.966822-.473266-.472139-.186301-.670784-.239366-.983152-.264522-.513895-.04139-.827285-.146059-1.080687-.369462-.167314-.138803-.224337-.224596-.280259-.398559-.188735-.587126.058-1.056219.927919-1.769917 1.580453-1.2972464 6.605526-4.2605868 10.767183-6.3526042 2.358112-1.1834298 3.45065-1.6320683 4.378105-1.7850912.484361-.081025.787407-.084862 1.245708-.017953.746265.1077558 1.067259.2818859 2.052354 1.1326137 1.337953 1.1545152 2.623523 2.49722 4.603608 4.7943455.775475.9009241 1.492821 1.8042286 1.469786 1.8394426-.01646.025152-1.011048.6105404-2.913864 1.7141336-8.189619 4.752606-13.393123 7.756298-13.50006 7.790051-.02227.0071-.04942-.01634-.0599-.04896zm2.033598-2.849443c1.255701-.719697 10.958633-6.3371854 11.553648-6.6846743.27194-.1616812.313962-.1988972.291826-.2677585-.050095-.1558422-1.291722-1.5603208-2.567214-2.9022146-1.505656-1.5846105-2.537905-2.5362209-3.028888-2.7964119-.555141-.2918351-.983561-.2963278-1.738285-.0181839-.399641.1461049-1.853029.8004546-1.882644.8457308-.02632.040243.270877.2777692 1.187849.9623758 1.378749 1.0218807 1.514669 1.1546255 1.492575 1.437044-.013035.2037145-.152759.4713651-.309811.6087604-.154926.1287411-.523582.2490946-.721819.2278361-.303456-.0279752-.552545-.1768892-1.766311-1.0672134-.44937-.3292127-1.014854-.7295594-1.257362-.8885405-.424148-.2812866-.446631-.2901578-.602579-.2409344-.922325.2911216-7.667593 4.2085966-9.126495 5.3038074l-.329046.243577.778947.301034c.863258.334301 1.481596.670061 2.249283 1.226142 1.256605.916722 2.361985 1.988961 3.815603 3.701771.347503.40927.654844.739402.677123.73237.02673-.0085.604131-.3344 1.2836-.724514z"/><path d="m65.441117 35.320139c-.334033.02959-.761144-.04717-1.283666-.237528-1.659618-.597901-3.121556-2.000705-4.834281-4.641698-.487245-.752383-1.073455-1.721029-1.889952-3.115984-1.97966-3.395053-2.330721-3.906991-3.192916-4.680744-.996746-.886968-1.983373-1.421847-3.225425-1.7284-1.206202-.301902-1.96522-.357731-3.929375-.284664-1.02732.04083-1.934336.04369-1.985126.0078-.044-.03002-.118383.01342 2.964591-1.770064 9.272369-5.353842 12.407646-7.157821 12.43575-7.146733.04496.01774-.21336.542389-.751941 1.538724-.950403 1.761044-1.247827 2.63735-1.235294 3.699248.0052.840659.242309 1.883574.576017 2.524739.267361.526382.824937 1.268541 1.812957 2.43371.551892.648147 1.451289 1.705562 1.990775 2.345649 1.537581 1.806067 2.416478 2.921848 3.122092 3.956598.784367 1.157596 1.103134 1.76755 1.496442 2.86894.331972.941111.478889 1.581358.445616 1.951136-.05942.685412-.385474 1.33523-.811174 1.629276-.446814.304702-1.238144.606373-1.705092.649968zm.573876-1.817844c.06835-.07746.139169-.223566.16584-.3238.08887-.395311-.184015-1.351082-.647326-2.242753-.780915-1.498002-2.142947-3.307584-5.21112-6.897973-2.758299-3.237106-2.840342-3.35492-3.278596-4.733538-.341531-1.077813-.399646-1.594393-.326133-2.92297.02553-.363341.0261-.666912.0081-.677189-.08431-.03328-5.851641 3.308069-5.937198 3.438865-.01433.0165.0016.03543.03296.04149.0314.006.352326.08839.720348.179811 1.651749.420746 3.220457 1.254925 4.279297 2.27399.798447.773914 1.394673 1.651576 3.09072 4.561303 2.322832 3.98932 3.355245 5.475802 4.506489 6.461709.603929.519946 1.450039.999377 1.913 1.08079.285838.0495.503002-.02303.683639-.239734z"/><path d="m44.109905 20.153185c-.09788-.04495-.752991-.892052-.797262-1.029774-.01045-.03261.0011-.08817.02976-.121166.0693-.08974.337957-.24639 8.306774-4.861441 3.823455-2.212808 7.132851-4.131625 7.360439-4.2633404l.404033-.2393045.11145.056643c.12386.064702.522564.5416369.714403.8483449.106308.178021.12145.225136.08197.285504-.09659.142264.238684-.05138-6.907737 4.068555-1.93284 1.117062-4.748331 2.740264-6.251568 3.605957-1.502071.869317-2.782176 1.604703-2.841061 1.635265-.07883.04484-.136966.04721-.211194.01477z"/></g><g style="fill:#00ff7f;stroke:#000;fill-opacity:1;stroke-linecap:round;stroke-width:4.99999;stroke-linejoin:round;stroke-dashoffset:1.3845" transform="matrix(.28222223 0 0 .28222223 0 0)"><path d="m150.46883 54.301415c-7.86448-8.993736-13.63483-13.614821-20.44385-16.372127-1.53482-.621526-1.7116-.752252-1.7688-1.308057-.0592-.574967.11709-.735716 2.55787-2.332817 7.36079-4.816454 21.65639-13.114716 27.55532-15.995216l2.48731-1.214575.67741.367945c.37257.202369 1.8764 1.221396 3.34185 2.264504 7.17962 5.11048 7.37705 5.228808 8.7117 5.221458 1.47337-.0081 2.47599-.531888 3.04104-1.588655.51604-.965114.50418-1.941304-.0319-2.622795-.23596-.299972-2.15953-1.859784-4.27461-3.466249-3.6473-2.770237-3.84225-2.954737-3.78081-3.578148.0603-.61231.21798-.726684 2.30292-1.670907 5.74465-2.6016341 7.71681-2.7001643 10.64605-.531883 2.92769 2.167142 8.90846 8.170976 15.32076 15.379866 3.25337 3.657519 3.40495 3.872726 3.00197 4.261835-.16464.158965-8.74031 5.171961-19.05704 11.13999-24.73033 14.306013-26.65556 15.403034-27.03167 15.403034-.17592 0-1.64092-1.510741-3.25554-3.357203z"/><path d="m230.07468 118.97034c-2.49069-1.02453-5.04021-2.86656-7.3844-5.33523-3.35862-3.53695-6.46467-8.23275-14.53755-21.978157-6.39178-10.883072-9.23742-14.62672-13.3321-17.539331-3.29346-2.342691-8.65502-4.780558-12.30606-5.595488-1.13668-.253712-1.22564-.317081-1.22564-.872999 0-.552252.32293-.790595 4.10324-3.02845 4.85602-2.874645 12.30145-7.157993 13.54466-7.792235.48381-.246821 1.1209-.448766 1.41574-.448766h.53608l-.0157 3.676935c-.0168 3.925774.15443 5.125433 1.20907 8.47294 1.4557 4.620541 1.87484 5.222435 11.79237 16.934054 13.3903 15.812617 17.89548 22.171467 19.85765 28.028157.43047 1.28487.63266 2.31087.63266 3.21044 0 1.21936-.0563 1.37842-.72473 2.04683-.89061.89061-1.80083.94711-3.56529.2213z"/></g></svg>