<svg height="256" viewBox="0 0 72.248892 72.248892" width="256" xmlns="http://www.w3.org/2000/svg"><g fill-rule="evenodd" stroke="#000" stroke-width="2.25778"><path d="m28.987631 25.988004-18.06222 13.546667h33.866665l18.062224-13.546667z" fill="#fff"/><path d="m28.987631 19.21467-18.06222 13.546667h33.866665l18.062224-13.546667z" fill="#00ff7f" fill-opacity="1"/><path d="m28.987631 12.441334-18.06222 13.546663h33.866665l18.062224-13.546663z" fill="#fff"/></g><g fill="#000" stroke="none" stroke-width=".971543"><path d="m44.403534 54.1202c-.05822-.163806-1.978227-2.234944-2.571765-2.774754-.793667-.722206-1.597266-1.329588-2.304558-1.737377-.175864-.102221-.552103-.268558-.83297-.368798-.406773-.145177-.577917-.186529-.847039-.206132-.442748-.03225-.712751-.113818-.93107-.287908-.14415-.108164-.193279-.175019-.241459-.310582-.162605-.457525.04997-.823071.799453-1.379229 1.361646-1.010895 5.69102-3.320114 9.276514-4.950344 2.031642-.922202 2.972923-1.271809 3.771976-1.391054.417303-.06314.678394-.06613 1.073245-.01399.642948.08397.919502.219663 1.768215.882603 1.152719.89967 2.260307 1.945989 3.966258 3.736052.668114.702056 1.286147 1.405967 1.266301 1.433408-.01418.0196-.871073.475771-2.510452 1.335759-7.055803 3.703526-11.538905 6.04419-11.631037 6.070492-.01919.0055-.04258-.01273-.05161-.03815zm1.752055-2.220463c1.081855-.560833 9.441459-4.938329 9.954097-5.209114.234291-.125992.270495-.154993.251424-.208654-.04316-.121442-1.112889-1.215899-2.211795-2.261586-1.297204-1.234827-2.186543-1.976381-2.609552-2.179138-.478284-.227416-.847391-.230917-1.497627-.01417-.344312.113854-1.596485.623764-1.622.659046-.02268.03136.233375.216455 1.023397.749943 1.187867.796313 1.304969.899756 1.285934 1.119834-.01123.158747-.13161.367317-.266919.474384-.133477.100323-.451094.19411-.621886.177544-.261444-.0218-.476048-.137843-1.521773-.831639-.387157-.256543-.874352-.568518-1.083286-.692406-.365427-.219196-.384797-.226109-.519155-.187751-.794633.22686-6.606048 3.2796-7.862972 4.133056l-.283491.189811.671106.234584c.743743.260508 1.276475.522153 1.937879.955486 1.082634.714367 2.034979 1.549922 3.28735 2.88465.299393.318929.564184.576188.583378.570708.02303-.0066.520492-.260585 1.105891-.564586z"/><path d="m64.069105 67.242136c-.287787.02306-.655767-.03676-1.105948-.185097-1.429851-.465921-2.68939-1.559073-4.164996-3.617099-.419788-.586304-.92484-1.341133-1.628296-2.428169-1.705585-2.645636-2.008043-3.04457-2.750871-3.647526-.858751-.691181-1.708784-1.107992-2.778879-1.346877-1.039209-.235261-1.693144-.278766-3.385371-.221828-.885092.03182-1.666535.03405-1.710294.0061-.03791-.02339-.101993.01046 2.554157-1.379344 7.98865-4.172046 10.689862-5.577819 10.714075-5.569178.03874.01382-.183821.422663-.647838 1.199069-.818824 1.372315-1.075071 2.055187-1.064273 2.882684.0045.655094.208762 1.467798.49627 1.967434.230346.410189.710728.988526 1.561961 1.896498.475485.505076 1.250364 1.32908 1.715161 1.827875 1.32471 1.4074 2.081927 2.276886 2.689852 3.083227.675775.902071.95041 1.377385 1.289266 2.235657.286012.733372.412589 1.232292.383923 1.520446-.05119.534116-.332107 1.040494-.698871 1.269633-.384954.237443-1.066728.472524-1.469029.506496zm.494426-1.416577c.05889-.06036.119901-.174217.14288-.252325.07657-.308051-.158539-1.052847-.557707-1.747693-.6728-1.167336-1.846265-2.577475-4.489663-5.375329-2.376425-2.522554-2.447109-2.614362-2.824689-3.688667-.294247-.839899-.344317-1.24245-.280981-2.27776.022-.283138.02249-.519699.007-.527708-.07264-.02593-5.041507 2.577853-5.115219 2.679778-.01235.01286.0014.02761.0284.03233.02705.0047.303548.06888.620619.14012 1.423072.327871 2.774599.977915 3.686847 1.772034.687906.603082 1.201587 1.287011 2.662824 3.554451 2.001246 3.108726 2.890726 4.267085 3.882585 5.035365.520318.405174 1.249288.778777 1.648154.842219.246265.03857.433363-.01795.588992-.186816z"/><path d="m45.691106 55.423103c-.08433-.03503-.648743-.695143-.686885-.802464-.009-.02541.00095-.06871.02564-.09442.05971-.06993.291168-.192003 7.156738-3.788337 3.294114-1.724358 6.145339-3.219619 6.341418-3.32226l.348097-.186481.09602.04414c.106712.05042.450217.422077.615497.661083.09159.138725.104636.17544.07062.222482-.08322.110861.205639-.04004-5.951391 3.170471-1.665247.870484-4.090946 2.135384-5.386066 2.809986-1.294116.677426-2.396996 1.250484-2.447729 1.2743-.06792.03494-.118004.03679-.181955.01151z"/></g></svg>
