<?xml version="1.0" encoding="UTF-8" standalone="no"?>
<svg
   width="256"
   height="256"
   viewBox="0 0 72.248892 72.248892"
   id="svg4295"
   version="1.1"
   inkscape:version="1.2.2 (732a01da63, 2022-12-09)"
   sodipodi:docname="pen_apply.svg"
   inkscape:export-filename="D:\LC_Recources\icons\selectinverted.png"
   inkscape:export-xdpi="11.25"
   inkscape:export-ydpi="11.25"
   xmlns:inkscape="http://www.inkscape.org/namespaces/inkscape"
   xmlns:sodipodi="http://sodipodi.sourceforge.net/DTD/sodipodi-0.dtd"
   xmlns="http://www.w3.org/2000/svg"
   xmlns:svg="http://www.w3.org/2000/svg"
   xmlns:rdf="http://www.w3.org/1999/02/22-rdf-syntax-ns#"
   xmlns:cc="http://creativecommons.org/ns#"
   xmlns:dc="http://purl.org/dc/elements/1.1/">
  <metadata
     id="metadata4325">
    <rdf:RDF>
      <cc:Work
         rdf:about="">
        <dc:format>image/svg+xml</dc:format>
        <dc:type
           rdf:resource="http://purl.org/dc/dcmitype/StillImage" />
      </cc:Work>
    </rdf:RDF>
  </metadata>
  <defs
     id="defs4323" />
  <sodipodi:namedview
     pagecolor="#ffffff"
     bordercolor="#666666"
     borderopacity="1"
     objecttolerance="10"
     gridtolerance="10"
     guidetolerance="10"
     inkscape:pageopacity="0"
     inkscape:pageshadow="2"
     inkscape:window-width="3840"
     inkscape:window-height="2126"
     id="namedview4321"
     showgrid="true"
     units="px"
     inkscape:snap-grids="true"
     inkscape:zoom="1.8613281"
     inkscape:cx="386.28331"
     inkscape:cy="271.58027"
     inkscape:window-x="-11"
     inkscape:window-y="-11"
     inkscape:window-maximized="1"
     inkscape:current-layer="svg4295"
     inkscape:object-nodes="true"
     inkscape:snap-object-midpoints="false"
     showguides="false"
     inkscape:showpageshadow="2"
     inkscape:pagecheckerboard="0"
     inkscape:deskcolor="#d1d1d1">
    <inkscape:grid
       type="xygrid"
       id="grid4867" />
  </sodipodi:namedview>
  <g
     id="g9504"
     transform="rotate(82.156511,35.948491,36.574863)">
    <rect
       inkscape:export-ydpi="192.85715"
       inkscape:export-xdpi="192.85715"
       inkscape:export-filename="/home/prar/LibreCAD editado/res/extui/linestan2.png"
       ry="0"
       y="-79.539932"
       x="-13.816331"
       height="62.687038"
       width="62.682362"
       id="rect3021-8-3-9-7-5-6-2-0-7-0-0-3-3-9-1"
       style="color:#000000;display:inline;overflow:visible;visibility:visible;opacity:0;fill:none;stroke:#000000;stroke-width:0.532929;stroke-linecap:square;stroke-linejoin:miter;stroke-miterlimit:4;stroke-dasharray:none;stroke-dashoffset:0;stroke-opacity:1;marker:none;enable-background:accumulate"
       transform="rotate(115.51291)" />
    <circle
       r="5.6444449"
       cy="-17.300005"
       cx="3.8936567"
       id="circle5725-7"
       style="fill:#00ff7f;fill-opacity:1;fill-rule:nonzero;stroke:#000000;stroke-width:2.25778;stroke-linecap:square;stroke-linejoin:miter;stroke-miterlimit:4;stroke-dasharray:none;stroke-dashoffset:8;stroke-opacity:1"
       transform="rotate(115.51291)" />
    <g
       id="g9451"
       transform="matrix(0.97824616,0,0,0.96489326,11.816134,-0.70550726)">
      <path
         d="m 34.305863,29.599822 c -0.305122,-0.14562 -3.883714,-4.042591 -4.794449,-5.219964 -1.218561,-1.574465 -2.211268,-3.134958 -2.838177,-4.473964 -0.157487,-0.33316 -0.392503,-1.031682 -0.521361,-1.546632 -0.186622,-0.745789 -0.226738,-1.054206 -0.201401,-1.526838 0.04168,-0.777557 -0.05339,-1.268564 -0.340757,-1.694983 -0.176538,-0.279708 -0.295083,-0.383191 -0.547597,-0.503705 -0.852235,-0.40673 -1.613946,-0.13699 -2.873367,1.013213 -2.289026,2.08954 -7.805506,8.979283 -11.824786,14.761942 -2.2744549,3.277034 -3.1770678,4.816431 -3.5977096,6.17149 -0.221366,0.707439 -0.2887889,1.159985 -0.2804447,1.859782 0.011762,1.139244 0.2106442,1.656341 1.3008528,3.310275 1.4792931,2.246169 3.2546945,4.45384 6.3366615,7.902705 1.208961,1.350976 2.433348,2.615495 2.491446,2.588495 0.04149,-0.01929 1.131632,-1.383189 3.192435,-3.996011 8.873839,-11.244859 14.487798,-18.392987 14.560735,-18.545814 0.01519,-0.03184 -0.01473,-0.07739 -0.06209,-0.09999 z m -4.73563,2.438613 C 28.22329,33.7645 17.729918,47.090055 17.08187,47.906584 16.781341,48.279154 16.716347,48.334135 16.616394,48.286432 16.390182,48.178472 14.512145,46.023454 12.735926,43.83103 10.638321,41.242861 9.4046696,39.497013 9.1097943,38.707378 8.7799594,37.815058 8.86023,37.173189 9.4355494,36.103042 c 0.3028589,-0.566911 1.5908606,-2.60256 1.6655586,-2.637273 0.0664,-0.03086 0.36628,0.464079 1.218352,1.980908 1.269809,2.279101 1.443538,2.510559 1.876425,2.537338 0.31166,0.02365 0.746055,-0.128669 0.986391,-0.334512 0.226775,-0.204496 0.484275,-0.730509 0.492323,-1.031576 0.01926,-0.459897 -0.156002,-0.864085 -1.259793,-2.8685 -0.408032,-0.742004 -0.900363,-1.672784 -1.092222,-2.069257 -0.34046,-0.694119 -0.349347,-0.729633 -0.242982,-0.952504 0.629079,-1.318126 7.942531,-10.579153 9.900384,-12.529656 l 0.436364,-0.440651 0.298294,1.229083 c 0.331618,1.362259 0.715234,2.358427 1.402693,3.624695 1.135125,2.074097 2.53689,3.954904 4.839536,6.492384 0.550176,0.606571 0.988472,1.136293 0.973277,1.168132 -0.01823,0.0382 -0.630045,0.83294 -1.359917,1.766782 z"
         id="path252"
         style="fill:#000000;stroke:none;stroke-width:0.00641319" />
      <g
         id="g9443">
        <g
           id="g9437">
          <path
             d="m 55.208667,67.314492 c 0.112778,-0.493445 0.08316,-1.148668 -0.09937,-1.970689 -0.569591,-2.609462 -2.400305,-5.093712 -6.058223,-8.215454 -1.042231,-0.888314 -2.392391,-1.970496 -4.342399,-3.487502 -4.747474,-3.680825 -5.452662,-4.314468 -6.451091,-5.768237 -1.142815,-1.679041 -1.753608,-3.268355 -1.966139,-5.191413 -0.212762,-1.868441 -0.143162,-3.015763 0.366927,-5.938669 0.270762,-1.528224 0.459472,-2.884517 0.415395,-2.968098 -0.03659,-0.07219 0.04442,-0.174257 -3.287588,4.060052 -10.005932,12.737282 -13.379661,17.045495 -13.368553,17.089888 0.01777,0.07103 0.866108,-0.204282 2.486905,-0.798927 2.86448,-1.048726 4.254186,-1.308028 5.86241,-1.064314 1.274118,0.185895 2.807898,0.761533 3.712636,1.396593 0.744109,0.511489 1.756536,1.502852 3.323121,3.227776 0.870975,0.962944 2.292125,2.532459 3.153396,3.475136 2.427039,2.682847 3.940891,4.234059 5.367049,5.508874 1.596493,1.418654 2.456924,2.02475 4.047651,2.846472 1.360072,0.696007 2.301383,1.051432 2.869056,1.079994 1.051764,0.05632 2.103736,-0.2938 2.636301,-0.868355 0.553021,-0.603883 1.171474,-1.723808 1.33252,-2.413127 z m -2.874102,0.47341 c -0.131392,0.08584 -0.367411,0.160833 -0.524875,0.1795 -0.617703,0.0492 -2.012022,-0.561516 -3.270403,-1.443534 -2.11355,-1.485604 -4.581604,-3.906572 -9.404117,-9.257201 -4.349614,-4.812212 -4.511648,-4.959907 -6.513759,-5.9076 -1.565489,-0.739266 -2.337265,-0.935647 -4.367498,-1.107131 -0.556334,-0.03878 -1.01693,-0.102242 -1.028855,-0.131388 -0.03333,-0.133178 6.207409,-8.053261 6.423202,-8.153545 0.02794,-0.01794 0.05342,0.0099 0.05624,0.05811 0.0028,0.04826 0.06246,0.545807 0.126324,1.115737 0.302468,2.560159 1.248943,5.083674 2.57951,6.883593 1.011632,1.358436 2.221745,2.436326 6.29069,5.590049 5.579149,4.320108 7.624103,6.179516 8.885589,8.110647 0.665934,1.013632 1.221184,2.380985 1.250571,3.090824 0.01698,0.438101 -0.137194,0.747611 -0.502613,0.971938 z"
             id="path248"
             style="fill:#000000;stroke:none;stroke-width:0.00641319" />
          <path
             d="m 36.538255,32.189773 c -0.04829,-0.155955 -1.200074,-1.315461 -1.399982,-1.410867 -0.04734,-0.0226 -0.133967,-0.01703 -0.189845,0.01885 -0.150208,0.08467 -0.442442,0.453386 -9.062742,11.397067 -4.13376,5.251117 -7.717077,9.795483 -7.963135,10.10805 l -0.445124,0.55374 0.06326,0.178734 c 0.07296,0.199001 0.715375,0.896503 1.141619,1.248472 0.248427,0.196747 0.316816,0.229385 0.416414,0.1831 0.235431,-0.114366 -0.126469,0.346185 7.575646,-9.472074 2.087337,-2.654885 5.121846,-6.522995 6.740562,-8.588445 1.623977,-2.062938 2.999675,-3.822188 3.058004,-3.903805 0.08404,-0.108436 0.09945,-0.194902 0.06533,-0.31282 z"
             id="path250"
             style="fill:#000000;stroke:none;stroke-width:0.00641319" />
          <path
             style="fill:#00ff7f;fill-opacity:1;stroke:#000000;stroke-width:0.00758119;stroke-opacity:0"
             d="m 10.17425,34.94 c 0.345996,-0.544089 0.698717,-1.08461 0.783821,-1.201156 0.15202,-0.208182 0.157165,-0.208641 0.293259,-0.02615 0.07619,0.102159 0.568952,0.947191 1.095034,1.877843 1.339068,2.368843 1.506876,2.54858 2.237473,2.396539 0.803498,-0.167212 1.286414,-1.053378 1.034689,-1.89869 -0.0641,-0.215271 -0.296903,-0.733108 -0.517324,-1.150752 -0.220423,-0.41764 -0.739105,-1.396934 -1.152628,-2.176206 -0.982452,-1.851402 -0.973128,-1.819724 -0.675033,-2.293423 0.841682,-1.337496 4.024629,-5.470989 6.87354,-8.926229 1.578408,-1.914339 3.028311,-3.56543 3.181491,-3.622951 0.03844,-0.01444 0.21165,0.53168 0.384905,1.213594 0.173256,0.681913 0.470887,1.602047 0.661406,2.044743 0.971734,2.257976 2.577929,4.598055 5.170708,7.533257 0.649589,0.735383 1.212869,1.396796 1.251728,1.469808 0.0635,0.119312 -0.101545,0.352473 -1.630285,2.303093 -4.584732,5.849952 -12.231386,15.53997 -12.359592,15.66236 -0.178439,0.170344 -0.1532,0.191549 -1.255357,-1.054661 C 13.448604,44.712611 10.707562,41.261375 9.805951,39.856075 9.1928615,38.900485 8.9998357,38.403528 8.9920018,37.760526 8.9862602,37.28925 9.0232962,37.128203 9.2652627,36.572309 9.4192041,36.218627 9.8282538,35.48409 10.17425,34.94 Z"
             id="path7217" />
        </g>
      </g>
    </g>
  </g>
</svg>
