<svg height="256" viewBox="0 0 72.248892 72.248892" width="256" xmlns="http://www.w3.org/2000/svg"><path d="m-73.478081-60.278229h62.682362v62.687038h-62.682362z" fill="none" opacity="0" stroke="#000" stroke-linecap="square" stroke-width=".532929" transform="matrix(-.98644264 -.16410645 .16410645 -.98644264 0 0)"/><circle cx="-67.228043" cy="-16.15424" fill="#00ff7f" r="5.644445" stroke="#000" stroke-dashoffset="8" stroke-linecap="square" stroke-width="2.25778" transform="matrix(-.98644264 -.16410645 .16410645 -.98644264 0 0)"/><g fill="#000" stroke="none" transform="matrix(.73191034 .20316021 -.18970379 .75641977 13.419224 4.067686)"><path d="m9.3504345 67.500075c.6466728-.110244 1.4087175-.441077 2.2864265-1.00562 2.791554-1.781977 3.509116-4.241405 5.245015-9.43394.493239-1.478954 1.385521-3.945764 2.136168-6.646394 1.812718-6.569221 2.604311-7.146502 3.792564-8.83964 1.377944-1.944882 3.427926-3.719513 5.596829-4.819656 2.103928-1.07534 3.50374-1.529745 7.249181-2.345187 1.960472-.422167 3.672589-.849892 3.748084-.933532.066-.07072.230839-.03422-6.592132-1.519337-20.515051-4.449824-27.4482555-5.943973-27.4949819-5.912199-.074766.05084.7092022.796965 2.2885281 2.191014 2.7885638 2.464755 4.8778708 3.154566 4.8582408 5.228394 1.32204 1.46817.221456 3.764003-.04515 4.985474-.206426.999648-.886877 2.279622-2.090983 4.681299-.6741225 1.337066-1.7720551 3.517948-2.4273407 4.835745-1.8779349 3.725622-2.9041892 5.993437-3.6495018 8.044368-.8243313 2.292025-1.0804182 3.454658-1.19907 5.4671-.093645 1.717628-.00852 2.848512.2634225 3.445342.499792 1.107342 1.482301 2.02857 2.4514544 2.312808 1.0149981.291827 2.6779912.414366 3.5832461.263961zm-2.1106273-2.738396c-.1727132-.095758-.3889235-.304074-.4959267-.457437-.3912231-.612626-.4172991-2.326369-.0479939-4.024703.6252464-2.854405 1.0994553-6.579725 4.8544434-13.991606 3.370468-6.678771 3.996874-7.008295 4.043455-9.501509.0344-1.948689.384044-2.659557-.506187-4.825848-.253688-.589858-.73607-1.635708-.707888-1.661333.140177-.09532 15.077481 3.194699 13.346449 3.028694-.669758-.194348 2.180582.146613 2.124809.171625-.05577.02501-1.976008.624381-2.618328.951329-2.87693 1.484695-5.422963 3.881588-6.843279 6.074948-1.067939 1.66301-2.332956 3.119146-3.885379 8.748999-2.123701 7.717497-3.245345 11.369449-4.858679 13.551927-.844781 1.149461-2.1536093 1.650545-2.9806294 2.006179-.5110469.218299-.9616184.201654-1.4248634-.07126z" fill-opacity=".934177"/><path d="m40.319244 32.02266c.190861.05984 1.214954-1.669239 1.220532-1.91854.0013-.05905-1.141907-.150996-1.214617-.192006-.371802-.08199.553196.04806-17.085611-3.799183-8.502723-1.730584-15.6498171-3.726088-16.1535246-3.835816l-.9562918-.110398-.119181.05352c-.1969811.166252-.6790641 1.146604-.867337 1.746265-.099767.34565.1109954.246118.2196163.327315.2626431.189664-.4955984-.08546 15.3121991 3.333549 4.908216.678016 10.672845 2.393897 13.99746 3.111538 3.324468.724203 3.230311.698163 4.036758.915995.174035.03671.684799.07766.828731.122789z"/><path d="m42.718274 26.994377c.289746-.246798 2.161537-4.273466 3.068848-5.749719 1.21296-1.97483 2.949152-3.758527 4.201302-5.017023.310739-.314675.940706-1.010901 1.86169-1.370997.884115-.345681 1.076982-.907193 1.65183-1.09781.945717-.313596 1.083836-.834839 1.43533-1.325826.237006-.309761.321744-.781849.32879-1.096755.02378-1.062809-1.597601-.889242-3.641884-1.6570035-3.714369-1.3958736-13.582224-3.7295225-22.613973-5.2115505-5.116531-.8365015-7.430699-1.0589395-9.266307-.8702758-.959271.0966854-1.532944.2348185-2.359377.5642105-1.346384.5343646-1.155105 1.1242529-2.53158 3.0035299-1.870057 2.5508732-3.534864 5.3885824-5.9694946 10.1388344-.9527645 1.862501-1.979578 3.447538-1.515987 3.450087 1.367131.0075 1.5771471.192166 5.7898916 1.113467 18.133023 3.969878 27.19702 6.474343 28.049936 6.237759.903387-.250585.349237-.12138.605578-.339723zm-5.295025-2.029949c-2.77521-.593764-24.25139-5.275136-25.57008-5.567194-.604302-.138234-.704603-.179861-.701814-.304511.0063-.282104 1.5533-3.201216 3.199563-6.032776 1.943008-3.3434638 3.351335-5.4123798 4.130064-6.0775939.881819-.7482389 1.687214-.9599521 3.267862-.8589475.836315.05153 3.947362.4427669 4.028826.5036644.07242.054133-.109908.7085958-1.451895 2.2801443-2.022024 2.3505577-2.447035 2.5161097-2.245601 2.9735217.139833.33132.554737.708178.928641.860948.364998.139443 1.128314.163086 1.490132.03334.556451-.191028.64005-.620169 2.425364-2.674087.661205-.7597374 1.803042-1.6290722 2.170438-2.0081178.640755-.6683023.678135-.6937215 1.000077-.6865182 1.904059.042602 16.840802 3.317402 20.211653 4.436472l.758326.246701-1.298681.870188c-1.438858.965509-2.415009 1.816658-3.548169 3.104071-1.851169 2.118081-3.32917 4.421736-5.101519 7.952805-.42381.843816-.816649 1.537356-.86264 1.536327-.05519-.0012-1.328476-.266022-2.830547-.588437z"/></g><g fill="#000" stroke="none" transform="matrix(-.00454099 -.00133071 -.00104205 .00355595 69.832653 39.673694)"><path d="m4908 9786c-70-19-152-72-246-161-299-281-505-748-681-1545-50-227-106-516-181-930-181-1007-219-1163-344-1425-145-301-311-513-544-688-226-171-377-245-782-382-212-71-397-142-405-155-7-11-25-6 720-209 2240-608 2997-812 3002-807 8 8-79 119-254 326-309 366-427 562-494 829-54 211-74 491-48 678 20 153 85 383 210 753 70 206 184 542 252 745 195 574 301 923 377 1238 84 352 109 530 117 837 6 262-6 434-37 524-57 167-166 304-272 344-111 41-292 54-390 28zm236-410c19-14 43-45 55-68 44-92 51-353 15-613-61-437-220-998-610-2140-350-1029-359-1065-358-1445 1-297 23-431 125-758 29-89 49-165 46-169-15-15-1409 366-1435 392-4 3-2 9 4 13s66 50 135 102c309 236 574 569 723 908 112 257 176 524 331 1387 212 1183 325 1637 495 1975 89 178 230 365 319 422 55 35 104 34 155-6z"/><path d="m1555 4300c-17-19-95-283-95-321 0-9 6-22 14-28 20-17 85-35 2011-561 924-252 1724-471 1779-486l98-28 19 23c21 26 71 177 90 269 10 53 10 66-2 78-29 28 52 6-1674 473-467 127-1147 311-1510 409-363 99-672 182-686 185-19 5-31 1-44-13z"/><path d="m1360 3763c0-58-280-900-375-1128-127-305-266-574-399-770-33-49-108-137-166-195-84-84-121-113-183-144-102-51-159-102-196-178-25-48-31-74-31-122 0-162 81-260 305-370 407-200 1625-545 2610-740 558-110 810-136 1009-101 104 18 166 41 255 94 145 86 199 155 344 446 197 395 371 833 624 1565 99 287 186 570 179 577-5 5-246 73-706 199-1980 543-3237 884-3261 884-5 0-9-8-9-17zm601-553c303-81 2648-721 2792-761 66-19 77-25 77-44 0-43-161-493-333-930-203-516-351-836-434-940-94-117-181-152-353-142-91 5-430 54-439 63-8 8 37 91 179 335 214 365 233 409 210 478-16 50-62 106-103 128-40 20-123 21-162 0-60-31-101-88-290-407-70-118-159-263-198-322-68-104-72-108-107-108-207 0-1838 448-2207 607l-83 35 139 137c154 152 258 285 378 485 196 329 351 685 535 1229 44 130 85 237 90 237 6 0 145-36 309-80z"/></g><path d="m51.8639 45.443629-6.773867-3.389629.386856-.514813c.957647-1.274399 3.196507-3.801655 4.17451-4.712238.812909-.756867 1.263757-.927562 2.010256-.761094.476599.10628 2.101409.689684 2.237495.803393.03197.02671-.265303.312814-.660614.635771-1.498884 1.224546-1.721564 1.438018-1.756882 1.68422-.08579.598008.678768 1.114159 1.312703.886201.119936-.04313.875054-.57399 1.678044-1.179698 1.433842-1.081568 1.464569-1.099795 1.716088-1.017964 1.063984.346159 7.575292 3.60867 9.225478 4.622454l.465509.285986-.953925.449266c-1.818189.856306-3.424693 2.293467-5.506036 4.925642-.31387.396935-.60563.696909-.66914.687975-.06193-.0088-3.16085-1.541177-6.886475-3.405472z" fill="#00ff7f"/></svg>
