<svg clip-rule="evenodd" fill-rule="evenodd" height="149" image-rendering="optimizeQuality" shape-rendering="geometricPrecision" text-rendering="geometricPrecision" width="149" xmlns="http://www.w3.org/2000/svg"><path d="m74.5 9.1841043c.0043-5.3045676 20.974452-10.08309559 54.71023-13.4847238 0-.0000004 0-.0000007.00001-.000001m10.9355 5.5785344c4.19744 4.6952861 8.61559 9.7746551 13.2191 15.1988221m2.91936 8.987137c2.13085 28.142847 3.43323 62.390674 3.56407 99.462917m-18.73991 18.85666c-2.05327.02-4.11523.0365-6.18532.0493-16.92478.10512-33.30915-.0373-48.848271-.39719m-18.277822-17.874c.438152-33.086855 1.900156-62.352907 4.126054-84.854238m2.546698 7.417842c-3.587121-6.114289-6.72226-11.735177-9.358509-16.784607m8.033358 4.00767c-.000002-.000001-.000005-.000001-.000007-.000002-2.616625-.433377-5.069215-.878652-7.348628-1.334868m-8.713685-8.37867c.526444-3.296922 1.089438-6.23778 1.687214-8.795395m2.451224-5.442052c7.161329-3.1671213 11.788872-4.0368722 13.279362-2.2131586s-.283082 6.1854866-4.812456 12.5729786m2.451218-5.442056c.796229 2.502948 1.587796 5.390685 2.370809 8.636257m-8.713686-8.37867c2.279413-.456217 4.732003-.901492 7.348628-1.334869.000002 0 .000005-.000001.000007-.000001m8.033358 4.007669c4.123439 3.92986 8.658082 8.497189 13.541885 13.635324m2.546699 7.417842c2.9504 22.417843 5.35546 51.621522 6.86043 84.677044m-18.277823-17.87402c15.533453-.55292 31.914783-.89881 48.839563-1.00393 2.07009-.0129 4.1321-.022 6.18546-.0275m-18.73991 18.85666c.13084-37.072243 1.43322-71.32007 3.56407-99.462917m2.91936 8.987137c-3.73433-6.055472-7.1981-11.828015-10.36488-17.271888m10.9355 5.578534s0 0-.00001-.000001c-33.7302-3.456428-54.692557-8.269003-54.68825-13.5735707" fill="none" transform="matrix(-1 0 0 1 152.27205 -.683594)"/><g stroke="#000"><path d="m136.20758 25.463872-57.080082-.170898-12.64648 15.893558-.1709 15.893558 26.489255-14.184573.5127 27.856451 23.925777-10.766604-.17089 36.401376-23.925787-11.962894.1709 22.216814-27.001955-14.184585-.1709 46.142595 74.340832.5127 1.19629-105.786168z" fill="#00ff7f" stroke-width="4.2"/><g fill="none" stroke-width="3.8"><path d="m22.303299 8.6313475 56.738281.1699219 7.349613 7.0078126-.3418 9.740234-7.691406.171875-11.449219 15.550782-.08594 15.636718-32.214839 17.517578 31.787105 17.773438.171875 31.787113-56.22656-.16992.68359-99.462896z"/><path d="m94.166563 70.239273-1.53808 1.025391-13.159185 6.066896 13.842775 7.006837" stroke-dasharray="none" stroke-linejoin="miter" stroke-opacity="1"/></g></g></svg>
