<svg height="256" viewBox="0 0 72.248892 72.248892" width="256" xmlns="http://www.w3.org/2000/svg"><g fill="#fff" fill-opacity="1" stroke="#000" stroke-dasharray="none" stroke-linecap="round"><path d="m23.949232 66.397883c-5.123335-2.344157-10.24667-4.688356-15.3700051-7.032514.443004-1.183192 1.000863-2.342605 1.372355-3.54054-.06186-3.085504-.123338-6.171054-.185201-9.25656 1.4162031-3.310365 2.8324071-6.620731 4.2486101-9.931097.886125-.755384 1.772288-1.510763 2.658412-2.266147 1.073037.171336 2.146074.342671 3.219111.513829-.84422 1.894965-1.688441 3.789931-2.532661 5.684892.592487.03528 1.345858.395799 1.840064.231104.780023-1.719554 1.453594-3.53062 2.299215-5.193863.56677-.456318 1.133578-.912637 1.700347-1.368959 1.061093.469247 2.122224.93854 3.183316 1.407788-.883322 2.152367-1.766684 4.304731-2.650007 6.457099.548444.06155 1.3743.784824 1.734469.39667.837762-2.033537 1.592728-4.125161 2.481926-6.122662.45775-.513078.915539-1.026155 1.373288-1.539232 1.020512.466591 2.041024.93314 3.061496 1.399731-.997128 2.586373-1.994295 5.172787-2.991423 7.759159 1.191511.612339 1.754001.858007 2.043475-.541367 1.858818-4.664757 3.717675-9.329517 5.576532-13.994278.581438-.407296 1.162914-.814442 1.744352-1.221663.858071.41661 1.716182.833526 2.574254 1.250311.143959.792216.477242 1.60086.508096 2.383202-2.568612 6.231573-5.137225 12.463192-7.705837 18.694767 1.690737-.555446 3.381434-1.110847 5.072171-1.666293 1.079223.488771 2.158408.977543 3.237631 1.466315-.377794.70221-.52292 1.62016-1.049692 2.183841-5.294101 3.559977-10.588202 7.119954-15.882303 10.679931-.520664 1.055508-1.041328 2.11097-1.561991 3.166478z" stroke-linejoin="bevel" stroke-width="2.257778"/><path d="m21.483686 6.3545786 43.472885 45.6216134" stroke-linejoin="round" stroke-width="3.245556"/></g></svg>
