<svg height="256" viewBox="0 0 72.248892 72.248892" width="256" xmlns="http://www.w3.org/2000/svg"><g stroke="#000" stroke-dasharray="none" stroke-width="2.257778"><g fill="#00ff7f"><g fill-opacity="1" stroke-linejoin="miter"><path d="m7.3437698 54.726547 20.5678472-.165638"/><path d="m17.627687 45.454859v19.04006"/><path d="m17.627687 16.977547h42.249571"/></g><g stroke-dashoffset="8" stroke-linecap="square" transform="matrix(0 -1 1 0 0 0)"><ellipse cx="-16.97752" cy="12.209734" rx="5.62695" ry="5.260881"/><ellipse cx="-16.97752" cy="35.005299" rx="5.62695" ry="5.260881"/><ellipse cx="-16.97752" cy="59.877277" rx="5.62695" ry="5.260881"/></g></g><path d="m48.566132 54.643728c4.553952-2.05874 9.107896-4.117523 13.661844-6.176263-.393756-1.039132-.889625-2.057384-1.219834-3.10946.05488-2.709827.109734-5.419694.164653-8.129521-1.258816-2.90731-2.51763-5.81462-3.776446-8.721931-.787662-.663411-1.575324-1.326823-2.362989-1.990231-.953778.150475-1.907549.300949-2.861327.451267.750391 1.664243 1.500778 3.328483 2.251169 4.992726-.526613.03098-1.196265.347608-1.635551.202966-.693345-1.510189-1.292069-3.100751-2.043698-4.561482-.503795-.400759-1.007587-.801522-1.511378-1.202281-.943178.412114-1.886363.824268-2.829541 1.236382.785172 1.890301 1.570337 3.780607 2.355508 5.670912-.487495.05406-1.221563.689267-1.541708.348373-.74466-1.785942-1.415733-3.622899-2.206086-5.377194-.406898-.450608-.813793-.901215-1.220691-1.351822-.907087.409781-1.814177.819521-2.721263 1.229302.886329 2.271468 1.772658 4.542975 2.658988 6.814443-1.059089.537783-1.559083.75354-1.816366-.475453-1.652262-4.096801-3.304517-8.193597-4.956779-12.290397-.516836-.357706-1.033677-.71528-1.550513-1.072919-.762717.365881-1.52543.732036-2.288146 1.098075-.128168.695763-.424215 1.405946-.451654 2.093037 2.283156 5.472845 4.566312 10.94573 6.849468 16.418575-1.502829-.487818-3.005655-.975599-4.508488-1.463417-.959266.429261-1.918536.858522-2.877799 1.287783.33567.616713.464809 1.4229.933018 1.91795 4.705742 3.126531 9.411482 6.253061 14.117225 9.379587.462803.926994.925602 1.853952 1.388405 2.780946z" fill="#fff" fill-opacity="1" stroke-linecap="round" stroke-linejoin="round"/></g></svg>
