<svg height="256" viewBox="0 0 72.248892 72.248892" width="256" xmlns="http://www.w3.org/2000/svg"><g fill="#000" stroke-dasharray="none" stroke-miterlimit="4"><path d="m36.4441496 18.63273044a17.63888909 17.63888909 0 0 0 -18.09253875 17.1361799l-.00385854.14276494a17.63888909 17.63888909 0 0 0 17.24587262 17.98836234 17.63888909 17.63888909 0 0 0 18.0236373-17.2094939 17.63888909 17.63888909 0 0 0 -17.17311263-18.05781328zm-.03637845 1.41441851a16.29347787 16.1618116 44.999608 0 1 15.79893308 16.74151215 16.29347787 16.1618116 44.999608 0 1 -16.5816595 15.69750805 16.29347787 16.1618116 44.999608 0 1 -15.86618128-16.6775699l.00330736-.13174134a16.29347787 16.1618116 44.999608 0 1 16.64560033-15.62970896z" display="inline" stroke-width="1.766098"/><path d="m35.27777875 34.14888983v1.41111115h-1.41111115v1.41111115h1.41111115v1.41111115h1.41111115v-1.41111115h1.41111115v-1.41111115h-1.41111115v-1.41111115z" stroke-width=".372724"/></g></svg>
