<svg height="256" viewBox="0 0 72.248892 72.248892" width="256" xmlns="http://www.w3.org/2000/svg"><path d="m36.4441496 18.63273044a17.63888909 17.63888909 0 0 0 -18.09253875 17.1361799l-.00385798.14276494a17.63888909 17.63888909 0 0 0 17.24587206 17.98836234 17.63888909 17.63888909 0 0 0 18.0236373-17.2094939 17.63888909 17.63888909 0 0 0 -17.17311263-18.05781328zm-.03637845 1.41441851a16.29347787 16.1618116 44.999608 0 1 15.79893308 16.74151215 16.29347787 16.1618116 44.999608 0 1 -16.5816595 15.69750805 16.29347787 16.1618116 44.999608 0 1 -15.86618128-16.6775699l.00330764-.13174134a16.29347787 16.1618116 44.999608 0 1 16.64560005-15.62970896z" fill="#000" stroke-width="1.766098"/><path d="m5.6502239 5.9322252 60.6428311 60.6665758m0-60.666576-60.6428312 60.666576" stroke="#000" stroke-width="1.766098"/><path d="m16.933334 17.215555h1.411111v38.100002h-1.411111zm0 36.688891h38.100003v1.411111h-38.100003zm36.688889-35.277779h1.411111v35.277779h-1.411111zm-36.688889-1.411112h38.100003v1.411111h-38.100003z" fill="#000" stroke-width=".282222"/></svg>
