<?xml version="1.0" encoding="UTF-8" standalone="no"?>
<svg
   xmlns:dc="http://purl.org/dc/elements/1.1/"
   xmlns:cc="http://creativecommons.org/ns#"
   xmlns:rdf="http://www.w3.org/1999/02/22-rdf-syntax-ns#"
   xmlns:svg="http://www.w3.org/2000/svg"
   xmlns="http://www.w3.org/2000/svg"
   xmlns:sodipodi="http://sodipodi.sourceforge.net/DTD/sodipodi-0.dtd"
   xmlns:inkscape="http://www.inkscape.org/namespaces/inkscape"
   width="256"
   height="256"
   viewBox="0 0 72.248892 72.248892"
   id="svg4295"
   version="1.1"
   inkscape:version="0.92.5 (2060ec1f9f, 2020-04-08)"
   sodipodi:docname="point_cross_circle_square.svg"
   inkscape:export-filename="D:\LC_Recources\icons\points24.png"
   inkscape:export-xdpi="8.4375"
   inkscape:export-ydpi="8.4375">
  <metadata
     id="metadata4325">
    <rdf:RDF>
      <cc:Work
         rdf:about="">
        <dc:format>image/svg+xml</dc:format>
        <dc:type
           rdf:resource="http://purl.org/dc/dcmitype/StillImage" />
        <dc:title />
      </cc:Work>
    </rdf:RDF>
  </metadata>
  <defs
     id="defs4323" />
  <sodipodi:namedview
     pagecolor="#ffffff"
     bordercolor="#666666"
     borderopacity="1"
     objecttolerance="10"
     gridtolerance="10"
     guidetolerance="10"
     inkscape:pageopacity="0"
     inkscape:pageshadow="2"
     inkscape:window-width="1920"
     inkscape:window-height="1057"
     id="namedview4321"
     showgrid="true"
     units="px"
     inkscape:snap-grids="true"
     inkscape:zoom="3.3945312"
     inkscape:cx="90.813928"
     inkscape:cy="126.82163"
     inkscape:window-x="1920"
     inkscape:window-y="0"
     inkscape:window-maximized="1"
     inkscape:current-layer="svg4295"
     inkscape:object-nodes="true"
     inkscape:snap-object-midpoints="false"
     showguides="false">
    <inkscape:grid
       type="xygrid"
       id="grid4867" />
  </sodipodi:namedview>
  <path
     style="display:inline;fill:#000000;stroke-width:6.25782633;stroke-miterlimit:4;stroke-dasharray:none"
     d="M 129.13281,66.021484 A 62.499999,62.499999 0 0 0 65.025391,126.74023 l -0.01367,0.50586 a 62.499999,62.499999 0 0 0 61.107419,63.73829 62.499999,62.499999 0 0 0 63.86328,-60.97852 62.499999,62.499999 0 0 0 -60.84961,-63.984376 z m -0.1289,5.011719 a 57.732794,57.26626 44.999608 0 1 55.98047,59.320317 57.732794,57.26626 44.999608 0 1 -58.75391,55.62109 57.732794,57.26626 44.999608 0 1 -56.218751,-59.09375 l 0.01172,-0.4668 A 57.732794,57.26626 44.999608 0 1 129.00391,71.033203 Z"
     transform="scale(0.28222223)"
     id="path4671"
     inkscape:connector-curvature="0" />
  <path
     id="path4651"
     style="display:inline;fill:none;stroke:#000000;stroke-width:1.42726827;stroke-linecap:butt;stroke-linejoin:miter;stroke-miterlimit:4;stroke-dasharray:none;stroke-opacity:1"
     d="M 5.6502239,5.9322252 66.293055,66.598801 m 0,-60.666576 -60.6428312,60.666576"
     inkscape:connector-curvature="0" />
  <path
     id="rect17"
     style="display:inline;fill:#000000;stroke-width:0.28222224"
     d="m 16.933334,17.215555 h 1.411111 v 38.100002 h -1.411111 z m 0,36.688891 h 38.100003 v 1.411111 H 16.933334 Z M 53.622223,18.626667 h 1.411111 V 53.904446 H 53.622223 Z M 16.933334,17.215555 h 38.100003 v 1.411111 H 16.933334 Z"
     inkscape:connector-curvature="0" />
</svg>
