<?xml version="1.0" encoding="UTF-8" standalone="no"?>
<svg
   xmlns:dc="http://purl.org/dc/elements/1.1/"
   xmlns:cc="http://creativecommons.org/ns#"
   xmlns:rdf="http://www.w3.org/1999/02/22-rdf-syntax-ns#"
   xmlns:svg="http://www.w3.org/2000/svg"
   xmlns="http://www.w3.org/2000/svg"
   xmlns:sodipodi="http://sodipodi.sourceforge.net/DTD/sodipodi-0.dtd"
   xmlns:inkscape="http://www.inkscape.org/namespaces/inkscape"
   width="256"
   height="256"
   viewBox="0 0 72.248892 72.248892"
   id="svg4295"
   version="1.1"
   inkscape:version="0.92.5 (2060ec1f9f, 2020-04-08)"
   sodipodi:docname="point_tick_circle_square.svg"
   inkscape:export-filename="D:\LC_Recources\icons\points24.png"
   inkscape:export-xdpi="8.4375"
   inkscape:export-ydpi="8.4375">
  <metadata
     id="metadata4325">
    <rdf:RDF>
      <cc:Work
         rdf:about="">
        <dc:format>image/svg+xml</dc:format>
        <dc:type
           rdf:resource="http://purl.org/dc/dcmitype/StillImage" />
        <dc:title />
      </cc:Work>
    </rdf:RDF>
  </metadata>
  <defs
     id="defs4323" />
  <sodipodi:namedview
     pagecolor="#ffffff"
     bordercolor="#666666"
     borderopacity="1"
     objecttolerance="10"
     gridtolerance="10"
     guidetolerance="10"
     inkscape:pageopacity="0"
     inkscape:pageshadow="2"
     inkscape:window-width="1920"
     inkscape:window-height="1057"
     id="namedview4321"
     showgrid="true"
     units="px"
     inkscape:snap-grids="true"
     inkscape:zoom="3.3945312"
     inkscape:cx="72.114193"
     inkscape:cy="128"
     inkscape:window-x="1920"
     inkscape:window-y="0"
     inkscape:window-maximized="1"
     inkscape:current-layer="svg4295"
     inkscape:object-nodes="true"
     inkscape:snap-object-midpoints="false"
     showguides="false">
    <inkscape:grid
       type="xygrid"
       id="grid4867" />
  </sodipodi:namedview>
  <path
     style="display:inline;fill:#000000;stroke-width:6.25782633;stroke-miterlimit:4;stroke-dasharray:none"
     d="M 129.13281 66.021484 A 62.499999 62.499999 0 0 0 65.025391 126.74023 L 65.011719 127.24609 A 62.499999 62.499999 0 0 0 126.11914 190.98438 A 62.499999 62.499999 0 0 0 189.98242 130.00586 A 62.499999 62.499999 0 0 0 129.13281 66.021484 z M 129.00391 71.033203 A 57.732794 57.26626 44.999608 0 1 184.98438 130.35352 A 57.732794 57.26626 44.999608 0 1 126.23047 185.97461 A 57.732794 57.26626 44.999608 0 1 70.011719 126.88086 L 70.023438 126.41406 A 57.732794 57.26626 44.999608 0 1 129.00391 71.033203 z "
     transform="scale(0.28222223)"
     id="path4671" />
  <rect
     style="fill:#000000;stroke-width:0.77588737;stroke-miterlimit:4;stroke-dasharray:none"
     id="rect4724"
     width="1.4111111"
     height="18.344446"
     x="35.277779"
     y="18.626667"
     sodipodi:insensitive="true" />
  <path
     style="fill:#000000;stroke-width:5;stroke-miterlimit:4;stroke-dasharray:none"
     d="M 60 61 L 60 66 L 60 191 L 60 196 L 65 196 L 190 196 L 195 196 L 195 66 L 195 61 L 60 61 z M 65 66 L 190 66 L 190 191 L 65 191 L 65 66 z "
     transform="scale(0.28222223)"
     id="rect4726" />
</svg>
