<svg height="256" viewBox="0 0 72.248892 72.248892" width="256" xmlns="http://www.w3.org/2000/svg"><path d="m24.680047 35.799996a12.160387 15.543803.471186 0 1 6.190689-13.410872 12.160387 15.543803.471186 0 1 12.159976.100003 12.160387 15.543803.471186 0 1 5.969287 13.510874" fill="none" stroke="#00ff7f" stroke-width="2.25778"/><g stroke="#000"><g stroke-width="2.25778"><g fill="#00ff7f" stroke-dashoffset="1.6" transform="matrix(-.00822365 .99996619 -.99996619 -.00822365 0 0)"><circle cx="59.755825" cy="-60.519871" r="5.644445"/><circle cx="35.822369" cy="-50.164314" r="5.644445"/><circle cx="35.822369" cy="-25.328749" r="5.644445"/><circle cx="9.746844" cy="-14.097687" r="5.644445"/></g><g fill="none"><path d="m15.174266 14.525546 7.385191 16.403409"/><path d="m15.174266 14.525546 7.385191 16.403409"/><path d="m51.585251 41.172484 5.759361 13.612388"/></g></g><g fill="none"><path d="m44.995913 36.335971-13.999526-.115132" stroke-dasharray="1.693333 1.693333" stroke-dashoffset="0" stroke-opacity="1" stroke-width="1.693333"/><path d="m24.617586 31.454649a12.417779 12.991985.471186 0 1 6.301208-11.19995 12.417779 12.991985.471186 0 1 12.417359.10212 12.417779 12.991985.471186 0 1 6.116151 11.302069" stroke-width="2.25778"/></g></g></svg>
