<svg height="256" viewBox="0 0 72.248892 72.248892" width="256" xmlns="http://www.w3.org/2000/svg"><g stroke="#000"><g fill="#00ff7f" stroke-dashoffset="1.6" stroke-width="2.25778"><circle cx="61.355556" cy="8.773336" r="5.644445"/><circle cx="37.4221" cy="19.128891" r="5.644445"/><circle cx="37.4221" cy="43.964458" r="5.644445"/></g><path d="m32.342121 43.96441a12.418459 12.417779 0 0 1 -10.754701-6.20889 12.418459 12.417779 0 0 1 0-12.417779 12.418459 12.417779 0 0 1 10.754701-6.208889" fill="none" stroke-dasharray="1.411111 1.411111" stroke-dashoffset="0" stroke-opacity="1" stroke-width="1.411111"/><circle cx="11.346578" cy="55.195518" fill="#00ff7f" r="5.644445" stroke-dashoffset="1.6" stroke-width="2.25778"/><g fill="none"><path d="m38.000001 49.000002a12.418459 12.417779 65.44355 0 1 -1.177768 12.362312 12.418459 12.417779 65.44355 0 1 -11.294619 5.160699 12.418459 12.417779 65.44355 0 1 -10.116851-7.201613" stroke-dasharray="1.411111 1.411111" stroke-dashoffset="0" stroke-opacity="1" stroke-width="1.411111"/><path d="m63.133638 13.544061a12.418459 12.417779 65.44355 0 1 -1.177768 12.362313 12.418459 12.417779 65.44355 0 1 -11.29462 5.160699 12.418459 12.417779 65.44355 0 1 -10.11685-7.201613" stroke-dasharray="1.411111 1.411111" stroke-dashoffset="0" stroke-opacity="1" stroke-width="1.411111"/><g stroke-width="2.25778"><path d="m16 54 16.342121-7.519837"/><path d="m16 54 16.342121-7.519837"/><path d="m42.346605 17.371111 13.564565-5.87111"/><path d="m37.564444 24v14"/></g></g></g></svg>
