<?xml version="1.0" encoding="UTF-8" standalone="no"?>
<!-- Created with Inkscape (http://www.inkscape.org/) -->

<svg
   xmlns:dc="http://purl.org/dc/elements/1.1/"
   xmlns:cc="http://creativecommons.org/ns#"
   xmlns:rdf="http://www.w3.org/1999/02/22-rdf-syntax-ns#"
   xmlns:svg="http://www.w3.org/2000/svg"
   xmlns="http://www.w3.org/2000/svg"
   xmlns:sodipodi="http://sodipodi.sourceforge.net/DTD/sodipodi-0.dtd"
   xmlns:inkscape="http://www.inkscape.org/namespaces/inkscape"
   version="1.1"
   id="svg28"
   width="121.90476"
   height="121.90476"
   viewBox="0 0 121.90476 121.90476"
   sodipodi:docname="ProNestIcon.svg"
   inkscape:version="0.92.4 (5da689c313, 2019-01-14)">
  <metadata
     id="metadata34">
    <rdf:RDF>
      <cc:Work
         rdf:about="">
        <dc:format>image/svg+xml</dc:format>
        <dc:type
           rdf:resource="http://purl.org/dc/dcmitype/StillImage" />
        <dc:title></dc:title>
      </cc:Work>
    </rdf:RDF>
  </metadata>
  <defs
     id="defs32" />
  <sodipodi:namedview
     pagecolor="#ffffff"
     bordercolor="#666666"
     borderopacity="1"
     objecttolerance="10"
     gridtolerance="10"
     guidetolerance="10"
     inkscape:pageopacity="0"
     inkscape:pageshadow="2"
     inkscape:window-width="1920"
     inkscape:window-height="1001"
     id="namedview30"
     showgrid="false"
     inkscape:zoom="3.3140625"
     inkscape:cx="56.12447"
     inkscape:cy="71.294422"
     inkscape:window-x="-9"
     inkscape:window-y="-9"
     inkscape:window-maximized="1"
     inkscape:current-layer="svg28" />
  <path
     style="fill:#ffffff;stroke-width:0.30174446"
     d="M 20.397926,60.899826 V 5.2279734 H 32.91753 45.437134 l 0.07823,15.1626596 0.07823,15.162659 12.748704,0.07871 12.748703,0.07871 v 9.951016 9.951016 l -12.748703,0.07871 -12.748704,0.07871 -0.07688,30.400754 -0.07688,30.400752 H 32.918877 20.397926 Z"
     id="path61"
     inkscape:connector-curvature="0" />
  <path
     style="fill:#ffffff;stroke-width:0.30174446"
     d="M 50.874116,73.573094 V 61.050699 H 63.547383 76.220651 V 45.661731 30.272764 H 63.547383 50.874116 V 17.722458 5.1721526 l 18.029232,0.1435002 c 18.910726,0.1505164 20.223496,0.2390303 23.913248,1.6123569 4.467089,1.6626513 6.609459,5.0425963 7.720404,12.1802093 0.6866,4.411275 1.10714,20.723725 0.8907,34.54974 -0.32987,21.072255 -0.9018,24.697495 -4.436714,28.122358 -3.777179,3.659584 -8.462692,4.31261 -30.954211,4.31414 l -15.162659,10e-4 z"
     id="path63"
     inkscape:connector-curvature="0" />
  <path
     style="fill:#ff0000;stroke-width:2.03174591"
     d="M 24,61.142861 V 12.380958 h 31.111943 31.111944 l 5.459484,5.698476 c 5.330111,5.563442 5.459481,6.300683 5.459481,31.111941 0,25.191787 -0.0497,25.461087 -5.698465,30.872951 -5.23678,5.017142 -7.047572,5.459486 -22.349212,5.459486 H 52.444447 V 97.714291 109.90476 H 38.222223 24 Z m 24.380951,20.31746 V 57.079369 H 58.539679 68.698415 V 48.952385 40.825401 H 58.539679 48.380951 V 28.634925 16.444449 H 38.222223 28.063495 v 44.698412 44.698419 h 10.158728 10.158728 z m 40.982876,-3.362515 c 3.222552,-2.916364 3.715536,-6.73664 3.715536,-28.7924 0,-32.528914 -0.239264,-32.860957 -23.679972,-32.860957 H 52.444447 V 26.603178 36.761909 H 62.603175 72.761903 V 48.952385 61.142861 H 62.603175 52.444447 v 10.15873 10.15873 h 16.60192 c 12.597064,0 17.498216,-0.811134 20.31746,-3.362515 z"
     id="path38"
     inkscape:connector-curvature="0" />
</svg>
