<?xml version="1.0" encoding="UTF-8" standalone="no"?>
<svg
   width="256"
   height="256"
   viewBox="0 0 72.248892 72.248892"
   id="svg4295"
   version="1.1"
   inkscape:version="1.2.2 (732a01da63, 2022-12-09)"
   sodipodi:docname="line_rectangle_rel.svg"
   inkscape:export-filename="D:\LC_Recources\icons\linerect.png"
   inkscape:export-xdpi="11.25"
   inkscape:export-ydpi="11.25"
   xmlns:inkscape="http://www.inkscape.org/namespaces/inkscape"
   xmlns:sodipodi="http://sodipodi.sourceforge.net/DTD/sodipodi-0.dtd"
   xmlns="http://www.w3.org/2000/svg"
   xmlns:svg="http://www.w3.org/2000/svg"
   xmlns:rdf="http://www.w3.org/1999/02/22-rdf-syntax-ns#"
   xmlns:cc="http://creativecommons.org/ns#"
   xmlns:dc="http://purl.org/dc/elements/1.1/">
  <metadata
     id="metadata4325">
    <rdf:RDF>
      <cc:Work
         rdf:about="">
        <dc:format>image/svg+xml</dc:format>
        <dc:type
           rdf:resource="http://purl.org/dc/dcmitype/StillImage" />
        <dc:title />
      </cc:Work>
    </rdf:RDF>
  </metadata>
  <defs
     id="defs4323" />
  <sodipodi:namedview
     pagecolor="#ffffff"
     bordercolor="#666666"
     borderopacity="1"
     objecttolerance="10"
     gridtolerance="10"
     guidetolerance="10"
     inkscape:pageopacity="0"
     inkscape:pageshadow="2"
     inkscape:window-width="3840"
     inkscape:window-height="2126"
     id="namedview4321"
     showgrid="true"
     units="px"
     inkscape:snap-grids="true"
     inkscape:zoom="0.65807886"
     inkscape:cx="-94.213632"
     inkscape:cy="368.49687"
     inkscape:window-x="-11"
     inkscape:window-y="-11"
     inkscape:window-maximized="1"
     inkscape:current-layer="svg4295"
     inkscape:object-nodes="true"
     inkscape:snap-object-midpoints="false"
     showguides="false"
     inkscape:showpageshadow="2"
     inkscape:pagecheckerboard="0"
     inkscape:deskcolor="#d1d1d1">
    <inkscape:grid
       type="xygrid"
       id="grid4867" />
  </sodipodi:namedview>
  <path
     sodipodi:nodetypes="cc"
     inkscape:connector-curvature="0"
     id="path701"
     d="M 60.144774,57.092868 70.547185,26.993946"
     style="fill:none;fill-rule:evenodd;stroke:#000000;stroke-width:1.99862;stroke-linecap:butt;stroke-linejoin:miter;stroke-miterlimit:4;stroke-dasharray:none;stroke-opacity:1" />
  <path
     sodipodi:nodetypes="cc"
     inkscape:connector-curvature="0"
     id="path587"
     d="M 17.207652,56.757657 29.270113,27.284749"
     style="fill:none;fill-rule:evenodd;stroke:#000000;stroke-width:1.99862;stroke-linecap:butt;stroke-linejoin:miter;stroke-miterlimit:4;stroke-dasharray:none;stroke-opacity:1" />
  <rect
     inkscape:export-ydpi="192.85715"
     inkscape:export-xdpi="192.85715"
     inkscape:export-filename="/home/prar/LibreCAD editado/res/extui/linestan2.png"
     ry="0"
     y="5.2313447"
     x="4.6073122"
     height="62.687038"
     width="62.682362"
     id="rect3021-8-3-9-7-5-6-2-0-7-0-0-3-3-9-1"
     style="color:#000000;display:inline;overflow:visible;visibility:visible;opacity:0;fill:none;stroke:#000000;stroke-width:0.532929;stroke-linecap:square;stroke-linejoin:miter;stroke-miterlimit:4;stroke-dasharray:none;stroke-dashoffset:0;stroke-opacity:1;marker:none;enable-background:accumulate" />
  <path
     sodipodi:nodetypes="cc"
     inkscape:connector-curvature="0"
     id="path5727"
     d="m 13.546668,14.675557 39.275385,-10e-7"
     style="fill:none;fill-rule:evenodd;stroke:#000000;stroke-width:2.21955;stroke-linecap:butt;stroke-linejoin:miter;stroke-miterlimit:4;stroke-dasharray:none;stroke-opacity:1" />
  <path
     sodipodi:nodetypes="cc"
     style="fill:none;fill-rule:evenodd;stroke:#000000;stroke-width:2.25778;stroke-linecap:butt;stroke-linejoin:miter;stroke-miterlimit:4;stroke-dasharray:none;stroke-opacity:1"
     d="m 14.675594,54.18667 -3.7e-5,-39.511113"
     id="path5731"
     inkscape:connector-curvature="0" />
  <path
     sodipodi:nodetypes="cc"
     style="fill:none;fill-rule:evenodd;stroke:#000000;stroke-width:2.07264;stroke-linecap:butt;stroke-linejoin:miter;stroke-miterlimit:4;stroke-dasharray:none;stroke-opacity:1"
     d="m 18.0623,57.5733 33.294371,3.7e-5"
     id="path5733"
     inkscape:connector-curvature="0" />
  <circle
     inkscape:export-ydpi="11.25"
     inkscape:export-xdpi="11.25"
     r="5.6444449"
     cy="14.675582"
     cx="57.57328"
     id="path10169"
     style="fill:#00ff7f;fill-opacity:0;fill-rule:nonzero;stroke:#000000;stroke-width:2.25778;stroke-linecap:square;stroke-linejoin:miter;stroke-miterlimit:4;stroke-dasharray:none;stroke-dashoffset:8;stroke-opacity:1" />
  <path
     style="fill:#00ff7f;fill-opacity:1;stroke:#000000;stroke-width:0.0268625;stroke-opacity:0"
     d="m 200.2874,67.39974 c -2.83764,-0.686607 -4.94505,-1.915898 -7.30519,-4.261253 -1.62859,-1.618385 -2.42405,-2.669149 -3.17008,-4.187502 -3.04482,-6.19693 -1.76984,-13.470126 3.19522,-18.227353 6.44622,-6.176392 15.93206,-6.083356 22.16355,0.217378 3.19178,3.227247 4.56467,6.595963 4.56467,11.200459 0,4.426425 -1.68596,8.276789 -4.96885,11.347776 -3.91903,3.666057 -9.38668,5.142731 -14.47932,3.910495 z"
     id="path521"
     transform="scale(0.28222223)" />
  <path
     sodipodi:nodetypes="cc"
     inkscape:connector-curvature="0"
     id="path585"
     d="m 29.186158,28.517763 39.275385,-10e-7"
     style="fill:#00ff7f;fill-opacity:1;fill-rule:evenodd;stroke:#000000;stroke-width:2.21955;stroke-linecap:butt;stroke-linejoin:miter;stroke-miterlimit:4;stroke-dasharray:none;stroke-opacity:1" />
  <path
     style="fill:#00ff7f;fill-opacity:1;stroke:#000000;stroke-width:0.00802203;stroke-opacity:0"
     d="m 27.444185,27.633495 v -1.061149 h 21.94737 21.947373 v 1.061149 1.061149 H 49.391555 27.444185 Z"
     id="path591" />
  <path
     style="fill:#00ff7f;fill-opacity:1;stroke:#000000;stroke-width:0.0268625;stroke-opacity:0"
     d="m 77.764556,126.52256 c 4e-6,-31.026231 0.03134,-43.67891 0.06964,-28.117061 0.0383,15.561851 0.0383,40.946951 -5e-6,56.411331 -0.0383,15.46439 -0.06964,2.73197 -0.06964,-28.29427 z"
     id="path595"
     transform="scale(0.28222223)" />
  <path
     style="fill:#00ff7f;fill-opacity:1;stroke:#000000;stroke-width:0.0268625;stroke-opacity:0"
     d="m 32.904115,123.56768 c 3e-6,-31.026231 0.03134,-43.678909 0.06964,-28.117061 0.0383,15.561851 0.0383,40.946951 -6e-6,56.411331 -0.0383,15.46439 -0.06964,2.73197 -0.06964,-28.29427 z"
     id="path599"
     transform="scale(0.28222223)" />
  <path
     style="fill:#00ff7f;fill-opacity:1;stroke:#000000;stroke-width:0.00758119;stroke-opacity:0"
     d="m 21.448086,41.265622 5.953099,-14.724754 0.878565,0.355197 0.878566,0.355196 -5.953099,14.724755 -5.953099,14.724755 -0.878565,-0.355197 -0.878566,-0.355196 z"
     id="path601" />
  <path
     style="fill:#00ff7f;fill-opacity:1;stroke:#000000;stroke-width:0.00758119;stroke-opacity:0"
     d="m 63.053447,43.126047 5.267021,-14.983867 0.894025,0.314261 0.894026,0.314261 -5.267021,14.983867 -5.267021,14.983868 -0.894025,-0.314261 -0.894026,-0.314261 z"
     id="path603" />
  <circle
     r="5.6444449"
     cy="57.573383"
     cx="14.675478"
     id="circle5725"
     style="fill:#00ff7f;fill-opacity:1;fill-rule:nonzero;stroke:#000000;stroke-width:2.25778;stroke-linecap:square;stroke-linejoin:miter;stroke-miterlimit:4;stroke-dasharray:none;stroke-dashoffset:8;stroke-opacity:1" />
  <path
     style="fill:#00ff7f;fill-opacity:1;stroke:#000000;stroke-width:0.0268625;stroke-opacity:0"
     d="m 199.32004,218.11844 c -5.48667,-1.50256 -10.1258,-6.276 -11.4155,-11.74602 -2.56985,-10.89951 7.07882,-21.15017 18.05409,-19.18052 3.37725,0.60609 5.96422,1.9727 8.41348,4.44459 2.32559,2.34708 3.52354,4.42214 4.29556,7.44072 1.97129,7.70769 -2.3347,15.67085 -10.08005,18.64123 -2.09715,0.80426 -7.01613,1.01658 -9.26758,0.4 z"
     id="path519"
     transform="scale(0.28222223)" />
  <circle
     inkscape:export-ydpi="11.25"
     inkscape:export-xdpi="11.25"
     r="5.6444449"
     cy="57.229816"
     cx="57.381439"
     id="path10169-2"
     style="fill:#00ff7f;fill-opacity:0;fill-rule:nonzero;stroke:#000000;stroke-width:2.25778;stroke-linecap:square;stroke-linejoin:miter;stroke-miterlimit:4;stroke-dasharray:none;stroke-dashoffset:8;stroke-opacity:1" />
  <path
     sodipodi:nodetypes="cc"
     inkscape:connector-curvature="0"
     id="path5729"
     d="m 57.573337,51.272644 10e-7,-31.845804"
     style="fill:none;fill-rule:evenodd;stroke:#000000;stroke-width:1.99862;stroke-linecap:butt;stroke-linejoin:miter;stroke-miterlimit:4;stroke-dasharray:none;stroke-opacity:1" />
</svg>
