<?xml version="1.0" encoding="UTF-8" standalone="no"?>
<svg
   width="256"
   height="256"
   viewBox="0 0 72.248892 72.248892"
   id="svg4295"
   version="1.1"
   inkscape:version="1.2.2 (732a01da63, 2022-12-09)"
   sodipodi:docname="rectangle_2_points.svg"
   inkscape:export-filename="D:\LC_Recources\icons\linerect.png"
   inkscape:export-xdpi="11.25"
   inkscape:export-ydpi="11.25"
   xmlns:inkscape="http://www.inkscape.org/namespaces/inkscape"
   xmlns:sodipodi="http://sodipodi.sourceforge.net/DTD/sodipodi-0.dtd"
   xmlns="http://www.w3.org/2000/svg"
   xmlns:svg="http://www.w3.org/2000/svg"
   xmlns:rdf="http://www.w3.org/1999/02/22-rdf-syntax-ns#"
   xmlns:cc="http://creativecommons.org/ns#"
   xmlns:dc="http://purl.org/dc/elements/1.1/">
  <metadata
     id="metadata4325">
    <rdf:RDF>
      <cc:Work
         rdf:about="">
        <dc:format>image/svg+xml</dc:format>
        <dc:type
           rdf:resource="http://purl.org/dc/dcmitype/StillImage" />
        <dc:title />
      </cc:Work>
    </rdf:RDF>
  </metadata>
  <defs
     id="defs4323" />
  <sodipodi:namedview
     pagecolor="#ffffff"
     bordercolor="#666666"
     borderopacity="1"
     objecttolerance="10"
     gridtolerance="10"
     guidetolerance="10"
     inkscape:pageopacity="0"
     inkscape:pageshadow="2"
     inkscape:window-width="3840"
     inkscape:window-height="2126"
     id="namedview4321"
     showgrid="true"
     units="px"
     inkscape:snap-grids="true"
     inkscape:zoom="1.8613281"
     inkscape:cx="138.6107"
     inkscape:cy="243.64324"
     inkscape:window-x="-11"
     inkscape:window-y="-11"
     inkscape:window-maximized="1"
     inkscape:current-layer="svg4295"
     inkscape:object-nodes="true"
     inkscape:snap-object-midpoints="false"
     showguides="false"
     inkscape:showpageshadow="2"
     inkscape:pagecheckerboard="0"
     inkscape:deskcolor="#d1d1d1">
    <inkscape:grid
       type="xygrid"
       id="grid4867" />
  </sodipodi:namedview>
  <path
     style="fill:#00ff7f;fill-opacity:1;stroke:#000000;stroke-width:0.00758119;stroke-opacity:0"
     d="m 36.943179,63.341004 c -2.289248,-0.320596 -4.269757,-2.053361 -4.852506,-4.245505 -0.160875,-0.605164 -0.177752,-1.980887 -0.03162,-2.577609 0.148406,-0.606025 0.698762,-1.715319 1.096955,-2.21102 1.732063,-2.156194 4.841819,-2.792425 7.327618,-1.49917 2.552353,1.327881 3.694473,4.183245 2.730591,6.82664 -0.638147,1.750085 -2.254803,3.160979 -4.114831,3.591111 -0.630468,0.145799 -1.577747,0.196562 -2.156204,0.115553 z m 1.862667,-1.929655 c 0.928537,-0.247139 1.850049,-0.911487 2.347643,-1.692492 0.548053,-0.860205 0.701461,-2.065926 0.390816,-3.071679 -0.561208,-1.81698 -2.537751,-2.958738 -4.511921,-2.606327 -3.354109,0.598742 -4.417571,4.652388 -1.751564,6.676514 0.425811,0.323291 0.885777,0.549966 1.412217,0.695954 0.469246,0.13013 1.620526,0.129055 2.112809,-0.002 z"
     id="path1625" />
  <path
     style="fill:#00ff7f;fill-opacity:1;stroke:#000000;stroke-width:0.00758119;stroke-opacity:0"
     d="m 35.239785,20.358994 c -1.942008,-0.356305 -3.560911,-1.555251 -4.355262,-3.225469 -0.386906,-0.813518 -0.514048,-1.396204 -0.512806,-2.350173 0.0013,-0.985827 0.132822,-1.551226 0.5644,-2.425986 0.646767,-1.310924 1.832587,-2.348483 3.262294,-2.8544155 3.211375,-1.1364148 6.739567,0.6941315 7.620338,3.9536895 0.179348,0.663733 0.181628,1.986135 0.0046,2.653422 -0.520134,1.960308 -2.082247,3.530619 -4.070993,4.092359 -0.63436,0.17918 -1.94438,0.260816 -2.512546,0.156573 z m 2.056511,-1.949959 c 1.707333,-0.4696 2.808284,-1.891001 2.808284,-3.625683 0,-1.397087 -0.695521,-2.569812 -1.935806,-3.26398 -0.694499,-0.3887 -1.286682,-0.513487 -2.23291,-0.470525 -1.157181,0.05254 -1.919819,0.390817 -2.704354,1.199553 -0.708615,0.730475 -1.011384,1.48934 -1.011384,2.534952 0,2.571809 2.476554,4.340703 5.07617,3.625683 z"
     id="path1619" />
  <path
     style="fill:#00ff7f;fill-opacity:1;stroke:#000000;stroke-width:0.00758119;stroke-opacity:0"
     d="m 56.821136,42.007932 c -2.218295,-0.428202 -4.049228,-2.099988 -4.593121,-4.193885 -0.207064,-0.797162 -0.207064,-1.899733 0,-2.696896 0.457801,-1.76246 1.851981,-3.270444 3.620273,-3.915793 3.101769,-1.132005 6.500058,0.480229 7.580495,3.596377 0.190946,0.550715 0.210286,0.704111 0.210286,1.667866 0,0.963752 -0.01933,1.117148 -0.210286,1.667865 -0.638257,1.840834 -2.109569,3.219798 -4.00512,3.753737 -0.715253,0.201473 -1.899604,0.256413 -2.602527,0.120729 z m 2.247423,-1.938506 c 0.550977,-0.170242 1.275326,-0.583113 1.642745,-0.936348 0.357884,-0.344069 0.754564,-0.96645 0.939171,-1.473536 0.22321,-0.613111 0.22321,-1.774774 0,-2.387885 -0.43384,-1.191686 -1.377202,-2.054651 -2.6635,-2.436512 -0.469748,-0.139452 -1.602551,-0.160985 -2.125822,-0.04041 -0.58593,0.135013 -1.27889,0.518606 -1.774656,0.982368 -1.581935,1.479824 -1.581935,3.897167 0,5.376991 0.480695,0.449667 1.194985,0.851086 1.74362,0.979887 0.554657,0.130214 1.716529,0.09671 2.238442,-0.06456 z"
     id="path1623" />
  <path
     style="fill:#00ff7f;fill-opacity:1;stroke:#000000;stroke-width:0.00758119;stroke-opacity:0"
     d="M 13.658019,41.581157 C 11.773307,41.320855 10.027897,40.084668 9.2111166,38.431633 8.7715806,37.54208 8.6158639,36.778547 8.6636679,35.747299 c 0.064802,-1.39794 0.5086776,-2.459803 1.4505331,-3.470048 1.23736,-1.327203 2.867295,-1.992934 4.628144,-1.890318 0.959542,0.05592 1.484779,0.19626 2.391181,0.638914 0.617178,0.301408 0.823716,0.455379 1.443697,1.07625 0.562838,0.56365 0.794828,0.862782 1.044803,1.34719 1.219954,2.364049 0.602065,5.227684 -1.486126,6.887507 -0.540249,0.429423 -1.640148,0.96783 -2.29118,1.121542 -0.646979,0.152756 -1.587473,0.205582 -2.186701,0.122821 z m 1.842397,-1.933815 c 0.994438,-0.259018 2.023821,-1.047093 2.483985,-1.901681 0.730834,-1.357264 0.510605,-3.094601 -0.535054,-4.220911 -0.793364,-0.854559 -1.819598,-1.297271 -3.00715,-1.297271 -2.920676,0 -4.8106234,2.840917 -3.590588,5.397272 0.432279,0.905758 1.466429,1.740933 2.499829,2.018848 0.542561,0.145915 1.596103,0.147749 2.148978,0.0038 z"
     id="path1621" />
  <rect
     inkscape:export-ydpi="192.85715"
     inkscape:export-xdpi="192.85715"
     inkscape:export-filename="/home/prar/LibreCAD editado/res/extui/linestan2.png"
     ry="0"
     y="5.2313447"
     x="4.6073122"
     height="62.687038"
     width="62.682362"
     id="rect3021-8-3-9-7-5-6-2-0-7-0-0-3-3-9-1"
     style="color:#000000;display:inline;overflow:visible;visibility:visible;opacity:0;fill:none;stroke:#000000;stroke-width:0.5329293;stroke-linecap:square;stroke-linejoin:miter;stroke-miterlimit:4;stroke-dasharray:none;stroke-dashoffset:0;stroke-opacity:1;marker:none;enable-background:accumulate" />
  <path
     sodipodi:nodetypes="cc"
     inkscape:connector-curvature="0"
     id="path5727"
     d="m 13.546668,14.675557 45.264538,-10e-7"
     style="fill:none;fill-rule:evenodd;stroke:#000000;stroke-width:2.38278;stroke-linecap:butt;stroke-linejoin:miter;stroke-miterlimit:4;stroke-dasharray:none;stroke-opacity:1" />
  <path
     sodipodi:nodetypes="cc"
     inkscape:connector-curvature="0"
     id="path5729"
     d="m 57.573337,58.702226 10e-7,-43.596673"
     style="fill:none;fill-rule:evenodd;stroke:#000000;stroke-width:2.33847;stroke-linecap:butt;stroke-linejoin:miter;stroke-miterlimit:4;stroke-dasharray:none;stroke-opacity:1" />
  <path
     sodipodi:nodetypes="cc"
     style="fill:none;fill-rule:evenodd;stroke:#000000;stroke-width:2.25778;stroke-linecap:butt;stroke-linejoin:miter;stroke-miterlimit:4;stroke-dasharray:none;stroke-opacity:1"
     d="m 14.675594,54.18667 -3.7e-5,-39.511113"
     id="path5731"
     inkscape:connector-curvature="0" />
  <path
     sodipodi:nodetypes="cc"
     style="fill:none;fill-rule:evenodd;stroke:#000000;stroke-width:2.25778;stroke-linecap:butt;stroke-linejoin:miter;stroke-miterlimit:4;stroke-dasharray:none;stroke-opacity:1"
     d="m 18.062223,57.5733 39.511114,3.7e-5"
     id="path5733"
     inkscape:connector-curvature="0" />
  <circle
     inkscape:export-ydpi="11.25"
     inkscape:export-xdpi="11.25"
     r="5.6444449"
     cy="14.869258"
     cx="57.497467"
     id="path10169"
     style="fill:#00ff7f;fill-opacity:1;fill-rule:nonzero;stroke:#000000;stroke-width:2.25778;stroke-linecap:square;stroke-linejoin:miter;stroke-miterlimit:4;stroke-dasharray:none;stroke-dashoffset:8;stroke-opacity:1" />
  <circle
     r="5.6444449"
     cy="57.573383"
     cx="14.675478"
     id="circle5725"
     style="fill:#00ff7f;fill-opacity:1;fill-rule:nonzero;stroke:#000000;stroke-width:2.25778;stroke-linecap:square;stroke-linejoin:miter;stroke-miterlimit:4;stroke-dasharray:none;stroke-dashoffset:8;stroke-opacity:1" />
  <ellipse
     inkscape:export-ydpi="11.25"
     inkscape:export-xdpi="11.25"
     cy="36.23848"
     cx="37.096199"
     id="path10169-8-8"
     style="fill:#00ff7f;fill-opacity:0;fill-rule:nonzero;stroke:#000000;stroke-width:1.92263;stroke-linecap:square;stroke-linejoin:miter;stroke-miterlimit:4;stroke-dasharray:none;stroke-dashoffset:8;stroke-opacity:1"
     rx="4.9022741"
     ry="4.7127438" />
  <path
     style="fill:#000000;fill-opacity:1;stroke:#000000;stroke-width:0.0268625;stroke-opacity:0"
     d="m 127.73138,148.04112 c -7.86011,-1.51725 -14.34767,-7.4409 -16.27485,-14.86022 -0.73369,-2.82459 -0.73369,-6.73133 0,-9.55592 1.62214,-6.24495 6.56214,-11.5882 12.82775,-13.87486 10.99051,-4.01104 23.03169,1.70159 26.86002,12.74306 0.67657,1.95136 0.7451,2.49489 0.7451,5.90976 0,3.41487 -0.0685,3.9584 -0.7451,5.90976 -2.26155,6.52264 -7.47486,11.40873 -14.19138,13.30065 -2.53436,0.71388 -6.73088,0.90855 -9.22154,0.42777 z m 7.96331,-6.86872 c 1.95228,-0.60322 4.51886,-2.06615 5.82074,-3.31777 1.26809,-1.21914 2.67365,-3.42443 3.32778,-5.22118 0.79089,-2.17244 0.79089,-6.28858 0,-8.46102 -1.53724,-4.22251 -4.87986,-7.28026 -9.43761,-8.63331 -1.66446,-0.49412 -5.67832,-0.57042 -7.53244,-0.14318 -2.07613,0.47839 -4.5315,1.83758 -6.28815,3.48084 -5.60528,5.24347 -5.60528,13.80885 0,19.05232 1.70326,1.59331 4.2342,3.01566 6.17818,3.47204 1.96532,0.46139 6.08219,0.34266 7.9315,-0.22874 z"
     id="path1492"
     transform="scale(0.28222223)" />
  <path
     style="fill:#00ff7f;fill-opacity:1;stroke:#000000;stroke-width:0.0268625;stroke-opacity:0"
     d="m 127.73138,148.04112 c -7.86011,-1.51725 -14.34767,-7.4409 -16.27485,-14.86022 -0.73369,-2.82459 -0.73369,-6.73133 0,-9.55592 1.62214,-6.24495 6.56214,-11.5882 12.82775,-13.87486 5.56314,-2.0303 11.36865,-1.66638 16.69436,1.0465 4.91138,2.50182 8.32563,6.43188 10.16141,11.69656 0.68204,1.95595 0.74935,2.48684 0.74935,5.90976 0,3.42292 -0.0673,3.95381 -0.74935,5.90976 -2.29418,6.57927 -7.43596,11.3989 -14.19079,13.30166 -2.53061,0.71285 -6.72889,0.90721 -9.21788,0.42676 z m 7.67422,-6.76978 c 7.71661,-2.26658 11.97145,-10.12654 9.33646,-17.24722 -2.03622,-5.50259 -7.11406,-8.92787 -13.21107,-8.91157 -2.96834,0.008 -4.32629,0.29739 -6.62018,1.41113 -2.1399,1.03897 -5.00827,3.79114 -6.00859,5.76516 -1.49633,2.95286 -1.89096,6.29592 -1.10114,9.32821 1.17114,4.49633 5.0995,8.41148 9.7121,9.67945 1.85417,0.5097 6.11775,0.49611 7.89242,-0.0252 z"
     id="path1494"
     transform="scale(0.28222223)" />
</svg>
