<svg height="256" viewBox="0 0 72.248892 72.248892" width="256" xmlns="http://www.w3.org/2000/svg"><path d="m27.599273 27.24723c14.375185 10.065612 19.038692 23.767105 15.991364 41.049358" style="fill:none;stroke-dashoffset:8;stroke-linecap:square;stroke-width:2.25778;stroke:#00ff7f;stroke-opacity:1"/><path d="m14.080704 57.31025 44.087484-42.371609" fill="none" stroke="#000" stroke-width="4.51556"/><g stroke-width="2.25778"><path d="m52.80395 57.310253-38.723246-.000003" fill="none" stroke="#00ff7f" stroke-opacity="1"/><g fill="#00ff7f" stroke="#000" stroke-dashoffset="20" stroke-linecap="round" transform="matrix(1 0 0 -1 0 0)"><ellipse cx="58.14156" cy="-57.310253" fill-opacity="1" rx="5.33761" ry="5.138966" stroke-dasharray="none"/><ellipse cx="14.080709" cy="-57.310253" rx="6.888669" ry="6.620563"/><ellipse cx="58.152515" cy="-15.337524" fill-opacity="1" rx="6.888669" ry="6.620563" stroke-dasharray="none"/></g></g><path d="m54.978044 44.705332q1.44129 0 2.42503-1.114092.89223-1.002685 1.05237-2.473286.0686-.623891.0686-1.09181 0-5.0357-5.35337-4.991134-1.55568.0223-2.40215 1.916238-.64058 1.448319-.64058 3.208587 0 2.272747 1.71582 3.520531 1.41842 1.024966 3.13424 1.024966zm4.94157 2.072211q-.13726-.534763-.29741-2.04993-.0457-.311945-.18302-1.648858-1.34978 1.626577-3.31726 2.651543-2.12762 1.114092-4.14085 1.114092-2.47078 0-3.84344-1.827112-1.23539-1.626577-1.23539-4.099859 0-2.740669 1.87596-4.590063 1.39554-1.381475 4.43826-2.65154.96087-.401074 2.12763-.401074 2.56229 0 4.04934 1.782549.18302-.646173.45755-1.158658.25165.06685.57194.06685 1.37266 0 3.38589-.82443-1.37266 1.047248-1.37266 5.303083 0 .713018.0458 2.139055.0686 1.426041.0686 2.139059 0 1.537448.27453 2.295031.45755 1.270065 1.7387 1.693421z" fill="#000" stroke="#000" stroke-width=".282222"/></svg>