<?xml version="1.0" encoding="UTF-8" standalone="no"?>
<!-- Created with Inkscape (http://www.inkscape.org/) -->

<svg
   version="1.1"
   id="svg3579"
   width="128"
   height="128"
   viewBox="0 0 128 128"
   sodipodi:docname="reload.svg"
   inkscape:version="1.2.2 (b0a8486541, 2022-12-01)"
   xmlns:inkscape="http://www.inkscape.org/namespaces/inkscape"
   xmlns:sodipodi="http://sodipodi.sourceforge.net/DTD/sodipodi-0.dtd"
   xmlns="http://www.w3.org/2000/svg"
   xmlns:svg="http://www.w3.org/2000/svg">
  <defs
     id="defs3583" />
  <sodipodi:namedview
     id="namedview3581"
     pagecolor="#ffffff"
     bordercolor="#000000"
     borderopacity="0.25"
     inkscape:showpageshadow="2"
     inkscape:pageopacity="0.0"
     inkscape:pagecheckerboard="0"
     inkscape:deskcolor="#d1d1d1"
     showgrid="true"
     inkscape:zoom="6.8583334"
     inkscape:cx="60.437424"
     inkscape:cy="64.520048"
     inkscape:window-width="1920"
     inkscape:window-height="1008"
     inkscape:window-x="0"
     inkscape:window-y="0"
     inkscape:window-maximized="1"
     inkscape:current-layer="g3585">
    <inkscape:grid
       type="xygrid"
       id="grid4071"
       spacingx="64"
       spacingy="64" />
  </sodipodi:namedview>
  <g
     inkscape:groupmode="layer"
     inkscape:label="Image"
     id="g3585">
    <path
       style="fill:#000000;stroke-width:0.999999"
       d="M 49.356014,112.18187 C 35.991883,108.23352 24.579936,98.150509 18.903661,85.275725 15.987131,78.660524 14.654155,72.366285 14.653828,65.20825 14.653305,53.77856 18.818583,42.567085 26.393739,33.608509 c 0.745916,-0.882138 1.591815,-1.830004 1.879777,-2.106367 0.287962,-0.276363 0.523568,-0.564127 0.523568,-0.639476 0,-0.07535 -2.029596,-2.190965 -4.510214,-4.701367 -2.480617,-2.510403 -4.578799,-4.692522 -4.662626,-4.849155 -0.186209,-0.347934 -1.49957,-0.09929 10.558016,-1.998827 21.540675,-3.393491 27.410028,-4.272908 27.554402,-4.128533 0.12392,0.123919 -1.243726,8.926351 -4.369033,28.119958 -1.301712,7.994256 -1.63791,9.922771 -1.749249,10.03411 -0.0367,0.0367 -2.084226,-1.979844 -4.550062,-4.481207 -2.465835,-2.501362 -4.689955,-4.67563 -4.94249,-4.831706 -0.810635,-0.500999 -1.108913,-0.393123 -2.178554,0.787892 -3.757081,4.148277 -6.537024,10.254764 -7.452891,16.37118 -0.322617,2.154521 -0.317916,6.443922 0.0094,8.583887 0.528019,3.452066 1.376036,6.159088 2.923307,9.331713 3.806061,7.804202 9.919338,13.115968 18.631226,16.18849 0.621506,0.219193 1.130012,0.467606 1.130012,0.552027 0,0.244337 -1.817108,7.236922 -3.019376,11.619142 -0.60504,2.20535 -1.165381,4.25577 -1.245204,4.5565 -0.07982,0.30073 -0.186361,0.54329 -0.236753,0.53902 -0.05039,-0.004 -0.649335,-0.17253 -1.330988,-0.37392 z"
       id="path4212" />
    <path
       style="fill:#000000;stroke-width:0.999999"
       d="m 70.125428,112.24815 c 0.04546,-0.2676 0.415488,-2.58619 0.822295,-5.15241 1.093174,-6.89597 5.381947,-32.635863 5.44894,-32.702856 0.03174,-0.03174 2.244295,2.146865 4.916792,4.841344 2.861274,2.88481 4.968444,4.898579 5.125073,4.897902 0.146293,-5.83e-4 0.662951,-0.378427 1.14813,-0.839545 3.912681,-3.718651 7.463316,-11.426647 7.980736,-17.325207 0.5753,-6.558387 -0.359663,-11.993426 -2.983025,-17.340649 -3.672149,-7.484974 -9.798698,-12.958898 -17.784856,-15.89034 -1.918357,-0.704162 -2.038196,-0.770702 -1.98958,-1.104693 0.05754,-0.395319 3.656436,-13.934732 4.114479,-15.479097 l 0.290539,-0.979599 0.469073,0.08817 c 0.844107,0.158655 2.767628,0.797225 4.624602,1.535274 6.730517,2.675026 11.675354,5.939441 16.841926,11.118471 3.985028,3.994634 6.380338,7.322077 8.886918,12.345231 2.23515,4.47923 3.27664,7.327855 4.15174,11.355651 1.29745,5.971756 1.50417,11.538184 0.65249,17.569867 -1.36897,9.695198 -5.80731,19.076267 -12.37354,26.153263 l -1.402606,1.51171 4.579486,4.622833 c 4.25402,4.29428 5.13086,5.25775 4.785,5.25775 -0.0739,0 -3.66993,0.55479 -7.99126,1.23288 -13.72611,2.15381 -28.384289,4.43257 -29.138659,4.5299 -0.400972,0.0517 -0.847907,0.12705 -0.99319,0.16738 -0.227501,0.0631 -0.252683,0.006 -0.181503,-0.41323 z"
       id="path4214" />
  </g>
</svg>
