<svg height="256" viewBox="0 0 72.248892 72.248892" width="256" xmlns="http://www.w3.org/2000/svg"><g stroke="#000" stroke-width="2.852967" transform="matrix(.98631734 0 0 .99213816 .049006 -.499745)"><path d="m61.915193 36.56315h4.94256"/><path d="m54.915681 36.56315h4.942556"/><path d="m47.916165 36.56315h4.942556"/><path d="m41.135382 36.56315h4.942557"/><path d="m34.073368 36.56315h4.942557"/><path d="m20.230575 36.397942h4.942557"/><path d="m27.011358 36.397942h4.942556"/><path d="m13.262306 36.56315h4.942557"/><path d="m6.294038 36.56315h4.942557"/><path d="m36.549399 5.2930909-.000004 5.2796701"/><path d="m36.549399 12.908984-.000004 5.27967"/><path d="m36.549399 20.104357-.000004 5.27967"/><path d="m36.549399 27.663318-.000004 5.279671"/><path d="m36.549399 34.308169-.000004 5.279669"/><path d="m36.549399 41.139952-.000004 5.279671"/><path d="m36.549399 48.511984-.000004 5.27967"/><path d="m36.549399 55.884019-.000004 5.279671"/><path d="m36.549399 63.256051-.000004 5.27967"/></g></svg>
