<svg height="256" viewBox="0 0 72.248892 72.248892" width="256" xmlns="http://www.w3.org/2000/svg"><g stroke="#000"><g stroke-width="2.257778"><g fill-rule="evenodd"><path d="m10.160001 53.057781v-42.89778h51.928892v47.413336l-4.515556 4.515556h-38.382225z" fill="#fff"/><path d="m19.191112 11.28889v19.191112l4.515556 4.515556h24.835557l4.515556-4.515556v-19.191112" fill="#00ff7f"/><path d="m23.706668 60.960004v-14.675557l2.257778-2.257778h20.320001l2.257778 2.257778v14.675557" fill="#00ff7f"/><path d="m28.222224 57.573337v-9.031112h4.515556v9.031112z" fill="#fff"/></g><path d="m56.880353 43.248205-19.157878-19.157873-12.771919-6.385959 6.385959 12.771918 19.95612 19.956124 6.38596-6.385961" fill="none" stroke-linecap="square"/></g><g fill-rule="evenodd"><path d="m31.336515 24.090333-3.991224-3.991224" stroke-width="4.515556"/><g stroke-width="2.257778"><path d="m32.933005 28.879801 19.188872 19.188879"/><path d="m34.529496 27.283311 19.188872 19.188879"/></g></g></g><g fill-rule="evenodd"><path d="m36.125986 25.68682 19.188872 19.188879" stroke="#fff" stroke-width="2.257778"/><path d="m30.03601 25.400002 2.137325 4.233333 4.707291-4.692333-4.261225-2.187975z" fill="#fff"/></g></svg>
