<svg height="256" viewBox="0 0 72.248892 72.248892" width="256" xmlns="http://www.w3.org/2000/svg"><g fill="#00ff7f" stroke="#000"><path d="m5.5562664 20.741618 54.2181116.07603" stroke="#000" stroke-width="2.257778"/><path d="m20.66371 5.0101299.153444 53.7302361" stroke="#000" stroke-width="2.257778"/><ellipse cx="-20.779633" cy="20.740433" rx="6.148678" ry="6.559675" stroke-dashoffset="8" stroke-linecap="square" stroke-width="2.25778" transform="matrix(0 -1 1 0 0 0)"/><path d="m36.025133 51.507287c4.446564-1.889995 8.893127-3.780024 13.33969-5.670019-.384484-.953958-.868654-1.888745-1.191072-2.854589.0537-2.487712.107377-4.975461.160737-7.463173-1.229129-2.669009-2.458292-5.338017-3.687421-8.007025-.769105-.609034-1.538175-1.218066-2.30728-1.827099-.93126.138139-1.862552.276281-2.793846.414278.732702 1.52783 1.465371 3.055662 2.198108 4.583489-.514222.02845-1.168076.319117-1.597001.18633-.676984-1.386405-1.26158-2.84659-1.995531-4.187594-.491901-.36791-.983769-.73582-1.475704-1.103733-.920927.378334-1.841887.756706-2.762833 1.135039.766659 1.735364 1.533299 3.470724 2.299972 5.206087-.475997.04963-1.19276.632771-1.505353.31982-.727117-1.639555-1.382348-3.325944-2.154064-4.936446-.397292-.413672-.794588-.827345-1.191919-1.241018-.885679.376192-1.771398.752349-2.657078 1.128541.865438 2.085284 1.73084 4.170604 2.596278 6.255887-1.034117.493703-1.522325.691775-1.773523-.436482-1.613309-3.760999-3.226585-7.521996-4.839895-11.282996-.504666-.328386-1.009298-.656651-1.513966-.984976-.744702.335891-1.489439.672033-2.234176 1.00807-.12497.638734-.414225 1.290706-.440986 1.921478 2.229313 5.024256 4.458625 10.048547 6.687942 15.072803-1.467398-.447833-2.934792-.89563-4.402186-1.343463-.936649.394076-1.873298.788152-2.809946 1.182228.327787.566163.453878 1.306268.911039 1.76074 4.594778 2.870259 9.189523 5.740519 13.784321 8.610775.451887.851012.903773 1.70199 1.35566 2.553002z" stroke="#000" stroke-width="2.257778"/></g><g fill="#000" stroke-width=".004187"><path d="m45.113044 47.532427c-.135462.01013-.306999-.02128-.515445-.09702-.662159-.237983-1.232655-.786696-1.886451-1.815611-.18598-.293121-.408808-.670334-.718504-1.21345-.750692-1.321811-.885131-1.521334-1.22237-1.824213-.389977-.347229-.781005-.558152-1.27862-.68172-.483191-.121626-.789204-.146244-1.584267-.125755-.415883.01173-.78258.0092-.802589-.0048-.01735-.01179-.04805.0047 1.224262-.673297 3.826464-2.035282 5.120219-2.721028 5.131418-2.716625.01792.007-.09417.20907-.326435.592538-.409907.677794-.542933 1.015763-.553372 1.426791-.01017.325375.07045.729946.195987.979415.100394.204781.314953.494224.697341.949089.213635.253035.56177.665845.770508.915712.595187.705085.934183 1.140403 1.204314 1.543672.300173.451126.420126.688456.563037 1.116278.120456.365547.170498.613919.151648.7569-.03402.265034-.17532.515234-.3517.627348-.18507.116155-.509365.22977-.698762.24479zm.258528-.701269c.02876-.02971.05952-.08597.07177-.12466.0417-.152642-.05466-.523628-.228931-.870562-.293806-.582857-.817977-1.288607-2.005842-2.690334-1.067758-1.26377-1.099203-1.309692-1.256235-1.844985-.122335-.418489-.138275-.618651-.08916-1.132548.01562-.14052.02029-.258006.01315-.262055-.0336-.01321-2.413788 1.257089-2.450283 1.307371-.006.0063.000119.01372.01272.01619.0126.0025.141135.03561.288571.07245.661565.169389 1.283524.498456 1.696673.897055.311467.302689.539673.644728 1.182803 1.777583.880741 1.553166 1.276382 2.132561 1.72737 2.518695.236542.203625.571576.392531.757537.425876.114825.02029.203671-.0069.279856-.09007z"/><path d="m36.7115 41.577887c-.03891-.01779-.291366-.34823-.307252-.401707-.0038-.01267.0017-.03412.0138-.04678.02933-.03446.140214-.09402 3.42894-1.848541 1.577915-.841243 2.943733-1.570743 3.037656-1.620817l.166823-.09101.04423.02236c.04913.02553.203334.211698.276406.331162.04037.06932.04581.08761.02896.110821-.04113.05468.09724-.01894-2.851812 1.547225-.797648.424662-1.959492 1.041711-2.579805 1.370792-.619895.330489-1.148106.610022-1.172356.621617-.03252.01704-.05606.01773-.08559.0049z"/><path d="m36.131781 40.924871c-.651146-.861802-1.347924-1.733103-2.27916-2.3072-.328438-.233215-.747867-.199923-1.094716-.366053-.445822-.370963.149764-.836282.475862-1.022668 1.57013-.988849 3.236159-1.820918 4.929384-2.576558.634977-.26994 1.411067-.590718 2.060168-.188974 1.00205.769636 1.814251 1.753571 2.609964 2.727113.198829.282825-.450396.361815-.645677.545251-2.009864 1.071082-4.013871 2.153534-6.032323 3.20828l-.0235-.01918zm.863674-1.094732c1.624697-.868339 3.256789-1.724382 4.874114-2.605567-.101422-.304522-.454068-.556766-.660837-.829367-.479269-.498587-.930282-1.040894-1.502292-1.436521-.462992-.242715-.939762.10558-1.372665.256329-.219269.163367.419081.388422.544271.561554.451054.126223.54011.765774-.02816.746981-.437128-.142257-.760315-.509826-1.152235-.741278-.314309-.310387-.685212.11363-1.0056.209834-1.075926.560981-2.164958 1.107924-3.179316 1.776349.649743.215195 1.245459.570666 1.741782 1.04295.445572.391157.805247.866146 1.211472 1.294037.178167-.08844.353308-.183001.529466-.275301z" stroke="#000" stroke-opacity="1"/></g></svg>
