<svg height="256" viewBox="0 0 72.248892 72.248892" width="256" xmlns="http://www.w3.org/2000/svg"><g stroke="#000"><path d="m14.784732 11.573758h48.488787v34.194473h-48.488787z" fill="none" stroke-dashoffset="3.16089" stroke-width="2.18744"/><g stroke-linecap="square" stroke-width="2.48688" transform="matrix(.97454031 0 0 .84577826 -.654461 13.085473)"><circle cx="14.675556" cy="39.511127" fill="#00ff7f" r="5.644445" stroke-dashoffset="8"/><path d="m40.439771 60.415447-11.183667-11.183666 4.797706-3.184748-17.561389-4.789468 4.789469 17.561388 3.251949-4.730498 11.116463 11.11646z" fill="#fff" fill-rule="evenodd"/></g><path d="m44.533491 21.743333q0 1.667408-.503089 2.977514-.503089 1.293094-1.322403 2.296941-.804945.96982-1.854243 1.820538-1.049301.850719-2.227966 1.650395v3.828233h-2.572939v-5.189384q.934307-.629531 2.012356-1.378164 1.09242-.748633 1.782373-1.514279.833687-.884748 1.293657-1.820538.459965-.952805.459965-2.416039 0-1.922623-1.106795-2.858415-1.092424-.952806-2.831674-.952806-1.552388 0-2.946663.578491-1.3799.578488-2.184842 1.173991h-.143741v-3.470932q1.00618-.459389 2.544193-.81669 1.55239-.374316 2.93229-.374316 3.090402 0 4.872774 1.78651 1.796747 1.769493 1.796747 4.67895zm-5.677717 19.379366h-2.932289v-3.59003h2.932289z" fill="#000" stroke-width=".282222"/><g fill="none" stroke-width="2.25778"><g transform="matrix(1 0 0 1 1.442358 12.192928)"><path d="m20.241278 17.136246 9.436318.01749"/><path d="m43.554135 17.15374 11.617773.000006"/></g><g transform="matrix(1 0 0 1 1.442358 18.86938)"><path d="m20.241278 17.136246 9.436318.01749"/><path d="m43.554135 17.15374 11.617773.000006"/></g></g></g></svg>