<svg height="256" viewBox="0 0 72.248892 72.248892" width="256" xmlns="http://www.w3.org/2000/svg"><g fill="none" stroke="#000" stroke-linecap="square" stroke-miterlimit="4" stroke-width="2.257778"><path d="m32.173336 6.2088909h7.902224"/><path d="m52.327071 10.668076 6.053454 5.079451"/><path d="m40.07556 6.2088909q-.12828 19.4124121 12.251511 4.4591851"/><path d="m64.899418 27.038581 1.372207 7.782171"/><path d="m58.380525 15.747527q-12.576326 14.788315 6.518893 11.291054"/><path d="m64.007637 47.660465-3.951111 6.843526"/><path d="m66.271625 34.820752q-19.13977 3.2446-2.263988 12.839713"/><path d="m50.069002 62.884518-7.425661 2.70272"/><path d="m60.056526 54.503991q-16.747503-9.817299-9.987524 8.380527"/><path d="m29.605555 65.587238-7.425661-2.70272"/><path d="m42.643341 65.587238q-6.518893-18.285575-13.037786 0"/><path d="m12.19237 54.503991-3.9511113-6.843526"/><path d="m22.179894 62.884518q6.759979-18.197826-9.987524-8.380527"/><path d="m5.9772707 34.820752 1.3722066-7.782171"/><path d="m8.2412587 47.660465q16.8757813-9.595113-2.263988-12.839713"/><path d="m13.86837 15.747527 6.053454-5.079451"/><path d="m7.3494773 27.038581q19.0952187 3.497261 6.5188927-11.291054"/><path d="m19.921824 10.668076q12.379791 14.953227 12.251512-4.4591851"/><path d="m48.542227 36.124449a12.41778 12.41778 0 1 0 -24.835559 0 12.41778 12.41778 0 0 0 24.835559 0z"/></g><path d="m26.28404132 63.14133622c-1.39683725-.50623332-2.55405821-.93124026-2.571602-.94445673-.01754293-.013208.14376175-.5782649.35845696-1.25566319.85413573-2.69494864 1.16903705-4.33759778 1.17351309-6.1215161.00262467-1.04476698-.02324665-1.3471794-.15698556-1.83517269-.4263458-1.55568801-1.28809702-2.49151156-2.66740036-2.89668109-1.89085204-.55543595-4.76453174.17612361-8.6256094 2.19584143-.59395194.31069564-1.10866125.56489886-1.14379848.56489886-.03513752 0-.63856535-.99787575-1.34095103-2.21750198-.7023854-1.21962623-1.3231572-2.29001899-1.37949271-2.37865088-.09695576-.15253548-.07090298-.18063352.48765576-.52590703 2.51730611-1.55607748 4.65759462-3.28078274 5.61889917-4.5278692 1.56637351-2.03203399 1.6815024-3.94281967.33493007-5.55881011-.55331194-.66401531-1.26942068-1.17557416-2.48288741-1.773668-1.51626551-.74734142-3.34570712-1.32806166-5.72193908-1.81632025-.4367852-.08974949-.80410958-.17313488-.81627646-.18530148-.03383478-.03383562.9099305-5.38231961.96003568-5.44068881.02414411-.02813756.19741897-.02102556.38505386.01577622.60145708.11797172 2.96286306.36507705 3.98013312.41649794.57547485.02908582 1.42547067.01275645 2.04280924-.0392176 2.89463075-.24375535 4.57037215-1.22906403 5.12072753-3.01090688.19045288-.6166158.20336737-1.69888532.0294894-2.47126014-.38470814-1.70889602-1.66300499-3.9900188-3.70284215-6.60773252-.51220966-.65731705-.62774044-.84991397-.55264477-.92129785.29559478-.28098752 4.11167521-3.44078102 4.15542784-3.44078102.02887246 0 .48078054.47166702 1.00424071 1.04814941 3.32578731 3.66265878 6.12801934 5.29604173 8.29909549 4.83742805.75766794-.16004823 1.2482351-.4412556 1.88970932-1.08323613.45733832-.45770154.61351164-.68574811.96185855-1.40452978.82258752-1.69732096 1.2182377-3.7841055 1.3808852-7.28317981l.05197969-1.11822773h2.78216942 2.78216942l.04787336 1.38356998c.13045723 3.77029863.80325247 6.5256558 1.96686041 8.05503139 1.05324493 1.38432379 2.70378501 1.8614425 4.43742826 1.2827173 1.00950895-.33699452 1.91455617-.86785455 3.16716853-1.85772056.73031213-.57712162 2.6523359-2.45452351 3.38365839-3.30509901l.5332307-.62018365 2.1372408 1.79096597 2.13724362 1.79096597-.76260683.99087805c-3.85882469 5.01389061-4.71371536 8.34983284-2.66360221 10.39387059.77964176.77733064 1.74764147 1.21005749 3.24731118 1.45164819 1.49601776.24100086 4.39757565.13717694 6.76557547-.24208459.33357258-.05342467.61423977-.09048327.62370833-.08234963.00945445.008128.23408641 1.24088321.49916083 2.73944662l.48195092 2.72465817-.42335029.09452752c-4.74689341 1.05991949-7.03859444 2.00790964-8.4280084 3.4863506-1.83075027 1.94805594-1.45585471 4.26543356 1.10099976 6.80567361 1.02563513 1.01897186 3.40448357 2.78717322 4.79979597 3.56770116.21886617.12243083.39797287.24947035.3980152.28230691s-.61916737 1.13327469-1.37601969 2.4454162l-1.37609589 2.38570926-.31072386-.1819007c-.63939706-.374317-2.76615895-1.41076971-3.57063909-1.7401146-.93748866-.38379402-2.31208595-.81234567-3.10829415-.96906086-.29387802-.05784145-.95355275-.10172983-1.47833654-.09835163-1.01960969.00657578-1.57259312.13714872-2.25292088.53202279-.75771874.43979256-1.44662605 1.41325327-1.73840715 2.45645391-.21183601.75737443-.19282552 2.98383132.03592407 4.20756953.21996401 1.17673127.68070029 2.94427223 1.06684804 4.09277846.1680323.49976761.28114697.93078306.2513697.95780584-.12757574.11577885-5.12776079 1.88409027-5.17756737 1.83104096-.03023165-.03219591-.23293213-.50204232-.45044645-1.04409811s-.64485806-1.49728776-.94965526-2.1227374c-1.49605163-3.06995426-2.93284505-4.73509652-4.62598658-5.36119809-.64334817-.23789924-1.77995027-.23134604-2.42084311.01397-2.0179511.77237736-3.87041555 3.31641894-5.64633287 7.75427336-.17937481.44823665-.34694709.81340118-.37238378.81147361-.02542822-.00197556-1.18911603-.41769738-2.58595328-.9239307zm12.62371218-13.72819851c4.4783787-.99924735 8.04628024-3.95998443 9.75180568-8.0922994 1.89131516-4.58245662 1.14651092-9.86106802-1.93019128-13.67976127-4.44898808-5.52192676-12.28667222-6.72020599-18.1799185-2.7794725-3.21869102 2.15229538-5.30011702 5.48950084-5.87093577 9.4130278-.17404166 1.19627799-.12081257 3.26179483.11418514 4.4308553.72195751 3.59159127 2.79731262 6.69003869 5.86002985 8.74886686 1.15456836.77612527 2.7218303 1.4661276 4.169986 1.83587543 1.23102801.31430809 1.82609643.37064529 3.5822356.33913235 1.42165502-.02551289 1.79112062-.05742658 2.50280327-.21622457z" fill="#00ff7f"/></svg>
