<?xml version="1.0" encoding="UTF-8" standalone="no"?>
<svg
   version="1.0"
   width="512.000000pt"
   height="512.000000pt"
   viewBox="0 0 512.000000 512.000000"
   preserveAspectRatio="xMidYMid meet"
   id="svg6"
   sodipodi:docname="shortcuts_settings.svg"
   inkscape:version="1.2.2 (732a01da63, 2022-12-09)"
   xmlns:inkscape="http://www.inkscape.org/namespaces/inkscape"
   xmlns:sodipodi="http://sodipodi.sourceforge.net/DTD/sodipodi-0.dtd"
   xmlns="http://www.w3.org/2000/svg"
   xmlns:svg="http://www.w3.org/2000/svg">
  <defs
     id="defs10" />
  <sodipodi:namedview
     id="namedview8"
     pagecolor="#ffffff"
     bordercolor="#000000"
     borderopacity="0.25"
     inkscape:showpageshadow="2"
     inkscape:pageopacity="0.0"
     inkscape:pagecheckerboard="0"
     inkscape:deskcolor="#d1d1d1"
     inkscape:document-units="pt"
     showgrid="false"
     inkscape:zoom="0.027946472"
     inkscape:cx="-4293.923"
     inkscape:cy="8838.3248"
     inkscape:window-width="2560"
     inkscape:window-height="1377"
     inkscape:window-x="-8"
     inkscape:window-y="-8"
     inkscape:window-maximized="1"
     inkscape:current-layer="svg6" />
  <g
     transform="matrix(-0.1,0,0,-0.1,512,512)"
     fill="#000000"
     stroke="none"
     id="g4">
    <path
       d="m 320,4947 c -49,-16 -133,-102 -148,-153 -17,-60 -17,-2568 0,-2628 16,-55 99,-138 154,-154 31,-9 228,-12 772,-12 h 731 l 36,-117 c 108,-356 136,-397 593,-851 215,-215 309,-315 322,-345 47,-107 44,-240 -9,-354 -39,-83 -40,-124 -3,-153 26,-21 33,-22 177,-15 377,16 733,58 1118,131 156,30 187,46 187,98 0,19 -11,53 -24,77 -55,99 -79,261 -65,434 7,96 10,103 57,183 122,205 205,502 219,789 l 6,123 h 155 c 92,0 171,5 196,12 55,16 138,99 154,154 17,59 17,2568 0,2626 -6,22 -31,62 -55,88 -79,88 145,80 -2337,79 -1574,-1 -2211,-4 -2236,-12 z m 4455,-172 25,-24 V 3480 2209 l -25,-24 c -24,-24 -28,-25 -180,-25 h -155 v 53 c 0,28 -5,106 -11,172 l -12,120 69,455 68,455 3,508 3,508 -24,24 -25,25 H 2560 609 l -24,-25 -25,-24 v -991 -991 l 25,-24 24,-25 h 538 539 l 39,-107 c 21,-60 40,-114 43,-120 3,-10 -141,-13 -697,-13 H 369 l -24,25 -25,24 v 1271 1271 l 25,24 24,25 H 2560 4751 Z M 1040,4160 V 4000 H 880 720 v 160 160 h 160 160 z m 480,0 v -160 h -160 -160 v 160 160 h 160 160 z m 480,0 v -160 h -160 -160 v 160 160 h 160 160 z m 480,60 v -99 l -38,-10 c -43,-12 -92,-46 -123,-84 -19,-25 -27,-27 -90,-27 h -69 v 160 160 h 160 160 z m 416,63 c -3,-21 -6,-93 -6,-160 v -123 h -67 c -65,0 -69,2 -85,30 -9,16 -35,42 -57,57 l -40,28 -1,103 v 102 h 131 132 z m 314,17 c 11,-11 20,-30 20,-42 0,-13 34,-335 74,-717 l 73,-695 27,-23 c 34,-29 68,-29 101,0 26,22 26,27 95,617 39,327 73,610 76,628 7,47 38,63 95,51 85,-18 78,45 81,-778 l 3,-733 28,-24 c 15,-13 39,-24 52,-24 57,0 66,21 205,475 73,237 137,444 142,462 17,62 67,83 103,43 17,-18 14,-39 -55,-522 l -72,-503 11,-130 c 26,-288 10,-624 -39,-833 -39,-164 -107,-330 -180,-437 -33,-49 -40,-74 -51,-195 -10,-114 4,-290 31,-387 10,-37 16,-71 12,-75 -11,-11 -424,-76 -622,-98 -193,-21 -462,-41 -469,-34 -2,2 2,23 8,48 16,63 13,219 -4,294 -31,129 -49,155 -261,353 -318,298 -532,537 -587,659 -16,36 -78,211 -137,390 -59,179 -126,369 -149,422 -24,54 -41,108 -39,120 4,34 49,35 102,4 111,-65 200,-179 270,-346 61,-143 179,-277 293,-333 81,-40 118,-3 159,156 72,281 83,478 40,687 -50,245 -206,1091 -206,1120 0,36 29,58 91,66 35,5 47,2 61,-13 10,-11 73,-242 163,-603 128,-516 149,-588 171,-607 31,-28 64,-29 97,-2 l 27,20 2,765 c 3,745 4,766 22,780 30,22 112,18 136,-6 z m 230,-140 c 0,-98 -4,-160 -10,-160 -13,0 -17,23 -30,155 -6,61 -13,122 -16,138 -5,25 -3,27 25,27 h 31 z m 480,115 v -45 l -38,19 c -84,43 -197,46 -257,7 l -25,-16 v 40 40 h 160 160 z m 480,-115 v -160 h -160 -160 v 160 160 h 160 160 z M 1200,3680 V 3520 H 960 720 v 160 160 h 240 240 z m 480,0 v -160 h -160 -160 v 160 160 h 160 160 z m 480,0 v -160 h -160 -160 v 160 160 h 160 160 z m 729,-17 -1,-178 -44,170 c -24,94 -44,173 -44,178 0,4 20,7 45,7 h 45 z m 598,163 c -3,-7 -9,-50 -13,-95 -3,-45 -10,-83 -14,-86 -4,-2 -11,40 -16,95 l -9,100 h 28 c 21,0 28,-4 24,-14 z m 913,-46 v -60 h -52 c -66,0 -124,-26 -164,-72 -32,-36 -44,-68 -124,-325 -22,-73 -43,-133 -45,-133 -3,0 -5,146 -5,325 v 325 h 195 195 z M 2430,3053 c 0,-9 -17,-13 -55,-13 h -55 l 1,293 1,292 53,-280 c 30,-154 54,-286 55,-292 z m -750,147 V 3040 H 1200 720 v 160 160 h 480 480 z m 480,0 v -160 h -160 -160 v 160 160 h 160 160 z M 1040,2720 V 2560 H 880 720 v 160 160 h 160 160 z m 480,0 v -160 h -160 -160 v 160 160 h 160 160 z m 480,89 c 0,-39 -3,-69 -7,-67 -138,69 -199,77 -280,34 l -33,-17 v 61 60 h 160 160 z m 467,59 c 4,-7 9,-79 11,-160 l 4,-148 h -155 c -132,0 -156,2 -161,16 -3,9 -6,81 -6,160 v 144 h 149 c 109,0 152,-3 158,-12 z m 33,-489 c 0,-27 -40,-221 -49,-237 -16,-28 -132,130 -170,231 l -11,27 h 115 c 109,0 115,-1 115,-21 z"
       id="path2" />
  </g>
  <path
     style="fill:#00ff7f;stroke:#000000;stroke-width:4.19329;stroke-opacity:0"
     d="m 216.51983,479.18514 c 0.12922,-0.20909 -0.15802,-2.25182 -0.63831,-4.53941 -0.71786,-3.41913 -0.87275,-5.65158 -0.87038,-12.54582 0.004,-12.53758 1.35319,-20.34326 4.71011,-27.25634 2.98423,-6.14559 5.43192,-8.76165 31.07293,-33.21038 25.99309,-24.78444 44.78562,-46.24973 49.85467,-56.94523 1.72253,-3.63449 5.86412,-15.27923 13.42378,-37.74317 7.75186,-23.03507 12.49125,-36.43934 15.92287,-45.03422 3.85935,-9.66614 4.23168,-11.90506 2.16383,-13.01175 -2.91774,-1.56152 -8.99627,1.20198 -15.91841,7.23703 -7.40451,6.4556 -13.48202,15.54054 -19.5472,29.2201 -6.17223,13.92097 -16.91997,26.38846 -27.99757,32.47748 -1.4848,0.81615 -3.59168,1.65056 -4.68196,1.85424 -6.83642,1.27718 -9.80265,-3.63798 -14.52057,-24.06114 -3.32939,-14.41242 -4.62341,-24.85775 -4.62343,-37.32022 -2e-5,-10.53308 0.59198,-15.5094 3.79122,-31.86897 4.97477,-25.43887 14.89083,-79.07548 17.80139,-96.28888 0.76536,-4.52645 1.29517,-8.73423 1.17734,-9.35062 -0.52185,-2.72985 -4.23558,-4.71502 -9.6315,-5.14849 -4.26939,-0.34298 -4.77183,0.0652 -6.42316,5.21797 -2.08144,6.49484 -8.25823,29.95461 -15.54076,59.02458 -11.33868,45.26104 -14.04683,55.00026 -15.97558,57.45226 -1.05059,1.33562 -3.81081,2.69888 -5.49129,2.71215 -1.5705,0.0124 -3.64356,-0.89698 -5.86879,-2.57441 l -1.84206,-1.38861 -0.28979,-69.19488 c -0.2977,-71.081327 -0.537,-82.940095 -1.70982,-84.730037 -0.89951,-1.372823 -3.54966,-1.993403 -7.6094,-1.78188 -6.6927,0.348712 -7.70794,1.824885 -8.73745,12.704415 -0.39283,4.151355 -3.70622,36.102412 -7.36308,71.002342 l -6.64885,63.45443 -1.60648,1.42461 c -2.49991,2.2169 -4.91983,3.26334 -7.00346,3.02849 -2.28053,-0.25705 -5.04476,-2.09063 -5.91434,-3.92313 -1.34208,-2.82824 -2.31727,-9.9971 -8.60824,-63.28158 -5.55132,-47.01966 -7.14599,-59.54192 -7.81428,-61.36228 -1.03316,-2.81422 -2.51042,-3.537495 -6.65108,-3.25643 -6.39332,0.43399 -7.46743,1.17677 -8.47215,5.85874 -0.94893,4.42206 -1.32753,25.56135 -1.55033,86.56343 l -0.21487,58.83378 -0.96158,0.82575 c -3.14488,2.70064 -4.74055,3.5052 -7.27145,3.66636 -5.88529,0.37474 -6.40135,-0.88917 -24.71004,-60.51838 C 88.065238,176.95659 83.116782,161.14132 82.733735,160.262 80.953033,156.17419 76.9727,155.06107 74.1674,157.86637 c -2.11509,2.11509 -2.203222,1.27119 6.58596,63.06003 l 5.65803,39.77652 -0.94686,10.33323 c -0.825015,9.00355 -0.948337,12.95022 -0.958357,30.67065 -0.01297,23.00784 0.511972,31.16966 2.966902,46.12612 2.859458,17.42102 10.271025,37.54642 18.839955,51.15807 3.8394,6.09884 4.3047,7.3254 5.2157,13.74882 1.91583,13.50834 1.00365,32.27399 -2.22747,45.82429 -0.57372,2.40596 -1.16037,5.07298 -1.30368,5.9267 -0.25402,1.51319 -0.22065,1.56284 1.32711,1.97415 6.92724,1.84092 46.49196,7.79952 64.06761,9.64883 9.2775,0.97618 26.16231,2.40552 32.49795,2.75102 2.42163,0.13207 5.75108,0.3437 7.39879,0.47031 1.64771,0.1266 3.10157,0.0591 3.23079,-0.14997 z"
     id="path673" />
</svg>
