<svg height="256" viewBox="0 0 72.248892 72.248892" width="256" xmlns="http://www.w3.org/2000/svg"><g stroke-width="2.25778"><circle cx="50.839092" cy="-.07888" fill="none" r="21.448889" stroke="#00ff7f" transform="matrix(.70710678 .70710678 -.70710678 .70710678 0 0)"/><g stroke="#000"><circle cx="50.839092" cy="-.07888" fill="none" r="20.037777" transform="matrix(.70710678 .70710678 -.70710678 .70710678 0 0)"/><circle cx="50.839092" cy=".190442" fill="#00ff7f" r="5.644445" transform="matrix(.70710678 .70710678 -.70710678 .70710678 0 0)"/><path d="m69.826185 36.716961-20.742991-.117193"/><path d="m22.387047 36.716961-20.7429916-.117193"/><path d="m35.945846 71.071721.117193-20.742991"/><path d="m35.945846 21.457048.117193-20.74299114"/><path d="m60.502733 12.560013-14.750378 14.584641"/><path d="m26.958197 46.104549-14.750378 14.584642"/><path d="m60.838199 60.809514-14.584641-14.750378"/><path d="m25.755328 25.726642-14.584642-14.750378"/></g></g></svg>
