<?xml version="1.0" encoding="UTF-8" standalone="no"?>
<svg
   height="256"
   viewBox="0 0 72.248892 72.248892"
   width="256"
   version="1.1"
   id="svg10"
   sodipodi:docname="slice_divide.svg"
   inkscape:version="1.4 (86a8ad7, 2024-10-11)"
   xmlns:inkscape="http://www.inkscape.org/namespaces/inkscape"
   xmlns:sodipodi="http://sodipodi.sourceforge.net/DTD/sodipodi-0.dtd"
   xmlns="http://www.w3.org/2000/svg"
   xmlns:svg="http://www.w3.org/2000/svg">
  <defs
     id="defs10" />
  <sodipodi:namedview
     id="namedview10"
     pagecolor="#ffffff"
     bordercolor="#000000"
     borderopacity="0.25"
     inkscape:showpageshadow="2"
     inkscape:pageopacity="0.0"
     inkscape:pagecheckerboard="0"
     inkscape:deskcolor="#d1d1d1"
     inkscape:zoom="4.6914062"
     inkscape:cx="128"
     inkscape:cy="128"
     inkscape:window-width="2560"
     inkscape:window-height="1387"
     inkscape:window-x="-8"
     inkscape:window-y="-8"
     inkscape:window-maximized="1"
     inkscape:current-layer="svg10" />
  <path
     d="m15.052332 3.704084h35.547783v62.044209h-35.547783z"
     fill="none"
     opacity="0"
     stroke="#000"
     stroke-linecap="square"
     stroke-width=".399268"
     transform="matrix(.97049632 .24111593 -.24111593 .97049632 0 0)"
     id="path1" />
  <path
     d="m56.668557 11.54974-39.744713 46.815289"
     fill="none"
     stroke="#000"
     stroke-width="2.17377"
     id="path2" />
  <rect
     height="21.888378"
     ry="0.052044"
     width="2.2172539"
     x="63.051796"
     y="52.580948"
     id="rect2"
     transform="matrix(0.64719185,-0.76232716,0.23485924,0.97202939,0,0)"
     style="fill:#00ff7f" />
  <rect
     height="21.888378"
     ry="0.052044"
     width="2.2172539"
     x="22.747967"
     y="52.003757"
     id="rect3"
     transform="matrix(0.64719185,-0.76232716,0.23485924,0.97202939,0,0)"
     style="fill:#00ff7f" />
  <rect
     fill="#00ff7f"
     height="18.664072"
     ry="0.052044"
     width="1.225352"
     x="23.800085"
     y="53.553207"
     id="rect4"
     transform="matrix(0.64719185,-0.76232716,0.23485924,0.97202939,0,0)"
     style="fill:#000000;fill-opacity:1" />
  <rect
     height="21.888378"
     ry="0.052044"
     width="2.2172539"
     x="2.8696561"
     y="50.755447"
     id="rect5"
     transform="matrix(0.64719185,-0.76232716,0.23485924,0.97202939,0,0)"
     style="fill:#00ff7f" />
  <rect
     fill="#00ff7f"
     height="18.664072"
     ry="0.052044"
     width="1.225352"
     x="3.908859"
     y="52.340481"
     id="rect6"
     transform="matrix(0.64719185,-0.76232716,0.23485924,0.97202939,0,0)"
     style="fill:#000000;fill-opacity:1" />
  <rect
     height="21.888378"
     ry="0.052044"
     width="2.2172539"
     x="43.235676"
     y="52.297134"
     id="rect7"
     transform="matrix(0.64719185,-0.76232716,0.23485924,0.97202939,0,0)"
     style="fill:#00ff7f" />
  <rect
     height="18.664072"
     ry="0.052044"
     width="1.225352"
     x="44.247261"
     y="53.769081"
     id="rect8"
     transform="matrix(0.64719185,-0.76232716,0.23485924,0.97202939,0,0)"
     style="fill:#000000;fill-opacity:1" />
  <rect
     height="18.664072"
     ry="0.052044"
     width="1.225352"
     x="64.170265"
     y="54.136723"
     id="rect9"
     transform="matrix(0.64719185,-0.76232716,0.23485924,0.97202939,0,0)"
     style="fill:#000000;fill-opacity:1" />
</svg>
