<?xml version="1.0" encoding="UTF-8" standalone="no"?>
<svg
   height="256"
   viewBox="0 0 72.248892 72.248892"
   width="256"
   version="1.1"
   id="svg8"
   sodipodi:docname="snap_dynamic_distance.svg"
   inkscape:version="1.4 (86a8ad7, 2024-10-11)"
   xmlns:inkscape="http://www.inkscape.org/namespaces/inkscape"
   xmlns:sodipodi="http://sodipodi.sourceforge.net/DTD/sodipodi-0.dtd"
   xmlns="http://www.w3.org/2000/svg"
   xmlns:svg="http://www.w3.org/2000/svg">
  <defs
     id="defs8" />
  <sodipodi:namedview
     id="namedview8"
     pagecolor="#ffffff"
     bordercolor="#000000"
     borderopacity="0.25"
     inkscape:showpageshadow="2"
     inkscape:pageopacity="0.0"
     inkscape:pagecheckerboard="0"
     inkscape:deskcolor="#d1d1d1"
     inkscape:zoom="1.1611328"
     inkscape:cx="-135.21278"
     inkscape:cy="343.19932"
     inkscape:window-width="2560"
     inkscape:window-height="1412"
     inkscape:window-x="-8"
     inkscape:window-y="-8"
     inkscape:window-maximized="1"
     inkscape:current-layer="svg8" />
  <path
     d="M 47.997852,15.252835 A 23.1355,21.976032 0 0 0 24.267337,36.602551 l -0.0051,0.177869 A 23.1355,21.976032 0 0 0 46.882288,59.191857 23.1355,21.976032 0 0 0 70.522432,37.7508 23.1355,21.976032 0 0 0 47.997852,15.252835 Z m -0.04772,1.762204 A 21.291089,20.21118 4.4817991 0 1 68.672317,37.873043 21.291089,20.21118 4.4817991 0 1 46.923498,57.430338 21.291089,20.21118 4.4817991 0 1 26.113115,36.652 l 0.0044,-0.164136 A 21.291089,20.21118 4.4817991 0 1 47.950169,17.015039 Z"
     fill-opacity="1"
     stroke-dasharray="3.38667, 3.38667"
     stroke-dashoffset="3.556"
     stroke-opacity="0.917695"
     stroke-width="1.69333"
     id="path10"
     style="fill:#00ff7f;stroke:#000000" />
  <path
     d="M 25.650591,15.160569 A 21.458295,21.981495 0 0 0 3.6404163,36.515591 l -0.00475,0.177914 A 21.458295,21.981495 0 0 0 24.6159,59.110511 21.458295,21.981495 0 0 0 46.542256,37.664126 21.458295,21.981495 0 0 0 25.650591,15.160569 Z m -0.04427,1.762642 A 20.236094,19.728184 80.693838 0 1 44.826264,37.786399 20.236094,19.728184 80.693838 0 1 24.654123,57.348555 20.236094,19.728184 80.693838 0 1 5.3523849,36.565052 l 0.00403,-0.164177 A 20.236094,19.728184 80.693838 0 1 25.606364,16.923211 Z"
     fill-opacity="1"
     stroke-dasharray="3.38667, 3.38667"
     stroke-dashoffset="3.556"
     stroke-opacity="0.917695"
     stroke-width="1.69333"
     id="path1-1"
     style="fill:#00ff7f;stroke:#000000" />
  <path
     d="m 25.913853,37.253336 20.421186,0.01226"
     stroke-width="2.25778"
     id="path4"
     style="fill:none;stroke:#000000" />
  <ellipse
     cx="25.945227"
     cy="37.259468"
     id="circle2"
     style="fill:#00ff7f;stroke:#000000;stroke-width:2.25778;stroke-linecap:square;stroke-dashoffset:8"
     rx="4.4988847"
     ry="4.4171343" />
  <ellipse
     cx="46.350124"
     cy="37.259468"
     id="ellipse10"
     style="fill:#00ff7f;stroke:#000000;stroke-width:2.25778;stroke-linecap:square;stroke-dashoffset:8"
     rx="4.4988847"
     ry="4.4171343" />
</svg>
