<svg fill-rule="evenodd" height="72.3mm" preserveAspectRatio="xMidYMid" stroke-linejoin="round" stroke-width="28.222" viewBox="0 0 7230 7230" width="72.3mm" xmlns="http://www.w3.org/2000/svg"><g fill="#000"><g stroke="#000"><path d="m1100 1100h5031v171h-5031z"/><path d="m1080 5960h5051v181h-5051z"/><path d="m5950 1100h181v5001h-181z"/><path d="m1080 1100h181v5001h-181z"/></g><path d="m4225 3595c0 112-29 221-85 318s-136 177-233 233c-96 56-206 85-317 85-112 0-222-29-318-85-97-56-177-136-233-233s-85-206-85-318 29-221 85-318 136-177 233-233c96-56 206-85 317-85 112 0 222 29 318 85 97 56 177 136 233 233s85 206 85 318z"/></g><g stroke="#000" stroke-linejoin="round" stroke-width="183"><path d="m1210 5992 255-254"/><path d="m1720 5483 255-255"/><path d="m2230 4973 255-255"/><path d="m2740 4463 255-255"/><path d="m3250 3953 255-255"/><path d="m3760 3443 255-255"/><path d="m4270 2933 254-254"/><path d="m4779 2424 255-255"/><path d="m5289 1914 255-255"/><path d="m5799 1404 197-196"/></g><path d="m4021 3591c0 75-20 149-58 215-37 65-92 120-157 157-66 38-140 58-215 58-76 0-150-20-216-58-65-37-120-92-157-157-38-66-58-140-58-215 0-76 20-150 58-216 37-65 92-120 157-157 66-38 140-58 215-58 76 0 150 20 216 58 65 37 120 92 157 157 38 66 58 140 58 215z" fill="#00ff7f"/></svg>
