<?xml version="1.0" encoding="UTF-8"?>
<!DOCTYPE svg PUBLIC "-//W3C//DTD SVG 1.1//EN" "http://www.w3.org/Graphics/SVG/1.1/DTD/svg11.dtd">
<svg version="1.2" width="72.3mm" height="72.3mm" viewBox="0 0 7230 7230" preserveAspectRatio="xMidYMid" fill-rule="evenodd" stroke-width="28.222" stroke-linejoin="round" xmlns="http://www.w3.org/2000/svg" xmlns:ooo="http://xml.openoffice.org/svg/export" xmlns:xlink="http://www.w3.org/1999/xlink" xmlns:presentation="http://sun.com/xmlns/staroffice/presentation" xmlns:smil="http://www.w3.org/2001/SMIL20/" xmlns:anim="urn:oasis:names:tc:opendocument:xmlns:animation:1.0" xml:space="preserve">
 <defs class="ClipPathGroup">
  <clipPath id="presentation_clip_path" clipPathUnits="userSpaceOnUse">
   <rect x="0" y="0" width="7230" height="7230"/>
  </clipPath>
  <clipPath id="presentation_clip_path_shrink" clipPathUnits="userSpaceOnUse">
   <rect x="7" y="7" width="7216" height="7216"/>
  </clipPath>
 </defs>
 <defs class="TextShapeIndex">
  <g ooo:slide="id1" ooo:id-list="id3 id4 id5 id6 id7 id8 id9"/>
 </defs>
 <defs class="EmbeddedBulletChars">
  <g id="bullet-char-template-57356" transform="scale(0.00048828125,-0.00048828125)">
   <path d="M 580,1141 L 1163,571 580,0 -4,571 580,1141 Z"/>
  </g>
  <g id="bullet-char-template-57354" transform="scale(0.00048828125,-0.00048828125)">
   <path d="M 8,1128 L 1137,1128 1137,0 8,0 8,1128 Z"/>
  </g>
  <g id="bullet-char-template-10146" transform="scale(0.00048828125,-0.00048828125)">
   <path d="M 174,0 L 602,739 174,1481 1456,739 174,0 Z M 1358,739 L 309,1346 659,739 1358,739 Z"/>
  </g>
  <g id="bullet-char-template-10132" transform="scale(0.00048828125,-0.00048828125)">
   <path d="M 2015,739 L 1276,0 717,0 1260,543 174,543 174,936 1260,936 717,1481 1274,1481 2015,739 Z"/>
  </g>
  <g id="bullet-char-template-10007" transform="scale(0.00048828125,-0.00048828125)">
   <path d="M 0,-2 C -7,14 -16,27 -25,37 L 356,567 C 262,823 215,952 215,954 215,979 228,992 255,992 264,992 276,990 289,987 310,991 331,999 354,1012 L 381,999 492,748 772,1049 836,1024 860,1049 C 881,1039 901,1025 922,1006 886,937 835,863 770,784 769,783 710,716 594,584 L 774,223 C 774,196 753,168 711,139 L 727,119 C 717,90 699,76 672,76 641,76 570,178 457,381 L 164,-76 C 142,-110 111,-127 72,-127 30,-127 9,-110 8,-76 1,-67 -2,-52 -2,-32 -2,-23 -1,-13 0,-2 Z"/>
  </g>
  <g id="bullet-char-template-10004" transform="scale(0.00048828125,-0.00048828125)">
   <path d="M 285,-33 C 182,-33 111,30 74,156 52,228 41,333 41,471 41,549 55,616 82,672 116,743 169,778 240,778 293,778 328,747 346,684 L 369,508 C 377,444 397,411 428,410 L 1163,1116 C 1174,1127 1196,1133 1229,1133 1271,1133 1292,1118 1292,1087 L 1292,965 C 1292,929 1282,901 1262,881 L 442,47 C 390,-6 338,-33 285,-33 Z"/>
  </g>
  <g id="bullet-char-template-9679" transform="scale(0.00048828125,-0.00048828125)">
   <path d="M 813,0 C 632,0 489,54 383,161 276,268 223,411 223,592 223,773 276,916 383,1023 489,1130 632,1184 813,1184 992,1184 1136,1130 1245,1023 1353,916 1407,772 1407,592 1407,412 1353,268 1245,161 1136,54 992,0 813,0 Z"/>
  </g>
  <g id="bullet-char-template-8226" transform="scale(0.00048828125,-0.00048828125)">
   <path d="M 346,457 C 273,457 209,483 155,535 101,586 74,649 74,723 74,796 101,859 155,911 209,963 273,989 346,989 419,989 480,963 531,910 582,859 608,796 608,723 608,648 583,586 532,535 482,483 420,457 346,457 Z"/>
  </g>
  <g id="bullet-char-template-8211" transform="scale(0.00048828125,-0.00048828125)">
   <path d="M -4,459 L 1135,459 1135,606 -4,606 -4,459 Z"/>
  </g>
  <g id="bullet-char-template-61548" transform="scale(0.00048828125,-0.00048828125)">
   <path d="M 173,740 C 173,903 231,1043 346,1159 462,1274 601,1332 765,1332 928,1332 1067,1274 1183,1159 1299,1043 1357,903 1357,740 1357,577 1299,437 1183,322 1067,206 928,148 765,148 601,148 462,206 346,322 231,437 173,577 173,740 Z"/>
  </g>
 </defs>
 <g>
  <g id="id2" class="Master_Slide">
   <g id="bg-id2" class="Background"/>
   <g id="bo-id2" class="BackgroundObjects"/>
  </g>
 </g>
 <g class="SlideGroup">
  <g>
   <g id="container-id1">
    <g id="id1" class="Slide" clip-path="url(#presentation_clip_path)">
     <g class="Page">
      <g class="com.sun.star.drawing.CustomShape">
       <g id="id3">
        <rect class="BoundingBox" stroke="none" fill="none" x="1100" y="1100" width="5031" height="171"/>
        <path fill="rgb(0,0,0)" stroke="none" d="M 3615,1270 L 1100,1270 1100,1100 6130,1100 6130,1270 3615,1270 Z"/>
       </g>
      </g>
      <g class="com.sun.star.drawing.CustomShape">
       <g id="id4">
        <rect class="BoundingBox" stroke="none" fill="none" x="1080" y="5960" width="5051" height="181"/>
        <path fill="rgb(0,0,0)" stroke="none" d="M 3605,6140 L 1080,6140 1080,5960 6130,5960 6130,6140 3605,6140 Z"/>
       </g>
      </g>
      <g class="com.sun.star.drawing.CustomShape">
       <g id="id5">
        <rect class="BoundingBox" stroke="none" fill="none" x="5950" y="1100" width="181" height="5001"/>
        <path fill="rgb(0,0,0)" stroke="none" d="M 6130,3600 L 6130,6100 5950,6100 5950,1100 6130,1100 6130,3600 Z"/>
       </g>
      </g>
      <g class="com.sun.star.drawing.CustomShape">
       <g id="id6">
        <rect class="BoundingBox" stroke="none" fill="none" x="1080" y="1100" width="181" height="5001"/>
        <path fill="rgb(0,0,0)" stroke="none" d="M 1260,3600 L 1260,6100 1080,6100 1080,1100 1260,1100 1260,3600 Z"/>
       </g>
      </g>
      <g class="com.sun.star.drawing.CustomShape">
       <g id="id7">
        <rect class="BoundingBox" stroke="none" fill="none" x="2954" y="2959" width="1272" height="1273"/>
        <path fill="rgb(0,0,0)" stroke="none" d="M 4225,3595 C 4225,3707 4196,3816 4140,3913 4084,4010 4004,4090 3907,4146 3811,4202 3701,4231 3590,4231 3478,4231 3368,4202 3272,4146 3175,4090 3095,4010 3039,3913 2983,3816 2954,3707 2954,3595 2954,3483 2983,3374 3039,3277 3095,3180 3175,3100 3272,3044 3368,2988 3478,2959 3589,2959 3701,2959 3811,2988 3907,3044 4004,3100 4084,3180 4140,3277 4196,3374 4225,3483 4225,3595 L 4225,3595 Z"/>
       </g>
      </g>
      <g class="com.sun.star.drawing.LineShape">
       <g id="id8">
        <rect class="BoundingBox" stroke="none" fill="none" x="1118" y="1116" width="4971" height="4969"/>
        <path fill="none" stroke="rgb(0,0,0)" stroke-width="183" stroke-linejoin="round" d="M 1210,5992 L 1465,5738"/>
        <path fill="none" stroke="rgb(0,0,0)" stroke-width="183" stroke-linejoin="round" d="M 1720,5483 L 1975,5228"/>
        <path fill="none" stroke="rgb(0,0,0)" stroke-width="183" stroke-linejoin="round" d="M 2230,4973 L 2485,4718"/>
        <path fill="none" stroke="rgb(0,0,0)" stroke-width="183" stroke-linejoin="round" d="M 2740,4463 L 2995,4208"/>
        <path fill="none" stroke="rgb(0,0,0)" stroke-width="183" stroke-linejoin="round" d="M 3250,3953 L 3505,3698"/>
        <path fill="none" stroke="rgb(0,0,0)" stroke-width="183" stroke-linejoin="round" d="M 3760,3443 L 4015,3188"/>
        <path fill="none" stroke="rgb(0,0,0)" stroke-width="183" stroke-linejoin="round" d="M 4270,2933 L 4524,2679"/>
        <path fill="none" stroke="rgb(0,0,0)" stroke-width="183" stroke-linejoin="round" d="M 4779,2424 L 5034,2169"/>
        <path fill="none" stroke="rgb(0,0,0)" stroke-width="183" stroke-linejoin="round" d="M 5289,1914 L 5544,1659"/>
        <path fill="none" stroke="rgb(0,0,0)" stroke-width="183" stroke-linejoin="round" d="M 5799,1404 L 5996,1208"/>
       </g>
      </g>
      <g class="com.sun.star.drawing.CustomShape">
       <g id="id9">
        <rect class="BoundingBox" stroke="none" fill="none" x="3160" y="3160" width="862" height="862"/>
        <path fill="rgb(0,255,127)" stroke="none" d="M 4021,3591 C 4021,3666 4001,3740 3963,3806 3926,3871 3871,3926 3806,3963 3740,4001 3666,4021 3591,4021 3515,4021 3441,4001 3375,3963 3310,3926 3255,3871 3218,3806 3180,3740 3160,3666 3160,3591 3160,3515 3180,3441 3218,3375 3255,3310 3310,3255 3375,3218 3441,3180 3515,3160 3590,3160 3666,3160 3740,3180 3806,3218 3871,3255 3926,3310 3963,3375 4001,3441 4021,3515 4021,3590 L 4021,3591 Z"/>
       </g>
      </g>
     </g>
    </g>
   </g>
  </g>
 </g>
</svg>