<svg height="256" viewBox="0 0 72.248892 72.248892" width="256" xmlns="http://www.w3.org/2000/svg"><g stroke="#000"><g stroke-width="2.25778"><path d="m-45.514406-2.7232707a30.450089 30.685549 0 0 1 7.690586-33.7034553 30.450089 30.685549 0 0 1 33.9448927-5.083465" fill="none" stroke-dasharray="none" stroke-dashoffset="8" stroke-linecap="square" transform="matrix(0 -1 -1 0 0 0)"/><path d="m13.894136 45.186562.000003-42.5539642" fill="none"/><path d="m68.470885 52.258245c-.0016 4.915766-.0033 9.831539-.005 14.7473-1.064202.05309-2.150476.0059-3.200902.121365-2.347967 1.113996-4.695984 2.227978-7.043939 3.342004-3.039526.0068-6.07905.0136-9.118576.0204-.891228-.449754-1.782458-.899508-2.673682-1.349267-.245126-.919285-.490248-1.838563-.735509-2.757789 1.751699.02298 3.503392.04597 5.255091.06895-.180901-.487103-.168515-1.215415-.468499-1.554771-1.594454-.03205-3.221817.0528-4.796041-.05125-.549429-.296923-1.098863-.593842-1.648293-.890761-.01214-1.012506-.02426-2.025035-.0364-3.03754 1.963116-.03445 3.926234-.06891 5.889351-.103358-.145275-.460886.120264-1.372444-.304265-1.52726-1.855854.02999-3.727259.146386-5.573488.122735-.554751-.189956-1.109499-.379905-1.664251-.569861.000073-.979039.000107-1.958065.000177-2.937105 2.336386-.09295 4.672805-.18592 7.009191-.278873.05197-1.166406.04316-1.702087-1.133169-1.451336-4.235088.11923-11.44064-.329306-15.675729-.210074-.516934-.325597-1.756853-.01932-2.27373-.34494.0187-.831595-.572085-1.153005-.553241-1.984661.557796-.388905.511604-1.557238 1.101602-1.851895 5.687571-.0908 16.228774-.133708 21.916347-.224509.649938-2.553058 1.142159-2.774175-.303157-6.881835-2.441136-6.779195-1.156607-3.767712-.944406-5.205797 1.880292-1.305828 2.336025-.406299 2.953852-.178511 3.964315 3.912866 4.372125 10.806862 8.964762 13.822597.993414.05323 4.068439 1.092843 5.061852 1.146077z" fill="#fff" fill-opacity="1" stroke-dasharray="none" stroke-linecap="round" stroke-linejoin="round"/></g><g fill="none"><path d="m19.24078 17.144995 49.076346.0087" stroke-width="2.25777"/><path d="m13.894137 65.843627.000003-42.553964" stroke-width="2.25778"/><path d="m1.2455024 17.144995 38.0768116.01749" stroke-width="2.25777"/></g><g fill="#00ff7f" stroke-dasharray="none" stroke-dashoffset="8" stroke-linecap="square" stroke-width="2.25778" transform="matrix(0 -1 -1 0 0 0)"><ellipse cx="-17.15374" cy="-13.894137" rx="5.62695" ry="5.260881"/><ellipse cx="-48.732719" cy="-13.894137" rx="5.62695" ry="5.260881"/></g></g></svg>