<svg height="256" viewBox="0 0 72.248892 72.248892" width="256" xmlns="http://www.w3.org/2000/svg"><g stroke="#000"><g stroke-width="2.25778"><g fill="none"><path d="m15 57.3768c12.370536-8.996764 2.057995-15.811127 2.278291-20.435923"/><path d="m16.099593 59.07033 42.746656-44.644789" stroke-dasharray="2.25778 2.25778"/><path d="m17.278291 36.940877c-7.9570849-13.393939.566434-20.404355 9.495178-20.167408"/></g><circle cx="-20.601757" cy="35.009537" fill="#00ff7f" r="5.644445" stroke-dashoffset="1.6" transform="matrix(-.99604318 -.08887056 -.08887056 .99604318 0 0)"/><path d="m58.846249 14.425541c-5.043554 3.373174-21.667112 9.969769-32.07278 2.347928" fill="none"/><g fill="#00ff7f" stroke-dashoffset="1.6" transform="matrix(-.99604318 -.08887056 -.08887056 .99604318 0 0)"><circle cx="-59.877167" cy="9.353482" r="5.644445"/><circle cx="-28.158199" cy="14.327726" r="5.644445"/></g></g><path d="m44.138613 59.849804 18.06222.0025" fill="none" stroke-width="4.51556"/><g stroke-width="2.25778"><path d="m107.77584-66.151954 11.93675-10.376058-4.56379-3.511748 17.85278-3.55244-6.00316 17.1844-2.91395-4.945876-11.86502 10.313708-4.44361-5.111984" fill="#fff" fill-rule="evenodd" stroke-linecap="square"/><circle cx="-20.039755" cy="55.816711" fill="#00ff7f" r="5.644445" stroke-dashoffset="1.6" transform="matrix(-.99604318 -.08887056 -.08887056 .99604318 0 0)"/></g></g></svg>
