<svg height="256" viewBox="0 0 72.248892 72.248892" width="256" xmlns="http://www.w3.org/2000/svg"><g stroke-width="2.25778"><g fill="none"><path d="m45.597286 34.290748c7.91565 4.725478 17.702406 15 1.6415 23.089549" stroke="#000"/><path d="m52.902809 12.466907c-5.132006-3.2966372-25.814917 5.609727-7.305523 21.823841" stroke="#000"/><g stroke="#00ff7f"><path d="m45.597286 34.290748c4.547677 32.586626 1.6415 23.089549 1.6415 23.089549"/><path d="m17.834905 60.466988c23.800947-2.403396 5.602934.878156 35.006814-3.769986"/><path d="m52.902809 12.466907c-6.059696 27.528703-7.305523 11.823841-7.305523 21.823841"/></g><path d="m47.238786 57.380297c-9.414617 9.379579-19.54243 16.910451-30.919477 1.250834" stroke="#000"/></g><g fill="#00ff7f" stroke="#000" stroke-dashoffset="1.6" transform="matrix(.99264566 -.12105615 -.12105615 -.99264566 0 0)"><circle cx="39.945137" cy="-62.676846" r="5.644445"/><circle cx="10.384543" cy="-61.69722" r="5.644445"/><circle cx="50.946617" cy="-18.572773" r="5.644445"/></g></g><g stroke="#000"><g fill="none" stroke-width="4.51556" transform="matrix(.00754069 -.99997157 .99997157 .00754069 -34.830974 80.874388)"><path d="m66.031113 54.999999-18.062227.000002"/><path d="m57.000003 45.968888v18.062223"/></g><circle cx="41.656898" cy="-39.727669" fill="#00ff7f" r="5.644445" stroke-dashoffset="1.6" stroke-width="2.25778" transform="matrix(.99264566 -.12105615 -.12105615 -.99264566 0 0)"/></g></svg>
