<svg fill="none" height="800" viewBox="0 0 24 24" width="800" xmlns="http://www.w3.org/2000/svg"><path d="m9.6350652 9.6273423v4.7846247m0-4.7846247h4.7888358m-4.7888358 0v-1.993594c0-1.1010377-.8933424-1.9935937-1.99535-1.9935937-1.1020068 0-1.9953487.892556-1.9953487 1.9935937 0 1.101039.8933419 1.993594 1.9953487 1.993594zm0 4.7846247h4.7888358m-4.7888358 0h-1.99535c-1.1020068 0-1.9953487.892495-1.9953487 1.993597 0 1.101101.8933419 1.993594 1.9953487 1.993594 1.1020076 0 1.99535-.892493 1.99535-1.993594zm4.7888358 0v-4.7846247m0 4.7846247v1.993597c0 1.101101.89328 1.993594 1.99535 1.993594 1.102074 0 1.99535-.892493 1.99535-1.993594 0-1.101102-.893276-1.993597-1.99535-1.993597zm0-4.7846247v-1.993594c0-1.1010377.89328-1.9935937 1.99535-1.9935937 1.102074 0 1.99535.892556 1.99535 1.9935937 0 1.101039-.893276 1.993594-1.99535 1.993594zm-10.3758139-8.77181377h15.9627949c1.76325 0 3.192558 1.42809927 3.192558 3.18975077v15.9487547c0 1.7617-1.429308 3.189748-3.192558 3.189748h-15.9627949c-1.763202 0-3.19255857-1.428048-3.19255857-3.189748v-15.9487547c0-1.7616515 1.42935657-3.18975077 3.19255857-3.18975077z" stroke="#000" stroke-width="1.59559"/><g fill="#00ff7f" transform="matrix(.03 0 0 .03 0 0)"><path d="m124.81572 745.19561c-12.08248-1.54005-27.800412-7.86044-37.062294-14.90313-15.210345-11.56599-25.528976-27.15505-30.257864-45.71269l-1.475906-5.79191v-278.13268-278.13268l1.475906-5.79191c4.728888-18.557634 15.047519-34.146706 30.257864-45.712659 5.395844-4.103002 18.467374-10.58953 24.941084-12.376597 12.51247-3.454062-3.79173-3.269174 288.28829-3.269174 292.08003 0 275.77582-.184888 288.28829 3.269174 6.47371 1.787067 19.54524 8.273595 24.94106 12.376597 15.21036 11.565953 25.52898 27.155025 30.25789 45.712659l1.47591 5.79191v278.13268 278.13268l-1.47591 5.79191c-8.38277 32.89657-35.06873 56.61235-68.28578 60.6854-7.01712.86041-544.60438.7926-551.36854-.0696zm145.60973-106.42457c11.2856-1.73928 25.09459-7.04892 34.89701-13.41812 20.68532-13.44044 34.70482-33.68433 40.77162-58.87344 1.22607-5.09059 1.38239-8.17601 1.63778-32.32715l.28233-26.69942h52.96861 52.96861l.28233 26.69942c.25539 24.15114.41171 27.23656 1.63778 32.32715 5.56698 23.11386 17.39284 41.4561 35.48767 55.04236 11.64212 8.74133 26.27296 15.01596 40.50856 17.37263 8.57891 1.42021 22.87206 1.39105 31.27721-.0638 38.59521-6.68051 68.53273-36.21483 76.05484-75.03049 1.64025-8.46404 1.65235-25.46058.024-33.74283-3.89384-19.8055-12.95029-36.55218-27.17926-50.25835-13.16807-12.68425-27.03865-20.0738-45.95121-24.48049-4.1281-.96186-9.1841-1.18805-31.61344-1.41429l-26.69942-.2693v-52.9797-52.9797l26.69942-.2693c22.42934-.22624 27.48534-.45242 31.61344-1.41429 12.69894-2.9589 23.94476-7.7267 34.07043-14.44457 6.21595-4.12397 19.63577-17.49295 24.02165-23.93063 7.09802-10.41866 12.5033-23.49476 15.04149-36.38741 1.62526-8.25548 1.61157-25.26296-.0271-33.71906-7.53321-38.87299-37.3801-68.31924-76.05484-75.03396-8.6305-1.49843-23.41246-1.51-31.73361-.0248-18.80102 3.3556-36.02099 12.18041-49.23345 25.2309-13.46374 13.2987-21.71583 28.08881-26.30638 47.14859-1.22607 5.09059-1.38239 8.17601-1.63778 32.32714l-.28233 26.69941h-52.96861-52.96861l-.28233-26.69942c-.25539-24.15114-.41171-27.23656-1.63778-32.32714-2.13515-8.86507-4.51731-15.34691-8.50599-23.14473-13.23828-25.88063-37.97352-44.04809-67.03384-49.23477-8.32115-1.48515-23.10311-1.47358-31.73361.0249-38.66396 6.71285-68.52372 36.17181-76.05483 75.03396-1.64026 8.46404-1.65236 25.46058-.024 33.74283 1.65747 8.43052 5.15431 18.69804 8.75774 25.71477 11.57721 22.54356 32.72002 40.03038 56.81838 46.99344 11.1138 3.21125 15.79976 3.61719 41.78858 3.62003l24.07863.003v53.02548 53.02547l-26.69942.26639c-24.19371.2414-27.25284.39496-32.59624 1.63624-17.8811 4.15384-32.44878 12.04391-45.27214 24.52009-14.07254 13.69153-23.004 30.3078-26.87552 49.99971-1.62832 8.28225-1.61622 25.27879.024 33.74283 5.67152 29.26625 23.71375 53.21849 50.04598 66.4393 17.87549 8.97488 36.67427 11.75865 57.61366 8.53158z"/><path d="m244.61718 292.55674c-10.86879-2.84922-20.05143-10.26883-25.10738-20.28686-7.84076-15.53596-5.0779-32.9644 7.17775-45.27803 8.10895-8.1473 16.66439-11.75843 27.8579-11.75843 15.56385 0 28.3491 7.88213 35.48032 21.87369 3.76514 7.38725 4.13517 10.5065 4.14795 34.96496l.0114 21.78542-22.44062-.0361c-19.76441-.0318-22.99954-.1826-27.12729-1.26468z"/><path d="m347.91155 400.6552v-53.07125h53.07125 53.07125v53.07125 53.07125h-53.07125-53.07125z"/><path d="m507.79019 271.74447c.011-25.04405.2943-27.23669 4.58522-35.48439 4.43884-8.53201 12.91821-15.95394 21.79476-19.07679 5.08752-1.78984 16.13638-2.46371 21.64497-1.32013 10.56931 2.19418 21.96206 11.11989 26.79399 20.99188 1.33421 2.72591 2.8946 7.35833 3.5043 10.40347 3.97309 19.84354-9.01095 40.2107-28.87259 45.29046-4.61897 1.18133-7.27155 1.30852-27.28832 1.30852h-22.17201z"/><path d="m537.26454 585.04003c-10.75859-2.83839-20.15931-10.5251-25.26058-20.65487-3.91336-7.77089-4.20297-10.16399-4.21377-34.81923l-.01-22.11302h22.45379c20.66699 0 22.84378.10762 27.35463 1.35247 19.82675 5.47152 32.47214 25.53006 28.5245 45.24651-2.98004 14.88377-14.52782 27.28034-28.89954 31.02369-4.82022 1.25551-15.12534 1.23714-19.94935-.0355z"/><path d="m244.47093 585.04332c-10.11809-2.72137-20.55871-11.28023-25.11445-20.58796-4.45233-9.09644-5.41247-19.15257-2.7077-28.35939 2.97157-10.11497 10.87104-19.74019 19.87866-24.22144 8.49089-4.22418 10.06429-4.42162 35.23483-4.42162h22.51071l-.25668 23.75102c-.21032 19.46197-.44388 24.29522-1.29331 26.76457-4.69993 13.66294-15.28121 23.79239-28.32338 27.11395-4.89104 1.24564-15.22735 1.22535-19.92868-.0391z"/></g></svg>
