<svg height="800" viewBox="0 0 16 16" width="800" xmlns="http://www.w3.org/2000/svg"><g fill="#00ff7f" transform="matrix(.02 0 0 .02 0 0)"><path d="m194.65438 599.127c-66.87307-5.12519-112.340036-43.79627-133.322635-113.39506-12.54271-41.60387-14.454886-104.10836-4.657785-152.25189 4.153889-20.41246 9.284211-35.61904 17.788629-52.72657 22.807149-45.87897 59.607211-71.93944 111.614401-79.04128 10.05438-1.37297 35.79496-1.55211 45.53644-.31691 16.34883 2.07301 32.70321 6.12745 46.76632 11.59391l7.8083 3.03515-1.54546 3.37194c-10.27283 22.41362-19.30132 40.6974-20.04207 40.58761-.48524-.0719-4.27292-1.31632-8.41706-2.76534-14.76255-5.16179-28.31487-7.26694-46.65723-7.24751-19.87252.0211-33.28787 2.74787-48.08028 9.77282-9.73179 4.62165-16.09972 9.17999-24.21797 17.33587-16.15578 16.23069-26.42457 37.53439-32.40527 67.2282-7.499486 37.23453-6.69031 86.23837 1.9907 120.55692 6.3002 24.90651 15.70757 43.1041 29.74911 57.5466 12.23052 12.57976 26.3167 20.52575 43.65328 24.62475 10.76045 2.54416 18.32398 3.21368 31.93891 2.82719 21.38324-.60701 40.87941-5.39455 59.03211-14.49611 3.30923-1.65922 6.15136-3.01676 6.31584-3.01676.39837 0 21.98589 44.055 21.71852 44.32236-.11455.11455-3.57954 1.79376-7.69998 3.73159-31.29383 14.7173-64.75082 21.1839-96.86682 18.72252z"/><path d="m431.77723 600.05534c-22.03248-2.17461-41.05459-11.08342-56.37279-26.40163-10.73395-10.73394-17.43237-21.54525-22.28682-35.97114l-2.56597-7.62524-.01-90.25389-.01-90.25389h-12.44811-12.44881v-24.57003-24.57002h12.44881 12.44881v-24.89762-24.89763h24.57003 24.57002v24.89763 24.89762h24.89762 24.89763v24.57002 24.57003h-24.89763-24.89762v87.99923 87.99924l2.33044 3.89265c4.88244 8.15538 14.90953 16.30807 23.64278 19.22318 5.9328 1.98033 12.98677 2.90032 18.642 2.43132l4.97557-.41263.42744 9.34341c.23508 5.13889.42851 16.15582.42982 24.48209l.003 15.13867-4.4226.41769c-4.43011.41839-9.62649.41502-13.92302-.009z"/><path d="m500.5733 450.12285v-149.71335h24.57003 24.57002v22.91314 22.91314l9.33661-9.31773c12.87988-12.85383 23.28685-20.0007 38.95642-26.75293 13.75865-5.92878 26.90365-8.91732 41.96086-9.53989l9.99181-.41314v24.56859 24.56859l-9.33661.39328c-18.17971.76578-33.70769 5.5953-48.02371 14.93637-21.43594 13.98676-35.0994 33.89023-41.33931 60.2187-1.07887 4.55214-1.17989 11.17431-1.37189 89.92629l-.20725 85.01229h-24.55349-24.55349z"/><path d="m749.87339 375.10238c0-123.78379.0754-174.42261.16755-112.53072.0922 61.89189.0922 163.16954 0 225.06143-.0921 61.89189-.16755 11.25307-.16755-112.53071z"/><path d="m700.4095 375.10238v-224.73383h24.57002 24.57003v224.73383 224.73382h-24.57003-24.57002z"/></g><g fill="#000" transform="matrix(1 0 0 1 .489345 .11344)"><path d="m9 7v-1h-1v-1h-1v1h-.5v1h.5v3.56c.176.835.907 1.453 1.783 1.453.077 0 .152-.005.226-.014l-.009-.999c-.055.012-.119.019-.185.019-.359 0-.669-.21-.813-.514l-.002-3.505z"/><path d="m14 3h1v9h-1z"/><path d="m13 6c-.025-.001-.055-.001-.085-.001-.773 0-1.462.358-1.911.917l-.004-.915h-1v6h1v-3c-.003-.037-.004-.08-.004-.124 0-1.038.842-1.88 1.88-1.88.044 0 .087.001.13.004l-.006-1z"/><path d="m4.19 12c-2.03 0-3.19-1.46-3.19-4s1.16-4 3.19-4h.029c.539 0 1.052.114 1.515.32l-.424.901c-.319-.139-.69-.22-1.08-.22-.014 0-.028 0-.042 0-1.808 0-2.188 1.63-2.188 3s.38 3 2.19 3c.497-.013.96-.145 1.366-.368l.444.898c-.524.285-1.146.458-1.806.47z"/></g></svg>
