<?xml version="1.0" encoding="UTF-8" standalone="no"?>
<!-- Uploaded to: SVG Repo, www.svgrepo.com, Generator: SVG Repo Mixer Tools -->

<svg
   width="800px"
   height="800px"
   viewBox="0 0 16 16"
   version="1.1"
   id="svg323"
   sodipodi:docname="state_ctrl_yes.svg"
   inkscape:version="1.2.2 (732a01da63, 2022-12-09)"
   xmlns:inkscape="http://www.inkscape.org/namespaces/inkscape"
   xmlns:sodipodi="http://sodipodi.sourceforge.net/DTD/sodipodi-0.dtd"
   xmlns="http://www.w3.org/2000/svg"
   xmlns:svg="http://www.w3.org/2000/svg">
  <defs
     id="defs327" />
  <sodipodi:namedview
     id="namedview325"
     pagecolor="#ffffff"
     bordercolor="#000000"
     borderopacity="0.25"
     inkscape:showpageshadow="2"
     inkscape:pageopacity="0.0"
     inkscape:pagecheckerboard="0"
     inkscape:deskcolor="#d1d1d1"
     showgrid="false"
     inkscape:zoom="0.53961086"
     inkscape:cx="398.43527"
     inkscape:cy="-39.843527"
     inkscape:window-width="3840"
     inkscape:window-height="2126"
     inkscape:window-x="-11"
     inkscape:window-y="-11"
     inkscape:window-maximized="1"
     inkscape:current-layer="svg323" />
  <g
     id="g616">
    <path
       fill="#444"
       d="M9 7v-1h-1v-1h-1v1h-0.5v1h0.5v3.56c0.176 0.835 0.907 1.453 1.783 1.453 0.077 0 0.152-0.005 0.226-0.014l-0.009-0.999c-0.055 0.012-0.119 0.019-0.185 0.019-0.359 0-0.669-0.21-0.813-0.514l-0.002-3.505h1z"
       id="path315" />
    <path
       fill="#444"
       d="M14 3h1v9h-1v-9z"
       id="path317" />
    <path
       fill="#444"
       d="M13 6c-0.025-0.001-0.055-0.001-0.085-0.001-0.773 0-1.462 0.358-1.911 0.917l-0.004-0.915h-1v6h1v-3c-0.003-0.037-0.004-0.080-0.004-0.124 0-1.038 0.842-1.88 1.88-1.88 0.044 0 0.087 0.001 0.13 0.004l-0.006-1z"
       id="path319" />
    <path
       fill="#444"
       d="M4.19 12c-2.030 0-3.19-1.46-3.19-4s1.16-4 3.19-4c0.009-0 0.019-0 0.029-0 0.539 0 1.052 0.114 1.515 0.32l-0.424 0.901c-0.319-0.139-0.69-0.22-1.080-0.22-0.014 0-0.028 0-0.042 0-1.808-0-2.188 1.63-2.188 3s0.38 3 2.19 3c0.497-0.013 0.96-0.145 1.366-0.368l0.444 0.898c-0.524 0.285-1.146 0.458-1.806 0.47z"
       id="path321" />
  </g>
  <path
     style="fill:#00ff7f;stroke:#000000;stroke-width:6.55201;stroke-opacity:0"
     d="M 194.65438,599.127 C 127.78131,594.00181 82.314344,555.33073 61.331745,485.73194 48.789035,444.12807 46.876859,381.62358 56.67396,333.48005 60.827849,313.06759 65.958171,297.86101 74.462589,280.75348 97.269738,234.87451 134.0698,208.81404 186.07699,201.7122 c 10.05438,-1.37297 35.79496,-1.55211 45.53644,-0.31691 16.34883,2.07301 32.70321,6.12745 46.76632,11.59391 l 7.8083,3.03515 -1.54546,3.37194 c -10.27283,22.41362 -19.30132,40.6974 -20.04207,40.58761 -0.48524,-0.0719 -4.27292,-1.31632 -8.41706,-2.76534 -14.76255,-5.16179 -28.31487,-7.26694 -46.65723,-7.24751 -19.87252,0.0211 -33.28787,2.74787 -48.08028,9.77282 -9.73179,4.62165 -16.09972,9.17999 -24.21797,17.33587 -16.15578,16.23069 -26.42457,37.53439 -32.40527,67.2282 -7.499486,37.23453 -6.69031,86.23837 1.9907,120.55692 6.3002,24.90651 15.70757,43.1041 29.74911,57.5466 12.23052,12.57976 26.3167,20.52575 43.65328,24.62475 10.76045,2.54416 18.32398,3.21368 31.93891,2.82719 21.38324,-0.60701 40.87941,-5.39455 59.03211,-14.49611 3.30923,-1.65922 6.15136,-3.01676 6.31584,-3.01676 0.39837,0 21.98589,44.055 21.71852,44.32236 -0.11455,0.11455 -3.57954,1.79376 -7.69998,3.73159 -31.29383,14.7173 -64.75082,21.1839 -96.86682,18.72252 z"
     id="path628"
     transform="scale(0.02)" />
  <path
     style="fill:#00ff7f;stroke:#000000;stroke-width:6.55201;stroke-opacity:0"
     d="m 431.77723,600.05534 c -22.03248,-2.17461 -41.05459,-11.08342 -56.37279,-26.40163 -10.73395,-10.73394 -17.43237,-21.54525 -22.28682,-35.97114 l -2.56597,-7.62524 -0.01,-90.25389 -0.01,-90.25389 H 338.08354 325.63473 V 324.97952 300.4095 h 12.44881 12.44881 v -24.89762 -24.89763 h 24.57003 24.57002 v 24.89763 24.89762 h 24.89762 24.89763 v 24.57002 24.57003 H 424.57002 399.6724 v 87.99923 87.99924 l 2.33044,3.89265 c 4.88244,8.15538 14.90953,16.30807 23.64278,19.22318 5.9328,1.98033 12.98677,2.90032 18.642,2.43132 l 4.97557,-0.41263 0.42744,9.34341 c 0.23508,5.13889 0.42851,16.15582 0.42982,24.48209 l 0.003,15.13867 -4.4226,0.41769 c -4.43011,0.41839 -9.62649,0.41502 -13.92302,-0.009 z"
     id="path630"
     transform="scale(0.02)" />
  <path
     style="fill:#00ff7f;stroke:#000000;stroke-width:6.55201;stroke-opacity:0"
     d="M 500.5733,450.12285 V 300.4095 h 24.57003 24.57002 v 22.91314 22.91314 l 9.33661,-9.31773 c 12.87988,-12.85383 23.28685,-20.0007 38.95642,-26.75293 13.75865,-5.92878 26.90365,-8.91732 41.96086,-9.53989 l 9.99181,-0.41314 v 24.56859 24.56859 l -9.33661,0.39328 c -18.17971,0.76578 -33.70769,5.5953 -48.02371,14.93637 -21.43594,13.98676 -35.0994,33.89023 -41.33931,60.2187 -1.07887,4.55214 -1.17989,11.17431 -1.37189,89.92629 l -0.20725,85.01229 H 525.12679 500.5733 Z"
     id="path632"
     transform="scale(0.02)" />
  <path
     style="fill:#00ff7f;stroke:#000000;stroke-width:6.55201;stroke-opacity:0"
     d="m 749.87339,375.10238 c 0,-123.78379 0.0754,-174.42261 0.16755,-112.53072 0.0922,61.89189 0.0922,163.16954 0,225.06143 -0.0921,61.89189 -0.16755,11.25307 -0.16755,-112.53071 z"
     id="path634"
     transform="scale(0.02)" />
  <path
     style="fill:#00ff7f;stroke:#000000;stroke-width:6.55201;stroke-opacity:0"
     d="M 700.4095,375.10238 V 150.36855 h 24.57002 24.57003 V 375.10238 599.8362 H 724.97952 700.4095 Z"
     id="path636"
     transform="scale(0.02)" />
  <g
     id="g626"
     transform="translate(0.48934518,0.11343958)">
    <path
       fill="#444444"
       d="M 9,7 V 6 H 8 V 5 H 7 V 6 H 6.5 V 7 H 7 v 3.56 c 0.176,0.835 0.907,1.453 1.783,1.453 0.077,0 0.152,-0.005 0.226,-0.014 L 9,11 c -0.055,0.012 -0.119,0.019 -0.185,0.019 -0.359,0 -0.669,-0.21 -0.813,-0.514 L 8,7 Z"
       id="path618" />
    <path
       fill="#444444"
       d="m 14,3 h 1 v 9 h -1 z"
       id="path620" />
    <path
       fill="#444444"
       d="M 13,6 C 12.975,5.999 12.945,5.999 12.915,5.999 c -0.773,0 -1.462,0.358 -1.911,0.917 L 11,6.001 h -1 v 6 h 1 v -3 c -0.003,-0.037 -0.004,-0.08 -0.004,-0.124 0,-1.038 0.842,-1.88 1.88,-1.88 0.044,0 0.087,0.001 0.13,0.004 L 13,6.001 Z"
       id="path622" />
    <path
       fill="#444444"
       d="M 4.19,12 C 2.16,12 1,10.54 1,8 1,5.46 2.16,4 4.19,4 4.199,4 4.209,4 4.219,4 4.758,4 5.271,4.114 5.734,4.32 L 5.31,5.221 C 4.991,5.082 4.62,5.001 4.23,5.001 c -0.014,0 -0.028,0 -0.042,0 -1.808,0 -2.188,1.63 -2.188,3 0,1.37 0.38,3 2.19,3 0.497,-0.013 0.96,-0.145 1.366,-0.368 L 6,11.531 c -0.524,0.285 -1.146,0.458 -1.806,0.47 z"
       id="path624" />
  </g>
</svg>
