<svg height="256" viewBox="0 0 72.248892 72.248892" width="256" xmlns="http://www.w3.org/2000/svg"><path d="m12.233795 47.413345h-3.3388347l12.4929897-36.115627h3.803176l12.448767 36.115627h-3.383057l-3.847399-11.335741h-14.328243zm17.070068-14.585156-6.10277-18.132228-6.014325 18.132228z" fill="#000"/><path d="m43.742664 52.467991c.471712 1.5875 1.32669 2.819468 2.564934 3.695897 1.238242.892971 2.741823 1.339455 4.510742 1.339455 2.771306 0 4.989827-1.033528 6.655559-3.100586 1.680473-2.067058 2.520708-7.65087 2.520708-11.106989v-.719337c-1.17928 1.802475-2.520711 3.166734-4.024292 4.092776-1.503578.909503-3.161942 1.364257-4.975081 1.364257-3.655769 0-6.692413-1.36426-9.109934-4.092773-2.417524-2.745055-3.626285-6.159834-3.626285-10.244338 0-4.01836 1.19402-7.391798 3.582061-10.120314 2.38804-2.728515 5.34361-4.092773 8.866709-4.092773 2.048995 0 3.817913.413412 5.306754 1.240235 1.503582.826823 2.830272 2.116666 3.980068 3.869531v-4.464844h3.051387v22.770705c0 4.7625-1.068722 11.305428-3.206166 13.984332-2.122704 2.678907-5.056162 4.018359-8.800373 4.018359-2.756563 0-5.122494-.768942-7.097788-2.306834-1.975293-1.521355-3.250387-3.563608-3.825285-6.126759zm-2.166925-18.920466c0 3.191537.8992 5.862175 2.697602 8.011916 1.813139 2.149737 3.994807 3.224609 6.544999 3.224609 2.40278 0 4.525484-1.074872 6.36811-3.224609 1.842624-2.166276 2.763935-4.704625 2.763935-7.615042 0-3.108853-.906571-5.762955-2.719713-7.962304-1.813143-2.199349-3.950587-3.299024-6.412332-3.299024-2.535451 0-4.709748 1.050065-6.522887 3.150195-1.813143 2.083595-2.719714 4.655014-2.719714 7.714259z" fill="#000"/><g stroke="#000"><path d="m10.160027 54.186619v-15.804424" fill="none" stroke-width="2.257778"/><path d="m9.031115 46.28442h54.18667" fill="none" stroke-width="2.257778"/><circle cx="10.160004" cy="-46.284431" fill="#00ff7f" r="3.951111" stroke-dashoffset="28.32" stroke-linecap="square" stroke-width="1.128889" transform="matrix(1 0 0 -1 0 0)"/></g></svg>
