<svg height="256" viewBox="0 0 72.248892 72.248892" width="256" xmlns="http://www.w3.org/2000/svg"><path d="m37.810132 65.585964 19.901276-39.968947" fill="none" stroke="#000" stroke-width="2.25778"/><path d="m4.4651268 30.876994h7.1272142v.611849q-.677995 0-.959115.231511-.264583.23151-.264583.611849 0 .396875.578776 1.223698.181901.264583.545703.826823l1.07487 1.719792 1.240234-1.719792q1.190625-1.63711 1.190625-2.067058 0-.347265-.281119-.578776-.28112-.248047-.909506-.248047v-.611849h5.126303v.611849q-.810287.04961-1.405599.446485-.810287.562239-2.215886 2.447396l-2.067057 2.761589 3.770312 5.423958q1.389063 2.000912 1.984376 2.414323.595312.396875 1.53789.446485v.595312h-7.14375v-.595312q.744141 0 1.157552-.33073.314193-.23151.314193-.611849 0-.380338-1.058334-1.918229l-2.215885-3.241146-2.4308597 3.241146q-1.1244793 1.504818-1.1244793 1.785938 0 .396875.3638021.727604.3803386.314193 1.1244793.347266v.595312h-4.9444014v-.595312q.5953126-.082683 1.041797-.413412.6283854-.479557 2.1166668-2.447396l3.1750002-4.216797-2.877344-4.167188q-1.2236979-1.785937-1.9016928-2.232422-.6614584-.463021-1.6701824-.463021z" fill="#000" transform="matrix(.20238322 -.40617261 .34030598 .17054907 50.883496 26.613311)"/><g stroke-width="1.25295" transform="matrix(.09780304 -.20261034 .20445135 .09520952 16.337346 50.903118)"><path d="m176 100v32c10.66667-5.33333 21.33333-10.66667 32-16-10.66667-5.33333-21.33333-10.66667-32-16z" fill="#000" fill-rule="evenodd"/><path d="m140.20142 116h35.79858" fill="none" stroke="#000" stroke-width="10.0236"/></g><g stroke-width="1.25295" transform="matrix(-.20272609 -.09874113 .10139237 -.20088257 33.345534 83.558925)"><path d="m176 100v32c10.66667-5.33333 21.33333-10.66667 32-16-10.66667-5.33333-21.33333-10.66667-32-16z" fill="#000" fill-rule="evenodd"/><path d="m140.20142 116h35.79858" fill="none" stroke="#000" stroke-width="10.0236"/></g><path d="m49.556048 62.447271-40.1266876-19.573383" fill="none" stroke="#000" stroke-width="2.25779"/><ellipse cx="-31.869596" cy="-63.878311" fill="#00ff7f" rx="4.500939" ry="4.509445" stroke="#000" stroke-dashoffset="8" stroke-linecap="square" stroke-width="2.25792" transform="matrix(.48290411 -.87567324 -.88305221 -.46927476 0 0)"/><g stroke="#00ff7f"><text stroke-width="10" transform="matrix(.28222223 0 0 .28222223 0 0)"/><g fill="#fff"><text stroke-width="2.82222" x="-71.718208" y="-20"><tspan stroke-width="2.82222" x="-71.718208" y="-20"/></text><text stroke-width="10" transform="matrix(.28222223 0 0 .28222223 0 0)"/><text stroke-width="2.82222" x="-66" y="-15.389848"><tspan stroke-width="2.82222" x="-66" y="-15.389848"/></text><text stroke-width="10" transform="matrix(.28222223 0 0 .28222223 0 0)"/></g></g><g stroke="#000"><text stroke-width="2.82222" transform="matrix(.94842791 0 0 1.0543764 0 0)" x="33.615593" y="33.194935"><tspan stroke="#000" stroke-width="2.82222" x="33.615593" y="33.194935"/></text><text fill="#000" font-family="Verdana" font-size="47.7736" letter-spacing="0" stroke-width="2.82221" transform="matrix(1.0335868 0 0 .96750465 0 0)" x="11.015446" y="41.083549"><tspan stroke-width="2.82221" x="11.015446" y="41.083549">U</tspan><tspan stroke-width="2.82221" x="11.015446" y="43.949974"/></text><text stroke-width="10" transform="matrix(.28222223 0 0 .28222223 0 0)"/></g></svg>
