<svg height="256" viewBox="0 0 72.248892 72.248892" width="256" xmlns="http://www.w3.org/2000/svg"><path d="m17.467564 3.5915052.244606 55.9699348" fill="none" stroke="#000" stroke-width="2.25778"/><path d="m4.4651268 30.876994h7.1272142v.611849q-.677995 0-.959115.231511-.264583.23151-.264583.611849 0 .396875.578776 1.223698.181901.264583.545703.826823l1.07487 1.719792 1.240234-1.719792q1.190625-1.63711 1.190625-2.067058 0-.347265-.281119-.578776-.28112-.248047-.909506-.248047v-.611849h5.126303v.611849q-.810287.04961-1.405599.446485-.810287.562239-2.215886 2.447396l-2.067057 2.761589 3.770312 5.423958q1.389063 2.000912 1.984376 2.414323.595312.396875 1.53789.446485v.595312h-7.14375v-.595312q.744141 0 1.157552-.33073.314193-.23151.314193-.611849 0-.380338-1.058334-1.918229l-2.215885-3.241146-2.4308597 3.241146q-1.1244793 1.504818-1.1244793 1.785938 0 .396875.3638021.727604.3803386.314193 1.1244793.347266v.595312h-4.9444014v-.595312q.5953126-.082683 1.041797-.413412.6283854-.479557 2.1166668-2.447396l3.1750002-4.216797-2.877344-4.167188q-1.2236979-1.785937-1.9016928-2.232422-.6614584-.463021-1.6701824-.463021z" fill="#000" transform="matrix(.00233472 .56885773 -.45201816 -.00059149 24.421326 54.618854)"/><g stroke-width="1.02695" transform="matrix(.00450686 .28199668 -.26769148 .00777923 48.084021 8.026251)"><path d="m176 100v32c10.66667-5.33333 21.33333-10.66667 32-16-10.66667-5.33333-21.33333-10.66667-32-16z" fill="#000"/><path d="m140.20142 116h35.79858" fill="none" stroke="#000" stroke-width="8.21563"/></g><g stroke-width="1.02695" transform="matrix(.26774831 -.00285239 -.00022276 .28207013 12.601551 -19.064231)"><path d="m176 100v32c10.66667-5.33333 21.33333-10.66667 32-16-10.66667-5.33333-21.33333-10.66667-32-16z" fill="#000"/><path d="m140.20142 116h35.79858" fill="none" stroke="#000" stroke-width="8.21563"/></g><path d="m6.6870484 13.691852 53.0123876-.532057" fill="none" stroke="#000" stroke-width="2.25779"/><ellipse cx="13.539078" cy="18.665819" fill="#00ff7f" rx="5.640993" ry="5.355522" stroke="#000" stroke-dashoffset="8" stroke-linecap="square" stroke-width="2.25782" transform="matrix(-.03540323 .99937311 .99964821 .02652267 0 0)"/><g stroke="#00ff7f"><text stroke-width="10" transform="matrix(.28222223 0 0 .28222223 0 0)"/><g fill="#fff"><text stroke-width="2.82222" x="-71.718208" y="-20"><tspan stroke-width="2.82222" x="-71.718208" y="-20"/></text><text stroke-width="10" transform="matrix(.28222223 0 0 .28222223 0 0)"/><text stroke-width="2.82222" x="-66" y="-15.389848"><tspan stroke-width="2.82222" x="-66" y="-15.389848"/></text><text stroke-width="10" transform="matrix(.28222223 0 0 .28222223 0 0)"/></g></g><g stroke="#000" stroke-width="2.25778"><path d="m42.883533 42.165048-8.371112-11.793532 4.771828-2.164577-15.034014-6.960805 1.695879 16.608909 3.614811-3.794613 8.320806 11.722664 5.001801-3.618037" fill="#00ff7f" fill-rule="evenodd" stroke-linecap="square"/><g fill="none" stroke-dasharray="4.51556 2.25778"><path d="m47.5555 68.949945.373448-29.997675" stroke-dashoffset="3.38667"/><path d="m37.722007 59.509812 31.498558.392134" stroke-dashoffset="2.25778"/></g></g></svg>
