<svg height="256" viewBox="0 0 72.248892 72.248892" width="256" xmlns="http://www.w3.org/2000/svg"><path d="m4.8076169 53.225171 50.9707781.475463" fill="none" stroke="#000" stroke-width="2.25778"/><g stroke-width="1.10784" transform="matrix(.25684898 -.00069378 .00382376 .25265608 9.218903 24.395532)"><path d="m176 100v32c10.66667-5.33333 21.33333-10.66667 32-16-10.66667-5.33333-21.33333-10.66667-32-16z" fill="#000" fill-rule="evenodd"/><path d="m140.20142 116h35.79858" fill="none" stroke="#000" stroke-width="8.86275"/></g><g stroke-width="1.10784" transform="matrix(.00066346 -.25264752 .25685826 .00376939 -15.88259 57.530217)"><path d="m176 100v32c10.66667-5.33333 21.33333-10.66667 32-16-10.66667-5.33333-21.33333-10.66667-32-16z" fill="#000" fill-rule="evenodd"/><path d="m140.20142 116h35.79858" fill="none" stroke="#000" stroke-width="8.86275"/></g><path d="m13.873986 63.523675.161133-50.022121" fill="none" stroke="#000" stroke-width="2.25779"/><ellipse cx="16.336988" cy="-51.897915" fill="#00ff7f" rx="5.137754" ry="5.052932" stroke="#000" stroke-dashoffset="8" stroke-linecap="square" stroke-width="2.25786" transform="matrix(.99872311 .0505189 .03850244 -.99925851 0 0)"/><g stroke="#00ff7f"><text stroke-width="10" transform="matrix(.28222223 0 0 .28222223 0 0)"/><g fill="#fff"><text stroke-width="2.82222" x="-71.718208" y="-20"><tspan stroke-width="2.82222" x="-71.718208" y="-20"/></text><text stroke-width="10" transform="matrix(.28222223 0 0 .28222223 0 0)"/><text stroke-width="2.82222" x="-66" y="-15.389848"><tspan stroke-width="2.82222" x="-66" y="-15.389848"/></text><text stroke-width="10" transform="matrix(.28222223 0 0 .28222223 0 0)"/></g></g><g stroke="#000" stroke-dasharray="none" stroke-linecap="square"><path d="m35.036073 41.371331-7.628005 3.087356-.946763-2.453602-5.227462 6.654629 10.017327.484464-2.001062-2.026881 7.582168-3.068804-1.796198-2.677159" fill="#00ff7f" fill-rule="evenodd" stroke-width="1.10066"/><g fill="none"><path d="m45.196071 46.606321v-23.5657" stroke-width="3.273778"/><path d="m39.423904 38.920166h20.360499" stroke-width="2.822222"/></g></g><path d="m40.64179 10.235166 4.55768 3.500248 4.80865-3.681672v1.875438l-3.67969 2.817456 3.67969 2.817458v1.875436l-4.90023-3.759477-4.46575 3.439652v-1.875436l3.3362-2.566833-3.3362-2.566835v-1.875435" stroke-width=".282221"/><path d="m66.020744 42.817554c-.434834 1.152328-.85861 1.904198-1.271206 2.255737-.412595.351412-.964466.527181-1.655849.527181h-1.229339v-1.330923h.903211c.423777 0 .752639-.10374.986825-.311098.234187-.20748.493355-.697174.777735-1.469202l.275934-.725937-3.788399-9.523452h1.630752l2.926936 7.570334 2.926935-7.570334h1.630753l-4.114527 10.578063" stroke-width=".282221"/><ellipse cx="44.981873" cy="39.077061" rx="3.211181" ry="3.124699" style="fill:#00ff7f;fill-opacity:1;fill-rule:nonzero;stroke:#000;stroke-width:2.25778;stroke-linecap:butt;stroke-linejoin:miter;stroke-miterlimit:4;stroke-dasharray:none;stroke-dashoffset:1.6;stroke-opacity:1"/></svg>