<svg height="256" viewBox="0 0 72.248892 72.248892" width="256" xmlns="http://www.w3.org/2000/svg"><path d="m47.738222-22.328838a14.883173 15.668699 0 0 1 -8.756796 14.2796773 14.883173 15.668699 0 0 1 -15.965935-2.5237583 14.883173 15.668699 0 0 1 -4.387356-16.357392" fill="#00ff7f" stroke-width=".999999" transform="matrix(1 0 0 -1 0 0)"/><path d="m7.0766553 23.448053a29.766357 31.337411 0 0 1 25.7784217-15.6687045 29.766357 31.337411 0 0 1 25.778419 15.6687035" fill="none" stroke="#000" stroke-dasharray="none" stroke-dashoffset="15.2" stroke-width="3.38668"/><ellipse cx="32.85508" cy="22.32885" rx="7.441585" ry="7.834348" stroke-width=".999999"/><path d="m7.0766553 21.209664c2.6586228 4.847914 4.9517897 6.900204 8.6817587 9.887959m39.186533-3.673262c2.966153-4.473312 1.029927-1.366782 3.688549-6.214696" fill="none" stroke="#000" stroke-dasharray="none" stroke-dashoffset="15.2" stroke-width="3.38668"/><ellipse cx="38.170517" cy="15.613681" fill="#fff" rx="3.189248" ry="3.357575" stroke-width=".999999"/><path d="m47.301431-22.328838a14.009591 14.389985 0 0 1 -8.104636 13.0492883 14.009591 14.389985 0 0 1 -14.936742-2.0489003 14.009591 14.389985 0 0 1 -4.486853-14.776486" fill="none" stroke="#000" stroke-dashoffset="15.2" stroke-width="2.25778" transform="matrix(1 0 0 -1 0 0)"/><path d="m52.106138-35.915188a14.883173 15.668699 0 0 1 -8.655422 14.230992 14.883173 15.668699 0 0 1 -15.899014-2.321291 14.883173 15.668699 0 0 1 -4.650221-16.173645" fill="#00ff7f" stroke-width=".999999" transform="matrix(1 0 0 -1 0 0)"/><path d="m11.444571 37.034397a29.766357 31.337411 0 0 1 25.778422-15.668706 29.766357 31.337411 0 0 1 25.77842 15.668705" fill="none" stroke="#000" stroke-dasharray="none" stroke-dashoffset="15.2" stroke-width="3.38668"/><ellipse cx="37.222996" cy="35.915195" rx="7.441585" ry="7.834348" stroke-width=".999999"/><path d="m11.444571 34.796008c2.845205 4.931273 5.574442 7.317305 9.09357 10.227029m37.775249-4.297367c2.900879-2.679468 3.51314-3.505705 4.842453-5.929661" fill="none" stroke="#000" stroke-dasharray="none" stroke-dashoffset="15.2" stroke-width="3.38668"/><ellipse cx="42.538433" cy="29.200022" fill="#fff" rx="3.189248" ry="3.357575" stroke-width=".999999"/><path d="m51.669347-35.915188a14.009591 14.389985 0 0 1 -8.596113 13.27226 14.009591 14.389985 0 0 1 -15.2394-3.015131 14.009591 14.389985 0 0 1 -3.181271-15.602426" fill="none" stroke="#000" stroke-dashoffset="15.2" stroke-width="2.25778" transform="matrix(1 0 0 -1 0 0)"/><ellipse cx="41.736477" cy="49.661369" fill="#00ff7f" rx="14.883173" ry="15.668699" stroke-width=".999999"/><path d="m15.958083 50.780581a29.766357 31.337411 0 0 1 25.778422-15.668706 29.766357 31.337411 0 0 1 25.77842 15.668705" fill="none" stroke="#000" stroke-dasharray="none" stroke-dashoffset="15.2" stroke-width="3.38668"/><ellipse cx="41.736504" cy="49.661377" rx="7.441585" ry="7.834348" stroke-width=".999999"/><path d="m15.958083 48.542192a29.766357 31.337411 0 0 0 25.778422 15.668704 29.766357 31.337411 0 0 0 25.77842-15.668703" fill="none" stroke="#000" stroke-dasharray="none" stroke-dashoffset="15.2" stroke-width="3.38668"/><ellipse cx="47.051941" cy="42.946209" fill="#fff" rx="3.189248" ry="3.357575" stroke-width=".999999"/><ellipse cx="42.173267" cy="49.661369" fill="none" rx="14.009591" ry="14.389985" stroke="#000" stroke-dashoffset="15.2" stroke-width="2.25778"/></svg>
