<svg height="256" viewBox="0 0 72.248892 72.248892" width="256" xmlns="http://www.w3.org/2000/svg"><g stroke="#000"><g stroke-dasharray="none" stroke-dashoffset="0" stroke-opacity="1"><path d="m64.851519 56.780638-57.4541492-.222258.0651417-45.618694h57.3238665z" fill="none" stroke-width="2.832947"/><g stroke-width="1.92994"><path d="m58.622182 16.586088h-29.964851l-.199167 34.403996 30.164018.143327z" fill="none"/><g fill="#00ff7f" fill-opacity="1"><path d="m22.30428 16.602913-9.480074-.01545v7.7294h9.522131z"/><path d="m22.386671 27.366623-9.562633.05622v7.7294l9.604687-.07167z"/><path d="m22.223703 38.276318-9.399362.01948v12.532416h9.441414z"/></g></g></g><g fill-rule="evenodd" stroke-width="2.96694" transform="matrix(.76969713 0 0 .75236271 20.868174 22.107112)"><path d="m10.160001 53.057781v-42.89778h51.928892v47.413336l-4.515556 4.515556h-38.382225z" fill="#fff"/><path d="m19.191112 11.28889v19.191112l4.515556 4.515556h24.835557l4.515556-4.515556v-19.191112" fill="#00ff7f"/><path d="m23.706668 60.960004v-14.675557l2.257778-2.257778h20.320001l2.257778 2.257778v14.675557" fill="#00ff7f"/><path d="m28.222224 57.573337v-9.031112h4.515556v9.031112z" fill="#fff"/></g></g></svg>