<svg height="256" viewBox="0 0 72.248892 72.248892" width="256" xmlns="http://www.w3.org/2000/svg"><g style="fill:none;stroke-dashoffset:0;stroke-opacity:1;stroke:#000;stroke-width:.999913;stroke-dasharray:none" transform="matrix(-1 0 0 1 72.248891 2.263314)"><path d="m64.851519 56.780638-57.4541492-.222258.0651417-45.618694h57.3238665z"/><path d="m58.622182 16.586088h-29.964851l-.199167 34.403996 30.164018.143327z"/><path d="m22.30428 16.602913-9.480074-.01545v7.7294h9.522131z"/><path d="m22.386671 27.366623-9.562633.05622v7.7294l9.604687-.07167z"/><path d="m22.223703 38.276318-9.399362.01948v12.532416h9.441414z"/></g><g fill-opacity="1" transform="matrix(1 0 0 1 -36.332064 8.127382)"><path d="m104.67214 24.395588h-8.83118v-3.16705h-10.163965v3.16705h-8.831174v7.50093h1.88061l1.795246 25.41978h20.474603l1.79525-25.41978h1.88061zm-16.302276-.66674h4.778227v.66674h-4.778227zm-8.831174 3.16705h22.44058v2.50031h-22.44058zm18.935447 27.9201h-15.430319l-1.618684-22.91948h18.667776z" fill="#00ff7f" stroke="#000" stroke-dasharray="none" stroke-opacity="1" stroke-width=".973102"/><g fill="#fff" transform="matrix(.28222223 0 0 .28222223 0 0)"><path d="m295.88512 190.94525c-.0936-.84921-1.29136-17.69019-2.66173-37.42438-1.37038-19.7342-2.56518-36.509-2.65512-37.27734l-.16352-1.39698h31.17101 31.17101l-.14757 1.39698c-.0812.76834-1.26202 17.34462-2.62414 36.83618-1.36212 19.49157-2.56019 36.33254-2.66239 37.42439l-.18581 1.98519h-25.5358-25.5358z"/><path d="m283.66068 99.700333v-2.499861h37.93907 37.93906v2.499861 2.499857h-37.93906-37.93907z"/></g></g></svg>