<svg height="256" viewBox="0 0 72.248892 72.248892" width="256" xmlns="http://www.w3.org/2000/svg"><path d="m15.804446 37.253337h27.093335" fill="none" stroke="#00ff7f" stroke-width="4.515556"/><g fill="#00ff7f" fill-rule="evenodd"><path d="m29.351113 23.706669v27.093335" stroke="#00ff7f" stroke-width="4.515556"/><path d="m17.497782 30.479997-10.1600074 6.773338 10.1600074 6.773339z"/><path d="m41.204439 30.479997 10.160007 6.773338-10.160007 6.773339z"/><path d="m36.124449 49.106663-6.773339 10.160008-6.773338-10.160008z"/><path d="m22.577772 25.400007 6.773338-10.160007 6.773339 10.160007z"/></g><g fill="none" stroke="#000"><path d="m17.497779 30.480003v4.515556h9.595556v-9.595556h-4.515556l6.773331-10.160003 6.773339 10.160007h-4.515558v9.595552h9.595556v-4.515556l10.160001 6.773334-10.16001 6.773336v-4.515558h-9.595547v9.595556h4.515556l-6.773334 10.160001-6.773341-10.16001 4.515563.000009v-9.595556h-9.595556v4.515556l-10.1600045-6.773337z" stroke-width="1.128889"/><circle cx="44.026669" cy="20.320002" r="9.031112" stroke-width="2.257778"/><path d="m50.800004 27.093335 14.368411 14.36841" stroke-width="4.515556"/></g></svg>
