/* XPM */
static char *caduntu_xpm[] = {
/* columns rows colors chars-per-pixel */
"111 112 2 1",
"  c black",
". c None",
/* pixels */
"...............................................................................................................",
"...............................................................................................................",
"...............................................................................................................",
"...............................................................................................................",
"...............................................................................................................",
"...............................................................................................................",
"...............................................................................................................",
"...............................................................................................................",
"...............................................................................................................",
"...............................................................................................................",
"...............................................................................................................",
"...............................................................................................................",
"...............................................................................................................",
"...............................................................................................................",
"...............................................................................................................",
"...............................................................................................................",
"...............................................................................................................",
"...............................................................................................................",
"...............................................................................................................",
"...............................................................................................................",
"...............................................................................................................",
"...............................................................................................................",
"...............................................................................................................",
"...............................................................................................................",
"...............................................................................................................",
"...............................................................................................................",
"...............................................................................................................",
".......                    .........................     ......................                    ............",
".....                         .....................       .....................                       .........",
".....                         ....................        .....................                         .......",
"....                           ...................         ....................                           .....",
"....                           ..................           ...................                            ....",
"....      ...............      ..................           ...................      ...............        ...",
"....      ...............      .................     ..      ..................      ................       ...",
"....      ...............      ................      ..      ..................      .................       ..",
"....      ...............     .................     ....      .................      ..................      ..",
"....      ....................................      .....     .................      ..................      ..",
"....      ....................................     ......      ................      ..................      ..",
"....      ...................................      .......      ...............      ..................      ..",
"....      ...................................     ........      ...............      ..................      ..",
"....      ..................................      .........      ..............      ..................      ..",
"....      ..................................     ..........      ..............      ..................      ..",
"....      ...............  ................                       .............      ..................      ..",
"....      ...............      ...........                        .............      ..................      ..",
"....      ...............      ...........                         ............      .................      ...",
"....      ...............      ..........                           ...........      ................       ...",
"....      ...............      ..........                           ...........      ..............        ....",
"....                           .........      ................       ..........                            ....",
"....                           .........     ..................      ..........                           .....",
"....                          .........      ...................      .........                          ......",
".....                         ........      ....................       ........                        ........",
".......                     ..........      .....................      ........                     ...........",
"...............................................................................................................",
"...............................................................................................................",
"...............................................................................................................",
"...............................................................................................................",
"...............................................................................................................",
"...............................................................................................................",
"...............................................................................................................",
"...............................................................................................................",
"...............................................................................................................",
"...............................................................................................................",
"...............................................................................................................",
"...............................................................................................................",
"...............................................................................................................",
"...............................................................................................................",
"...............................................................................................................",
"...............................................................................................................",
"...............................................................................................................",
"...............................................................................................................",
"...............................................................................................................",
"...............................................................................................................",
"...............................................................................................................",
"...............................................................................................................",
"...............................................................................................................",
"...............................................................................................................",
"...............................................................................................................",
"...........    ...........   .......    ............   ....                   ....    ...........   ...........",
"...........    ...........   .......     ...........   ....                   ....    ...........   ...........",
"...........    ...........   .......      ..........   .....                 .....    ...........   ...........",
"...........    ...........   .......        ........   ............   ............    ...........   ...........",
"...........    ...........   .......         .......   ............   ............    ...........   ...........",
"...........    ...........   .......    .     ......   ............   ............    ...........   ...........",
"...........    ...........   .......    ..      ....   ............   ............    ...........   ...........",
"...........    ...........   .......    ...      ...   ............   ............    ...........   ...........",
"...........    ...........   .......    ....      ..   ............   ............    ...........   ...........",
"...........    ...........   .......    ......         ............   ............    ...........   ...........",
"...........    ...........   .......    .......        ............   ............    ...........   ...........",
"...........    ...........   .......    ........       ............   ............    ...........   ...........",
"............                 .......    ..........     ............   .............                 ...........",
"............                 .......    ...........    ............   .............                 ...........",
".............               ........    ............   ............   ..............               ............",
"...............................................................................................................",
"...............................................................................................................",
"...............................................................................................................",
"...............................................................................................................",
"...............................................................................................................",
"...............................................................................................................",
"...............................................................................................................",
"...............................................................................................................",
"...............................................................................................................",
"...............................................................................................................",
"...............................................................................................................",
"...............................................................................................................",
"...............................................................................................................",
"...............................................................................................................",
"...............................................................................................................",
"...............................................................................................................",
"...............................................................................................................",
"...............................................................................................................",
"...............................................................................................................",
"..............................................................................................................."
};
