/* XPM */
static const char *document_xpm[] = {
"13 16 8 1",
"$ c #8f8f8f",
"% c #111111",
"& c #ffffff",
"' c #161616",
"( c #000000",
") c #2f2f2f",
"* c #b9b9b9",
"+ c none",
"$$$$$$$$$$+++",
"$&&&&&&&&*$++",
"$&&&&&&&&**$+",
"$&&(((((&((()",
"$&&(&&(&&&&$'",
"$&&(&(&&&&&$'",
"$&&((&&&&&&$'",
"$&&(&&(&&&&$'",
"$&&&&(&(&&&$'",
"$&&&&(&(&&&$'",
"$&&&(&&&(&&$'",
"$&&&(&&&(&&$'",
"$&&(((((((&$'",
"$&&&&&&&&&&$'",
"$&&&&&&&&&&$'",
"$$$$$$$$$$$$%"
};

