/* XPM */
static const char* filenew_xpm[]={
"16 16 5 1",
"# c #000000",
"c c #c0c0c0",
"a c #ffffff",
"b c #dcdcdc",
". c None",
"................",
"...#######......",
"...#aaaabb#.....",
"...#aaaacab#....",
"...#aaaacaab#...",
"...#aaaac####...",
"...#aaaaaccc#...",
"...#aaaaaaaa#...",
"...#aaaaaaaa#...",
"...#aaaaaaaa#...",
"...#aaaaaaaa#...",
"...#aaaaaaaa#...",
"...#aaaaaaaa#...",
"...#aaaaaaaa#...",
"...##########...",
"................"};



