999
dxfrw 0.5.10
0
SECTION
2
HEADER
9
$ACADVER
1
AC1021
9
$HANDSEED
5
20000
9
$DWGCODEPAGE
3
ANSI_1251
9
$INSBASE
10
0
20
0
30
0
9
$EXTMIN
10
10000000000
20
10000000000
30
0
9
$EXTMAX
10
-10000000000
20
-10000000000
30
0
9
$LIMMIN
10
0
20
0
9
$LIMMAX
10
420
20
297
9
$ORTHOMODE
70
0
9
$LTSCALE
40
1
9
$TEXTSTYLE
7
Standard
9
$CLAYER
8
0
9
$DIMASZ
40
2.5
9
$DIMLFAC
40
1
9
$DIMSCALE
40
1
9
$DIMEXO
40
0.625
9
$DIMEXE
40
1.25
9
$DIMTXT
40
2.5
9
$DIMTSZ
40
0
9
$DIMAUNIT
70
0
9
$DIMADEC
70
0
9
$DIMLUNIT
70
2
9
$DIMSTYLE
2
ISO-25
9
$DIMGAP
40
0.625
9
$DIMTIH
70
0
9
$LUNITS
70
2
9
$LUPREC
70
4
9
$AUNITS
70
0
9
$AUPREC
70
0
9
$SPLINESEGS
70
8
9
$GRIDMODE
70
0
9
$SNAPSTYLE
70
0
9
$PINSBASE
10
0
20
0
30
0
9
$PLIMMIN
10
0
20
0
9
$PLIMMAX
10
420
20
297
9
$INSUNITS
70
4
9
$PSVPSCALE
40
0
0
ENDSEC
0
SECTION
2
CLASSES
0
ENDSEC
0
SECTION
2
TABLES
0
TABLE
2
VPORT
5
8
330
0
100
AcDbSymbolTable
70
1
0
VPORT
5
31
330
2
100
AcDbSymbolTableRecord
100
AcDbViewportTableRecord
2
*ACTIVE
70
0
10
0
20
0
11
1
21
1
12
0.540087180685
22
0.235345251918
13
0
23
0
14
10
24
10
15
10
25
10
16
0
26
0
36
1
17
0
27
0
37
0
40
1.86767578125
41
2.06785137318
42
50
43
0
44
0
50
0
51
0
71
0
72
100
73
1
74
3
75
0
76
0
77
0
78
0
281
0
65
1
110
0
120
0
130
0
111
1
121
0
131
0
112
0
122
1
132
0
79
0
146
0
348
10020
60
7
61
5
292
1
282
1
141
0
142
0
63
250
421
3358443
0
ENDTAB
0
TABLE
2
LTYPE
5
5
330
0
100
AcDbSymbolTable
70
4
0
LTYPE
5
14
330
5
100
AcDbSymbolTableRecord
100
AcDbLinetypeTableRecord
2
ByBlock
70
0
3

72
65
73
0
40
0
0
LTYPE
5
15
330
5
100
AcDbSymbolTableRecord
100
AcDbLinetypeTableRecord
2
ByLayer
70
0
3

72
65
73
0
40
0
0
LTYPE
5
16
330
5
100
AcDbSymbolTableRecord
100
AcDbLinetypeTableRecord
2
Continuous
70
0
3
Solid line
72
65
73
0
40
0
0
LTYPE
5
32
330
5
100
AcDbSymbolTableRecord
100
AcDbLinetypeTableRecord
2
DOT
70
0
3
Dot . . . . . . . . . . . . . . . . . . . . . .
72
65
73
2
40
6.35
49
0
74
0
49
-6.35
74
0
0
LTYPE
5
33
330
5
100
AcDbSymbolTableRecord
100
AcDbLinetypeTableRecord
2
DOT2
70
0
3
Dot (.5x) .....................................
72
65
73
2
40
3.175
49
0
74
0
49
-3.175
74
0
0
LTYPE
5
34
330
5
100
AcDbSymbolTableRecord
100
AcDbLinetypeTableRecord
2
DOTX2
70
0
3
Dot (2x) .  .  .  .  .  .  .  .  .  .  .  .  .
72
65
73
2
40
12.7
49
0
74
0
49
-12.7
74
0
0
LTYPE
5
35
330
5
100
AcDbSymbolTableRecord
100
AcDbLinetypeTableRecord
2
DASHED
70
0
3
Dot . . . . . . . . . . . . . . . . . . . . . .
72
65
73
2
40
19.05
49
12.7
74
0
49
-6.35
74
0
0
LTYPE
5
36
330
5
100
AcDbSymbolTableRecord
100
AcDbLinetypeTableRecord
2
DASHED2
70
0
3
Dashed (.5x) _ _ _ _ _ _ _ _ _ _ _ _ _ _ _ _ _
72
65
73
2
40
9.525
49
6.35
74
0
49
-3.175
74
0
0
LTYPE
5
37
330
5
100
AcDbSymbolTableRecord
100
AcDbLinetypeTableRecord
2
DASHEDX2
70
0
3
Dashed (2x) ____  ____  ____  ____  ____  ___
72
65
73
2
40
38.1
49
25.4
74
0
49
-12.7
74
0
0
LTYPE
5
38
330
5
100
AcDbSymbolTableRecord
100
AcDbLinetypeTableRecord
2
DASHDOT
70
0
3
Dash dot __ . __ . __ . __ . __ . __ . __ . __
72
65
73
4
40
25.4
49
12.7
74
0
49
-6.35
74
0
49
0
74
0
49
-6.35
74
0
0
LTYPE
5
39
330
5
100
AcDbSymbolTableRecord
100
AcDbLinetypeTableRecord
2
DASHDOT2
70
0
3
Dash dot (.5x) _._._._._._._._._._._._._._._.
72
65
73
4
40
12.7
49
6.35
74
0
49
-3.175
74
0
49
0
74
0
49
-3.175
74
0
0
LTYPE
5
3A
330
5
100
AcDbSymbolTableRecord
100
AcDbLinetypeTableRecord
2
DASHDOTX2
70
0
3
Dash dot (2x) ____  .  ____  .  ____  .  ___
72
65
73
4
40
50.8
49
25.4
74
0
49
-12.7
74
0
49
0
74
0
49
-12.7
74
0
0
LTYPE
5
3B
330
5
100
AcDbSymbolTableRecord
100
AcDbLinetypeTableRecord
2
DIVIDE
70
0
3
Divide ____ . . ____ . . ____ . . ____ . . ____
72
65
73
6
40
31.75
49
12.7
74
0
49
-6.35
74
0
49
0
74
0
49
-6.35
74
0
49
0
74
0
49
-6.35
74
0
0
LTYPE
5
3C
330
5
100
AcDbSymbolTableRecord
100
AcDbLinetypeTableRecord
2
DIVIDE2
70
0
3
Divide (.5x) __..__..__..__..__..__..__..__.._
72
65
73
6
40
15.875
49
6.35
74
0
49
-3.175
74
0
49
0
74
0
49
-3.175
74
0
49
0
74
0
49
-3.175
74
0
0
LTYPE
5
3D
330
5
100
AcDbSymbolTableRecord
100
AcDbLinetypeTableRecord
2
DIVIDEX2
70
0
3
Divide (2x) ________  .  .  ________  .  .  _
72
65
73
6
40
63.5
49
25.4
74
0
49
-12.7
74
0
49
0
74
0
49
-12.7
74
0
49
0
74
0
49
-12.7
74
0
0
LTYPE
5
3E
330
5
100
AcDbSymbolTableRecord
100
AcDbLinetypeTableRecord
2
BORDER
70
0
3
Border __ __ . __ __ . __ __ . __ __ . __ __ .
72
65
73
6
40
44.45
49
12.7
74
0
49
-6.35
74
0
49
12.7
74
0
49
-6.35
74
0
49
0
74
0
49
-6.35
74
0
0
LTYPE
5
3F
330
5
100
AcDbSymbolTableRecord
100
AcDbLinetypeTableRecord
2
BORDER2
70
0
3
Border (.5x) __.__.__.__.__.__.__.__.__.__.__.
72
65
73
6
40
22.225
49
6.35
74
0
49
-3.175
74
0
49
6.35
74
0
49
-3.175
74
0
49
0
74
0
49
-3.175
74
0
0
LTYPE
5
40
330
5
100
AcDbSymbolTableRecord
100
AcDbLinetypeTableRecord
2
BORDERX2
70
0
3
Border (2x) ____  ____  .  ____  ____  .  ___
72
65
73
6
40
88.9
49
25.4
74
0
49
-12.7
74
0
49
25.4
74
0
49
-12.7
74
0
49
0
74
0
49
-12.7
74
0
0
LTYPE
5
41
330
5
100
AcDbSymbolTableRecord
100
AcDbLinetypeTableRecord
2
CENTER
70
0
3
Center ____ _ ____ _ ____ _ ____ _ ____ _ ____
72
65
73
4
40
50.8
49
31.75
74
0
49
-6.35
74
0
49
6.35
74
0
49
-6.35
74
0
0
LTYPE
5
42
330
5
100
AcDbSymbolTableRecord
100
AcDbLinetypeTableRecord
2
CENTER2
70
0
3
Center (.5x) ___ _ ___ _ ___ _ ___ _ ___ _ ___
72
65
73
4
40
28.575
49
19.05
74
0
49
-3.175
74
0
49
3.175
74
0
49
-3.175
74
0
0
LTYPE
5
43
330
5
100
AcDbSymbolTableRecord
100
AcDbLinetypeTableRecord
2
CENTERX2
70
0
3
Center (2x) ________  __  ________  __  _____
72
65
73
4
40
101.6
49
63.5
74
0
49
-12.7
74
0
49
12.7
74
0
49
-12.7
74
0
0
ENDTAB
0
TABLE
2
LAYER
5
2
330
0
100
AcDbSymbolTable
70
1
0
LAYER
5
10
330
2
100
AcDbSymbolTableRecord
100
AcDbLayerTableRecord
2
0
70
0
62
7
6
CONTINUOUS
370
-3
390
F
0
LAYER
5
44
330
2
100
AcDbSymbolTableRecord
100
AcDbLayerTableRecord
2
0 (1)
70
0
62
7
6
CONTINUOUS
370
-3
390
F
0
ENDTAB
0
TABLE
2
STYLE
5
3
330
0
100
AcDbSymbolTable
70
3
0
STYLE
5
45
330
2
100
AcDbSymbolTableRecord
100
AcDbTextStyleTableRecord
2
Standard
70
0
40
0
41
1
50
0
71
0
42
1
3
txt
4

0
ENDTAB
0
TABLE
2
VIEW
5
6
330
0
100
AcDbSymbolTable
70
0
0
ENDTAB
0
TABLE
2
UCS
5
7
330
0
100
AcDbSymbolTable
70
0
0
ENDTAB
0
TABLE
2
APPID
5
9
330
0
100
AcDbSymbolTable
70
1
0
APPID
5
12
330
9
100
AcDbSymbolTableRecord
100
AcDbRegAppTableRecord
2
ACAD
70
0
0
ENDTAB
0
TABLE
2
DIMSTYLE
5
A
330
0
100
AcDbSymbolTable
70
1
100
AcDbDimStyleTable
71
1
0
DIMSTYLE
105
46
330
A
100
AcDbSymbolTableRecord
100
AcDbDimStyleTableRecord
2
Standard
70
0
40
1
41
2.5
42
0.625
43
0.38
44
1.25
45
0
46
0
47
0
48
0
140
2.5
141
0.09
142
0
143
25.4
144
1
145
0
146
1
147
0.625
148
0
71
0
72
0
73
0
74
1
75
0
76
0
77
0
78
0
79
0
170
0
171
2
172
0
173
0
174
0
175
0
176
0
177
0
178
0
179
0
271
4
272
4
273
2
274
2
275
0
276
0
277
2
278
46
279
0
280
0
281
0
282
0
283
1
284
0
285
0
286
0
288
0
289
3
340
Standard
341

371
-2
372
-2
0
ENDTAB
0
TABLE
2
BLOCK_RECORD
5
1
330
0
100
AcDbSymbolTable
70
2
0
BLOCK_RECORD
5
1F
330
1
100
AcDbSymbolTableRecord
100
AcDbBlockTableRecord
2
*Model_Space
70
0
280
1
281
0
0
BLOCK_RECORD
5
1E
330
1
100
AcDbSymbolTableRecord
100
AcDbBlockTableRecord
2
*Paper_Space
70
0
280
1
281
0
0
BLOCK_RECORD
5
47
330
1
100
AcDbSymbolTableRecord
100
AcDbBlockTableRecord
2
KDIMARROW_00
70
0
280
1
281
0
0
BLOCK_RECORD
5
4A
330
1
100
AcDbSymbolTableRecord
100
AcDbBlockTableRecord
2
KDIMARROW_01
70
0
280
1
281
0
0
BLOCK_RECORD
5
4D
330
1
100
AcDbSymbolTableRecord
100
AcDbBlockTableRecord
2
KDIMARROW_02
70
0
280
1
281
0
0
BLOCK_RECORD
5
50
330
1
100
AcDbSymbolTableRecord
100
AcDbBlockTableRecord
2
KDIMARROW_03
70
0
280
1
281
0
0
BLOCK_RECORD
5
53
330
1
100
AcDbSymbolTableRecord
100
AcDbBlockTableRecord
2
KDIMARROW_04
70
0
280
1
281
0
0
BLOCK_RECORD
5
56
330
1
100
AcDbSymbolTableRecord
100
AcDbBlockTableRecord
2
KDIMARROW_05
70
0
280
1
281
0
0
BLOCK_RECORD
5
59
330
1
100
AcDbSymbolTableRecord
100
AcDbBlockTableRecord
2
KDIMARROW_06
70
0
280
1
281
0
0
BLOCK_RECORD
5
5C
330
1
100
AcDbSymbolTableRecord
100
AcDbBlockTableRecord
2
KDIMARROW_07
70
0
280
1
281
0
0
BLOCK_RECORD
5
5F
330
1
100
AcDbSymbolTableRecord
100
AcDbBlockTableRecord
2
KDIMARROW_08
70
0
280
1
281
0
0
BLOCK_RECORD
5
62
330
1
100
AcDbSymbolTableRecord
100
AcDbBlockTableRecord
2
KDIMARROW_09
70
0
280
1
281
0
0
BLOCK_RECORD
5
65
330
1
100
AcDbSymbolTableRecord
100
AcDbBlockTableRecord
2
KDIMARROW_10
70
0
280
1
281
0
0
BLOCK_RECORD
5
68
330
1
100
AcDbSymbolTableRecord
100
AcDbBlockTableRecord
2
KDIMARROW_11
70
0
280
1
281
0
0
BLOCK_RECORD
5
6B
330
1
100
AcDbSymbolTableRecord
100
AcDbBlockTableRecord
2
KDIMARROW_12
70
0
280
1
281
0
0
BLOCK_RECORD
5
6E
330
1
100
AcDbSymbolTableRecord
100
AcDbBlockTableRecord
2
KDIMARROW_13
70
0
280
1
281
0
0
ENDTAB
0
ENDSEC
0
SECTION
2
BLOCKS
0
BLOCK
5
20
330
1F
100
AcDbEntity
8
0
100
AcDbBlockBegin
2
*Model_Space
70
0
10
0
20
0
30
0
3
*Model_Space
1

0
ENDBLK
5
21
330
1F
100
AcDbEntity
8
0
100
AcDbBlockEnd
0
BLOCK
5
1C
330
1B
100
AcDbEntity
8
0
100
AcDbBlockBegin
2
*Paper_Space
70
0
10
0
20
0
30
0
3
*Paper_Space
1

0
ENDBLK
5
1D
330
1F
100
AcDbEntity
8
0
100
AcDbBlockEnd
0
BLOCK
5
48
330
47
100
AcDbEntity
8
0
100
AcDbBlockBegin
2
KDIMARROW_00
70
0
10
0
20
0
3
KDIMARROW_00
1

0
LINE
5
71
100
AcDbEntity
8
0
6
CONTINUOUS
62
0
370
18
100
AcDbLine
10
0
20
0
11
-1
21
0
0
ENDBLK
5
49
330
47
100
AcDbEntity
8
0
100
AcDbBlockEnd
0
BLOCK
5
4B
330
4A
100
AcDbEntity
8
0
100
AcDbBlockBegin
2
KDIMARROW_01
70
0
10
0
20
0
3
KDIMARROW_01
1

0
LINE
5
72
100
AcDbEntity
8
0
6
CONTINUOUS
62
0
370
18
100
AcDbLine
10
0
20
0
11
-5
21
-0.658262491226
0
LINE
5
73
100
AcDbEntity
8
0
6
CONTINUOUS
62
0
370
18
100
AcDbLine
10
-5
20
-0.658262491226
11
-4.5
21
6e-016
0
LINE
5
74
100
AcDbEntity
8
0
6
CONTINUOUS
62
0
370
18
100
AcDbLine
10
-4.5
20
6e-016
11
-5
21
0.658262491226
0
LINE
5
75
100
AcDbEntity
8
0
6
CONTINUOUS
62
0
370
18
100
AcDbLine
10
-5
20
0.658262491226
11
0
21
0
0
HATCH
5
76
100
AcDbEntity
8
0
6
ByLayer
62
0
370
-1
100
AcDbHatch
10
0
20
0
30
0
210
0
220
0
230
1
2
SOLID
70
1
71
0
91
1
92
0
93
4
72
1
10
0
20
0
11
-5
21
0.658262491226
72
1
10
-5
20
0.658262491226
11
-4.5
21
6e-016
72
1
10
-4.5
20
6e-016
11
-5
21
-0.658262491226
72
1
10
-5
20
-0.658262491226
11
0
21
0
97
0
75
0
76
1
98
0
0
LINE
5
77
100
AcDbEntity
8
0
6
CONTINUOUS
62
0
370
18
100
AcDbLine
10
0
20
0
11
-1
21
0
0
ENDBLK
5
4C
330
4A
100
AcDbEntity
8
0
100
AcDbBlockEnd
0
BLOCK
5
4E
330
4D
100
AcDbEntity
8
0
100
AcDbBlockBegin
2
KDIMARROW_02
70
0
10
0
20
0
3
KDIMARROW_02
1

0
LINE
5
78
100
AcDbEntity
8
0
6
CONTINUOUS
62
0
370
18
100
AcDbLine
10
0
20
0
11
5
21
-0.658262491226
0
LINE
5
79
100
AcDbEntity
8
0
6
CONTINUOUS
62
0
370
18
100
AcDbLine
10
5
20
-0.658262491226
11
4.5
21
-6e-016
0
LINE
5
7A
100
AcDbEntity
8
0
6
CONTINUOUS
62
0
370
18
100
AcDbLine
10
4.5
20
-6e-016
11
5
21
0.658262491226
0
LINE
5
7B
100
AcDbEntity
8
0
6
CONTINUOUS
62
0
370
18
100
AcDbLine
10
5
20
0.658262491226
11
0
21
0
0
LINE
5
7C
100
AcDbEntity
8
0
6
CONTINUOUS
62
0
370
18
100
AcDbLine
10
0
20
0
11
7
21
-9e-016
0
HATCH
5
7D
100
AcDbEntity
8
0
6
ByLayer
62
0
370
-1
100
AcDbHatch
10
0
20
0
30
0
210
0
220
0
230
1
2
SOLID
70
1
71
0
91
1
92
0
93
4
72
1
10
4.5
20
-6e-016
11
5
21
0.658262491226
72
1
10
5
20
0.658262491226
11
0
21
0
72
1
10
0
20
0
11
5
21
-0.658262491226
72
1
10
5
20
-0.658262491226
11
4.5
21
-6e-016
97
0
75
0
76
1
98
0
0
LINE
5
7E
100
AcDbEntity
8
0
6
CONTINUOUS
62
0
370
18
100
AcDbLine
10
0
20
0
11
-1
21
0
0
ENDBLK
5
4F
330
4D
100
AcDbEntity
8
0
100
AcDbBlockEnd
0
BLOCK
5
51
330
50
100
AcDbEntity
8
0
100
AcDbBlockBegin
2
KDIMARROW_03
70
0
10
0
20
0
3
KDIMARROW_03
1

0
LINE
5
7F
100
AcDbEntity
8
0
6
CONTINUOUS
62
0
370
18
100
AcDbLine
10
-1.06050002575
20
-1.06050002575
11
1.06050002575
21
1.06050002575
0
LINE
5
80
100
AcDbEntity
8
0
6
CONTINUOUS
62
0
370
18
100
AcDbLine
10
0
20
0
11
2
21
-2e-016
0
LINE
5
81
100
AcDbEntity
8
0
6
CONTINUOUS
62
0
370
18
100
AcDbLine
10
0
20
0
11
-1
21
0
0
ENDBLK
5
52
330
50
100
AcDbEntity
8
0
100
AcDbBlockEnd
0
BLOCK
5
54
330
53
100
AcDbEntity
8
0
100
AcDbBlockBegin
2
KDIMARROW_04
70
0
10
0
20
0
3
KDIMARROW_04
1

0
LWPOLYLINE
5
82
100
AcDbEntity
8
0
6
CONTINUOUS
62
7
370
-1
100
AcDbPolyline
90
15
70
0
43
0
10
-0.25
20
0
10
0
20
-0.25
10
0.25
20
0
10
0
20
0.25
10
-0.25
20
0
10
-0.5
20
1e-016
10
-1e-016
20
-0.5
10
0.5
20
-1e-016
10
1e-016
20
0.5
10
-0.5
20
1e-016
10
-0.75
20
1e-016
10
-1e-016
20
-0.75
10
0.75
20
-1e-016
10
1e-016
20
0.75
10
-0.75
20
1e-016
0
LWPOLYLINE
5
83
100
AcDbEntity
8
0
6
CONTINUOUS
62
7
370
-1
100
AcDbPolyline
90
15
70
0
43
0
10
-0.25
20
0
10
0
20
-0.25
10
0.25
20
0
10
0
20
0.25
10
-0.25
20
0
10
-0.5
20
1e-016
10
-1e-016
20
-0.5
10
0.5
20
-1e-016
10
1e-016
20
0.5
10
-0.5
20
1e-016
10
-0.75
20
1e-016
10
-1e-016
20
-0.75
10
0.75
20
-1e-016
10
1e-016
20
0.75
10
-0.75
20
1e-016
0
LINE
5
84
100
AcDbEntity
8
0
6
CONTINUOUS
62
0
370
18
100
AcDbLine
10
0
20
0
11
-1
21
0
0
ENDBLK
5
55
330
53
100
AcDbEntity
8
0
100
AcDbBlockEnd
0
BLOCK
5
57
330
56
100
AcDbEntity
8
0
100
AcDbBlockBegin
2
KDIMARROW_05
70
0
10
0
20
0
3
KDIMARROW_05
1

0
LINE
5
85
100
AcDbEntity
8
0
6
CONTINUOUS
62
0
370
18
100
AcDbLine
10
0
20
0
11
-5
21
-0.658262491226
0
LINE
5
86
100
AcDbEntity
8
0
6
CONTINUOUS
62
0
370
18
100
AcDbLine
10
-5
20
-0.658262491226
11
-5
21
6e-016
0
LINE
5
87
100
AcDbEntity
8
0
6
CONTINUOUS
62
0
370
18
100
AcDbLine
10
-5
20
6e-016
11
-5
21
0.658262491226
0
LINE
5
88
100
AcDbEntity
8
0
6
CONTINUOUS
62
0
370
18
100
AcDbLine
10
-5
20
0.658262491226
11
0
21
0
0
HATCH
5
89
100
AcDbEntity
8
0
6
ByLayer
62
0
370
-1
100
AcDbHatch
10
0
20
0
30
0
210
0
220
0
230
1
2
SOLID
70
1
71
0
91
1
92
0
93
4
72
1
10
0
20
0
11
-5
21
0.658262491226
72
1
10
-5
20
0.658262491226
11
-5
21
7e-016
72
1
10
-5
20
6e-016
11
-5
21
-0.658262491226
72
1
10
-5
20
-0.658262491226
11
0
21
0
97
0
75
0
76
1
98
0
0
LINE
5
8A
100
AcDbEntity
8
0
6
CONTINUOUS
62
0
370
18
100
AcDbLine
10
0
20
0
11
-1
21
0
0
ENDBLK
5
58
330
56
100
AcDbEntity
8
0
100
AcDbBlockEnd
0
BLOCK
5
5A
330
59
100
AcDbEntity
8
0
100
AcDbBlockBegin
2
KDIMARROW_06
70
0
10
0
20
0
3
KDIMARROW_06
1

0
LINE
5
8B
100
AcDbEntity
8
0
6
CONTINUOUS
62
0
370
18
100
AcDbLine
10
0
20
0
11
5
21
-0.658262491226
0
LINE
5
8C
100
AcDbEntity
8
0
6
CONTINUOUS
62
0
370
18
100
AcDbLine
10
5
20
-0.658262491226
11
5
21
-6e-016
0
LINE
5
8D
100
AcDbEntity
8
0
6
CONTINUOUS
62
0
370
18
100
AcDbLine
10
5
20
-6e-016
11
5
21
0.658262491226
0
LINE
5
8E
100
AcDbEntity
8
0
6
CONTINUOUS
62
0
370
18
100
AcDbLine
10
5
20
0.658262491226
11
0
21
0
0
LINE
5
8F
100
AcDbEntity
8
0
6
CONTINUOUS
62
0
370
18
100
AcDbLine
10
0
20
0
11
7
21
-9e-016
0
HATCH
5
90
100
AcDbEntity
8
0
6
ByLayer
62
0
370
-1
100
AcDbHatch
10
0
20
0
30
0
210
0
220
0
230
1
2
SOLID
70
1
71
0
91
1
92
0
93
4
72
1
10
5
20
-6e-016
11
5
21
0.658262491226
72
1
10
5
20
0.658262491226
11
0
21
0
72
1
10
0
20
0
11
5
21
-0.658262491226
72
1
10
5
20
-0.658262491226
11
5
21
-7e-016
97
0
75
0
76
1
98
0
0
LINE
5
91
100
AcDbEntity
8
0
6
CONTINUOUS
62
0
370
18
100
AcDbLine
10
0
20
0
11
-1
21
0
0
ENDBLK
5
5B
330
59
100
AcDbEntity
8
0
100
AcDbBlockEnd
0
BLOCK
5
5D
330
5C
100
AcDbEntity
8
0
100
AcDbBlockBegin
2
KDIMARROW_07
70
0
10
0
20
0
3
KDIMARROW_07
1

0
LINE
5
92
100
AcDbEntity
8
0
6
CONTINUOUS
62
0
370
18
100
AcDbLine
10
0
20
0
11
-5
21
-0.658262491226
0
LINE
5
93
100
AcDbEntity
8
0
6
CONTINUOUS
62
0
370
18
100
AcDbLine
10
0
20
0
11
-5
21
0.658262491226
0
LINE
5
94
100
AcDbEntity
8
0
6
CONTINUOUS
62
0
370
18
100
AcDbLine
10
0
20
0
11
-1
21
0
0
ENDBLK
5
5E
330
5C
100
AcDbEntity
8
0
100
AcDbBlockEnd
0
BLOCK
5
60
330
5F
100
AcDbEntity
8
0
100
AcDbBlockBegin
2
KDIMARROW_08
70
0
10
0
20
0
3
KDIMARROW_08
1

0
LINE
5
95
100
AcDbEntity
8
0
6
CONTINUOUS
62
0
370
18
100
AcDbLine
10
0
20
0
11
5
21
-0.658262491226
0
LINE
5
96
100
AcDbEntity
8
0
6
CONTINUOUS
62
0
370
18
100
AcDbLine
10
0
20
0
11
5
21
0.658262491226
0
LINE
5
97
100
AcDbEntity
8
0
6
CONTINUOUS
62
0
370
18
100
AcDbLine
10
0
20
0
11
7
21
-9e-016
0
LINE
5
98
100
AcDbEntity
8
0
6
CONTINUOUS
62
0
370
18
100
AcDbLine
10
0
20
0
11
-1
21
0
0
ENDBLK
5
61
330
5F
100
AcDbEntity
8
0
100
AcDbBlockEnd
0
BLOCK
5
63
330
62
100
AcDbEntity
8
0
100
AcDbBlockBegin
2
KDIMARROW_09
70
0
10
0
20
0
3
KDIMARROW_09
1

0
LINE
5
99
100
AcDbEntity
8
0
6
CONTINUOUS
62
0
370
18
100
AcDbLine
10
0
20
0
11
-2
21
-2
0
LINE
5
9A
100
AcDbEntity
8
0
6
CONTINUOUS
62
0
370
18
100
AcDbLine
10
0
20
0
11
-2
21
2
0
LINE
5
9B
100
AcDbEntity
8
0
6
CONTINUOUS
62
0
370
18
100
AcDbLine
10
0
20
0
11
-1
21
0
0
ENDBLK
5
64
330
62
100
AcDbEntity
8
0
100
AcDbBlockEnd
0
BLOCK
5
66
330
65
100
AcDbEntity
8
0
100
AcDbBlockBegin
2
KDIMARROW_10
70
0
10
0
20
0
3
KDIMARROW_10
1

0
LINE
5
9C
100
AcDbEntity
8
0
6
CONTINUOUS
62
0
370
18
100
AcDbLine
10
0
20
0
11
2
21
-2
0
LINE
5
9D
100
AcDbEntity
8
0
6
CONTINUOUS
62
0
370
18
100
AcDbLine
10
0
20
0
11
2
21
2
0
LINE
5
9E
100
AcDbEntity
8
0
6
CONTINUOUS
62
0
370
18
100
AcDbLine
10
0
20
0
11
4
21
-5e-016
0
LINE
5
9F
100
AcDbEntity
8
0
6
CONTINUOUS
62
0
370
18
100
AcDbLine
10
0
20
0
11
-1
21
0
0
ENDBLK
5
67
330
65
100
AcDbEntity
8
0
100
AcDbBlockEnd
0
BLOCK
5
69
330
68
100
AcDbEntity
8
0
100
AcDbBlockBegin
2
KDIMARROW_11
70
0
10
0
20
0
3
KDIMARROW_11
1

0
CIRCLE
5
A0
100
AcDbEntity
8
0
6
CONTINUOUS
62
0
370
18
100
AcDbCircle
10
0
20
0
40
2.5
0
CIRCLE
5
A1
100
AcDbEntity
8
0
6
CONTINUOUS
62
0
370
18
100
AcDbCircle
10
0
20
0
40
2.5
0
LINE
5
A2
100
AcDbEntity
8
0
6
CONTINUOUS
62
0
370
18
100
AcDbLine
10
0
20
0
11
-1
21
0
0
ENDBLK
5
6A
330
68
100
AcDbEntity
8
0
100
AcDbBlockEnd
0
BLOCK
5
6C
330
6B
100
AcDbEntity
8
0
100
AcDbBlockBegin
2
KDIMARROW_12
70
0
10
0
20
0
3
KDIMARROW_12
1

0
CIRCLE
5
A3
100
AcDbEntity
8
0
6
CONTINUOUS
62
0
370
18
100
AcDbCircle
10
0
20
0
40
1.5
0
CIRCLE
5
A4
100
AcDbEntity
8
0
6
CONTINUOUS
62
0
370
18
100
AcDbCircle
10
0
20
0
40
1.5
0
LINE
5
A5
100
AcDbEntity
8
0
6
CONTINUOUS
62
0
370
18
100
AcDbLine
10
0
20
0
11
-1
21
0
0
ENDBLK
5
6D
330
6B
100
AcDbEntity
8
0
100
AcDbBlockEnd
0
BLOCK
5
6F
330
6E
100
AcDbEntity
8
0
100
AcDbBlockBegin
2
KDIMARROW_13
70
0
10
0
20
0
3
KDIMARROW_13
1

0
LINE
5
A6
100
AcDbEntity
8
0
6
CONTINUOUS
62
0
370
18
100
AcDbLine
10
-1.06050002575
20
1.06050002575
11
1.06050002575
21
-1.06050002575
0
LINE
5
A7
100
AcDbEntity
8
0
6
CONTINUOUS
62
0
370
18
100
AcDbLine
10
0
20
0
11
2
21
-2e-016
0
LINE
5
A8
100
AcDbEntity
8
0
6
CONTINUOUS
62
0
370
18
100
AcDbLine
10
0
20
0
11
-1
21
0
0
ENDBLK
5
70
330
6E
100
AcDbEntity
8
0
100
AcDbBlockEnd
0
ENDSEC
0
SECTION
2
ENTITIES
0
LINE
5
A9
100
AcDbEntity
8
0
6
CONTINUOUS
62
7
370
13
100
AcDbLine
10
-0.4
20
-0.45
11
0.4
21
-0.45
0
LINE
5
AA
100
AcDbEntity
8
0
6
CONTINUOUS
62
7
370
13
100
AcDbLine
10
-0.15
20
-0.3
11
-0.15
21
0.1
0
ARC
5
AB
100
AcDbEntity
8
0
6
CONTINUOUS
62
7
370
13
100
AcDbCircle
10
-0.366162510478
20
0.0941281171416
40
0.216242248287
100
AcDbArc
50
1.55601168097
51
72.1837836107
0
LINE
5
AC
100
AcDbEntity
8
0
6
CONTINUOUS
62
7
370
13
100
AcDbLine
10
0.15
20
-0.3
11
0.15
21
0.1
0
ARC
5
AD
100
AcDbEntity
8
0
6
CONTINUOUS
62
7
370
13
100
AcDbCircle
10
0.366162510478
20
0.0941281171416
40
0.216242248287
100
AcDbArc
50
107.816216389
51
178.443988319
0
ENDSEC
0
SECTION
2
OBJECTS
0
DICTIONARY
5
C
330
0
100
AcDbDictionary
281
1
3
ACAD_GROUP
350
D
0
DICTIONARY
5
D
330
C
100
AcDbDictionary
281
1
0
ENDSEC
0
EOF
