999
dxflib 2.0.0.0
  0
SECTION
  2
HEADER
  9
$ACADVER
  1
AC1015
  9
$HANDSEED
  5
FFFF
  0
ENDSEC
  9
$DIMASZ
 40
2.5
  9
$DIMGAP
 40
0.625
  9
$INSUNITS
 70
0
  9
$DIMEXO
 40
0.625
  9
$DIMTXT
 40
2.5
  9
$DIMSTYLE
  2
Standard
  9
$PLIMMIN
 10
0.0
 20
0.0
 30
0.0
  9
$PLIMMAX
 10
210.0
 20
297.0
 30
0.0
  9
$DIMEXE
 40
1.25
  0
ENDSEC
  0
SECTION
  2
TABLES
  0
TABLE
  2
VPORT
  5
8
100
AcDbSymbolTable
 70
1
  0
VPORT
  5
30
100
AcDbSymbolTableRecord
100
AcDbViewportTableRecord
  2
*Active
 70
0
 10
0.0
 20
0.0
 11
1.0
 21
1.0
 12
286.3055555555554861
 22
148.5
 13
0.0
 23
0.0
 14
10.0
 24
10.0
 15
10.0
 25
10.0
 16
0.0
 26
0.0
 36
1.0
 17
0.0
 27
0.0
 37
0.0
 40
297.0
 41
1.92798353909465
 42
50.0
 43
0.0
 44
0.0
 50
0.0
 51
0.0
 71
0
 72
100
 73
1
 74
3
 75
1
 76
1
 77
0
 78
0
281
0
 65
1
110
0.0
120
0.0
130
0.0
111
1.0
121
0.0
131
0.0
112
0.0
122
1.0
132
0.0
 79
0
146
0.0
  0
ENDTAB
  0
TABLE
  2
LTYPE
  5
5
100
AcDbSymbolTable
 70
3
  0
LTYPE
  5
14
100
AcDbSymbolTableRecord
100
AcDbLinetypeTableRecord
  2
ByBlock
 70
0
  3

 72
65
 73
0
 40
0.0
  0
LTYPE
  5
15
100
AcDbSymbolTableRecord
100
AcDbLinetypeTableRecord
  2
ByLayer
 70
0
  3

 72
65
 73
0
 40
0.0
  0
LTYPE
  5
16
100
AcDbSymbolTableRecord
100
AcDbLinetypeTableRecord
  2
CONTINUOUS
 70
0
  3
Solid line
 72
65
 73
0
 40
0.0
  0
LTYPE
  5
31
100
AcDbSymbolTableRecord
100
AcDbLinetypeTableRecord
  2
DOT
 70
0
  0
LTYPE
  5
32
100
AcDbSymbolTableRecord
100
AcDbLinetypeTableRecord
  2
DOT2
 70
0
  0
LTYPE
  5
33
100
AcDbSymbolTableRecord
100
AcDbLinetypeTableRecord
  2
DOTX2
 70
0
  0
LTYPE
  5
34
100
AcDbSymbolTableRecord
100
AcDbLinetypeTableRecord
  2
DASHED
 70
0
  0
LTYPE
  5
35
100
AcDbSymbolTableRecord
100
AcDbLinetypeTableRecord
  2
DASHED2
 70
0
  0
LTYPE
  5
36
100
AcDbSymbolTableRecord
100
AcDbLinetypeTableRecord
  2
DASHEDX2
 70
0
  0
LTYPE
  5
37
100
AcDbSymbolTableRecord
100
AcDbLinetypeTableRecord
  2
DASHDOT
 70
0
  0
LTYPE
  5
38
100
AcDbSymbolTableRecord
100
AcDbLinetypeTableRecord
  2
DASHDOT2
 70
0
  0
LTYPE
  5
39
100
AcDbSymbolTableRecord
100
AcDbLinetypeTableRecord
  2
DASHDOTX2
 70
0
  0
LTYPE
  5
3A
100
AcDbSymbolTableRecord
100
AcDbLinetypeTableRecord
  2
DIVIDE
 70
0
  0
LTYPE
  5
3B
100
AcDbSymbolTableRecord
100
AcDbLinetypeTableRecord
  2
DIVIDE2
 70
0
  0
LTYPE
  5
3C
100
AcDbSymbolTableRecord
100
AcDbLinetypeTableRecord
  2
DIVIDEX2
 70
0
  0
LTYPE
  5
3D
100
AcDbSymbolTableRecord
100
AcDbLinetypeTableRecord
  2
CENTER
 70
0
  0
LTYPE
  5
3E
100
AcDbSymbolTableRecord
100
AcDbLinetypeTableRecord
  2
CENTER2
 70
0
  0
LTYPE
  5
3F
100
AcDbSymbolTableRecord
100
AcDbLinetypeTableRecord
  2
CENTERX2
 70
0
  0
LTYPE
  5
40
100
AcDbSymbolTableRecord
100
AcDbLinetypeTableRecord
  2
BORDER
 70
0
  0
LTYPE
  5
41
100
AcDbSymbolTableRecord
100
AcDbLinetypeTableRecord
  2
BORDER2
 70
0
  0
LTYPE
  5
42
100
AcDbSymbolTableRecord
100
AcDbLinetypeTableRecord
  2
BORDERX2
 70
0
  0
ENDTAB
  0
TABLE
  2
LAYER
  5
2
100
AcDbSymbolTable
 70
1
  0
LAYER
  5
10
100
AcDbSymbolTableRecord
100
AcDbLayerTableRecord
  2
0
 70
0
 62
1
  6
CONTINUOUS
  0
ENDTAB
  0
TABLE
  2
STYLE
  5
3
100
AcDbSymbolTable
 70
1
  0
STYLE
  5
11
100
AcDbSymbolTableRecord
100
AcDbTextStyleTableRecord
  2
Standard
 70
0
 40
0.0
 41
1.0
 50
0.0
 71
0
 42
2.5
  3
txt
  4

  0
ENDTAB
  0
TABLE
  2
VIEW
  5
6
100
AcDbSymbolTable
 70
0
  0
ENDTAB
  0
TABLE
  2
UCS
  5
7
100
AcDbSymbolTable
 70
0
  0
ENDTAB
  0
TABLE
  2
APPID
  5
9
100
AcDbSymbolTable
 70
1
  0
APPID
  5
12
100
AcDbSymbolTableRecord
100
AcDbRegAppTableRecord
  2
ACAD
 70
0
  0
ENDTAB
  0
TABLE
  2
DIMSTYLE
  5
A
100
AcDbSymbolTable
 70
1
100
AcDbDimStyleTable
 71
0
  0
DIMSTYLE
105
27
100
AcDbSymbolTableRecord
100
AcDbDimStyleTableRecord
  2
Standard
 70
0
  0
ENDTAB
  0
TABLE
  2
BLOCK_RECORD
  5
1
100
AcDbSymbolTable
 70
1
  0
BLOCK_RECORD
  5
1F
100
AcDbSymbolTableRecord
100
AcDbBlockTableRecord
  2
*Model_Space
340
22
  0
BLOCK_RECORD
  5
1B
100
AcDbSymbolTableRecord
100
AcDbBlockTableRecord
  2
*Paper_Space
340
1E
  0
BLOCK_RECORD
  5
23
100
AcDbSymbolTableRecord
100
AcDbBlockTableRecord
  2
*Paper_Space0
340
26
  0
ENDTAB
  0
ENDSEC
  0
SECTION
  2
BLOCKS
  0
BLOCK
  5
20
100
AcDbEntity
  8
0
100
AcDbBlockBegin
  2
*Model_Space
 70
0
 10
0.0
 20
0.0
 30
0.0
  3
*Model_Space
  1

  0
ENDBLK
  5
21
100
AcDbEntity
  8
0
100
AcDbBlockEnd
  0
BLOCK
  5
1C
100
AcDbEntity
 67
1
  8
0
100
AcDbBlockBegin
  2
*Paper_Space
 70
0
 10
0.0
 20
0.0
 30
0.0
  3
*Paper_Space
  1

  0
ENDBLK
  5
1D
100
AcDbEntity
 67
1
  8
0
100
AcDbBlockEnd
  0
BLOCK
  5
24
100
AcDbEntity
  8
0
100
AcDbBlockBegin
  2
*Paper_Space0
 70
0
 10
0.0
 20
0.0
 30
0.0
  3
*Paper_Space0
  1

  0
ENDBLK
  5
25
100
AcDbEntity
  8
0
100
AcDbBlockEnd
  0
ENDSEC
  0
SECTION
  2
ENTITIES
  0
ARC
  5
43
100
AcDbEntity
  8
0
 62
0
370
0
  6
CONTINUOUS
100
AcDbCircle
 10
12.7270149999999997
 20
26.4046270000000014
 30
0.0
 40
3.9318719999999998
100
AcDbArc
 50
105.1414259999999956
 51
177.1518250000000023
  0
ARC
  5
44
100
AcDbEntity
  8
0
 62
0
370
0
  6
CONTINUOUS
100
AcDbCircle
 10
12.8779369999999993
 20
25.5043080000000018
 30
0.0
 40
4.8411840000000002
100
AcDbArc
 50
39.7507739999999998
 51
104.082335999999998
  0
ARC
  5
45
100
AcDbEntity
  8
0
 62
0
370
0
  6
CONTINUOUS
100
AcDbCircle
 10
8.2048389999999998
 20
23.9467740000000013
 30
0.0
 40
9.5985019999999999
100
AcDbArc
 50
1.511741
 51
28.9984949999999984
  0
ARC
  5
46
100
AcDbEntity
  8
0
 62
0
370
0
  6
CONTINUOUS
100
AcDbCircle
 10
21.3937489999999997
 20
23.3187500000000014
 30
0.0
 40
3.7002220000000001
100
AcDbArc
 50
166.2219540000000109
 51
199.2306670000000111
  0
ARC
  5
47
100
AcDbEntity
  8
0
 62
0
370
0
  6
CONTINUOUS
100
AcDbCircle
 10
28.3417819999999985
 20
24.8294519999999999
 30
0.0
 40
10.7926219999999997
100
AcDbArc
 50
194.649169999999998
 51
215.9062649999999906
  0
ARC
  5
48
100
AcDbEntity
  8
0
 62
0
370
0
  6
CONTINUOUS
100
AcDbCircle
 10
14.3100000000000005
 20
11.8100000000000005
 30
0.0
 40
8.5287869999999995
100
AcDbArc
 50
27.1358870000000003
 51
51.6654359999999997
  0
ARC
  5
49
100
AcDbEntity
  8
0
 62
0
370
0
  6
CONTINUOUS
100
AcDbCircle
 10
10.25
 20
10.75
 30
0.0
 40
12.6580010000000005
100
AcDbArc
 50
7.4899529999999999
 51
23.0202850000000012
  0
ARC
  5
4A
100
AcDbEntity
  8
0
 62
0
370
0
  6
CONTINUOUS
100
AcDbCircle
 10
18.7776320000000005
 20
11.1963819999999998
 30
0.0
 40
4.198588
100
AcDbArc
 50
310.4211429999999723
 51
16.6588290000000008
  0
ARC
  5
4B
100
AcDbEntity
  8
0
 62
0
370
0
  6
CONTINUOUS
100
AcDbCircle
 10
20.4036599999999986
 20
9.4304880000000004
 30
0.0
 40
1.8022929999999999
100
AcDbArc
 50
218.8475039999999865
 51
307.4669489999999996
  0
ARC
  5
4C
100
AcDbEntity
  8
0
 62
0
370
0
  6
CONTINUOUS
100
AcDbCircle
 10
20.632560999999999
 20
8.7012260000000001
 30
0.0
 40
1.6811419999999999
100
AcDbArc
 50
50.583835999999998
 51
193.8076320000000123
  0
ARC
  5
4D
100
AcDbEntity
  8
0
 62
0
370
0
  6
CONTINUOUS
100
AcDbCircle
 10
25.4312499999999986
 20
8.2874999999999996
 30
0.0
 40
2.3489110000000002
100
AcDbArc
 50
187.0304720000000032
 51
222.5198059999999884
  0
ARC
  5
4E
100
AcDbEntity
  8
0
 62
0
370
0
  6
CONTINUOUS
100
AcDbCircle
 10
28.4750000000000014
 20
11.5625
 30
0.0
 40
6.8150219999999999
100
AcDbArc
 50
225.5201869999999928
 51
239.3426360000000273
  0
ARC
  5
4F
100
AcDbEntity
  8
0
 62
0
370
0
  6
CONTINUOUS
100
AcDbCircle
 10
24.6375010000000003
 20
5.0
 30
0.0
 40
0.788293
100
AcDbArc
 50
297.3777160000000208
 51
62.6222950000000012
  0
ARC
  5
50
100
AcDbEntity
  8
0
 62
0
370
0
  6
CONTINUOUS
100
AcDbCircle
 10
27.6124989999999997
 20
-5.5187489999999997
 30
0.0
 40
9.7841330000000006
100
AcDbArc
 50
119.4634250000000009
 51
136.6306610000000035
  0
ARC
  5
51
100
AcDbEntity
  8
0
 62
0
370
0
  6
CONTINUOUS
100
AcDbCircle
 10
18.9570180000000015
 20
2.8991229999999999
 30
0.0
 40
2.295172
100
AcDbArc
 50
211.4970399999999984
 51
312.2427670000000148
  0
ARC
  5
52
100
AcDbEntity
  8
0
 62
0
370
0
  6
CONTINUOUS
100
AcDbCircle
 10
20.7767599999999995
 20
2.966901
 30
0.0
 40
3.9835859999999998
100
AcDbArc
 50
157.3653260000000103
 51
198.5438540000000103
  0
ARC
  5
53
100
AcDbEntity
  8
0
 62
0
370
0
  6
CONTINUOUS
100
AcDbCircle
 10
3.2000000000000002
 20
7.2000000000000002
 30
0.0
 40
14.1598020000000009
100
AcDbArc
 50
349.0074769999999944
 51
5.2676970000000001
  0
ARC
  5
54
100
AcDbEntity
  8
0
 62
0
370
0
  6
CONTINUOUS
100
AcDbCircle
 10
17.8500000000000014
 20
8.8499999999999996
 30
0.0
 40
0.6519200000000001
100
AcDbArc
 50
57.5288090000000096
 51
212.4711910000000046
  0
ARC
  5
55
100
AcDbEntity
  8
0
 62
0
370
0
  6
CONTINUOUS
100
AcDbCircle
 10
6.0499999999999998
 20
6.3499999999999996
 30
0.0
 40
5.0916600000000001
100
AcDbArc
 50
162.2767639999999858
 51
187.3343810000000076
  0
ARC
  5
56
100
AcDbEntity
  8
0
 62
0
370
0
  6
CONTINUOUS
100
AcDbCircle
 10
4.8837659999999996
 20
8.9759740000000008
 30
0.0
 40
1.0274460000000001
100
AcDbArc
 50
37.3985860000000017
 51
149.33433500000001
  0
ARC
  5
57
100
AcDbEntity
  8
0
 62
0
370
0
  6
CONTINUOUS
100
AcDbCircle
 10
-12.5
 20
-6.0
 30
0.0
 40
23.9708159999999992
100
AcDbArc
 50
26.7788390000000014
 51
40.6012950000000004
  0
ARC
  5
58
100
AcDbEntity
  8
0
 62
0
370
0
  6
CONTINUOUS
100
AcDbCircle
 10
7.7595239999999999
 20
2.8880949999999999
 30
0.0
 40
2.2262219999999999
100
AcDbArc
 50
321.4263310000000047
 51
59.1833719999999985
  0
ARC
  5
59
100
AcDbEntity
  8
0
 62
0
370
0
  6
CONTINUOUS
100
AcDbCircle
 10
7.8404759999999998
 20
2.819048
 30
0.0
 40
2.1198830000000002
100
AcDbArc
 50
234.1855319999999665
 51
321.5210880000000202
  0
ARC
  5
5A
100
AcDbEntity
  8
0
 62
0
370
0
  6
CONTINUOUS
100
AcDbCircle
 10
10.5250000000000004
 20
8.1875
 30
0.0
 40
7.1972759999999996
100
AcDbArc
 50
140.143462999999997
 51
156.9974060000000122
  0
ARC
  5
5B
100
AcDbEntity
  8
0
 62
0
370
0
  6
CONTINUOUS
100
AcDbCircle
 10
-3.7999999999999998
 20
16.9307690000000015
 30
0.0
 40
9.7212779999999999
100
AcDbArc
 50
334.8543700000000172
 51
350.9401550000000043
  0
ARC
  5
5C
100
AcDbEntity
  8
0
 62
0
370
0
  6
CONTINUOUS
100
AcDbCircle
 10
10.5416670000000003
 20
14.0833329999999997
 30
0.0
 40
4.9210789999999998
100
AcDbArc
 50
136.0291599999999903
 51
164.481078999999994
  0
ARC
  5
5D
100
AcDbEntity
  8
0
 62
0
370
0
  6
CONTINUOUS
100
AcDbCircle
 10
-2.0
 20
26.0166670000000018
 30
0.0
 40
12.3908679999999993
100
AcDbArc
 50
316.5805359999999951
 51
328.811554000000001
  0
ARC
  5
5E
100
AcDbEntity
  8
0
 62
0
370
0
  6
CONTINUOUS
100
AcDbCircle
 10
6.4375
 20
21.1000000000000014
 30
0.0
 40
2.6318069999999998
100
AcDbArc
 50
325.2532039999999824
 51
13.178191
  0
ARC
  5
5F
100
AcDbEntity
  8
0
 62
0
370
0
  6
CONTINUOUS
100
AcDbCircle
 10
1481.3499759999999696
 20
84.25
 30
0.0
 40
1473.6781009999999696
100
AcDbArc
 50
182.241973999999999
 51
182.4326320000000123
  0
ARC
  5
60
100
AcDbEntity
  8
0
 62
0
370
0
  6
CONTINUOUS
100
AcDbCircle
 10
11.572222
 20
10.5277779999999996
 30
0.0
 40
7.119097
100
AcDbArc
 50
289.0853579999999852
 51
323.5682980000000271
  0
ARC
  5
61
100
AcDbEntity
  8
0
 62
0
370
0
  6
CONTINUOUS
100
AcDbCircle
 10
27.1432569999999984
 20
30.2185379999999988
 30
0.0
 40
29.1244750000000003
100
AcDbArc
 50
220.5095829999999921
 51
232.2182620000000099
  0
ARC
  5
62
100
AcDbEntity
  8
0
 62
0
370
0
  6
CONTINUOUS
100
AcDbCircle
 10
15.8499999999999996
 20
12.25
 30
0.0
 40
4.7565739999999996
100
AcDbArc
 50
3.012788
 51
56.1428909999999988
  0
ARC
  5
63
100
AcDbEntity
  8
0
 62
0
370
0
  6
CONTINUOUS
100
AcDbCircle
 10
10.5999999999999996
 20
20.3999999999999986
 30
0.0
 40
1.0
100
AcDbArc
 50
143.1300960000000089
 51
216.8699039999999911
  0
ARC
  5
64
100
AcDbEntity
  8
0
 62
0
370
0
  6
CONTINUOUS
100
AcDbCircle
 10
18.9023819999999994
 20
12.6833329999999993
 30
0.0
 40
11.5542320000000007
100
AcDbArc
 50
141.9800419999999974
 51
155.3625790000000109
  0
ARC
  5
65
100
AcDbEntity
  8
0
 62
0
370
0
  6
CONTINUOUS
100
AcDbCircle
 10
9.3000000000000007
 20
16.8500000000000014
 30
0.0
 40
1.1101799999999999
100
AcDbArc
 50
144.1623539999999934
 51
215.8376460000000066
  0
ARC
  5
66
100
AcDbEntity
  8
0
 62
0
370
0
  6
CONTINUOUS
100
AcDbCircle
 10
13.7249999999999996
 20
10.9250000000000007
 30
0.0
 40
7.4954150000000004
100
AcDbArc
 50
135.2702639999999974
 51
187.8598479999999995
  0
ARC
  5
67
100
AcDbEntity
  8
0
 62
0
370
0
  6
CONTINUOUS
100
AcDbCircle
 10
7.1944439999999998
 20
14.6277779999999993
 30
0.0
 40
10.1980780000000006
100
AcDbArc
 50
11.1507780000000007
 51
32.4520419999999987
  0
ARC
  5
68
100
AcDbEntity
  8
0
 62
0
370
0
  6
CONTINUOUS
100
AcDbCircle
 10
15.1500000000000004
 20
20.3999999999999986
 30
0.0
 40
0.7158910000000001
100
AcDbArc
 50
335.2248539999999934
 51
77.9052429999999987
  0
ARC
  5
69
100
AcDbEntity
  8
0
 62
0
370
0
  6
CONTINUOUS
100
AcDbCircle
 10
32.4921050000000022
 20
10.6236840000000008
 30
0.0
 40
21.8953379999999989
100
AcDbArc
 50
172.1873779999999954
 51
185.5660100000000057
  0
ARC
  5
6A
100
AcDbEntity
  8
0
 62
0
370
0
  6
CONTINUOUS
100
AcDbCircle
 10
12.8724139999999991
 20
9.6965520000000005
 30
0.0
 40
6.9516119999999999
100
AcDbArc
 50
44.8593219999999988
 51
78.1493990000000025
  0
ARC
  5
6B
100
AcDbEntity
  8
0
 62
0
370
0
  6
CONTINUOUS
100
AcDbCircle
 10
16.9600000000000009
 20
7.9400000000000004
 30
0.0
 40
8.9637720000000005
100
AcDbArc
 50
91.6621319999999997
 51
107.262512000000001
  0
ARC
  5
6C
100
AcDbEntity
  8
0
 62
0
370
0
  6
CONTINUOUS
100
AcDbCircle
 10
10.4555559999999996
 20
24.8833330000000004
 30
0.0
 40
0.951623
100
AcDbArc
 50
7.0420389999999999
 51
154.0333100000000002
  0
ARC
  5
6D
100
AcDbEntity
  8
0
 62
0
370
0
  6
CONTINUOUS
100
AcDbCircle
 10
9.7973680000000005
 20
17.8894739999999999
 30
0.0
 40
1.293552
100
AcDbArc
 50
202.2343140000000119
 51
274.5506899999999746
  0
ARC
  5
6E
100
AcDbEntity
  8
0
 62
0
370
0
  6
CONTINUOUS
100
AcDbCircle
 10
15.0500000000000007
 20
3.7999999999999998
 30
0.0
 40
13.7971920000000008
100
AcDbArc
 50
111.9170840000000027
 51
121.2130200000000002
  0
ARC
  5
6F
100
AcDbEntity
  8
0
 62
0
370
0
  6
CONTINUOUS
100
AcDbCircle
 10
9.0694689999999998
 20
6.3606189999999998
 30
0.0
 40
0.870462
100
AcDbArc
 50
278.6243590000000268
 51
74.6427000000000049
  0
ARC
  5
70
100
AcDbEntity
  8
0
 62
0
370
0
  6
CONTINUOUS
100
AcDbCircle
 10
4.983333
 20
10.5
 30
0.0
 40
1.193152
100
AcDbArc
 50
155.2248539999999934
 51
224.0770870000000059
  0
ARC
  5
71
100
AcDbEntity
  8
0
 62
0
370
0
  6
CONTINUOUS
100
AcDbCircle
 10
-0.926087
 20
5.0304349999999998
 30
0.0
 40
2.0391490000000001
100
AcDbArc
 50
314.2632449999999835
 51
19.1689760000000007
  0
ARC
  5
72
100
AcDbEntity
  8
0
 62
0
370
0
  6
CONTINUOUS
100
AcDbCircle
 10
1.1857139999999999
 20
3.3999999999999999
 30
0.0
 40
0.709268
100
AcDbArc
 50
166.1223300000000052
 51
279.2726139999999759
  0
ARC
  5
73
100
AcDbEntity
  8
0
 62
0
370
0
  6
CONTINUOUS
100
AcDbCircle
 10
15.2692309999999996
 20
38.8500000000000014
 30
0.0
 40
38.7551539999999974
100
AcDbArc
 50
248.8722689999999886
 51
256.9222720000000209
  0
ARC
  5
74
100
AcDbEntity
  8
0
 62
0
370
0
  6
CONTINUOUS
100
AcDbCircle
 10
2.7714289999999999
 20
9.5071429999999992
 30
0.0
 40
1.2285919999999999
100
AcDbArc
 50
261.5655820000000062
 51
359.6669009999999957
  0
ARC
  5
75
100
AcDbEntity
  8
0
 62
0
370
0
  6
CONTINUOUS
100
AcDbCircle
 10
2.8394740000000001
 20
4.7447369999999998
 30
0.0
 40
3.5557780000000001
100
AcDbArc
 50
94.0034409999999951
 51
117.4563749999999942
  0
ARC
  5
76
100
AcDbEntity
  8
0
 62
0
370
0
  6
CONTINUOUS
100
AcDbCircle
 10
13.4000000000000004
 20
-13.1624999999999996
 30
0.0
 40
15.4637930000000008
100
AcDbArc
 50
76.9185939999999988
 51
103.7120359999999977
  0
ARC
  5
77
100
AcDbEntity
  8
0
 62
0
370
0
  6
CONTINUOUS
100
AcDbCircle
 10
12.1009429999999991
 20
9.04434
 30
0.0
 40
5.54434
100
AcDbArc
 50
243.6871949999999742
 51
288.9343870000000152
  0
ARC
  5
78
100
AcDbEntity
  8
0
 62
0
370
0
  6
CONTINUOUS
100
AcDbCircle
 10
21.9249989999999997
 20
8.3249999999999993
 30
0.0
 40
1.2191190000000001
100
AcDbArc
 50
344.5387880000000109
 51
58.7759480000000067
  0
ARC
  5
79
100
AcDbEntity
  8
0
 62
0
370
0
  6
CONTINUOUS
100
AcDbCircle
 10
11.6875
 20
13.3687500000000004
 30
0.0
 40
8.9547410000000003
100
AcDbArc
 50
339.9261169999999765
 51
354.4326479999999719
  0
ARC
  5
7A
100
AcDbEntity
  8
0
 62
0
370
0
  6
CONTINUOUS
100
AcDbCircle
 10
10.6744679999999992
 20
11.7361699999999995
 30
0.0
 40
8.1387599999999996
100
AcDbArc
 50
341.8895259999999894
 51
36.6991420000000019
  0
ARC
  5
7B
100
AcDbEntity
  8
0
 62
0
370
0
  6
CONTINUOUS
100
AcDbCircle
 10
19.2347600000000014
 20
10.3108939999999993
 30
0.0
 40
1.3785700000000001
100
AcDbArc
 50
221.3573000000000093
 51
258.9743040000000178
  0
ARC
  5
7C
100
AcDbEntity
  8
0
 62
0
370
0
  6
CONTINUOUS
100
AcDbCircle
 10
11.8695649999999997
 20
11.2782610000000005
 30
0.0
 40
6.3696020000000004
100
AcDbArc
 50
138.4866330000000119
 51
185.2003170000000125
  0
ARC
  5
7D
100
AcDbEntity
  8
0
 62
0
370
0
  6
CONTINUOUS
100
AcDbCircle
 10
13.6709680000000002
 20
24.3096770000000006
 30
0.0
 40
1.9383980000000001
100
AcDbArc
 50
311.9663699999999835
 51
62.0284580000000076
  0
ARC
  5
7E
100
AcDbEntity
  8
0
 62
0
370
0
  6
CONTINUOUS
100
AcDbCircle
 10
12.0999999999999996
 20
22.6999999999999993
 30
0.0
 40
1.204159
100
AcDbArc
 50
30.362410999999998
 51
138.366455000000002
  0
ARC
  5
7F
100
AcDbEntity
  8
0
 62
0
370
0
  6
CONTINUOUS
100
AcDbCircle
 10
10.3833330000000004
 20
21.797619000000001
 30
0.0
 40
0.988167
100
AcDbArc
 50
116.2053449999999941
 51
233.8203739999999584
  0
ARC
  5
80
100
AcDbEntity
  8
0
 62
0
370
0
  6
CONTINUOUS
100
AcDbCircle
 10
12.375
 20
20.3249999999999993
 30
0.0
 40
3.3854470000000001
100
AcDbArc
 50
110.308441000000002
 51
135.8235019999999906
  0
ARC
  5
81
100
AcDbEntity
  8
0
 62
0
370
0
  6
CONTINUOUS
100
AcDbCircle
 10
9.3499999999999996
 20
24.6499999999999986
 30
0.0
 40
2.079663
100
AcDbArc
 50
324.2603760000000079
 51
9.6887869999999996
  0
ARC
  5
82
100
AcDbEntity
  8
0
 62
0
370
0
  6
CONTINUOUS
100
AcDbCircle
 10
12.4806249999999999
 20
24.0566630000000004
 30
0.0
 40
3.1374970000000002
100
AcDbArc
 50
156.6539919999999881
 51
208.8717800000000011
  0
ARC
  5
83
100
AcDbEntity
  8
0
 62
0
370
0
  6
CONTINUOUS
100
AcDbCircle
 10
13.2176419999999997
 20
19.6489939999999983
 30
0.0
 40
3.660514
100
AcDbArc
 50
62.6389619999999994
 51
91.2309800000000024
  0
ARC
  5
84
100
AcDbEntity
  8
0
 62
0
370
0
  6
CONTINUOUS
100
AcDbCircle
 10
15.2646090000000001
 20
24.8719059999999992
 30
0.0
 40
2.5824189999999998
100
AcDbArc
 50
188.8350680000000068
 51
217.2301030000000139
  0
ARC
  5
85
100
AcDbEntity
  8
0
 62
0
370
0
  6
CONTINUOUS
100
AcDbCircle
 10
14.1151160000000004
 20
24.6825580000000002
 30
0.0
 40
1.4175219999999999
100
AcDbArc
 50
70.8492889999999989
 51
190.299209999999988
  0
ARC
  5
86
100
AcDbEntity
  8
0
 62
0
370
0
  6
CONTINUOUS
100
AcDbCircle
 10
10.3160100000000003
 20
24.4504039999999989
 30
0.0
 40
0.3
100
AcDbArc
 50
63.3159940000000034
 51
150.1225589999999954
  0
ARC
  5
87
100
AcDbEntity
  8
0
 62
0
370
0
  6
CONTINUOUS
100
AcDbCircle
 10
10.0578950000000003
 20
23.9368419999999986
 30
0.0
 40
0.874777
100
AcDbArc
 50
344.2913510000000201
 51
63.3159940000000034
  0
ARC
  5
88
100
AcDbEntity
  8
0
 62
0
370
0
  6
CONTINUOUS
100
AcDbCircle
 10
11.0999999999999996
 20
24.0
 30
0.0
 40
1.204159
100
AcDbArc
 50
150.1225589999999954
 51
232.2633209999999906
  0
ARC
  5
89
100
AcDbEntity
  8
0
 62
0
370
0
  6
CONTINUOUS
100
AcDbCircle
 10
14.2128730000000001
 20
24.5855449999999998
 30
0.0
 40
0.3
100
AcDbArc
 50
46.3694460000000035
 51
103.1804280000000063
  0
ARC
  5
8A
100
AcDbEntity
  8
0
 62
0
370
0
  6
CONTINUOUS
100
AcDbCircle
 10
14.3499999999999996
 20
24.0
 30
0.0
 40
0.901388
100
AcDbArc
 50
103.1804280000000063
 51
235.6251679999999737
  0
ARC
  5
8B
100
AcDbEntity
  8
0
 62
0
370
0
  6
CONTINUOUS
100
AcDbCircle
 10
13.75
 20
24.1000000000000014
 30
0.0
 40
0.970824
100
AcDbArc
 50
291.8327939999999785
 51
46.3694460000000035
  0
ARC
  5
8C
100
AcDbEntity
  8
0
 62
0
370
0
  6
CONTINUOUS
100
AcDbCircle
 10
14.9455220000000004
 20
21.4596829999999983
 30
0.0
 40
0.3
100
AcDbArc
 50
294.0325930000000199
 51
308.9663090000000238
  0
ARC
  5
8D
100
AcDbEntity
  8
0
 62
0
370
0
  6
CONTINUOUS
100
AcDbCircle
 10
14.5142860000000002
 20
21.9928570000000008
 30
0.0
 40
0.9857399999999999
100
AcDbArc
 50
308.9663090000000238
 51
66.9649579999999958
  0
ARC
  5
8E
100
AcDbEntity
  8
0
 62
0
370
0
  6
CONTINUOUS
100
AcDbCircle
 10
10.9878470000000004
 20
21.0899740000000016
 30
0.0
 40
0.3
100
AcDbArc
 50
244.8093409999999892
 51
261.6190189999999802
  0
ARC
  5
8F
100
AcDbEntity
  8
0
 62
0
370
0
  6
CONTINUOUS
100
AcDbCircle
 10
12.7863640000000007
 20
24.9136360000000003
 30
0.0
 40
4.5255239999999999
100
AcDbArc
 50
225.2441560000000038
 51
244.8093409999999892
  0
ARC
  5
90
100
AcDbEntity
  8
0
 62
0
370
0
  6
CONTINUOUS
100
AcDbCircle
 10
13.1305150000000008
 20
20.9286819999999985
 30
0.0
 40
0.3
100
AcDbArc
 50
110.9201199999999972
 51
120.3219600000000042
  0
ARC
  5
91
100
AcDbEntity
  8
0
 62
0
370
0
  6
CONTINUOUS
100
AcDbCircle
 10
11.4000000000000004
 20
23.8874999999999993
 30
0.0
 40
3.1277240000000002
100
AcDbArc
 50
261.6190189999999802
 51
300.32195999999999
  0
ARC
  5
92
100
AcDbEntity
  8
0
 62
0
370
0
  6
CONTINUOUS
100
AcDbCircle
 10
9.8785710000000009
 20
29.4357149999999983
 30
0.0
 40
8.8074010000000005
100
AcDbArc
 50
290.9201350000000161
 51
304.7597959999999944
  0
ARC
  5
93
100
AcDbEntity
  8
0
 62
0
370
0
  6
CONTINUOUS
100
AcDbCircle
 10
11.3795210000000004
 20
20.7885610000000014
 30
0.0
 40
1.0
100
AcDbArc
 50
218.7462920000000111
 51
251.5650789999999688
  0
ARC
  5
94
100
AcDbEntity
  8
0
 62
0
370
0
  6
CONTINUOUS
100
AcDbCircle
 10
11.9499999999999993
 20
22.5
 30
0.0
 40
2.8040150000000001
100
AcDbArc
 50
251.5650789999999688
 51
291.9911190000000261
  0
ARC
  5
95
100
AcDbEntity
  8
0
 62
0
370
0
  6
CONTINUOUS
100
AcDbCircle
 10
5.3499999999999996
 20
15.9499999999999993
 30
0.0
 40
6.730899
100
AcDbArc
 50
38.7462919999999968
 51
48.6138800000000018
  0
ARC
  5
96
100
AcDbEntity
  8
0
 62
0
370
0
  6
CONTINUOUS
100
AcDbCircle
 10
18.9991589999999988
 20
12.5574259999999995
 30
0.0
 40
9.4817339999999994
100
AcDbArc
 50
114.4963300000000004
 51
129.2501070000000141
  0
ARC
  5
97
100
AcDbEntity
  8
0
 62
0
370
0
  6
CONTINUOUS
100
AcDbCircle
 10
8.9430420000000002
 20
9.1931639999999994
 30
0.0
 40
3.7020930000000001
100
AcDbArc
 50
263.5004579999999805
 51
273.9800420000000258
  0
ARC
  5
98
100
AcDbEntity
  8
0
 62
0
370
0
  6
CONTINUOUS
100
AcDbCircle
 10
28.9407810000000012
 20
-4.8805509999999996
 30
0.0
 40
9.9906089999999992
100
AcDbArc
 50
113.2315830000000005
 51
127.926872000000003
  0
ARC
  5
99
100
AcDbEntity
  8
0
 62
0
370
0
  6
CONTINUOUS
100
AcDbCircle
 10
9.1069709999999997
 20
23.9999310000000001
 30
0.0
 40
1.817941
100
AcDbArc
 50
337.9531559999999786
 51
350.5036929999999984
  0
ENDSEC
  0
SECTION
  2
OBJECTS
  0
DICTIONARY
  5
C
100
AcDbDictionary
280
0
281
1
  3
ACAD_GROUP
350
D
  3
ACAD_LAYOUT
350
1A
  3
ACAD_MLINESTYLE
350
17
  3
ACAD_PLOTSETTINGS
350
19
  3
ACAD_PLOTSTYLENAME
350
E
  3
AcDbVariableDictionary
350
9A
  0
DICTIONARY
  5
D
100
AcDbDictionary
280
0
281
1
  0
ACDBDICTIONARYWDFLT
  5
E
100
AcDbDictionary
281
1
  3
Normal
350
F
100
AcDbDictionaryWithDefault
340
F
  0
ACDBPLACEHOLDER
  5
F
  0
DICTIONARY
  5
17
100
AcDbDictionary
280
0
281
1
  3
Standard
350
18
  0
MLINESTYLE
  5
18
100
AcDbMlineStyle
  2
STANDARD
 70
0
  3

 62
256
 51
90.0
 52
90.0
 71
2
 49
0.5
 62
256
  6
BYLAYER
 49
-0.5
 62
256
  6
BYLAYER
  0
DICTIONARY
  5
19
100
AcDbDictionary
280
0
281
1
  0
DICTIONARY
  5
1A
100
AcDbDictionary
281
1
  3
Layout1
350
1E
  3
Layout2
350
26
  3
Model
350
22
  0
LAYOUT
  5
1E
100
AcDbPlotSettings
  1

  2
C:\Program Files\AutoCAD 2002\plotters\DWF ePlot (optimized for plotting).pc3
  4

  6

 40
0.0
 41
0.0
 42
0.0
 43
0.0
 44
0.0
 45
0.0
 46
0.0
 47
0.0
 48
0.0
 49
0.0
140
0.0
141
0.0
142
1.0
143
1.0
 70
688
 72
0
 73
0
 74
5
  7

 75
16
147
1.0
148
0.0
149
0.0
100
AcDbLayout
  1
Layout1
 70
1
 71
1
 10
0.0
 20
0.0
 11
420.0
 21
297.0
 12
0.0
 22
0.0
 32
0.0
 14
100000000000000000000.0
 24
100000000000000000000.0
 34
100000000000000000000.0
 15
-100000000000000000000.0
 25
-100000000000000000000.0
 35
-100000000000000000000.0
146
0.0
 13
0.0
 23
0.0
 33
0.0
 16
1.0
 26
0.0
 36
0.0
 17
0.0
 27
1.0
 37
0.0
 76
0
330
1B
  0
LAYOUT
  5
22
100
AcDbPlotSettings
  1

  2
C:\Program Files\AutoCAD 2002\plotters\DWF ePlot (optimized for plotting).pc3
  4

  6

 40
0.0
 41
0.0
 42
0.0
 43
0.0
 44
0.0
 45
0.0
 46
0.0
 47
0.0
 48
0.0
 49
0.0
140
0.0
141
0.0
142
1.0
143
1.0
 70
1712
 72
0
 73
0
 74
0
  7

 75
0
147
1.0
148
0.0
149
0.0
100
AcDbLayout
  1
Model
 70
1
 71
0
 10
0.0
 20
0.0
 11
12.0
 21
9.0
 12
0.0
 22
0.0
 32
0.0
 14
0.0
 24
0.0
 34
0.0
 15
0.0
 25
0.0
 35
0.0
146
0.0
 13
0.0
 23
0.0
 33
0.0
 16
1.0
 26
0.0
 36
0.0
 17
0.0
 27
1.0
 37
0.0
 76
0
330
1F
  0
LAYOUT
  5
26
100
AcDbPlotSettings
  1

  2
C:\Program Files\AutoCAD 2002\plotters\DWF ePlot (optimized for plotting).pc3
  4

  6

 40
0.0
 41
0.0
 42
0.0
 43
0.0
 44
0.0
 45
0.0
 46
0.0
 47
0.0
 48
0.0
 49
0.0
140
0.0
141
0.0
142
1.0
143
1.0
 70
688
 72
0
 73
0
 74
5
  7

 75
16
147
1.0
148
0.0
149
0.0
100
AcDbLayout
  1
Layout2
 70
1
 71
2
 10
0.0
 20
0.0
 11
12.0
 21
9.0
 12
0.0
 22
0.0
 32
0.0
 14
0.0
 24
0.0
 34
0.0
 15
0.0
 25
0.0
 35
0.0
146
0.0
 13
0.0
 23
0.0
 33
0.0
 16
1.0
 26
0.0
 36
0.0
 17
0.0
 27
1.0
 37
0.0
 76
0
330
23
  0
DICTIONARY
  5
9A
100
AcDbDictionary
281
1
  3
DIMASSOC
350
9C
  3
HIDETEXT
350
9B
  0
DICTIONARYVAR
  5
9B
100
DictionaryVariables
280
0
  1
2
  0
DICTIONARYVAR
  5
9C
100
DictionaryVariables
280
0
  1
1
  0
ENDSEC
  0
EOF
