/* XPM */
static const char * blockattributes_xpm[] = {
"14 14 2 1",
" 	c None",
".	c #000000",
"              ",
"       .      ",
"       .      ",
"       . .    ",
"       . .    ",
"       . .    ",
"  ...  . .... ",
"     . . .   .",
"  .... . .   .",
" .   . . .   .",
" .  .. . .   .",
"  .. . . .... ",
"       .      ",
"       .      "};
