/* XPM */
static const char * blockedit_xpm[] = {
"14 14 4 1",
" 	c None",
".	c #000000",
"+	c #DEDADE",
"@	c #FFFFFF",
"       ...    ",
"      .+++.   ",
"      ..++.   ",
"     .@@...   ",
"     .@++.    ",
"    .@@++.    ",
"    .@++.     ",
"   .@@++.     ",
"   .@++.      ",
"   ..++.      ",
"   ....       ",
"   ...        ",
"   ..         ",
"   .          "};
