/* XPM */
static const char * blockinsert_xpm[] = {
"16 16 4 1",
" 	c None",
".	c #000000",
"+	c #FFFFFF",
"@	c #0000FF",
"   .........    ",
"   .+++++++..   ",
"   .+++++++.+.  ",
"   .@@@++++.++. ",
"  @@++@@@++.....",
" @ .+++@@@+++++.",
"   .++++@@@++++.",
"   .++@@@@@@@++.",
"   .+++@@@@@+++.",
"   .++++@@@++++.",
"   .+++++@+++++.",
"   .+++++++++++.",
"   .+++++++++++.",
"   .+++++++++++.",
"   .+++++++++++.",
"   ............."};
