/* XPM */
static const char * color08_xpm[] = {
"16 12 3 1",
" 	c None",
".	c #7F7F7F",
"+	c #000000",
"++++++++++++++++",
"+..............+",
"+..............+",
"+..............+",
"+..............+",
"+..............+",
"+..............+",
"+..............+",
"+..............+",
"+..............+",
"+..............+",
"++++++++++++++++"};


