/* XPM */
static const char * color02_xpm[] = {
"16 12 3 1",
" 	c None",
".	c #000000",
"+	c #FFFF00",
"................",
".++++++++++++++.",
".++++++++++++++.",
".++++++++++++++.",
".++++++++++++++.",
".++++++++++++++.",
".++++++++++++++.",
".++++++++++++++.",
".++++++++++++++.",
".++++++++++++++.",
".++++++++++++++.",
"................"};
