/* XPM */
static const char * color09_xpm[] = {
"16 12 3 1",
" 	c None",
".	c #CCCCCC",
"+	c #000000",
"++++++++++++++++",
"+..............+",
"+..............+",
"+..............+",
"+..............+",
"+..............+",
"+..............+",
"+..............+",
"+..............+",
"+..............+",
"+..............+",
"++++++++++++++++"};
