/* XPM */
static const char * colorxx_xpm[] = {
"16 12 141 2",
"  	c None",
". 	c #000000",
"+ 	c #11FF3E",
"@ 	c #00FF22",
"# 	c #00FF13",
"$ 	c #0BFF04",
"% 	c #26FF00",
"& 	c #42FF00",
"* 	c #5DFF00",
"= 	c #7AFF00",
"- 	c #99FF00",
"; 	c #B7FF00",
"> 	c #D6FE00",
", 	c #F1F700",
"' 	c #FFE800",
") 	c #FFDD11",
"! 	c #11FF64",
"~ 	c #00FF4B",
"{ 	c #00FF3C",
"] 	c #0BFF2D",
"^ 	c #26FF1D",
"/ 	c #42FF0E",
"( 	c #5DFF04",
"_ 	c #99FB00",
": 	c #B7F100",
"< 	c #D6E200",
"[ 	c #F1D300",
"} 	c #FFC700",
"| 	c #FFBC11",
"1 	c #11FF83",
"2 	c #00FF6C",
"3 	c #00FF5D",
"4 	c #0BFF4E",
"5 	c #26FF3F",
"6 	c #42FF2F",
"7 	c #5DF920",
"8 	c #7AEC11",
"9 	c #99DD05",
"0 	c #B7CE00",
"a 	c #D6C000",
"b 	c #F1B200",
"c 	c #FFA200",
"d 	c #FF9C11",
"e 	c #11FFA2",
"f 	c #00FF91",
"g 	c #00FF81",
"h 	c #0BFF73",
"i 	c #26F464",
"j 	c #42E556",
"k 	c #5DD747",
"l 	c #7AC838",
"m 	c #99B92A",
"n 	c #B7AC1A",
"o 	c #D69D0C",
"p 	c #F18E00",
"q 	c #FF7F00",
"r 	c #FF7A11",
"s 	c #11FFC8",
"t 	c #00FCB6",
"u 	c #00EEA7",
"v 	c #0BE098",
"w 	c #26D189",
"x 	c #42C379",
"y 	c #5DB46A",
"z 	c #7AA55B",
"A 	c #99964B",
"B 	c #B7873C",
"C 	c #D6792C",
"D 	c #F16A1D",
"E 	c #FF5B0E",
"F 	c #FF5711",
"G 	c #11E9E7",
"H 	c #00D9D7",
"I 	c #00CBC8",
"J 	c #0BBCB9",
"K 	c #26ADA9",
"L 	c #429E9C",
"M 	c #5D908E",
"N 	c #7A827F",
"O 	c #997370",
"P 	c #B76461",
"Q 	c #D65452",
"R 	c #F14542",
"S 	c #FF3735",
"T 	c #FF3737",
"U 	c #11C7FF",
"V 	c #00B6FD",
"W 	c #00A7F1",
"X 	c #0B98E2",
"Y 	c #268AD3",
"Z 	c #427BC3",
"` 	c #5D6CB4",
" .	c #7A5EA5",
"..	c #994E95",
"+.	c #B73F86",
"@.	c #D63176",
"#.	c #F12367",
"$.	c #FF1358",
"%.	c #FF1656",
"&.	c #11A6FF",
"*.	c #0093FF",
"=.	c #0083FF",
"-.	c #0B75FF",
";.	c #2666F4",
">.	c #4257E4",
",.	c #5D47D5",
"'.	c #7A39C6",
").	c #992AB7",
"!.	c #B71CA8",
"~.	c #D60D99",
"{.	c #F1028A",
"].	c #FF007B",
"^.	c #FF1178",
"/.	c #1184FF",
"(.	c #006FFF",
"_.	c #0060FF",
":.	c #0B51FF",
"<.	c #2641FF",
"[.	c #4232FF",
"}.	c #5D23FA",
"|.	c #7A16EF",
"1.	c #9909DF",
"2.	c #B700D0",
"3.	c #D600C0",
"4.	c #F100B1",
"5.	c #FF00A2",
"6.	c #FF119B",
"7.	c #1164FF",
"8.	c #004AFF",
"9.	c #003BFF",
"0.	c #0B2CFF",
"a.	c #261DFF",
"b.	c #4210FF",
"c.	c #5D05FF",
"d.	c #7A00FF",
"e.	c #9900FB",
"f.	c #B700F1",
"g.	c #D600E1",
"h.	c #F100D2",
"i.	c #FF00C3",
"j.	c #FF11B9",
". . . . . . . . . . . . . . . . ",
". + @ # $ % & * = - ; > , ' ) . ",
". ! ~ { ] ^ / ( = _ : < [ } | . ",
". 1 2 3 4 5 6 7 8 9 0 a b c d . ",
". e f g h i j k l m n o p q r . ",
". s t u v w x y z A B C D E F . ",
". G H I J K L M N O P Q R S T . ",
". U V W X Y Z `  ...+.@.#.$.%.. ",
". &.*.=.-.;.>.,.'.).!.~.{.].^.. ",
". /.(._.:.<.[.}.|.1.2.3.4.5.6.. ",
". 7.8.9.0.a.b.c.d.e.f.g.h.i.j.. ",
". . . . . . . . . . . . . . . . "};
