/* XPM */
static const char * color05_xpm[] = {
"16 12 3 1",
" 	c None",
".	c #000000",
"+	c #0000FF",
"................",
".++++++++++++++.",
".++++++++++++++.",
".++++++++++++++.",
".++++++++++++++.",
".++++++++++++++.",
".++++++++++++++.",
".++++++++++++++.",
".++++++++++++++.",
".++++++++++++++.",
".++++++++++++++.",
"................"};
