/* XPM */
static const char * color03_xpm[] = {
"16 12 3 1",
" 	c None",
".	c #000000",
"+	c #00FF00",
"................",
".++++++++++++++.",
".++++++++++++++.",
".++++++++++++++.",
".++++++++++++++.",
".++++++++++++++.",
".++++++++++++++.",
".++++++++++++++.",
".++++++++++++++.",
".++++++++++++++.",
".++++++++++++++.",
"................"};
