/* XPM */
static const char * color01_xpm[] = {
"16 12 3 1",
" 	c None",
".	c #000000",
"+	c #FF0000",
"................",
".++++++++++++++.",
".++++++++++++++.",
".++++++++++++++.",
".++++++++++++++.",
".++++++++++++++.",
".++++++++++++++.",
".++++++++++++++.",
".++++++++++++++.",
".++++++++++++++.",
".++++++++++++++.",
"................"};
