/* XPM */
static const char * color07_xpm[] = {
"16 12 10 1",
" 	c None",
".	c #000000",
"+	c #AAAAAA",
"@	c #FFFFFF",
"#	c #E3E3E3",
"$	c #393939",
"%	c #727272",
"&	c #C7C7C7",
"*	c #1D1D1D",
"=	c #555555",
"................",
".+..............",
".@#$............",
".@@@%...........",
".@@@@&*.........",
".@@@@@#=........",
".@@@@@@@+.......",
".@@@@@@@@#$.....",
".@@@@@@@@@@%....",
".@@@@@@@@@@@&*..",
".@@@@@@@@@@@@#=.",
"................"};
