/* XPM */
static const char * cur_cad_bmp_xpm[] = {
"32 32 3 1",
" 	c None",
".	c #FFFFFF",
"+	c #000000",
"...............+................",
"...............+................",
"...............+................",
"...............+................",
"...............+................",
"...............+................",
"...............+................",
"...............+................",
"...............+................",
"...............+................",
"...............+................",
"...............+................",
"...............+................",
"...............+................",
"................................",
"++++++++++++++...++++++++++++++.",
"................................",
"...............+................",
"...............+................",
"...............+................",
"...............+................",
"...............+................",
"...............+................",
"...............+................",
"...............+................",
"...............+................",
"...............+................",
"...............+................",
"...............+................",
"...............+................",
"...............+................",
"................................"};
