/* XPM */
static const char * cur_hand_mask_xpm[] = {
"32 32 3 1",
" 	c None",
".	c #000000",
"+	c #FFFFFF",
"++++++++++++++++++++++++++++++++",
"++++++++++++++++++++++++++++++++",
"++++++++++++++++++++++++++++++++",
"++++++++++++++++++++++++++++++++",
"++++++++++++++++++++++++++++++++",
"++++++++++++++++++++++++++++++++",
"++++++++++++++++++++++++++++++++",
"++++++++++++++++++++++++++++++++",
"+++++++++++++++..+++++++++++++++",
"+++++++++++..+......++++++++++++",
"++++++++++...........+++++++++++",
"++++++++++...........+..++++++++",
"+++++++++++.............++++++++",
"+++++++++++.............++++++++",
"+++++++++..+............++++++++",
"++++++++................++++++++",
"++++++++...............+++++++++",
"+++++++++..............+++++++++",
"++++++++++.............+++++++++",
"++++++++++............++++++++++",
"+++++++++++...........++++++++++",
"++++++++++++.........+++++++++++",
"+++++++++++++........+++++++++++",
"+++++++++++++........+++++++++++",
"++++++++++++++++++++++++++++++++",
"++++++++++++++++++++++++++++++++",
"++++++++++++++++++++++++++++++++",
"++++++++++++++++++++++++++++++++",
"++++++++++++++++++++++++++++++++",
"++++++++++++++++++++++++++++++++",
"++++++++++++++++++++++++++++++++",
"++++++++++++++++++++++++++++++++"};
