/* XPM */
static const char * folderclosed_xpm[] = {
"16 16 119 2",
"  	c None",
". 	c #64A6F7",
"+ 	c #357CE3",
"@ 	c #D9E1F8",
"# 	c #B1BADE",
"$ 	c #4392E3",
"% 	c #B8D9F8",
"& 	c #4F9BED",
"* 	c #126EE0",
"= 	c #C6CBDA",
"- 	c #FFFFFF",
"; 	c #F1F0F6",
"> 	c #80ADE2",
", 	c #4F95E4",
"' 	c #1876DF",
") 	c #0C6ADF",
"! 	c #0C4CB9",
"~ 	c #CCCFDA",
"{ 	c #F8F4F7",
"] 	c #89B7E7",
"^ 	c #78ACE4",
"/ 	c #B4D8F8",
"( 	c #97CAFF",
"_ 	c #6FAEFC",
": 	c #3175D8",
"< 	c #0E51B4",
"[ 	c #D0D0D7",
"} 	c #8EC1F0",
"| 	c #85BBED",
"1 	c #DAF0F9",
"2 	c #BDE2FB",
"3 	c #9CCCF8",
"4 	c #84BBF8",
"5 	c #6FAAF4",
"6 	c #4780D4",
"7 	c #0851AA",
"8 	c #0035A9",
"9 	c #CFD0D4",
"0 	c #51A2E9",
"a 	c #FFFFFE",
"b 	c #EEFCFD",
"c 	c #CEECFB",
"d 	c #B1D9F9",
"e 	c #9AC9F9",
"f 	c #7EB3F2",
"g 	c #568CDA",
"h 	c #1156BA",
"i 	c #004595",
"j 	c #003293",
"k 	c #EFEFEE",
"l 	c #84BCEE",
"m 	c #E2F8FC",
"n 	c #C9E8FB",
"o 	c #B0D8FA",
"p 	c #90C0F3",
"q 	c #6B9FE5",
"r 	c #3375CC",
"s 	c #2A71C7",
"t 	c #003B96",
"u 	c #0651AE",
"v 	c #0E3DAC",
"w 	c #DFD8D5",
"x 	c #FFF7F2",
"y 	c #DEEFFE",
"z 	c #BEDCF6",
"A 	c #E5FCFD",
"B 	c #C4E6FB",
"C 	c #A8D4F8",
"D 	c #85B6EC",
"E 	c #437DCE",
"F 	c #2170C9",
"G 	c #397CC8",
"H 	c #A3B6D4",
"I 	c #E3D3D2",
"J 	c #295BC3",
"K 	c #74A7D5",
"L 	c #CBC7CE",
"M 	c #7EB0E7",
"N 	c #F5FFFF",
"O 	c #C1E7FE",
"P 	c #9AC8F3",
"Q 	c #4B84D3",
"R 	c #5490D9",
"S 	c #B3C7E3",
"T 	c #E9DFDF",
"U 	c #D3CED8",
"V 	c #D7CFD3",
"W 	c #7488C1",
"X 	c #CBEAFF",
"Y 	c #D9F9FF",
"Z 	c #70AAE1",
"` 	c #C7E0EE",
" .	c #9DCBF1",
"..	c #84AEE4",
"+.	c #D0E1F4",
"@.	c #FFF9F4",
"#.	c #EEE9EB",
"$.	c #E6E2E5",
"%.	c #D9D1D6",
"&.	c #637DC0",
"*.	c #2D63D3",
"=.	c #B4DBF9",
"-.	c #D6F8FF",
";.	c #75ACE3",
">.	c #F0FAFF",
",.	c #FCF9F8",
"'.	c #91A5D4",
").	c #2A5FCE",
"!.	c #A4CEF4",
"~.	c #77AFE8",
"{.	c #E1EBFC",
"].	c #3F73D7",
"^.	c #043BAE",
"/.	c #75A9E3",
"(.	c #A8C6EC",
"_.	c #6195E7",
":.	c #1450C5",
"<.	c #7AB0FB",
"[.	c #155ED2",
"                                ",
"                    . +         ",
"          @ #   $ % & *         ",
"        = - - ; > , ' ) !       ",
"      ~ - { ] ^ / ( _ : <       ",
"    [ - } | 1 2 3 4 5 6 7 8     ",
"  9 - 0 a b c d e f g h i j     ",
"k - - l - m n o p q r s t u v   ",
"  w x y z A B C D E F G H I J   ",
"    K L M N O P Q R S T U V W   ",
"    X Y Z `  ...+.@.#.$.%.&.*.  ",
"      =.-.;.>.- - ,.x '.).      ",
"        !.~.- - - {.].^.        ",
"          /.(.- _.:.            ",
"            <.[.                ",
"                                "};
