/* XPM */
static const char * folderopen_xpm[] = {
"16 16 117 2",
"  	c None",
". 	c #EFF0F9",
"+ 	c #FFFFFF",
"@ 	c #EFF1F8",
"# 	c #F6F6FA",
"$ 	c #F9F8FC",
"% 	c #C1CDEC",
"& 	c #F1F3F9",
"* 	c #FCFBFE",
"= 	c #EFEFF6",
"- 	c #ECEBF2",
"; 	c #516FAF",
"> 	c #4F89FD",
", 	c #B4E9FF",
"' 	c #BDE8FF",
") 	c #E4F2FF",
"! 	c #B8D5FD",
"~ 	c #EBEBED",
"{ 	c #F6F5F9",
"] 	c #F7F3F5",
"^ 	c #F7EFF3",
"/ 	c #B2C5E4",
"( 	c #8DADE0",
"_ 	c #6AA1EB",
": 	c #1E68EA",
"< 	c #F5FCFF",
"[ 	c #E0EDFF",
"} 	c #C6DEFC",
"| 	c #F0EDED",
"1 	c #FCFBFD",
"2 	c #FFFAF9",
"3 	c #A6C7EA",
"4 	c #89B2E6",
"5 	c #82B9FA",
"6 	c #5FABFF",
"7 	c #0B6CE6",
"8 	c #002EBC",
"9 	c #C8EDFF",
"0 	c #DBEBFF",
"a 	c #C3D2E9",
"b 	c #FFFFFC",
"c 	c #95BDE8",
"d 	c #B4DCFE",
"e 	c #76B4FA",
"f 	c #569FFA",
"g 	c #66AEFF",
"h 	c #0027B1",
"i 	c #0037BC",
"j 	c #ABE3FF",
"k 	c #B8D4FA",
"l 	c #D4D8E4",
"m 	c #BADBF6",
"n 	c #AAD1F2",
"o 	c #BCDFFB",
"p 	c #89C3FC",
"q 	c #69ADFA",
"r 	c #4C90F3",
"s 	c #0B42CB",
"t 	c #0022B5",
"u 	c #0033B3",
"v 	c #E1ECFC",
"w 	c #BDDBFF",
"x 	c #9AC2ED",
"y 	c #EEFFFF",
"z 	c #C0E6FE",
"A 	c #9ACDFD",
"B 	c #6DA7F5",
"C 	c #3B79E8",
"D 	c #074EDD",
"E 	c #1A4CCD",
"F 	c #A1A5C9",
"G 	c #0E42AE",
"H 	c #B9D6F7",
"I 	c #B6D6FF",
"J 	c #ACD3F6",
"K 	c #B9DCF2",
"L 	c #AEDBFF",
"M 	c #7AB3F8",
"N 	c #4B8DF1",
"O 	c #3D79E6",
"P 	c #8FA4D5",
"Q 	c #DACECC",
"R 	c #C8C2CF",
"S 	c #B0D7FF",
"T 	c #AFD2FF",
"U 	c #AAD4F6",
"V 	c #89C4F9",
"W 	c #89C2FB",
"X 	c #72ABF5",
"Y 	c #ACBFE5",
"Z 	c #E7DDDA",
"` 	c #E5DAD8",
" .	c #A9ADC9",
"..	c #2D66DC",
"+.	c #C5DFFF",
"@.	c #9BCBF5",
"#.	c #88C7FF",
"$.	c #C0D5F2",
"%.	c #F6EDE9",
"&.	c #F5EBE6",
"*.	c #C4C9DC",
"=.	c #4478DA",
"-.	c #0E4AB7",
";.	c #A6C9F6",
">.	c #A8D0F6",
",.	c #FFFFFA",
"'.	c #FFFCF5",
").	c #EDEAEE",
"!.	c #6497E9",
"~.	c #1E5ED0",
"{.	c #9FC7FE",
"].	c #CAE3FA",
"^.	c #89BAF9",
"/.	c #347BE8",
"(.	c #77B5FF",
"_.	c #AFD9FF",
":.	c #4E98FA",
"                                ",
"                . +             ",
"              @ # $ %           ",
"            & * = - + ;   >     ",
"  , ' ) ! ~ + { ] ^ / ( _ :     ",
"  < [ } | + 1 2 3 4 5 6 7 8     ",
"  9 0 a + + b c d e f g h i     ",
"  j [ k l m n o p q r s t u     ",
"    v w x y z A B C D E F G     ",
"    H I J K L M N O P Q R       ",
"    S T U V W X Y Z `  ...      ",
"      +.@.#.$.%.&.*.=.-.        ",
"      ;.>.,.'.).!.~.            ",
"      {.].+ ^./.                ",
"      (._.:.                    ",
"                                "};
