/* XPM */
static const char *hiddenlayer_xpm[] = {
"14 12 3 1",
"$ c none",
"% c #a8a8a8",
"& c #ffffff",
"$$$$$$%%$$$$$$",
"$%%%%%%%%%%%$$",
"%&%%%%%%%%%%%$",
"%%%%%%%%%%%%%%",
"%%%%%%%%%%%%%%",
"%&&%%%%%%%%%%%",
"&&&%%%%%%%&%%%",
"%&&&%%%%%%&%%%",
"$%&&&%%%%&%%%%",
"$%%&&&&&%%%%%$",
"$$%%%%%%%%%%$$",
"$$$%%%%%%%$$$$"
};

