/* XPM */
static const char * layerstatus_00_xpm[] = {
"30 12 3 1",
" 	c None",
".	c #A8A8A8",
"+	c #FFFFFF",
"      ..                      ",
" ...........         ....     ",
".+...........       ..  ..    ",
"..............      .    .    ",
"..............      .    .    ",
".++...........     ........   ",
"+++.......+...     ........   ",
".+++......+...     ........   ",
" .+++....+....     ........   ",
" ..+++++.....      ........   ",
"  ..........       ........   ",
"   .......         ........   "};
