/* XPM */
static const char * layerstatus_11_xpm[] = {
"30 12 6 1",
" 	c None",
".	c #BFBFBF",
"+	c #808080",
"@	c #000000",
"#	c #FFFFFF",
"$	c #000080",
"      ..                      ",
" ..++..@....         @@@@     ",
".#+.@@@+@+@..       @@  @@    ",
".+@@@@@@@@@+@.      @    @    ",
"@$.++.@@@@@@@.      @    @    ",
".##+++@@@@++@@     @@@@@@@@   ",
"###+@@@@@@#.@@     @@@@@@@@   ",
".###@@@@@+#.@.     @@@@@@@@   ",
" .###+@@.#.@..     @@@@@@@@   ",
" ..#####.++..      @@@@@@@@   ",
"  ..+.++++..       @@@@@@@@   ",
"   .++++..         @@@@@@@@   "};
