/* XPM */
static const char * layerstatus_10_xpm[] = {
"30 12 7 1",
" 	c None",
".	c #BFBFBF",
"+	c #808080",
"@	c #000000",
"#	c #A8A8A8",
"$	c #FFFFFF",
"%	c #000080",
"      ..                      ",
" ..++..@....         ####     ",
".$+.@@@+@+@..       ##  ##    ",
".+@@@@@@@@@+@.      #    #    ",
"@%.++.@@@@@@@.      #    #    ",
".$$+++@@@@++@@     ########   ",
"$$$+@@@@@@$.@@     ########   ",
".$$$@@@@@+$.@.     ########   ",
" .$$$+@@.$.@..     ########   ",
" ..$$$$$.++..      ########   ",
"  ..+.++++..       ########   ",
"   .++++..         ########   "};
