/* XPM */
static const char * layerstatus_01_xpm[] = {
"30 12 4 1",
" 	c None",
".	c #A8A8A8",
"+	c #000000",
"@	c #FFFFFF",
"      ..                      ",
" ...........         ++++     ",
".@...........       ++  ++    ",
"..............      +    +    ",
"..............      +    +    ",
".@@...........     ++++++++   ",
"@@@.......@...     ++++++++   ",
".@@@......@...     ++++++++   ",
" .@@@....@....     ++++++++   ",
" ..@@@@@.....      ++++++++   ",
"  ..........       ++++++++   ",
"   .......         ++++++++   "};
