/* XPM */
static const char * layeredit_xpm[] = {
"14 14 5 1",
" 	c None",
".	c #000000",
"+	c #FF0000",
"@	c #0000FF",
"#	c #00FF00",
" .  .  ++++++ ",
" .  .  ++++++ ",
" .  .  @@@@@@ ",
" .     @@@@@@ ",
" .     ###### ",
" .  .  ###### ",
" .            ",
" .     ...... ",
" .  .         ",
" .  .  ...... ",
" .  .  ...... ",
" .  .         ",
" .     ...... ",
" .     ...... "};
