/* XPM */
static const char * linetype03_xpm[] = {
"32 12 3 1",
" 	c None",
".	c #FFFFFF",
"+	c #000000",
"................................",
"................................",
"................................",
"................................",
"................................",
"+++++++...+++++++...+++++++...++",
"................................",
"................................",
"................................",
"................................",
"................................",
"................................"};
