/* XPM */
static const char * linetype01_xpm[] = {
"32 12 3 1",
" 	c None",
".	c #FFFFFF",
"+	c #000000",
"................................",
"................................",
"................................",
"................................",
"................................",
"++++++++++++++++++++++++++++++++",
"................................",
"................................",
"................................",
"................................",
"................................",
"................................"};
