/* XPM */
static const char * mouse_xpm[] = {
"16 27 4 1",
" 	c None",
".	c #000000",
"+	c #BFBFBF",
"@	c #FFFFFF",
"      .+.       ",
"      .+.       ",
"       .+.      ",
"       .+.      ",
"       .+.      ",
" .............. ",
".++@@.++@@.++@@.",
".+@@@.+@@@.+@@@.",
".+@@@.+@@@.+@@@.",
".+@@@.+@@@.+@@@.",
".+@@@.+@@@.+@@@.",
".+@@@.+@@@.+@@@.",
"................",
".@@@@@@@@@@@@@@.",
".@+@@@@@@@@@@@@.",
".@@@@@@@@@@@@@@.",
".@+@@@@@@@@@@@@.",
".+@@+@@@@@@@@@@.",
".++@@@@@@@@@@@@.",
".+@+@@@@@@@@@@@.",
".+++@@@@@@@@@@@.",
".++@+@+@@@@@@@@.",
".+++@@@@@@@@@@@.",
" .++++@@+@@@@@. ",
"  .++@+@@@@@@.. ",
"   ..+@+@@@..   ",
"     ......     "};
