/* XPM */
static const char * viewdraft_xpm[] = {
"16 16 5 1",
" 	c None",
".	c #000000",
"+	c #DEDADE",
"@	c #FFFFFF",
"#	c #FF0000",
"                ",
"        ...     ",
"        .++.    ",
"       .++++.   ",
"       ..++.    ",
"      .@@... #  ",
"      .@++.  # #",
"     .@@++. #  #",
"     .@++.  # # ",
"    .@@++.    # ",
"    .@++.       ",
"    ..++.       ",
"    ....        ",
"    ...         ",
"    ..          ",
"    .           "};
