/* XPM */
static const char *visiblelayer_xpm[] = {
"14 12 6 1",
"$ c none",
"% c #bfbfbf",
"& c #808080",
"' c #ffffff",
"( c #000000",
") c #000080",
"$$$$$$%%$$$$$$",
"$%%&&%%(%%%%$$",
"%'&%(((&(&(%%$",
"%&(((((((((&(%",
"()%&&%(((((((%",
"%''&&&((((&&((",
"'''&(((((('%((",
"%'''(((((&'%(%",
"$%'''&((%'%(%%",
"$%%'''''%&&%%$",
"$$%%&%&&&&%%$$",
"$$$%&&&&%%$$$$"
};

