/* XPM */
static const char * width11_xpm[] = {
"32 12 3 1",
" 	c None",
".	c #000000",
"+	c #FFFFFF",
"................................",
"................................",
"................................",
"................................",
"................................",
"................................",
"................................",
"................................",
"................................",
"................................",
"................................",
"++++++++++++++++++++++++++++++++"};
