/* XPM */
static const char * width03_xpm[] = {
"32 12 3 1",
" 	c None",
".	c #FFFFFF",
"+	c #000000",
"................................",
"................................",
"................................",
"................................",
"++++++++++++++++++++++++++++++++",
"++++++++++++++++++++++++++++++++",
"++++++++++++++++++++++++++++++++",
"................................",
"................................",
"................................",
"................................",
"................................"};
