<?xml version="1.0" encoding="UTF-8" standalone="no"?>
<!-- Created with Inkscape (http://www.inkscape.org/) -->

<svg
   xmlns:dc="http://purl.org/dc/elements/1.1/"
   xmlns:cc="http://creativecommons.org/ns#"
   xmlns:rdf="http://www.w3.org/1999/02/22-rdf-syntax-ns#"
   xmlns:svg="http://www.w3.org/2000/svg"
   xmlns="http://www.w3.org/2000/svg"
   xmlns:xlink="http://www.w3.org/1999/xlink"
   xmlns:sodipodi="http://sodipodi.sourceforge.net/DTD/sodipodi-0.dtd"
   xmlns:inkscape="http://www.inkscape.org/namespaces/inkscape"
   width="550"
   height="721"
   id="svg2"
   version="1.1"
   inkscape:version="0.48.0 r9654"
   sodipodi:docname="Logo LibreCAD.svg">
  <title
     id="title3035">LibreCAD Logo</title>
  <defs
     id="defs4">
    <radialGradient
       r="275.1348"
       fy="-49.105164"
       fx="1301.0398"
       cy="-49.105164"
       cx="1301.0398"
       gradientTransform="matrix(0.99951017,0,0,1.0625151,-1025.4028,554.0383)"
       gradientUnits="userSpaceOnUse"
       id="radialGradient9302-2"
       xlink:href="#linearGradient12685-8"
       inkscape:collect="always" />
    <linearGradient
       id="linearGradient12685-8">
      <stop
         style="stop-color:#ffffff;stop-opacity:1"
         offset="0"
         id="stop12687-2" />
      <stop
         style="stop-color:#f2f2f2;stop-opacity:1"
         offset="1"
         id="stop12689-3" />
    </linearGradient>
    <radialGradient
       r="275.1348"
       fy="-49.105164"
       fx="1301.0398"
       cy="-49.105164"
       cx="1301.0398"
       gradientTransform="matrix(0.99951021,0,0,1.0625151,-1025.4027,602.6729)"
       gradientUnits="userSpaceOnUse"
       id="radialGradient3190"
       xlink:href="#linearGradient15690-8-3"
       inkscape:collect="always" />
    <linearGradient
       id="linearGradient15690-8-3"
       inkscape:collect="always">
      <stop
         id="stop15692-7-3"
         offset="0"
         style="stop-color:#424242;stop-opacity:1" />
      <stop
         id="stop15694-0-6"
         offset="1"
         style="stop-color:#1e1e1e;stop-opacity:1" />
    </linearGradient>
    <radialGradient
       r="275.1348"
       fy="-49.105164"
       fx="1301.0398"
       cy="-49.105164"
       cx="1301.0398"
       gradientTransform="matrix(0.99951021,0,0,1.0625151,-1025.4027,934.03608)"
       gradientUnits="userSpaceOnUse"
       id="radialGradient3270"
       xlink:href="#linearGradient15690-8-3"
       inkscape:collect="always" />
  </defs>
  <sodipodi:namedview
     id="base"
     pagecolor="#ffffff"
     bordercolor="#666666"
     borderopacity="1.0"
     inkscape:pageopacity="0.0"
     inkscape:pageshadow="2"
     inkscape:zoom="0.7"
     inkscape:cx="535.73439"
     inkscape:cy="476.57452"
     inkscape:document-units="px"
     inkscape:current-layer="layer1"
     showgrid="false"
     inkscape:window-width="1680"
     inkscape:window-height="998"
     inkscape:window-x="-8"
     inkscape:window-y="-8"
     inkscape:window-maximized="1" />
  <metadata
     id="metadata7">
    <rdf:RDF>
      <cc:Work
         rdf:about="">
        <dc:format>image/svg+xml</dc:format>
        <dc:type
           rdf:resource="http://purl.org/dc/dcmitype/StillImage" />
        <dc:title>LibreCAD Logo</dc:title>
        <dc:creator>
          <cc:Agent>
            <dc:title>Diego Alejandro Torres Morales</dc:title>
          </cc:Agent>
        </dc:creator>
        <dc:rights>
          <cc:Agent>
            <dc:title>CC</dc:title>
          </cc:Agent>
        </dc:rights>
        <cc:license
           rdf:resource="http://creativecommons.org/licenses/by-sa/3.0/" />
        <dc:publisher>
          <cc:Agent>
            <dc:title>Daltom</dc:title>
          </cc:Agent>
        </dc:publisher>
        <dc:date>2011-05-10</dc:date>
      </cc:Work>
      <cc:License
         rdf:about="http://creativecommons.org/licenses/by-sa/3.0/">
        <cc:permits
           rdf:resource="http://creativecommons.org/ns#Reproduction" />
        <cc:permits
           rdf:resource="http://creativecommons.org/ns#Distribution" />
        <cc:requires
           rdf:resource="http://creativecommons.org/ns#Notice" />
        <cc:requires
           rdf:resource="http://creativecommons.org/ns#Attribution" />
        <cc:permits
           rdf:resource="http://creativecommons.org/ns#DerivativeWorks" />
        <cc:requires
           rdf:resource="http://creativecommons.org/ns#ShareAlike" />
      </cc:License>
    </rdf:RDF>
  </metadata>
  <g
     inkscape:label="Layer 1"
     inkscape:groupmode="layer"
     id="layer1"
     transform="translate(0,-331.36218)">
    <rect
       style="fill:url(#radialGradient3270);fill-opacity:1;fill-rule:nonzero;stroke:none"
       id="rect12657-1-8-3"
       width="550"
       height="341"
       x="0.000114609"
       y="711.36115"
       inkscape:export-filename="E:\Diego\my documents\Other works\LibreCad\PropuestaLibreCad2.png"
       inkscape:export-xdpi="71.989487"
       inkscape:export-ydpi="71.989487" />
    <rect
       style="fill:url(#radialGradient9302-2);fill-opacity:1;fill-rule:nonzero;stroke:none"
       id="rect12657-1"
       width="550"
       height="341"
       x="0.000114609"
       y="331.36328"
       inkscape:export-filename="E:\Diego\my documents\Other works\LibreCad\PropuestaLibreCad2.png"
       inkscape:export-xdpi="71.989487"
       inkscape:export-ydpi="71.989487" />
    <g
       transform="translate(0,331.36318)"
       style="fill-rule:evenodd"
       id="_552076432">
      <path
         style="fill:#4d4d4d;fill-rule:nonzero"
         inkscape:connector-curvature="0"
         d="m 154.751,193.555 0,-5.7308 -20.7496,0 0,-40.3795 -5.7308,0 0,46.1103 26.4804,0 z m 13.4379,-43.2122 c 0,-1.1418 -0.39515,-2.09679 -1.18573,-2.86526 -0.79058,-0.76847 -1.75663,-1.15285 -2.89842,-1.15285 -1.1418,0 -2.09679,0.38438 -2.86526,1.15285 -0.76847,0.76847 -1.15285,1.72346 -1.15285,2.86526 0,1.1418 0.38438,2.09707 1.15285,2.86554 0.76847,0.76847 1.72346,1.15285 2.86526,1.15285 1.1418,0 2.10784,-0.38438 2.89842,-1.15285 0.79058,-0.76847 1.18573,-1.72375 1.18573,-2.86554 z m -1.18573,43.2122 0,-34.583 -5.7308,0 0,34.583 5.7308,0 z m 45.4518,-17.2585 c 0,-4.91839 -1.66876,-9.22224 -5.00627,-12.911 -3.24964,-3.68872 -7.3559,-5.53323 -12.3182,-5.53323 -5.75263,0 -10.3637,2.45934 -13.8331,7.37773 l 0,-17.7854 -5.7308,0 0,46.1103 5.7308,0 0,-6.192 c 3.51326,4.91839 8.12438,7.37773 13.8331,7.37773 4.96233,0 9.09042,-1.86633 12.384,-5.59927 3.29357,-3.60085 4.9405,-7.88258 4.9405,-12.8449 z m -5.79685,0 c 0,3.46932 -1.2515,6.45534 -3.75477,8.95861 -2.41512,2.45905 -5.37959,3.68872 -8.89257,3.68872 -3.5572,0 -6.56532,-1.22967 -9.02466,-3.68872 -2.45905,-2.54721 -3.68872,-5.53323 -3.68872,-8.95861 0,-1.80057 0.30756,-3.42539 0.92211,-4.87446 0.61483,-1.44935 1.53723,-2.81055 2.76661,-4.08416 2.50328,-2.50328 5.5114,-3.75477 9.02466,-3.75477 3.46932,0 6.43351,1.2515 8.89257,3.75477 2.50328,2.50299 3.75477,5.48929 3.75477,8.95861 z m 31.2233,-12.0546 0,-6.25776 c -0.35121,-0.0879 -0.72454,-0.13181 -1.11968,-0.13181 -0.3515,0 -0.70271,0 -1.0542,0 -4.25962,0 -7.72894,1.69058 -10.4077,5.07203 l 0,-3.95235 -5.7308,0 0,34.583 5.7308,0 0,-20.7496 c 0,-2.54721 0.90028,-4.72082 2.70085,-6.52139 1.80057,-1.80057 3.97417,-2.70085 6.52139,-2.70085 0.61455,0 1.18545,0.055 1.71241,0.16469 0.52724,0.1097 1.07603,0.2744 1.64693,0.49408 z m 41.9604,12.0546 c 0,-5.09414 -1.80028,-9.44164 -5.40142,-13.0428 -3.64479,-3.60085 -7.99257,-5.40142 -13.0428,-5.40142 -5.09386,0 -9.44164,1.80057 -13.0425,5.40142 -3.60113,3.60113 -5.4017,7.94863 -5.4017,13.0428 0,5.0502 1.80057,9.37587 5.4017,12.9767 3.64479,3.64507 7.99228,5.46746 13.0425,5.46746 2.85449,0 5.57716,-0.64772 8.16831,-1.94315 2.59087,-1.29572 4.74265,-3.08523 6.45534,-5.36882 l -4.80869,-3.09572 c -2.59087,3.07389 -5.86261,4.61083 -9.81496,4.61083 -2.89814,0 -5.53323,-0.92211 -7.90441,-2.76661 -2.37146,-1.88816 -3.84265,-4.23779 -4.41354,-7.04835 l 30.4988,0 c 0.17575,-0.87817 0.26334,-1.82239 0.26334,-2.83238 z m -6.12595,-2.89842 -24.6362,0 c 0.5709,-2.81055 2.04208,-5.1599 4.41354,-7.04835 2.37118,-1.84422 5.00627,-2.76661 7.90441,-2.76661 2.89842,0 5.5114,0.92239 7.83893,2.76661 2.32753,1.80057 3.82053,4.14992 4.47931,7.04835 z"
         class="fil1"
         id="_546700112" />
      <path
         style="fill:#8ed900;fill-rule:nonzero"
         inkscape:connector-curvature="0"
         d="m 327.994,187.1 -4.61112,-4.41354 c -3.82053,3.73266 -8.1462,5.59899 -12.9767,5.59899 -4.8308,0 -9.02466,-1.73452 -12.5816,-5.20384 -3.46932,-3.55691 -5.20384,-7.75077 -5.20384,-12.5816 0,-4.83052 1.73452,-9.02438 5.20384,-12.5816 3.46932,-3.42539 7.66318,-5.13779 12.5816,-5.13779 4.87446,0 9.20012,1.84422 12.9767,5.53323 l 5.13808,-4.87474 c -5.22595,-5.22567 -11.264,-7.83864 -18.1148,-7.83864 -6.80683,0 -12.6694,2.45905 -17.5878,7.37773 -4.87446,4.87446 -7.31197,10.715 -7.31197,17.5218 0,6.80683 2.4154,12.6916 7.24592,17.6539 4.91868,4.83052 10.8031,7.24592 17.6539,7.24592 6.7629,0 12.6255,-2.43723 17.5878,-7.31197 l 0,-0.98787 z m 46.6373,7.17987 -17.2585,-47.4936 -7.11411,0 -17.2587,47.4936 7.50954,0 3.82053,-10.4077 18.9054,0 3.82053,10.4077 7.57531,0 z m -20.8814,-36.4272 6.91653,18.9054 -13.7673,0 6.85077,-18.9054 z m 67.9799,12.6473 c 0,-6.63109 -2.34964,-12.2301 -7.04835,-16.7973 -4.61112,-4.61112 -10.1665,-6.91653 -16.6657,-6.91653 l -17.983,0 0,47.4936 17.983,0 c 6.49927,0 12.0546,-2.32753 16.6657,-6.9823 4.69871,-4.69899 7.04835,-10.298 7.04835,-16.7975 z m -7.11439,0 c 0,4.61112 -1.62482,8.54135 -4.87446,11.7913 -3.2057,3.2057 -7.11411,4.80869 -11.7252,4.80869 l -10.8689,0 0,-33.1996 10.8689,0 c 4.56718,0 8.47559,1.62482 11.7252,4.87446 3.24964,3.24964 4.87446,7.15805 4.87446,11.7252 z"
         class="fil2"
         id="_549118096" />
    </g>
    <polygon
       transform="translate(0,331.36318)"
       style="fill:#8ed900;fill-rule:evenodd"
       id="polygon3103"
       points="122.539,199.286 122.539,203.019 169.836,203.019 169.836,210.487 122.539,210.487 122.539,214.221 107.604,214.221 107.604,199.286 "
       class="fil3" />
    <path
       style="fill:#f3f3f3;fill-rule:nonzero"
       inkscape:connector-curvature="0"
       id="path3107"
       d="m 154.751,904.91618 0,-5.7308 -20.7496,0 0,-40.3795 -5.7308,0 0,46.1103 26.4804,0 z m 13.4379,-43.2122 c 0,-1.1418 -0.39515,-2.09679 -1.18573,-2.86526 -0.79058,-0.76847 -1.75663,-1.15285 -2.89842,-1.15285 -1.1418,0 -2.09679,0.38438 -2.86526,1.15285 -0.76847,0.76847 -1.15285,1.72346 -1.15285,2.86526 0,1.1418 0.38438,2.09707 1.15285,2.86554 0.76847,0.76847 1.72346,1.15285 2.86526,1.15285 1.1418,0 2.10784,-0.38438 2.89842,-1.15285 0.79058,-0.76847 1.18573,-1.72375 1.18573,-2.86554 z m -1.18573,43.2122 0,-34.583 -5.7308,0 0,34.583 5.7308,0 z m 45.4518,-17.2585 c 0,-4.91839 -1.66876,-9.22224 -5.00627,-12.911 -3.24964,-3.68872 -7.3559,-5.53323 -12.3182,-5.53323 -5.75263,0 -10.3637,2.45934 -13.8331,7.37773 l 0,-17.7854 -5.7308,0 0,46.1103 5.7308,0 0,-6.192 c 3.51326,4.91839 8.12438,7.37773 13.8331,7.37773 4.96233,0 9.09042,-1.86633 12.384,-5.59927 3.29357,-3.60085 4.9405,-7.88258 4.9405,-12.8449 z m -5.79685,0 c 0,3.46932 -1.2515,6.45534 -3.75477,8.95861 -2.41512,2.45905 -5.37959,3.68872 -8.89257,3.68872 -3.5572,0 -6.56532,-1.22967 -9.02466,-3.68872 -2.45905,-2.54721 -3.68872,-5.53323 -3.68872,-8.95861 0,-1.80057 0.30756,-3.42539 0.92211,-4.87446 0.61483,-1.44935 1.53723,-2.81055 2.76661,-4.08416 2.50328,-2.50328 5.5114,-3.75477 9.02466,-3.75477 3.46932,0 6.43351,1.2515 8.89257,3.75477 2.50328,2.50299 3.75477,5.48929 3.75477,8.95861 z m 31.2233,-12.0546 0,-6.25776 c -0.35121,-0.0879 -0.72454,-0.13181 -1.11968,-0.13181 -0.3515,0 -0.70271,0 -1.0542,0 -4.25962,0 -7.72894,1.69058 -10.4077,5.07203 l 0,-3.95235 -5.7308,0 0,34.583 5.7308,0 0,-20.7496 c 0,-2.54721 0.90028,-4.72082 2.70085,-6.52139 1.80057,-1.80057 3.97417,-2.70085 6.52139,-2.70085 0.61455,0 1.18545,0.055 1.71241,0.16469 0.52724,0.1097 1.07603,0.2744 1.64693,0.49408 z m 41.9604,12.0546 c 0,-5.09414 -1.80028,-9.44164 -5.40142,-13.0428 -3.64479,-3.60085 -7.99257,-5.40142 -13.0428,-5.40142 -5.09386,0 -9.44164,1.80057 -13.0425,5.40142 -3.60113,3.60113 -5.4017,7.94863 -5.4017,13.0428 0,5.0502 1.80057,9.37587 5.4017,12.9767 3.64479,3.64507 7.99228,5.46746 13.0425,5.46746 2.85449,0 5.57716,-0.64772 8.16831,-1.94315 2.59087,-1.29572 4.74265,-3.08523 6.45534,-5.36882 l -4.80869,-3.09572 c -2.59087,3.07389 -5.86261,4.61083 -9.81496,4.61083 -2.89814,0 -5.53323,-0.92211 -7.90441,-2.76661 -2.37146,-1.88816 -3.84265,-4.23779 -4.41354,-7.04835 l 30.4988,0 c 0.17575,-0.87817 0.26334,-1.82239 0.26334,-2.83238 z m -6.12595,-2.89842 -24.6362,0 c 0.5709,-2.81055 2.04208,-5.1599 4.41354,-7.04835 2.37118,-1.84422 5.00627,-2.76661 7.90441,-2.76661 2.89842,0 5.5114,0.92239 7.83893,2.76661 2.32753,1.80057 3.82053,4.14992 4.47931,7.04835 z"
       class="fil5" />
    <path
       style="fill:#8ed900;fill-rule:nonzero"
       inkscape:connector-curvature="0"
       id="path3109"
       d="m 327.994,898.46018 -4.61112,-4.41354 c -3.82053,3.73266 -8.1462,5.59899 -12.9767,5.59899 -4.8308,0 -9.02466,-1.73452 -12.5816,-5.20384 -3.46932,-3.55691 -5.20384,-7.75077 -5.20384,-12.5816 0,-4.83052 1.73452,-9.02438 5.20384,-12.5816 3.46932,-3.42539 7.66318,-5.13779 12.5816,-5.13779 4.87446,0 9.20012,1.84422 12.9767,5.53323 l 5.13808,-4.87474 c -5.22595,-5.22567 -11.264,-7.83864 -18.1148,-7.83864 -6.80683,0 -12.6694,2.45905 -17.5878,7.37773 -4.87446,4.87446 -7.31197,10.715 -7.31197,17.5218 0,6.80683 2.4154,12.6916 7.24592,17.6539 4.91868,4.83052 10.8031,7.24592 17.6539,7.24592 6.7629,0 12.6255,-2.43723 17.5878,-7.31197 l 0,-0.98787 z m 46.6373,7.17987 -17.2585,-47.4936 -7.11411,0 -17.2587,47.4936 7.50954,0 3.82053,-10.4077 18.9054,0 3.82053,10.4077 7.57531,0 z m -20.8814,-36.4272 6.91653,18.9054 -13.7673,0 6.85077,-18.9054 z m 67.9799,12.6473 c 0,-6.63109 -2.34964,-12.2301 -7.04835,-16.7973 -4.61112,-4.61112 -10.1665,-6.91653 -16.6657,-6.91653 l -17.983,0 0,47.4936 17.983,0 c 6.49927,0 12.0546,-2.32753 16.6657,-6.9823 4.69871,-4.69899 7.04835,-10.298 7.04835,-16.7975 z m -7.11439,0 c 0,4.61112 -1.62482,8.54135 -4.87446,11.7913 -3.2057,3.2057 -7.11411,4.80869 -11.7252,4.80869 l -10.8689,0 0,-33.1996 10.8689,0 c 4.56718,0 8.47559,1.62482 11.7252,4.87446 3.24964,3.24964 4.87446,7.15805 4.87446,11.7252 z"
       class="fil2" />
    <polygon
       transform="translate(0,331.36318)"
       style="fill:#8ed900;fill-rule:evenodd"
       id="polygon3111"
       points="122.539,579.284 122.539,583.017 169.836,583.017 169.836,590.485 122.539,590.485 122.539,594.219 107.604,594.219 107.604,579.284 "
       class="fil3" />
    <text
       style="font-size:14px;font-weight:normal;fill:#4d4d4d;fill-rule:evenodd;font-family:Bitstream Vera Sans"
       id="text3113"
       class="fil6 fnt0"
       y="525.5202"
       x="434.80499">1.0.0b4</text>
    <text
       style="font-size:14px;font-weight:normal;fill:#f3f3f3;fill-rule:evenodd;font-family:Bitstream Vera Sans"
       id="text3115"
       class="fil7 fnt0"
       y="905.51825"
       x="434.80499">1.0.0b4</text>
  </g>
</svg>
