<?xml version="1.0" encoding="UTF-8" standalone="no"?>
<svg
   xmlns:dc="http://purl.org/dc/elements/1.1/"
   xmlns:cc="http://creativecommons.org/ns#"
   xmlns:rdf="http://www.w3.org/1999/02/22-rdf-syntax-ns#"
   xmlns:svg="http://www.w3.org/2000/svg"
   xmlns="http://www.w3.org/2000/svg"
   xmlns:sodipodi="http://sodipodi.sourceforge.net/DTD/sodipodi-0.dtd"
   xmlns:inkscape="http://www.inkscape.org/namespaces/inkscape"
   version="1.1"
   id="svg2"
   viewBox="0 0 256 256"
   height="256"
   width="256"
   inkscape:version="0.91 r13725"
   sodipodi:docname="angle_line_to_line_a.svg"
   inkscape:export-filename="E:\icons\angle_l2l.png"
   inkscape:export-xdpi="8.4375"
   inkscape:export-ydpi="8.4375">
  <sodipodi:namedview
     pagecolor="#ffffff"
     bordercolor="#666666"
     borderopacity="1"
     objecttolerance="10"
     gridtolerance="10"
     guidetolerance="10"
     inkscape:pageopacity="0"
     inkscape:pageshadow="2"
     inkscape:window-width="1920"
     inkscape:window-height="1176"
     id="namedview4295"
     showgrid="true"
     inkscape:zoom="1.8671875"
     inkscape:cx="0.53556485"
     inkscape:cy="127.46444"
     inkscape:window-x="-4"
     inkscape:window-y="-4"
     inkscape:window-maximized="1"
     inkscape:current-layer="svg2"
     inkscape:object-nodes="true">
    <inkscape:grid
       type="xygrid"
       id="grid4297" />
  </sodipodi:namedview>
  <defs
     id="defs4">
    <marker
       style="overflow:visible;"
       id="Arrow2Lend"
       refX="0.0"
       refY="0.0"
       orient="auto">
      <path
         transform="scale(1.1) rotate(180) translate(1,0)"
         d="M 8.7185878,4.0337352 L -2.2072895,0.016013256 L 8.7185884,-4.0017078 C 6.9730900,-1.6296469 6.9831476,1.6157441 8.7185878,4.0337352 z "
         style="fill-rule:evenodd;stroke-width:0.625;stroke-linejoin:round;stroke:#000000;stroke-opacity:1;fill:#000000;fill-opacity:1"
         id="path4196" />
    </marker>
    <marker
       style="overflow:visible"
       id="Arrow2Lstart"
       refX="0.0"
       refY="0.0"
       orient="auto">
      <path
         transform="scale(1.1) translate(1,0)"
         d="M 8.7185878,4.0337352 L -2.2072895,0.016013256 L 8.7185884,-4.0017078 C 6.9730900,-1.6296469 6.9831476,1.6157441 8.7185878,4.0337352 z "
         style="fill-rule:evenodd;stroke-width:0.625;stroke-linejoin:round;stroke:#000000;stroke-opacity:1;fill:#000000;fill-opacity:1"
         id="path4193" />
    </marker>
    <marker
       style="overflow:visible"
       id="Arrow1Mstart"
       refX="0.0"
       refY="0.0"
       orient="auto">
      <path
         transform="scale(0.4) translate(10,0)"
         style="fill-rule:evenodd;stroke:#000000;stroke-width:1pt;stroke-opacity:1;fill:#000000;fill-opacity:1"
         d="M 0.0,0.0 L 5.0,-5.0 L -12.5,0.0 L 5.0,5.0 L 0.0,0.0 z "
         id="path4181" />
    </marker>
  </defs>
  <metadata
     id="metadata7">
    <rdf:RDF>
      <cc:Work
         rdf:about="">
        <dc:format>image/svg+xml</dc:format>
        <dc:type
           rdf:resource="http://purl.org/dc/dcmitype/StillImage" />
        <dc:title />
      </cc:Work>
    </rdf:RDF>
  </metadata>
  <g
     id="g4165">
    <circle
       r="24"
       cy="188.00002"
       cx="60"
       id="path4146"
       style="opacity:0.98000004;fill:#00ff7f;fill-opacity:1;stroke:#000000;stroke-width:8;stroke-linecap:butt;stroke-linejoin:bevel;stroke-miterlimit:4;stroke-dasharray:none;stroke-dashoffset:6;stroke-opacity:1" />
    <path
       sodipodi:nodetypes="cc"
       id="path4163"
       d="m 16,188 224,0"
       style="fill:none;fill-rule:evenodd;stroke:#000000;stroke-width:8;stroke-linecap:butt;stroke-linejoin:miter;stroke-miterlimit:4;stroke-dasharray:none;stroke-dashoffset:8;stroke-opacity:1"
       inkscape:connector-curvature="0" />
    <path
       sodipodi:nodetypes="cc"
       inkscape:connector-curvature="0"
       style="fill:none;fill-rule:evenodd;stroke:#000000;stroke-width:8;stroke-linecap:butt;stroke-linejoin:miter;stroke-miterlimit:4;stroke-dasharray:none;stroke-dashoffset:8;stroke-opacity:1"
       d="M 24,224 192,56"
       id="path5049" />
    <text
       transform="scale(1.0132811,0.98689297)"
       id="text4441"
       y="123.43602"
       x="44.864639"
       style="font-style:normal;font-variant:normal;font-weight:normal;font-stretch:normal;font-size:121.5109024px;line-height:125%;font-family:'Cordia New';-inkscape-font-specification:'Cordia New';letter-spacing:0px;word-spacing:0px;fill:#000000;fill-opacity:1;stroke:none;stroke-width:1px;stroke-linecap:butt;stroke-linejoin:miter;stroke-opacity:1"
       xml:space="preserve"
       sodipodi:linespacing="125%"><tspan
         y="123.43602"
         x="44.864639"
         id="tspan4443">?</tspan></text>
    <g
       id="text5035"
       style="font-style:normal;font-variant:normal;font-weight:normal;font-stretch:normal;font-size:80px;line-height:100%;font-family:Mael;-inkscape-font-specification:'Mael, Normal';text-align:start;letter-spacing:0px;word-spacing:0px;writing-mode:lr-tb;text-anchor:start;fill:#000000;fill-opacity:1;stroke:none;stroke-width:1px;stroke-linecap:butt;stroke-linejoin:miter;stroke-opacity:1"
       transform="scale(1.0132811,0.98689297)">
      <path
         id="path4829"
         style=""
         d="m 162.09168,162.74629 q 5.04,0 8.48,-4 3.12,-3.6 3.68,-8.88 0.24,-2.24 0.24,-3.92 0,-18.08 -18.72,-17.92 -5.44,0.08 -8.4,6.88 -2.24,5.2 -2.24,11.52 0,8.16 6,12.64 4.96,3.68 10.96,3.68 z m 17.28,7.44 q -0.48,-1.92 -1.04,-7.36 -0.16,-1.12 -0.64,-5.92 -4.72,5.84 -11.6,9.52 -7.44,4 -14.48,4 -8.64,0 -13.44,-6.56 -4.32,-5.84 -4.32,-14.72 0,-9.84 6.56,-16.48 4.88,-4.96 15.52,-9.52 3.36,-1.44 7.44,-1.44 8.96,0 14.16,6.4 0.64,-2.32 1.6,-4.16 0.88,0.24 2,0.24 4.8,0 11.84,-2.96 -4.8,3.76 -4.8,19.04 0,2.56 0.16,7.68 0.24,5.12 0.24,7.68 0,5.52 0.96,8.24 1.6,4.56 6.08,6.08 l -16.24,0.24 z" />
    </g>
    <path
       sodipodi:open="true"
       d="M 151.77223,56.935671 A 160,160 0 0 1 217.56924,215.78371"
       sodipodi:end="0.17453293"
       sodipodi:start="5.3232542"
       sodipodi:ry="160"
       sodipodi:rx="160"
       sodipodi:cy="188"
       sodipodi:cx="60"
       sodipodi:type="arc"
       id="path5091"
       style="fill:none;fill-opacity:1;fill-rule:evenodd;stroke:#130000;stroke-width:7.99999857;stroke-linecap:square;stroke-linejoin:miter;stroke-miterlimit:4;stroke-dasharray:none;stroke-dashoffset:8;stroke-opacity:1" />
  </g>
</svg>
