<?xml version="1.0" encoding="UTF-8" standalone="no"?>
<!-- Created with Inkscape (http://www.inkscape.org/) -->

<svg
   xmlns:dc="http://purl.org/dc/elements/1.1/"
   xmlns:cc="http://creativecommons.org/ns#"
   xmlns:rdf="http://www.w3.org/1999/02/22-rdf-syntax-ns#"
   xmlns:svg="http://www.w3.org/2000/svg"
   xmlns="http://www.w3.org/2000/svg"
   xmlns:sodipodi="http://sodipodi.sourceforge.net/DTD/sodipodi-0.dtd"
   xmlns:inkscape="http://www.inkscape.org/namespaces/inkscape"
   id="svg2"
   version="1.1"
   inkscape:version="0.48.2 r9819"
   width="150"
   height="150"
   sodipodi:docname="ellipsefocipoint.png">
  <metadata
     id="metadata8">
    <rdf:RDF>
      <cc:Work
         rdf:about="">
        <dc:format>image/svg+xml</dc:format>
        <dc:type
           rdf:resource="http://purl.org/dc/dcmitype/StillImage" />
        <dc:title></dc:title>
      </cc:Work>
    </rdf:RDF>
  </metadata>
  <defs
     id="defs6" />
  <sodipodi:namedview
     pagecolor="#ffffff"
     bordercolor="#666666"
     borderopacity="1"
     objecttolerance="10"
     gridtolerance="10"
     guidetolerance="10"
     inkscape:pageopacity="0"
     inkscape:pageshadow="2"
     inkscape:window-width="1008"
     inkscape:window-height="596"
     id="namedview4"
     showgrid="false"
     inkscape:object-nodes="true"
     inkscape:zoom="2.2250293"
     inkscape:cx="75"
     inkscape:cy="75"
     inkscape:window-x="15"
     inkscape:window-y="25"
     inkscape:window-maximized="0"
     inkscape:current-layer="svg2" />
  <path
     style="fill:#000000;stroke:#000000;stroke-width:0.44943228;stroke-miterlimit:4;stroke-opacity:1;stroke-dasharray:none"
     d=""
     id="path3868"
     inkscape:connector-curvature="0" />
  <path
     style="fill:#000000;stroke:#000000;stroke-width:0.44943228;stroke-miterlimit:4;stroke-opacity:1;stroke-dasharray:none"
     d=""
     id="path3870"
     inkscape:connector-curvature="0" />
  <path
     style="fill:#000000;stroke:#000000;stroke-width:0.44943228;stroke-miterlimit:4;stroke-opacity:1;stroke-dasharray:none"
     d=""
     id="path3874"
     inkscape:connector-curvature="0" />
  <path
     style="fill:#000000;stroke:#000000;stroke-width:0.44943228;stroke-miterlimit:4;stroke-opacity:1;stroke-dasharray:none"
     d=""
     id="path3876"
     inkscape:connector-curvature="0" />
  <g
     inkscape:groupmode="layer"
     id="layer1"
     inkscape:label="a" />
  <path
     sodipodi:type="arc"
     style="fill:#000000;fill-opacity:1;stroke:#000000;stroke-width:1;stroke-miterlimit:4;stroke-opacity:1;stroke-dasharray:none"
     id="path3887-2-7"
     sodipodi:cx="88.987587"
     sodipodi:cy="125.73066"
     sodipodi:rx="68.250603"
     sodipodi:ry="45.8923"
     d="m 157.23819,125.73066 a 68.250603,45.8923 0 1 1 -136.501206,0 68.250603,45.8923 0 1 1 136.501206,0 z"
     transform="matrix(0.99196706,-0.01626238,0,1.0115402,-12.777314,-40.122336)" />
  <path
     sodipodi:type="arc"
     style="fill:#ffffff;stroke:#000000;stroke-width:1;stroke-miterlimit:4;stroke-opacity:1;stroke-dasharray:none"
     id="path3887-2"
     sodipodi:cx="88.987587"
     sodipodi:cy="125.73066"
     sodipodi:rx="68.250603"
     sodipodi:ry="45.8923"
     d="m 157.23819,125.73066 a 68.250603,45.8923 0 1 1 -136.501206,0 68.250603,45.8923 0 1 1 136.501206,0 z"
     transform="matrix(0.94205088,-0.0151452,0,0.94205088,-7.9892698,-31.500957)" />
  <path
     style="fill:#000000;stroke:#000000;stroke-width:0.70223391px;stroke-linecap:butt;stroke-linejoin:miter;stroke-opacity:1"
     d="m 55.198887,80.732065 49.551003,-45.53107 1.98204,1.809183 -49.881344,45.229537 z"
     id="path3826"
     inkscape:connector-curvature="0" />
  <path
     sodipodi:type="arc"
     style="fill:#000000;stroke:#000000;stroke-width:1;stroke-miterlimit:4;stroke-opacity:1;stroke-dasharray:none"
     id="path3910-53"
     sodipodi:cx="29.887247"
     sodipodi:cy="105.05677"
     sodipodi:rx="7.8650646"
     sodipodi:ry="7.6403489"
     d="m 37.752312,105.05677 a 7.8650646,7.6403489 0 1 1 -15.73013,0 7.8650646,7.6403489 0 1 1 15.73013,0 z"
     transform="matrix(1.44671,0,0,1.3628675,64.917631,-57.312598)" />
  <path
     sodipodi:type="arc"
     style="fill:#000000;stroke:#000000;stroke-width:1;stroke-miterlimit:4;stroke-opacity:1;stroke-dasharray:none"
     id="path3910-53-4"
     sodipodi:cx="29.887247"
     sodipodi:cy="105.05677"
     sodipodi:rx="7.8650646"
     sodipodi:ry="7.6403489"
     d="m 37.752312,105.05677 a 7.8650646,7.6403489 0 1 1 -15.73013,0 7.8650646,7.6403489 0 1 1 15.73013,0 z"
     transform="matrix(1.5037757,0,0,1.3628675,1.6536291,-55.492165)" />
  <path
     style="fill:#000000;stroke:#000000;stroke-width:0.58567727px;stroke-linecap:butt;stroke-linejoin:miter;stroke-opacity:1"
     d="M 107.49957,80.739707 94.30424,38.17108 l 3.15965,0.710265 12.66875,42.45026 z"
     id="path3826-0"
     inkscape:connector-curvature="0"
     inkscape:transform-center-x="15.410691"
     inkscape:transform-center-y="-13.317578" />
  <path
     style="fill:#000000;stroke:#000000;stroke-width:0.58567727px;stroke-linecap:butt;stroke-linejoin:miter;stroke-opacity:1"
     d="m 111.39204,88.382606 -13.19533,-42.568628 3.15965,0.710265 12.66875,42.450261 z"
     id="path3826-0-0"
     inkscape:connector-curvature="0"
     inkscape:transform-center-x="15.410691"
     inkscape:transform-center-y="-13.317578" />
  <path
     sodipodi:type="arc"
     style="fill:#7cfc00;fill-opacity:1;stroke:#000000;stroke-width:1;stroke-miterlimit:4;stroke-opacity:1;stroke-dasharray:none"
     id="path3910-3-9"
     sodipodi:cx="29.887247"
     sodipodi:cy="105.05677"
     sodipodi:rx="7.8650646"
     sodipodi:ry="7.6403489"
     d="m 37.752312,105.05677 a 7.8650646,7.6403489 0 1 1 -15.73013,0 7.8650646,7.6403489 0 1 1 15.73013,0 z"
     transform="matrix(1.2985728,0,0,1.0812803,69.45805,-27.729961)" />
  <path
     style="fill:#000000;stroke:#000000;stroke-width:0.70223391px;stroke-linecap:butt;stroke-linejoin:miter;stroke-opacity:1"
     d="M 46.884128,85.158789 96.43513,39.627719 98.41717,41.436902 48.535827,86.666439 z"
     id="path3826-08"
     inkscape:connector-curvature="0" />
  <path
     sodipodi:type="arc"
     style="fill:#7cfc00;fill-opacity:1;stroke:#000000;stroke-width:1;stroke-miterlimit:4;stroke-opacity:1;stroke-dasharray:none"
     id="path3910-3-9-6"
     sodipodi:cx="29.887247"
     sodipodi:cy="105.05677"
     sodipodi:rx="7.8650646"
     sodipodi:ry="7.6403489"
     d="m 37.752312,105.05677 a 7.8650646,7.6403489 0 1 1 -15.73013,0 7.8650646,7.6403489 0 1 1 15.73013,0 z"
     transform="matrix(1.2985728,0,0,1.0812803,7.907483,-26.066904)" />
  <path
     sodipodi:type="arc"
     style="fill:#000000;stroke:#000000;stroke-width:1;stroke-miterlimit:4;stroke-opacity:1;stroke-dasharray:none"
     id="path3910-53-4-5"
     sodipodi:cx="29.887247"
     sodipodi:cy="105.05677"
     sodipodi:rx="7.8650646"
     sodipodi:ry="7.6403489"
     d="m 37.752312,105.05677 a 7.8650646,7.6403489 0 1 1 -15.73013,0 7.8650646,7.6403489 0 1 1 15.73013,0 z"
     transform="matrix(1.5037757,0,0,1.2038282,55.122303,-84.377451)" />
  <path
     sodipodi:type="arc"
     style="fill:#7cfc00;fill-opacity:1;stroke:#000000;stroke-width:1;stroke-miterlimit:4;stroke-opacity:1;stroke-dasharray:none"
     id="path3910-3-9-6-9"
     sodipodi:cx="29.887247"
     sodipodi:cy="105.05677"
     sodipodi:rx="7.8650646"
     sodipodi:ry="7.6403489"
     d="m 37.752312,105.05677 a 7.8650646,7.6403489 0 1 1 -15.73013,0 7.8650646,7.6403489 0 1 1 15.73013,0 z"
     transform="matrix(1.2985728,0,0,1.0812803,61.277962,-71.773798)" />
</svg>
