<?xml version="1.0" encoding="UTF-8" standalone="no"?>
<!-- Created with Inkscape (http://www.inkscape.org/) -->

<svg
   xmlns:dc="http://purl.org/dc/elements/1.1/"
   xmlns:cc="http://creativecommons.org/ns#"
   xmlns:rdf="http://www.w3.org/1999/02/22-rdf-syntax-ns#"
   xmlns:svg="http://www.w3.org/2000/svg"
   xmlns="http://www.w3.org/2000/svg"
   xmlns:sodipodi="http://sodipodi.sourceforge.net/DTD/sodipodi-0.dtd"
   xmlns:inkscape="http://www.inkscape.org/namespaces/inkscape"
   id="svg2"
   version="1.1"
   inkscape:version="0.48.2 r9819"
   width="150"
   height="150"
   sodipodi:docname="linesorthtan.png">
  <metadata
     id="metadata8">
    <rdf:RDF>
      <cc:Work
         rdf:about="">
        <dc:format>image/svg+xml</dc:format>
        <dc:type
           rdf:resource="http://purl.org/dc/dcmitype/StillImage" />
        <dc:title></dc:title>
      </cc:Work>
    </rdf:RDF>
  </metadata>
  <defs
     id="defs6" />
  <sodipodi:namedview
     pagecolor="#ffffff"
     bordercolor="#666666"
     borderopacity="1"
     objecttolerance="10"
     gridtolerance="10"
     guidetolerance="10"
     inkscape:pageopacity="0"
     inkscape:pageshadow="2"
     inkscape:window-width="1008"
     inkscape:window-height="596"
     id="namedview4"
     showgrid="false"
     inkscape:object-nodes="true"
     inkscape:zoom="2.2250293"
     inkscape:cx="75"
     inkscape:cy="75"
     inkscape:window-x="15"
     inkscape:window-y="25"
     inkscape:window-maximized="0"
     inkscape:current-layer="svg2" />
  <path
     style="fill:#000000;stroke:#000000;stroke-width:1px;stroke-linecap:butt;stroke-linejoin:miter;stroke-opacity:1"
     d="M 27.415369,101.01188 94.83021,33.147608 97.526804,35.844202 29.66253,103.25904 z"
     id="path3826"
     inkscape:connector-curvature="0" />
  <path
     style="fill:#000000;stroke:#000000;stroke-width:1px;stroke-linecap:butt;stroke-linejoin:miter;stroke-opacity:1"
     d="M 74.336942,8.585686 142.20121,76.00053 139.50462,78.69712 72.089783,10.832847 z"
     id="path3826-9"
     inkscape:connector-curvature="0" />
  <path
     style="fill:#000000;stroke:#000000;stroke-width:0.44943228;stroke-miterlimit:4;stroke-opacity:1;stroke-dasharray:none"
     d=""
     id="path3868"
     inkscape:connector-curvature="0" />
  <path
     style="fill:#000000;stroke:#000000;stroke-width:0.44943228;stroke-miterlimit:4;stroke-opacity:1;stroke-dasharray:none"
     d=""
     id="path3870"
     inkscape:connector-curvature="0" />
  <path
     style="fill:#000000;stroke:#000000;stroke-width:0.44943228;stroke-miterlimit:4;stroke-opacity:1;stroke-dasharray:none"
     d=""
     id="path3874"
     inkscape:connector-curvature="0" />
  <path
     style="fill:#000000;stroke:#000000;stroke-width:0.44943228;stroke-miterlimit:4;stroke-opacity:1;stroke-dasharray:none"
     d=""
     id="path3876"
     inkscape:connector-curvature="0" />
  <g
     inkscape:groupmode="layer"
     id="layer1"
     inkscape:label="a" />
  <path
     sodipodi:type="arc"
     style="fill:#000000;stroke:#000000;stroke-width:1;stroke-miterlimit:4;stroke-opacity:1;stroke-dasharray:none"
     id="path3887"
     sodipodi:cx="88.987587"
     sodipodi:cy="125.73066"
     sodipodi:rx="30.561396"
     sodipodi:ry="31.010826"
     d="m 119.54898,125.73066 a 30.561396,31.010826 0 1 1 -61.122789,0 30.561396,31.010826 0 1 1 61.122789,0 z"
     transform="translate(-8,-32)" />
  <path
     sodipodi:type="arc"
     style="fill:#ffffff;stroke:#000000;stroke-width:1;stroke-miterlimit:4;stroke-opacity:1;stroke-dasharray:none"
     id="path3887-2"
     sodipodi:cx="88.987587"
     sodipodi:cy="125.73066"
     sodipodi:rx="30.561396"
     sodipodi:ry="31.010826"
     d="m 119.54898,125.73066 a 30.561396,31.010826 0 1 1 -61.122789,0 30.561396,31.010826 0 1 1 61.122789,0 z"
     transform="matrix(0.94205088,-0.0151452,0,0.94205088,-1.9892698,-23.500957)" />
  <path
     sodipodi:type="arc"
     style="fill:#000000;stroke:#000000;stroke-width:1;stroke-miterlimit:4;stroke-opacity:1;stroke-dasharray:none"
     id="path3910"
     sodipodi:cx="29.887247"
     sodipodi:cy="105.05677"
     sodipodi:rx="7.8650646"
     sodipodi:ry="7.6403489"
     d="m 37.752312,105.05677 a 7.8650646,7.6403489 0 1 1 -15.73013,0 7.8650646,7.6403489 0 1 1 15.73013,0 z"
     transform="matrix(1.3524998,0,0,1.2452204,-9.6139391,-29.784506)" />
  <path
     sodipodi:type="arc"
     style="fill:#00ff00;stroke:#000000;stroke-width:1;stroke-miterlimit:4;stroke-opacity:1;stroke-dasharray:none"
     id="path3910-3"
     sodipodi:cx="29.887247"
     sodipodi:cy="105.05677"
     sodipodi:rx="7.8650646"
     sodipodi:ry="7.6403489"
     d="m 37.752312,105.05677 a 7.8650646,7.6403489 0 1 1 -15.73013,0 7.8650646,7.6403489 0 1 1 15.73013,0 z"
     transform="matrix(1.2985728,0,0,1.0812803,-7.5780709,-12.561491)" />
  <path
     sodipodi:type="arc"
     style="fill:#000000;stroke:#000000;stroke-width:1;stroke-miterlimit:4;stroke-opacity:1;stroke-dasharray:none"
     id="path3910-5"
     sodipodi:cx="29.887247"
     sodipodi:cy="105.05677"
     sodipodi:rx="7.8650646"
     sodipodi:ry="7.6403489"
     d="m 37.752312,105.05677 a 7.8650646,7.6403489 0 1 1 -15.73013,0 7.8650646,7.6403489 0 1 1 15.73013,0 z"
     transform="matrix(1.3524998,0,0,1.2452204,57.217326,-96.885906)" />
  <path
     sodipodi:type="arc"
     style="fill:#00ff00;stroke:#000000;stroke-width:1;stroke-miterlimit:4;stroke-opacity:1;stroke-dasharray:none"
     id="path3910-3-5"
     sodipodi:cx="29.887247"
     sodipodi:cy="105.05677"
     sodipodi:rx="7.8650646"
     sodipodi:ry="7.6403489"
     d="m 37.752312,105.05677 a 7.8650646,7.6403489 0 1 1 -15.73013,0 7.8650646,7.6403489 0 1 1 15.73013,0 z"
     transform="matrix(1.2985728,0,0,1.0812803,59.253194,-79.662886)" />
</svg>
