<svg height="50" viewBox="0 0 50 50" width="50" xmlns="http://www.w3.org/2000/svg"><path d="m23.065638 45.772507c-.03527-.154687-.263858-1.490625-.507975-2.96875-.373985-2.264475-.487239-2.729124-.719507-2.951939-.151611-.145441-.753781-.410122-1.338156-.588178-.584375-.178058-1.649649-.610939-2.367276-.961958-.886414-.43358-1.395999-.615322-1.589279-.566812-.156476.03927-1.284952.773666-2.507724 1.631985-1.415123.993337-2.337756 1.560818-2.538327 1.56124-.230355.0005-.608583-.29418-1.40625-1.09556-.6001292-.602923-1.091144-1.197832-1.091144-1.32202s.707095-1.212668 1.571322-2.418844 1.625854-2.336475 1.692503-2.511775c.101778-.267696.01976-.52534-.512259-1.609176-.348391-.709747-.80309-1.811102-1.010442-2.447455-.207352-.636354-.47697-1.257859-.599151-1.381123-.163575-.165024-1.0025722-.361075-3.1820601-.743562l-2.9599129-.519447v-1.847806c0-1.813922.00516-1.848982.28125-1.911895.1546875-.03525 1.4537743-.258347 2.8868595-.495775 1.4330853-.237429 2.7339145-.515757 2.8907305-.618507.201185-.131822.404148-.557518.689439-1.446032.222374-.692566.683432-1.800781 1.024574-2.4627.413705-.802713.597252-1.295146.551175-1.478731-.038-.151385-.772437-1.282386-1.632093-2.513337-.9683361-1.38657-1.5637585-2.356048-1.5649736-2.54812-.00237-.374913 2.0475906-2.502473 2.4112016-2.502473.126981 0 1.225029.7128863 2.440106 1.584192 1.215077.871305 2.350476 1.637939 2.52311 1.703629.262005.0997.520897.01555 1.566504-.509158.688942-.345728 1.757072-.782426 2.373621-.970441 1.679275-.51209 1.624412-.420113 2.129137-3.5694247.235905-1.4719635.458214-2.8028598.49402-2.9575473.06389-.2760241.09939-.28125 1.910237-.28125h1.845135l.480321 2.78125c.264177 1.5296875.5523 2.9577803.640272 3.17354.144055.353302.282289.431611 1.390913.787946.677029.217612 1.781399.673894 2.454156 1.013961.672758.340067 1.343098.618303 1.489644.618303s1.324554-.759375 2.617792-1.6875c1.29324-.928125 2.452082-1.6875 2.575203-1.6875s.771872.5500795 1.441669 1.222399l1.217812 1.222399-1.750489 2.496351c-1.087576 1.550979-1.750836 2.61214-1.751407 2.802104-.0005.168163.250369.79229.557497 1.386948.307129.594659.735139 1.610195.951133 2.256748.215995.646554.44375 1.272006.506124 1.389895.153985.291037.653223.415105 3.421827.85037 1.30625.205361 2.501563.402447 2.65625.437967.276093.0634.28125.09851.28125 1.915107v1.850523l-2.827774.482917c-1.555275.265603-2.997432.570858-3.204792.678345-.325483.168713-.433846.370937-.792731 1.479366-.22864.706167-.670859 1.777954-.982707 2.381749-.311847.603793-.566732 1.235396-.566411 1.40356.000375.193605.642261 1.195662 1.75 2.731936.962179 1.334401 1.749415 2.460511 1.749415 2.502469 0 .04196-.52137.595486-1.158599 1.230066-.839381.835891-1.244051 1.153547-1.46875 1.152935-.194671-.000531-1.17117-.605256-2.622651-1.624154-1.278295-.897325-2.437017-1.623685-2.590922-1.624154-.153133-.0005-.837324.280043-1.520424.623352-.683101.343307-1.776211.796198-2.429134 1.006423-1.057527.340498-1.206995.425879-1.369076.782054-.100069.219904-.396931 1.651388-.659694 3.181075l-.477751 2.78125h-1.849118c-1.81527 0-1.850292-.0052-1.913243-.28125zm4.061875-12.976775c1.344485-.371034 2.4164-1.014635 3.508113-2.106349 1.630124-1.630122 2.364374-3.396947 2.364374-5.689383 0-2.2412-.746147-3.974644-2.425235-5.634284-1.634649-1.615716-3.307289-2.311959-5.55421-2.311959-2.256791 0-3.983065.712601-5.59532 2.309731-1.695259 1.679357-2.425235 3.39208-2.425235 5.690269 0 2.309274.689363 3.944064 2.372755 5.626879 1.148314 1.147919 2.098661 1.72169 3.529068 2.13067 1.130891.323344 3.022846.316371 4.22569-.01557z" style="fill:#00ff7f;fill-opacity:1;stroke:#000;stroke-opacity:1;stroke-width:2.6;stroke-dasharray:none"/></svg>