999
dxfrw 0.5.10
0
SECTION
2
HEADER
9
$ACADVER
1
AC1021
9
$HANDSEED
5
20000
9
$DWGCODEPAGE
3
ANSI_1252
9
$INSBASE
10
0
20
0
30
0
9
$EXTMIN
10
0
20
0
30
0
9
$EXTMAX
10
0
20
0
30
0
9
$LIMMIN
10
0
20
0
9
$LIMMAX
10
420
20
297
9
$ORTHOMODE
70
0
9
$LTSCALE
40
1
9
$TEXTSTYLE
7
STANDARD
9
$CLAYER
8
0
9
$DIMASZ
40
2.5
9
$DIMLFAC
40
1
9
$DIMSCALE
40
1
9
$DIMEXO
40
0.625
9
$DIMEXE
40
1.25
9
$DIMTXT
40
2.5
9
$DIMTSZ
40
0
9
$DIMAUNIT
70
0
9
$DIMADEC
70
0
9
$DIMLUNIT
70
2
9
$DIMSTYLE
2
STANDARD
9
$DIMGAP
40
0.625
9
$DIMTIH
70
0
9
$LUNITS
70
2
9
$LUPREC
70
4
9
$AUNITS
70
0
9
$AUPREC
70
2
9
$SPLINESEGS
70
8
9
$GRIDMODE
70
1
9
$SNAPSTYLE
70
0
9
$PINSBASE
10
0
20
0
30
0
9
$PLIMMIN
10
0
20
0
9
$PLIMMAX
10
210
20
297
9
$INSUNITS
70
0
9
$PSVPSCALE
40
1
0
ENDSEC
0
SECTION
2
CLASSES
0
ENDSEC
0
SECTION
2
TABLES
0
TABLE
2
VPORT
5
8
330
0
100
AcDbSymbolTable
70
1
0
VPORT
5
31
330
2
100
AcDbSymbolTableRecord
100
AcDbViewportTableRecord
2
*ACTIVE
70
0
10
0
20
0
11
1
21
1
12
153.75
22
71.125
13
0
23
0
14
10
24
10
15
10
25
10
16
0
26
0
36
1
17
0
27
0
37
0
40
154.75
41
2.06785137318
42
50
43
0
44
0
50
0
51
0
71
0
72
100
73
1
74
3
75
0
76
1
77
0
78
0
281
0
65
1
110
0
120
0
130
0
111
1
121
0
131
0
112
0
122
1
132
0
79
0
146
0
348
10020
60
7
61
5
292
1
282
1
141
0
142
0
63
250
421
3358443
0
ENDTAB
0
TABLE
2
LTYPE
5
5
330
0
100
AcDbSymbolTable
70
4
0
LTYPE
5
14
330
5
100
AcDbSymbolTableRecord
100
AcDbLinetypeTableRecord
2
ByBlock
70
0
3

72
65
73
0
40
0
0
LTYPE
5
15
330
5
100
AcDbSymbolTableRecord
100
AcDbLinetypeTableRecord
2
ByLayer
70
0
3

72
65
73
0
40
0
0
LTYPE
5
16
330
5
100
AcDbSymbolTableRecord
100
AcDbLinetypeTableRecord
2
Continuous
70
0
3
Solid line
72
65
73
0
40
0
0
LTYPE
5
32
330
5
100
AcDbSymbolTableRecord
100
AcDbLinetypeTableRecord
2
DOT
70
0
3
Dot . . . . . . . . . . . . . . . . . . . . . .
72
65
73
2
40
6.35
49
0
74
0
49
-6.35
74
0
0
LTYPE
5
33
330
5
100
AcDbSymbolTableRecord
100
AcDbLinetypeTableRecord
2
DOT2
70
0
3
Dot (.5x) .....................................
72
65
73
2
40
3.175
49
0
74
0
49
-3.175
74
0
0
LTYPE
5
34
330
5
100
AcDbSymbolTableRecord
100
AcDbLinetypeTableRecord
2
DOTX2
70
0
3
Dot (2x) .  .  .  .  .  .  .  .  .  .  .  .  .
72
65
73
2
40
12.7
49
0
74
0
49
-12.7
74
0
0
LTYPE
5
35
330
5
100
AcDbSymbolTableRecord
100
AcDbLinetypeTableRecord
2
DASHED
70
0
3
Dot . . . . . . . . . . . . . . . . . . . . . .
72
65
73
2
40
19.05
49
12.7
74
0
49
-6.35
74
0
0
LTYPE
5
36
330
5
100
AcDbSymbolTableRecord
100
AcDbLinetypeTableRecord
2
DASHED2
70
0
3
Dashed (.5x) _ _ _ _ _ _ _ _ _ _ _ _ _ _ _ _ _
72
65
73
2
40
9.525
49
6.35
74
0
49
-3.175
74
0
0
LTYPE
5
37
330
5
100
AcDbSymbolTableRecord
100
AcDbLinetypeTableRecord
2
DASHEDX2
70
0
3
Dashed (2x) ____  ____  ____  ____  ____  ___
72
65
73
2
40
38.1
49
25.4
74
0
49
-12.7
74
0
0
LTYPE
5
38
330
5
100
AcDbSymbolTableRecord
100
AcDbLinetypeTableRecord
2
DASHDOT
70
0
3
Dash dot __ . __ . __ . __ . __ . __ . __ . __
72
65
73
4
40
25.4
49
12.7
74
0
49
-6.35
74
0
49
0
74
0
49
-6.35
74
0
0
LTYPE
5
39
330
5
100
AcDbSymbolTableRecord
100
AcDbLinetypeTableRecord
2
DASHDOT2
70
0
3
Dash dot (.5x) _._._._._._._._._._._._._._._.
72
65
73
4
40
12.7
49
6.35
74
0
49
-3.175
74
0
49
0
74
0
49
-3.175
74
0
0
LTYPE
5
3A
330
5
100
AcDbSymbolTableRecord
100
AcDbLinetypeTableRecord
2
DASHDOTX2
70
0
3
Dash dot (2x) ____  .  ____  .  ____  .  ___
72
65
73
4
40
50.8
49
25.4
74
0
49
-12.7
74
0
49
0
74
0
49
-12.7
74
0
0
LTYPE
5
3B
330
5
100
AcDbSymbolTableRecord
100
AcDbLinetypeTableRecord
2
DIVIDE
70
0
3
Divide ____ . . ____ . . ____ . . ____ . . ____
72
65
73
6
40
31.75
49
12.7
74
0
49
-6.35
74
0
49
0
74
0
49
-6.35
74
0
49
0
74
0
49
-6.35
74
0
0
LTYPE
5
3C
330
5
100
AcDbSymbolTableRecord
100
AcDbLinetypeTableRecord
2
DIVIDE2
70
0
3
Divide (.5x) __..__..__..__..__..__..__..__.._
72
65
73
6
40
15.875
49
6.35
74
0
49
-3.175
74
0
49
0
74
0
49
-3.175
74
0
49
0
74
0
49
-3.175
74
0
0
LTYPE
5
3D
330
5
100
AcDbSymbolTableRecord
100
AcDbLinetypeTableRecord
2
DIVIDEX2
70
0
3
Divide (2x) ________  .  .  ________  .  .  _
72
65
73
6
40
63.5
49
25.4
74
0
49
-12.7
74
0
49
0
74
0
49
-12.7
74
0
49
0
74
0
49
-12.7
74
0
0
LTYPE
5
3E
330
5
100
AcDbSymbolTableRecord
100
AcDbLinetypeTableRecord
2
BORDER
70
0
3
Border __ __ . __ __ . __ __ . __ __ . __ __ .
72
65
73
6
40
44.45
49
12.7
74
0
49
-6.35
74
0
49
12.7
74
0
49
-6.35
74
0
49
0
74
0
49
-6.35
74
0
0
LTYPE
5
3F
330
5
100
AcDbSymbolTableRecord
100
AcDbLinetypeTableRecord
2
BORDER2
70
0
3
Border (.5x) __.__.__.__.__.__.__.__.__.__.__.
72
65
73
6
40
22.225
49
6.35
74
0
49
-3.175
74
0
49
6.35
74
0
49
-3.175
74
0
49
0
74
0
49
-3.175
74
0
0
LTYPE
5
40
330
5
100
AcDbSymbolTableRecord
100
AcDbLinetypeTableRecord
2
BORDERX2
70
0
3
Border (2x) ____  ____  .  ____  ____  .  ___
72
65
73
6
40
88.9
49
25.4
74
0
49
-12.7
74
0
49
25.4
74
0
49
-12.7
74
0
49
0
74
0
49
-12.7
74
0
0
LTYPE
5
41
330
5
100
AcDbSymbolTableRecord
100
AcDbLinetypeTableRecord
2
CENTER
70
0
3
Center ____ _ ____ _ ____ _ ____ _ ____ _ ____
72
65
73
4
40
50.8
49
31.75
74
0
49
-6.35
74
0
49
6.35
74
0
49
-6.35
74
0
0
LTYPE
5
42
330
5
100
AcDbSymbolTableRecord
100
AcDbLinetypeTableRecord
2
CENTER2
70
0
3
Center (.5x) ___ _ ___ _ ___ _ ___ _ ___ _ ___
72
65
73
4
40
28.575
49
19.05
74
0
49
-3.175
74
0
49
3.175
74
0
49
-3.175
74
0
0
LTYPE
5
43
330
5
100
AcDbSymbolTableRecord
100
AcDbLinetypeTableRecord
2
CENTERX2
70
0
3
Center (2x) ________  __  ________  __  _____
72
65
73
4
40
101.6
49
63.5
74
0
49
-12.7
74
0
49
12.7
74
0
49
-12.7
74
0
0
ENDTAB
0
TABLE
2
LAYER
5
2
330
0
100
AcDbSymbolTable
70
1
0
LAYER
5
10
330
2
100
AcDbSymbolTableRecord
100
AcDbLayerTableRecord
2
0
70
0
62
7
6
CONTINUOUS
370
0
390
F
0
ENDTAB
0
TABLE
2
STYLE
5
3
330
0
100
AcDbSymbolTable
70
3
0
STYLE
5
44
330
2
100
AcDbSymbolTableRecord
100
AcDbTextStyleTableRecord
2
Standard
70
0
40
0
41
1
50
0
71
0
42
1
3
txt
4

0
ENDTAB
0
TABLE
2
VIEW
5
6
330
0
100
AcDbSymbolTable
70
0
0
ENDTAB
0
TABLE
2
UCS
5
7
330
0
100
AcDbSymbolTable
70
0
0
ENDTAB
0
TABLE
2
APPID
5
9
330
0
100
AcDbSymbolTable
70
1
0
APPID
5
12
330
9
100
AcDbSymbolTableRecord
100
AcDbRegAppTableRecord
2
ACAD
70
0
0
ENDTAB
0
TABLE
2
DIMSTYLE
5
A
330
0
100
AcDbSymbolTable
70
1
100
AcDbDimStyleTable
71
1
0
DIMSTYLE
105
45
330
A
100
AcDbSymbolTableRecord
100
AcDbDimStyleTableRecord
2
Standard
70
0
40
1
41
2.5
42
0.625
43
0.38
44
1.25
45
0
46
0
47
0
48
0
140
2.5
141
0.09
142
0
143
25.4
144
1
145
0
146
1
147
0.625
148
0
71
0
72
0
73
0
74
1
75
0
76
0
77
0
78
0
79
0
170
0
171
2
172
0
173
0
174
0
175
0
176
0
177
0
178
0
179
0
271
4
272
4
273
2
274
2
275
0
276
0
277
2
278
46
279
0
280
0
281
0
282
0
283
1
284
0
285
0
286
0
288
0
289
3
340
Standard
341

371
-2
372
-2
0
ENDTAB
0
TABLE
2
BLOCK_RECORD
5
1
330
0
100
AcDbSymbolTable
70
2
0
BLOCK_RECORD
5
1F
330
1
100
AcDbSymbolTableRecord
100
AcDbBlockTableRecord
2
*Model_Space
70
0
280
1
281
0
0
BLOCK_RECORD
5
1E
330
1
100
AcDbSymbolTableRecord
100
AcDbBlockTableRecord
2
*Paper_Space
70
0
280
1
281
0
0
ENDTAB
0
ENDSEC
0
SECTION
2
BLOCKS
0
BLOCK
5
20
330
1F
100
AcDbEntity
8
0
100
AcDbBlockBegin
2
*Model_Space
70
0
10
0
20
0
30
0
3
*Model_Space
1

0
ENDBLK
5
21
330
1F
100
AcDbEntity
8
0
100
AcDbBlockEnd
0
BLOCK
5
1C
330
1B
100
AcDbEntity
8
0
100
AcDbBlockBegin
2
*Paper_Space
70
0
10
0
20
0
30
0
3
*Paper_Space
1

0
ENDBLK
5
1D
330
1F
100
AcDbEntity
8
0
100
AcDbBlockEnd
0
ENDSEC
0
SECTION
2
ENTITIES
0
HATCH
5
46
100
AcDbEntity
8
0
6
ByLayer
62
256
370
-1
100
AcDbHatch
10
0
20
0
30
0
210
0
220
0
230
1
2
SOLID
70
1
71
0
91
1
92
0
93
24
72
1
10
7.7491163953
20
0.886182481
11
7.0833556799
21
0.886182481
72
1
10
7.0833556799
20
0.886182481
11
7.050402931
21
0.90984775
72
1
10
7.050402931
20
0.90984775
11
7.0492492775
21
0.966206107
72
1
10
7.0492492775
20
0.966206107
11
7.066194317
21
1.00170401
72
1
10
7.066194317
20
1.00170401
11
7.9960817069
21
2.232559884
72
1
10
7.9960817069
20
2.232559884
11
8.0343702884
21
2.290320649
72
1
10
8.0343702884
20
2.290320649
11
8.0645109054
21
2.342208921
72
1
10
8.0645109054
20
2.342208921
11
8.1059722278
21
2.451770221
72
1
10
8.1059722278
20
2.451770221
11
8.0788601364
21
2.705076054
72
1
10
8.0788601364
20
2.705076054
11
7.899530838
21
2.810254919
72
1
10
7.899530838
20
2.810254919
11
7.5824779202
21
2.55651092
72
1
10
7.5824779202
20
2.55651092
11
7.5542842124
21
2.520662416
72
1
10
7.5542842124
20
2.520662416
11
7.5195288403
21
2.50725216
72
1
10
7.5195288403
20
2.50725216
11
7.4797259256
21
2.579387335
72
1
10
7.4797259256
20
2.579387335
11
7.489748762
21
2.605857331
72
1
10
7.489748762
20
2.605857331
11
7.7046266178
21
2.875202932
72
1
10
7.7046266178
20
2.875202932
11
7.9291667008
21
2.956102976
72
1
10
7.9291667008
20
2.956102976
11
8.1772135582
21
2.811131424
72
1
10
8.1772135582
20
2.811131424
11
8.2155743178
21
2.447387786
72
1
10
8.2155743178
20
2.447387786
11
8.0637898279
21
2.145699698
72
1
10
8.0637898279
20
2.145699698
11
7.2252616193
21
1.032030538
72
1
10
7.2252616193
20
1.032030538
11
7.7863955387
21
1.032030538
72
1
10
7.7863955387
20
1.032030538
11
7.8234583589
21
0.95910651
72
1
10
7.8234583589
20
0.95910651
11
7.7491163953
21
0.886182481
97
0
75
0
76
1
98
0
0
HATCH
5
47
100
AcDbEntity
8
0
6
ByLayer
62
256
370
-1
100
AcDbHatch
10
0
20
0
30
0
210
0
220
0
230
1
2
SOLID
70
1
71
0
91
1
92
0
93
13
72
1
10
2.7614672535
20
5.959018945
11
2.7315430302
21
5.902572937
72
1
10
2.7315430302
20
5.902572937
11
2.6871253604
21
5.88478016
72
1
10
2.6871253604
20
5.88478016
11
2.6528746721
21
5.902572937
72
1
10
2.6528746721
20
5.902572937
11
2.6507114396
21
5.958843644
72
1
10
2.6507114396
20
5.958843644
11
3.0974842984
21
7.705426656
72
1
10
3.0974842984
20
7.705426656
11
2.7783402558
21
7.387435848
72
1
10
2.7783402558
20
7.387435848
11
2.7348599163
21
7.365260636
72
1
10
2.7348599163
20
7.365260636
11
2.6977249884
21
7.441690595
72
1
10
2.6977249884
20
7.441690595
11
2.7274329589
21
7.492614713
72
1
10
2.7274329589
20
7.492614713
11
3.1743499628
21
7.942166818
72
1
10
3.1743499628
20
7.942166818
11
3.2175418713
21
7.963114923
72
1
10
3.2175418713
20
7.963114923
11
3.255469914
21
7.890278545
72
1
10
3.255469914
20
7.890278545
11
2.7614672535
21
5.959018945
97
0
75
0
76
1
98
0
0
LINE
5
48
100
AcDbEntity
8
0
6
CONTINUOUS
62
7
370
18
100
AcDbLine
10
12
20
6
11
15.5
21
6
0
LINE
5
49
100
AcDbEntity
8
0
6
CONTINUOUS
62
7
370
18
100
AcDbLine
10
0
20
0
11
12
21
12
0
LINE
5
4A
100
AcDbEntity
8
0
6
CONTINUOUS
62
7
370
18
100
AcDbLine
10
-3.5
20
6
11
0
21
6
0
LINE
5
4B
100
AcDbEntity
8
0
6
CONTINUOUS
62
7
370
18
100
AcDbLine
10
3.5
20
1.7
11
6.444486
21
0
0
LINE
5
4C
100
AcDbEntity
8
0
6
CONTINUOUS
62
7
370
18
100
AcDbLine
10
3.5
20
-1.7
11
6.444486
21
0
0
LINE
5
4D
100
AcDbEntity
8
0
6
CONTINUOUS
62
7
370
18
100
AcDbLine
10
12
20
0
11
0
21
0
0
LINE
5
4E
100
AcDbEntity
8
0
6
CONTINUOUS
62
7
370
18
100
AcDbLine
10
0
20
0
11
0
21
12
0
LINE
5
4F
100
AcDbEntity
8
0
6
CONTINUOUS
62
7
370
18
100
AcDbLine
10
0
20
12
11
12
21
12
0
LINE
5
50
100
AcDbEntity
8
0
6
CONTINUOUS
62
7
370
18
100
AcDbLine
10
12
20
12
11
12
21
0
0
LWPOLYLINE
5
51
100
AcDbEntity
8
0
6
CONTINUOUS
62
7
370
-1
100
AcDbPolyline
90
13
70
1
43
0
10
2.7614672535
20
5.959018945
10
2.7315430302
20
5.902572937
10
2.6871253604
20
5.88478016
10
2.6528746721
20
5.902572937
10
2.6507114396
20
5.958843644
10
3.0974842984
20
7.705426656
10
2.7783402558
20
7.387435848
10
2.7348599163
20
7.365260636
10
2.6977249884
20
7.441690595
10
2.7274329589
20
7.492614713
10
3.1743499628
20
7.942166818
10
3.2175418713
20
7.963114923
10
3.255469914
20
7.890278545
0
LWPOLYLINE
5
52
100
AcDbEntity
8
0
6
CONTINUOUS
62
7
370
-1
100
AcDbPolyline
90
24
70
1
43
0
10
7.7491163953
20
0.886182481
10
7.0833556799
20
0.886182481
10
7.050402931
20
0.90984775
10
7.0492492775
20
0.966206107
10
7.066194317
20
1.00170401
10
7.9960817069
20
2.232559884
10
8.0343702884
20
2.290320649
10
8.0645109054
20
2.342208921
10
8.1059722278
20
2.451770221
10
8.0788601364
20
2.705076054
10
7.899530838
20
2.810254919
10
7.5824779202
20
2.55651092
10
7.5542842124
20
2.520662416
10
7.5195288403
20
2.50725216
10
7.4797259256
20
2.579387335
10
7.489748762
20
2.605857331
10
7.7046266178
20
2.875202932
10
7.9291667008
20
2.956102976
10
8.1772135582
20
2.811131424
10
8.2155743178
20
2.447387786
10
8.0637898279
20
2.145699698
10
7.2252616193
20
1.032030538
10
7.7863955387
20
1.032030538
10
7.8234583589
20
0.95910651
0
ENDSEC
0
SECTION
2
OBJECTS
0
DICTIONARY
5
C
330
0
100
AcDbDictionary
281
1
3
ACAD_GROUP
350
D
0
DICTIONARY
5
D
330
C
100
AcDbDictionary
281
1
0
ENDSEC
0
EOF
