999
dxfrw 0.5.10
0
SECTION
2
HEADER
9
$ACADVER
1
AC1021
9
$HANDSEED
5
20000
9
$DWGCODEPAGE
3
ANSI_1252
9
$INSBASE
10
0
20
0
30
0
9
$EXTMIN
10
0
20
0
30
0
9
$EXTMAX
10
0
20
0
30
0
9
$LIMMIN
10
0
20
0
9
$LIMMAX
10
420
20
297
9
$ORTHOMODE
70
0
9
$LTSCALE
40
1
9
$TEXTSTYLE
7
STANDARD
9
$CLAYER
8
0
9
$DIMASZ
40
2.5
9
$DIMLFAC
40
1
9
$DIMSCALE
40
1
9
$DIMEXO
40
0.625
9
$DIMEXE
40
1.25
9
$DIMTXT
40
2.5
9
$DIMTSZ
40
0
9
$DIMAUNIT
70
0
9
$DIMADEC
70
0
9
$DIMLUNIT
70
2
9
$DIMSTYLE
2
STANDARD
9
$DIMGAP
40
0.625
9
$DIMTIH
70
0
9
$LUNITS
70
2
9
$LUPREC
70
4
9
$AUNITS
70
0
9
$AUPREC
70
2
9
$SPLINESEGS
70
8
9
$GRIDMODE
70
1
9
$SNAPSTYLE
70
0
9
$PINSBASE
10
0
20
0
30
0
9
$PLIMMIN
10
0
20
0
9
$PLIMMAX
10
210
20
297
9
$INSUNITS
70
0
9
$PSVPSCALE
40
1
0
ENDSEC
0
SECTION
2
CLASSES
0
ENDSEC
0
SECTION
2
TABLES
0
TABLE
2
VPORT
5
8
330
0
100
AcDbSymbolTable
70
1
0
VPORT
5
31
330
2
100
AcDbSymbolTableRecord
100
AcDbViewportTableRecord
2
*ACTIVE
70
0
10
0
20
0
11
1
21
1
12
153.75
22
71.125
13
0
23
0
14
10
24
10
15
10
25
10
16
0
26
0
36
1
17
0
27
0
37
0
40
154.75
41
2.06785137318
42
50
43
0
44
0
50
0
51
0
71
0
72
100
73
1
74
3
75
0
76
1
77
0
78
0
281
0
65
1
110
0
120
0
130
0
111
1
121
0
131
0
112
0
122
1
132
0
79
0
146
0
348
10020
60
7
61
5
292
1
282
1
141
0
142
0
63
250
421
3358443
0
ENDTAB
0
TABLE
2
LTYPE
5
5
330
0
100
AcDbSymbolTable
70
4
0
LTYPE
5
14
330
5
100
AcDbSymbolTableRecord
100
AcDbLinetypeTableRecord
2
ByBlock
70
0
3

72
65
73
0
40
0
0
LTYPE
5
15
330
5
100
AcDbSymbolTableRecord
100
AcDbLinetypeTableRecord
2
ByLayer
70
0
3

72
65
73
0
40
0
0
LTYPE
5
16
330
5
100
AcDbSymbolTableRecord
100
AcDbLinetypeTableRecord
2
Continuous
70
0
3
Solid line
72
65
73
0
40
0
0
LTYPE
5
32
330
5
100
AcDbSymbolTableRecord
100
AcDbLinetypeTableRecord
2
DOT
70
0
3
Dot . . . . . . . . . . . . . . . . . . . . . .
72
65
73
2
40
6.35
49
0
74
0
49
-6.35
74
0
0
LTYPE
5
33
330
5
100
AcDbSymbolTableRecord
100
AcDbLinetypeTableRecord
2
DOT2
70
0
3
Dot (.5x) .....................................
72
65
73
2
40
3.175
49
0
74
0
49
-3.175
74
0
0
LTYPE
5
34
330
5
100
AcDbSymbolTableRecord
100
AcDbLinetypeTableRecord
2
DOTX2
70
0
3
Dot (2x) .  .  .  .  .  .  .  .  .  .  .  .  .
72
65
73
2
40
12.7
49
0
74
0
49
-12.7
74
0
0
LTYPE
5
35
330
5
100
AcDbSymbolTableRecord
100
AcDbLinetypeTableRecord
2
DASHED
70
0
3
Dot . . . . . . . . . . . . . . . . . . . . . .
72
65
73
2
40
19.05
49
12.7
74
0
49
-6.35
74
0
0
LTYPE
5
36
330
5
100
AcDbSymbolTableRecord
100
AcDbLinetypeTableRecord
2
DASHED2
70
0
3
Dashed (.5x) _ _ _ _ _ _ _ _ _ _ _ _ _ _ _ _ _
72
65
73
2
40
9.525
49
6.35
74
0
49
-3.175
74
0
0
LTYPE
5
37
330
5
100
AcDbSymbolTableRecord
100
AcDbLinetypeTableRecord
2
DASHEDX2
70
0
3
Dashed (2x) ____  ____  ____  ____  ____  ___
72
65
73
2
40
38.1
49
25.4
74
0
49
-12.7
74
0
0
LTYPE
5
38
330
5
100
AcDbSymbolTableRecord
100
AcDbLinetypeTableRecord
2
DASHDOT
70
0
3
Dash dot __ . __ . __ . __ . __ . __ . __ . __
72
65
73
4
40
25.4
49
12.7
74
0
49
-6.35
74
0
49
0
74
0
49
-6.35
74
0
0
LTYPE
5
39
330
5
100
AcDbSymbolTableRecord
100
AcDbLinetypeTableRecord
2
DASHDOT2
70
0
3
Dash dot (.5x) _._._._._._._._._._._._._._._.
72
65
73
4
40
12.7
49
6.35
74
0
49
-3.175
74
0
49
0
74
0
49
-3.175
74
0
0
LTYPE
5
3A
330
5
100
AcDbSymbolTableRecord
100
AcDbLinetypeTableRecord
2
DASHDOTX2
70
0
3
Dash dot (2x) ____  .  ____  .  ____  .  ___
72
65
73
4
40
50.8
49
25.4
74
0
49
-12.7
74
0
49
0
74
0
49
-12.7
74
0
0
LTYPE
5
3B
330
5
100
AcDbSymbolTableRecord
100
AcDbLinetypeTableRecord
2
DIVIDE
70
0
3
Divide ____ . . ____ . . ____ . . ____ . . ____
72
65
73
6
40
31.75
49
12.7
74
0
49
-6.35
74
0
49
0
74
0
49
-6.35
74
0
49
0
74
0
49
-6.35
74
0
0
LTYPE
5
3C
330
5
100
AcDbSymbolTableRecord
100
AcDbLinetypeTableRecord
2
DIVIDE2
70
0
3
Divide (.5x) __..__..__..__..__..__..__..__.._
72
65
73
6
40
15.875
49
6.35
74
0
49
-3.175
74
0
49
0
74
0
49
-3.175
74
0
49
0
74
0
49
-3.175
74
0
0
LTYPE
5
3D
330
5
100
AcDbSymbolTableRecord
100
AcDbLinetypeTableRecord
2
DIVIDEX2
70
0
3
Divide (2x) ________  .  .  ________  .  .  _
72
65
73
6
40
63.5
49
25.4
74
0
49
-12.7
74
0
49
0
74
0
49
-12.7
74
0
49
0
74
0
49
-12.7
74
0
0
LTYPE
5
3E
330
5
100
AcDbSymbolTableRecord
100
AcDbLinetypeTableRecord
2
BORDER
70
0
3
Border __ __ . __ __ . __ __ . __ __ . __ __ .
72
65
73
6
40
44.45
49
12.7
74
0
49
-6.35
74
0
49
12.7
74
0
49
-6.35
74
0
49
0
74
0
49
-6.35
74
0
0
LTYPE
5
3F
330
5
100
AcDbSymbolTableRecord
100
AcDbLinetypeTableRecord
2
BORDER2
70
0
3
Border (.5x) __.__.__.__.__.__.__.__.__.__.__.
72
65
73
6
40
22.225
49
6.35
74
0
49
-3.175
74
0
49
6.35
74
0
49
-3.175
74
0
49
0
74
0
49
-3.175
74
0
0
LTYPE
5
40
330
5
100
AcDbSymbolTableRecord
100
AcDbLinetypeTableRecord
2
BORDERX2
70
0
3
Border (2x) ____  ____  .  ____  ____  .  ___
72
65
73
6
40
88.9
49
25.4
74
0
49
-12.7
74
0
49
25.4
74
0
49
-12.7
74
0
49
0
74
0
49
-12.7
74
0
0
LTYPE
5
41
330
5
100
AcDbSymbolTableRecord
100
AcDbLinetypeTableRecord
2
CENTER
70
0
3
Center ____ _ ____ _ ____ _ ____ _ ____ _ ____
72
65
73
4
40
50.8
49
31.75
74
0
49
-6.35
74
0
49
6.35
74
0
49
-6.35
74
0
0
LTYPE
5
42
330
5
100
AcDbSymbolTableRecord
100
AcDbLinetypeTableRecord
2
CENTER2
70
0
3
Center (.5x) ___ _ ___ _ ___ _ ___ _ ___ _ ___
72
65
73
4
40
28.575
49
19.05
74
0
49
-3.175
74
0
49
3.175
74
0
49
-3.175
74
0
0
LTYPE
5
43
330
5
100
AcDbSymbolTableRecord
100
AcDbLinetypeTableRecord
2
CENTERX2
70
0
3
Center (2x) ________  __  ________  __  _____
72
65
73
4
40
101.6
49
63.5
74
0
49
-12.7
74
0
49
12.7
74
0
49
-12.7
74
0
0
ENDTAB
0
TABLE
2
LAYER
5
2
330
0
100
AcDbSymbolTable
70
1
0
LAYER
5
10
330
2
100
AcDbSymbolTableRecord
100
AcDbLayerTableRecord
2
0
70
0
62
7
6
CONTINUOUS
370
0
390
F
0
ENDTAB
0
TABLE
2
STYLE
5
3
330
0
100
AcDbSymbolTable
70
3
0
STYLE
5
44
330
2
100
AcDbSymbolTableRecord
100
AcDbTextStyleTableRecord
2
Standard
70
0
40
0
41
1
50
0
71
0
42
1
3
txt
4

0
ENDTAB
0
TABLE
2
VIEW
5
6
330
0
100
AcDbSymbolTable
70
0
0
ENDTAB
0
TABLE
2
UCS
5
7
330
0
100
AcDbSymbolTable
70
0
0
ENDTAB
0
TABLE
2
APPID
5
9
330
0
100
AcDbSymbolTable
70
1
0
APPID
5
12
330
9
100
AcDbSymbolTableRecord
100
AcDbRegAppTableRecord
2
ACAD
70
0
0
ENDTAB
0
TABLE
2
DIMSTYLE
5
A
330
0
100
AcDbSymbolTable
70
1
100
AcDbDimStyleTable
71
1
0
DIMSTYLE
105
45
330
A
100
AcDbSymbolTableRecord
100
AcDbDimStyleTableRecord
2
Standard
70
0
40
1
41
2.5
42
0.625
43
0.38
44
1.25
45
0
46
0
47
0
48
0
140
2.5
141
0.09
142
0
143
25.4
144
1
145
0
146
1
147
0.625
148
0
71
0
72
0
73
0
74
1
75
0
76
0
77
0
78
0
79
0
170
0
171
2
172
0
173
0
174
0
175
0
176
0
177
0
178
0
179
0
271
4
272
4
273
2
274
2
275
0
276
0
277
2
278
46
279
0
280
0
281
0
282
0
283
1
284
0
285
0
286
0
288
0
289
3
340
Standard
341

371
-2
372
-2
0
ENDTAB
0
TABLE
2
BLOCK_RECORD
5
1
330
0
100
AcDbSymbolTable
70
2
0
BLOCK_RECORD
5
1F
330
1
100
AcDbSymbolTableRecord
100
AcDbBlockTableRecord
2
*Model_Space
70
0
280
1
281
0
0
BLOCK_RECORD
5
1E
330
1
100
AcDbSymbolTableRecord
100
AcDbBlockTableRecord
2
*Paper_Space
70
0
280
1
281
0
0
ENDTAB
0
ENDSEC
0
SECTION
2
BLOCKS
0
BLOCK
5
20
330
1F
100
AcDbEntity
8
0
100
AcDbBlockBegin
2
*Model_Space
70
0
10
0
20
0
30
0
3
*Model_Space
1

0
ENDBLK
5
21
330
1F
100
AcDbEntity
8
0
100
AcDbBlockEnd
0
BLOCK
5
1C
330
1B
100
AcDbEntity
8
0
100
AcDbBlockBegin
2
*Paper_Space
70
0
10
0
20
0
30
0
3
*Paper_Space
1

0
ENDBLK
5
1D
330
1F
100
AcDbEntity
8
0
100
AcDbBlockEnd
0
ENDSEC
0
SECTION
2
ENTITIES
0
HATCH
5
46
100
AcDbEntity
8
0
6
ByLayer
62
256
370
-1
100
AcDbHatch
10
0
20
0
30
0
210
0
220
0
230
1
2
SOLID
70
1
71
0
91
1
92
0
93
83
72
1
10
2.056166509
20
8.91631123
11
2.3888104
21
8.91631123
72
1
10
2.3888104
20
8.91631123
11
2.460091306
21
8.7828849865
72
1
10
2.460091306
20
8.7828849865
11
2.310871546
21
8.6494587429
72
1
10
2.310871546
20
8.6494587429
11
1.978227528
21
8.6494587429
72
1
10
1.978227528
20
8.6494587429
11
1.337874984
21
6.4599877333
72
1
10
1.337874984
20
6.4599877333
11
1.277690953
21
6.3621517103
72
1
10
1.277690953
20
6.3621517103
11
1.187480247
21
6.33117787
72
1
10
1.187480247
20
6.33117787
11
1.11750487
21
6.3621517103
72
1
10
1.11750487
20
6.3621517103
11
1.112282878
21
6.4599877333
72
1
10
1.112282878
20
6.4599877333
11
1.752635423
21
8.6494587429
72
1
10
1.752635423
20
8.6494587429
11
1.646236403
21
8.6494587429
72
1
10
1.646236403
20
8.6494587429
11
1.575086176
21
8.6868360947
72
1
10
1.575086176
20
8.6868360947
11
1.574433412
21
8.7828849865
72
1
10
1.574433412
20
8.7828849865
11
1.724175383
21
8.91631123
72
1
10
1.724175383
20
8.91631123
11
1.830574404
21
8.91631123
72
1
10
1.830574404
20
8.91631123
11
1.983319094
21
9.4382521714
72
1
10
1.983319094
20
9.4382521714
11
2.580720346
21
9.9551298407
72
1
10
2.580720346
20
9.9551298407
11
2.691819274
21
9.9551298407
72
1
10
2.691819274
20
9.9551298407
11
2.763883371
21
9.8217035971
72
1
10
2.763883371
20
9.8217035971
11
2.614663611
21
9.6882773535
72
1
10
2.614663611
20
9.6882773535
11
2.504478554
21
9.6882773535
72
1
10
2.504478554
20
9.6882773535
11
2.207475117
21
9.4334868757
72
1
10
2.207475117
20
9.4334868757
11
2.056166509
21
8.91631123
72
1
10
2.373638254
20
5.8156029448
11
2.34371403
21
5.7591569368
72
1
10
2.34371403
20
5.7591569368
11
2.29929636
21
5.7413641603
72
1
10
2.29929636
20
5.7413641603
11
2.265045672
21
5.7591569368
72
1
10
2.265045672
20
5.7591569368
11
2.26288244
21
5.8154276439
72
1
10
2.26288244
20
5.8154276439
11
2.709655298
21
7.5620106556
72
1
10
2.709655298
20
7.5620106556
11
2.390511256
21
7.2440198475
72
1
10
2.390511256
20
7.2440198475
11
2.347030916
21
7.2218446362
72
1
10
2.347030916
20
7.2218446362
11
2.309895988
21
7.2982745953
72
1
10
2.309895988
20
7.2982745953
11
2.339603959
21
7.349198713
72
1
10
2.339603959
20
7.349198713
11
2.786520963
21
7.7987508176
72
1
10
2.786520963
20
7.7987508176
11
2.829712871
21
7.8196989232
72
1
10
2.829712871
20
7.8196989232
11
2.867640914
21
7.7468625453
72
1
10
2.867640914
20
7.7468625453
11
2.373638254
21
5.8156029448
72
1
10
8.356166509
20
4.00145323
11
8.6888104
21
4.00145323
72
1
10
8.6888104
20
4.00145323
11
8.760091306
21
3.8680269865
72
1
10
8.760091306
20
3.8680269865
11
8.610871546
21
3.7346007429
72
1
10
8.610871546
20
3.7346007429
11
8.278227528
21
3.7346007429
72
1
10
8.278227528
20
3.7346007429
11
7.637874984
21
1.5451297333
72
1
10
7.637874984
20
1.5451297333
11
7.577690953
21
1.4472937103
72
1
10
7.577690953
20
1.4472937103
11
7.487480247
21
1.41631987
72
1
10
7.487480247
20
1.41631987
11
7.41750487
21
1.4472937103
72
1
10
7.41750487
20
1.4472937103
11
7.412282878
21
1.5451297333
72
1
10
7.412282878
20
1.5451297333
11
8.052635423
21
3.7346007429
72
1
10
8.052635423
20
3.7346007429
11
7.946236403
21
3.7346007429
72
1
10
7.946236403
20
3.7346007429
11
7.875086176
21
3.7719780947
72
1
10
7.875086176
20
3.7719780947
11
7.874433412
21
3.8680269865
72
1
10
7.874433412
20
3.8680269865
11
8.024175383
21
4.00145323
72
1
10
8.024175383
20
4.00145323
11
8.130574404
21
4.00145323
72
1
10
8.130574404
20
4.00145323
11
8.283319094
21
4.5233941714
72
1
10
8.283319094
20
4.5233941714
11
8.880720346
21
5.0402718407
72
1
10
8.880720346
20
5.0402718407
11
8.991819274
21
5.0402718407
72
1
10
8.991819274
20
5.0402718407
11
9.063883371
21
4.9068455971
72
1
10
9.063883371
20
4.9068455971
11
8.914663611
21
4.7734193535
72
1
10
8.914663611
20
4.7734193535
11
8.804478554
21
4.7734193535
72
1
10
8.804478554
20
4.7734193535
11
8.507475117
21
4.5186288757
72
1
10
8.507475117
20
4.5186288757
11
8.356166509
21
4.00145323
72
1
10
9.133460395
20
0.8788044813
11
8.46769968
21
0.8788044813
72
1
10
8.46769968
20
0.8788044813
11
8.434746931
21
0.9024697496
72
1
10
8.434746931
20
0.9024697496
11
8.433593277
21
0.9588281072
72
1
10
8.433593277
20
0.9588281072
11
8.450538317
21
0.9943260096
72
1
10
8.450538317
20
0.9943260096
11
9.380425707
21
2.2251818844
72
1
10
9.380425707
20
2.2251818844
11
9.418714288
21
2.2829426485
72
1
10
9.418714288
20
2.2829426485
11
9.448854905
21
2.3348309208
72
1
10
9.448854905
20
2.3348309208
11
9.490316228
21
2.4443922212
72
1
10
9.490316228
20
2.4443922212
11
9.463204136
21
2.6976980539
72
1
10
9.463204136
20
2.6976980539
11
9.283874838
21
2.8028769195
72
1
10
9.283874838
20
2.8028769195
11
8.96682192
21
2.5491329203
72
1
10
8.96682192
20
2.5491329203
11
8.938628212
21
2.5132844162
72
1
10
8.938628212
20
2.5132844162
11
8.90387284
21
2.4998741603
72
1
10
8.90387284
20
2.4998741603
11
8.864069926
21
2.5720093349
72
1
10
8.864069926
20
2.5720093349
11
8.874092762
21
2.5984793307
72
1
10
8.874092762
20
2.5984793307
11
9.088970618
21
2.8678249316
72
1
10
9.088970618
20
2.8678249316
11
9.313510701
21
2.948724976
72
1
10
9.313510701
20
2.948724976
11
9.561557558
21
2.8037534236
72
1
10
9.561557558
20
2.8037534236
11
9.599918318
21
2.4400097863
72
1
10
9.599918318
20
2.4400097863
11
9.448133828
21
2.1383216977
72
1
10
9.448133828
20
2.1383216977
11
8.609605619
21
1.0246525378
72
1
10
8.609605619
20
1.0246525378
11
9.170739539
21
1.0246525378
72
1
10
9.170739539
20
1.0246525378
11
9.207802359
21
0.9517285096
72
1
10
9.207802359
20
0.9517285096
11
9.133460395
21
0.8788044813
97
0
75
0
76
1
98
0
0
LINE
5
47
100
AcDbEntity
8
0
6
CONTINUOUS
62
7
370
18
100
AcDbLine
10
11.818182
20
5.909091
11
15.409091
21
5.909091
0
LINE
5
48
100
AcDbEntity
8
0
6
CONTINUOUS
62
7
370
18
100
AcDbLine
10
0
20
5.818182
11
-3.590909
21
5.818182
0
LINE
5
49
100
AcDbEntity
8
0
6
CONTINUOUS
62
7
370
18
100
AcDbLine
10
0
20
0
11
11.818182
21
11.818182
0
LINE
5
4A
100
AcDbEntity
8
0
6
CONTINUOUS
62
7
370
18
100
AcDbLine
10
3.436848
20
1.718182
11
6.381334
21
0.018182
0
LINE
5
4B
100
AcDbEntity
8
0
6
CONTINUOUS
62
7
370
18
100
AcDbLine
10
3.436848
20
-1.681818
11
6.381334
21
0.018182
0
LINE
5
4C
100
AcDbEntity
8
0
6
CONTINUOUS
62
7
370
18
100
AcDbLine
10
-99.990909
20
172.568182
11
-99.990909
21
160.568182
0
LINE
5
4D
100
AcDbEntity
8
0
6
CONTINUOUS
62
7
370
18
100
AcDbLine
10
0
20
11.818182
11
11.818182
21
11.818182
0
LINE
5
4E
100
AcDbEntity
8
0
6
CONTINUOUS
62
7
370
18
100
AcDbLine
10
11.818182
20
11.818182
11
11.818182
21
0
0
LINE
5
4F
100
AcDbEntity
8
0
6
CONTINUOUS
62
7
370
18
100
AcDbLine
10
11.818182
20
0
11
0
21
0
0
LINE
5
50
100
AcDbEntity
8
0
6
CONTINUOUS
62
7
370
18
100
AcDbLine
10
0
20
0
11
0
21
11.818182
0
LWPOLYLINE
5
51
100
AcDbEntity
8
0
6
CONTINUOUS
62
7
370
-1
100
AcDbPolyline
90
23
70
1
43
0
10
2.056166509
20
8.91631123
10
2.3888104
20
8.91631123
10
2.460091306
20
8.7828849865
10
2.310871546
20
8.6494587429
10
1.978227528
20
8.6494587429
10
1.337874984
20
6.4599877333
10
1.277690953
20
6.3621517103
10
1.187480247
20
6.33117787
10
1.11750487
20
6.3621517103
10
1.112282878
20
6.4599877333
10
1.752635423
20
8.6494587429
10
1.646236403
20
8.6494587429
10
1.575086176
20
8.6868360947
10
1.574433412
20
8.7828849865
10
1.724175383
20
8.91631123
10
1.830574404
20
8.91631123
10
1.983319094
20
9.4382521714
10
2.580720346
20
9.9551298407
10
2.691819274
20
9.9551298407
10
2.763883371
20
9.8217035971
10
2.614663611
20
9.6882773535
10
2.504478554
20
9.6882773535
10
2.207475117
20
9.4334868757
0
LWPOLYLINE
5
52
100
AcDbEntity
8
0
6
CONTINUOUS
62
7
370
-1
100
AcDbPolyline
90
13
70
1
43
0
10
2.373638254
20
5.8156029448
10
2.34371403
20
5.7591569368
10
2.29929636
20
5.7413641603
10
2.265045672
20
5.7591569368
10
2.26288244
20
5.8154276439
10
2.709655298
20
7.5620106556
10
2.390511256
20
7.2440198475
10
2.347030916
20
7.2218446362
10
2.309895988
20
7.2982745953
10
2.339603959
20
7.349198713
10
2.786520963
20
7.7987508176
10
2.829712871
20
7.8196989232
10
2.867640914
20
7.7468625453
0
LWPOLYLINE
5
53
100
AcDbEntity
8
0
6
CONTINUOUS
62
7
370
-1
100
AcDbPolyline
90
23
70
1
43
0
10
8.356166509
20
4.00145323
10
8.6888104
20
4.00145323
10
8.760091306
20
3.8680269865
10
8.610871546
20
3.7346007429
10
8.278227528
20
3.7346007429
10
7.637874984
20
1.5451297333
10
7.577690953
20
1.4472937103
10
7.487480247
20
1.41631987
10
7.41750487
20
1.4472937103
10
7.412282878
20
1.5451297333
10
8.052635423
20
3.7346007429
10
7.946236403
20
3.7346007429
10
7.875086176
20
3.7719780947
10
7.874433412
20
3.8680269865
10
8.024175383
20
4.00145323
10
8.130574404
20
4.00145323
10
8.283319094
20
4.5233941714
10
8.880720346
20
5.0402718407
10
8.991819274
20
5.0402718407
10
9.063883371
20
4.9068455971
10
8.914663611
20
4.7734193535
10
8.804478554
20
4.7734193535
10
8.507475117
20
4.5186288757
0
LWPOLYLINE
5
54
100
AcDbEntity
8
0
6
CONTINUOUS
62
7
370
-1
100
AcDbPolyline
90
24
70
1
43
0
10
9.133460395
20
0.8788044813
10
8.46769968
20
0.8788044813
10
8.434746931
20
0.9024697496
10
8.433593277
20
0.9588281072
10
8.450538317
20
0.9943260096
10
9.380425707
20
2.2251818844
10
9.418714288
20
2.2829426485
10
9.448854905
20
2.3348309208
10
9.490316228
20
2.4443922212
10
9.463204136
20
2.6976980539
10
9.283874838
20
2.8028769195
10
8.96682192
20
2.5491329203
10
8.938628212
20
2.5132844162
10
8.90387284
20
2.4998741603
10
8.864069926
20
2.5720093349
10
8.874092762
20
2.5984793307
10
9.088970618
20
2.8678249316
10
9.313510701
20
2.948724976
10
9.561557558
20
2.8037534236
10
9.599918318
20
2.4400097863
10
9.448133828
20
2.1383216977
10
8.609605619
20
1.0246525378
10
9.170739539
20
1.0246525378
10
9.207802359
20
0.9517285096
0
ENDSEC
0
SECTION
2
OBJECTS
0
DICTIONARY
5
C
330
0
100
AcDbDictionary
281
1
3
ACAD_GROUP
350
D
0
DICTIONARY
5
D
330
C
100
AcDbDictionary
281
1
0
ENDSEC
0
EOF
