999
dxflib 2.0.1.3
  0
SECTION
  2
HEADER
  9
$ACADVER
  1
AC1015
  9
$HANDSEED
  5
FFFF
  0
ENDSEC
  9
$EXTMIN
 10
0.0
 20
0.0
 30
0.0
  9
$DIMASZ
 40
3.0
  9
$DIMADEC
 70
2
  9
$GRIDUNIT
 10
0.001
 20
0.001
 30
0.0
  9
$DIMGAP
 40
0.625
  9
$ANGBASE
 50
0.0
  9
$DIMALT
 70
4
  9
$LIMMIN
 10
0.0
 20
0.0
 30
0.0
  9
$DIMRND
 40
0.01
  9
$EXTMAX
 10
1179.0000609999999597
 20
831.0
 30
0.0
  9
$INSUNITS
 70
4
  9
$DIMEXO
 40
2.0
  9
$ANGDIR
 70
0
  9
$LIMMAX
 10
1179.0000609999999597
 20
831.0
 30
0.0
  9
$DIMLUNIT
 70
2
  9
$DIMTXT
 40
5.0
  9
$PSVPSCALE
 40
1.0
  9
$DIMSTYLE
  2
Standard
  9
$PLIMMIN
 10
0.0
 20
0.0
 30
0.0
  9
$PLIMMAX
 10
1189.0
 20
841.0
 30
0.0
  9
$DIMEXE
 40
2.0
  9
$DIMAUNIT
 70
0
  0
ENDSEC
  0
SECTION
  2
TABLES
  0
TABLE
  2
VPORT
  5
8
100
AcDbSymbolTable
 70
1
  0
VPORT
  5
30
100
AcDbSymbolTableRecord
100
AcDbViewportTableRecord
  2
*Active
 70
0
 10
0.0
 20
0.0
 11
1.0
 21
1.0
 12
286.3055555555554861
 22
148.5
 13
0.0
 23
0.0
 14
10.0
 24
10.0
 15
10.0
 25
10.0
 16
0.0
 26
0.0
 36
1.0
 17
0.0
 27
0.0
 37
0.0
 40
297.0
 41
1.92798353909465
 42
50.0
 43
0.0
 44
0.0
 50
0.0
 51
0.0
 71
0
 72
100
 73
1
 74
3
 75
1
 76
1
 77
0
 78
0
281
0
 65
1
110
0.0
120
0.0
130
0.0
111
1.0
121
0.0
131
0.0
112
0.0
122
1.0
132
0.0
 79
0
146
0.0
  0
ENDTAB
  0
TABLE
  2
LTYPE
  5
5
100
AcDbSymbolTable
 70
3
  0
LTYPE
  5
14
100
AcDbSymbolTableRecord
100
AcDbLinetypeTableRecord
  2
ByBlock
 70
0
  3

 72
65
 73
0
 40
0.0
  0
LTYPE
  5
15
100
AcDbSymbolTableRecord
100
AcDbLinetypeTableRecord
  2
ByLayer
 70
0
  3

 72
65
 73
0
 40
0.0
  0
LTYPE
  5
16
100
AcDbSymbolTableRecord
100
AcDbLinetypeTableRecord
  2
CONTINUOUS
 70
0
  3
Solid line
 72
65
 73
0
 40
0.0
  0
LTYPE
  5
31
100
AcDbSymbolTableRecord
100
AcDbLinetypeTableRecord
  2
DOT
 70
0
  0
LTYPE
  5
32
100
AcDbSymbolTableRecord
100
AcDbLinetypeTableRecord
  2
DOT2
 70
0
  0
LTYPE
  5
33
100
AcDbSymbolTableRecord
100
AcDbLinetypeTableRecord
  2
DOTX2
 70
0
  0
LTYPE
  5
34
100
AcDbSymbolTableRecord
100
AcDbLinetypeTableRecord
  2
DASHED
 70
0
  0
LTYPE
  5
35
100
AcDbSymbolTableRecord
100
AcDbLinetypeTableRecord
  2
DASHED2
 70
0
  0
LTYPE
  5
36
100
AcDbSymbolTableRecord
100
AcDbLinetypeTableRecord
  2
DASHEDX2
 70
0
  0
LTYPE
  5
37
100
AcDbSymbolTableRecord
100
AcDbLinetypeTableRecord
  2
DASHDOT
 70
0
  0
LTYPE
  5
38
100
AcDbSymbolTableRecord
100
AcDbLinetypeTableRecord
  2
DASHDOT2
 70
0
  0
LTYPE
  5
39
100
AcDbSymbolTableRecord
100
AcDbLinetypeTableRecord
  2
DASHDOTX2
 70
0
  0
LTYPE
  5
3A
100
AcDbSymbolTableRecord
100
AcDbLinetypeTableRecord
  2
DIVIDE
 70
0
  0
LTYPE
  5
3B
100
AcDbSymbolTableRecord
100
AcDbLinetypeTableRecord
  2
DIVIDE2
 70
0
  0
LTYPE
  5
3C
100
AcDbSymbolTableRecord
100
AcDbLinetypeTableRecord
  2
DIVIDEX2
 70
0
  0
LTYPE
  5
3D
100
AcDbSymbolTableRecord
100
AcDbLinetypeTableRecord
  2
CENTER
 70
0
  0
LTYPE
  5
3E
100
AcDbSymbolTableRecord
100
AcDbLinetypeTableRecord
  2
CENTER2
 70
0
  0
LTYPE
  5
3F
100
AcDbSymbolTableRecord
100
AcDbLinetypeTableRecord
  2
CENTERX2
 70
0
  0
LTYPE
  5
40
100
AcDbSymbolTableRecord
100
AcDbLinetypeTableRecord
  2
BORDER
 70
0
  0
LTYPE
  5
41
100
AcDbSymbolTableRecord
100
AcDbLinetypeTableRecord
  2
BORDER2
 70
0
  0
LTYPE
  5
42
100
AcDbSymbolTableRecord
100
AcDbLinetypeTableRecord
  2
BORDERX2
 70
0
  0
ENDTAB
  0
TABLE
  2
LAYER
  5
2
100
AcDbSymbolTable
 70
6
  0
LAYER
  5
10
100
AcDbSymbolTableRecord
100
AcDbLayerTableRecord
  2
0
 70
0
 62
7
  6
CONTINUOUS
370
0
390
F
  0
LAYER
  5
43
100
AcDbSymbolTableRecord
100
AcDbLayerTableRecord
  2
default
 70
0
 62
7
  6
CONTINUOUS
390
F
  0
LAYER
  5
44
100
AcDbSymbolTableRecord
100
AcDbLayerTableRecord
  2
border
 70
0
 62
7
  6
CONTINUOUS
370
25
390
F
  0
LAYER
  5
45
100
AcDbSymbolTableRecord
100
AcDbLayerTableRecord
  2
text
 70
0
 62
4
  6
CONTINUOUS
370
18
390
F
  0
LAYER
  5
46
100
AcDbSymbolTableRecord
100
AcDbLayerTableRecord
  2
help-lines
 70
0
 62
5
  6
CONTINUOUS
370
18
390
F
  0
LAYER
  5
47
100
AcDbSymbolTableRecord
100
AcDbLayerTableRecord
  2
hatch
 70
0
 62
113
  6
CONTINUOUS
370
18
390
F
  0
ENDTAB
  0
TABLE
  2
STYLE
  5
3
100
AcDbSymbolTable
 70
1
  0
STYLE
  5
11
100
AcDbSymbolTableRecord
100
AcDbTextStyleTableRecord
  2
Standard
 70
0
 40
0.0
 41
1.0
 50
0.0
 71
0
 42
2.5
  3
txt
  4

  0
ENDTAB
  0
TABLE
  2
VIEW
  5
6
100
AcDbSymbolTable
 70
0
  0
ENDTAB
  0
TABLE
  2
UCS
  5
7
100
AcDbSymbolTable
 70
0
  0
ENDTAB
  0
TABLE
  2
APPID
  5
9
100
AcDbSymbolTable
 70
1
  0
APPID
  5
12
100
AcDbSymbolTableRecord
100
AcDbRegAppTableRecord
  2
ACAD
 70
0
  0
ENDTAB
  0
TABLE
  2
DIMSTYLE
  5
A
100
AcDbSymbolTable
 70
1
100
AcDbDimStyleTable
 71
0
  0
DIMSTYLE
105
27
100
AcDbSymbolTableRecord
100
AcDbDimStyleTableRecord
  2
Standard
 70
0
  0
ENDTAB
  0
TABLE
  2
BLOCK_RECORD
  5
1
100
AcDbSymbolTable
 70
1
  0
BLOCK_RECORD
  5
1F
100
AcDbSymbolTableRecord
100
AcDbBlockTableRecord
  2
*Model_Space
340
22
  0
BLOCK_RECORD
  5
1B
100
AcDbSymbolTableRecord
100
AcDbBlockTableRecord
  2
*Paper_Space
340
1E
  0
BLOCK_RECORD
  5
23
100
AcDbSymbolTableRecord
100
AcDbBlockTableRecord
  2
*Paper_Space0
340
26
  0
BLOCK_RECORD
  5
48
330
1
100
AcDbSymbolTableRecord
100
AcDbBlockTableRecord
  2
a3
340
0
  0
ENDTAB
  0
ENDSEC
  0
SECTION
  2
BLOCKS
  0
BLOCK
  5
20
100
AcDbEntity
  8
0
100
AcDbBlockBegin
  2
*Model_Space
 70
0
 10
0.0
 20
0.0
 30
0.0
  3
*Model_Space
  1

  0
ENDBLK
  5
21
100
AcDbEntity
  8
0
100
AcDbBlockEnd
  0
BLOCK
  5
1C
100
AcDbEntity
 67
1
  8
0
100
AcDbBlockBegin
  2
*Paper_Space
 70
0
 10
0.0
 20
0.0
 30
0.0
  3
*Paper_Space
  1

  0
ENDBLK
  5
1D
100
AcDbEntity
 67
1
  8
0
100
AcDbBlockEnd
  0
BLOCK
  5
24
100
AcDbEntity
  8
0
100
AcDbBlockBegin
  2
*Paper_Space0
 70
0
 10
0.0
 20
0.0
 30
0.0
  3
*Paper_Space0
  1

  0
ENDBLK
  5
25
100
AcDbEntity
  8
0
100
AcDbBlockEnd
  0
BLOCK
  5
49
100
AcDbEntity
  8
0
100
AcDbBlockBegin
  2
a3
 70
0
 10
0.0
 20
0.0
 30
0.0
  3
a3
  1

  0
HATCH
  5
4A
  8
hatch
 62
256
370
-1
  6
ByLayer
100
AcDbEntity
100
AcDbHatch
 10
0.0
 20
0.0
 30
0.0
210
0.0
220
0.0
230
1.0
  2
ansi31
 70
0
 71
0
 91
1
 92
1
 93
3
 72
1
 10
124.9999760000000038
 20
287.0000239999999394
 11
122.4999759999999469
 21
291.3301510189222654
 72
1
 10
124.9999760000000038
 20
287.0000239999999394
 11
127.4999760000000464
 21
291.3301510189221517
 72
1
 10
122.4999759999999469
 20
291.3301510189222654
 11
127.4999760000000464
 21
291.3301510189221517
 97
0
 75
0
 76
1
 52
4.7123889803846897
 41
0.5
 77
0
 78
1
 53
45.0
 43
0.0
 44
0.0
 45
-0.0883883476483184
 46
0.0883883476483185
 79
0
 98
0
  0
HATCH
  5
4B
  8
hatch
 62
256
370
-1
  6
ByLayer
100
AcDbEntity
100
AcDbHatch
 10
0.0
 20
0.0
 30
0.0
210
0.0
220
0.0
230
1.0
  2
ansi31
 70
0
 71
0
 91
1
 92
1
 93
3
 72
1
 10
229.9999760000000606
 20
287.0000239999999394
 11
227.4999760000000606
 21
291.3301510189221517
 72
1
 10
229.9999760000000606
 20
287.0000239999999394
 11
232.4999759999999469
 21
291.3301510189222654
 72
1
 10
227.4999760000000606
 20
291.3301510189221517
 11
232.4999759999999469
 21
291.3301510189222654
 97
0
 75
0
 76
1
 52
4.7123889803846897
 41
0.5
 77
0
 78
1
 53
45.0
 43
0.0
 44
0.0
 45
-0.0883883476483184
 46
0.0883883476483185
 79
0
 98
0
  0
HATCH
  5
4C
  8
hatch
 62
256
370
-1
  6
ByLayer
100
AcDbEntity
100
AcDbHatch
 10
0.0
 20
0.0
 30
0.0
210
0.0
220
0.0
230
1.0
  2
ansi31
 70
0
 71
0
 91
1
 92
1
 93
3
 72
1
 10
314.9999999999999432
 20
287.0000240000000531
 11
312.4999999999998863
 21
291.3301510189223222
 72
1
 10
314.9999999999999432
 20
287.0000240000000531
 11
317.4999999999999432
 21
291.3301510189222654
 72
1
 10
312.4999999999998863
 20
291.3301510189223222
 11
317.4999999999999432
 21
291.3301510189222654
 97
0
 75
0
 76
1
 52
4.7123889803846897
 41
0.5
 77
0
 78
1
 53
45.0
 43
0.0
 44
0.0
 45
-0.0883883476483184
 46
0.0883883476483185
 79
0
 98
0
  0
HATCH
  5
4D
  8
hatch
 62
256
370
-1
  6
ByLayer
100
AcDbEntity
100
AcDbHatch
 10
0.0
 20
0.0
 30
0.0
210
0.0
220
0.0
230
1.0
  2
ansi31
 70
0
 71
0
 91
1
 92
1
 93
3
 72
1
 10
315.0
 20
9.9999760000000606
 11
312.5
 21
5.6698489810778767
 72
1
 10
315.0
 20
9.9999760000000606
 11
317.5
 21
5.6698489810779051
 72
1
 10
312.5
 20
5.6698489810778767
 11
317.5
 21
5.6698489810779051
 97
0
 75
0
 76
1
 52
4.7123889803846897
 41
0.5
 77
0
 78
1
 53
45.0
 43
0.0
 44
0.0
 45
-0.0883883476483184
 46
0.0883883476483185
 79
0
 98
0
  0
HATCH
  5
4E
  8
hatch
 62
256
370
-1
  6
ByLayer
100
AcDbEntity
100
AcDbHatch
 10
0.0
 20
0.0
 30
0.0
210
0.0
220
0.0
230
1.0
  2
ansi31
 70
0
 71
0
 91
1
 92
1
 93
3
 72
1
 10
229.9999760000000606
 20
9.999976000000089
 11
227.4999760000000606
 21
5.6698489810778767
 72
1
 10
229.9999760000000606
 20
9.999976000000089
 11
232.4999760000000606
 21
5.6698489810778767
 72
1
 10
227.4999760000000606
 20
5.6698489810778767
 11
232.4999760000000606
 21
5.6698489810778767
 97
0
 75
0
 76
1
 52
4.7123889803846897
 41
0.5
 77
0
 78
1
 53
45.0
 43
0.0
 44
0.0
 45
-0.0883883476483184
 46
0.0883883476483185
 79
0
 98
0
  0
HATCH
  5
4F
  8
hatch
 62
256
370
-1
  6
ByLayer
100
AcDbEntity
100
AcDbHatch
 10
0.0
 20
0.0
 30
0.0
210
0.0
220
0.0
230
1.0
  2
ansi31
 70
0
 71
0
 91
1
 92
1
 93
3
 72
1
 10
124.9999760000000606
 20
9.9999760000000606
 11
122.4999760000000464
 21
5.6698489810778483
 72
1
 10
124.9999760000000606
 20
9.9999760000000606
 11
127.4999760000000606
 21
5.6698489810778483
 72
1
 10
122.4999760000000464
 20
5.6698489810778483
 11
127.4999760000000606
 21
5.6698489810778483
 97
0
 75
0
 76
1
 52
4.7123889803846897
 41
0.5
 77
0
 78
1
 53
45.0
 43
0.0
 44
0.0
 45
-0.0883883476483184
 46
0.0883883476483185
 79
0
 98
0
  0
HATCH
  5
50
  8
hatch
 62
256
370
-1
  6
ByLayer
100
AcDbEntity
100
AcDbHatch
 10
0.0
 20
0.0
 30
0.0
210
0.0
220
0.0
230
1.0
  2
ansi31
 70
0
 71
0
 91
1
 92
1
 93
3
 72
1
 10
410.0000000000002274
 20
148.5000000000001137
 11
414.330127018922667
 21
146.0000000000002274
 72
1
 10
410.0000000000002274
 20
148.5000000000001137
 11
414.3301270189222123
 21
150.9999999999997726
 72
1
 10
414.330127018922667
 20
146.0000000000002274
 11
414.3301270189222123
 21
150.9999999999997726
 97
0
 75
0
 76
1
 52
3.1415926535897931
 41
0.5
 77
0
 78
1
 53
45.0
 43
0.0
 44
0.0
 45
-0.0883883476483184
 46
0.0883883476483185
 79
0
 98
0
  0
HATCH
  5
51
  8
hatch
 62
256
370
-1
  6
ByLayer
100
AcDbEntity
100
AcDbHatch
 10
0.0
 20
0.0
 30
0.0
210
0.0
220
0.0
230
1.0
  2
ansi31
 70
0
 71
0
 91
1
 92
1
 93
3
 72
1
 10
19.9999999999998863
 20
148.5
 11
15.6698729810776918
 21
146.0
 72
1
 10
19.9999999999998863
 20
148.5
 11
15.6698729810776918
 21
151.0
 72
1
 10
15.6698729810776918
 20
146.0
 11
15.6698729810776918
 21
151.0
 97
0
 75
0
 76
1
 52
0.0
 41
0.5
 77
0
 78
1
 53
45.0
 43
0.0
 44
0.0
 45
-0.0883883476483184
 46
0.0883883476483185
 79
0
 98
0
  0
CIRCLE
  5
52
100
AcDbEntity
100
AcDbCircle
  8
help-lines
 62
256
370
-1
  6
ByLayer
 10
15.0000000000000284
 20
222.7500000000001137
 30
0.0
 40
3.0
  0
LINE
  5
53
100
AcDbEntity
100
AcDbLine
  8
help-lines
 62
256
370
-1
  6
ByLayer
 10
19.9999999999998863
 20
148.5
 30
0.0
 11
15.6698729810776918
 21
146.0
 31
0.0
  0
LINE
  5
54
100
AcDbEntity
100
AcDbLine
  8
help-lines
 62
256
370
-1
  6
ByLayer
 10
19.9999999999998863
 20
148.5
 30
0.0
 11
15.6698729810776918
 21
151.0
 31
0.0
  0
LINE
  5
55
100
AcDbEntity
100
AcDbLine
  8
help-lines
 62
256
370
-1
  6
ByLayer
 10
15.6698729810776918
 20
146.0
 30
0.0
 11
15.6698729810776918
 21
151.0
 31
0.0
  0
CIRCLE
  5
56
100
AcDbEntity
100
AcDbCircle
  8
help-lines
 62
256
370
-1
  6
ByLayer
 10
15.0
 20
74.2500000000001137
 30
0.0
 40
3.0
  0
MTEXT
  5
57
100
AcDbEntity
100
AcDbMText
  8
help-lines
 62
256
370
-1
  6
ByLayer
 10
15.0
 20
74.2500000000001137
 30
0.0
 40
4.0
 41
100.0
 71
5
 72
2
  1
A
  7
normal
 50
6.2831853071795862
 73
0
 44
1.0
  0
MTEXT
  5
58
100
AcDbEntity
100
AcDbMText
  8
help-lines
 62
256
370
-1
  6
ByLayer
 10
15.0000000000000284
 20
222.7500000000001137
 30
0.0
 40
4.0
 41
100.0
 71
5
 72
2
  1
B
  7
normal
 50
6.2831853071795862
 73
0
 44
1.0
  0
LINE
  5
59
100
AcDbEntity
100
AcDbLine
  8
border
 62
7
370
0
  6
CONTINUOUS
 10
20.0000000000000249
 20
287.0
 30
0.0
 11
20.0
 21
10.0
 31
0.0
  0
LINE
  5
5A
100
AcDbEntity
100
AcDbLine
  8
help-lines
 62
256
370
-1
  6
ByLayer
 10
0.0000000000000257
 20
297.0
 30
0.0
 11
0.0
 21
0.0
 31
0.0
  0
LINE
  5
5B
100
AcDbEntity
100
AcDbLine
  8
border
 62
7
370
0
  6
CONTINUOUS
 10
20.0
 20
10.0
 30
0.0
 11
410.0
 21
10.0
 31
0.0
  0
LINE
  5
5C
100
AcDbEntity
100
AcDbLine
  8
border
 62
7
370
0
  6
CONTINUOUS
 10
373.6000209999999697
 20
65.2500940000000043
 30
0.0
 11
373.6000209999999697
 21
58.8750519999999966
 31
0.0
  0
LINE
  5
5D
100
AcDbEntity
100
AcDbLine
  8
border
 62
7
370
0
  6
CONTINUOUS
 10
397.0
 20
26.9999870000000008
 30
0.0
 11
397.0
 21
14.2500420000000005
 31
0.0
  0
LINE
  5
5E
100
AcDbEntity
100
AcDbLine
  8
border
 62
7
370
0
  6
CONTINUOUS
 10
365.8000340000000961
 20
14.2501069999999999
 30
0.0
 11
365.8000340000000961
 21
10.0000979999999995
 31
0.0
  0
LINE
  5
5F
100
AcDbEntity
100
AcDbLine
  8
border
 62
7
370
0
  6
CONTINUOUS
 10
303.4000240000000304
 20
65.2500969999999967
 30
0.0
 11
303.4000240000000304
 21
27.0000590000000003
 31
0.0
  0
LINE
  5
60
100
AcDbEntity
100
AcDbLine
  8
border
 62
7
370
0
  6
CONTINUOUS
 10
287.8000179999999091
 20
48.2500900000000001
 30
0.0
 11
287.8000179999999091
 21
27.0001360000000012
 31
0.0
  0
LINE
  5
61
100
AcDbEntity
100
AcDbLine
  8
border
 62
7
370
0
  6
CONTINUOUS
 10
277.4000240000000304
 20
65.2500900000000001
 30
0.0
 11
277.4000240000000304
 21
10.0000940000000007
 31
0.0
  0
LINE
  5
62
100
AcDbEntity
100
AcDbLine
  8
border
 62
7
370
0
  6
CONTINUOUS
 10
321.6000059999998939
 20
65.2501390000000043
 30
0.0
 11
321.6000059999998939
 21
10.0000970000000002
 31
0.0
  0
LINE
  5
63
100
AcDbEntity
100
AcDbLine
  8
border
 62
7
370
0
  6
CONTINUOUS
 10
269.6000059999998939
 20
48.250081999999999
 30
0.0
 11
269.6000369999999293
 21
10.0000990000000005
 31
0.0
  0
LINE
  5
64
100
AcDbEntity
100
AcDbLine
  8
border
 62
7
370
0
  6
CONTINUOUS
 10
256.6000059999998939
 20
48.2501010000000008
 30
0.0
 11
256.6000059999998939
 21
10.0000909999999994
 31
0.0
  0
LINE
  5
65
100
AcDbEntity
100
AcDbLine
  8
border
 62
7
370
0
  6
CONTINUOUS
 10
230.6000060000000076
 20
48.2501129999999989
 30
0.0
 11
230.6000060000000076
 21
10.0000929999999997
 31
0.0
  0
LINE
  5
66
100
AcDbEntity
100
AcDbLine
  8
border
 62
7
370
0
  6
CONTINUOUS
 10
222.8000180000000228
 20
31.2500749999999989
 30
0.0
 11
321.6000059999998939
 21
31.2500919999999986
 31
0.0
  0
LINE
  5
67
100
AcDbEntity
100
AcDbLine
  8
border
 62
7
370
0
  6
CONTINUOUS
 10
222.8000180000000228
 20
35.500079999999997
 30
0.0
 11
321.6000059999998939
 21
35.500115000000001
 31
0.0
  0
LINE
  5
68
100
AcDbEntity
100
AcDbLine
  8
border
 62
7
370
0
  6
CONTINUOUS
 10
222.8000180000000228
 20
39.7501159999999985
 30
0.0
 11
321.6000369999999293
 21
39.7500670000000014
 31
0.0
  0
LINE
  5
69
100
AcDbEntity
100
AcDbLine
  8
border
 62
7
370
0
  6
CONTINUOUS
 10
222.8000180000000228
 20
44.0000969999999967
 30
0.0
 11
321.6000369999999293
 21
44.0000860000000031
 31
0.0
  0
LINE
  5
6A
100
AcDbEntity
100
AcDbLine
  8
border
 62
7
370
0
  6
CONTINUOUS
 10
222.8000180000000228
 20
22.7500549999999997
 30
0.0
 11
277.4000240000000304
 21
22.7500609999999988
 31
0.0
  0
LINE
  5
6B
100
AcDbEntity
100
AcDbLine
  8
border
 62
7
370
0
  6
CONTINUOUS
 10
222.8000180000000228
 20
18.5000539999999987
 30
0.0
 11
277.4000240000000304
 21
18.5001220000000011
 31
0.0
  0
LINE
  5
6C
100
AcDbEntity
100
AcDbLine
  8
border
 62
7
370
0
  6
CONTINUOUS
 10
321.6000059999998939
 20
58.8751200000000026
 30
0.0
 11
410.0
 21
58.8750399999999985
 31
0.0
  0
LINE
  5
6D
100
AcDbEntity
100
AcDbLine
  8
border
 62
7
370
0
  6
CONTINUOUS
 10
222.8000180000000228
 20
14.2500830000000001
 30
0.0
 11
410.0
 21
14.2500900000000001
 31
0.0
  0
LINE
  5
6E
100
AcDbEntity
100
AcDbLine
  8
border
 62
7
370
0
  6
CONTINUOUS
 10
222.8000180000000228
 20
48.2500860000000031
 30
0.0
 11
410.0000609999999597
 21
48.2501010000000008
 31
0.0
  0
LINE
  5
6F
100
AcDbEntity
100
AcDbLine
  8
border
 62
7
370
0
  6
CONTINUOUS
 10
222.8000180000000228
 20
27.0001069999999999
 30
0.0
 11
410.0000609999999597
 21
26.9999929999999999
 31
0.0
  0
LINE
  5
70
100
AcDbEntity
100
AcDbLine
  8
border
 62
7
370
0
  6
CONTINUOUS
 10
222.8000180000000228
 20
65.250085999999996
 30
0.0
 11
410.0
 21
65.250165999999993
 31
0.0
  0
LINE
  5
71
100
AcDbEntity
100
AcDbLine
  8
border
 62
7
370
0
  6
CONTINUOUS
 10
410.0000609999999597
 20
65.2501809999999978
 30
0.0
 11
410.0
 21
10.0
 31
0.0
  0
LINE
  5
72
100
AcDbEntity
100
AcDbLine
  8
border
 62
7
370
0
  6
CONTINUOUS
 10
410.0
 20
10.0
 30
0.0
 11
222.8000180000000228
 21
10.0001010000000008
 31
0.0
  0
LINE
  5
73
100
AcDbEntity
100
AcDbLine
  8
border
 62
7
370
0
  6
CONTINUOUS
 10
222.8000180000000228
 20
65.250085999999996
 30
0.0
 11
222.8000180000000228
 21
10.0001010000000008
 31
0.0
  0
LINE
  5
74
100
AcDbEntity
100
AcDbLine
  8
default
 62
7
370
0
  6
DASHDOT
 10
280.2711420000000544
 20
57.2428760000000025
 30
0.0
 11
300.2711420000000544
 21
57.2428760000000025
 31
0.0
  0
CIRCLE
  5
75
100
AcDbEntity
100
AcDbCircle
  8
default
 62
7
370
0
  6
CONTINUOUS
 10
295.4711420000000999
 20
57.2428760000000025
 30
0.0
 40
2.7999999999999998
  0
CIRCLE
  5
76
100
AcDbEntity
100
AcDbCircle
  8
default
 62
7
370
0
  6
CONTINUOUS
 10
295.4711420000000999
 20
57.2428760000000025
 30
0.0
 40
1.6000000000000001
  0
LINE
  5
77
100
AcDbEntity
100
AcDbLine
  8
default
 62
7
370
0
  6
CONTINUOUS
 10
282.671141999999918
 20
58.8428759999999968
 30
0.0
 11
282.671141999999918
 21
55.6428760000000011
 31
0.0
  0
LINE
  5
78
100
AcDbEntity
100
AcDbLine
  8
default
 62
7
370
0
  6
CONTINUOUS
 10
282.671141999999918
 20
55.6428760000000011
 30
0.0
 11
289.0711420000000089
 21
54.4428759999999983
 31
0.0
  0
LINE
  5
79
100
AcDbEntity
100
AcDbLine
  8
default
 62
7
370
0
  6
CONTINUOUS
 10
289.0711420000000089
 20
60.0428759999999997
 30
0.0
 11
289.0711420000000089
 21
54.4428759999999983
 31
0.0
  0
LINE
  5
7A
100
AcDbEntity
100
AcDbLine
  8
default
 62
7
370
0
  6
CONTINUOUS
 10
282.671141999999918
 20
58.8428759999999968
 30
0.0
 11
289.0711420000000089
 21
60.0428759999999997
 31
0.0
  0
LINE
  5
7B
100
AcDbEntity
100
AcDbLine
  8
default
 62
7
370
0
  6
DASHDOT
 10
295.4711420000000999
 20
52.4428759999999983
 30
0.0
 11
295.4711420000000999
 21
62.0428759999999997
 31
0.0
  0
MTEXT
  5
7C
100
AcDbEntity
100
AcDbMText
  8
text
 62
256
370
-1
  6
ByLayer
 10
322.7262570000000323
 20
60.8126049999999978
 30
0.0
 40
2.5
 41
100.0
 71
7
 72
2
  1
scale\~\~1\~:\~1
  7
Normal#0.500000#1.500000
 50
0.0
 73
1
 44
1.0
  0
MTEXT
  5
7D
100
AcDbEntity
100
AcDbMText
  8
text
 62
256
370
-1
  6
ByLayer
 10
374.7262419999999565
 20
60.8126549999999995
 30
0.0
 40
2.5
 41
100.0
 71
7
 72
2
  1
(mass)
  7
Normal#0.500000#1.500000
 50
0.0
 73
1
 44
1.0
  0
MTEXT
  5
7E
100
AcDbEntity
100
AcDbMText
  8
text
 62
256
370
-1
  6
ByLayer
 10
322.7620850000000701
 20
55.346429999999998
 30
0.0
 40
2.5
 41
100.0
 71
7
 72
2
  1
(material,\~specification)
  7
Normal#0.500000#1.500000
 50
0.0
 73
1
 44
1.0
  0
MTEXT
  5
7F
100
AcDbEntity
100
AcDbMText
  8
text
 62
256
370
-1
  6
ByLayer
 10
290.6053770000000895
 20
44.8750900000000001
 30
0.0
 40
2.5
 41
100.0
 71
7
 72
2
  1
date
  7
Normal#0.500000#1.200000
 50
0.0
 73
1
 44
1.0
  0
MTEXT
  5
80
100
AcDbEntity
100
AcDbMText
  8
text
 62
256
370
-1
  6
ByLayer
 10
308.1733400000000529
 20
44.875081999999999
 30
0.0
 40
2.5
 41
100.0
 71
7
 72
2
  1
name
  7
Normal#0.500000#1.200000
 50
0.0
 73
1
 44
1.0
  0
MTEXT
  5
81
100
AcDbEntity
100
AcDbMText
  8
text
 62
256
370
-1
  6
ByLayer
 10
277.7130429999999706
 20
40.6250479999999996
 30
0.0
 40
2.5
 41
100.0
 71
7
 72
2
  1
desig.
  7
Normal#0.500000#1.200000
 50
0.0
 73
1
 44
1.0
  0
MTEXT
  5
82
100
AcDbEntity
100
AcDbMText
  8
text
 62
256
370
-1
  6
ByLayer
 10
277.8989559999999983
 20
36.3751450000000034
 30
0.0
 40
2.5
 41
100.0
 71
7
 72
2
  1
check'd
  7
Normal#0.500000#1.200000
 50
0.0
 73
1
 44
1.0
  0
MTEXT
  5
83
100
AcDbEntity
100
AcDbMText
  8
text
 62
256
370
-1
  6
ByLayer
 10
277.8989559999999983
 20
32.1251090000000019
 30
0.0
 40
2.5
 41
100.0
 71
7
 72
2
  1
auth.
  7
Normal#0.500000#1.200000
 50
0.0
 73
1
 44
1.0
  0
MTEXT
  5
84
100
AcDbEntity
100
AcDbMText
  8
text
 62
256
370
-1
  6
ByLayer
 10
223.1147459999999683
 20
10.8750959999999992
 30
0.0
 40
2.5
 41
100.0
 71
7
 72
2
  1
loc
  7
Normal#0.500000#1.200000
 50
0.0
 73
1
 44
1.0
  0
MTEXT
  5
85
100
AcDbEntity
100
AcDbMText
  8
text
 62
256
370
-1
  6
ByLayer
 10
236.1854550000000472
 20
10.875095
 30
0.0
 40
2.5
 41
100.0
 71
7
 72
2
  1
change
  7
Normal#0.500000#1.200000
 50
0.0
 73
1
 44
1.0
  0
MTEXT
  5
86
100
AcDbEntity
100
AcDbMText
  8
text
 62
256
370
-1
  6
ByLayer
 10
258.4116520000000037
 20
10.8751320000000007
 30
0.0
 40
2.5
 41
100.0
 71
7
 72
2
  1
date
  7
Normal#0.500000#1.200000
 50
0.0
 73
1
 44
1.0
  0
MTEXT
  5
87
100
AcDbEntity
100
AcDbMText
  8
text
 62
256
370
-1
  6
ByLayer
 10
269.6750489999999445
 20
10.8750649999999993
 30
0.0
 40
2.5
 41
100.0
 71
7
 72
2
  1
name
  7
Normal#0.200000#1.200000
 50
0.0
 73
1
 44
1.0
  0
MTEXT
  5
88
100
AcDbEntity
100
AcDbMText
  8
text
 62
256
370
-1
  6
ByLayer
 10
278.6523440000000846
 20
10.8750630000000008
 30
0.0
 40
2.5
 41
100.0
 71
7
 72
2
  1
project
  7
Normal#0.500000#1.200000
 50
0.0
 73
1
 44
1.0
  0
MTEXT
  5
89
100
AcDbEntity
100
AcDbMText
  8
text
 62
256
370
-1
  6
ByLayer
 10
323.276732999999922
 20
10.875121
 30
0.0
 40
2.5
 41
100.0
 71
7
 72
2
  1
replaces
  7
Normal#0.500000#1.500000
 50
0.0
 73
1
 44
1.0
  0
MTEXT
  5
8A
100
AcDbEntity
100
AcDbMText
  8
text
 62
256
370
-1
  6
ByLayer
 10
367.4767300000000887
 20
10.8751940000000005
 30
0.0
 40
2.5
 41
100.0
 71
7
 72
2
  1
replaced\~by
  7
Normal#0.500000#1.500000
 50
0.0
 73
1
 44
1.0
  0
MTEXT
  5
8B
100
AcDbEntity
100
AcDbMText
  8
text
 62
256
370
-1
  6
ByLayer
 10
399.8399050000000443
 20
15.2375699999999998
 30
0.0
 40
2.0
 41
100.0
 71
7
 72
2
  1
sheet
  7
Normal#0.500000#0.900000
 50
0.0
 73
1
 44
1.0
  0
MTEXT
  5
8C
100
AcDbEntity
100
AcDbMText
  8
text
 62
256
370
-1
  6
ByLayer
 10
322.4965760000000046
 20
28.7480340000000005
 30
0.0
 40
2.5
 41
100.0
 71
7
 72
2
  1
part\~name
  7
Normal#0.500000#0.900000
 50
0.0
 73
1
 44
1.0
  0
MTEXT
  5
8D
100
AcDbEntity
100
AcDbMText
  8
text
 62
256
370
-1
  6
ByLayer
 10
322.2766879999999219
 20
15.3348169999999993
 30
0.0
 40
2.5
 41
100.0
 71
7
 72
2
  1
part\~number
  7
Normal#0.500000#0.900000
 50
0.0
 73
1
 44
1.0
  0
CIRCLE
  5
8E
100
AcDbEntity
100
AcDbCircle
  8
help-lines
 62
256
370
-1
  6
ByLayer
 10
414.9999999999997726
 20
222.7499999999998863
 30
0.0
 40
3.0
  0
LINE
  5
8F
100
AcDbEntity
100
AcDbLine
  8
help-lines
 62
256
370
-1
  6
ByLayer
 10
410.0000000000002274
 20
148.5000000000001137
 30
0.0
 11
414.330127018922667
 21
146.0000000000002274
 31
0.0
  0
LINE
  5
90
100
AcDbEntity
100
AcDbLine
  8
help-lines
 62
256
370
-1
  6
ByLayer
 10
410.0000000000002274
 20
148.5000000000001137
 30
0.0
 11
414.3301270189222123
 21
150.9999999999997726
 31
0.0
  0
LINE
  5
91
100
AcDbEntity
100
AcDbLine
  8
help-lines
 62
256
370
-1
  6
ByLayer
 10
414.330127018922667
 20
146.0000000000002274
 30
0.0
 11
414.3301270189222123
 21
150.9999999999997726
 31
0.0
  0
CIRCLE
  5
92
100
AcDbEntity
100
AcDbCircle
  8
help-lines
 62
256
370
-1
  6
ByLayer
 10
415.0
 20
74.25
 30
0.0
 40
3.0
  0
MTEXT
  5
93
100
AcDbEntity
100
AcDbMText
  8
help-lines
 62
256
370
-1
  6
ByLayer
 10
415.0
 20
74.25
 30
0.0
 40
4.0
 41
100.0
 71
5
 72
2
  1
A
  7
normal
 50
6.2831853071795862
 73
0
 44
1.0
  0
MTEXT
  5
94
100
AcDbEntity
100
AcDbMText
  8
help-lines
 62
256
370
-1
  6
ByLayer
 10
414.9999999999997726
 20
222.7499999999998863
 30
0.0
 40
4.0
 41
100.0
 71
5
 72
2
  1
B
  7
normal
 50
6.2831853071795862
 73
0
 44
1.0
  0
LINE
  5
95
100
AcDbEntity
100
AcDbLine
  8
border
 62
7
370
0
  6
CONTINUOUS
 10
20.0000000000000249
 20
287.0
 30
0.0
 11
410.0
 21
287.0
 31
0.0
  0
LINE
  5
96
100
AcDbEntity
100
AcDbLine
  8
border
 62
7
370
0
  6
CONTINUOUS
 10
410.0
 20
287.0
 30
0.0
 11
410.0
 21
10.0
 31
0.0
  0
LINE
  5
97
100
AcDbEntity
100
AcDbLine
  8
help-lines
 62
256
370
-1
  6
ByLayer
 10
420.0
 20
297.0
 30
0.0
 11
0.0000000000000257
 21
297.0
 31
0.0
  0
LINE
  5
98
100
AcDbEntity
100
AcDbLine
  8
help-lines
 62
256
370
-1
  6
ByLayer
 10
125.0
 20
0.0
 30
0.0
 11
124.9999999999999858
 21
10.0
 31
0.0
  0
LINE
  5
99
100
AcDbEntity
100
AcDbLine
  8
help-lines
 62
256
370
-1
  6
ByLayer
 10
230.0
 20
0.0000000000000284
 30
0.0
 11
230.0
 21
9.9999999999999716
 31
0.0
  0
LINE
  5
9A
100
AcDbEntity
100
AcDbLine
  8
help-lines
 62
256
370
-1
  6
ByLayer
 10
124.9999760000000606
 20
9.9999760000000606
 30
0.0
 11
122.4999760000000464
 21
5.6698489810778483
 31
0.0
  0
LINE
  5
9B
100
AcDbEntity
100
AcDbLine
  8
help-lines
 62
256
370
-1
  6
ByLayer
 10
124.9999760000000606
 20
9.9999760000000606
 30
0.0
 11
127.4999760000000606
 21
5.6698489810778483
 31
0.0
  0
LINE
  5
9C
100
AcDbEntity
100
AcDbLine
  8
help-lines
 62
256
370
-1
  6
ByLayer
 10
122.4999760000000464
 20
5.6698489810778483
 30
0.0
 11
127.4999760000000606
 21
5.6698489810778483
 31
0.0
  0
CIRCLE
  5
9D
100
AcDbEntity
100
AcDbCircle
  8
help-lines
 62
256
370
-1
  6
ByLayer
 10
177.4999999999999432
 20
5.0
 30
0.0
 40
3.0
  0
LINE
  5
9E
100
AcDbEntity
100
AcDbLine
  8
help-lines
 62
256
370
-1
  6
ByLayer
 10
229.9999760000000606
 20
9.999976000000089
 30
0.0
 11
227.4999760000000606
 21
5.6698489810778767
 31
0.0
  0
LINE
  5
9F
100
AcDbEntity
100
AcDbLine
  8
help-lines
 62
256
370
-1
  6
ByLayer
 10
229.9999760000000606
 20
9.999976000000089
 30
0.0
 11
232.4999760000000606
 21
5.6698489810778767
 31
0.0
  0
LINE
  5
A0
100
AcDbEntity
100
AcDbLine
  8
help-lines
 62
256
370
-1
  6
ByLayer
 10
227.4999760000000606
 20
5.6698489810778767
 30
0.0
 11
232.4999760000000606
 21
5.6698489810778767
 31
0.0
  0
CIRCLE
  5
A1
100
AcDbEntity
100
AcDbCircle
  8
help-lines
 62
256
370
-1
  6
ByLayer
 10
72.4999999999999858
 20
5.0
 30
0.0
 40
3.0
  0
MTEXT
  5
A2
100
AcDbEntity
100
AcDbMText
  8
help-lines
 62
256
370
-1
  6
ByLayer
 10
72.4999999999999858
 20
5.0
 30
0.0
 40
4.0
 41
100.0
 71
5
 72
2
  1
1
  7
normal
 50
0.0
 73
0
 44
1.0
  0
MTEXT
  5
A3
100
AcDbEntity
100
AcDbMText
  8
help-lines
 62
256
370
-1
  6
ByLayer
 10
177.4999999999999432
 20
5.0
 30
0.0
 40
4.0
 41
100.0
 71
5
 72
2
  1
2
  7
normal
 50
0.0
 73
0
 44
1.0
  0
CIRCLE
  5
A4
100
AcDbEntity
100
AcDbCircle
  8
help-lines
 62
256
370
-1
  6
ByLayer
 10
278.0
 20
5.0000000000000568
 30
0.0
 40
3.0
  0
MTEXT
  5
A5
100
AcDbEntity
100
AcDbMText
  8
help-lines
 62
256
370
-1
  6
ByLayer
 10
278.0
 20
5.0000000000000568
 30
0.0
 40
4.0
 41
100.0
 71
5
 72
2
  1
3
  7
normal
 50
0.0
 73
0
 44
1.0
  0
LINE
  5
A6
100
AcDbEntity
100
AcDbLine
  8
help-lines
 62
256
370
-1
  6
ByLayer
 10
315.0
 20
9.9999760000000606
 30
0.0
 11
312.5
 21
5.6698489810778767
 31
0.0
  0
LINE
  5
A7
100
AcDbEntity
100
AcDbLine
  8
help-lines
 62
256
370
-1
  6
ByLayer
 10
315.0
 20
9.9999760000000606
 30
0.0
 11
317.5
 21
5.6698489810779051
 31
0.0
  0
LINE
  5
A8
100
AcDbEntity
100
AcDbLine
  8
help-lines
 62
256
370
-1
  6
ByLayer
 10
312.5
 20
5.6698489810778767
 30
0.0
 11
317.5
 21
5.6698489810779051
 31
0.0
  0
CIRCLE
  5
A9
100
AcDbEntity
100
AcDbCircle
  8
help-lines
 62
256
370
-1
  6
ByLayer
 10
363.0000239999999394
 20
4.9999999999999432
 30
0.0
 40
3.0
  0
MTEXT
  5
AA
100
AcDbEntity
100
AcDbMText
  8
help-lines
 62
256
370
-1
  6
ByLayer
 10
363.0000239999999394
 20
4.9999999999999432
 30
0.0
 40
4.0
 41
100.0
 71
5
 72
2
  1
4
  7
normal
 50
0.0
 73
0
 44
1.0
  0
LINE
  5
AB
100
AcDbEntity
100
AcDbLine
  8
help-lines
 62
256
370
-1
  6
ByLayer
 10
420.0
 20
0.0
 30
0.0
 11
420.0
 21
297.0
 31
0.0
  0
LINE
  5
AC
100
AcDbEntity
100
AcDbLine
  8
help-lines
 62
256
370
-1
  6
ByLayer
 10
0.0000000000000355
 20
0.0
 30
0.0
 11
420.0
 21
0.0
 31
0.0
  0
LINE
  5
AD
100
AcDbEntity
100
AcDbLine
  8
help-lines
 62
256
370
-1
  6
ByLayer
 10
124.9999999999999147
 20
297.0000000000001137
 30
0.0
 11
124.9999999999999858
 21
287.0
 31
0.0
  0
LINE
  5
AE
100
AcDbEntity
100
AcDbLine
  8
help-lines
 62
256
370
-1
  6
ByLayer
 10
229.9999999999999432
 20
297.0000000000001137
 30
0.0
 11
230.0000000000000568
 21
287.0
 31
0.0
  0
LINE
  5
AF
100
AcDbEntity
100
AcDbLine
  8
help-lines
 62
256
370
-1
  6
ByLayer
 10
124.9999760000000038
 20
287.0000239999999394
 30
0.0
 11
122.4999759999999469
 21
291.3301510189222654
 31
0.0
  0
LINE
  5
B0
100
AcDbEntity
100
AcDbLine
  8
help-lines
 62
256
370
-1
  6
ByLayer
 10
124.9999760000000038
 20
287.0000239999999394
 30
0.0
 11
127.4999760000000464
 21
291.3301510189221517
 31
0.0
  0
LINE
  5
B1
100
AcDbEntity
100
AcDbLine
  8
help-lines
 62
256
370
-1
  6
ByLayer
 10
122.4999759999999469
 20
291.3301510189222654
 30
0.0
 11
127.4999760000000464
 21
291.3301510189221517
 31
0.0
  0
CIRCLE
  5
B2
100
AcDbEntity
100
AcDbCircle
  8
help-lines
 62
256
370
-1
  6
ByLayer
 10
177.4999999999998863
 20
292.0000000000000568
 30
0.0
 40
3.0
  0
LINE
  5
B3
100
AcDbEntity
100
AcDbLine
  8
help-lines
 62
256
370
-1
  6
ByLayer
 10
229.9999760000000606
 20
287.0000239999999394
 30
0.0
 11
227.4999760000000606
 21
291.3301510189221517
 31
0.0
  0
LINE
  5
B4
100
AcDbEntity
100
AcDbLine
  8
help-lines
 62
256
370
-1
  6
ByLayer
 10
229.9999760000000606
 20
287.0000239999999394
 30
0.0
 11
232.4999759999999469
 21
291.3301510189222654
 31
0.0
  0
LINE
  5
B5
100
AcDbEntity
100
AcDbLine
  8
help-lines
 62
256
370
-1
  6
ByLayer
 10
227.4999760000000606
 20
291.3301510189221517
 30
0.0
 11
232.4999759999999469
 21
291.3301510189222654
 31
0.0
  0
CIRCLE
  5
B6
100
AcDbEntity
100
AcDbCircle
  8
help-lines
 62
256
370
-1
  6
ByLayer
 10
72.4999999999999716
 20
292.0
 30
0.0
 40
3.0
  0
MTEXT
  5
B7
100
AcDbEntity
100
AcDbMText
  8
help-lines
 62
256
370
-1
  6
ByLayer
 10
72.4999999999999716
 20
292.0
 30
0.0
 40
4.0
 41
100.0
 71
5
 72
2
  1
1
  7
normal
 50
0.0
 73
0
 44
1.0
  0
MTEXT
  5
B8
100
AcDbEntity
100
AcDbMText
  8
help-lines
 62
256
370
-1
  6
ByLayer
 10
177.4999999999998863
 20
292.0000000000000568
 30
0.0
 40
4.0
 41
100.0
 71
5
 72
2
  1
2
  7
normal
 50
0.0
 73
0
 44
1.0
  0
CIRCLE
  5
B9
100
AcDbEntity
100
AcDbCircle
  8
help-lines
 62
256
370
-1
  6
ByLayer
 10
278.0
 20
292.0
 30
0.0
 40
3.0
  0
MTEXT
  5
BA
100
AcDbEntity
100
AcDbMText
  8
help-lines
 62
256
370
-1
  6
ByLayer
 10
278.0
 20
292.0
 30
0.0
 40
4.0
 41
100.0
 71
5
 72
2
  1
3
  7
normal
 50
0.0
 73
0
 44
1.0
  0
LINE
  5
BB
100
AcDbEntity
100
AcDbLine
  8
help-lines
 62
256
370
-1
  6
ByLayer
 10
314.9999999999999432
 20
287.0000240000000531
 30
0.0
 11
312.4999999999998863
 21
291.3301510189223222
 31
0.0
  0
LINE
  5
BC
100
AcDbEntity
100
AcDbLine
  8
help-lines
 62
256
370
-1
  6
ByLayer
 10
314.9999999999999432
 20
287.0000240000000531
 30
0.0
 11
317.4999999999999432
 21
291.3301510189222654
 31
0.0
  0
LINE
  5
BD
100
AcDbEntity
100
AcDbLine
  8
help-lines
 62
256
370
-1
  6
ByLayer
 10
312.4999999999998863
 20
291.3301510189223222
 30
0.0
 11
317.4999999999999432
 21
291.3301510189222654
 31
0.0
  0
CIRCLE
  5
BE
100
AcDbEntity
100
AcDbCircle
  8
help-lines
 62
256
370
-1
  6
ByLayer
 10
363.0000239999998826
 20
292.0000000000003411
 30
0.0
 40
3.0
  0
MTEXT
  5
BF
100
AcDbEntity
100
AcDbMText
  8
help-lines
 62
256
370
-1
  6
ByLayer
 10
363.0000239999998826
 20
292.0000000000003411
 30
0.0
 40
4.0
 41
100.0
 71
5
 72
2
  1
4
  7
normal
 50
0.0
 73
0
 44
1.0
  0
ENDBLK
  5
C0
100
AcDbEntity
  8
0
100
AcDbBlockEnd
  0
ENDSEC
  0
SECTION
  2
ENTITIES
  0
HATCH
  5
C1
  8
hatch
 62
256
370
-1
  6
ByLayer
100
AcDbEntity
100
AcDbHatch
 10
0.0
 20
0.0
 30
0.0
210
0.0
220
0.0
230
1.0
  2
ansi31
 70
0
 71
0
 91
1
 92
1
 93
3
 72
1
 10
124.9999760000000038
 20
287.0000239999999394
 11
122.4999759999999327
 21
291.3301510189222654
 72
1
 10
124.9999760000000038
 20
287.0000239999999394
 11
127.4999760000000606
 21
291.3301510189221517
 72
1
 10
122.4999759999999327
 20
291.3301510189222654
 11
127.4999760000000606
 21
291.3301510189221517
 97
0
 75
0
 76
1
 52
4.7123889803846897
 41
0.5
 77
0
 78
1
 53
45.0
 43
0.0
 44
0.0
 45
-0.0883883476483184
 46
0.0883883476483185
 79
0
 98
0
  0
HATCH
  5
C2
  8
hatch
 62
256
370
-1
  6
ByLayer
100
AcDbEntity
100
AcDbHatch
 10
0.0
 20
0.0
 30
0.0
210
0.0
220
0.0
230
1.0
  2
ansi31
 70
0
 71
0
 91
1
 92
1
 93
3
 72
1
 10
229.9999760000000606
 20
287.0000239999999962
 11
227.4999760000000606
 21
291.3301510189221517
 72
1
 10
229.9999760000000606
 20
287.0000239999999962
 11
232.4999759999999185
 21
291.3301510189222654
 72
1
 10
227.4999760000000606
 20
291.3301510189221517
 11
232.4999759999999185
 21
291.3301510189222654
 97
0
 75
0
 76
1
 52
4.7123889803846897
 41
0.5
 77
0
 78
1
 53
45.0
 43
0.0
 44
0.0
 45
-0.0883883476483184
 46
0.0883883476483185
 79
0
 98
0
  0
HATCH
  5
C3
  8
hatch
 62
256
370
-1
  6
ByLayer
100
AcDbEntity
100
AcDbHatch
 10
0.0
 20
0.0
 30
0.0
210
0.0
220
0.0
230
1.0
  2
ansi31
 70
0
 71
0
 91
1
 92
1
 93
3
 72
1
 10
315.0
 20
287.0000240000000531
 11
312.4999999999998863
 21
291.3301510189223222
 72
1
 10
315.0
 20
287.0000240000000531
 11
317.4999999999999432
 21
291.3301510189222086
 72
1
 10
312.4999999999998863
 20
291.3301510189223222
 11
317.4999999999999432
 21
291.3301510189222086
 97
0
 75
0
 76
1
 52
4.7123889803846897
 41
0.5
 77
0
 78
1
 53
45.0
 43
0.0
 44
0.0
 45
-0.0883883476483184
 46
0.0883883476483185
 79
0
 98
0
  0
HATCH
  5
C4
  8
hatch
 62
256
370
-1
  6
ByLayer
100
AcDbEntity
100
AcDbHatch
 10
0.0
 20
0.0
 30
0.0
210
0.0
220
0.0
230
1.0
  2
ansi31
 70
0
 71
0
 91
1
 92
1
 93
3
 72
1
 10
315.0
 20
9.9999759999996236
 11
312.5
 21
5.66984898107766
 72
1
 10
315.0
 20
9.9999759999996236
 11
317.5
 21
5.6698489810779229
 72
1
 10
312.5
 20
5.66984898107766
 11
317.5
 21
5.6698489810779229
 97
0
 75
0
 76
1
 52
4.7123889803846897
 41
0.5
 77
0
 78
1
 53
45.0
 43
0.0
 44
0.0
 45
-0.0883883476483184
 46
0.0883883476483185
 79
0
 98
0
  0
HATCH
  5
C5
  8
hatch
 62
256
370
-1
  6
ByLayer
100
AcDbEntity
100
AcDbHatch
 10
0.0
 20
0.0
 30
0.0
210
0.0
220
0.0
230
1.0
  2
ansi31
 70
0
 71
0
 91
1
 92
1
 93
3
 72
1
 10
229.9999760000000606
 20
9.9999760000006805
 11
227.4999760000000606
 21
5.6698489810772301
 72
1
 10
229.9999760000000606
 20
9.9999760000006805
 11
232.4999760000000606
 21
5.6698489810770445
 72
1
 10
227.4999760000000606
 20
5.6698489810772301
 11
232.4999760000000606
 21
5.6698489810770445
 97
0
 75
0
 76
1
 52
4.7123889803846897
 41
0.5
 77
0
 78
1
 53
45.0
 43
0.0
 44
0.0
 45
-0.0883883476483184
 46
0.0883883476483185
 79
0
 98
0
  0
HATCH
  5
C6
  8
hatch
 62
256
370
-1
  6
ByLayer
100
AcDbEntity
100
AcDbHatch
 10
0.0
 20
0.0
 30
0.0
210
0.0
220
0.0
230
1.0
  2
ansi31
 70
0
 71
0
 91
1
 92
1
 93
3
 72
1
 10
124.9999760000000606
 20
9.9999760000001352
 11
122.4999760000000464
 21
5.6698489810779051
 72
1
 10
124.9999760000000606
 20
9.9999760000001352
 11
127.4999760000000606
 21
5.6698489810777319
 72
1
 10
122.4999760000000464
 20
5.6698489810779051
 11
127.4999760000000606
 21
5.6698489810777319
 97
0
 75
0
 76
1
 52
4.7123889803846897
 41
0.5
 77
0
 78
1
 53
45.0
 43
0.0
 44
0.0
 45
-0.0883883476483184
 46
0.0883883476483185
 79
0
 98
0
  0
HATCH
  5
C7
  8
hatch
 62
256
370
-1
  6
ByLayer
100
AcDbEntity
100
AcDbHatch
 10
0.0
 20
0.0
 30
0.0
210
0.0
220
0.0
230
1.0
  2
ansi31
 70
0
 71
0
 91
1
 92
1
 93
3
 72
1
 10
410.0000000000002274
 20
148.5000000000000284
 11
414.330127018922667
 21
146.0000000000001421
 72
1
 10
410.0000000000002274
 20
148.5000000000000284
 11
414.3301270189222123
 21
150.999999999999801
 72
1
 10
414.330127018922667
 20
146.0000000000001421
 11
414.3301270189222123
 21
150.999999999999801
 97
0
 75
0
 76
1
 52
3.1415926535897931
 41
0.5
 77
0
 78
1
 53
45.0
 43
0.0
 44
0.0
 45
-0.0883883476483184
 46
0.0883883476483185
 79
0
 98
0
  0
HATCH
  5
C8
  8
hatch
 62
256
370
-1
  6
ByLayer
100
AcDbEntity
100
AcDbHatch
 10
0.0
 20
0.0
 30
0.0
210
0.0
220
0.0
230
1.0
  2
ansi31
 70
0
 71
0
 91
1
 92
1
 93
3
 72
1
 10
19.9999999999998934
 20
148.5
 11
15.6698729810776918
 21
146.0
 72
1
 10
19.9999999999998934
 20
148.5
 11
15.6698729810777078
 21
151.0
 72
1
 10
15.6698729810776918
 20
146.0
 11
15.6698729810777078
 21
151.0
 97
0
 75
0
 76
1
 52
0.0
 41
0.5
 77
0
 78
1
 53
45.0
 43
0.0
 44
0.0
 45
-0.0883883476483184
 46
0.0883883476483185
 79
0
 98
0
  0
CIRCLE
  5
C9
100
AcDbEntity
100
AcDbCircle
  8
help-lines
 62
256
370
-1
  6
ByLayer
 10
15.0000000000000231
 20
222.7500000000001137
 30
0.0
 40
3.0
  0
LINE
  5
CA
100
AcDbEntity
100
AcDbLine
  8
help-lines
 62
256
370
-1
  6
ByLayer
 10
19.9999999999998934
 20
148.5
 30
0.0
 11
15.6698729810776918
 21
146.0
 31
0.0
  0
LINE
  5
CB
100
AcDbEntity
100
AcDbLine
  8
help-lines
 62
256
370
-1
  6
ByLayer
 10
19.9999999999998934
 20
148.5
 30
0.0
 11
15.6698729810777078
 21
151.0
 31
0.0
  0
LINE
  5
CC
100
AcDbEntity
100
AcDbLine
  8
help-lines
 62
256
370
-1
  6
ByLayer
 10
15.6698729810776918
 20
146.0
 30
0.0
 11
15.6698729810777078
 21
151.0
 31
0.0
  0
CIRCLE
  5
CD
100
AcDbEntity
100
AcDbCircle
  8
help-lines
 62
256
370
-1
  6
ByLayer
 10
15.0000000000000018
 20
74.2500000000001137
 30
0.0
 40
3.0
  0
MTEXT
  5
CE
100
AcDbEntity
100
AcDbMText
  8
help-lines
 62
256
370
-1
  6
ByLayer
 10
15.0000000000000018
 20
74.2500000000001137
 30
0.0
 40
4.0
 41
100.0
 71
5
 72
2
  1
A
  7
normal
 50
6.2831853071795862
 73
0
 44
1.0
  0
MTEXT
  5
CF
100
AcDbEntity
100
AcDbMText
  8
help-lines
 62
256
370
-1
  6
ByLayer
 10
15.0000000000000231
 20
222.7500000000001137
 30
0.0
 40
4.0
 41
100.0
 71
5
 72
2
  1
B
  7
normal
 50
6.2831853071795862
 73
0
 44
1.0
  0
LINE
  5
D0
100
AcDbEntity
100
AcDbLine
  8
border
 62
256
370
-1
  6
ByLayer
 10
20.0
 20
287.0
 30
0.0
 11
20.0
 21
10.0000000000000018
 31
0.0
  0
LINE
  5
D1
100
AcDbEntity
100
AcDbLine
  8
help-lines
 62
256
370
-1
  6
ByLayer
 10
0.0000000000000182
 20
297.0
 30
0.0
 11
0.0
 21
0.0
 31
0.0
  0
LINE
  5
D2
100
AcDbEntity
100
AcDbLine
  8
border
 62
256
370
-1
  6
ByLayer
 10
20.0
 20
10.0000000000000018
 30
0.0
 11
410.0
 21
9.9999999999999449
 31
0.0
  0
LINE
  5
D3
100
AcDbEntity
100
AcDbLine
  8
border
 62
256
370
-1
  6
ByLayer
 10
373.6000209999999697
 20
65.2500939999999616
 30
0.0
 11
373.6000209999999697
 21
58.8750519999999113
 31
0.0
  0
LINE
  5
D4
100
AcDbEntity
100
AcDbLine
  8
border
 62
256
370
-1
  6
ByLayer
 10
397.0
 20
26.9999870000000008
 30
0.0
 11
397.0
 21
14.2500419999993451
 31
0.0
  0
LINE
  5
D5
100
AcDbEntity
100
AcDbLine
  8
border
 62
256
370
-1
  6
ByLayer
 10
365.8000340000000961
 20
14.2501070000014067
 30
0.0
 11
365.8000340000000961
 21
10.0000979999998805
 31
0.0
  0
LINE
  5
D6
100
AcDbEntity
100
AcDbLine
  8
border
 62
256
370
-1
  6
ByLayer
 10
303.4000240000000304
 20
65.2500969999999825
 30
0.0
 11
303.4000240000000304
 21
27.0000590000001708
 31
0.0
  0
LINE
  5
D7
100
AcDbEntity
100
AcDbLine
  8
border
 62
256
370
-1
  6
ByLayer
 10
287.8000179999999091
 20
48.2500900000001423
 30
0.0
 11
287.8000179999999091
 21
27.0001360000000403
 31
0.0
  0
LINE
  5
D8
100
AcDbEntity
100
AcDbLine
  8
border
 62
256
370
-1
  6
ByLayer
 10
277.4000240000000304
 20
65.2500900000000428
 30
0.0
 11
277.4000240000000304
 21
10.0000939999988514
 31
0.0
  0
LINE
  5
D9
100
AcDbEntity
100
AcDbLine
  8
border
 62
256
370
-1
  6
ByLayer
 10
321.6000059999998939
 20
65.2501390000000328
 30
0.0
 11
321.6000059999998939
 21
10.0000970000005864
 31
0.0
  0
LINE
  5
DA
100
AcDbEntity
100
AcDbLine
  8
border
 62
256
370
-1
  6
ByLayer
 10
269.6000059999998939
 20
48.2500819999998143
 30
0.0
 11
269.6000369999999293
 21
10.0000989999999028
 31
0.0
  0
LINE
  5
DB
100
AcDbEntity
100
AcDbLine
  8
border
 62
256
370
-1
  6
ByLayer
 10
256.6000059999998939
 20
48.2501010000001997
 30
0.0
 11
256.6000059999998939
 21
10.0000910000005998
 31
0.0
  0
LINE
  5
DC
100
AcDbEntity
100
AcDbLine
  8
border
 62
256
370
-1
  6
ByLayer
 10
230.6000060000000076
 20
48.2501130000000131
 30
0.0
 11
230.6000060000000076
 21
10.0000929999996533
 31
0.0
  0
LINE
  5
DD
100
AcDbEntity
100
AcDbLine
  8
border
 62
256
370
-1
  6
ByLayer
 10
222.8000180000000228
 20
31.2500749999997716
 30
0.0
 11
321.6000059999998939
 21
31.2500920000003575
 31
0.0
  0
LINE
  5
DE
100
AcDbEntity
100
AcDbLine
  8
border
 62
256
370
-1
  6
ByLayer
 10
222.8000180000000228
 20
35.5000799999999401
 30
0.0
 11
321.6000059999998939
 21
35.5001150000000152
 31
0.0
  0
LINE
  5
DF
100
AcDbEntity
100
AcDbLine
  8
border
 62
256
370
-1
  6
ByLayer
 10
222.8000180000000228
 20
39.7501159999999771
 30
0.0
 11
321.6000369999999293
 21
39.7500669999999729
 31
0.0
  0
LINE
  5
E0
100
AcDbEntity
100
AcDbLine
  8
border
 62
256
370
-1
  6
ByLayer
 10
222.8000180000000228
 20
44.0000969999998901
 30
0.0
 11
321.6000369999999293
 21
44.0000859999997687
 31
0.0
  0
LINE
  5
E1
100
AcDbEntity
100
AcDbLine
  8
border
 62
256
370
-1
  6
ByLayer
 10
222.8000180000000228
 20
22.750054999999751
 30
0.0
 11
277.4000240000000304
 21
22.7500610000002332
 31
0.0
  0
LINE
  5
E2
100
AcDbEntity
100
AcDbLine
  8
border
 62
256
370
-1
  6
ByLayer
 10
222.8000180000000228
 20
18.5000540000000306
 30
0.0
 11
277.4000240000000304
 21
18.5001220000002569
 31
0.0
  0
LINE
  5
E3
100
AcDbEntity
100
AcDbLine
  8
border
 62
256
370
-1
  6
ByLayer
 10
321.6000059999998939
 20
58.8751199999998818
 30
0.0
 11
410.0
 21
58.8750400000001406
 31
0.0
  0
LINE
  5
E4
100
AcDbEntity
100
AcDbLine
  8
border
 62
256
370
-1
  6
ByLayer
 10
222.8000180000000228
 20
14.2500829999998544
 30
0.0
 11
410.0
 21
14.2500899999991635
 31
0.0
  0
LINE
  5
E5
100
AcDbEntity
100
AcDbLine
  8
border
 62
256
370
-1
  6
ByLayer
 10
222.8000180000000228
 20
48.2500859999998397
 30
0.0
 11
410.0000609999999597
 21
48.2501010000001926
 31
0.0
  0
LINE
  5
E6
100
AcDbEntity
100
AcDbLine
  8
border
 62
256
370
-1
  6
ByLayer
 10
222.8000180000000228
 20
27.0001070000001313
 30
0.0
 11
410.0000609999999597
 21
26.9999930000003481
 31
0.0
  0
LINE
  5
E7
100
AcDbEntity
100
AcDbLine
  8
border
 62
256
370
-1
  6
ByLayer
 10
222.8000180000000228
 20
65.2500859999999392
 30
0.0
 11
410.0
 21
65.250165999999922
 31
0.0
  0
LINE
  5
E8
100
AcDbEntity
100
AcDbLine
  8
border
 62
256
370
-1
  6
ByLayer
 10
410.0000609999999597
 20
65.2501810000001541
 30
0.0
 11
410.0
 21
9.9999999999999449
 31
0.0
  0
LINE
  5
E9
100
AcDbEntity
100
AcDbLine
  8
border
 62
256
370
-1
  6
ByLayer
 10
410.0
 20
9.9999999999999449
 30
0.0
 11
222.8000180000000228
 21
10.0001009999996562
 31
0.0
  0
LINE
  5
EA
100
AcDbEntity
100
AcDbLine
  8
border
 62
256
370
-1
  6
ByLayer
 10
222.8000180000000228
 20
65.2500859999999392
 30
0.0
 11
222.8000180000000228
 21
10.0001009999996562
 31
0.0
  0
LINE
  5
EB
100
AcDbEntity
100
AcDbLine
  8
default
 62
256
370
-1
  6
ByLayer
 10
280.2711420000000544
 20
57.242875999999967
 30
0.0
 11
300.2711420000000544
 21
57.2428759999998746
 31
0.0
  0
CIRCLE
  5
EC
100
AcDbEntity
100
AcDbCircle
  8
default
 62
256
370
-1
  6
ByLayer
 10
295.4711420000000999
 20
57.2428759999997254
 30
0.0
 40
2.7999999999999998
  0
CIRCLE
  5
ED
100
AcDbEntity
100
AcDbCircle
  8
default
 62
256
370
-1
  6
ByLayer
 10
295.4711420000000999
 20
57.2428759999997254
 30
0.0
 40
1.6000000000000001
  0
LINE
  5
EE
100
AcDbEntity
100
AcDbLine
  8
default
 62
256
370
-1
  6
ByLayer
 10
282.671141999999918
 20
58.8428759999999542
 30
0.0
 11
282.671141999999918
 21
55.6428760000000295
 31
0.0
  0
LINE
  5
EF
100
AcDbEntity
100
AcDbLine
  8
default
 62
256
370
-1
  6
ByLayer
 10
282.671141999999918
 20
55.6428760000000295
 30
0.0
 11
289.0711420000000089
 21
54.4428759999999343
 31
0.0
  0
LINE
  5
F0
100
AcDbEntity
100
AcDbLine
  8
default
 62
256
370
-1
  6
ByLayer
 10
289.0711420000000089
 20
60.0428760000000494
 30
0.0
 11
289.0711420000000089
 21
54.4428759999999343
 31
0.0
  0
LINE
  5
F1
100
AcDbEntity
100
AcDbLine
  8
default
 62
256
370
-1
  6
ByLayer
 10
282.671141999999918
 20
58.8428759999999542
 30
0.0
 11
289.0711420000000089
 21
60.0428760000000494
 31
0.0
  0
LINE
  5
F2
100
AcDbEntity
100
AcDbLine
  8
default
 62
256
370
-1
  6
ByLayer
 10
295.4711420000000999
 20
52.4428759999998775
 30
0.0
 11
295.4711420000000999
 21
62.0428760000000423
 31
0.0
  0
MTEXT
  5
F3
100
AcDbEntity
100
AcDbMText
  8
text
 62
256
370
-1
  6
ByLayer
 10
322.7262570000000323
 20
60.812605000000012
 30
0.0
 40
2.5
 41
100.0
 71
7
 72
2
  1
scale\~\~1\~:\~1
  7
Normal#0.500000#1.500000
 50
0.0
 73
1
 44
1.0
  0
MTEXT
  5
F4
100
AcDbEntity
100
AcDbMText
  8
text
 62
256
370
-1
  6
ByLayer
 10
374.7262419999999565
 20
60.812655000000035
 30
0.0
 40
2.5
 41
100.0
 71
7
 72
2
  1
(mass)
  7
Normal#0.500000#1.500000
 50
0.0
 73
1
 44
1.0
  0
MTEXT
  5
F5
100
AcDbEntity
100
AcDbMText
  8
text
 62
256
370
-1
  6
ByLayer
 10
322.7620850000000701
 20
55.3464299999998772
 30
0.0
 40
2.5
 41
100.0
 71
7
 72
2
  1
(material,\~specification)
  7
Normal#0.500000#1.500000
 50
0.0
 73
1
 44
1.0
  0
MTEXT
  5
F6
100
AcDbEntity
100
AcDbMText
  8
text
 62
256
370
-1
  6
ByLayer
 10
290.6053770000000895
 20
44.8750899999999007
 30
0.0
 40
2.5
 41
100.0
 71
7
 72
2
  1
date
  7
Normal#0.500000#1.200000
 50
0.0
 73
1
 44
1.0
  0
MTEXT
  5
F7
100
AcDbEntity
100
AcDbMText
  8
text
 62
256
370
-1
  6
ByLayer
 10
308.1733400000000529
 20
44.8750820000000701
 30
0.0
 40
2.5
 41
100.0
 71
7
 72
2
  1
name
  7
Normal#0.500000#1.200000
 50
0.0
 73
1
 44
1.0
  0
MTEXT
  5
F8
100
AcDbEntity
100
AcDbMText
  8
text
 62
256
370
-1
  6
ByLayer
 10
277.7130429999999706
 20
40.6250480000001417
 30
0.0
 40
2.5
 41
100.0
 71
7
 72
2
  1
desig.
  7
Normal#0.500000#1.200000
 50
0.0
 73
1
 44
1.0
  0
MTEXT
  5
F9
100
AcDbEntity
100
AcDbMText
  8
text
 62
256
370
-1
  6
ByLayer
 10
277.8989559999999983
 20
32.1251089999998527
 30
0.0
 40
2.5
 41
100.0
 71
7
 72
2
  1
auth.
  7
Normal#0.500000#1.200000
 50
0.0
 73
1
 44
1.0
  0
MTEXT
  5
FA
100
AcDbEntity
100
AcDbMText
  8
text
 62
256
370
-1
  6
ByLayer
 10
223.1147459999999683
 20
10.8750959999997043
 30
0.0
 40
2.5
 41
100.0
 71
7
 72
2
  1
loc
  7
Normal#0.500000#1.200000
 50
0.0
 73
1
 44
1.0
  0
MTEXT
  5
FB
100
AcDbEntity
100
AcDbMText
  8
text
 62
256
370
-1
  6
ByLayer
 10
236.1854550000000472
 20
10.8750949999998543
 30
0.0
 40
2.5
 41
100.0
 71
7
 72
2
  1
change
  7
Normal#0.500000#1.200000
 50
0.0
 73
1
 44
1.0
  0
MTEXT
  5
FC
100
AcDbEntity
100
AcDbMText
  8
text
 62
256
370
-1
  6
ByLayer
 10
258.4116520000000037
 20
10.8751320000002512
 30
0.0
 40
2.5
 41
100.0
 71
7
 72
2
  1
date
  7
Normal#0.500000#1.200000
 50
0.0
 73
1
 44
1.0
  0
MTEXT
  5
FD
100
AcDbEntity
100
AcDbMText
  8
text
 62
256
370
-1
  6
ByLayer
 10
269.6750489999999445
 20
10.8750649999996529
 30
0.0
 40
2.5
 41
100.0
 71
7
 72
2
  1
name
  7
Normal#0.200000#1.200000
 50
0.0
 73
1
 44
1.0
  0
MTEXT
  5
FE
100
AcDbEntity
100
AcDbMText
  8
text
 62
256
370
-1
  6
ByLayer
 10
278.6523440000000846
 20
10.8750629999996864
 30
0.0
 40
2.5
 41
100.0
 71
7
 72
2
  1
project
  7
Normal#0.500000#1.200000
 50
0.0
 73
1
 44
1.0
  0
MTEXT
  5
FF
100
AcDbEntity
100
AcDbMText
  8
text
 62
256
370
-1
  6
ByLayer
 10
323.276732999999922
 20
10.8751210000004725
 30
0.0
 40
2.5
 41
100.0
 71
7
 72
2
  1
replaces
  7
Normal#0.500000#1.500000
 50
0.0
 73
1
 44
1.0
  0
MTEXT
  5
100
100
AcDbEntity
100
AcDbMText
  8
text
 62
256
370
-1
  6
ByLayer
 10
367.4767300000000887
 20
10.8751939999983058
 30
0.0
 40
2.5
 41
100.0
 71
7
 72
2
  1
replaced\~by
  7
Normal#0.500000#1.500000
 50
0.0
 73
1
 44
1.0
  0
MTEXT
  5
101
100
AcDbEntity
100
AcDbMText
  8
text
 62
256
370
-1
  6
ByLayer
 10
399.8399050000000443
 20
15.2375700000013286
 30
0.0
 40
2.0
 41
100.0
 71
7
 72
2
  1
sheet
  7
Normal#0.500000#0.900000
 50
0.0
 73
1
 44
1.0
  0
MTEXT
  5
102
100
AcDbEntity
100
AcDbMText
  8
text
 62
256
370
-1
  6
ByLayer
 10
322.4965760000000046
 20
28.7480339999996062
 30
0.0
 40
2.5
 41
100.0
 71
7
 72
2
  1
part\~name
  7
Normal#0.500000#0.900000
 50
0.0
 73
1
 44
1.0
  0
MTEXT
  5
103
100
AcDbEntity
100
AcDbMText
  8
text
 62
256
370
-1
  6
ByLayer
 10
322.2766879999999219
 20
15.334817000000033
 30
0.0
 40
2.5
 41
100.0
 71
7
 72
2
  1
part\~number
  7
Normal#0.500000#0.900000
 50
0.0
 73
1
 44
1.0
  0
CIRCLE
  5
104
100
AcDbEntity
100
AcDbCircle
  8
help-lines
 62
256
370
-1
  6
ByLayer
 10
414.9999999999997726
 20
222.7499999999999432
 30
0.0
 40
3.0
  0
LINE
  5
105
100
AcDbEntity
100
AcDbLine
  8
help-lines
 62
256
370
-1
  6
ByLayer
 10
410.0000000000002274
 20
148.5000000000000284
 30
0.0
 11
414.330127018922667
 21
146.0000000000001421
 31
0.0
  0
LINE
  5
106
100
AcDbEntity
100
AcDbLine
  8
help-lines
 62
256
370
-1
  6
ByLayer
 10
410.0000000000002274
 20
148.5000000000000284
 30
0.0
 11
414.3301270189222123
 21
150.999999999999801
 31
0.0
  0
LINE
  5
107
100
AcDbEntity
100
AcDbLine
  8
help-lines
 62
256
370
-1
  6
ByLayer
 10
414.330127018922667
 20
146.0000000000001421
 30
0.0
 11
414.3301270189222123
 21
150.999999999999801
 31
0.0
  0
CIRCLE
  5
108
100
AcDbEntity
100
AcDbCircle
  8
help-lines
 62
256
370
-1
  6
ByLayer
 10
415.0
 20
74.2500000000000711
 30
0.0
 40
3.0
  0
MTEXT
  5
109
100
AcDbEntity
100
AcDbMText
  8
help-lines
 62
256
370
-1
  6
ByLayer
 10
415.0
 20
74.2500000000000711
 30
0.0
 40
4.0
 41
100.0
 71
5
 72
2
  1
A
  7
normal
 50
6.2831853071795862
 73
0
 44
1.0
  0
MTEXT
  5
10A
100
AcDbEntity
100
AcDbMText
  8
help-lines
 62
256
370
-1
  6
ByLayer
 10
414.9999999999997726
 20
222.7499999999999432
 30
0.0
 40
4.0
 41
100.0
 71
5
 72
2
  1
B
  7
normal
 50
6.2831853071795862
 73
0
 44
1.0
  0
LINE
  5
10B
100
AcDbEntity
100
AcDbLine
  8
border
 62
256
370
-1
  6
ByLayer
 10
20.0
 20
287.0
 30
0.0
 11
410.0
 21
286.9999999999999432
 31
0.0
  0
LINE
  5
10C
100
AcDbEntity
100
AcDbLine
  8
border
 62
256
370
-1
  6
ByLayer
 10
410.0
 20
286.9999999999999432
 30
0.0
 11
410.0
 21
9.9999999999999449
 31
0.0
  0
LINE
  5
10D
100
AcDbEntity
100
AcDbLine
  8
help-lines
 62
256
370
-1
  6
ByLayer
 10
420.0
 20
297.0
 30
0.0
 11
0.0000000000000182
 21
297.0
 31
0.0
  0
LINE
  5
10E
100
AcDbEntity
100
AcDbLine
  8
help-lines
 62
256
370
-1
  6
ByLayer
 10
125.0
 20
0.0
 30
0.0
 11
124.9999999999999858
 21
9.9999999999999023
 31
0.0
  0
LINE
  5
10F
100
AcDbEntity
100
AcDbLine
  8
help-lines
 62
256
370
-1
  6
ByLayer
 10
230.0
 20
0.0
 30
0.0
 11
230.0
 21
10.0000000000004761
 31
0.0
  0
LINE
  5
110
100
AcDbEntity
100
AcDbLine
  8
help-lines
 62
256
370
-1
  6
ByLayer
 10
124.9999760000000606
 20
9.9999760000001352
 30
0.0
 11
122.4999760000000464
 21
5.6698489810779051
 31
0.0
  0
LINE
  5
111
100
AcDbEntity
100
AcDbLine
  8
help-lines
 62
256
370
-1
  6
ByLayer
 10
124.9999760000000606
 20
9.9999760000001352
 30
0.0
 11
127.4999760000000606
 21
5.6698489810777319
 31
0.0
  0
LINE
  5
112
100
AcDbEntity
100
AcDbLine
  8
help-lines
 62
256
370
-1
  6
ByLayer
 10
122.4999760000000464
 20
5.6698489810779051
 30
0.0
 11
127.4999760000000606
 21
5.6698489810777319
 31
0.0
  0
CIRCLE
  5
113
100
AcDbEntity
100
AcDbCircle
  8
help-lines
 62
256
370
-1
  6
ByLayer
 10
177.4999999999999432
 20
4.9999999999990186
 30
0.0
 40
3.0
  0
LINE
  5
114
100
AcDbEntity
100
AcDbLine
  8
help-lines
 62
256
370
-1
  6
ByLayer
 10
229.9999760000000606
 20
9.9999760000006805
 30
0.0
 11
227.4999760000000606
 21
5.6698489810772301
 31
0.0
  0
LINE
  5
115
100
AcDbEntity
100
AcDbLine
  8
help-lines
 62
256
370
-1
  6
ByLayer
 10
229.9999760000000606
 20
9.9999760000006805
 30
0.0
 11
232.4999760000000606
 21
5.6698489810770445
 31
0.0
  0
LINE
  5
116
100
AcDbEntity
100
AcDbLine
  8
help-lines
 62
256
370
-1
  6
ByLayer
 10
227.4999760000000606
 20
5.6698489810772301
 30
0.0
 11
232.4999760000000606
 21
5.6698489810770445
 31
0.0
  0
CIRCLE
  5
117
100
AcDbEntity
100
AcDbCircle
  8
help-lines
 62
256
370
-1
  6
ByLayer
 10
72.4999999999999858
 20
4.9999999999999316
 30
0.0
 40
3.0
  0
MTEXT
  5
118
100
AcDbEntity
100
AcDbMText
  8
help-lines
 62
256
370
-1
  6
ByLayer
 10
72.4999999999999858
 20
4.9999999999999316
 30
0.0
 40
4.0
 41
100.0
 71
5
 72
2
  1
1
  7
normal
 50
0.0
 73
0
 44
1.0
  0
MTEXT
  5
119
100
AcDbEntity
100
AcDbMText
  8
help-lines
 62
256
370
-1
  6
ByLayer
 10
177.4999999999999432
 20
4.9999999999990186
 30
0.0
 40
4.0
 41
100.0
 71
5
 72
2
  1
2
  7
normal
 50
0.0
 73
0
 44
1.0
  0
CIRCLE
  5
11A
100
AcDbEntity
100
AcDbCircle
  8
help-lines
 62
256
370
-1
  6
ByLayer
 10
278.0
 20
5.0000000000001039
 30
0.0
 40
3.0
  0
MTEXT
  5
11B
100
AcDbEntity
100
AcDbMText
  8
help-lines
 62
256
370
-1
  6
ByLayer
 10
278.0
 20
5.0000000000001039
 30
0.0
 40
4.0
 41
100.0
 71
5
 72
2
  1
3
  7
normal
 50
0.0
 73
0
 44
1.0
  0
LINE
  5
11C
100
AcDbEntity
100
AcDbLine
  8
help-lines
 62
256
370
-1
  6
ByLayer
 10
315.0
 20
9.9999759999996236
 30
0.0
 11
312.5
 21
5.66984898107766
 31
0.0
  0
LINE
  5
11D
100
AcDbEntity
100
AcDbLine
  8
help-lines
 62
256
370
-1
  6
ByLayer
 10
315.0
 20
9.9999759999996236
 30
0.0
 11
317.5
 21
5.6698489810779229
 31
0.0
  0
LINE
  5
11E
100
AcDbEntity
100
AcDbLine
  8
help-lines
 62
256
370
-1
  6
ByLayer
 10
312.5
 20
5.66984898107766
 30
0.0
 11
317.5
 21
5.6698489810779229
 31
0.0
  0
CIRCLE
  5
11F
100
AcDbEntity
100
AcDbCircle
  8
help-lines
 62
256
370
-1
  6
ByLayer
 10
363.0000239999999394
 20
4.9999999999996136
 30
0.0
 40
3.0
  0
MTEXT
  5
120
100
AcDbEntity
100
AcDbMText
  8
help-lines
 62
256
370
-1
  6
ByLayer
 10
363.0000239999999394
 20
4.9999999999996136
 30
0.0
 40
4.0
 41
100.0
 71
5
 72
2
  1
4
  7
normal
 50
0.0
 73
0
 44
1.0
  0
LINE
  5
121
100
AcDbEntity
100
AcDbLine
  8
help-lines
 62
256
370
-1
  6
ByLayer
 10
420.0
 20
0.0
 30
0.0
 11
420.0
 21
297.0
 31
0.0
  0
LINE
  5
122
100
AcDbEntity
100
AcDbLine
  8
help-lines
 62
256
370
-1
  6
ByLayer
 10
0.0000000000000355
 20
0.0
 30
0.0
 11
420.0
 21
0.0
 31
0.0
  0
LINE
  5
123
100
AcDbEntity
100
AcDbLine
  8
help-lines
 62
256
370
-1
  6
ByLayer
 10
124.9999999999999289
 20
297.0000000000001705
 30
0.0
 11
124.9999999999999716
 21
287.0
 31
0.0
  0
LINE
  5
124
100
AcDbEntity
100
AcDbLine
  8
help-lines
 62
256
370
-1
  6
ByLayer
 10
229.9999999999999432
 20
297.0000000000001705
 30
0.0
 11
230.0000000000000284
 21
287.0
 31
0.0
  0
LINE
  5
125
100
AcDbEntity
100
AcDbLine
  8
help-lines
 62
256
370
-1
  6
ByLayer
 10
124.9999760000000038
 20
287.0000239999999394
 30
0.0
 11
122.4999759999999327
 21
291.3301510189222654
 31
0.0
  0
LINE
  5
126
100
AcDbEntity
100
AcDbLine
  8
help-lines
 62
256
370
-1
  6
ByLayer
 10
124.9999760000000038
 20
287.0000239999999394
 30
0.0
 11
127.4999760000000606
 21
291.3301510189221517
 31
0.0
  0
LINE
  5
127
100
AcDbEntity
100
AcDbLine
  8
help-lines
 62
256
370
-1
  6
ByLayer
 10
122.4999759999999327
 20
291.3301510189222654
 30
0.0
 11
127.4999760000000606
 21
291.3301510189221517
 31
0.0
  0
CIRCLE
  5
128
100
AcDbEntity
100
AcDbCircle
  8
help-lines
 62
256
370
-1
  6
ByLayer
 10
177.4999999999998579
 20
292.0000000000000568
 30
0.0
 40
3.0
  0
LINE
  5
129
100
AcDbEntity
100
AcDbLine
  8
help-lines
 62
256
370
-1
  6
ByLayer
 10
229.9999760000000606
 20
287.0000239999999962
 30
0.0
 11
227.4999760000000606
 21
291.3301510189221517
 31
0.0
  0
LINE
  5
12A
100
AcDbEntity
100
AcDbLine
  8
help-lines
 62
256
370
-1
  6
ByLayer
 10
229.9999760000000606
 20
287.0000239999999962
 30
0.0
 11
232.4999759999999185
 21
291.3301510189222654
 31
0.0
  0
LINE
  5
12B
100
AcDbEntity
100
AcDbLine
  8
help-lines
 62
256
370
-1
  6
ByLayer
 10
227.4999760000000606
 20
291.3301510189221517
 30
0.0
 11
232.4999759999999185
 21
291.3301510189222654
 31
0.0
  0
CIRCLE
  5
12C
100
AcDbEntity
100
AcDbCircle
  8
help-lines
 62
256
370
-1
  6
ByLayer
 10
72.4999999999999716
 20
292.0
 30
0.0
 40
3.0
  0
MTEXT
  5
12D
100
AcDbEntity
100
AcDbMText
  8
help-lines
 62
256
370
-1
  6
ByLayer
 10
72.4999999999999716
 20
292.0
 30
0.0
 40
4.0
 41
100.0
 71
5
 72
2
  1
1
  7
normal
 50
0.0
 73
0
 44
1.0
  0
MTEXT
  5
12E
100
AcDbEntity
100
AcDbMText
  8
help-lines
 62
256
370
-1
  6
ByLayer
 10
177.4999999999998579
 20
292.0000000000000568
 30
0.0
 40
4.0
 41
100.0
 71
5
 72
2
  1
2
  7
normal
 50
0.0
 73
0
 44
1.0
  0
CIRCLE
  5
12F
100
AcDbEntity
100
AcDbCircle
  8
help-lines
 62
256
370
-1
  6
ByLayer
 10
278.0
 20
292.0
 30
0.0
 40
3.0
  0
MTEXT
  5
130
100
AcDbEntity
100
AcDbMText
  8
help-lines
 62
256
370
-1
  6
ByLayer
 10
278.0
 20
292.0
 30
0.0
 40
4.0
 41
100.0
 71
5
 72
2
  1
3
  7
normal
 50
0.0
 73
0
 44
1.0
  0
LINE
  5
131
100
AcDbEntity
100
AcDbLine
  8
help-lines
 62
256
370
-1
  6
ByLayer
 10
315.0
 20
287.0000240000000531
 30
0.0
 11
312.4999999999998863
 21
291.3301510189223222
 31
0.0
  0
LINE
  5
132
100
AcDbEntity
100
AcDbLine
  8
help-lines
 62
256
370
-1
  6
ByLayer
 10
315.0
 20
287.0000240000000531
 30
0.0
 11
317.4999999999999432
 21
291.3301510189222086
 31
0.0
  0
LINE
  5
133
100
AcDbEntity
100
AcDbLine
  8
help-lines
 62
256
370
-1
  6
ByLayer
 10
312.4999999999998863
 20
291.3301510189223222
 30
0.0
 11
317.4999999999999432
 21
291.3301510189222086
 31
0.0
  0
CIRCLE
  5
134
100
AcDbEntity
100
AcDbCircle
  8
help-lines
 62
256
370
-1
  6
ByLayer
 10
363.0000239999998826
 20
292.0000000000003411
 30
0.0
 40
3.0
  0
MTEXT
  5
135
100
AcDbEntity
100
AcDbMText
  8
help-lines
 62
256
370
-1
  6
ByLayer
 10
363.0000239999998826
 20
292.0000000000003411
 30
0.0
 40
4.0
 41
100.0
 71
5
 72
2
  1
4
  7
normal
 50
0.0
 73
0
 44
1.0
  0
MTEXT
  5
136
100
AcDbEntity
100
AcDbMText
  8
text
 62
256
370
-1
  6
ByLayer
 10
223.1147459999999683
 20
15.1251792916661891
 30
0.0
 40
2.5
 41
100.0
 71
7
 72
2
  1
A1
  7
Normal#0.500000#1.200000
 50
0.0
 73
1
 44
1.0
  0
MTEXT
  5
137
100
AcDbEntity
100
AcDbMText
  8
text
 62
256
370
-1
  6
ByLayer
 10
232.2019345855434267
 20
15.1251781427097498
 30
0.0
 40
2.5
 41
100.0
 71
7
 72
2
  1
initial\~design
  7
Normal#0.500000#1.200000
 50
0.0
 73
1
 44
1.0
  0
MTEXT
  5
138
100
AcDbEntity
100
AcDbMText
  8
text
 62
256
370
-1
  6
ByLayer
 10
256.6190678060468144
 20
15.1252152246357934
 30
0.0
 40
2.5
 41
100.0
 71
7
 72
2
  1
01/01/01
  7
iso8859-11
 50
0.0
 73
1
 44
1.0
  0
MTEXT
  5
139
100
AcDbEntity
100
AcDbMText
  8
text
 62
256
370
-1
  6
ByLayer
 10
270.6709291036140712
 20
15.1251483289053006
 30
0.0
 40
2.5
 41
100.0
 71
7
 72
2
  1
DDil
  7
Normal#0.200000#1.200000
 50
0.0
 73
1
 44
1.0
  0
MTEXT
  5
13A
100
AcDbEntity
100
AcDbMText
  8
text
 62
256
370
-1
  6
ByLayer
 10
288.1130369999998493
 20
40.62504166667172
 30
0.0
 40
2.5
 41
100.0
 71
7
 72
2
  1
07/01/04
  7
Normal#0.500000#1.200000
 50
0.0
 73
1
 44
1.0
  0
MTEXT
  5
13B
100
AcDbEntity
100
AcDbMText
  8
text
 62
256
370
-1
  6
ByLayer
 10
288.298949999999877
 20
36.3751386666717167
 30
0.0
 40
2.5
 41
100.0
 71
7
 72
2
  1
tbd
  7
Normal#0.500000#1.200000
 50
0.0
 73
1
 44
1.0
  0
MTEXT
  5
13C
100
AcDbEntity
100
AcDbMText
  8
text
 62
256
370
-1
  6
ByLayer
 10
288.298949999999877
 20
32.1251026666717223
 30
0.0
 40
2.5
 41
100.0
 71
7
 72
2
  1
tbd
  7
Normal#0.500000#1.200000
 50
0.0
 73
1
 44
1.0
  0
MTEXT
  5
13D
100
AcDbEntity
100
AcDbMText
  8
text
 62
256
370
-1
  6
ByLayer
 10
303.7130429999999706
 20
40.6250321666702519
 30
0.0
 40
2.5
 41
100.0
 71
7
 72
2
  1
dil
  7
Normal#0.500000#1.200000
 50
0.0
 73
1
 44
1.0
  0
MTEXT
  5
13E
100
AcDbEntity
100
AcDbMText
  8
text
 62
256
370
-1
  6
ByLayer
 10
303.8989559999999983
 20
36.3751291666702485
 30
0.0
 40
2.5
 41
100.0
 71
7
 72
2
  1
dil
  7
Normal#0.500000#1.200000
 50
0.0
 73
1
 44
1.0
  0
MTEXT
  5
13F
100
AcDbEntity
100
AcDbMText
  8
text
 62
256
370
-1
  6
ByLayer
 10
303.8989559999999983
 20
32.1250931666702542
 30
0.0
 40
2.5
 41
100.0
 71
7
 72
2
  1
dil
  7
Normal#0.500000#1.200000
 50
0.0
 73
1
 44
1.0
  0
MTEXT
  5
140
100
AcDbEntity
100
AcDbMText
  8
text
 62
256
370
-1
  6
ByLayer
 10
364.9090859750838263
 20
38.6401480202293968
 30
0.0
 40
4.0
 41
100.0
 71
5
 72
2
  1
title\Psub\~t
  7
normal
 50
0.0
 73
0
 44
1.0
  0
MTEXT
  5
141
100
AcDbEntity
100
AcDbMText
  8
text
 62
256
370
-1
  6
ByLayer
 10
368.4942543480949553
 20
20.5151301344516632
 30
0.0
 40
8.0
 41
100.0
 71
5
 72
2
  1
DD00NN
  7
normal
 50
0.0
 73
0
 44
1.0
  0
MTEXT
  5
142
100
AcDbEntity
100
AcDbMText
  8
text
 62
256
370
-1
  6
ByLayer
 10
293.7897215674872768
 20
10.8750635660344166
 30
0.0
 40
2.5
 41
100.0
 71
7
 72
2
  1
project
  7
Normal#0.500000#1.200000
 50
0.0
 73
1
 44
1.0
  0
MTEXT
  5
143
100
AcDbEntity
100
AcDbMText
  8
text
 62
256
370
-1
  6
ByLayer
 10
403.1508819538676107
 20
21.7101862587886565
 30
0.0
 40
4.0
 41
100.0
 71
5
 72
2
  1
1/1
  7
normal
 50
0.0
 73
0
 44
1.0
  0
MTEXT
  5
144
100
AcDbEntity
100
AcDbMText
  8
text
 62
256
370
-1
  6
ByLayer
 10
277.8989559999999983
 20
36.3751449999997263
 30
0.0
 40
2.5
 41
100.0
 71
7
 72
2
  1
check
  7
Normal#0.500000#1.200000
 50
0.0
 73
1
 44
1.0
  0
ENDSEC
  0
SECTION
  2
OBJECTS
  0
DICTIONARY
  5
C
100
AcDbDictionary
280
0
281
1
  3
ACAD_GROUP
350
D
  3
ACAD_LAYOUT
350
1A
  3
ACAD_MLINESTYLE
350
17
  3
ACAD_PLOTSETTINGS
350
19
  3
ACAD_PLOTSTYLENAME
350
E
  3
AcDbVariableDictionary
350
145
  0
DICTIONARY
  5
D
100
AcDbDictionary
280
0
281
1
  0
ACDBDICTIONARYWDFLT
  5
E
100
AcDbDictionary
281
1
  3
Normal
350
F
100
AcDbDictionaryWithDefault
340
F
  0
ACDBPLACEHOLDER
  5
F
  0
DICTIONARY
  5
17
100
AcDbDictionary
280
0
281
1
  3
Standard
350
18
  0
MLINESTYLE
  5
18
100
AcDbMlineStyle
  2
STANDARD
 70
0
  3

 62
256
 51
90.0
 52
90.0
 71
2
 49
0.5
 62
256
  6
BYLAYER
 49
-0.5
 62
256
  6
BYLAYER
  0
DICTIONARY
  5
19
100
AcDbDictionary
280
0
281
1
  0
DICTIONARY
  5
1A
100
AcDbDictionary
281
1
  3
Layout1
350
1E
  3
Layout2
350
26
  3
Model
350
22
  0
LAYOUT
  5
1E
100
AcDbPlotSettings
  1

  2
C:\Program Files\AutoCAD 2002\plotters\DWF ePlot (optimized for plotting).pc3
  4

  6

 40
0.0
 41
0.0
 42
0.0
 43
0.0
 44
0.0
 45
0.0
 46
0.0
 47
0.0
 48
0.0
 49
0.0
140
0.0
141
0.0
142
1.0
143
1.0
 70
688
 72
0
 73
0
 74
5
  7

 75
16
147
1.0
148
0.0
149
0.0
100
AcDbLayout
  1
Layout1
 70
1
 71
1
 10
0.0
 20
0.0
 11
420.0
 21
297.0
 12
0.0
 22
0.0
 32
0.0
 14
100000000000000000000.0
 24
100000000000000000000.0
 34
100000000000000000000.0
 15
-100000000000000000000.0
 25
-100000000000000000000.0
 35
-100000000000000000000.0
146
0.0
 13
0.0
 23
0.0
 33
0.0
 16
1.0
 26
0.0
 36
0.0
 17
0.0
 27
1.0
 37
0.0
 76
0
330
1B
  0
LAYOUT
  5
22
100
AcDbPlotSettings
  1

  2
C:\Program Files\AutoCAD 2002\plotters\DWF ePlot (optimized for plotting).pc3
  4

  6

 40
0.0
 41
0.0
 42
0.0
 43
0.0
 44
0.0
 45
0.0
 46
0.0
 47
0.0
 48
0.0
 49
0.0
140
0.0
141
0.0
142
1.0
143
1.0
 70
1712
 72
0
 73
0
 74
0
  7

 75
0
147
1.0
148
0.0
149
0.0
100
AcDbLayout
  1
Model
 70
1
 71
0
 10
0.0
 20
0.0
 11
12.0
 21
9.0
 12
0.0
 22
0.0
 32
0.0
 14
0.0
 24
0.0
 34
0.0
 15
0.0
 25
0.0
 35
0.0
146
0.0
 13
0.0
 23
0.0
 33
0.0
 16
1.0
 26
0.0
 36
0.0
 17
0.0
 27
1.0
 37
0.0
 76
0
330
1F
  0
LAYOUT
  5
26
100
AcDbPlotSettings
  1

  2
C:\Program Files\AutoCAD 2002\plotters\DWF ePlot (optimized for plotting).pc3
  4

  6

 40
0.0
 41
0.0
 42
0.0
 43
0.0
 44
0.0
 45
0.0
 46
0.0
 47
0.0
 48
0.0
 49
0.0
140
0.0
141
0.0
142
1.0
143
1.0
 70
688
 72
0
 73
0
 74
5
  7

 75
16
147
1.0
148
0.0
149
0.0
100
AcDbLayout
  1
Layout2
 70
1
 71
2
 10
0.0
 20
0.0
 11
12.0
 21
9.0
 12
0.0
 22
0.0
 32
0.0
 14
0.0
 24
0.0
 34
0.0
 15
0.0
 25
0.0
 35
0.0
146
0.0
 13
0.0
 23
0.0
 33
0.0
 16
1.0
 26
0.0
 36
0.0
 17
0.0
 27
1.0
 37
0.0
 76
0
330
23
  0
DICTIONARY
  5
145
100
AcDbDictionary
281
1
  3
DIMASSOC
350
147
  3
HIDETEXT
350
146
  0
DICTIONARYVAR
  5
146
100
DictionaryVariables
280
0
  1
2
  0
DICTIONARYVAR
  5
147
100
DictionaryVariables
280
0
  1
1
  0
ENDSEC
  0
EOF
