999
dxflib 2.0.4.8
  0
SECTION
  2
HEADER
  9
$ACADVER
  1
AC1015
  9
$HANDSEED
  5
FFFF
  9
$DIMASZ
 40
3.0
  9
$GRIDUNIT
 10
0.001
 20
20.0
  9
$DIMADEC
 70
1
  9
$DIMGAP
 40
0.625
  9
$DIMALT
 70
4
  9
$SPLINESEGS
 70
32
  9
$AUPREC
 70
1
  9
$LUNITS
 70
2
  9
$DIMRND
 40
0.01
  9
$DIMEXO
 40
2.0
  9
$INSUNITS
 70
4
  9
$DIMLUNIT
 70
2
  9
$DIMTXT
 40
5.0
  9
$GRIDMODE
 70
0
  9
$LUPREC
 70
1
  9
$DIMSTYLE
  2
Standard
  9
$PLIMMAX
 10
210.0
 20
297.0
  9
$PLIMMIN
 10
0.0
 20
0.0
  9
$DIMEXE
 40
2.0
  9
$PINSBASE
 10
-0.3146186440677994
 20
1.5730932203389898
 30
0.0
  9
$DIMAUNIT
 70
1
  9
$AUNITS
 70
1
  0
ENDSEC
  0
SECTION
  2
TABLES
  0
TABLE
  2
VPORT
  5
8
100
AcDbSymbolTable
 70
1
  0
VPORT
  5
30
100
AcDbSymbolTableRecord
100
AcDbViewportTableRecord
  2
*Active
 70
0
 10
0.0
 20
0.0
 11
1.0
 21
1.0
 12
286.3055555555554861
 22
148.5
 13
0.0
 23
0.0
 14
10.0
 24
10.0
 15
10.0
 25
10.0
 16
0.0
 26
0.0
 36
1.0
 17
0.0
 27
0.0
 37
0.0
 40
297.0
 41
1.92798353909465
 42
50.0
 43
0.0
 44
0.0
 50
0.0
 51
0.0
 71
0
 72
100
 73
1
 74
3
 75
1
 76
1
 77
0
 78
0
281
0
 65
1
110
0.0
120
0.0
130
0.0
111
1.0
121
0.0
131
0.0
112
0.0
122
1.0
132
0.0
 79
0
146
0.0
  0
ENDTAB
  0
TABLE
  2
LTYPE
  5
5
100
AcDbSymbolTable
 70
21
  0
LTYPE
  5
14
100
AcDbSymbolTableRecord
100
AcDbLinetypeTableRecord
  2
ByBlock
 70
0
  3

 72
65
 73
0
 40
0.0
  0
LTYPE
  5
15
100
AcDbSymbolTableRecord
100
AcDbLinetypeTableRecord
  2
ByLayer
 70
0
  3

 72
65
 73
0
 40
0.0
  0
LTYPE
  5
16
100
AcDbSymbolTableRecord
100
AcDbLinetypeTableRecord
  2
CONTINUOUS
 70
0
  3
Solid line
 72
65
 73
0
 40
0.0
  0
LTYPE
  5
31
100
AcDbSymbolTableRecord
100
AcDbLinetypeTableRecord
  2
DOT
 70
0
  3
Dot . . . . . . . . . . . . . . . . . . . . . .
 72
65
 73
2
 40
6.3499999999999996
 49
0.0
 74
0
 49
-6.3499999999999996
 74
0
  0
LTYPE
  5
32
100
AcDbSymbolTableRecord
100
AcDbLinetypeTableRecord
  2
DOT2
 70
0
  3
Dot (.5x) .....................................
 72
65
 73
2
 40
3.1749999999999998
 49
0.0
 74
0
 49
-3.1749999999999998
 74
0
  0
LTYPE
  5
33
100
AcDbSymbolTableRecord
100
AcDbLinetypeTableRecord
  2
DOTX2
 70
0
  3
Dot (2x) .  .  .  .  .  .  .  .  .  .  .  .  .
 72
65
 73
2
 40
12.6999999999999993
 49
0.0
 74
0
 49
-12.6999999999999993
 74
0
  0
LTYPE
  5
34
100
AcDbSymbolTableRecord
100
AcDbLinetypeTableRecord
  2
DASHED
 70
0
  3
Dashed __ __ __ __ __ __ __ __ __ __ __ __ __ _
 72
65
 73
2
 40
19.0500000000000007
 49
12.6999999999999993
 74
0
 49
-6.3499999999999996
 74
0
  0
LTYPE
  5
35
100
AcDbSymbolTableRecord
100
AcDbLinetypeTableRecord
  2
DASHED2
 70
0
  3
Dashed (.5x) _ _ _ _ _ _ _ _ _ _ _ _ _ _ _ _ _
 72
65
 73
2
 40
9.5250000000000004
 49
6.3499999999999996
 74
0
 49
-3.1749999999999998
 74
0
  0
LTYPE
  5
36
100
AcDbSymbolTableRecord
100
AcDbLinetypeTableRecord
  2
DASHEDX2
 70
0
  3
Dashed (2x) ____  ____  ____  ____  ____  ___
 72
65
 73
2
 40
38.1000000000000014
 49
25.3999999999999986
 74
0
 49
-12.6999999999999993
 74
0
  0
LTYPE
  5
37
100
AcDbSymbolTableRecord
100
AcDbLinetypeTableRecord
  2
DASHDOT
 70
0
  3
Dash dot __ . __ . __ . __ . __ . __ . __ . __
 72
65
 73
4
 40
25.3999999999999986
 49
12.6999999999999993
 74
0
 49
-6.3499999999999996
 74
0
 49
0.0
 74
0
 49
-6.3499999999999996
 74
0
  0
LTYPE
  5
38
100
AcDbSymbolTableRecord
100
AcDbLinetypeTableRecord
  2
DASHDOT2
 70
0
  3
Dash dot (.5x) _._._._._._._._._._._._._._._.
 72
65
 73
4
 40
12.6999999999999993
 49
6.3499999999999996
 74
0
 49
-3.1749999999999998
 74
0
 49
0.0
 74
0
 49
-3.1749999999999998
 74
0
  0
LTYPE
  5
39
100
AcDbSymbolTableRecord
100
AcDbLinetypeTableRecord
  2
DASHDOTX2
 70
0
  3
Dash dot (2x) ____  .  ____  .  ____  .  ___
 72
65
 73
4
 40
50.7999999999999972
 49
25.3999999999999986
 74
0
 49
-12.6999999999999993
 74
0
 49
0.0
 74
0
 49
-12.6999999999999993
 74
0
  0
LTYPE
  5
3A
100
AcDbSymbolTableRecord
100
AcDbLinetypeTableRecord
  2
DIVIDE
 70
0
  3
Divide ____ . . ____ . . ____ . . ____ . . ____
 72
65
 73
6
 40
31.75
 49
12.6999999999999993
 74
0
 49
-6.3499999999999996
 74
0
 49
0.0
 74
0
 49
-6.3499999999999996
 74
0
 49
0.0
 74
0
 49
-6.3499999999999996
 74
0
  0
LTYPE
  5
3B
100
AcDbSymbolTableRecord
100
AcDbLinetypeTableRecord
  2
DIVIDE2
 70
0
  3
Divide (.5x) __..__..__..__..__..__..__..__.._
 72
65
 73
6
 40
15.875
 49
6.3499999999999996
 74
0
 49
-3.1749999999999998
 74
0
 49
0.0
 74
0
 49
-3.1749999999999998
 74
0
 49
0.0
 74
0
 49
-3.1749999999999998
 74
0
  0
LTYPE
  5
3C
100
AcDbSymbolTableRecord
100
AcDbLinetypeTableRecord
  2
DIVIDEX2
 70
0
  3
Divide (2x) ________  .  .  ________  .  .  _
 72
65
 73
6
 40
63.5
 49
25.3999999999999986
 74
0
 49
-12.6999999999999993
 74
0
 49
0.0
 74
0
 49
-12.6999999999999993
 74
0
 49
0.0
 74
0
 49
-12.6999999999999993
 74
0
  0
LTYPE
  5
3D
100
AcDbSymbolTableRecord
100
AcDbLinetypeTableRecord
  2
CENTER
 70
0
  3
Center ____ _ ____ _ ____ _ ____ _ ____ _ ____
 72
65
 73
4
 40
50.7999999999999972
 49
31.75
 74
0
 49
-6.3499999999999996
 74
0
 49
6.3499999999999996
 74
0
 49
-6.3499999999999996
 74
0
  0
LTYPE
  5
3E
100
AcDbSymbolTableRecord
100
AcDbLinetypeTableRecord
  2
CENTER2
 70
0
  3
Center (.5x) ___ _ ___ _ ___ _ ___ _ ___ _ ___
 72
65
 73
4
 40
28.5749999999999993
 49
19.0500000000000007
 74
0
 49
-3.1749999999999998
 74
0
 49
3.1749999999999998
 74
0
 49
-3.1749999999999998
 74
0
  0
LTYPE
  5
3F
100
AcDbSymbolTableRecord
100
AcDbLinetypeTableRecord
  2
CENTERX2
 70
0
  3
Center (2x) ________  __  ________  __  _____
 72
65
 73
4
 40
101.5999999999999943
 49
63.5
 74
0
 49
-12.6999999999999993
 74
0
 49
12.6999999999999993
 74
0
 49
-12.6999999999999993
 74
0
  0
LTYPE
  5
40
100
AcDbSymbolTableRecord
100
AcDbLinetypeTableRecord
  2
BORDER
 70
0
  3
Border __ __ . __ __ . __ __ . __ __ . __ __ .
 72
65
 73
6
 40
44.4500000000000028
 49
12.6999999999999993
 74
0
 49
-6.3499999999999996
 74
0
 49
12.6999999999999993
 74
0
 49
-6.3499999999999996
 74
0
 49
0.0
 74
0
 49
-6.3499999999999996
 74
0
  0
LTYPE
  5
41
100
AcDbSymbolTableRecord
100
AcDbLinetypeTableRecord
  2
BORDER2
 70
0
  3
Border (.5x) __.__.__.__.__.__.__.__.__.__.__.
 72
65
 73
6
 40
22.2250000000000014
 49
6.3499999999999996
 74
0
 49
-3.1749999999999998
 74
0
 49
6.3499999999999996
 74
0
 49
-3.1749999999999998
 74
0
 49
0.0
 74
0
 49
-3.1749999999999998
 74
0
  0
LTYPE
  5
42
100
AcDbSymbolTableRecord
100
AcDbLinetypeTableRecord
  2
BORDERX2
 70
0
  3
Border (2x) ____  ____  .  ____  ____  .  ___
 72
65
 73
6
 40
88.9000000000000057
 49
25.3999999999999986
 74
0
 49
-12.6999999999999993
 74
0
 49
25.3999999999999986
 74
0
 49
-12.6999999999999993
 74
0
 49
0.0
 74
0
 49
-12.6999999999999993
 74
0
  0
ENDTAB
  0
TABLE
  2
LAYER
  5
2
100
AcDbSymbolTable
 70
1
  0
LAYER
  5
10
100
AcDbSymbolTableRecord
100
AcDbLayerTableRecord
  2
0
 70
0
 62
7
  6
CONTINUOUS
390
F
  0
ENDTAB
  0
TABLE
  2
STYLE
  5
3
100
AcDbSymbolTable
 70
1
  0
STYLE
  5
11
100
AcDbSymbolTableRecord
100
AcDbTextStyleTableRecord
  2
Standard
 70
0
 40
0.0
 41
0.75
 50
0.0
 71
0
 42
2.5
  3
txt
  4

  0
ENDTAB
  0
TABLE
  2
VIEW
  5
6
100
AcDbSymbolTable
 70
0
  0
ENDTAB
  0
TABLE
  2
UCS
  5
7
100
AcDbSymbolTable
 70
0
  0
ENDTAB
  0
TABLE
  2
APPID
  5
9
100
AcDbSymbolTable
 70
1
  0
APPID
  5
12
100
AcDbSymbolTableRecord
100
AcDbRegAppTableRecord
  2
ACAD
 70
0
  0
ENDTAB
  0
TABLE
  2
DIMSTYLE
  5
A
100
AcDbSymbolTable
 70
1
100
AcDbDimStyleTable
 71
0
  0
DIMSTYLE
105
27
100
AcDbSymbolTableRecord
100
AcDbDimStyleTableRecord
  2
Standard
 41
3.0
 42
2.0
 43
3.75
 44
2.0
 70
0
 73
0
 74
0
 77
1
 78
8
140
5.0
141
2.5
143
0.03937007874016
147
0.625
171
3
172
1
271
2
272
2
274
3
278
44
283
0
284
8
340
11
  0
ENDTAB
  0
TABLE
  2
BLOCK_RECORD
  5
1
100
AcDbSymbolTable
 70
1
  0
BLOCK_RECORD
  5
1F
100
AcDbSymbolTableRecord
100
AcDbBlockTableRecord
  2
*Model_Space
340
22
  0
BLOCK_RECORD
  5
1B
100
AcDbSymbolTableRecord
100
AcDbBlockTableRecord
  2
*Paper_Space
340
1E
  0
BLOCK_RECORD
  5
23
100
AcDbSymbolTableRecord
100
AcDbBlockTableRecord
  2
*Paper_Space0
340
26
  0
ENDTAB
  0
ENDSEC
  0
SECTION
  2
BLOCKS
  0
BLOCK
  5
20
100
AcDbEntity
  8
0
100
AcDbBlockBegin
  2
*Model_Space
 70
0
 10
0.0
 20
0.0
 30
0.0
  3
*Model_Space
  1

  0
ENDBLK
  5
21
100
AcDbEntity
  8
0
100
AcDbBlockEnd
  0
BLOCK
  5
1C
100
AcDbEntity
 67
1
  8
0
100
AcDbBlockBegin
  2
*Paper_Space
 70
0
 10
0.0
 20
0.0
 30
0.0
  3
*Paper_Space
  1

  0
ENDBLK
  5
1D
100
AcDbEntity
 67
1
  8
0
100
AcDbBlockEnd
  0
BLOCK
  5
24
100
AcDbEntity
  8
0
100
AcDbBlockBegin
  2
*Paper_Space0
 70
0
 10
0.0
 20
0.0
 30
0.0
  3
*Paper_Space0
  1

  0
ENDBLK
  5
25
100
AcDbEntity
  8
0
100
AcDbBlockEnd
  0
ENDSEC
  0
SECTION
  2
ENTITIES
  0
LINE
  5
43
100
AcDbEntity
100
AcDbLine
  8
0
 62
256
370
50
  6
CONTINUOUS
 10
20.0
 20
292.0
 30
0.0
 11
205.0
 21
292.0
 31
0.0
  0
LINE
  5
44
100
AcDbEntity
100
AcDbLine
  8
0
 62
256
370
50
  6
CONTINUOUS
 10
20.0
 20
292.0
 30
0.0
 11
8.0
 21
292.0
 31
0.0
  0
LINE
  5
45
100
AcDbEntity
100
AcDbLine
  8
0
 62
256
370
50
  6
CONTINUOUS
 10
20.0
 20
172.0
 30
0.0
 11
8.0
 21
172.0
 31
0.0
  0
LINE
  5
46
100
AcDbEntity
100
AcDbLine
  8
0
 62
256
370
50
  6
CONTINUOUS
 10
20.0
 20
232.0
 30
0.0
 11
8.0
 21
232.0
 31
0.0
  0
LINE
  5
47
100
AcDbEntity
100
AcDbLine
  8
0
 62
256
370
50
  6
CONTINUOUS
 10
20.0
 20
150.0
 30
0.0
 11
8.0
 21
150.0
 31
0.0
  0
LINE
  5
48
100
AcDbEntity
100
AcDbLine
  8
0
 62
256
370
50
  6
CONTINUOUS
 10
8.0
 20
5.0
 30
0.0
 11
8.0
 21
150.0
 31
0.0
  0
LINE
  5
49
100
AcDbEntity
100
AcDbLine
  8
0
 62
256
370
50
  6
CONTINUOUS
 10
20.0
 20
115.0
 30
0.0
 11
8.0
 21
115.0
 31
0.0
  0
LINE
  5
4A
100
AcDbEntity
100
AcDbLine
  8
0
 62
256
370
50
  6
CONTINUOUS
 10
20.0
 20
90.0
 30
0.0
 11
8.0
 21
90.0
 31
0.0
  0
LINE
  5
4B
100
AcDbEntity
100
AcDbLine
  8
0
 62
256
370
50
  6
CONTINUOUS
 10
20.0
 20
65.0
 30
0.0
 11
8.0
 21
65.0
 31
0.0
  0
LINE
  5
4C
100
AcDbEntity
100
AcDbLine
  8
0
 62
256
370
50
  6
CONTINUOUS
 10
20.0
 20
30.0
 30
0.0
 11
8.0
 21
30.0
 31
0.0
  0
LINE
  5
4D
100
AcDbEntity
100
AcDbLine
  8
0
 62
256
370
50
  6
CONTINUOUS
 10
20.0
 20
5.0
 30
0.0
 11
8.0
 21
5.0
 31
0.0
  0
LINE
  5
4E
100
AcDbEntity
100
AcDbLine
  8
0
 62
256
370
50
  6
CONTINUOUS
 10
205.0
 20
5.0
 30
0.0
 11
20.0
 21
5.0
 31
0.0
  0
LINE
  5
4F
100
AcDbEntity
100
AcDbLine
  8
0
 62
256
370
50
  6
CONTINUOUS
 10
27.0
 20
35.0
 30
0.0
 11
27.0
 21
60.0
 31
0.0
  0
LINE
  5
50
100
AcDbEntity
100
AcDbLine
  8
0
 62
256
370
50
  6
CONTINUOUS
 10
37.0
 20
5.0
 30
0.0
 11
37.0
 21
60.0
 31
0.0
  0
LINE
  5
51
100
AcDbEntity
100
AcDbLine
  8
0
 62
256
370
50
  6
CONTINUOUS
 10
60.0
 20
5.0
 30
0.0
 11
60.0
 21
60.0
 31
0.0
  0
LINE
  5
52
100
AcDbEntity
100
AcDbLine
  8
0
 62
256
370
50
  6
CONTINUOUS
 10
75.0
 20
5.0
 30
0.0
 11
75.0
 21
60.0
 31
0.0
  0
LINE
  5
53
100
AcDbEntity
100
AcDbLine
  8
0
 62
256
370
50
  6
CONTINUOUS
 10
85.0
 20
5.0
 30
0.0
 11
85.0
 21
60.0
 31
0.0
  0
LINE
  5
54
100
AcDbEntity
100
AcDbLine
  8
0
 62
256
370
18
  6
CONTINUOUS
 10
85.0
 20
45.0
 30
0.0
 11
20.0
 21
45.0
 31
0.0
  0
LINE
  5
55
100
AcDbEntity
100
AcDbLine
  8
0
 62
256
370
18
  6
CONTINUOUS
 10
85.0
 20
50.0
 30
0.0
 11
20.0
 21
50.0
 31
0.0
  0
LINE
  5
56
100
AcDbEntity
100
AcDbLine
  8
0
 62
256
370
18
  6
CONTINUOUS
 10
85.0
 20
55.0
 30
0.0
 11
20.0
 21
55.0
 31
0.0
  0
LINE
  5
57
100
AcDbEntity
100
AcDbLine
  8
0
 62
256
370
50
  6
CONTINUOUS
 10
85.0
 20
40.0
 30
0.0
 11
20.0
 21
40.0
 31
0.0
  0
LINE
  5
58
100
AcDbEntity
100
AcDbLine
  8
0
 62
256
370
50
  6
CONTINUOUS
 10
85.0
 20
35.0
 30
0.0
 11
20.0
 21
35.0
 31
0.0
  0
LINE
  5
59
100
AcDbEntity
100
AcDbLine
  8
0
 62
256
370
18
  6
CONTINUOUS
 10
85.0
 20
30.0
 30
0.0
 11
20.0
 21
30.0
 31
0.0
  0
LINE
  5
5A
100
AcDbEntity
100
AcDbLine
  8
0
 62
256
370
18
  6
CONTINUOUS
 10
85.0
 20
25.0
 30
0.0
 11
20.0
 21
25.0
 31
0.0
  0
LINE
  5
5B
100
AcDbEntity
100
AcDbLine
  8
0
 62
256
370
18
  6
CONTINUOUS
 10
85.0
 20
15.0
 30
0.0
 11
20.0
 21
15.0
 31
0.0
  0
LINE
  5
5C
100
AcDbEntity
100
AcDbLine
  8
0
 62
256
370
18
  6
CONTINUOUS
 10
85.0
 20
10.0
 30
0.0
 11
20.0
 21
10.0
 31
0.0
  0
LINE
  5
5D
100
AcDbEntity
100
AcDbLine
  8
0
 62
256
370
18
  6
CONTINUOUS
 10
13.0
 20
5.0
 30
0.0
 11
13.0
 21
150.0
 31
0.0
  0
MTEXT
  5
5E
100
AcDbEntity
100
AcDbMText
  8
0
 62
256
370
18
  6
CONTINUOUS
 10
75.4988434916132718
 20
38.800528922597934
 30
0.0
 40
2.6000000000000001
 41
100.0
 71
1
 72
2
  1
\U+0414\U+0430\U+0442\U+0430
  7
unicode2
 50
0.0
 73
1
 44
1.0
  0
LINE
  5
5F
100
AcDbEntity
100
AcDbLine
  8
0
 62
256
370
50
  6
CONTINUOUS
 10
205.0
 20
45.0
 30
0.0
 11
85.0
 21
45.0
 31
0.0
  0
LINE
  5
60
100
AcDbEntity
100
AcDbLine
  8
0
 62
256
370
50
  6
CONTINUOUS
 10
205.0
 20
20.0
 30
0.0
 11
85.0
 21
20.0
 31
0.0
  0
LINE
  5
61
100
AcDbEntity
100
AcDbLine
  8
0
 62
256
370
50
  6
CONTINUOUS
 10
155.0
 20
5.0
 30
0.0
 11
155.0
 21
45.0
 31
0.0
  0
LINE
  5
62
100
AcDbEntity
100
AcDbLine
  8
0
 62
256
370
50
  6
CONTINUOUS
 10
205.0
 20
40.0
 30
0.0
 11
155.0
 21
40.0
 31
0.0
  0
LINE
  5
63
100
AcDbEntity
100
AcDbLine
  8
0
 62
256
370
50
  6
CONTINUOUS
 10
205.0
 20
25.0
 30
0.0
 11
155.0
 21
25.0
 31
0.0
  0
LINE
  5
64
100
AcDbEntity
100
AcDbLine
  8
0
 62
256
370
50
  6
CONTINUOUS
 10
205.0
 20
292.0
 30
0.0
 11
205.0
 21
5.0
 31
0.0
  0
LINE
  5
65
100
AcDbEntity
100
AcDbLine
  8
0
 62
256
370
50
  6
CONTINUOUS
 10
175.0
 20
20.0
 30
0.0
 11
175.0
 21
25.0
 31
0.0
  0
LINE
  5
66
100
AcDbEntity
100
AcDbLine
  8
0
 62
256
370
50
  6
CONTINUOUS
 10
170.0
 20
25.0
 30
0.0
 11
170.0
 21
45.0
 31
0.0
  0
LINE
  5
67
100
AcDbEntity
100
AcDbLine
  8
0
 62
256
370
50
  6
CONTINUOUS
 10
187.0
 20
25.0
 30
0.0
 11
187.0
 21
45.0
 31
0.0
  0
LINE
  5
68
100
AcDbEntity
100
AcDbLine
  8
0
 62
256
370
18
  6
CONTINUOUS
 10
160.0
 20
25.0
 30
0.0
 11
160.0
 21
40.0
 31
0.0
  0
LINE
  5
69
100
AcDbEntity
100
AcDbLine
  8
0
 62
256
370
18
  6
CONTINUOUS
 10
165.0
 20
25.0
 30
0.0
 11
165.0
 21
40.0
 31
0.0
  0
LINE
  5
6A
100
AcDbEntity
100
AcDbLine
  8
0
 62
256
370
18
  6
CONTINUOUS
 10
0.0
 20
297.0
 30
0.0
 11
210.0
 21
297.0
 31
0.0
  0
LINE
  5
6B
100
AcDbEntity
100
AcDbLine
  8
0
 62
256
370
18
  6
CONTINUOUS
 10
210.0
 20
297.0
 30
0.0
 11
210.0
 21
0.0000000000000009
 31
0.0
  0
LINE
  5
6C
100
AcDbEntity
100
AcDbLine
  8
0
 62
256
370
18
  6
CONTINUOUS
 10
210.0
 20
0.0000000000000009
 30
0.0
 11
0.0
 21
-0.0000000000000001
 31
0.0
  0
LINE
  5
6D
100
AcDbEntity
100
AcDbLine
  8
0
 62
256
370
18
  6
CONTINUOUS
 10
13.0
 20
172.0
 30
0.0
 11
13.0
 21
292.0
 31
0.0
  0
LINE
  5
6E
100
AcDbEntity
100
AcDbLine
  8
0
 62
256
370
50
  6
CONTINUOUS
 10
20.0
 20
5.0
 30
0.0
 11
20.0
 21
292.0
 31
0.0
  0
LINE
  5
6F
100
AcDbEntity
100
AcDbLine
  8
0
 62
256
370
50
  6
CONTINUOUS
 10
8.0
 20
172.0
 30
0.0
 11
8.0
 21
292.0
 31
0.0
  0
LINE
  5
70
100
AcDbEntity
100
AcDbLine
  8
0
 62
256
370
18
  6
CONTINUOUS
 10
0.0
 20
-0.0000000000000001
 30
0.0
 11
0.0
 21
297.0
 31
0.0
  0
LINE
  5
71
100
AcDbEntity
100
AcDbLine
  8
0
 62
256
370
50
  6
CONTINUOUS
 10
20.0
 20
278.0
 30
0.0
 11
90.0
 21
278.0
 31
0.0
  0
LINE
  5
72
100
AcDbEntity
100
AcDbLine
  8
0
 62
256
370
50
  6
CONTINUOUS
 10
90.0
 20
278.0
 30
0.0
 11
90.0
 21
292.0
 31
0.0
  0
LINE
  5
73
100
AcDbEntity
100
AcDbLine
  8
0
 62
256
370
50
  6
CONTINUOUS
 10
205.0
 20
60.0
 30
0.0
 11
20.0
 21
60.0
 31
0.0
  0
LINE
  5
74
100
AcDbEntity
100
AcDbLine
  8
0
 62
256
370
18
  6
CONTINUOUS
 10
85.0
 20
20.0
 30
0.0
 11
20.0
 21
20.0
 31
0.0
  0
MTEXT
  5
75
100
AcDbEntity
100
AcDbMText
  8
0
 62
256
370
18
  6
CONTINUOUS
 10
172.8769257759494451
 20
41.2953423343107602
 30
0.0
 40
2.7999999999999998
 41
100.0
 71
7
 72
2
  1
\U+041c\U+0430\U+0441\U+0441\U+0430
  7
unicode2
 50
0.0
 73
1
 44
1.0
  0
MTEXT
  5
76
100
AcDbEntity
100
AcDbMText
  8
0
 62
256
370
18
  6
CONTINUOUS
 10
187.584974024625609
 20
41.2362738674486096
 30
0.0
 40
2.7999999999999998
 41
100.0
 71
7
 72
2
  1
\U+041c\U+0430\U+0441\U+0448\U+0442\U+0430\U+0431
  7
unicode2
 50
0.0
 73
1
 44
1.0
  0
MTEXT
  5
77
100
AcDbEntity
100
AcDbMText
  8
0
 62
256
370
18
  6
CONTINUOUS
 10
193.1695912587587429
 20
35.2765137035180487
 30
0.0
 40
4.0
 41
100.0
 71
1
 72
2
  1
1:1
  7
unicode2
 50
0.0
 73
1
 44
1.0
  0
MTEXT
  5
78
100
AcDbEntity
100
AcDbMText
  8
0
 62
256
370
18
  6
CONTINUOUS
 10
175.6262566006992074
 20
34.9221029023451308
 30
0.0
 40
4.0
 41
100.0
 71
1
 72
2
  1
_
  7
unicode2
 50
0.0
 73
1
 44
1.0
  0
MTEXT
  5
79
100
AcDbEntity
100
AcDbMText
  8
0
 62
256
370
18
  6
CONTINUOUS
 10
156.3699364036372117
 20
34.9811713692072814
 30
0.0
 40
4.0
 41
100.0
 71
1
 72
2
  1
_
  7
unicode2
 50
0.0
 73
1
 44
1.0
  0
MTEXT
  5
7A
100
AcDbEntity
100
AcDbMText
  8
0
 62
256
370
18
  6
CONTINUOUS
 10
156.6765291570973773
 20
21.3334264514044101
 30
0.0
 40
2.7999999999999998
 41
100.0
 71
7
 72
2
  1
\U+041b\U+0438\U+0441\U+0442
  7
unicode2
 50
0.0
 73
1
 44
1.0
  0
MTEXT
  5
7B
100
AcDbEntity
100
AcDbMText
  8
0
 62
256
370
18
  6
CONTINUOUS
 10
176.6228083413816705
 20
21.4828367823728286
 30
0.0
 40
2.7999999999999998
 41
100.0
 71
7
 72
2
  1
\U+041b\U+0438\U+0441\U+0442\U+043e\U+0432
  7
unicode2
 50
0.0
 73
1
 44
1.0
  0
MTEXT
  5
7C
100
AcDbEntity
100
AcDbMText
  8
0
 62
256
370
18
  6
CONTINUOUS
 10
157.309775582309527
 20
12.8427373827035076
 30
0.0
 40
5.0
 41
100.0
 71
1
 72
2
  1
_
  7
unicode2
 50
0.0
 73
1
 44
1.0
  0
LINE
  5
7D
100
AcDbEntity
100
AcDbLine
  8
0
 62
256
370
18
  6
CONTINUOUS
 10
99.4141000000000048
 20
12.3223000000000003
 30
0.0
 11
149.4139999999999873
 21
12.3223000000000003
 31
0.0
  0
MTEXT
  5
7E
100
AcDbEntity
100
AcDbMText
  8
0
 62
256
370
18
  6
CONTINUOUS
 10
86.1511893989950153
 20
10.9258926970596164
 30
0.0
 40
3.5
 41
100.0
 71
7
 72
2
  1
_
  7
unicode2
 50
0.0
 73
0
 44
1.0
  0
MTEXT
  5
7F
100
AcDbEntity
100
AcDbMText
  8
0
 62
256
370
18
  6
CONTINUOUS
 10
99.7266442020397932
 20
14.9985291379730441
 30
0.0
 40
3.5
 41
100.0
 71
7
 72
2
  1
_
  7
unicode2
 50
0.0
 73
0
 44
1.0
  0
MTEXT
  5
80
100
AcDbEntity
100
AcDbMText
  8
0
 62
256
370
18
  6
CONTINUOUS
 10
99.7266442020397932
 20
6.9576828315542159
 30
0.0
 40
3.5
 41
100.0
 71
7
 72
2
  1
_
  7
unicode2
 50
0.0
 73
0
 44
1.0
  0
MTEXT
  5
81
100
AcDbEntity
100
AcDbMText
  8
0
 62
256
370
18
  6
CONTINUOUS
 10
95.2044196082761829
 20
27.3079283138541058
 30
0.0
 40
5.0
 41
100.0
 71
7
 72
2
  1
_
  7
unicode2
 50
0.0
 73
0
 44
1.0
  0
MTEXT
  5
82
100
AcDbEntity
100
AcDbMText
  8
0
 62
256
370
18
  6
CONTINUOUS
 10
103.1080332830454438
 20
49.0069404027661051
 30
0.0
 40
7.0
 41
100.0
 71
7
 72
2
  1
_
  7
unicode2
 50
0.0
 73
0
 44
1.0
  0
MTEXT
  5
83
100
AcDbEntity
100
AcDbMText
  8
0
 62
256
370
18
  6
CONTINUOUS
 10
103.0
 20
1.5
 30
0.0
 40
2.7999999999999998
 41
100.0
 71
7
 72
2
  1
\U+041a\U+043e\U+043f\U+0438\U+0440\U+043e\U+0432\U+0430\U+043b
  7
unicode2
 50
0.0
 73
1
 44
1.0
  0
MTEXT
  5
84
100
AcDbEntity
100
AcDbMText
  8
0
 62
256
370
18
  6
CONTINUOUS
 10
86.2923631812727479
 20
287.1706398650097753
 30
0.0
 40
5.0
 41
100.0
 71
7
 72
2
  1
_
  7
unicode2
 50
180.0
 73
0
 44
1.0
  0
MTEXT
  5
85
100
AcDbEntity
100
AcDbMText
  8
0
 62
256
370
18
  6
CONTINUOUS
 10
11.7895402864853409
 20
249.9483341540374681
 30
0.0
 40
2.7999999999999998
 41
100.0
 71
7
 72
2
  1
\U+041f\U+0435\U+0440\U+0432.\~\U+043f\U+0440\U+0438\U+043c\U+0435\U+043d.
  7
unicode
 50
90.0
 73
1
 44
1.0
  0
MTEXT
  5
86
100
AcDbEntity
100
AcDbMText
  8
0
 62
256
370
18
  6
CONTINUOUS
 10
12.0
 20
196.0
 30
0.0
 40
2.7999999999999998
 41
100.0
 71
7
 72
2
  1
\U+0421\U+043f\U+0440\U+0430\U+0432.\~N
  7
unicode
 50
90.0
 73
1
 44
1.0
  0
MTEXT
  5
87
100
AcDbEntity
100
AcDbMText
  8
0
 62
256
370
18
  6
CONTINUOUS
 10
11.762228720609393
 20
119.8600584854845579
 30
0.0
 40
2.7999999999999998
 41
100.0
 71
7
 72
2
  1
\U+041f\U+043e\U+0434\U+043f.\~\U+0438\~\U+0434\U+0430\U+0442\U+0430
  7
unicode
 50
90.0
 73
1
 44
1.0
  0
MTEXT
  5
88
100
AcDbEntity
100
AcDbMText
  8
0
 62
256
370
18
  6
CONTINUOUS
 10
12.0
 20
90.9250389949079647
 30
0.0
 40
2.7999999999999998
 41
100.0
 71
7
 72
2
  1
\U+0418\U+043d\U+0432.\~N\~\U+0434\U+0443\U+0431\U+043b.
  7
unicode
 50
90.0
 73
1
 44
1.0
  0
MTEXT
  5
89
100
AcDbEntity
100
AcDbMText
  8
0
 62
256
370
18
  6
CONTINUOUS
 10
12.0
 20
34.5242868814802364
 30
0.0
 40
2.7999999999999998
 41
100.0
 71
7
 72
2
  1
\U+041f\U+043e\U+0434\U+043f.\~\U+0438\~\U+0434\U+0430\U+0442\U+0430
  7
unicode
 50
90.0
 73
1
 44
1.0
  0
MTEXT
  5
8A
100
AcDbEntity
100
AcDbMText
  8
0
 62
256
370
18
  6
CONTINUOUS
 10
12.0
 20
5.878448676648997
 30
0.0
 40
2.7999999999999998
 41
100.0
 71
7
 72
2
  1
\U+0418\U+043d\U+0432.\~N\~\U+043f\U+043e\U+0434\U+043b.
  7
unicode
 50
90.0
 73
1
 44
1.0
  0
MTEXT
  5
8B
100
AcDbEntity
100
AcDbMText
  8
0
 62
256
370
18
  6
CONTINUOUS
 10
20.3588525349396683
 20
38.3631249667715153
 30
0.0
 40
2.6000000000000001
 41
100.0
 71
1
 72
2
  1
\U+0418\U+0437\U+043c.
  7
unicode
 50
0.0
 73
1
 44
1.0
  0
MTEXT
  5
8C
100
AcDbEntity
100
AcDbMText
  8
0
 62
256
370
18
  6
CONTINUOUS
 10
27.6526299667452697
 20
38.385723230756561
 30
0.0
 40
2.6000000000000001
 41
100.0
 71
1
 72
2
  1
\U+041b\U+0438\U+0441\U+0442.
  7
unicode
 50
0.0
 73
1
 44
1.0
  0
MTEXT
  5
8D
100
AcDbEntity
100
AcDbMText
  8
0
 62
256
370
18
  6
CONTINUOUS
 10
40.7111756183716693
 20
38.5705278126921982
 30
0.0
 40
2.6000000000000001
 41
100.0
 71
1
 72
2
  1
N\~\U+0434\U+043e\U+043a\U+0443\U+043c.
  7
unicode
 50
0.0
 73
1
 44
1.0
  0
MTEXT
  5
8E
100
AcDbEntity
100
AcDbMText
  8
0
 62
256
370
18
  6
CONTINUOUS
 10
63.3087846666096112
 20
38.8580292000743626
 30
0.0
 40
2.6000000000000001
 41
100.0
 71
1
 72
2
  1
\U+041f\U+043e\U+0434\U+043f.
  7
unicode
 50
0.0
 73
1
 44
1.0
  0
MTEXT
  5
8F
100
AcDbEntity
100
AcDbMText
  8
0
 62
256
370
18
  6
CONTINUOUS
 10
156.7512343225815812
 20
41.3544108011729179
 30
0.0
 40
2.7999999999999998
 41
100.0
 71
7
 72
2
  1
\U+041b\U+0438\U+0442\U+0435\U+0440.
  7
unicode
 50
0.0
 73
1
 44
1.0
  0
MTEXT
  5
90
100
AcDbEntity
100
AcDbMText
  8
0
 62
256
370
18
  6
CONTINUOUS
 10
156.5908364978008365
 20
21.0683574166214953
 30
0.0
 40
2.7999999999999998
 41
100.0
 71
7
 72
2
  1
\U+041b\U+0438\U+0441\U+0442
  7
unicode
 50
0.0
 73
0
 44
1.0
  0
MTEXT
  5
91
100
AcDbEntity
100
AcDbMText
  8
0
 62
256
370
18
  6
CONTINUOUS
 10
176.6456249656526154
 20
21.1530350717992803
 30
0.0
 40
2.7999999999999998
 41
100.0
 71
7
 72
2
  1
\U+041b\U+0438\U+0441\U+0442\U+043e\U+0432
  7
unicode
 50
0.0
 73
0
 44
1.0
  0
MTEXT
  5
92
100
AcDbEntity
100
AcDbMText
  8
0
 62
256
370
18
  6
CONTINUOUS
 10
173.1363605994842771
 20
41.3544108011729179
 30
0.0
 40
2.7999999999999998
 41
100.0
 71
7
 72
2
  1
\U+041c\U+0430\U+0441\U+0441\U+0430
  7
unicode
 50
0.0
 73
1
 44
1.0
  0
MTEXT
  5
93
100
AcDbEntity
100
AcDbMText
  8
0
 62
256
370
18
  6
CONTINUOUS
 10
187.6585784624755604
 20
41.3544108011729179
 30
0.0
 40
2.7999999999999998
 41
100.0
 71
7
 72
2
  1
\U+041c\U+0430\U+0441\U+0448\U+0442\U+0430\U+0431
  7
unicode
 50
0.0
 73
1
 44
1.0
  0
MTEXT
  5
94
100
AcDbEntity
100
AcDbMText
  8
0
 62
256
370
18
  6
CONTINUOUS
 10
25.1820238152253104
 20
76.0712774172697266
 30
0.0
 40
4.5
 41
100.0
 71
1
 72
2
  1
2.\~\U+041e\U+0441\U+0442\U+0440\U+044b\U+0435\~\U+043a\U+0440\U+043e\U+043c\U+043a\U+0438\~\U+0441\U+043a\U+0440\U+0443\U+0433\U+043b\U+0438\U+0442\U+044c\~R0,1...0,2.
  7
unicode
 50
0.0
 73
0
 44
1.0
  0
MTEXT
  5
95
100
AcDbEntity
100
AcDbMText
  8
0
 62
256
370
18
  6
CONTINUOUS
 10
98.5625703947720524
 20
30.6611397983151619
 30
0.0
 40
5.0
 41
100.0
 71
7
 72
2
  1
_
  7
unicode
 50
0.0
 73
0
 44
1.0
  0
MTEXT
  5
96
100
AcDbEntity
100
AcDbMText
  8
0
 62
256
370
18
  6
CONTINUOUS
 10
106.6465306028710387
 20
48.0524502595075163
 30
0.0
 40
7.0
 41
100.0
 71
7
 72
2
  1
_
  7
unicode
 50
0.0
 73
0
 44
1.0
  0
MTEXT
  5
97
100
AcDbEntity
100
AcDbMText
  8
0
 62
256
370
18
  6
CONTINUOUS
 10
87.0119905293809808
 20
288.8042490932684814
 30
0.0
 40
5.0
 41
100.0
 71
7
 72
2
  1
_
  7
unicode
 50
180.0
 73
1
 44
1.0
  0
MTEXT
  5
98
100
AcDbEntity
100
AcDbMText
  8
0
 62
256
370
18
  6
CONTINUOUS
 10
170.8297109353711392
 20
21.0683574166214953
 30
0.0
 40
2.7999999999999998
 41
100.0
 71
7
 72
2
  1
_
  7
unicode
 50
0.0
 73
0
 44
1.0
  0
MTEXT
  5
99
100
AcDbEntity
100
AcDbMText
  8
0
 62
256
370
18
  6
CONTINUOUS
 10
200.0335213965634864
 20
21.0683574166214953
 30
0.0
 40
2.7999999999999998
 41
100.0
 71
7
 72
2
  1
_
  7
unicode
 50
0.0
 73
0
 44
1.0
  0
MTEXT
  5
9A
100
AcDbEntity
100
AcDbMText
  8
0
 62
256
370
18
  6
CONTINUOUS
 10
156.9538672908267074
 20
31.5559136595911163
 30
0.0
 40
2.7999999999999998
 41
100.0
 71
7
 72
2
  1
\U+0430
  7
unicode
 50
0.0
 73
0
 44
1.0
  0
MTEXT
  5
9B
100
AcDbEntity
100
AcDbMText
  8
0
 62
256
370
18
  6
CONTINUOUS
 10
172.8062119196231095
 20
31.636587169152417
 30
0.0
 40
2.7999999999999998
 41
100.0
 71
7
 72
2
  1
_
  7
unicode
 50
0.0
 73
0
 44
1.0
  0
MTEXT
  5
9C
100
AcDbEntity
100
AcDbMText
  8
0
 62
256
370
18
  6
CONTINUOUS
 10
100.3027454510150278
 20
7.1229824586076269
 30
0.0
 40
4.0
 41
100.0
 71
7
 72
2
  1
_
  7
unicode
 50
0.0
 73
0
 44
1.0
  0
MTEXT
  5
9D
100
AcDbEntity
100
AcDbMText
  8
0
 62
256
370
18
  6
CONTINUOUS
 10
100.3943336118699108
 20
14.0836826835795037
 30
0.0
 40
4.0
 41
100.0
 71
7
 72
2
  1
_
  7
unicode
 50
0.0
 73
0
 44
1.0
  0
MTEXT
  5
9E
100
AcDbEntity
100
AcDbMText
  8
0
 62
256
370
18
  6
CONTINUOUS
 10
86.1065805185065898
 20
11.0612733753680317
 30
0.0
 40
4.0
 41
100.0
 71
7
 72
2
  1
_
  7
unicode
 50
0.0
 73
0
 44
1.0
  0
MTEXT
  5
9F
100
AcDbEntity
100
AcDbMText
  8
0
 62
256
370
18
  6
CONTINUOUS
 10
173.3318377908489651
 20
284.7315700961914899
 30
0.0
 40
5.0
 41
100.0
 71
1
 72
2
  1
3,2
  7
unicode2
 50
0.0
 73
1
 44
1.0
  0
ARC
  5
A0
100
AcDbEntity
  8
0
 62
256
370
18
  6
CONTINUOUS
100
AcDbCircle
 10
189.0101229266127802
 20
275.588811459793078
 30
0.0
 40
5.3252957026099379
100
AcDbArc
 50
149.9898623596818368
 51
210.0101376403183053
  0
LINE
  5
A1
100
AcDbEntity
100
AcDbLine
  8
0
 62
256
370
18
  6
CONTINUOUS
 10
178.8161092064215723
 20
272.9437110035098613
 30
0.0
 11
182.8161092064215723
 21
279.8719142337853327
 31
0.0
  0
LINE
  5
A2
100
AcDbEntity
100
AcDbLine
  8
0
 62
256
370
18
  6
CONTINUOUS
 10
187.8918598888601537
 20
272.9437110035098613
 30
0.0
 11
191.8918598888601537
 21
279.8719142337853327
 31
0.0
  0
LINE
  5
A3
100
AcDbEntity
100
AcDbLine
  8
0
 62
256
370
18
  6
CONTINUOUS
 10
187.8918598888601537
 20
272.9437110035098613
 30
0.0
 11
185.3918598888601537
 21
277.2738380224320736
 31
0.0
  0
LINE
  5
A4
100
AcDbEntity
100
AcDbLine
  8
0
 62
256
370
18
  6
CONTINUOUS
 10
178.8164821428571543
 20
272.9433214285713802
 30
0.0
 11
176.3164821428571543
 21
277.2743214285713975
 31
0.0
  0
ARC
  5
A5
100
AcDbEntity
  8
0
 62
256
370
18
  6
CONTINUOUS
100
AcDbCircle
 10
187.9098573581571827
 20
275.588811459793078
 30
0.0
 40
5.3252957026099379
100
AcDbArc
 50
329.9898623596816947
 51
30.0101376403181348
  0
MTEXT
  5
A6
100
AcDbEntity
100
AcDbMText
  8
0
 62
256
370
18
  6
CONTINUOUS
 10
75.5537823676994122
 20
38.8580292000743626
 30
0.0
 40
2.5
 41
100.0
 71
1
 72
2
  1
\U+0414\U+0430\U+0442\U+0430
  7
unicode
 50
0.0
 73
0
 44
1.0
  0
MTEXT
  5
A7
100
AcDbEntity
100
AcDbMText
  8
0
 62
256
370
18
  6
CONTINUOUS
 10
160.3427948278548172
 20
1.5
 30
0.0
 40
2.7999999999999998
 41
100.0
 71
7
 72
2
  1
\U+0424\U+043e\U+0440\U+043c\U+0430\U+0442\~\U+04104\~\U+0413\U+041e\U+0421\U+0422\~2.301
  7
unicode
 50
0.0
 73
1
 44
1.0
  0
MTEXT
  5
A8
100
AcDbEntity
100
AcDbMText
  8
0
 62
256
370
18
  6
CONTINUOUS
 10
20.8930144435235334
 20
31.1835548399027296
 30
0.0
 40
2.7999999999999998
 41
100.0
 71
7
 72
2
  1
\U+0420\U+0430\U+0437\U+0440\U+0430\U+0431.
  7
unicode
 50
0.0
 73
1
 44
1.0
  0
MTEXT
  5
A9
100
AcDbEntity
100
AcDbMText
  8
0
 62
256
370
18
  6
CONTINUOUS
 10
20.9009641201588821
 20
26.0
 30
0.0
 40
2.7999999999999998
 41
100.0
 71
7
 72
2
  1
\U+041f\U+0440\U+043e\U+0432.
  7
unicode
 50
0.0
 73
1
 44
1.0
  0
MTEXT
  5
AA
100
AcDbEntity
100
AcDbMText
  8
0
 62
256
370
18
  6
CONTINUOUS
 10
20.9009641201588821
 20
21.0
 30
0.0
 40
2.7999999999999998
 41
100.0
 71
7
 72
2
  1
\U+0422.\U+043a\U+043e\U+043d\U+0442\U+0440.
  7
unicode
 50
0.0
 73
1
 44
1.0
  0
MTEXT
  5
AB
100
AcDbEntity
100
AcDbMText
  8
0
 62
256
370
18
  6
CONTINUOUS
 10
20.9009641201588821
 20
11.0
 30
0.0
 40
2.7999999999999998
 41
100.0
 71
7
 72
2
  1
\U+041d.\U+043a\U+043e\U+043d\U+0442\U+0440.
  7
unicode
 50
0.0
 73
1
 44
1.0
  0
MTEXT
  5
AC
100
AcDbEntity
100
AcDbMText
  8
0
 62
256
370
18
  6
CONTINUOUS
 10
20.9009641201588821
 20
6.0
 30
0.0
 40
2.7999999999999998
 41
100.0
 71
7
 72
2
  1
\U+0423\U+0442\U+0432.
  7
unicode
 50
0.0
 73
1
 44
1.0
  0
MTEXT
  5
AD
100
AcDbEntity
100
AcDbMText
  8
0
 62
256
370
18
  6
CONTINUOUS
 10
205.9495602275124497
 20
5.0717569800970708
 30
0.0
 40
1.2
 41
100.0
 71
1
 72
2
  1
KONSEXPERT\~&\~RIBBONSOFT
  7
unicode2
 50
90.0
 73
1
 44
1.0
  0
MTEXT
  5
AE
100
AcDbEntity
100
AcDbMText
  8
0
 62
256
370
18
  6
CONTINUOUS
 10
207.7609020061185277
 20
7.1246109958506239
 30
0.0
 40
1.2
 41
100.0
 71
1
 72
2
  1
OPEN\~SOURCE\~RELEASE
  7
unicode2
 50
90.0
 73
1
 44
1.0
  0
MTEXT
  5
AF
100
AcDbEntity
100
AcDbMText
  8
0
 62
256
370
18
  6
CONTINUOUS
 10
156.5908364978008365
 20
11.1686915533882924
 30
0.0
 40
2.7999999999999998
 41
100.0
 71
7
 72
2
  1
_
  7
unicode
 50
0.0
 73
0
 44
1.0
  0
MTEXT
  5
B0
100
AcDbEntity
100
AcDbMText
  8
0
 62
256
370
18
  6
CONTINUOUS
 10
25.2034369329512096
 20
90.8585407915434047
 30
0.0
 40
4.5
 41
100.0
 71
1
 72
2
  3
1.\~\U+041d\U+0435\U+0443\U+043a\U+0430\U+0437\U+0430\U+043d\U+043d\U+044b\U+0435\~\U+043f\U+0440\U+0435\U+0434\U+0435\U+043b\U+044c\U+043d\U+044b\U+0435\~\U+043e\U+0442\U+043a\U+043b\U+043e\U+043d\U+0435\U+043d\U+0438\U+044f\~\U+0440\U+0430\U+0437\U
  1
+043c\U+0435\U+0440\U+043e\U+0432\P\~\~\U+043e\U+0442\U+0432\U+0435\U+0440\U+0441\U+0442\U+0438\U+0439\~-\~\U+041d14,\~\U+0432\U+0430\U+043b\U+043e\U+0432\~-\~h14,\~\U+043e\U+0441\U+0442\U+0430\U+043b\U+044c\U+043d\U+044b\U+0445\~%%p\~IT
  7
unicode
 50
0.0
 73
1
 44
1.0
  0
MTEXT
  5
B1
100
AcDbEntity
100
AcDbMText
  8
0
 62
256
370
18
  6
CONTINUOUS
 10
185.6416246148324092
 20
82.7098579746936053
 30
0.0
 40
3.0
 41
100.0
 71
7
 72
2
  1
14
  7
unicode
 50
0.0
 73
0
 44
1.0
  0
MTEXT
  5
B2
100
AcDbEntity
100
AcDbMText
  8
0
 62
256
370
18
  6
CONTINUOUS
 10
186.7442759452693508
 20
78.40951778598955
 30
0.0
 40
3.0
 41
100.0
 71
7
 72
2
  1
2
  7
unicode
 50
0.0
 73
0
 44
1.0
  0
LINE
  5
B3
100
AcDbEntity
100
AcDbLine
  8
0
 62
7
370
18
  6
CONTINUOUS
 10
185.1406466901514989
 20
81.9993747883276995
 30
0.0
 11
189.6460500900816157
 21
81.9993747883276995
 31
0.0
  0
MTEXT
  5
B4
100
AcDbEntity
100
AcDbMText
  8
0
 62
256
370
18
  6
CONTINUOUS
 10
9.2277866362977647
 20
66.4139866449291532
 30
0.0
 40
2.7999999999999998
 41
100.0
 71
1
 72
2
  1
\U+0412\U+0437\U+0430\U+043c.\~\U+0438\U+043d\U+0432.N
  7
unicode
 50
90.0
 73
0
 44
1.0
  0
ENDSEC
  0
SECTION
  2
OBJECTS
  0
DICTIONARY
  5
C
100
AcDbDictionary
280
0
281
1
  3
ACAD_GROUP
350
D
  3
ACAD_LAYOUT
350
1A
  3
ACAD_MLINESTYLE
350
17
  3
ACAD_PLOTSETTINGS
350
19
  3
ACAD_PLOTSTYLENAME
350
E
  3
AcDbVariableDictionary
350
B5
  0
DICTIONARY
  5
D
100
AcDbDictionary
280
0
281
1
  0
ACDBDICTIONARYWDFLT
  5
E
100
AcDbDictionary
281
1
  3
Normal
350
F
100
AcDbDictionaryWithDefault
340
F
  0
ACDBPLACEHOLDER
  5
F
  0
DICTIONARY
  5
17
100
AcDbDictionary
280
0
281
1
  3
Standard
350
18
  0
MLINESTYLE
  5
18
100
AcDbMlineStyle
  2
STANDARD
 70
0
  3

 62
256
 51
90.0
 52
90.0
 71
2
 49
0.5
 62
256
  6
BYLAYER
 49
-0.5
 62
256
  6
BYLAYER
  0
DICTIONARY
  5
19
100
AcDbDictionary
280
0
281
1
  0
DICTIONARY
  5
1A
100
AcDbDictionary
281
1
  3
Layout1
350
1E
  3
Layout2
350
26
  3
Model
350
22
  0
LAYOUT
  5
1E
100
AcDbPlotSettings
  1

  2
C:\Program Files\AutoCAD 2002\plotters\DWF ePlot (optimized for plotting).pc3
  4

  6

 40
0.0
 41
0.0
 42
0.0
 43
0.0
 44
0.0
 45
0.0
 46
0.0
 47
0.0
 48
0.0
 49
0.0
140
0.0
141
0.0
142
1.0
143
1.0
 70
688
 72
0
 73
0
 74
5
  7

 75
16
147
1.0
148
0.0
149
0.0
100
AcDbLayout
  1
Layout1
 70
1
 71
1
 10
0.0
 20
0.0
 11
420.0
 21
297.0
 12
0.0
 22
0.0
 32
0.0
 14
100000000000000000000.0
 24
100000000000000000000.0
 34
100000000000000000000.0
 15
-100000000000000000000.0
 25
-100000000000000000000.0
 35
-100000000000000000000.0
146
0.0
 13
0.0
 23
0.0
 33
0.0
 16
1.0
 26
0.0
 36
0.0
 17
0.0
 27
1.0
 37
0.0
 76
0
330
1B
  0
LAYOUT
  5
22
100
AcDbPlotSettings
  1

  2
C:\Program Files\AutoCAD 2002\plotters\DWF ePlot (optimized for plotting).pc3
  4

  6

 40
0.0
 41
0.0
 42
0.0
 43
0.0
 44
0.0
 45
0.0
 46
0.0
 47
0.0
 48
0.0
 49
0.0
140
0.0
141
0.0
142
1.0
143
1.0
 70
1712
 72
0
 73
0
 74
0
  7

 75
0
147
1.0
148
0.0
149
0.0
100
AcDbLayout
  1
Model
 70
1
 71
0
 10
0.0
 20
0.0
 11
12.0
 21
9.0
 12
0.0
 22
0.0
 32
0.0
 14
0.0
 24
0.0
 34
0.0
 15
0.0
 25
0.0
 35
0.0
146
0.0
 13
0.0
 23
0.0
 33
0.0
 16
1.0
 26
0.0
 36
0.0
 17
0.0
 27
1.0
 37
0.0
 76
0
330
1F
  0
LAYOUT
  5
26
100
AcDbPlotSettings
  1

  2
C:\Program Files\AutoCAD 2002\plotters\DWF ePlot (optimized for plotting).pc3
  4

  6

 40
0.0
 41
0.0
 42
0.0
 43
0.0
 44
0.0
 45
0.0
 46
0.0
 47
0.0
 48
0.0
 49
0.0
140
0.0
141
0.0
142
1.0
143
1.0
 70
688
 72
0
 73
0
 74
5
  7

 75
16
147
1.0
148
0.0
149
0.0
100
AcDbLayout
  1
Layout2
 70
1
 71
2
 10
0.0
 20
0.0
 11
12.0
 21
9.0
 12
0.0
 22
0.0
 32
0.0
 14
0.0
 24
0.0
 34
0.0
 15
0.0
 25
0.0
 35
0.0
146
0.0
 13
0.0
 23
0.0
 33
0.0
 16
1.0
 26
0.0
 36
0.0
 17
0.0
 27
1.0
 37
0.0
 76
0
330
23
  0
DICTIONARY
  5
B5
100
AcDbDictionary
281
1
  3
DIMASSOC
350
B7
  3
HIDETEXT
350
B6
  0
DICTIONARYVAR
  5
B6
100
DictionaryVariables
280
0
  1
2
  0
DICTIONARYVAR
  5
B7
100
DictionaryVariables
280
0
  1
1
  0
ENDSEC
  0
EOF
