  0
SECTION
  2
HEADER
  9
$LIMMIN
 10
0.000000
 20
0.000000
  9
$LIMMAX
 10
100.000000
 20
98.964000
  9
$EXTMIN
 10
0.000000
 20
0.000000
  9
$EXTMAX
 10
100.000000
 20
98.964000
  9
$ANGBASE
 50
0.000000
  9
$ANGDIR
 70
0
  9
$INSUNITS
 70
0
  9
$DIMALT
 70
4
  9
$DIMLUNIT
 70
2
  9
$DIMASZ
 40
3.000000
  9
$DIMTXT
 40
5.000000
  9
$DIMRND
 40
0.010000
  9
$DIMEXE
 40
2.000000
  9
$DIMEXO
 40
2.000000
  9
$DIMAUNIT
 70
0
  9
$DIMADEC
 70
2
  9
$GRIDUNIT
 10
0.001000
 20
0.001000
  9
$PLIMMIN
 10
0.000000
 20
0.000000
  9
$PLIMMAX
 10
210.000000
 20
297.000000
  9
$PSVPSCALE
 40
1.000000
  0
ENDSEC
  0
SECTION
  2
TABLES
  0
TABLE
  2
LTYPE
 70
     1
  0
LTYPE
  2
CONTINUOUS
 70
    64
  3
Ausgez
 72
    65
 73
  0
 40
0.000000
  0
ENDTAB
  0
TABLE
  2
LAYER
 70
     1
  0
LAYER
  2
default
 70
    64
 62
0
  6
CONTINUOUS
  0
ENDTAB
  0
ENDSEC
  0
SECTION
  2
BLOCKS
  0
ENDSEC
  0
SECTION
  2
ENTITIES
  0
LINE
  8
default
  6
CONTINUOUS
 10
25.000000
 20
75.143000
 11
42.647000
 21
75.143000
 39
0
 62
7
  0
LINE
  8
default
  6
CONTINUOUS
 10
57.353000
 20
75.143000
 11
77.941000
 21
75.143000
 39
0
 62
7
  0
LINE
  8
default
  6
CONTINUOUS
 10
11.765000
 20
50.285000
 11
38.235000
 21
50.285000
 39
0
 62
7
  0
LINE
  8
default
  6
CONTINUOUS
 10
50.000000
 20
50.285000
 11
67.647000
 21
50.285000
 39
0
 62
7
  0
LINE
  8
default
  6
CONTINUOUS
 10
7.353000
 20
25.428000
 11
27.941000
 21
25.428000
 39
0
 62
7
  0
LINE
  8
default
  6
CONTINUOUS
 10
36.765000
 20
25.428000
 11
63.235000
 21
25.428000
 39
0
 62
7
  0
LINE
  8
default
  6
CONTINUOUS
 10
75.000000
 20
25.428000
 11
92.647000
 21
25.428000
 39
0
 62
7
  0
LINE
  8
default
  6
CONTINUOUS
 10
32.353000
 20
0.570000
 11
52.941000
 21
0.570000
 39
0
 62
7
  0
LINE
  8
default
  6
CONTINUOUS
 10
61.765000
 20
0.570000
 11
88.235000
 21
0.570000
 39
0
 62
7
  0
LINE
  8
default
  6
CONTINUOUS
 10
13.235000
 20
76.178000
 11
25.000000
 21
76.178000
 39
0
 62
7
  0
LINE
  8
default
  6
CONTINUOUS
 10
42.647000
 20
76.178000
 11
57.353000
 21
76.178000
 39
0
 62
7
  0
LINE
  8
default
  6
CONTINUOUS
 10
38.235000
 20
51.321000
 11
50.000000
 21
51.321000
 39
0
 62
7
  0
LINE
  8
default
  6
CONTINUOUS
 10
67.647000
 20
51.321000
 11
82.353000
 21
51.321000
 39
0
 62
7
  0
LINE
  8
default
  6
CONTINUOUS
 10
63.235000
 20
26.464000
 11
75.000000
 21
26.464000
 39
0
 62
7
  0
LINE
  8
default
  6
CONTINUOUS
 10
17.647000
 20
1.606000
 11
32.353000
 21
1.606000
 39
0
 62
7
  0
LINE
  8
default
  6
CONTINUOUS
 10
77.941000
 20
73.589000
 11
86.765000
 21
73.589000
 39
0
 62
7
  0
LINE
  8
default
  6
CONTINUOUS
 10
2.941000
 20
48.732000
 11
11.765000
 21
48.732000
 39
0
 62
7
  0
LINE
  8
default
  6
CONTINUOUS
 10
27.941000
 20
23.874000
 11
36.765000
 21
23.874000
 39
0
 62
7
  0
LINE
  8
default
  6
CONTINUOUS
 10
0.000000
 20
0.570000
 11
0.000000
 21
24.392000
 39
0
 62
7
  0
LINE
  8
default
  6
CONTINUOUS
 10
25.000000
 20
75.143000
 11
25.000000
 21
98.964000
 39
0
 62
7
  0
LINE
  8
default
  6
CONTINUOUS
 10
50.000000
 20
50.285000
 11
50.000000
 21
74.107000
 39
0
 62
7
  0
LINE
  8
default
  6
CONTINUOUS
 10
75.000000
 20
25.428000
 11
75.000000
 21
49.249000
 39
0
 62
7
  0
LINE
  8
default
  6
CONTINUOUS
 10
17.647000
 20
0.570000
 11
17.647000
 21
23.874000
 39
0
 62
7
  0
LINE
  8
default
  6
CONTINUOUS
 10
42.647000
 20
75.143000
 11
42.647000
 21
98.446000
 39
0
 62
7
  0
LINE
  8
default
  6
CONTINUOUS
 10
67.647000
 20
50.285000
 11
67.647000
 21
73.589000
 39
0
 62
7
  0
LINE
  8
default
  6
CONTINUOUS
 10
92.647000
 20
25.428000
 11
92.647000
 21
48.732000
 39
0
 62
7
  0
LINE
  8
default
  6
CONTINUOUS
 10
7.353000
 20
25.428000
 11
7.353000
 21
47.178000
 39
0
 62
7
  0
LINE
  8
default
  6
CONTINUOUS
 10
32.353000
 20
0.570000
 11
32.353000
 21
22.321000
 39
0
 62
7
  0
LINE
  8
default
  6
CONTINUOUS
 10
57.353000
 20
75.143000
 11
57.353000
 21
96.893000
 39
0
 62
7
  0
LINE
  8
default
  6
CONTINUOUS
 10
82.353000
 20
50.285000
 11
82.353000
 21
72.035000
 39
0
 62
7
  0
LINE
  8
default
  6
CONTINUOUS
 10
2.941000
 20
48.732000
 11
2.941000
 21
72.553000
 39
0
 62
7
  0
LINE
  8
default
  6
CONTINUOUS
 10
27.941000
 20
23.874000
 11
27.941000
 21
47.696000
 39
0
 62
7
  0
LINE
  8
default
  6
CONTINUOUS
 10
52.941000
 20
0.000000
 11
52.941000
 21
22.838000
 39
0
 62
7
  0
LINE
  8
default
  6
CONTINUOUS
 10
77.941000
 20
73.589000
 11
77.941000
 21
97.411000
 39
0
 62
7
  0
LINE
  8
default
  6
CONTINUOUS
 10
11.765000
 20
48.732000
 11
11.765000
 21
72.553000
 39
0
 62
7
  0
LINE
  8
default
  6
CONTINUOUS
 10
36.765000
 20
23.874000
 11
36.765000
 21
47.696000
 39
0
 62
7
  0
LINE
  8
default
  6
CONTINUOUS
 10
61.765000
 20
0.000000
 11
61.765000
 21
22.838000
 39
0
 62
7
  0
LINE
  8
default
  6
CONTINUOUS
 10
86.765000
 20
73.589000
 11
86.765000
 21
97.411000
 39
0
 62
7
  0
LINE
  8
default
  6
CONTINUOUS
 10
13.235000
 20
75.143000
 11
13.235000
 21
97.929000
 39
0
 62
7
  0
LINE
  8
default
  6
CONTINUOUS
 10
38.235000
 20
50.285000
 11
38.235000
 21
73.071000
 39
0
 62
7
  0
LINE
  8
default
  6
CONTINUOUS
 10
63.235000
 20
25.428000
 11
63.235000
 21
48.214000
 39
0
 62
7
  0
LINE
  8
default
  6
CONTINUOUS
 10
88.235000
 20
0.570000
 11
88.235000
 21
23.356000
 39
0
 62
7
  0
LINE
  8
default
  6
CONTINUOUS
 10
0.000000
 20
75.143000
 11
13.235000
 21
75.143000
 39
0
 62
7
  0
LINE
  8
default
  6
CONTINUOUS
 10
0.000000
 20
50.285000
 11
2.941000
 21
50.285000
 39
0
 62
7
  0
LINE
  8
default
  6
CONTINUOUS
 10
0.000000
 20
0.570000
 11
17.647000
 21
0.570000
 39
0
 62
7
  0
LINE
  8
default
  6
CONTINUOUS
 10
0.000000
 20
26.464000
 11
7.353000
 21
26.464000
 39
0
 62
7
  0
LINE
  8
default
  6
CONTINUOUS
 10
86.765000
 20
75.143000
 11
100.000000
 21
75.143000
 39
0
 62
7
  0
LINE
  8
default
  6
CONTINUOUS
 10
82.353000
 20
50.285000
 11
100.000000
 21
50.285000
 39
0
 62
7
  0
LINE
  8
default
  6
CONTINUOUS
 10
92.647000
 20
26.464000
 11
100.000000
 21
26.464000
 39
0
 62
7
  0
LINE
  8
default
  6
CONTINUOUS
 10
88.235000
 20
1.606000
 11
100.000000
 21
1.606000
 39
0
 62
7
  0
LINE
  8
default
  6
CONTINUOUS
 10
52.941000
 20
0.000000
 11
61.765000
 21
0.000000
 39
0
 62
7
  0
ENDSEC
  0
EOF
