  0
SECTION
  2
HEADER
  9
$LIMMIN
 10
-0.000534
 20
0.000000
  9
$LIMMAX
 10
94.999472
 20
74.310226
  9
$EXTMIN
 10
-0.000534
 20
0.000000
  9
$EXTMAX
 10
94.999472
 20
74.310226
  9
$ANGBASE
 50
0.000000
  9
$ANGDIR
 70
0
  9
$INSUNITS
 70
0
  9
$DIMALT
 70
4
  9
$DIMLUNIT
 70
2
  9
$DIMASZ
 40
3.000000
  9
$DIMTXT
 40
5.000000
  9
$DIMRND
 40
0.010000
  9
$DIMEXE
 40
2.000000
  9
$DIMEXO
 40
2.000000
  9
$DIMAUNIT
 70
0
  9
$DIMADEC
 70
2
  9
$GRIDUNIT
 10
0.001000
 20
0.001000
  9
$PLIMMIN
 10
0.000000
 20
0.000000
  9
$PLIMMAX
 10
210.000000
 20
297.000000
  9
$PSVPSCALE
 40
1.000000
  0
ENDSEC
  0
SECTION
  2
TABLES
  0
TABLE
  2
LTYPE
 70
     1
  0
LTYPE
  2
CONTINUOUS
 70
    64
  3
Ausgez
 72
    65
 73
  0
 40
0.000000
  0
ENDTAB
  0
TABLE
  2
LAYER
 70
     1
  0
LAYER
  2
default
 70
    64
 62
0
  6
CONTINUOUS
  0
ENDTAB
  0
ENDSEC
  0
SECTION
  2
BLOCKS
  0
ENDSEC
  0
SECTION
  2
ENTITIES
  0
LINE
  8
default
  6
CONTINUOUS
 10
14.999469
 20
0.000000
 11
14.999469
 21
7.748864
 39
0
 62
7
  0
LINE
  8
default
  6
CONTINUOUS
 10
24.999465
 20
0.000000
 11
24.999465
 21
6.905330
 39
0
 62
7
  0
LINE
  8
default
  6
CONTINUOUS
 10
44.999465
 20
0.000000
 11
44.999465
 21
6.232220
 39
0
 62
7
  0
LINE
  8
default
  6
CONTINUOUS
 10
19.999467
 20
0.000240
 11
19.999467
 21
8.948129
 39
0
 62
7
  0
LINE
  8
default
  6
CONTINUOUS
 10
29.999467
 20
0.000240
 11
29.999467
 21
9.791664
 39
0
 62
7
  0
LINE
  8
default
  6
CONTINUOUS
 10
39.999467
 20
0.000240
 11
39.999467
 21
10.296625
 39
0
 62
7
  0
LINE
  8
default
  6
CONTINUOUS
 10
24.999465
 20
31.922824
 11
24.999465
 21
37.828155
 39
0
 62
7
  0
LINE
  8
default
  6
CONTINUOUS
 10
34.999469
 20
31.922824
 11
34.999469
 21
37.323181
 39
0
 62
7
  0
LINE
  8
default
  6
CONTINUOUS
 10
44.999465
 20
31.922824
 11
44.999465
 21
37.155043
 39
0
 62
7
  0
LINE
  8
default
  6
CONTINUOUS
 10
54.999470
 20
31.922824
 11
54.999470
 21
36.986909
 39
0
 62
7
  0
LINE
  8
default
  6
CONTINUOUS
 10
64.999466
 20
31.922824
 11
64.999466
 21
36.481941
 39
0
 62
7
  0
LINE
  8
default
  6
CONTINUOUS
 10
74.999471
 20
31.922824
 11
74.999471
 21
35.638405
 39
0
 62
7
  0
LINE
  8
default
  6
CONTINUOUS
 10
19.999467
 20
31.923065
 11
19.999467
 21
39.870957
 39
0
 62
7
  0
LINE
  8
default
  6
CONTINUOUS
 10
29.999467
 20
31.923065
 11
29.999467
 21
40.714482
 39
0
 62
7
  0
LINE
  8
default
  6
CONTINUOUS
 10
39.999467
 20
31.923065
 11
39.999467
 21
41.219452
 39
0
 62
7
  0
LINE
  8
default
  6
CONTINUOUS
 10
49.999468
 20
31.923065
 11
49.999468
 21
41.387564
 39
0
 62
7
  0
LINE
  8
default
  6
CONTINUOUS
 10
59.999468
 20
31.923065
 11
59.999468
 21
41.219404
 39
0
 62
7
  0
LINE
  8
default
  6
CONTINUOUS
 10
69.999464
 20
31.923065
 11
69.999464
 21
40.714395
 39
0
 62
7
  0
LINE
  8
default
  6
CONTINUOUS
 10
4.999464
 20
63.845482
 11
4.999464
 21
72.779341
 39
0
 62
7
  0
LINE
  8
default
  6
CONTINUOUS
 10
24.999465
 20
63.845482
 11
24.999465
 21
70.750817
 39
0
 62
7
  0
LINE
  8
default
  6
CONTINUOUS
 10
34.999469
 20
63.845482
 11
34.999469
 21
70.245843
 39
0
 62
7
  0
LINE
  8
default
  6
CONTINUOUS
 10
44.999465
 20
63.845482
 11
44.999465
 21
70.077696
 39
0
 62
7
  0
LINE
  8
default
  6
CONTINUOUS
 10
54.999470
 20
63.845482
 11
54.999470
 21
69.909566
 39
0
 62
7
  0
LINE
  8
default
  6
CONTINUOUS
 10
64.999466
 20
63.845482
 11
64.999466
 21
69.404592
 39
0
 62
7
  0
LINE
  8
default
  6
CONTINUOUS
 10
-0.000534
 20
63.845723
 11
-0.000534
 21
70.077963
 39
0
 62
7
  0
LINE
  8
default
  6
CONTINUOUS
 10
19.999467
 20
63.845723
 11
19.999467
 21
72.793610
 39
0
 62
7
  0
LINE
  8
default
  6
CONTINUOUS
 10
29.999467
 20
63.845723
 11
29.999467
 21
73.637148
 39
0
 62
7
  0
LINE
  8
default
  6
CONTINUOUS
 10
39.999467
 20
63.845723
 11
39.999467
 21
74.142110
 39
0
 62
7
  0
LINE
  8
default
  6
CONTINUOUS
 10
49.999468
 20
63.845723
 11
49.999468
 21
74.310226
 39
0
 62
7
  0
LINE
  8
default
  6
CONTINUOUS
 10
59.999468
 20
63.845723
 11
59.999468
 21
74.142057
 39
0
 62
7
  0
LINE
  8
default
  6
CONTINUOUS
 10
84.999458
 20
0.000000
 11
84.999458
 21
8.933866
 39
0
 62
7
  0
LINE
  8
default
  6
CONTINUOUS
 10
94.999472
 20
0.000000
 11
94.999472
 21
7.748864
 39
0
 62
7
  0
LINE
  8
default
  6
CONTINUOUS
 10
79.999460
 20
0.000240
 11
79.999460
 21
6.232487
 39
0
 62
7
  0
LINE
  8
default
  6
CONTINUOUS
 10
89.999465
 20
0.000240
 11
89.999465
 21
7.763118
 39
0
 62
7
  0
LINE
  8
default
  6
CONTINUOUS
 10
94.999463
 20
63.845482
 11
94.999463
 21
72.779341
 39
0
 62
7
  0
LINE
  8
default
  6
CONTINUOUS
 10
89.999474
 20
63.845723
 11
89.999474
 21
70.077963
 39
0
 62
7
  0
LINE
  8
default
  6
CONTINUOUS
 10
34.999469
 20
0.000000
 11
34.999469
 21
8.948129
 39
0
 62
7
  0
LINE
  8
default
  6
CONTINUOUS
 10
49.999459
 20
0.000000
 11
49.999459
 21
6.232220
 39
0
 62
7
  0
LINE
  8
default
  6
CONTINUOUS
 10
54.999466
 20
0.000000
 11
54.999466
 21
6.232220
 39
0
 62
7
  0
LINE
  8
default
  6
CONTINUOUS
 10
9.999467
 20
31.923065
 11
9.999467
 21
37.155283
 39
0
 62
7
  0
LINE
  8
default
  6
CONTINUOUS
 10
14.999464
 20
31.923065
 11
14.999464
 21
37.155283
 39
0
 62
7
  0
ENDSEC
  0
EOF
