  0
SECTION
  2
HEADER
  9
$LIMMIN
 10
0.000000
 20
0.000000
  9
$LIMMAX
 10
100.000000
 20
100.000031
  9
$EXTMIN
 10
0.000000
 20
0.000000
  9
$EXTMAX
 10
100.000000
 20
100.000031
  0
ENDSEC
  0
SECTION
  2
TABLES
  0
TABLE
  2
LTYPE
 70
     1
  0
LTYPE
  2
CONTINUOUS
 70
    64
  3
Ausgez
 72
    65
 73
  0
 40
0.000000
  0
ENDTAB
  0
TABLE
  2
LAYER
 70
     1
  0
LAYER
  2
default
 70
    64
 62
     0
  6
CONTINUOUS
  0
ENDTAB
  0
ENDSEC
  0
SECTION
  2
BLOCKS
  0
ENDSEC
  0
SECTION
  2
ENTITIES
  0
LINE
  8
default
  6
CONTINUOUS
 10
0.000000
 20
2.380952
 11
4.166667
 21
0.000000
 39
0
 62
0
  0
LINE
  8
default
  6
CONTINUOUS
 10
4.166667
 20
0.000000
 11
8.333333
 21
2.380955
 39
0
 62
0
  0
LINE
  8
default
  6
CONTINUOUS
 10
8.333333
 20
2.380955
 11
12.500000
 21
0.000000
 39
0
 62
0
  0
LINE
  8
default
  6
CONTINUOUS
 10
12.500000
 20
0.000000
 11
16.666666
 21
2.380949
 39
0
 62
0
  0
LINE
  8
default
  6
CONTINUOUS
 10
16.666666
 20
2.380949
 11
20.833334
 21
0.000000
 39
0
 62
0
  0
LINE
  8
default
  6
CONTINUOUS
 10
20.833334
 20
0.000000
 11
25.000000
 21
2.380958
 39
0
 62
0
  0
LINE
  8
default
  6
CONTINUOUS
 10
25.000000
 20
2.380958
 11
29.166666
 21
0.000000
 39
0
 62
0
  0
LINE
  8
default
  6
CONTINUOUS
 10
29.166666
 20
0.000000
 11
33.333332
 21
2.380935
 39
0
 62
0
  0
LINE
  8
default
  6
CONTINUOUS
 10
33.333332
 20
2.380935
 11
37.500000
 21
0.000000
 39
0
 62
0
  0
LINE
  8
default
  6
CONTINUOUS
 10
37.500000
 20
0.000000
 11
41.666668
 21
2.380938
 39
0
 62
0
  0
LINE
  8
default
  6
CONTINUOUS
 10
41.666668
 20
2.380938
 11
45.833332
 21
0.000000
 39
0
 62
0
  0
LINE
  8
default
  6
CONTINUOUS
 10
45.833332
 20
0.000000
 11
50.000000
 21
2.380966
 39
0
 62
0
  0
LINE
  8
default
  6
CONTINUOUS
 10
50.000000
 20
2.380966
 11
54.166668
 21
0.000000
 39
0
 62
0
  0
LINE
  8
default
  6
CONTINUOUS
 10
54.166668
 20
0.000000
 11
58.333332
 21
2.380963
 39
0
 62
0
  0
LINE
  8
default
  6
CONTINUOUS
 10
58.333332
 20
2.380963
 11
62.500000
 21
0.000000
 39
0
 62
0
  0
LINE
  8
default
  6
CONTINUOUS
 10
62.500000
 20
0.000000
 11
66.666664
 21
2.380957
 39
0
 62
0
  0
LINE
  8
default
  6
CONTINUOUS
 10
66.666664
 20
2.380957
 11
70.833336
 21
0.000000
 39
0
 62
0
  0
LINE
  8
default
  6
CONTINUOUS
 10
70.833336
 20
0.000000
 11
75.000000
 21
2.380940
 39
0
 62
0
  0
LINE
  8
default
  6
CONTINUOUS
 10
75.000000
 20
2.380940
 11
79.166664
 21
0.000000
 39
0
 62
0
  0
LINE
  8
default
  6
CONTINUOUS
 10
79.166664
 20
0.000000
 11
83.333336
 21
2.380921
 39
0
 62
0
  0
LINE
  8
default
  6
CONTINUOUS
 10
83.333336
 20
2.380921
 11
87.500000
 21
0.000000
 39
0
 62
0
  0
LINE
  8
default
  6
CONTINUOUS
 10
87.500000
 20
0.000000
 11
91.666664
 21
2.380909
 39
0
 62
0
  0
LINE
  8
default
  6
CONTINUOUS
 10
91.666664
 20
2.380909
 11
95.833336
 21
0.000000
 39
0
 62
0
  0
LINE
  8
default
  6
CONTINUOUS
 10
95.833336
 20
0.000000
 11
100.000000
 21
2.380934
 39
0
 62
0
  0
LINE
  8
default
  6
CONTINUOUS
 10
8.333333
 20
2.380955
 11
8.333333
 21
7.142855
 39
0
 62
0
  0
LINE
  8
default
  6
CONTINUOUS
 10
16.666666
 20
2.380949
 11
16.666666
 21
7.142848
 39
0
 62
0
  0
LINE
  8
default
  6
CONTINUOUS
 10
25.000000
 20
2.380958
 11
25.000000
 21
7.142865
 39
0
 62
0
  0
LINE
  8
default
  6
CONTINUOUS
 10
33.333332
 20
2.380935
 11
33.333332
 21
7.142857
 39
0
 62
0
  0
LINE
  8
default
  6
CONTINUOUS
 10
41.666668
 20
2.380938
 11
41.666668
 21
7.142845
 39
0
 62
0
  0
LINE
  8
default
  6
CONTINUOUS
 10
50.000000
 20
2.380966
 11
50.000000
 21
7.142848
 39
0
 62
0
  0
LINE
  8
default
  6
CONTINUOUS
 10
58.333332
 20
2.380963
 11
58.333332
 21
7.142839
 39
0
 62
0
  0
LINE
  8
default
  6
CONTINUOUS
 10
66.666664
 20
2.380957
 11
66.666664
 21
7.142869
 39
0
 62
0
  0
LINE
  8
default
  6
CONTINUOUS
 10
75.000000
 20
2.380940
 11
75.000000
 21
7.142873
 39
0
 62
0
  0
LINE
  8
default
  6
CONTINUOUS
 10
83.333336
 20
2.380921
 11
83.333336
 21
7.142817
 39
0
 62
0
  0
LINE
  8
default
  6
CONTINUOUS
 10
91.666664
 20
2.380909
 11
91.666664
 21
7.142838
 39
0
 62
0
  0
LINE
  8
default
  6
CONTINUOUS
 10
0.000000
 20
7.142857
 11
4.166667
 21
9.523808
 39
0
 62
0
  0
LINE
  8
default
  6
CONTINUOUS
 10
4.166667
 20
9.523808
 11
8.333333
 21
7.142855
 39
0
 62
0
  0
LINE
  8
default
  6
CONTINUOUS
 10
4.166667
 20
9.523808
 11
4.166667
 21
14.285718
 39
0
 62
0
  0
LINE
  8
default
  6
CONTINUOUS
 10
8.333333
 20
7.142855
 11
12.500000
 21
9.523811
 39
0
 62
0
  0
LINE
  8
default
  6
CONTINUOUS
 10
12.500000
 20
9.523811
 11
16.666666
 21
7.142848
 39
0
 62
0
  0
LINE
  8
default
  6
CONTINUOUS
 10
12.500000
 20
9.523811
 11
12.500000
 21
14.285720
 39
0
 62
0
  0
LINE
  8
default
  6
CONTINUOUS
 10
16.666666
 20
7.142848
 11
20.833334
 21
9.523809
 39
0
 62
0
  0
LINE
  8
default
  6
CONTINUOUS
 10
20.833334
 20
9.523809
 11
25.000000
 21
7.142865
 39
0
 62
0
  0
LINE
  8
default
  6
CONTINUOUS
 10
20.833334
 20
9.523809
 11
20.833334
 21
14.285720
 39
0
 62
0
  0
LINE
  8
default
  6
CONTINUOUS
 10
25.000000
 20
7.142865
 11
29.166666
 21
9.523798
 39
0
 62
0
  0
LINE
  8
default
  6
CONTINUOUS
 10
29.166666
 20
9.523798
 11
33.333332
 21
7.142857
 39
0
 62
0
  0
LINE
  8
default
  6
CONTINUOUS
 10
29.166666
 20
9.523798
 11
29.166666
 21
14.285716
 39
0
 62
0
  0
LINE
  8
default
  6
CONTINUOUS
 10
33.333332
 20
7.142857
 11
37.500000
 21
9.523806
 39
0
 62
0
  0
LINE
  8
default
  6
CONTINUOUS
 10
37.500000
 20
9.523806
 11
41.666668
 21
7.142845
 39
0
 62
0
  0
LINE
  8
default
  6
CONTINUOUS
 10
37.500000
 20
9.523806
 11
37.500000
 21
14.285718
 39
0
 62
0
  0
LINE
  8
default
  6
CONTINUOUS
 10
41.666668
 20
7.142845
 11
45.833332
 21
9.523834
 39
0
 62
0
  0
LINE
  8
default
  6
CONTINUOUS
 10
45.833332
 20
9.523834
 11
50.000000
 21
7.142848
 39
0
 62
0
  0
LINE
  8
default
  6
CONTINUOUS
 10
45.833332
 20
9.523834
 11
45.833332
 21
14.285710
 39
0
 62
0
  0
LINE
  8
default
  6
CONTINUOUS
 10
50.000000
 20
7.142848
 11
54.166668
 21
9.523788
 39
0
 62
0
  0
LINE
  8
default
  6
CONTINUOUS
 10
54.166668
 20
9.523788
 11
58.333332
 21
7.142839
 39
0
 62
0
  0
LINE
  8
default
  6
CONTINUOUS
 10
54.166668
 20
9.523788
 11
54.166668
 21
14.285689
 39
0
 62
0
  0
LINE
  8
default
  6
CONTINUOUS
 10
58.333332
 20
7.142839
 11
62.500000
 21
9.523783
 39
0
 62
0
  0
LINE
  8
default
  6
CONTINUOUS
 10
62.500000
 20
9.523783
 11
66.666664
 21
7.142869
 39
0
 62
0
  0
LINE
  8
default
  6
CONTINUOUS
 10
62.500000
 20
9.523783
 11
62.500000
 21
14.285712
 39
0
 62
0
  0
LINE
  8
default
  6
CONTINUOUS
 10
66.666664
 20
7.142869
 11
70.833336
 21
9.523823
 39
0
 62
0
  0
LINE
  8
default
  6
CONTINUOUS
 10
70.833336
 20
9.523823
 11
75.000000
 21
7.142873
 39
0
 62
0
  0
LINE
  8
default
  6
CONTINUOUS
 10
70.833336
 20
9.523823
 11
70.833336
 21
14.285720
 39
0
 62
0
  0
LINE
  8
default
  6
CONTINUOUS
 10
75.000000
 20
7.142873
 11
79.166664
 21
9.523840
 39
0
 62
0
  0
LINE
  8
default
  6
CONTINUOUS
 10
79.166664
 20
9.523840
 11
83.333336
 21
7.142817
 39
0
 62
0
  0
LINE
  8
default
  6
CONTINUOUS
 10
79.166664
 20
9.523840
 11
79.166664
 21
14.285701
 39
0
 62
0
  0
LINE
  8
default
  6
CONTINUOUS
 10
83.333336
 20
7.142817
 11
87.500000
 21
9.523811
 39
0
 62
0
  0
LINE
  8
default
  6
CONTINUOUS
 10
87.500000
 20
9.523811
 11
91.666664
 21
7.142838
 39
0
 62
0
  0
LINE
  8
default
  6
CONTINUOUS
 10
87.500000
 20
9.523811
 11
87.500000
 21
14.285748
 39
0
 62
0
  0
LINE
  8
default
  6
CONTINUOUS
 10
91.666664
 20
7.142838
 11
95.833336
 21
9.523804
 39
0
 62
0
  0
LINE
  8
default
  6
CONTINUOUS
 10
95.833336
 20
9.523804
 11
100.000000
 21
7.142805
 39
0
 62
0
  0
LINE
  8
default
  6
CONTINUOUS
 10
95.833336
 20
9.523804
 11
95.833336
 21
14.285697
 39
0
 62
0
  0
LINE
  8
default
  6
CONTINUOUS
 10
0.000000
 20
16.666666
 11
4.166667
 21
14.285718
 39
0
 62
0
  0
LINE
  8
default
  6
CONTINUOUS
 10
4.166667
 20
14.285718
 11
8.333333
 21
16.666662
 39
0
 62
0
  0
LINE
  8
default
  6
CONTINUOUS
 10
8.333333
 20
16.666662
 11
12.500000
 21
14.285720
 39
0
 62
0
  0
LINE
  8
default
  6
CONTINUOUS
 10
12.500000
 20
14.285720
 11
16.666666
 21
16.666670
 39
0
 62
0
  0
LINE
  8
default
  6
CONTINUOUS
 10
16.666666
 20
16.666670
 11
20.833334
 21
14.285720
 39
0
 62
0
  0
LINE
  8
default
  6
CONTINUOUS
 10
20.833334
 20
14.285720
 11
25.000000
 21
16.666662
 39
0
 62
0
  0
LINE
  8
default
  6
CONTINUOUS
 10
25.000000
 20
16.666662
 11
29.166666
 21
14.285716
 39
0
 62
0
  0
LINE
  8
default
  6
CONTINUOUS
 10
29.166666
 20
14.285716
 11
33.333332
 21
16.666681
 39
0
 62
0
  0
LINE
  8
default
  6
CONTINUOUS
 10
33.333332
 20
16.666681
 11
37.500000
 21
14.285718
 39
0
 62
0
  0
LINE
  8
default
  6
CONTINUOUS
 10
37.500000
 20
14.285718
 11
41.666668
 21
16.666685
 39
0
 62
0
  0
LINE
  8
default
  6
CONTINUOUS
 10
41.666668
 20
16.666685
 11
45.833332
 21
14.285710
 39
0
 62
0
  0
LINE
  8
default
  6
CONTINUOUS
 10
45.833332
 20
14.285710
 11
50.000000
 21
16.666647
 39
0
 62
0
  0
LINE
  8
default
  6
CONTINUOUS
 10
50.000000
 20
16.666647
 11
54.166668
 21
14.285689
 39
0
 62
0
  0
LINE
  8
default
  6
CONTINUOUS
 10
54.166668
 20
14.285689
 11
58.333332
 21
16.666681
 39
0
 62
0
  0
LINE
  8
default
  6
CONTINUOUS
 10
58.333332
 20
16.666681
 11
62.500000
 21
14.285712
 39
0
 62
0
  0
LINE
  8
default
  6
CONTINUOUS
 10
62.500000
 20
14.285712
 11
66.666664
 21
16.666693
 39
0
 62
0
  0
LINE
  8
default
  6
CONTINUOUS
 10
66.666664
 20
16.666693
 11
70.833336
 21
14.285720
 39
0
 62
0
  0
LINE
  8
default
  6
CONTINUOUS
 10
70.833336
 20
14.285720
 11
75.000000
 21
16.666670
 39
0
 62
0
  0
LINE
  8
default
  6
CONTINUOUS
 10
75.000000
 20
16.666670
 11
79.166664
 21
14.285701
 39
0
 62
0
  0
LINE
  8
default
  6
CONTINUOUS
 10
79.166664
 20
14.285701
 11
83.333336
 21
16.666677
 39
0
 62
0
  0
LINE
  8
default
  6
CONTINUOUS
 10
83.333336
 20
16.666677
 11
87.500000
 21
14.285748
 39
0
 62
0
  0
LINE
  8
default
  6
CONTINUOUS
 10
87.500000
 20
14.285748
 11
91.666664
 21
16.666647
 39
0
 62
0
  0
LINE
  8
default
  6
CONTINUOUS
 10
91.666664
 20
16.666647
 11
95.833336
 21
14.285697
 39
0
 62
0
  0
LINE
  8
default
  6
CONTINUOUS
 10
95.833336
 20
14.285697
 11
100.000000
 21
16.666628
 39
0
 62
0
  0
LINE
  8
default
  6
CONTINUOUS
 10
8.333333
 20
16.666662
 11
8.333333
 21
21.428576
 39
0
 62
0
  0
LINE
  8
default
  6
CONTINUOUS
 10
16.666666
 20
16.666670
 11
16.666666
 21
21.428579
 39
0
 62
0
  0
LINE
  8
default
  6
CONTINUOUS
 10
25.000000
 20
16.666662
 11
25.000000
 21
21.428564
 39
0
 62
0
  0
LINE
  8
default
  6
CONTINUOUS
 10
33.333332
 20
16.666681
 11
33.333332
 21
21.428576
 39
0
 62
0
  0
LINE
  8
default
  6
CONTINUOUS
 10
41.666668
 20
16.666685
 11
41.666668
 21
21.428591
 39
0
 62
0
  0
LINE
  8
default
  6
CONTINUOUS
 10
50.000000
 20
16.666647
 11
50.000000
 21
21.428549
 39
0
 62
0
  0
LINE
  8
default
  6
CONTINUOUS
 10
58.333332
 20
16.666681
 11
58.333332
 21
21.428572
 39
0
 62
0
  0
LINE
  8
default
  6
CONTINUOUS
 10
66.666664
 20
16.666693
 11
66.666664
 21
21.428545
 39
0
 62
0
  0
LINE
  8
default
  6
CONTINUOUS
 10
75.000000
 20
16.666670
 11
75.000000
 21
21.428591
 39
0
 62
0
  0
LINE
  8
default
  6
CONTINUOUS
 10
83.333336
 20
16.666677
 11
83.333336
 21
21.428583
 39
0
 62
0
  0
LINE
  8
default
  6
CONTINUOUS
 10
91.666664
 20
16.666647
 11
91.666664
 21
21.428534
 39
0
 62
0
  0
LINE
  8
default
  6
CONTINUOUS
 10
0.000000
 20
21.428572
 11
4.166667
 21
23.809525
 39
0
 62
0
  0
LINE
  8
default
  6
CONTINUOUS
 10
4.166667
 20
23.809525
 11
8.333333
 21
21.428576
 39
0
 62
0
  0
LINE
  8
default
  6
CONTINUOUS
 10
4.166667
 20
23.809525
 11
4.166667
 21
28.571428
 39
0
 62
0
  0
LINE
  8
default
  6
CONTINUOUS
 10
8.333333
 20
21.428576
 11
12.500000
 21
23.809528
 39
0
 62
0
  0
LINE
  8
default
  6
CONTINUOUS
 10
12.500000
 20
23.809528
 11
16.666666
 21
21.428579
 39
0
 62
0
  0
LINE
  8
default
  6
CONTINUOUS
 10
12.500000
 20
23.809528
 11
12.500000
 21
28.571421
 39
0
 62
0
  0
LINE
  8
default
  6
CONTINUOUS
 10
16.666666
 20
21.428579
 11
20.833334
 21
23.809536
 39
0
 62
0
  0
LINE
  8
default
  6
CONTINUOUS
 10
20.833334
 20
23.809536
 11
25.000000
 21
21.428564
 39
0
 62
0
  0
LINE
  8
default
  6
CONTINUOUS
 10
20.833334
 20
23.809536
 11
20.833334
 21
28.571424
 39
0
 62
0
  0
LINE
  8
default
  6
CONTINUOUS
 10
25.000000
 20
21.428564
 11
29.166666
 21
23.809525
 39
0
 62
0
  0
LINE
  8
default
  6
CONTINUOUS
 10
29.166666
 20
23.809525
 11
33.333332
 21
21.428576
 39
0
 62
0
  0
LINE
  8
default
  6
CONTINUOUS
 10
29.166666
 20
23.809525
 11
29.166666
 21
28.571421
 39
0
 62
0
  0
LINE
  8
default
  6
CONTINUOUS
 10
33.333332
 20
21.428576
 11
37.500000
 21
23.809505
 39
0
 62
0
  0
LINE
  8
default
  6
CONTINUOUS
 10
37.500000
 20
23.809505
 11
41.666668
 21
21.428591
 39
0
 62
0
  0
LINE
  8
default
  6
CONTINUOUS
 10
37.500000
 20
23.809505
 11
37.500000
 21
28.571440
 39
0
 62
0
  0
LINE
  8
default
  6
CONTINUOUS
 10
41.666668
 20
21.428591
 11
45.833332
 21
23.809505
 39
0
 62
0
  0
LINE
  8
default
  6
CONTINUOUS
 10
45.833332
 20
23.809505
 11
50.000000
 21
21.428549
 39
0
 62
0
  0
LINE
  8
default
  6
CONTINUOUS
 10
45.833332
 20
23.809505
 11
45.833332
 21
28.571421
 39
0
 62
0
  0
LINE
  8
default
  6
CONTINUOUS
 10
50.000000
 20
21.428549
 11
54.166668
 21
23.809528
 39
0
 62
0
  0
LINE
  8
default
  6
CONTINUOUS
 10
54.166668
 20
23.809528
 11
58.333332
 21
21.428572
 39
0
 62
0
  0
LINE
  8
default
  6
CONTINUOUS
 10
54.166668
 20
23.809528
 11
54.166668
 21
28.571447
 39
0
 62
0
  0
LINE
  8
default
  6
CONTINUOUS
 10
58.333332
 20
21.428572
 11
62.500000
 21
23.809528
 39
0
 62
0
  0
LINE
  8
default
  6
CONTINUOUS
 10
62.500000
 20
23.809528
 11
66.666664
 21
21.428545
 39
0
 62
0
  0
LINE
  8
default
  6
CONTINUOUS
 10
62.500000
 20
23.809528
 11
62.500000
 21
28.571428
 39
0
 62
0
  0
LINE
  8
default
  6
CONTINUOUS
 10
66.666664
 20
21.428545
 11
70.833336
 21
23.809563
 39
0
 62
0
  0
LINE
  8
default
  6
CONTINUOUS
 10
70.833336
 20
23.809563
 11
75.000000
 21
21.428591
 39
0
 62
0
  0
LINE
  8
default
  6
CONTINUOUS
 10
70.833336
 20
23.809563
 11
70.833336
 21
28.571459
 39
0
 62
0
  0
LINE
  8
default
  6
CONTINUOUS
 10
75.000000
 20
21.428591
 11
79.166664
 21
23.809551
 39
0
 62
0
  0
LINE
  8
default
  6
CONTINUOUS
 10
79.166664
 20
23.809551
 11
83.333336
 21
21.428583
 39
0
 62
0
  0
LINE
  8
default
  6
CONTINUOUS
 10
79.166664
 20
23.809551
 11
79.166664
 21
28.571447
 39
0
 62
0
  0
LINE
  8
default
  6
CONTINUOUS
 10
83.333336
 20
21.428583
 11
87.500000
 21
23.809536
 39
0
 62
0
  0
LINE
  8
default
  6
CONTINUOUS
 10
87.500000
 20
23.809536
 11
91.666664
 21
21.428534
 39
0
 62
0
  0
LINE
  8
default
  6
CONTINUOUS
 10
87.500000
 20
23.809536
 11
87.500000
 21
28.571398
 39
0
 62
0
  0
LINE
  8
default
  6
CONTINUOUS
 10
91.666664
 20
21.428534
 11
95.833336
 21
23.809547
 39
0
 62
0
  0
LINE
  8
default
  6
CONTINUOUS
 10
95.833336
 20
23.809547
 11
100.000000
 21
21.428572
 39
0
 62
0
  0
LINE
  8
default
  6
CONTINUOUS
 10
95.833336
 20
23.809547
 11
95.833336
 21
28.571463
 39
0
 62
0
  0
LINE
  8
default
  6
CONTINUOUS
 10
0.000000
 20
30.952381
 11
4.166667
 21
28.571428
 39
0
 62
0
  0
LINE
  8
default
  6
CONTINUOUS
 10
4.166667
 20
28.571428
 11
8.333333
 21
30.952385
 39
0
 62
0
  0
LINE
  8
default
  6
CONTINUOUS
 10
8.333333
 20
30.952385
 11
12.500000
 21
28.571421
 39
0
 62
0
  0
LINE
  8
default
  6
CONTINUOUS
 10
12.500000
 20
28.571421
 11
16.666666
 21
30.952381
 39
0
 62
0
  0
LINE
  8
default
  6
CONTINUOUS
 10
16.666666
 20
30.952381
 11
20.833334
 21
28.571424
 39
0
 62
0
  0
LINE
  8
default
  6
CONTINUOUS
 10
20.833334
 20
28.571424
 11
25.000000
 21
30.952374
 39
0
 62
0
  0
LINE
  8
default
  6
CONTINUOUS
 10
25.000000
 20
30.952374
 11
29.166666
 21
28.571421
 39
0
 62
0
  0
LINE
  8
default
  6
CONTINUOUS
 10
29.166666
 20
28.571421
 11
33.333332
 21
30.952381
 39
0
 62
0
  0
LINE
  8
default
  6
CONTINUOUS
 10
33.333332
 20
30.952381
 11
37.500000
 21
28.571440
 39
0
 62
0
  0
LINE
  8
default
  6
CONTINUOUS
 10
37.500000
 20
28.571440
 11
41.666668
 21
30.952396
 39
0
 62
0
  0
LINE
  8
default
  6
CONTINUOUS
 10
41.666668
 20
30.952396
 11
45.833332
 21
28.571421
 39
0
 62
0
  0
LINE
  8
default
  6
CONTINUOUS
 10
45.833332
 20
28.571421
 11
50.000000
 21
30.952396
 39
0
 62
0
  0
LINE
  8
default
  6
CONTINUOUS
 10
50.000000
 20
30.952396
 11
54.166668
 21
28.571447
 39
0
 62
0
  0
LINE
  8
default
  6
CONTINUOUS
 10
54.166668
 20
28.571447
 11
58.333332
 21
30.952354
 39
0
 62
0
  0
LINE
  8
default
  6
CONTINUOUS
 10
58.333332
 20
30.952354
 11
62.500000
 21
28.571428
 39
0
 62
0
  0
LINE
  8
default
  6
CONTINUOUS
 10
62.500000
 20
28.571428
 11
66.666664
 21
30.952419
 39
0
 62
0
  0
LINE
  8
default
  6
CONTINUOUS
 10
66.666664
 20
30.952419
 11
70.833336
 21
28.571459
 39
0
 62
0
  0
LINE
  8
default
  6
CONTINUOUS
 10
70.833336
 20
28.571459
 11
75.000000
 21
30.952408
 39
0
 62
0
  0
LINE
  8
default
  6
CONTINUOUS
 10
75.000000
 20
30.952408
 11
79.166664
 21
28.571447
 39
0
 62
0
  0
LINE
  8
default
  6
CONTINUOUS
 10
79.166664
 20
28.571447
 11
83.333336
 21
30.952377
 39
0
 62
0
  0
LINE
  8
default
  6
CONTINUOUS
 10
83.333336
 20
30.952377
 11
87.500000
 21
28.571398
 39
0
 62
0
  0
LINE
  8
default
  6
CONTINUOUS
 10
87.500000
 20
28.571398
 11
91.666664
 21
30.952408
 39
0
 62
0
  0
LINE
  8
default
  6
CONTINUOUS
 10
91.666664
 20
30.952408
 11
95.833336
 21
28.571463
 39
0
 62
0
  0
LINE
  8
default
  6
CONTINUOUS
 10
95.833336
 20
28.571463
 11
100.000000
 21
30.952400
 39
0
 62
0
  0
LINE
  8
default
  6
CONTINUOUS
 10
8.333333
 20
30.952385
 11
8.333333
 21
35.714287
 39
0
 62
0
  0
LINE
  8
default
  6
CONTINUOUS
 10
16.666666
 20
30.952381
 11
16.666666
 21
35.714272
 39
0
 62
0
  0
LINE
  8
default
  6
CONTINUOUS
 10
25.000000
 20
30.952374
 11
25.000000
 21
35.714294
 39
0
 62
0
  0
LINE
  8
default
  6
CONTINUOUS
 10
33.333332
 20
30.952381
 11
33.333332
 21
35.714294
 39
0
 62
0
  0
LINE
  8
default
  6
CONTINUOUS
 10
41.666668
 20
30.952396
 11
41.666668
 21
35.714279
 39
0
 62
0
  0
LINE
  8
default
  6
CONTINUOUS
 10
50.000000
 20
30.952396
 11
50.000000
 21
35.714302
 39
0
 62
0
  0
LINE
  8
default
  6
CONTINUOUS
 10
58.333332
 20
30.952354
 11
58.333332
 21
35.714279
 39
0
 62
0
  0
LINE
  8
default
  6
CONTINUOUS
 10
66.666664
 20
30.952419
 11
66.666664
 21
35.714279
 39
0
 62
0
  0
LINE
  8
default
  6
CONTINUOUS
 10
75.000000
 20
30.952408
 11
75.000000
 21
35.714294
 39
0
 62
0
  0
LINE
  8
default
  6
CONTINUOUS
 10
83.333336
 20
30.952377
 11
83.333336
 21
35.714249
 39
0
 62
0
  0
LINE
  8
default
  6
CONTINUOUS
 10
91.666664
 20
30.952408
 11
91.666664
 21
35.714294
 39
0
 62
0
  0
LINE
  8
default
  6
CONTINUOUS
 10
0.000000
 20
35.714287
 11
4.166667
 21
38.095238
 39
0
 62
0
  0
LINE
  8
default
  6
CONTINUOUS
 10
4.166667
 20
38.095238
 11
8.333333
 21
35.714287
 39
0
 62
0
  0
LINE
  8
default
  6
CONTINUOUS
 10
4.166667
 20
38.095238
 11
4.166667
 21
42.857136
 39
0
 62
0
  0
LINE
  8
default
  6
CONTINUOUS
 10
8.333333
 20
35.714287
 11
12.500000
 21
38.095238
 39
0
 62
0
  0
LINE
  8
default
  6
CONTINUOUS
 10
12.500000
 20
38.095238
 11
16.666666
 21
35.714272
 39
0
 62
0
  0
LINE
  8
default
  6
CONTINUOUS
 10
12.500000
 20
38.095238
 11
12.500000
 21
42.857143
 39
0
 62
0
  0
LINE
  8
default
  6
CONTINUOUS
 10
16.666666
 20
35.714272
 11
20.833334
 21
38.095230
 39
0
 62
0
  0
LINE
  8
default
  6
CONTINUOUS
 10
20.833334
 20
38.095230
 11
25.000000
 21
35.714294
 39
0
 62
0
  0
LINE
  8
default
  6
CONTINUOUS
 10
20.833334
 20
38.095230
 11
20.833334
 21
42.857151
 39
0
 62
0
  0
LINE
  8
default
  6
CONTINUOUS
 10
25.000000
 20
35.714294
 11
29.166666
 21
38.095245
 39
0
 62
0
  0
LINE
  8
default
  6
CONTINUOUS
 10
29.166666
 20
38.095245
 11
33.333332
 21
35.714294
 39
0
 62
0
  0
LINE
  8
default
  6
CONTINUOUS
 10
29.166666
 20
38.095245
 11
29.166666
 21
42.857151
 39
0
 62
0
  0
LINE
  8
default
  6
CONTINUOUS
 10
33.333332
 20
35.714294
 11
37.500000
 21
38.095245
 39
0
 62
0
  0
LINE
  8
default
  6
CONTINUOUS
 10
37.500000
 20
38.095245
 11
41.666668
 21
35.714279
 39
0
 62
0
  0
LINE
  8
default
  6
CONTINUOUS
 10
37.500000
 20
38.095245
 11
37.500000
 21
42.857159
 39
0
 62
0
  0
LINE
  8
default
  6
CONTINUOUS
 10
41.666668
 20
35.714279
 11
45.833332
 21
38.095230
 39
0
 62
0
  0
LINE
  8
default
  6
CONTINUOUS
 10
45.833332
 20
38.095230
 11
50.000000
 21
35.714302
 39
0
 62
0
  0
LINE
  8
default
  6
CONTINUOUS
 10
45.833332
 20
38.095230
 11
45.833332
 21
42.857121
 39
0
 62
0
  0
LINE
  8
default
  6
CONTINUOUS
 10
50.000000
 20
35.714302
 11
54.166668
 21
38.095230
 39
0
 62
0
  0
LINE
  8
default
  6
CONTINUOUS
 10
54.166668
 20
38.095230
 11
58.333332
 21
35.714279
 39
0
 62
0
  0
LINE
  8
default
  6
CONTINUOUS
 10
54.166668
 20
38.095230
 11
54.166668
 21
42.857136
 39
0
 62
0
  0
LINE
  8
default
  6
CONTINUOUS
 10
58.333332
 20
35.714279
 11
62.500000
 21
38.095253
 39
0
 62
0
  0
LINE
  8
default
  6
CONTINUOUS
 10
62.500000
 20
38.095253
 11
66.666664
 21
35.714279
 39
0
 62
0
  0
LINE
  8
default
  6
CONTINUOUS
 10
62.500000
 20
38.095253
 11
62.500000
 21
42.857159
 39
0
 62
0
  0
LINE
  8
default
  6
CONTINUOUS
 10
66.666664
 20
35.714279
 11
70.833336
 21
38.095238
 39
0
 62
0
  0
LINE
  8
default
  6
CONTINUOUS
 10
70.833336
 20
38.095238
 11
75.000000
 21
35.714294
 39
0
 62
0
  0
LINE
  8
default
  6
CONTINUOUS
 10
70.833336
 20
38.095238
 11
70.833336
 21
42.857113
 39
0
 62
0
  0
LINE
  8
default
  6
CONTINUOUS
 10
75.000000
 20
35.714294
 11
79.166664
 21
38.095207
 39
0
 62
0
  0
LINE
  8
default
  6
CONTINUOUS
 10
79.166664
 20
38.095207
 11
83.333336
 21
35.714249
 39
0
 62
0
  0
LINE
  8
default
  6
CONTINUOUS
 10
79.166664
 20
38.095207
 11
79.166664
 21
42.857136
 39
0
 62
0
  0
LINE
  8
default
  6
CONTINUOUS
 10
83.333336
 20
35.714249
 11
87.500000
 21
38.095253
 39
0
 62
0
  0
LINE
  8
default
  6
CONTINUOUS
 10
87.500000
 20
38.095253
 11
91.666664
 21
35.714294
 39
0
 62
0
  0
LINE
  8
default
  6
CONTINUOUS
 10
87.500000
 20
38.095253
 11
87.500000
 21
42.857151
 39
0
 62
0
  0
LINE
  8
default
  6
CONTINUOUS
 10
91.666664
 20
35.714294
 11
95.833336
 21
38.095238
 39
0
 62
0
  0
LINE
  8
default
  6
CONTINUOUS
 10
95.833336
 20
38.095238
 11
100.000000
 21
35.714226
 39
0
 62
0
  0
LINE
  8
default
  6
CONTINUOUS
 10
95.833336
 20
38.095238
 11
95.833336
 21
42.857113
 39
0
 62
0
  0
LINE
  8
default
  6
CONTINUOUS
 10
0.000000
 20
45.238094
 11
4.166667
 21
42.857136
 39
0
 62
0
  0
LINE
  8
default
  6
CONTINUOUS
 10
4.166667
 20
42.857136
 11
8.333333
 21
45.238102
 39
0
 62
0
  0
LINE
  8
default
  6
CONTINUOUS
 10
8.333333
 20
45.238102
 11
12.500000
 21
42.857143
 39
0
 62
0
  0
LINE
  8
default
  6
CONTINUOUS
 10
12.500000
 20
42.857143
 11
16.666666
 21
45.238094
 39
0
 62
0
  0
LINE
  8
default
  6
CONTINUOUS
 10
16.666666
 20
45.238094
 11
20.833334
 21
42.857151
 39
0
 62
0
  0
LINE
  8
default
  6
CONTINUOUS
 10
20.833334
 20
42.857151
 11
25.000000
 21
45.238102
 39
0
 62
0
  0
LINE
  8
default
  6
CONTINUOUS
 10
25.000000
 20
45.238102
 11
29.166666
 21
42.857151
 39
0
 62
0
  0
LINE
  8
default
  6
CONTINUOUS
 10
29.166666
 20
42.857151
 11
33.333332
 21
45.238110
 39
0
 62
0
  0
LINE
  8
default
  6
CONTINUOUS
 10
33.333332
 20
45.238110
 11
37.500000
 21
42.857159
 39
0
 62
0
  0
LINE
  8
default
  6
CONTINUOUS
 10
37.500000
 20
42.857159
 11
41.666668
 21
45.238102
 39
0
 62
0
  0
LINE
  8
default
  6
CONTINUOUS
 10
41.666668
 20
45.238102
 11
45.833332
 21
42.857121
 39
0
 62
0
  0
LINE
  8
default
  6
CONTINUOUS
 10
45.833332
 20
42.857121
 11
50.000000
 21
45.238110
 39
0
 62
0
  0
LINE
  8
default
  6
CONTINUOUS
 10
50.000000
 20
45.238110
 11
54.166668
 21
42.857136
 39
0
 62
0
  0
LINE
  8
default
  6
CONTINUOUS
 10
54.166668
 20
42.857136
 11
58.333332
 21
45.238102
 39
0
 62
0
  0
LINE
  8
default
  6
CONTINUOUS
 10
58.333332
 20
45.238102
 11
62.500000
 21
42.857159
 39
0
 62
0
  0
LINE
  8
default
  6
CONTINUOUS
 10
62.500000
 20
42.857159
 11
66.666664
 21
45.238094
 39
0
 62
0
  0
LINE
  8
default
  6
CONTINUOUS
 10
66.666664
 20
45.238094
 11
70.833336
 21
42.857113
 39
0
 62
0
  0
LINE
  8
default
  6
CONTINUOUS
 10
70.833336
 20
42.857113
 11
75.000000
 21
45.238117
 39
0
 62
0
  0
LINE
  8
default
  6
CONTINUOUS
 10
75.000000
 20
45.238117
 11
79.166664
 21
42.857136
 39
0
 62
0
  0
LINE
  8
default
  6
CONTINUOUS
 10
79.166664
 20
42.857136
 11
83.333336
 21
45.238087
 39
0
 62
0
  0
LINE
  8
default
  6
CONTINUOUS
 10
83.333336
 20
45.238087
 11
87.500000
 21
42.857151
 39
0
 62
0
  0
LINE
  8
default
  6
CONTINUOUS
 10
87.500000
 20
42.857151
 11
91.666664
 21
45.238071
 39
0
 62
0
  0
LINE
  8
default
  6
CONTINUOUS
 10
91.666664
 20
45.238071
 11
95.833336
 21
42.857113
 39
0
 62
0
  0
LINE
  8
default
  6
CONTINUOUS
 10
95.833336
 20
42.857113
 11
100.000000
 21
45.238117
 39
0
 62
0
  0
LINE
  8
default
  6
CONTINUOUS
 10
8.333333
 20
45.238102
 11
8.333333
 21
50.000000
 39
0
 62
0
  0
LINE
  8
default
  6
CONTINUOUS
 10
16.666666
 20
45.238094
 11
16.666666
 21
50.000008
 39
0
 62
0
  0
LINE
  8
default
  6
CONTINUOUS
 10
25.000000
 20
45.238102
 11
25.000000
 21
49.999992
 39
0
 62
0
  0
LINE
  8
default
  6
CONTINUOUS
 10
33.333332
 20
45.238110
 11
33.333332
 21
50.000008
 39
0
 62
0
  0
LINE
  8
default
  6
CONTINUOUS
 10
41.666668
 20
45.238102
 11
41.666668
 21
50.000008
 39
0
 62
0
  0
LINE
  8
default
  6
CONTINUOUS
 10
50.000000
 20
45.238110
 11
50.000000
 21
50.000000
 39
0
 62
0
  0
LINE
  8
default
  6
CONTINUOUS
 10
58.333332
 20
45.238102
 11
58.333332
 21
49.999985
 39
0
 62
0
  0
LINE
  8
default
  6
CONTINUOUS
 10
66.666664
 20
45.238094
 11
66.666664
 21
50.000015
 39
0
 62
0
  0
LINE
  8
default
  6
CONTINUOUS
 10
75.000000
 20
45.238117
 11
75.000000
 21
49.999985
 39
0
 62
0
  0
LINE
  8
default
  6
CONTINUOUS
 10
83.333336
 20
45.238087
 11
83.333336
 21
49.999969
 39
0
 62
0
  0
LINE
  8
default
  6
CONTINUOUS
 10
91.666664
 20
45.238071
 11
91.666664
 21
50.000046
 39
0
 62
0
  0
LINE
  8
default
  6
CONTINUOUS
 10
0.000000
 20
50.000000
 11
4.166667
 21
52.380951
 39
0
 62
0
  0
LINE
  8
default
  6
CONTINUOUS
 10
4.166667
 20
52.380951
 11
8.333333
 21
50.000000
 39
0
 62
0
  0
LINE
  8
default
  6
CONTINUOUS
 10
4.166667
 20
52.380951
 11
4.166667
 21
57.142857
 39
0
 62
0
  0
LINE
  8
default
  6
CONTINUOUS
 10
8.333333
 20
50.000000
 11
12.500000
 21
52.380943
 39
0
 62
0
  0
LINE
  8
default
  6
CONTINUOUS
 10
12.500000
 20
52.380943
 11
16.666666
 21
50.000008
 39
0
 62
0
  0
LINE
  8
default
  6
CONTINUOUS
 10
12.500000
 20
52.380943
 11
12.500000
 21
57.142857
 39
0
 62
0
  0
LINE
  8
default
  6
CONTINUOUS
 10
16.666666
 20
50.000008
 11
20.833334
 21
52.380959
 39
0
 62
0
  0
LINE
  8
default
  6
CONTINUOUS
 10
20.833334
 20
52.380959
 11
25.000000
 21
49.999992
 39
0
 62
0
  0
LINE
  8
default
  6
CONTINUOUS
 10
20.833334
 20
52.380959
 11
20.833334
 21
57.142864
 39
0
 62
0
  0
LINE
  8
default
  6
CONTINUOUS
 10
25.000000
 20
49.999992
 11
29.166666
 21
52.380936
 39
0
 62
0
  0
LINE
  8
default
  6
CONTINUOUS
 10
29.166666
 20
52.380936
 11
33.333332
 21
50.000008
 39
0
 62
0
  0
LINE
  8
default
  6
CONTINUOUS
 10
29.166666
 20
52.380936
 11
29.166666
 21
57.142857
 39
0
 62
0
  0
LINE
  8
default
  6
CONTINUOUS
 10
33.333332
 20
50.000008
 11
37.500000
 21
52.380959
 39
0
 62
0
  0
LINE
  8
default
  6
CONTINUOUS
 10
37.500000
 20
52.380959
 11
41.666668
 21
50.000008
 39
0
 62
0
  0
LINE
  8
default
  6
CONTINUOUS
 10
37.500000
 20
52.380959
 11
37.500000
 21
57.142841
 39
0
 62
0
  0
LINE
  8
default
  6
CONTINUOUS
 10
41.666668
 20
50.000008
 11
45.833332
 21
52.380966
 39
0
 62
0
  0
LINE
  8
default
  6
CONTINUOUS
 10
45.833332
 20
52.380966
 11
50.000000
 21
50.000000
 39
0
 62
0
  0
LINE
  8
default
  6
CONTINUOUS
 10
45.833332
 20
52.380966
 11
45.833332
 21
57.142864
 39
0
 62
0
  0
LINE
  8
default
  6
CONTINUOUS
 10
50.000000
 20
50.000000
 11
54.166668
 21
52.380959
 39
0
 62
0
  0
LINE
  8
default
  6
CONTINUOUS
 10
54.166668
 20
52.380959
 11
58.333332
 21
49.999985
 39
0
 62
0
  0
LINE
  8
default
  6
CONTINUOUS
 10
54.166668
 20
52.380959
 11
54.166668
 21
57.142872
 39
0
 62
0
  0
LINE
  8
default
  6
CONTINUOUS
 10
58.333332
 20
49.999985
 11
62.500000
 21
52.380959
 39
0
 62
0
  0
LINE
  8
default
  6
CONTINUOUS
 10
62.500000
 20
52.380959
 11
66.666664
 21
50.000015
 39
0
 62
0
  0
LINE
  8
default
  6
CONTINUOUS
 10
62.500000
 20
52.380959
 11
62.500000
 21
57.142834
 39
0
 62
0
  0
LINE
  8
default
  6
CONTINUOUS
 10
66.666664
 20
50.000015
 11
70.833336
 21
52.380928
 39
0
 62
0
  0
LINE
  8
default
  6
CONTINUOUS
 10
70.833336
 20
52.380928
 11
75.000000
 21
49.999985
 39
0
 62
0
  0
LINE
  8
default
  6
CONTINUOUS
 10
70.833336
 20
52.380928
 11
70.833336
 21
57.142895
 39
0
 62
0
  0
LINE
  8
default
  6
CONTINUOUS
 10
75.000000
 20
49.999985
 11
79.166664
 21
52.380966
 39
0
 62
0
  0
LINE
  8
default
  6
CONTINUOUS
 10
79.166664
 20
52.380966
 11
83.333336
 21
49.999969
 39
0
 62
0
  0
LINE
  8
default
  6
CONTINUOUS
 10
79.166664
 20
52.380966
 11
79.166664
 21
57.142879
 39
0
 62
0
  0
LINE
  8
default
  6
CONTINUOUS
 10
83.333336
 20
49.999969
 11
87.500000
 21
52.380943
 39
0
 62
0
  0
LINE
  8
default
  6
CONTINUOUS
 10
87.500000
 20
52.380943
 11
91.666664
 21
50.000046
 39
0
 62
0
  0
LINE
  8
default
  6
CONTINUOUS
 10
87.500000
 20
52.380943
 11
87.500000
 21
57.142879
 39
0
 62
0
  0
LINE
  8
default
  6
CONTINUOUS
 10
91.666664
 20
50.000046
 11
95.833336
 21
52.380974
 39
0
 62
0
  0
LINE
  8
default
  6
CONTINUOUS
 10
95.833336
 20
52.380974
 11
100.000000
 21
50.000046
 39
0
 62
0
  0
LINE
  8
default
  6
CONTINUOUS
 10
95.833336
 20
52.380974
 11
95.833336
 21
57.142834
 39
0
 62
0
  0
LINE
  8
default
  6
CONTINUOUS
 10
0.000000
 20
59.523808
 11
4.166667
 21
57.142857
 39
0
 62
0
  0
LINE
  8
default
  6
CONTINUOUS
 10
4.166667
 20
57.142857
 11
8.333333
 21
59.523808
 39
0
 62
0
  0
LINE
  8
default
  6
CONTINUOUS
 10
8.333333
 20
59.523808
 11
12.500000
 21
57.142857
 39
0
 62
0
  0
LINE
  8
default
  6
CONTINUOUS
 10
12.500000
 20
57.142857
 11
16.666666
 21
59.523815
 39
0
 62
0
  0
LINE
  8
default
  6
CONTINUOUS
 10
16.666666
 20
59.523815
 11
20.833334
 21
57.142864
 39
0
 62
0
  0
LINE
  8
default
  6
CONTINUOUS
 10
20.833334
 20
57.142864
 11
25.000000
 21
59.523808
 39
0
 62
0
  0
LINE
  8
default
  6
CONTINUOUS
 10
25.000000
 20
59.523808
 11
29.166666
 21
57.142857
 39
0
 62
0
  0
LINE
  8
default
  6
CONTINUOUS
 10
29.166666
 20
57.142857
 11
33.333332
 21
59.523785
 39
0
 62
0
  0
LINE
  8
default
  6
CONTINUOUS
 10
33.333332
 20
59.523785
 11
37.500000
 21
57.142841
 39
0
 62
0
  0
LINE
  8
default
  6
CONTINUOUS
 10
37.500000
 20
57.142841
 11
41.666668
 21
59.523785
 39
0
 62
0
  0
LINE
  8
default
  6
CONTINUOUS
 10
41.666668
 20
59.523785
 11
45.833332
 21
57.142864
 39
0
 62
0
  0
LINE
  8
default
  6
CONTINUOUS
 10
45.833332
 20
57.142864
 11
50.000000
 21
59.523785
 39
0
 62
0
  0
LINE
  8
default
  6
CONTINUOUS
 10
50.000000
 20
59.523785
 11
54.166668
 21
57.142872
 39
0
 62
0
  0
LINE
  8
default
  6
CONTINUOUS
 10
54.166668
 20
57.142872
 11
58.333332
 21
59.523830
 39
0
 62
0
  0
LINE
  8
default
  6
CONTINUOUS
 10
58.333332
 20
59.523830
 11
62.500000
 21
57.142834
 39
0
 62
0
  0
LINE
  8
default
  6
CONTINUOUS
 10
62.500000
 20
57.142834
 11
66.666664
 21
59.523846
 39
0
 62
0
  0
LINE
  8
default
  6
CONTINUOUS
 10
66.666664
 20
59.523846
 11
70.833336
 21
57.142895
 39
0
 62
0
  0
LINE
  8
default
  6
CONTINUOUS
 10
70.833336
 20
57.142895
 11
75.000000
 21
59.523853
 39
0
 62
0
  0
LINE
  8
default
  6
CONTINUOUS
 10
75.000000
 20
59.523853
 11
79.166664
 21
57.142879
 39
0
 62
0
  0
LINE
  8
default
  6
CONTINUOUS
 10
79.166664
 20
57.142879
 11
83.333336
 21
59.523838
 39
0
 62
0
  0
LINE
  8
default
  6
CONTINUOUS
 10
83.333336
 20
59.523838
 11
87.500000
 21
57.142879
 39
0
 62
0
  0
LINE
  8
default
  6
CONTINUOUS
 10
87.500000
 20
57.142879
 11
91.666664
 21
59.523830
 39
0
 62
0
  0
LINE
  8
default
  6
CONTINUOUS
 10
91.666664
 20
59.523830
 11
95.833336
 21
57.142834
 39
0
 62
0
  0
LINE
  8
default
  6
CONTINUOUS
 10
95.833336
 20
57.142834
 11
100.000000
 21
59.523830
 39
0
 62
0
  0
LINE
  8
default
  6
CONTINUOUS
 10
8.333333
 20
59.523808
 11
8.333333
 21
64.285713
 39
0
 62
0
  0
LINE
  8
default
  6
CONTINUOUS
 10
16.666666
 20
59.523815
 11
16.666666
 21
64.285713
 39
0
 62
0
  0
LINE
  8
default
  6
CONTINUOUS
 10
25.000000
 20
59.523808
 11
25.000000
 21
64.285728
 39
0
 62
0
  0
LINE
  8
default
  6
CONTINUOUS
 10
33.333332
 20
59.523785
 11
33.333332
 21
64.285713
 39
0
 62
0
  0
LINE
  8
default
  6
CONTINUOUS
 10
41.666668
 20
59.523785
 11
41.666668
 21
64.285698
 39
0
 62
0
  0
LINE
  8
default
  6
CONTINUOUS
 10
50.000000
 20
59.523785
 11
50.000000
 21
64.285683
 39
0
 62
0
  0
LINE
  8
default
  6
CONTINUOUS
 10
58.333332
 20
59.523830
 11
58.333332
 21
64.285728
 39
0
 62
0
  0
LINE
  8
default
  6
CONTINUOUS
 10
66.666664
 20
59.523846
 11
66.666664
 21
64.285713
 39
0
 62
0
  0
LINE
  8
default
  6
CONTINUOUS
 10
75.000000
 20
59.523853
 11
75.000000
 21
64.285698
 39
0
 62
0
  0
LINE
  8
default
  6
CONTINUOUS
 10
83.333336
 20
59.523838
 11
83.333336
 21
64.285698
 39
0
 62
0
  0
LINE
  8
default
  6
CONTINUOUS
 10
91.666664
 20
59.523830
 11
91.666664
 21
64.285713
 39
0
 62
0
  0
LINE
  8
default
  6
CONTINUOUS
 10
0.000000
 20
64.285713
 11
4.166667
 21
66.666664
 39
0
 62
0
  0
LINE
  8
default
  6
CONTINUOUS
 10
4.166667
 20
66.666664
 11
8.333333
 21
64.285713
 39
0
 62
0
  0
LINE
  8
default
  6
CONTINUOUS
 10
4.166667
 20
66.666664
 11
4.166667
 21
71.428574
 39
0
 62
0
  0
LINE
  8
default
  6
CONTINUOUS
 10
8.333333
 20
64.285713
 11
12.500000
 21
66.666664
 39
0
 62
0
  0
LINE
  8
default
  6
CONTINUOUS
 10
12.500000
 20
66.666664
 11
16.666666
 21
64.285713
 39
0
 62
0
  0
LINE
  8
default
  6
CONTINUOUS
 10
12.500000
 20
66.666664
 11
12.500000
 21
71.428574
 39
0
 62
0
  0
LINE
  8
default
  6
CONTINUOUS
 10
16.666666
 20
64.285713
 11
20.833334
 21
66.666664
 39
0
 62
0
  0
LINE
  8
default
  6
CONTINUOUS
 10
20.833334
 20
66.666664
 11
25.000000
 21
64.285728
 39
0
 62
0
  0
LINE
  8
default
  6
CONTINUOUS
 10
20.833334
 20
66.666664
 11
20.833334
 21
71.428574
 39
0
 62
0
  0
LINE
  8
default
  6
CONTINUOUS
 10
25.000000
 20
64.285728
 11
29.166666
 21
66.666649
 39
0
 62
0
  0
LINE
  8
default
  6
CONTINUOUS
 10
29.166666
 20
66.666649
 11
33.333332
 21
64.285713
 39
0
 62
0
  0
LINE
  8
default
  6
CONTINUOUS
 10
29.166666
 20
66.666649
 11
29.166666
 21
71.428574
 39
0
 62
0
  0
LINE
  8
default
  6
CONTINUOUS
 10
33.333332
 20
64.285713
 11
37.500000
 21
66.666664
 39
0
 62
0
  0
LINE
  8
default
  6
CONTINUOUS
 10
37.500000
 20
66.666664
 11
41.666668
 21
64.285698
 39
0
 62
0
  0
LINE
  8
default
  6
CONTINUOUS
 10
37.500000
 20
66.666664
 11
37.500000
 21
71.428589
 39
0
 62
0
  0
LINE
  8
default
  6
CONTINUOUS
 10
41.666668
 20
64.285698
 11
45.833332
 21
66.666679
 39
0
 62
0
  0
LINE
  8
default
  6
CONTINUOUS
 10
45.833332
 20
66.666679
 11
50.000000
 21
64.285683
 39
0
 62
0
  0
LINE
  8
default
  6
CONTINUOUS
 10
45.833332
 20
66.666679
 11
45.833332
 21
71.428543
 39
0
 62
0
  0
LINE
  8
default
  6
CONTINUOUS
 10
50.000000
 20
64.285683
 11
54.166668
 21
66.666649
 39
0
 62
0
  0
LINE
  8
default
  6
CONTINUOUS
 10
54.166668
 20
66.666649
 11
58.333332
 21
64.285728
 39
0
 62
0
  0
LINE
  8
default
  6
CONTINUOUS
 10
54.166668
 20
66.666649
 11
54.166668
 21
71.428574
 39
0
 62
0
  0
LINE
  8
default
  6
CONTINUOUS
 10
58.333332
 20
64.285728
 11
62.500000
 21
66.666634
 39
0
 62
0
  0
LINE
  8
default
  6
CONTINUOUS
 10
62.500000
 20
66.666634
 11
66.666664
 21
64.285713
 39
0
 62
0
  0
LINE
  8
default
  6
CONTINUOUS
 10
62.500000
 20
66.666634
 11
62.500000
 21
71.428604
 39
0
 62
0
  0
LINE
  8
default
  6
CONTINUOUS
 10
66.666664
 20
64.285713
 11
70.833336
 21
66.666634
 39
0
 62
0
  0
LINE
  8
default
  6
CONTINUOUS
 10
70.833336
 20
66.666634
 11
75.000000
 21
64.285698
 39
0
 62
0
  0
LINE
  8
default
  6
CONTINUOUS
 10
70.833336
 20
66.666634
 11
70.833336
 21
71.428528
 39
0
 62
0
  0
LINE
  8
default
  6
CONTINUOUS
 10
75.000000
 20
64.285698
 11
79.166664
 21
66.666618
 39
0
 62
0
  0
LINE
  8
default
  6
CONTINUOUS
 10
79.166664
 20
66.666618
 11
83.333336
 21
64.285698
 39
0
 62
0
  0
LINE
  8
default
  6
CONTINUOUS
 10
79.166664
 20
66.666618
 11
79.166664
 21
71.428558
 39
0
 62
0
  0
LINE
  8
default
  6
CONTINUOUS
 10
83.333336
 20
64.285698
 11
87.500000
 21
66.666695
 39
0
 62
0
  0
LINE
  8
default
  6
CONTINUOUS
 10
87.500000
 20
66.666695
 11
91.666664
 21
64.285713
 39
0
 62
0
  0
LINE
  8
default
  6
CONTINUOUS
 10
87.500000
 20
66.666695
 11
87.500000
 21
71.428589
 39
0
 62
0
  0
LINE
  8
default
  6
CONTINUOUS
 10
91.666664
 20
64.285713
 11
95.833336
 21
66.666679
 39
0
 62
0
  0
LINE
  8
default
  6
CONTINUOUS
 10
95.833336
 20
66.666679
 11
100.000000
 21
64.285713
 39
0
 62
0
  0
LINE
  8
default
  6
CONTINUOUS
 10
95.833336
 20
66.666679
 11
95.833336
 21
71.428589
 39
0
 62
0
  0
LINE
  8
default
  6
CONTINUOUS
 10
0.000000
 20
73.809525
 11
4.166667
 21
71.428574
 39
0
 62
0
  0
LINE
  8
default
  6
CONTINUOUS
 10
4.166667
 20
71.428574
 11
8.333333
 21
73.809525
 39
0
 62
0
  0
LINE
  8
default
  6
CONTINUOUS
 10
8.333333
 20
73.809525
 11
12.500000
 21
71.428574
 39
0
 62
0
  0
LINE
  8
default
  6
CONTINUOUS
 10
12.500000
 20
71.428574
 11
16.666666
 21
73.809509
 39
0
 62
0
  0
LINE
  8
default
  6
CONTINUOUS
 10
16.666666
 20
73.809509
 11
20.833334
 21
71.428574
 39
0
 62
0
  0
LINE
  8
default
  6
CONTINUOUS
 10
20.833334
 20
71.428574
 11
25.000000
 21
73.809525
 39
0
 62
0
  0
LINE
  8
default
  6
CONTINUOUS
 10
25.000000
 20
73.809525
 11
29.166666
 21
71.428574
 39
0
 62
0
  0
LINE
  8
default
  6
CONTINUOUS
 10
29.166666
 20
71.428574
 11
33.333332
 21
73.809509
 39
0
 62
0
  0
LINE
  8
default
  6
CONTINUOUS
 10
33.333332
 20
73.809509
 11
37.500000
 21
71.428589
 39
0
 62
0
  0
LINE
  8
default
  6
CONTINUOUS
 10
37.500000
 20
71.428589
 11
41.666668
 21
73.809509
 39
0
 62
0
  0
LINE
  8
default
  6
CONTINUOUS
 10
41.666668
 20
73.809509
 11
45.833332
 21
71.428543
 39
0
 62
0
  0
LINE
  8
default
  6
CONTINUOUS
 10
45.833332
 20
71.428543
 11
50.000000
 21
73.809525
 39
0
 62
0
  0
LINE
  8
default
  6
CONTINUOUS
 10
50.000000
 20
73.809525
 11
54.166668
 21
71.428574
 39
0
 62
0
  0
LINE
  8
default
  6
CONTINUOUS
 10
54.166668
 20
71.428574
 11
58.333332
 21
73.809494
 39
0
 62
0
  0
LINE
  8
default
  6
CONTINUOUS
 10
58.333332
 20
73.809494
 11
62.500000
 21
71.428604
 39
0
 62
0
  0
LINE
  8
default
  6
CONTINUOUS
 10
62.500000
 20
71.428604
 11
66.666664
 21
73.809494
 39
0
 62
0
  0
LINE
  8
default
  6
CONTINUOUS
 10
66.666664
 20
73.809494
 11
70.833336
 21
71.428528
 39
0
 62
0
  0
LINE
  8
default
  6
CONTINUOUS
 10
70.833336
 20
71.428528
 11
75.000000
 21
73.809555
 39
0
 62
0
  0
LINE
  8
default
  6
CONTINUOUS
 10
75.000000
 20
73.809555
 11
79.166664
 21
71.428558
 39
0
 62
0
  0
LINE
  8
default
  6
CONTINUOUS
 10
79.166664
 20
71.428558
 11
83.333336
 21
73.809525
 39
0
 62
0
  0
LINE
  8
default
  6
CONTINUOUS
 10
83.333336
 20
73.809525
 11
87.500000
 21
71.428589
 39
0
 62
0
  0
LINE
  8
default
  6
CONTINUOUS
 10
87.500000
 20
71.428589
 11
91.666664
 21
73.809555
 39
0
 62
0
  0
LINE
  8
default
  6
CONTINUOUS
 10
91.666664
 20
73.809555
 11
95.833336
 21
71.428589
 39
0
 62
0
  0
LINE
  8
default
  6
CONTINUOUS
 10
95.833336
 20
71.428589
 11
100.000000
 21
73.809479
 39
0
 62
0
  0
LINE
  8
default
  6
CONTINUOUS
 10
8.333333
 20
73.809525
 11
8.333333
 21
78.571426
 39
0
 62
0
  0
LINE
  8
default
  6
CONTINUOUS
 10
16.666666
 20
73.809509
 11
16.666666
 21
78.571426
 39
0
 62
0
  0
LINE
  8
default
  6
CONTINUOUS
 10
25.000000
 20
73.809525
 11
25.000000
 21
78.571426
 39
0
 62
0
  0
LINE
  8
default
  6
CONTINUOUS
 10
33.333332
 20
73.809509
 11
33.333332
 21
78.571442
 39
0
 62
0
  0
LINE
  8
default
  6
CONTINUOUS
 10
41.666668
 20
73.809509
 11
41.666668
 21
78.571442
 39
0
 62
0
  0
LINE
  8
default
  6
CONTINUOUS
 10
50.000000
 20
73.809525
 11
50.000000
 21
78.571426
 39
0
 62
0
  0
LINE
  8
default
  6
CONTINUOUS
 10
58.333332
 20
73.809494
 11
58.333332
 21
78.571411
 39
0
 62
0
  0
LINE
  8
default
  6
CONTINUOUS
 10
66.666664
 20
73.809494
 11
66.666664
 21
78.571457
 39
0
 62
0
  0
LINE
  8
default
  6
CONTINUOUS
 10
75.000000
 20
73.809555
 11
75.000000
 21
78.571411
 39
0
 62
0
  0
LINE
  8
default
  6
CONTINUOUS
 10
83.333336
 20
73.809525
 11
83.333336
 21
78.571411
 39
0
 62
0
  0
LINE
  8
default
  6
CONTINUOUS
 10
91.666664
 20
73.809555
 11
91.666664
 21
78.571396
 39
0
 62
0
  0
LINE
  8
default
  6
CONTINUOUS
 10
0.000000
 20
78.571426
 11
4.166667
 21
80.952377
 39
0
 62
0
  0
LINE
  8
default
  6
CONTINUOUS
 10
4.166667
 20
80.952377
 11
8.333333
 21
78.571426
 39
0
 62
0
  0
LINE
  8
default
  6
CONTINUOUS
 10
4.166667
 20
80.952377
 11
4.166667
 21
85.714287
 39
0
 62
0
  0
LINE
  8
default
  6
CONTINUOUS
 10
8.333333
 20
78.571426
 11
12.500000
 21
80.952377
 39
0
 62
0
  0
LINE
  8
default
  6
CONTINUOUS
 10
12.500000
 20
80.952377
 11
16.666666
 21
78.571426
 39
0
 62
0
  0
LINE
  8
default
  6
CONTINUOUS
 10
12.500000
 20
80.952377
 11
12.500000
 21
85.714287
 39
0
 62
0
  0
LINE
  8
default
  6
CONTINUOUS
 10
16.666666
 20
78.571426
 11
20.833334
 21
80.952377
 39
0
 62
0
  0
LINE
  8
default
  6
CONTINUOUS
 10
20.833334
 20
80.952377
 11
25.000000
 21
78.571426
 39
0
 62
0
  0
LINE
  8
default
  6
CONTINUOUS
 10
20.833334
 20
80.952377
 11
20.833334
 21
85.714272
 39
0
 62
0
  0
LINE
  8
default
  6
CONTINUOUS
 10
25.000000
 20
78.571426
 11
29.166666
 21
80.952393
 39
0
 62
0
  0
LINE
  8
default
  6
CONTINUOUS
 10
29.166666
 20
80.952393
 11
33.333332
 21
78.571442
 39
0
 62
0
  0
LINE
  8
default
  6
CONTINUOUS
 10
29.166666
 20
80.952393
 11
29.166666
 21
85.714287
 39
0
 62
0
  0
LINE
  8
default
  6
CONTINUOUS
 10
33.333332
 20
78.571442
 11
37.500000
 21
80.952393
 39
0
 62
0
  0
LINE
  8
default
  6
CONTINUOUS
 10
37.500000
 20
80.952393
 11
41.666668
 21
78.571442
 39
0
 62
0
  0
LINE
  8
default
  6
CONTINUOUS
 10
37.500000
 20
80.952393
 11
37.500000
 21
85.714272
 39
0
 62
0
  0
LINE
  8
default
  6
CONTINUOUS
 10
41.666668
 20
78.571442
 11
45.833332
 21
80.952377
 39
0
 62
0
  0
LINE
  8
default
  6
CONTINUOUS
 10
45.833332
 20
80.952377
 11
50.000000
 21
78.571426
 39
0
 62
0
  0
LINE
  8
default
  6
CONTINUOUS
 10
45.833332
 20
80.952377
 11
45.833332
 21
85.714302
 39
0
 62
0
  0
LINE
  8
default
  6
CONTINUOUS
 10
50.000000
 20
78.571426
 11
54.166668
 21
80.952408
 39
0
 62
0
  0
LINE
  8
default
  6
CONTINUOUS
 10
54.166668
 20
80.952408
 11
58.333332
 21
78.571411
 39
0
 62
0
  0
LINE
  8
default
  6
CONTINUOUS
 10
54.166668
 20
80.952408
 11
54.166668
 21
85.714272
 39
0
 62
0
  0
LINE
  8
default
  6
CONTINUOUS
 10
58.333332
 20
78.571411
 11
62.500000
 21
80.952377
 39
0
 62
0
  0
LINE
  8
default
  6
CONTINUOUS
 10
62.500000
 20
80.952377
 11
66.666664
 21
78.571457
 39
0
 62
0
  0
LINE
  8
default
  6
CONTINUOUS
 10
62.500000
 20
80.952377
 11
62.500000
 21
85.714333
 39
0
 62
0
  0
LINE
  8
default
  6
CONTINUOUS
 10
66.666664
 20
78.571457
 11
70.833336
 21
80.952423
 39
0
 62
0
  0
LINE
  8
default
  6
CONTINUOUS
 10
70.833336
 20
80.952423
 11
75.000000
 21
78.571411
 39
0
 62
0
  0
LINE
  8
default
  6
CONTINUOUS
 10
70.833336
 20
80.952423
 11
70.833336
 21
85.714302
 39
0
 62
0
  0
LINE
  8
default
  6
CONTINUOUS
 10
75.000000
 20
78.571411
 11
79.166664
 21
80.952423
 39
0
 62
0
  0
LINE
  8
default
  6
CONTINUOUS
 10
79.166664
 20
80.952423
 11
83.333336
 21
78.571411
 39
0
 62
0
  0
LINE
  8
default
  6
CONTINUOUS
 10
79.166664
 20
80.952423
 11
79.166664
 21
85.714256
 39
0
 62
0
  0
LINE
  8
default
  6
CONTINUOUS
 10
83.333336
 20
78.571411
 11
87.500000
 21
80.952393
 39
0
 62
0
  0
LINE
  8
default
  6
CONTINUOUS
 10
87.500000
 20
80.952393
 11
91.666664
 21
78.571396
 39
0
 62
0
  0
LINE
  8
default
  6
CONTINUOUS
 10
87.500000
 20
80.952393
 11
87.500000
 21
85.714256
 39
0
 62
0
  0
LINE
  8
default
  6
CONTINUOUS
 10
91.666664
 20
78.571396
 11
95.833336
 21
80.952423
 39
0
 62
0
  0
LINE
  8
default
  6
CONTINUOUS
 10
95.833336
 20
80.952423
 11
100.000000
 21
78.571426
 39
0
 62
0
  0
LINE
  8
default
  6
CONTINUOUS
 10
95.833336
 20
80.952423
 11
95.833336
 21
85.714256
 39
0
 62
0
  0
LINE
  8
default
  6
CONTINUOUS
 10
0.000000
 20
88.095238
 11
4.166667
 21
85.714287
 39
0
 62
0
  0
LINE
  8
default
  6
CONTINUOUS
 10
4.166667
 20
85.714287
 11
8.333333
 21
88.095222
 39
0
 62
0
  0
LINE
  8
default
  6
CONTINUOUS
 10
8.333333
 20
88.095222
 11
12.500000
 21
85.714287
 39
0
 62
0
  0
LINE
  8
default
  6
CONTINUOUS
 10
12.500000
 20
85.714287
 11
16.666666
 21
88.095222
 39
0
 62
0
  0
LINE
  8
default
  6
CONTINUOUS
 10
16.666666
 20
88.095222
 11
20.833334
 21
85.714272
 39
0
 62
0
  0
LINE
  8
default
  6
CONTINUOUS
 10
20.833334
 20
85.714272
 11
25.000000
 21
88.095253
 39
0
 62
0
  0
LINE
  8
default
  6
CONTINUOUS
 10
25.000000
 20
88.095253
 11
29.166666
 21
85.714287
 39
0
 62
0
  0
LINE
  8
default
  6
CONTINUOUS
 10
29.166666
 20
85.714287
 11
33.333332
 21
88.095238
 39
0
 62
0
  0
LINE
  8
default
  6
CONTINUOUS
 10
33.333332
 20
88.095238
 11
37.500000
 21
85.714272
 39
0
 62
0
  0
LINE
  8
default
  6
CONTINUOUS
 10
37.500000
 20
85.714272
 11
41.666668
 21
88.095268
 39
0
 62
0
  0
LINE
  8
default
  6
CONTINUOUS
 10
41.666668
 20
88.095268
 11
45.833332
 21
85.714302
 39
0
 62
0
  0
LINE
  8
default
  6
CONTINUOUS
 10
45.833332
 20
85.714302
 11
50.000000
 21
88.095222
 39
0
 62
0
  0
LINE
  8
default
  6
CONTINUOUS
 10
50.000000
 20
88.095222
 11
54.166668
 21
85.714272
 39
0
 62
0
  0
LINE
  8
default
  6
CONTINUOUS
 10
54.166668
 20
85.714272
 11
58.333332
 21
88.095253
 39
0
 62
0
  0
LINE
  8
default
  6
CONTINUOUS
 10
58.333332
 20
88.095253
 11
62.500000
 21
85.714333
 39
0
 62
0
  0
LINE
  8
default
  6
CONTINUOUS
 10
62.500000
 20
85.714333
 11
66.666664
 21
88.095253
 39
0
 62
0
  0
LINE
  8
default
  6
CONTINUOUS
 10
66.666664
 20
88.095253
 11
70.833336
 21
85.714302
 39
0
 62
0
  0
LINE
  8
default
  6
CONTINUOUS
 10
70.833336
 20
85.714302
 11
75.000000
 21
88.095238
 39
0
 62
0
  0
LINE
  8
default
  6
CONTINUOUS
 10
75.000000
 20
88.095238
 11
79.166664
 21
85.714256
 39
0
 62
0
  0
LINE
  8
default
  6
CONTINUOUS
 10
79.166664
 20
85.714256
 11
83.333336
 21
88.095207
 39
0
 62
0
  0
LINE
  8
default
  6
CONTINUOUS
 10
83.333336
 20
88.095207
 11
87.500000
 21
85.714256
 39
0
 62
0
  0
LINE
  8
default
  6
CONTINUOUS
 10
87.500000
 20
85.714256
 11
91.666664
 21
88.095207
 39
0
 62
0
  0
LINE
  8
default
  6
CONTINUOUS
 10
91.666664
 20
88.095207
 11
95.833336
 21
85.714256
 39
0
 62
0
  0
LINE
  8
default
  6
CONTINUOUS
 10
95.833336
 20
85.714256
 11
100.000000
 21
88.095222
 39
0
 62
0
  0
LINE
  8
default
  6
CONTINUOUS
 10
8.333333
 20
88.095222
 11
8.333333
 21
92.857155
 39
0
 62
0
  0
LINE
  8
default
  6
CONTINUOUS
 10
16.666666
 20
88.095222
 11
16.666666
 21
92.857124
 39
0
 62
0
  0
LINE
  8
default
  6
CONTINUOUS
 10
25.000000
 20
88.095253
 11
25.000000
 21
92.857140
 39
0
 62
0
  0
LINE
  8
default
  6
CONTINUOUS
 10
33.333332
 20
88.095238
 11
33.333332
 21
92.857155
 39
0
 62
0
  0
LINE
  8
default
  6
CONTINUOUS
 10
41.666668
 20
88.095268
 11
41.666668
 21
92.857140
 39
0
 62
0
  0
LINE
  8
default
  6
CONTINUOUS
 10
50.000000
 20
88.095222
 11
50.000000
 21
92.857155
 39
0
 62
0
  0
LINE
  8
default
  6
CONTINUOUS
 10
58.333332
 20
88.095253
 11
58.333332
 21
92.857170
 39
0
 62
0
  0
LINE
  8
default
  6
CONTINUOUS
 10
66.666664
 20
88.095253
 11
66.666664
 21
92.857170
 39
0
 62
0
  0
LINE
  8
default
  6
CONTINUOUS
 10
75.000000
 20
88.095238
 11
75.000000
 21
92.857124
 39
0
 62
0
  0
LINE
  8
default
  6
CONTINUOUS
 10
83.333336
 20
88.095207
 11
83.333336
 21
92.857140
 39
0
 62
0
  0
LINE
  8
default
  6
CONTINUOUS
 10
91.666664
 20
88.095207
 11
91.666664
 21
92.857079
 39
0
 62
0
  0
LINE
  8
default
  6
CONTINUOUS
 10
0.000000
 20
92.857140
 11
4.166667
 21
95.238098
 39
0
 62
0
  0
LINE
  8
default
  6
CONTINUOUS
 10
4.166667
 20
95.238098
 11
8.333333
 21
92.857155
 39
0
 62
0
  0
LINE
  8
default
  6
CONTINUOUS
 10
4.166667
 20
95.238098
 11
4.166667
 21
100.000000
 39
0
 62
0
  0
LINE
  8
default
  6
CONTINUOUS
 10
8.333333
 20
92.857155
 11
12.500000
 21
95.238098
 39
0
 62
0
  0
LINE
  8
default
  6
CONTINUOUS
 10
12.500000
 20
95.238098
 11
16.666666
 21
92.857124
 39
0
 62
0
  0
LINE
  8
default
  6
CONTINUOUS
 10
12.500000
 20
95.238098
 11
12.500000
 21
100.000000
 39
0
 62
0
  0
LINE
  8
default
  6
CONTINUOUS
 10
16.666666
 20
92.857124
 11
20.833334
 21
95.238098
 39
0
 62
0
  0
LINE
  8
default
  6
CONTINUOUS
 10
20.833334
 20
95.238098
 11
25.000000
 21
92.857140
 39
0
 62
0
  0
LINE
  8
default
  6
CONTINUOUS
 10
20.833334
 20
95.238098
 11
20.833334
 21
100.000000
 39
0
 62
0
  0
LINE
  8
default
  6
CONTINUOUS
 10
25.000000
 20
92.857140
 11
29.166666
 21
95.238083
 39
0
 62
0
  0
LINE
  8
default
  6
CONTINUOUS
 10
29.166666
 20
95.238083
 11
33.333332
 21
92.857155
 39
0
 62
0
  0
LINE
  8
default
  6
CONTINUOUS
 10
29.166666
 20
95.238083
 11
29.166666
 21
100.000000
 39
0
 62
0
  0
LINE
  8
default
  6
CONTINUOUS
 10
33.333332
 20
92.857155
 11
37.500000
 21
95.238098
 39
0
 62
0
  0
LINE
  8
default
  6
CONTINUOUS
 10
37.500000
 20
95.238098
 11
41.666668
 21
92.857140
 39
0
 62
0
  0
LINE
  8
default
  6
CONTINUOUS
 10
37.500000
 20
95.238098
 11
37.500000
 21
100.000031
 39
0
 62
0
  0
LINE
  8
default
  6
CONTINUOUS
 10
41.666668
 20
92.857140
 11
45.833332
 21
95.238098
 39
0
 62
0
  0
LINE
  8
default
  6
CONTINUOUS
 10
45.833332
 20
95.238098
 11
50.000000
 21
92.857155
 39
0
 62
0
  0
LINE
  8
default
  6
CONTINUOUS
 10
45.833332
 20
95.238098
 11
45.833332
 21
100.000000
 39
0
 62
0
  0
LINE
  8
default
  6
CONTINUOUS
 10
50.000000
 20
92.857155
 11
54.166668
 21
95.238083
 39
0
 62
0
  0
LINE
  8
default
  6
CONTINUOUS
 10
54.166668
 20
95.238083
 11
58.333332
 21
92.857170
 39
0
 62
0
  0
LINE
  8
default
  6
CONTINUOUS
 10
54.166668
 20
95.238083
 11
54.166668
 21
100.000000
 39
0
 62
0
  0
LINE
  8
default
  6
CONTINUOUS
 10
58.333332
 20
92.857170
 11
62.500000
 21
95.238068
 39
0
 62
0
  0
LINE
  8
default
  6
CONTINUOUS
 10
62.500000
 20
95.238068
 11
66.666664
 21
92.857170
 39
0
 62
0
  0
LINE
  8
default
  6
CONTINUOUS
 10
62.500000
 20
95.238068
 11
62.500000
 21
100.000031
 39
0
 62
0
  0
LINE
  8
default
  6
CONTINUOUS
 10
66.666664
 20
92.857170
 11
70.833336
 21
95.238113
 39
0
 62
0
  0
LINE
  8
default
  6
CONTINUOUS
 10
70.833336
 20
95.238113
 11
75.000000
 21
92.857124
 39
0
 62
0
  0
LINE
  8
default
  6
CONTINUOUS
 10
70.833336
 20
95.238113
 11
70.833336
 21
99.999985
 39
0
 62
0
  0
LINE
  8
default
  6
CONTINUOUS
 10
75.000000
 20
92.857124
 11
79.166664
 21
95.238113
 39
0
 62
0
  0
LINE
  8
default
  6
CONTINUOUS
 10
79.166664
 20
95.238113
 11
83.333336
 21
92.857140
 39
0
 62
0
  0
LINE
  8
default
  6
CONTINUOUS
 10
79.166664
 20
95.238113
 11
79.166664
 21
99.999985
 39
0
 62
0
  0
LINE
  8
default
  6
CONTINUOUS
 10
83.333336
 20
92.857140
 11
87.500000
 21
95.238052
 39
0
 62
0
  0
LINE
  8
default
  6
CONTINUOUS
 10
87.500000
 20
95.238052
 11
91.666664
 21
92.857079
 39
0
 62
0
  0
LINE
  8
default
  6
CONTINUOUS
 10
87.500000
 20
95.238052
 11
87.500000
 21
100.000031
 39
0
 62
0
  0
LINE
  8
default
  6
CONTINUOUS
 10
91.666664
 20
92.857079
 11
95.833336
 21
95.238068
 39
0
 62
0
  0
LINE
  8
default
  6
CONTINUOUS
 10
95.833336
 20
95.238068
 11
100.000000
 21
92.857155
 39
0
 62
0
  0
LINE
  8
default
  6
CONTINUOUS
 10
95.833336
 20
95.238068
 11
95.833336
 21
99.999969
 39
0
 62
0
  0
LINE
  8
default
  6
CONTINUOUS
 10
0.000000
 20
2.380952
 11
0.000000
 21
7.142857
 39
0
 62
0
  0
LINE
  8
default
  6
CONTINUOUS
 10
0.000000
 20
16.666666
 11
0.000000
 21
21.428572
 39
0
 62
0
  0
LINE
  8
default
  6
CONTINUOUS
 10
0.000000
 20
30.952381
 11
0.000000
 21
35.714287
 39
0
 62
0
  0
LINE
  8
default
  6
CONTINUOUS
 10
0.000000
 20
45.238094
 11
0.000000
 21
50.000000
 39
0
 62
0
  0
LINE
  8
default
  6
CONTINUOUS
 10
0.000000
 20
59.523808
 11
0.000000
 21
64.285713
 39
0
 62
0
  0
LINE
  8
default
  6
CONTINUOUS
 10
0.000000
 20
73.809525
 11
0.000000
 21
78.571426
 39
0
 62
0
  0
LINE
  8
default
  6
CONTINUOUS
 10
0.000000
 20
88.095238
 11
0.000000
 21
92.857140
 39
0
 62
0
  0
ENDSEC
  0
EOF