  0
SECTION
  2
HEADER
  9
$LIMMIN
 10
0.000000
 20
0.000000
  9
$LIMMAX
 10
100.000000
 20
99.999999
  9
$EXTMIN
 10
0.000000
 20
0.000000
  9
$EXTMAX
 10
100.000000
 20
99.999999
  9
$ANGBASE
 50
0.000000
  9
$ANGDIR
 70
0
  9
$INSUNITS
 70
0
  9
$DIMALT
 70
4
  9
$DIMLUNIT
 70
2
  9
$DIMASZ
 40
3.000000
  9
$DIMTXT
 40
5.000000
  9
$DIMRND
 40
0.010000
  9
$DIMEXE
 40
2.000000
  9
$DIMEXO
 40
2.000000
  9
$DIMAUNIT
 70
0
  9
$DIMADEC
 70
2
  9
$GRIDUNIT
 10
0.001000
 20
0.001000
  9
$PLIMMIN
 10
0.000000
 20
0.000000
  9
$PLIMMAX
 10
210.000000
 20
297.000000
  9
$PSVPSCALE
 40
1.000000
  0
ENDSEC
  0
SECTION
  2
TABLES
  0
TABLE
  2
LTYPE
 70
     1
  0
LTYPE
  2
CONTINUOUS
 70
    64
  3
Ausgez
 72
    65
 73
  0
 40
0.000000
  0
ENDTAB
  0
TABLE
  2
LAYER
 70
     1
  0
LAYER
  2
default
 70
    64
 62
0
  6
CONTINUOUS
  0
ENDTAB
  0
ENDSEC
  0
SECTION
  2
BLOCKS
  0
ENDSEC
  0
SECTION
  2
ENTITIES
  0
LINE
  8
default
  6
CONTINUOUS
 10
16.666661
 20
91.666765
 11
83.333290
 21
91.666765
 39
0
 62
7
  0
LINE
  8
default
  6
CONTINUOUS
 10
16.666661
 20
66.666645
 11
83.333290
 21
66.666645
 39
0
 62
7
  0
LINE
  8
default
  6
CONTINUOUS
 10
16.666661
 20
41.666621
 11
83.333290
 21
41.666621
 39
0
 62
7
  0
LINE
  8
default
  6
CONTINUOUS
 10
16.666661
 20
16.666678
 11
83.333290
 21
16.666678
 39
0
 62
7
  0
LINE
  8
default
  6
CONTINUOUS
 10
16.666661
 20
16.666678
 11
16.666661
 21
83.333319
 39
0
 62
7
  0
LINE
  8
default
  6
CONTINUOUS
 10
41.666650
 20
16.666678
 11
41.666650
 21
83.333319
 39
0
 62
7
  0
LINE
  8
default
  6
CONTINUOUS
 10
66.666635
 20
16.666678
 11
66.666635
 21
83.333319
 39
0
 62
7
  0
LINE
  8
default
  6
CONTINUOUS
 10
91.666678
 20
16.666678
 11
91.666678
 21
83.333319
 39
0
 62
7
  0
LINE
  8
default
  6
CONTINUOUS
 10
0.000000
 20
0.000000
 11
0.000000
 21
16.666678
 39
0
 62
7
  0
LINE
  8
default
  6
CONTINUOUS
 10
8.333392
 20
0.000000
 11
8.333392
 21
50.000038
 39
0
 62
7
  0
LINE
  8
default
  6
CONTINUOUS
 10
12.500034
 20
0.000000
 11
12.500034
 21
66.666645
 39
0
 62
7
  0
LINE
  8
default
  6
CONTINUOUS
 10
24.999982
 20
0.000000
 11
24.999982
 21
16.666678
 39
0
 62
7
  0
LINE
  8
default
  6
CONTINUOUS
 10
29.166703
 20
0.000000
 11
29.166703
 21
33.333356
 39
0
 62
7
  0
LINE
  8
default
  6
CONTINUOUS
 10
33.333349
 20
0.000000
 11
33.333349
 21
50.000038
 39
0
 62
7
  0
LINE
  8
default
  6
CONTINUOUS
 10
37.500002
 20
0.000000
 11
37.500002
 21
66.666645
 39
0
 62
7
  0
LINE
  8
default
  6
CONTINUOUS
 10
50.000043
 20
0.000000
 11
50.000043
 21
16.666678
 39
0
 62
7
  0
LINE
  8
default
  6
CONTINUOUS
 10
54.166659
 20
0.000000
 11
54.166659
 21
33.333356
 39
0
 62
7
  0
LINE
  8
default
  6
CONTINUOUS
 10
58.333329
 20
0.000000
 11
58.333329
 21
50.000038
 39
0
 62
7
  0
LINE
  8
default
  6
CONTINUOUS
 10
62.499984
 20
0.000000
 11
62.499984
 21
66.666645
 39
0
 62
7
  0
LINE
  8
default
  6
CONTINUOUS
 10
75.000023
 20
0.000000
 11
75.000023
 21
16.666678
 39
0
 62
7
  0
LINE
  8
default
  6
CONTINUOUS
 10
79.166659
 20
0.000000
 11
79.166659
 21
33.333356
 39
0
 62
7
  0
LINE
  8
default
  6
CONTINUOUS
 10
83.333290
 20
0.000000
 11
83.333290
 21
50.000038
 39
0
 62
7
  0
LINE
  8
default
  6
CONTINUOUS
 10
87.499950
 20
0.000000
 11
87.499950
 21
66.666645
 39
0
 62
7
  0
LINE
  8
default
  6
CONTINUOUS
 10
0.000000
 20
87.499931
 11
66.666635
 21
87.499931
 39
0
 62
7
  0
LINE
  8
default
  6
CONTINUOUS
 10
0.000000
 20
83.333319
 11
50.000043
 21
83.333319
 39
0
 62
7
  0
LINE
  8
default
  6
CONTINUOUS
 10
0.000000
 20
79.166596
 11
33.333349
 21
79.166596
 39
0
 62
7
  0
LINE
  8
default
  6
CONTINUOUS
 10
0.000000
 20
74.999979
 11
16.666661
 21
74.999979
 39
0
 62
7
  0
LINE
  8
default
  6
CONTINUOUS
 10
0.000000
 20
62.500023
 11
66.666635
 21
62.500023
 39
0
 62
7
  0
LINE
  8
default
  6
CONTINUOUS
 10
0.000000
 20
58.333305
 11
50.000043
 21
58.333305
 39
0
 62
7
  0
LINE
  8
default
  6
CONTINUOUS
 10
0.000000
 20
54.166683
 11
33.333349
 21
54.166683
 39
0
 62
7
  0
LINE
  8
default
  6
CONTINUOUS
 10
0.000000
 20
50.000038
 11
16.666661
 21
50.000038
 39
0
 62
7
  0
LINE
  8
default
  6
CONTINUOUS
 10
0.000000
 20
37.499975
 11
66.666635
 21
37.499975
 39
0
 62
7
  0
LINE
  8
default
  6
CONTINUOUS
 10
0.000000
 20
33.333356
 11
50.000043
 21
33.333356
 39
0
 62
7
  0
LINE
  8
default
  6
CONTINUOUS
 10
0.000000
 20
29.166739
 11
33.333349
 21
29.166739
 39
0
 62
7
  0
LINE
  8
default
  6
CONTINUOUS
 10
0.000000
 20
25.000123
 11
16.666661
 21
25.000123
 39
0
 62
7
  0
LINE
  8
default
  6
CONTINUOUS
 10
0.000000
 20
12.500061
 11
66.666635
 21
12.500061
 39
0
 62
7
  0
LINE
  8
default
  6
CONTINUOUS
 10
0.000000
 20
8.333444
 11
50.000043
 21
8.333444
 39
0
 62
7
  0
LINE
  8
default
  6
CONTINUOUS
 10
0.000000
 20
4.166722
 11
33.333349
 21
4.166722
 39
0
 62
7
  0
LINE
  8
default
  6
CONTINUOUS
 10
0.000000
 20
0.000000
 11
16.666661
 21
0.000000
 39
0
 62
7
  0
LINE
  8
default
  6
CONTINUOUS
 10
33.333349
 20
95.833387
 11
100.000000
 21
95.833387
 39
0
 62
7
  0
LINE
  8
default
  6
CONTINUOUS
 10
83.333290
 20
83.333319
 11
100.000000
 21
83.333319
 39
0
 62
7
  0
LINE
  8
default
  6
CONTINUOUS
 10
66.666635
 20
79.166596
 11
100.000000
 21
79.166596
 39
0
 62
7
  0
LINE
  8
default
  6
CONTINUOUS
 10
50.000043
 20
74.999979
 11
100.000000
 21
74.999979
 39
0
 62
7
  0
LINE
  8
default
  6
CONTINUOUS
 10
33.333349
 20
70.833363
 11
100.000000
 21
70.833363
 39
0
 62
7
  0
LINE
  8
default
  6
CONTINUOUS
 10
83.333290
 20
58.333305
 11
100.000000
 21
58.333305
 39
0
 62
7
  0
LINE
  8
default
  6
CONTINUOUS
 10
66.666635
 20
54.166683
 11
100.000000
 21
54.166683
 39
0
 62
7
  0
LINE
  8
default
  6
CONTINUOUS
 10
50.000043
 20
50.000038
 11
100.000000
 21
50.000038
 39
0
 62
7
  0
LINE
  8
default
  6
CONTINUOUS
 10
33.333349
 20
45.833416
 11
100.000000
 21
45.833416
 39
0
 62
7
  0
LINE
  8
default
  6
CONTINUOUS
 10
83.333290
 20
33.333356
 11
100.000000
 21
33.333356
 39
0
 62
7
  0
LINE
  8
default
  6
CONTINUOUS
 10
66.666635
 20
29.166739
 11
100.000000
 21
29.166739
 39
0
 62
7
  0
LINE
  8
default
  6
CONTINUOUS
 10
50.000043
 20
25.000123
 11
100.000000
 21
25.000123
 39
0
 62
7
  0
LINE
  8
default
  6
CONTINUOUS
 10
33.333349
 20
20.833293
 11
100.000000
 21
20.833293
 39
0
 62
7
  0
LINE
  8
default
  6
CONTINUOUS
 10
83.333290
 20
8.333444
 11
100.000000
 21
8.333444
 39
0
 62
7
  0
LINE
  8
default
  6
CONTINUOUS
 10
66.666635
 20
4.166722
 11
100.000000
 21
4.166722
 39
0
 62
7
  0
LINE
  8
default
  6
CONTINUOUS
 10
50.000043
 20
0.000000
 11
100.000000
 21
0.000000
 39
0
 62
7
  0
LINE
  8
default
  6
CONTINUOUS
 10
0.000000
 20
50.000038
 11
0.000000
 21
99.999999
 39
0
 62
7
  0
LINE
  8
default
  6
CONTINUOUS
 10
4.166652
 20
66.666645
 11
4.166652
 21
99.999999
 39
0
 62
7
  0
LINE
  8
default
  6
CONTINUOUS
 10
8.333392
 20
83.333319
 11
8.333392
 21
99.999999
 39
0
 62
7
  0
LINE
  8
default
  6
CONTINUOUS
 10
20.833339
 20
33.333356
 11
20.833339
 21
99.999999
 39
0
 62
7
  0
LINE
  8
default
  6
CONTINUOUS
 10
24.999982
 20
50.000038
 11
24.999982
 21
99.999999
 39
0
 62
7
  0
LINE
  8
default
  6
CONTINUOUS
 10
29.166703
 20
66.666645
 11
29.166703
 21
99.999999
 39
0
 62
7
  0
LINE
  8
default
  6
CONTINUOUS
 10
33.333349
 20
83.333319
 11
33.333349
 21
99.999999
 39
0
 62
7
  0
LINE
  8
default
  6
CONTINUOUS
 10
45.833295
 20
33.333356
 11
45.833295
 21
99.999999
 39
0
 62
7
  0
LINE
  8
default
  6
CONTINUOUS
 10
50.000043
 20
50.000038
 11
50.000043
 21
99.999999
 39
0
 62
7
  0
LINE
  8
default
  6
CONTINUOUS
 10
54.166659
 20
66.666645
 11
54.166659
 21
99.999999
 39
0
 62
7
  0
LINE
  8
default
  6
CONTINUOUS
 10
58.333329
 20
83.333319
 11
58.333329
 21
99.999999
 39
0
 62
7
  0
LINE
  8
default
  6
CONTINUOUS
 10
70.833353
 20
33.333356
 11
70.833353
 21
99.999999
 39
0
 62
7
  0
LINE
  8
default
  6
CONTINUOUS
 10
75.000023
 20
50.000038
 11
75.000023
 21
99.999999
 39
0
 62
7
  0
LINE
  8
default
  6
CONTINUOUS
 10
79.166659
 20
66.666645
 11
79.166659
 21
99.999999
 39
0
 62
7
  0
LINE
  8
default
  6
CONTINUOUS
 10
83.333290
 20
83.333319
 11
83.333290
 21
99.999999
 39
0
 62
7
  0
LINE
  8
default
  6
CONTINUOUS
 10
95.833338
 20
33.333356
 11
95.833338
 21
99.999999
 39
0
 62
7
  0
LINE
  8
default
  6
CONTINUOUS
 10
4.166652
 20
0.000000
 11
4.166652
 21
33.333356
 39
0
 62
7
  0
ENDSEC
  0
EOF
