  0
SECTION
  2
HEADER
  9
$LIMMIN
 10
0.000000
 20
0.000000
  9
$LIMMAX
 10
99.164749
 20
99.604317
  9
$EXTMIN
 10
0.000000
 20
0.000000
  9
$EXTMAX
 10
99.164749
 20
99.604317
  0
ENDSEC
  0
SECTION
  2
TABLES
  0
TABLE
  2
LTYPE
 70
     1
  0
LTYPE
  2
CONTINUOUS
 70
    64
  3
Ausgez
 72
    65
 73
  0
 40
0.000000
  0
ENDTAB
  0
TABLE
  2
LAYER
 70
     1
  0
LAYER
  2
default
 70
    64
 62
     0
  6
CONTINUOUS
  0
ENDTAB
  0
ENDSEC
  0
SECTION
  2
BLOCKS
  0
ENDSEC
  0
SECTION
  2
ENTITIES
  0
LINE
  8
default
  6
CONTINUOUS
 10
8.093525
 20
16.366907
 11
8.193525
 21
16.266907
 39
0
 62
0
  0
LINE
  8
default
  6
CONTINUOUS
 10
14.928058
 20
14.208633
 11
15.028057
 21
14.108633
 39
0
 62
0
  0
LINE
  8
default
  6
CONTINUOUS
 10
3.417266
 20
10.431655
 11
3.517266
 21
10.331655
 39
0
 62
0
  0
LINE
  8
default
  6
CONTINUOUS
 10
8.273381
 20
10.431655
 11
8.373381
 21
10.331655
 39
0
 62
0
  0
LINE
  8
default
  6
CONTINUOUS
 10
2.877698
 20
3.417266
 11
2.977698
 21
3.317266
 39
0
 62
0
  0
LINE
  8
default
  6
CONTINUOUS
 10
14.748201
 20
4.316547
 11
14.848202
 21
4.216547
 39
0
 62
0
  0
LINE
  8
default
  6
CONTINUOUS
 10
8.093525
 20
3.776978
 11
8.193525
 21
3.676978
 39
0
 62
0
  0
LINE
  8
default
  6
CONTINUOUS
 10
18.345324
 20
9.892086
 11
18.445324
 21
9.792086
 39
0
 62
0
  0
LINE
  8
default
  6
CONTINUOUS
 10
19.064749
 20
19.064749
 11
19.164749
 21
18.964748
 39
0
 62
0
  0
LINE
  8
default
  6
CONTINUOUS
 10
15.647482
 20
1.079136
 11
15.747482
 21
0.979136
 39
0
 62
0
  0
LINE
  8
default
  6
CONTINUOUS
 10
12.769784
 20
19.064749
 11
12.869783
 21
18.964748
 39
0
 62
0
  0
LINE
  8
default
  6
CONTINUOUS
 10
5.935252
 20
7.014389
 11
6.035252
 21
6.914389
 39
0
 62
0
  0
LINE
  8
default
  6
CONTINUOUS
 10
1.079137
 20
6.115108
 11
1.179137
 21
6.015108
 39
0
 62
0
  0
LINE
  8
default
  6
CONTINUOUS
 10
0.539568
 20
14.028777
 11
0.639568
 21
13.928777
 39
0
 62
0
  0
LINE
  8
default
  6
CONTINUOUS
 10
11.151079
 20
6.834532
 11
11.251080
 21
6.734531
 39
0
 62
0
  0
LINE
  8
default
  6
CONTINUOUS
 10
12.949640
 20
11.690648
 11
13.049641
 21
11.590648
 39
0
 62
0
  0
LINE
  8
default
  6
CONTINUOUS
 10
4.496403
 20
14.388490
 11
4.596403
 21
14.288489
 39
0
 62
0
  0
LINE
  8
default
  6
CONTINUOUS
 10
17.446043
 20
6.654676
 11
17.546043
 21
6.554676
 39
0
 62
0
  0
LINE
  8
default
  6
CONTINUOUS
 10
5.755396
 20
1.079136
 11
5.855396
 21
0.979136
 39
0
 62
0
  0
LINE
  8
default
  6
CONTINUOUS
 10
18.345324
 20
15.287770
 11
18.445324
 21
15.187770
 39
0
 62
0
  0
LINE
  8
default
  6
CONTINUOUS
 10
11.151079
 20
15.467626
 11
11.251080
 21
15.367625
 39
0
 62
0
  0
LINE
  8
default
  6
CONTINUOUS
 10
5.935252
 20
19.604317
 11
6.035252
 21
19.504316
 39
0
 62
0
  0
LINE
  8
default
  6
CONTINUOUS
 10
28.093525
 20
16.366907
 11
28.193525
 21
16.266907
 39
0
 62
0
  0
LINE
  8
default
  6
CONTINUOUS
 10
34.928059
 20
14.208633
 11
35.028057
 21
14.108633
 39
0
 62
0
  0
LINE
  8
default
  6
CONTINUOUS
 10
23.417267
 20
10.431655
 11
23.517265
 21
10.331655
 39
0
 62
0
  0
LINE
  8
default
  6
CONTINUOUS
 10
28.273380
 20
10.431655
 11
28.373381
 21
10.331655
 39
0
 62
0
  0
LINE
  8
default
  6
CONTINUOUS
 10
22.877697
 20
3.417266
 11
22.977697
 21
3.317266
 39
0
 62
0
  0
LINE
  8
default
  6
CONTINUOUS
 10
34.748199
 20
4.316547
 11
34.848202
 21
4.216547
 39
0
 62
0
  0
LINE
  8
default
  6
CONTINUOUS
 10
28.093525
 20
3.776978
 11
28.193525
 21
3.676978
 39
0
 62
0
  0
LINE
  8
default
  6
CONTINUOUS
 10
38.345322
 20
9.892086
 11
38.445324
 21
9.792086
 39
0
 62
0
  0
LINE
  8
default
  6
CONTINUOUS
 10
39.064751
 20
19.064749
 11
39.164749
 21
18.964748
 39
0
 62
0
  0
LINE
  8
default
  6
CONTINUOUS
 10
35.647484
 20
1.079136
 11
35.747482
 21
0.979136
 39
0
 62
0
  0
LINE
  8
default
  6
CONTINUOUS
 10
32.769783
 20
19.064749
 11
32.869781
 21
18.964748
 39
0
 62
0
  0
LINE
  8
default
  6
CONTINUOUS
 10
25.935251
 20
7.014389
 11
26.035252
 21
6.914389
 39
0
 62
0
  0
LINE
  8
default
  6
CONTINUOUS
 10
21.079136
 20
6.115108
 11
21.179136
 21
6.015108
 39
0
 62
0
  0
LINE
  8
default
  6
CONTINUOUS
 10
20.539568
 20
14.028777
 11
20.639568
 21
13.928777
 39
0
 62
0
  0
LINE
  8
default
  6
CONTINUOUS
 10
31.151079
 20
6.834532
 11
31.251080
 21
6.734531
 39
0
 62
0
  0
LINE
  8
default
  6
CONTINUOUS
 10
32.949638
 20
11.690648
 11
33.049641
 21
11.590648
 39
0
 62
0
  0
LINE
  8
default
  6
CONTINUOUS
 10
24.496403
 20
14.388490
 11
24.596403
 21
14.288489
 39
0
 62
0
  0
LINE
  8
default
  6
CONTINUOUS
 10
37.446045
 20
6.654676
 11
37.546043
 21
6.554676
 39
0
 62
0
  0
LINE
  8
default
  6
CONTINUOUS
 10
25.755396
 20
1.079136
 11
25.855396
 21
0.979136
 39
0
 62
0
  0
LINE
  8
default
  6
CONTINUOUS
 10
38.345322
 20
15.287770
 11
38.445324
 21
15.187770
 39
0
 62
0
  0
LINE
  8
default
  6
CONTINUOUS
 10
31.151079
 20
15.467626
 11
31.251080
 21
15.367625
 39
0
 62
0
  0
LINE
  8
default
  6
CONTINUOUS
 10
25.935251
 20
19.604317
 11
26.035252
 21
19.504316
 39
0
 62
0
  0
LINE
  8
default
  6
CONTINUOUS
 10
48.093525
 20
16.366907
 11
48.193527
 21
16.266907
 39
0
 62
0
  0
LINE
  8
default
  6
CONTINUOUS
 10
54.928059
 20
14.208633
 11
55.028057
 21
14.108633
 39
0
 62
0
  0
LINE
  8
default
  6
CONTINUOUS
 10
43.417267
 20
10.431655
 11
43.517265
 21
10.331655
 39
0
 62
0
  0
LINE
  8
default
  6
CONTINUOUS
 10
48.273380
 20
10.431655
 11
48.373383
 21
10.331655
 39
0
 62
0
  0
LINE
  8
default
  6
CONTINUOUS
 10
42.877697
 20
3.417266
 11
42.977699
 21
3.317266
 39
0
 62
0
  0
LINE
  8
default
  6
CONTINUOUS
 10
54.748199
 20
4.316547
 11
54.848202
 21
4.216547
 39
0
 62
0
  0
LINE
  8
default
  6
CONTINUOUS
 10
48.093525
 20
3.776978
 11
48.193527
 21
3.676978
 39
0
 62
0
  0
LINE
  8
default
  6
CONTINUOUS
 10
58.345322
 20
9.892086
 11
58.445324
 21
9.792086
 39
0
 62
0
  0
LINE
  8
default
  6
CONTINUOUS
 10
59.064751
 20
19.064749
 11
59.164749
 21
18.964748
 39
0
 62
0
  0
LINE
  8
default
  6
CONTINUOUS
 10
55.647484
 20
1.079136
 11
55.747482
 21
0.979136
 39
0
 62
0
  0
LINE
  8
default
  6
CONTINUOUS
 10
52.769783
 20
19.064749
 11
52.869781
 21
18.964748
 39
0
 62
0
  0
LINE
  8
default
  6
CONTINUOUS
 10
45.935253
 20
7.014389
 11
46.035252
 21
6.914389
 39
0
 62
0
  0
LINE
  8
default
  6
CONTINUOUS
 10
41.079136
 20
6.115108
 11
41.179138
 21
6.015108
 39
0
 62
0
  0
LINE
  8
default
  6
CONTINUOUS
 10
40.539570
 20
14.028777
 11
40.639568
 21
13.928777
 39
0
 62
0
  0
LINE
  8
default
  6
CONTINUOUS
 10
51.151077
 20
6.834532
 11
51.251080
 21
6.734531
 39
0
 62
0
  0
LINE
  8
default
  6
CONTINUOUS
 10
52.949638
 20
11.690648
 11
53.049641
 21
11.590648
 39
0
 62
0
  0
LINE
  8
default
  6
CONTINUOUS
 10
44.496403
 20
14.388490
 11
44.596401
 21
14.288489
 39
0
 62
0
  0
LINE
  8
default
  6
CONTINUOUS
 10
57.446045
 20
6.654676
 11
57.546043
 21
6.554676
 39
0
 62
0
  0
LINE
  8
default
  6
CONTINUOUS
 10
45.755394
 20
1.079136
 11
45.855396
 21
0.979136
 39
0
 62
0
  0
LINE
  8
default
  6
CONTINUOUS
 10
58.345322
 20
15.287770
 11
58.445324
 21
15.187770
 39
0
 62
0
  0
LINE
  8
default
  6
CONTINUOUS
 10
51.151077
 20
15.467626
 11
51.251080
 21
15.367625
 39
0
 62
0
  0
LINE
  8
default
  6
CONTINUOUS
 10
45.935253
 20
19.604317
 11
46.035252
 21
19.504316
 39
0
 62
0
  0
LINE
  8
default
  6
CONTINUOUS
 10
68.093521
 20
16.366907
 11
68.193527
 21
16.266907
 39
0
 62
0
  0
LINE
  8
default
  6
CONTINUOUS
 10
74.928055
 20
14.208633
 11
75.028061
 21
14.108633
 39
0
 62
0
  0
LINE
  8
default
  6
CONTINUOUS
 10
63.417267
 20
10.431655
 11
63.517265
 21
10.331655
 39
0
 62
0
  0
LINE
  8
default
  6
CONTINUOUS
 10
68.273384
 20
10.431655
 11
68.373383
 21
10.331655
 39
0
 62
0
  0
LINE
  8
default
  6
CONTINUOUS
 10
62.877697
 20
3.417266
 11
62.977699
 21
3.317266
 39
0
 62
0
  0
LINE
  8
default
  6
CONTINUOUS
 10
74.748199
 20
4.316547
 11
74.848206
 21
4.216547
 39
0
 62
0
  0
LINE
  8
default
  6
CONTINUOUS
 10
68.093521
 20
3.776978
 11
68.193527
 21
3.676978
 39
0
 62
0
  0
LINE
  8
default
  6
CONTINUOUS
 10
78.345322
 20
9.892086
 11
78.445328
 21
9.792086
 39
0
 62
0
  0
LINE
  8
default
  6
CONTINUOUS
 10
79.064751
 20
19.064749
 11
79.164749
 21
18.964748
 39
0
 62
0
  0
LINE
  8
default
  6
CONTINUOUS
 10
75.647484
 20
1.079136
 11
75.747482
 21
0.979136
 39
0
 62
0
  0
LINE
  8
default
  6
CONTINUOUS
 10
72.769783
 20
19.064749
 11
72.869781
 21
18.964748
 39
0
 62
0
  0
LINE
  8
default
  6
CONTINUOUS
 10
65.935249
 20
7.014389
 11
66.035248
 21
6.914389
 39
0
 62
0
  0
LINE
  8
default
  6
CONTINUOUS
 10
61.079136
 20
6.115108
 11
61.179138
 21
6.015108
 39
0
 62
0
  0
LINE
  8
default
  6
CONTINUOUS
 10
60.539570
 20
14.028777
 11
60.639568
 21
13.928777
 39
0
 62
0
  0
LINE
  8
default
  6
CONTINUOUS
 10
71.151077
 20
6.834532
 11
71.251083
 21
6.734531
 39
0
 62
0
  0
LINE
  8
default
  6
CONTINUOUS
 10
72.949638
 20
11.690648
 11
73.049637
 21
11.590648
 39
0
 62
0
  0
LINE
  8
default
  6
CONTINUOUS
 10
64.496399
 20
14.388490
 11
64.596405
 21
14.288489
 39
0
 62
0
  0
LINE
  8
default
  6
CONTINUOUS
 10
77.446045
 20
6.654676
 11
77.546043
 21
6.554676
 39
0
 62
0
  0
LINE
  8
default
  6
CONTINUOUS
 10
65.755394
 20
1.079136
 11
65.855392
 21
0.979136
 39
0
 62
0
  0
LINE
  8
default
  6
CONTINUOUS
 10
78.345322
 20
15.287770
 11
78.445328
 21
15.187770
 39
0
 62
0
  0
LINE
  8
default
  6
CONTINUOUS
 10
71.151077
 20
15.467626
 11
71.251083
 21
15.367625
 39
0
 62
0
  0
LINE
  8
default
  6
CONTINUOUS
 10
65.935249
 20
19.604317
 11
66.035248
 21
19.504316
 39
0
 62
0
  0
LINE
  8
default
  6
CONTINUOUS
 10
88.093521
 20
16.366907
 11
88.193527
 21
16.266907
 39
0
 62
0
  0
LINE
  8
default
  6
CONTINUOUS
 10
94.928055
 20
14.208633
 11
95.028061
 21
14.108633
 39
0
 62
0
  0
LINE
  8
default
  6
CONTINUOUS
 10
83.417267
 20
10.431655
 11
83.517265
 21
10.331655
 39
0
 62
0
  0
LINE
  8
default
  6
CONTINUOUS
 10
88.273384
 20
10.431655
 11
88.373383
 21
10.331655
 39
0
 62
0
  0
LINE
  8
default
  6
CONTINUOUS
 10
82.877701
 20
3.417266
 11
82.977699
 21
3.317266
 39
0
 62
0
  0
LINE
  8
default
  6
CONTINUOUS
 10
94.748199
 20
4.316547
 11
94.848206
 21
4.216547
 39
0
 62
0
  0
LINE
  8
default
  6
CONTINUOUS
 10
88.093521
 20
3.776978
 11
88.193527
 21
3.676978
 39
0
 62
0
  0
LINE
  8
default
  6
CONTINUOUS
 10
98.345322
 20
9.892086
 11
98.445328
 21
9.792086
 39
0
 62
0
  0
LINE
  8
default
  6
CONTINUOUS
 10
99.064751
 20
19.064749
 11
99.164749
 21
18.964748
 39
0
 62
0
  0
LINE
  8
default
  6
CONTINUOUS
 10
95.647484
 20
1.079136
 11
95.747482
 21
0.979136
 39
0
 62
0
  0
LINE
  8
default
  6
CONTINUOUS
 10
92.769783
 20
19.064749
 11
92.869781
 21
18.964748
 39
0
 62
0
  0
LINE
  8
default
  6
CONTINUOUS
 10
85.935249
 20
7.014389
 11
86.035248
 21
6.914389
 39
0
 62
0
  0
LINE
  8
default
  6
CONTINUOUS
 10
81.079140
 20
6.115108
 11
81.179138
 21
6.015108
 39
0
 62
0
  0
LINE
  8
default
  6
CONTINUOUS
 10
80.539566
 20
14.028777
 11
80.639572
 21
13.928777
 39
0
 62
0
  0
LINE
  8
default
  6
CONTINUOUS
 10
91.151077
 20
6.834532
 11
91.251083
 21
6.734531
 39
0
 62
0
  0
LINE
  8
default
  6
CONTINUOUS
 10
92.949638
 20
11.690648
 11
93.049637
 21
11.590648
 39
0
 62
0
  0
LINE
  8
default
  6
CONTINUOUS
 10
84.496399
 20
14.388490
 11
84.596405
 21
14.288489
 39
0
 62
0
  0
LINE
  8
default
  6
CONTINUOUS
 10
97.446045
 20
6.654676
 11
97.546043
 21
6.554676
 39
0
 62
0
  0
LINE
  8
default
  6
CONTINUOUS
 10
85.755394
 20
1.079136
 11
85.855392
 21
0.979136
 39
0
 62
0
  0
LINE
  8
default
  6
CONTINUOUS
 10
98.345322
 20
15.287770
 11
98.445328
 21
15.187770
 39
0
 62
0
  0
LINE
  8
default
  6
CONTINUOUS
 10
91.151077
 20
15.467626
 11
91.251083
 21
15.367625
 39
0
 62
0
  0
LINE
  8
default
  6
CONTINUOUS
 10
85.935249
 20
19.604317
 11
86.035248
 21
19.504316
 39
0
 62
0
  0
LINE
  8
default
  6
CONTINUOUS
 10
8.093525
 20
36.366905
 11
8.193525
 21
36.266907
 39
0
 62
0
  0
LINE
  8
default
  6
CONTINUOUS
 10
14.928058
 20
34.208633
 11
15.028057
 21
34.108635
 39
0
 62
0
  0
LINE
  8
default
  6
CONTINUOUS
 10
3.417266
 20
30.431656
 11
3.517266
 21
30.331654
 39
0
 62
0
  0
LINE
  8
default
  6
CONTINUOUS
 10
8.273381
 20
30.431656
 11
8.373381
 21
30.331654
 39
0
 62
0
  0
LINE
  8
default
  6
CONTINUOUS
 10
2.877698
 20
23.417267
 11
2.977698
 21
23.317265
 39
0
 62
0
  0
LINE
  8
default
  6
CONTINUOUS
 10
14.748201
 20
24.316547
 11
14.848202
 21
24.216547
 39
0
 62
0
  0
LINE
  8
default
  6
CONTINUOUS
 10
8.093525
 20
23.776978
 11
8.193525
 21
23.676979
 39
0
 62
0
  0
LINE
  8
default
  6
CONTINUOUS
 10
18.345324
 20
29.892086
 11
18.445324
 21
29.792086
 39
0
 62
0
  0
LINE
  8
default
  6
CONTINUOUS
 10
19.064749
 20
39.064751
 11
19.164749
 21
38.964748
 39
0
 62
0
  0
LINE
  8
default
  6
CONTINUOUS
 10
15.647482
 20
21.079136
 11
15.747482
 21
20.979136
 39
0
 62
0
  0
LINE
  8
default
  6
CONTINUOUS
 10
12.769784
 20
39.064751
 11
12.869783
 21
38.964748
 39
0
 62
0
  0
LINE
  8
default
  6
CONTINUOUS
 10
5.935252
 20
27.014389
 11
6.035252
 21
26.914389
 39
0
 62
0
  0
LINE
  8
default
  6
CONTINUOUS
 10
1.079137
 20
26.115108
 11
1.179137
 21
26.015108
 39
0
 62
0
  0
LINE
  8
default
  6
CONTINUOUS
 10
0.539568
 20
34.028778
 11
0.639568
 21
33.928776
 39
0
 62
0
  0
LINE
  8
default
  6
CONTINUOUS
 10
11.151079
 20
26.834532
 11
11.251080
 21
26.734531
 39
0
 62
0
  0
LINE
  8
default
  6
CONTINUOUS
 10
12.949640
 20
31.690647
 11
13.049641
 21
31.590649
 39
0
 62
0
  0
LINE
  8
default
  6
CONTINUOUS
 10
4.496403
 20
34.388489
 11
4.596403
 21
34.288490
 39
0
 62
0
  0
LINE
  8
default
  6
CONTINUOUS
 10
17.446043
 20
26.654676
 11
17.546043
 21
26.554676
 39
0
 62
0
  0
LINE
  8
default
  6
CONTINUOUS
 10
5.755396
 20
21.079136
 11
5.855396
 21
20.979136
 39
0
 62
0
  0
LINE
  8
default
  6
CONTINUOUS
 10
18.345324
 20
35.287769
 11
18.445324
 21
35.187771
 39
0
 62
0
  0
LINE
  8
default
  6
CONTINUOUS
 10
11.151079
 20
35.467625
 11
11.251080
 21
35.367626
 39
0
 62
0
  0
LINE
  8
default
  6
CONTINUOUS
 10
5.935252
 20
39.604317
 11
6.035252
 21
39.504318
 39
0
 62
0
  0
LINE
  8
default
  6
CONTINUOUS
 10
28.093525
 20
36.366905
 11
28.193525
 21
36.266907
 39
0
 62
0
  0
LINE
  8
default
  6
CONTINUOUS
 10
34.928059
 20
34.208633
 11
35.028057
 21
34.108635
 39
0
 62
0
  0
LINE
  8
default
  6
CONTINUOUS
 10
23.417267
 20
30.431656
 11
23.517265
 21
30.331654
 39
0
 62
0
  0
LINE
  8
default
  6
CONTINUOUS
 10
28.273380
 20
30.431656
 11
28.373381
 21
30.331654
 39
0
 62
0
  0
LINE
  8
default
  6
CONTINUOUS
 10
22.877697
 20
23.417267
 11
22.977697
 21
23.317265
 39
0
 62
0
  0
LINE
  8
default
  6
CONTINUOUS
 10
34.748199
 20
24.316547
 11
34.848202
 21
24.216547
 39
0
 62
0
  0
LINE
  8
default
  6
CONTINUOUS
 10
28.093525
 20
23.776978
 11
28.193525
 21
23.676979
 39
0
 62
0
  0
LINE
  8
default
  6
CONTINUOUS
 10
38.345322
 20
29.892086
 11
38.445324
 21
29.792086
 39
0
 62
0
  0
LINE
  8
default
  6
CONTINUOUS
 10
39.064751
 20
39.064751
 11
39.164749
 21
38.964748
 39
0
 62
0
  0
LINE
  8
default
  6
CONTINUOUS
 10
35.647484
 20
21.079136
 11
35.747482
 21
20.979136
 39
0
 62
0
  0
LINE
  8
default
  6
CONTINUOUS
 10
32.769783
 20
39.064751
 11
32.869781
 21
38.964748
 39
0
 62
0
  0
LINE
  8
default
  6
CONTINUOUS
 10
25.935251
 20
27.014389
 11
26.035252
 21
26.914389
 39
0
 62
0
  0
LINE
  8
default
  6
CONTINUOUS
 10
21.079136
 20
26.115108
 11
21.179136
 21
26.015108
 39
0
 62
0
  0
LINE
  8
default
  6
CONTINUOUS
 10
20.539568
 20
34.028778
 11
20.639568
 21
33.928776
 39
0
 62
0
  0
LINE
  8
default
  6
CONTINUOUS
 10
31.151079
 20
26.834532
 11
31.251080
 21
26.734531
 39
0
 62
0
  0
LINE
  8
default
  6
CONTINUOUS
 10
32.949638
 20
31.690647
 11
33.049641
 21
31.590649
 39
0
 62
0
  0
LINE
  8
default
  6
CONTINUOUS
 10
24.496403
 20
34.388489
 11
24.596403
 21
34.288490
 39
0
 62
0
  0
LINE
  8
default
  6
CONTINUOUS
 10
37.446045
 20
26.654676
 11
37.546043
 21
26.554676
 39
0
 62
0
  0
LINE
  8
default
  6
CONTINUOUS
 10
25.755396
 20
21.079136
 11
25.855396
 21
20.979136
 39
0
 62
0
  0
LINE
  8
default
  6
CONTINUOUS
 10
38.345322
 20
35.287769
 11
38.445324
 21
35.187771
 39
0
 62
0
  0
LINE
  8
default
  6
CONTINUOUS
 10
31.151079
 20
35.467625
 11
31.251080
 21
35.367626
 39
0
 62
0
  0
LINE
  8
default
  6
CONTINUOUS
 10
25.935251
 20
39.604317
 11
26.035252
 21
39.504318
 39
0
 62
0
  0
LINE
  8
default
  6
CONTINUOUS
 10
48.093525
 20
36.366905
 11
48.193527
 21
36.266907
 39
0
 62
0
  0
LINE
  8
default
  6
CONTINUOUS
 10
54.928059
 20
34.208633
 11
55.028057
 21
34.108635
 39
0
 62
0
  0
LINE
  8
default
  6
CONTINUOUS
 10
43.417267
 20
30.431656
 11
43.517265
 21
30.331654
 39
0
 62
0
  0
LINE
  8
default
  6
CONTINUOUS
 10
48.273380
 20
30.431656
 11
48.373383
 21
30.331654
 39
0
 62
0
  0
LINE
  8
default
  6
CONTINUOUS
 10
42.877697
 20
23.417267
 11
42.977699
 21
23.317265
 39
0
 62
0
  0
LINE
  8
default
  6
CONTINUOUS
 10
54.748199
 20
24.316547
 11
54.848202
 21
24.216547
 39
0
 62
0
  0
LINE
  8
default
  6
CONTINUOUS
 10
48.093525
 20
23.776978
 11
48.193527
 21
23.676979
 39
0
 62
0
  0
LINE
  8
default
  6
CONTINUOUS
 10
58.345322
 20
29.892086
 11
58.445324
 21
29.792086
 39
0
 62
0
  0
LINE
  8
default
  6
CONTINUOUS
 10
59.064751
 20
39.064751
 11
59.164749
 21
38.964748
 39
0
 62
0
  0
LINE
  8
default
  6
CONTINUOUS
 10
55.647484
 20
21.079136
 11
55.747482
 21
20.979136
 39
0
 62
0
  0
LINE
  8
default
  6
CONTINUOUS
 10
52.769783
 20
39.064751
 11
52.869781
 21
38.964748
 39
0
 62
0
  0
LINE
  8
default
  6
CONTINUOUS
 10
45.935253
 20
27.014389
 11
46.035252
 21
26.914389
 39
0
 62
0
  0
LINE
  8
default
  6
CONTINUOUS
 10
41.079136
 20
26.115108
 11
41.179138
 21
26.015108
 39
0
 62
0
  0
LINE
  8
default
  6
CONTINUOUS
 10
40.539570
 20
34.028778
 11
40.639568
 21
33.928776
 39
0
 62
0
  0
LINE
  8
default
  6
CONTINUOUS
 10
51.151077
 20
26.834532
 11
51.251080
 21
26.734531
 39
0
 62
0
  0
LINE
  8
default
  6
CONTINUOUS
 10
52.949638
 20
31.690647
 11
53.049641
 21
31.590649
 39
0
 62
0
  0
LINE
  8
default
  6
CONTINUOUS
 10
44.496403
 20
34.388489
 11
44.596401
 21
34.288490
 39
0
 62
0
  0
LINE
  8
default
  6
CONTINUOUS
 10
57.446045
 20
26.654676
 11
57.546043
 21
26.554676
 39
0
 62
0
  0
LINE
  8
default
  6
CONTINUOUS
 10
45.755394
 20
21.079136
 11
45.855396
 21
20.979136
 39
0
 62
0
  0
LINE
  8
default
  6
CONTINUOUS
 10
58.345322
 20
35.287769
 11
58.445324
 21
35.187771
 39
0
 62
0
  0
LINE
  8
default
  6
CONTINUOUS
 10
51.151077
 20
35.467625
 11
51.251080
 21
35.367626
 39
0
 62
0
  0
LINE
  8
default
  6
CONTINUOUS
 10
45.935253
 20
39.604317
 11
46.035252
 21
39.504318
 39
0
 62
0
  0
LINE
  8
default
  6
CONTINUOUS
 10
68.093521
 20
36.366905
 11
68.193527
 21
36.266907
 39
0
 62
0
  0
LINE
  8
default
  6
CONTINUOUS
 10
74.928055
 20
34.208633
 11
75.028061
 21
34.108635
 39
0
 62
0
  0
LINE
  8
default
  6
CONTINUOUS
 10
63.417267
 20
30.431656
 11
63.517265
 21
30.331654
 39
0
 62
0
  0
LINE
  8
default
  6
CONTINUOUS
 10
68.273384
 20
30.431656
 11
68.373383
 21
30.331654
 39
0
 62
0
  0
LINE
  8
default
  6
CONTINUOUS
 10
62.877697
 20
23.417267
 11
62.977699
 21
23.317265
 39
0
 62
0
  0
LINE
  8
default
  6
CONTINUOUS
 10
74.748199
 20
24.316547
 11
74.848206
 21
24.216547
 39
0
 62
0
  0
LINE
  8
default
  6
CONTINUOUS
 10
68.093521
 20
23.776978
 11
68.193527
 21
23.676979
 39
0
 62
0
  0
LINE
  8
default
  6
CONTINUOUS
 10
78.345322
 20
29.892086
 11
78.445328
 21
29.792086
 39
0
 62
0
  0
LINE
  8
default
  6
CONTINUOUS
 10
79.064751
 20
39.064751
 11
79.164749
 21
38.964748
 39
0
 62
0
  0
LINE
  8
default
  6
CONTINUOUS
 10
75.647484
 20
21.079136
 11
75.747482
 21
20.979136
 39
0
 62
0
  0
LINE
  8
default
  6
CONTINUOUS
 10
72.769783
 20
39.064751
 11
72.869781
 21
38.964748
 39
0
 62
0
  0
LINE
  8
default
  6
CONTINUOUS
 10
65.935249
 20
27.014389
 11
66.035248
 21
26.914389
 39
0
 62
0
  0
LINE
  8
default
  6
CONTINUOUS
 10
61.079136
 20
26.115108
 11
61.179138
 21
26.015108
 39
0
 62
0
  0
LINE
  8
default
  6
CONTINUOUS
 10
60.539570
 20
34.028778
 11
60.639568
 21
33.928776
 39
0
 62
0
  0
LINE
  8
default
  6
CONTINUOUS
 10
71.151077
 20
26.834532
 11
71.251083
 21
26.734531
 39
0
 62
0
  0
LINE
  8
default
  6
CONTINUOUS
 10
72.949638
 20
31.690647
 11
73.049637
 21
31.590649
 39
0
 62
0
  0
LINE
  8
default
  6
CONTINUOUS
 10
64.496399
 20
34.388489
 11
64.596405
 21
34.288490
 39
0
 62
0
  0
LINE
  8
default
  6
CONTINUOUS
 10
77.446045
 20
26.654676
 11
77.546043
 21
26.554676
 39
0
 62
0
  0
LINE
  8
default
  6
CONTINUOUS
 10
65.755394
 20
21.079136
 11
65.855392
 21
20.979136
 39
0
 62
0
  0
LINE
  8
default
  6
CONTINUOUS
 10
78.345322
 20
35.287769
 11
78.445328
 21
35.187771
 39
0
 62
0
  0
LINE
  8
default
  6
CONTINUOUS
 10
71.151077
 20
35.467625
 11
71.251083
 21
35.367626
 39
0
 62
0
  0
LINE
  8
default
  6
CONTINUOUS
 10
65.935249
 20
39.604317
 11
66.035248
 21
39.504318
 39
0
 62
0
  0
LINE
  8
default
  6
CONTINUOUS
 10
88.093521
 20
36.366905
 11
88.193527
 21
36.266907
 39
0
 62
0
  0
LINE
  8
default
  6
CONTINUOUS
 10
94.928055
 20
34.208633
 11
95.028061
 21
34.108635
 39
0
 62
0
  0
LINE
  8
default
  6
CONTINUOUS
 10
83.417267
 20
30.431656
 11
83.517265
 21
30.331654
 39
0
 62
0
  0
LINE
  8
default
  6
CONTINUOUS
 10
88.273384
 20
30.431656
 11
88.373383
 21
30.331654
 39
0
 62
0
  0
LINE
  8
default
  6
CONTINUOUS
 10
82.877701
 20
23.417267
 11
82.977699
 21
23.317265
 39
0
 62
0
  0
LINE
  8
default
  6
CONTINUOUS
 10
94.748199
 20
24.316547
 11
94.848206
 21
24.216547
 39
0
 62
0
  0
LINE
  8
default
  6
CONTINUOUS
 10
88.093521
 20
23.776978
 11
88.193527
 21
23.676979
 39
0
 62
0
  0
LINE
  8
default
  6
CONTINUOUS
 10
98.345322
 20
29.892086
 11
98.445328
 21
29.792086
 39
0
 62
0
  0
LINE
  8
default
  6
CONTINUOUS
 10
99.064751
 20
39.064751
 11
99.164749
 21
38.964748
 39
0
 62
0
  0
LINE
  8
default
  6
CONTINUOUS
 10
95.647484
 20
21.079136
 11
95.747482
 21
20.979136
 39
0
 62
0
  0
LINE
  8
default
  6
CONTINUOUS
 10
92.769783
 20
39.064751
 11
92.869781
 21
38.964748
 39
0
 62
0
  0
LINE
  8
default
  6
CONTINUOUS
 10
85.935249
 20
27.014389
 11
86.035248
 21
26.914389
 39
0
 62
0
  0
LINE
  8
default
  6
CONTINUOUS
 10
81.079140
 20
26.115108
 11
81.179138
 21
26.015108
 39
0
 62
0
  0
LINE
  8
default
  6
CONTINUOUS
 10
80.539566
 20
34.028778
 11
80.639572
 21
33.928776
 39
0
 62
0
  0
LINE
  8
default
  6
CONTINUOUS
 10
91.151077
 20
26.834532
 11
91.251083
 21
26.734531
 39
0
 62
0
  0
LINE
  8
default
  6
CONTINUOUS
 10
92.949638
 20
31.690647
 11
93.049637
 21
31.590649
 39
0
 62
0
  0
LINE
  8
default
  6
CONTINUOUS
 10
84.496399
 20
34.388489
 11
84.596405
 21
34.288490
 39
0
 62
0
  0
LINE
  8
default
  6
CONTINUOUS
 10
97.446045
 20
26.654676
 11
97.546043
 21
26.554676
 39
0
 62
0
  0
LINE
  8
default
  6
CONTINUOUS
 10
85.755394
 20
21.079136
 11
85.855392
 21
20.979136
 39
0
 62
0
  0
LINE
  8
default
  6
CONTINUOUS
 10
98.345322
 20
35.287769
 11
98.445328
 21
35.187771
 39
0
 62
0
  0
LINE
  8
default
  6
CONTINUOUS
 10
91.151077
 20
35.467625
 11
91.251083
 21
35.367626
 39
0
 62
0
  0
LINE
  8
default
  6
CONTINUOUS
 10
85.935249
 20
39.604317
 11
86.035248
 21
39.504318
 39
0
 62
0
  0
LINE
  8
default
  6
CONTINUOUS
 10
8.093525
 20
56.366905
 11
8.193525
 21
56.266907
 39
0
 62
0
  0
LINE
  8
default
  6
CONTINUOUS
 10
14.928058
 20
54.208633
 11
15.028057
 21
54.108635
 39
0
 62
0
  0
LINE
  8
default
  6
CONTINUOUS
 10
3.417266
 20
50.431656
 11
3.517266
 21
50.331654
 39
0
 62
0
  0
LINE
  8
default
  6
CONTINUOUS
 10
8.273381
 20
50.431656
 11
8.373381
 21
50.331654
 39
0
 62
0
  0
LINE
  8
default
  6
CONTINUOUS
 10
2.877698
 20
43.417267
 11
2.977698
 21
43.317265
 39
0
 62
0
  0
LINE
  8
default
  6
CONTINUOUS
 10
14.748201
 20
44.316547
 11
14.848202
 21
44.216545
 39
0
 62
0
  0
LINE
  8
default
  6
CONTINUOUS
 10
8.093525
 20
43.776978
 11
8.193525
 21
43.676979
 39
0
 62
0
  0
LINE
  8
default
  6
CONTINUOUS
 10
18.345324
 20
49.892086
 11
18.445324
 21
49.792084
 39
0
 62
0
  0
LINE
  8
default
  6
CONTINUOUS
 10
19.064749
 20
59.064751
 11
19.164749
 21
58.964748
 39
0
 62
0
  0
LINE
  8
default
  6
CONTINUOUS
 10
15.647482
 20
41.079136
 11
15.747482
 21
40.979134
 39
0
 62
0
  0
LINE
  8
default
  6
CONTINUOUS
 10
12.769784
 20
59.064751
 11
12.869783
 21
58.964748
 39
0
 62
0
  0
LINE
  8
default
  6
CONTINUOUS
 10
5.935252
 20
47.014389
 11
6.035252
 21
46.914391
 39
0
 62
0
  0
LINE
  8
default
  6
CONTINUOUS
 10
1.079137
 20
46.115108
 11
1.179137
 21
46.015106
 39
0
 62
0
  0
LINE
  8
default
  6
CONTINUOUS
 10
0.539568
 20
54.028778
 11
0.639568
 21
53.928776
 39
0
 62
0
  0
LINE
  8
default
  6
CONTINUOUS
 10
11.151079
 20
46.834534
 11
11.251080
 21
46.734531
 39
0
 62
0
  0
LINE
  8
default
  6
CONTINUOUS
 10
12.949640
 20
51.690647
 11
13.049641
 21
51.590649
 39
0
 62
0
  0
LINE
  8
default
  6
CONTINUOUS
 10
4.496403
 20
54.388489
 11
4.596403
 21
54.288490
 39
0
 62
0
  0
LINE
  8
default
  6
CONTINUOUS
 10
17.446043
 20
46.654678
 11
17.546043
 21
46.554676
 39
0
 62
0
  0
LINE
  8
default
  6
CONTINUOUS
 10
5.755396
 20
41.079136
 11
5.855396
 21
40.979134
 39
0
 62
0
  0
LINE
  8
default
  6
CONTINUOUS
 10
18.345324
 20
55.287769
 11
18.445324
 21
55.187771
 39
0
 62
0
  0
LINE
  8
default
  6
CONTINUOUS
 10
11.151079
 20
55.467625
 11
11.251080
 21
55.367626
 39
0
 62
0
  0
LINE
  8
default
  6
CONTINUOUS
 10
5.935252
 20
59.604317
 11
6.035252
 21
59.504318
 39
0
 62
0
  0
LINE
  8
default
  6
CONTINUOUS
 10
28.093525
 20
56.366905
 11
28.193525
 21
56.266907
 39
0
 62
0
  0
LINE
  8
default
  6
CONTINUOUS
 10
34.928059
 20
54.208633
 11
35.028057
 21
54.108635
 39
0
 62
0
  0
LINE
  8
default
  6
CONTINUOUS
 10
23.417267
 20
50.431656
 11
23.517265
 21
50.331654
 39
0
 62
0
  0
LINE
  8
default
  6
CONTINUOUS
 10
28.273380
 20
50.431656
 11
28.373381
 21
50.331654
 39
0
 62
0
  0
LINE
  8
default
  6
CONTINUOUS
 10
22.877697
 20
43.417267
 11
22.977697
 21
43.317265
 39
0
 62
0
  0
LINE
  8
default
  6
CONTINUOUS
 10
34.748199
 20
44.316547
 11
34.848202
 21
44.216545
 39
0
 62
0
  0
LINE
  8
default
  6
CONTINUOUS
 10
28.093525
 20
43.776978
 11
28.193525
 21
43.676979
 39
0
 62
0
  0
LINE
  8
default
  6
CONTINUOUS
 10
38.345322
 20
49.892086
 11
38.445324
 21
49.792084
 39
0
 62
0
  0
LINE
  8
default
  6
CONTINUOUS
 10
39.064751
 20
59.064751
 11
39.164749
 21
58.964748
 39
0
 62
0
  0
LINE
  8
default
  6
CONTINUOUS
 10
35.647484
 20
41.079136
 11
35.747482
 21
40.979134
 39
0
 62
0
  0
LINE
  8
default
  6
CONTINUOUS
 10
32.769783
 20
59.064751
 11
32.869781
 21
58.964748
 39
0
 62
0
  0
LINE
  8
default
  6
CONTINUOUS
 10
25.935251
 20
47.014389
 11
26.035252
 21
46.914391
 39
0
 62
0
  0
LINE
  8
default
  6
CONTINUOUS
 10
21.079136
 20
46.115108
 11
21.179136
 21
46.015106
 39
0
 62
0
  0
LINE
  8
default
  6
CONTINUOUS
 10
20.539568
 20
54.028778
 11
20.639568
 21
53.928776
 39
0
 62
0
  0
LINE
  8
default
  6
CONTINUOUS
 10
31.151079
 20
46.834534
 11
31.251080
 21
46.734531
 39
0
 62
0
  0
LINE
  8
default
  6
CONTINUOUS
 10
32.949638
 20
51.690647
 11
33.049641
 21
51.590649
 39
0
 62
0
  0
LINE
  8
default
  6
CONTINUOUS
 10
24.496403
 20
54.388489
 11
24.596403
 21
54.288490
 39
0
 62
0
  0
LINE
  8
default
  6
CONTINUOUS
 10
37.446045
 20
46.654678
 11
37.546043
 21
46.554676
 39
0
 62
0
  0
LINE
  8
default
  6
CONTINUOUS
 10
25.755396
 20
41.079136
 11
25.855396
 21
40.979134
 39
0
 62
0
  0
LINE
  8
default
  6
CONTINUOUS
 10
38.345322
 20
55.287769
 11
38.445324
 21
55.187771
 39
0
 62
0
  0
LINE
  8
default
  6
CONTINUOUS
 10
31.151079
 20
55.467625
 11
31.251080
 21
55.367626
 39
0
 62
0
  0
LINE
  8
default
  6
CONTINUOUS
 10
25.935251
 20
59.604317
 11
26.035252
 21
59.504318
 39
0
 62
0
  0
LINE
  8
default
  6
CONTINUOUS
 10
48.093525
 20
56.366905
 11
48.193527
 21
56.266907
 39
0
 62
0
  0
LINE
  8
default
  6
CONTINUOUS
 10
54.928059
 20
54.208633
 11
55.028057
 21
54.108635
 39
0
 62
0
  0
LINE
  8
default
  6
CONTINUOUS
 10
43.417267
 20
50.431656
 11
43.517265
 21
50.331654
 39
0
 62
0
  0
LINE
  8
default
  6
CONTINUOUS
 10
48.273380
 20
50.431656
 11
48.373383
 21
50.331654
 39
0
 62
0
  0
LINE
  8
default
  6
CONTINUOUS
 10
42.877697
 20
43.417267
 11
42.977699
 21
43.317265
 39
0
 62
0
  0
LINE
  8
default
  6
CONTINUOUS
 10
54.748199
 20
44.316547
 11
54.848202
 21
44.216545
 39
0
 62
0
  0
LINE
  8
default
  6
CONTINUOUS
 10
48.093525
 20
43.776978
 11
48.193527
 21
43.676979
 39
0
 62
0
  0
LINE
  8
default
  6
CONTINUOUS
 10
58.345322
 20
49.892086
 11
58.445324
 21
49.792084
 39
0
 62
0
  0
LINE
  8
default
  6
CONTINUOUS
 10
59.064751
 20
59.064751
 11
59.164749
 21
58.964748
 39
0
 62
0
  0
LINE
  8
default
  6
CONTINUOUS
 10
55.647484
 20
41.079136
 11
55.747482
 21
40.979134
 39
0
 62
0
  0
LINE
  8
default
  6
CONTINUOUS
 10
52.769783
 20
59.064751
 11
52.869781
 21
58.964748
 39
0
 62
0
  0
LINE
  8
default
  6
CONTINUOUS
 10
45.935253
 20
47.014389
 11
46.035252
 21
46.914391
 39
0
 62
0
  0
LINE
  8
default
  6
CONTINUOUS
 10
41.079136
 20
46.115108
 11
41.179138
 21
46.015106
 39
0
 62
0
  0
LINE
  8
default
  6
CONTINUOUS
 10
40.539570
 20
54.028778
 11
40.639568
 21
53.928776
 39
0
 62
0
  0
LINE
  8
default
  6
CONTINUOUS
 10
51.151077
 20
46.834534
 11
51.251080
 21
46.734531
 39
0
 62
0
  0
LINE
  8
default
  6
CONTINUOUS
 10
52.949638
 20
51.690647
 11
53.049641
 21
51.590649
 39
0
 62
0
  0
LINE
  8
default
  6
CONTINUOUS
 10
44.496403
 20
54.388489
 11
44.596401
 21
54.288490
 39
0
 62
0
  0
LINE
  8
default
  6
CONTINUOUS
 10
57.446045
 20
46.654678
 11
57.546043
 21
46.554676
 39
0
 62
0
  0
LINE
  8
default
  6
CONTINUOUS
 10
45.755394
 20
41.079136
 11
45.855396
 21
40.979134
 39
0
 62
0
  0
LINE
  8
default
  6
CONTINUOUS
 10
58.345322
 20
55.287769
 11
58.445324
 21
55.187771
 39
0
 62
0
  0
LINE
  8
default
  6
CONTINUOUS
 10
51.151077
 20
55.467625
 11
51.251080
 21
55.367626
 39
0
 62
0
  0
LINE
  8
default
  6
CONTINUOUS
 10
45.935253
 20
59.604317
 11
46.035252
 21
59.504318
 39
0
 62
0
  0
LINE
  8
default
  6
CONTINUOUS
 10
68.093521
 20
56.366905
 11
68.193527
 21
56.266907
 39
0
 62
0
  0
LINE
  8
default
  6
CONTINUOUS
 10
74.928055
 20
54.208633
 11
75.028061
 21
54.108635
 39
0
 62
0
  0
LINE
  8
default
  6
CONTINUOUS
 10
63.417267
 20
50.431656
 11
63.517265
 21
50.331654
 39
0
 62
0
  0
LINE
  8
default
  6
CONTINUOUS
 10
68.273384
 20
50.431656
 11
68.373383
 21
50.331654
 39
0
 62
0
  0
LINE
  8
default
  6
CONTINUOUS
 10
62.877697
 20
43.417267
 11
62.977699
 21
43.317265
 39
0
 62
0
  0
LINE
  8
default
  6
CONTINUOUS
 10
74.748199
 20
44.316547
 11
74.848206
 21
44.216545
 39
0
 62
0
  0
LINE
  8
default
  6
CONTINUOUS
 10
68.093521
 20
43.776978
 11
68.193527
 21
43.676979
 39
0
 62
0
  0
LINE
  8
default
  6
CONTINUOUS
 10
78.345322
 20
49.892086
 11
78.445328
 21
49.792084
 39
0
 62
0
  0
LINE
  8
default
  6
CONTINUOUS
 10
79.064751
 20
59.064751
 11
79.164749
 21
58.964748
 39
0
 62
0
  0
LINE
  8
default
  6
CONTINUOUS
 10
75.647484
 20
41.079136
 11
75.747482
 21
40.979134
 39
0
 62
0
  0
LINE
  8
default
  6
CONTINUOUS
 10
72.769783
 20
59.064751
 11
72.869781
 21
58.964748
 39
0
 62
0
  0
LINE
  8
default
  6
CONTINUOUS
 10
65.935249
 20
47.014389
 11
66.035248
 21
46.914391
 39
0
 62
0
  0
LINE
  8
default
  6
CONTINUOUS
 10
61.079136
 20
46.115108
 11
61.179138
 21
46.015106
 39
0
 62
0
  0
LINE
  8
default
  6
CONTINUOUS
 10
60.539570
 20
54.028778
 11
60.639568
 21
53.928776
 39
0
 62
0
  0
LINE
  8
default
  6
CONTINUOUS
 10
71.151077
 20
46.834534
 11
71.251083
 21
46.734531
 39
0
 62
0
  0
LINE
  8
default
  6
CONTINUOUS
 10
72.949638
 20
51.690647
 11
73.049637
 21
51.590649
 39
0
 62
0
  0
LINE
  8
default
  6
CONTINUOUS
 10
64.496399
 20
54.388489
 11
64.596405
 21
54.288490
 39
0
 62
0
  0
LINE
  8
default
  6
CONTINUOUS
 10
77.446045
 20
46.654678
 11
77.546043
 21
46.554676
 39
0
 62
0
  0
LINE
  8
default
  6
CONTINUOUS
 10
65.755394
 20
41.079136
 11
65.855392
 21
40.979134
 39
0
 62
0
  0
LINE
  8
default
  6
CONTINUOUS
 10
78.345322
 20
55.287769
 11
78.445328
 21
55.187771
 39
0
 62
0
  0
LINE
  8
default
  6
CONTINUOUS
 10
71.151077
 20
55.467625
 11
71.251083
 21
55.367626
 39
0
 62
0
  0
LINE
  8
default
  6
CONTINUOUS
 10
65.935249
 20
59.604317
 11
66.035248
 21
59.504318
 39
0
 62
0
  0
LINE
  8
default
  6
CONTINUOUS
 10
88.093521
 20
56.366905
 11
88.193527
 21
56.266907
 39
0
 62
0
  0
LINE
  8
default
  6
CONTINUOUS
 10
94.928055
 20
54.208633
 11
95.028061
 21
54.108635
 39
0
 62
0
  0
LINE
  8
default
  6
CONTINUOUS
 10
83.417267
 20
50.431656
 11
83.517265
 21
50.331654
 39
0
 62
0
  0
LINE
  8
default
  6
CONTINUOUS
 10
88.273384
 20
50.431656
 11
88.373383
 21
50.331654
 39
0
 62
0
  0
LINE
  8
default
  6
CONTINUOUS
 10
82.877701
 20
43.417267
 11
82.977699
 21
43.317265
 39
0
 62
0
  0
LINE
  8
default
  6
CONTINUOUS
 10
94.748199
 20
44.316547
 11
94.848206
 21
44.216545
 39
0
 62
0
  0
LINE
  8
default
  6
CONTINUOUS
 10
88.093521
 20
43.776978
 11
88.193527
 21
43.676979
 39
0
 62
0
  0
LINE
  8
default
  6
CONTINUOUS
 10
98.345322
 20
49.892086
 11
98.445328
 21
49.792084
 39
0
 62
0
  0
LINE
  8
default
  6
CONTINUOUS
 10
99.064751
 20
59.064751
 11
99.164749
 21
58.964748
 39
0
 62
0
  0
LINE
  8
default
  6
CONTINUOUS
 10
95.647484
 20
41.079136
 11
95.747482
 21
40.979134
 39
0
 62
0
  0
LINE
  8
default
  6
CONTINUOUS
 10
92.769783
 20
59.064751
 11
92.869781
 21
58.964748
 39
0
 62
0
  0
LINE
  8
default
  6
CONTINUOUS
 10
85.935249
 20
47.014389
 11
86.035248
 21
46.914391
 39
0
 62
0
  0
LINE
  8
default
  6
CONTINUOUS
 10
81.079140
 20
46.115108
 11
81.179138
 21
46.015106
 39
0
 62
0
  0
LINE
  8
default
  6
CONTINUOUS
 10
80.539566
 20
54.028778
 11
80.639572
 21
53.928776
 39
0
 62
0
  0
LINE
  8
default
  6
CONTINUOUS
 10
91.151077
 20
46.834534
 11
91.251083
 21
46.734531
 39
0
 62
0
  0
LINE
  8
default
  6
CONTINUOUS
 10
92.949638
 20
51.690647
 11
93.049637
 21
51.590649
 39
0
 62
0
  0
LINE
  8
default
  6
CONTINUOUS
 10
84.496399
 20
54.388489
 11
84.596405
 21
54.288490
 39
0
 62
0
  0
LINE
  8
default
  6
CONTINUOUS
 10
97.446045
 20
46.654678
 11
97.546043
 21
46.554676
 39
0
 62
0
  0
LINE
  8
default
  6
CONTINUOUS
 10
85.755394
 20
41.079136
 11
85.855392
 21
40.979134
 39
0
 62
0
  0
LINE
  8
default
  6
CONTINUOUS
 10
98.345322
 20
55.287769
 11
98.445328
 21
55.187771
 39
0
 62
0
  0
LINE
  8
default
  6
CONTINUOUS
 10
91.151077
 20
55.467625
 11
91.251083
 21
55.367626
 39
0
 62
0
  0
LINE
  8
default
  6
CONTINUOUS
 10
85.935249
 20
59.604317
 11
86.035248
 21
59.504318
 39
0
 62
0
  0
LINE
  8
default
  6
CONTINUOUS
 10
8.093525
 20
76.366905
 11
8.193525
 21
76.266907
 39
0
 62
0
  0
LINE
  8
default
  6
CONTINUOUS
 10
14.928058
 20
74.208633
 11
15.028057
 21
74.108635
 39
0
 62
0
  0
LINE
  8
default
  6
CONTINUOUS
 10
3.417266
 20
70.431656
 11
3.517266
 21
70.331657
 39
0
 62
0
  0
LINE
  8
default
  6
CONTINUOUS
 10
8.273381
 20
70.431656
 11
8.373381
 21
70.331657
 39
0
 62
0
  0
LINE
  8
default
  6
CONTINUOUS
 10
2.877698
 20
63.417267
 11
2.977698
 21
63.317265
 39
0
 62
0
  0
LINE
  8
default
  6
CONTINUOUS
 10
14.748201
 20
64.316544
 11
14.848202
 21
64.216545
 39
0
 62
0
  0
LINE
  8
default
  6
CONTINUOUS
 10
8.093525
 20
63.776978
 11
8.193525
 21
63.676979
 39
0
 62
0
  0
LINE
  8
default
  6
CONTINUOUS
 10
18.345324
 20
69.892090
 11
18.445324
 21
69.792084
 39
0
 62
0
  0
LINE
  8
default
  6
CONTINUOUS
 10
19.064749
 20
79.064751
 11
19.164749
 21
78.964752
 39
0
 62
0
  0
LINE
  8
default
  6
CONTINUOUS
 10
15.647482
 20
61.079136
 11
15.747482
 21
60.979134
 39
0
 62
0
  0
LINE
  8
default
  6
CONTINUOUS
 10
12.769784
 20
79.064751
 11
12.869783
 21
78.964752
 39
0
 62
0
  0
LINE
  8
default
  6
CONTINUOUS
 10
5.935252
 20
67.014389
 11
6.035252
 21
66.914391
 39
0
 62
0
  0
LINE
  8
default
  6
CONTINUOUS
 10
1.079137
 20
66.115112
 11
1.179137
 21
66.015106
 39
0
 62
0
  0
LINE
  8
default
  6
CONTINUOUS
 10
0.539568
 20
74.028778
 11
0.639568
 21
73.928780
 39
0
 62
0
  0
LINE
  8
default
  6
CONTINUOUS
 10
11.151079
 20
66.834534
 11
11.251080
 21
66.734528
 39
0
 62
0
  0
LINE
  8
default
  6
CONTINUOUS
 10
12.949640
 20
71.690651
 11
13.049641
 21
71.590645
 39
0
 62
0
  0
LINE
  8
default
  6
CONTINUOUS
 10
4.496403
 20
74.388489
 11
4.596403
 21
74.288490
 39
0
 62
0
  0
LINE
  8
default
  6
CONTINUOUS
 10
17.446043
 20
66.654678
 11
17.546043
 21
66.554672
 39
0
 62
0
  0
LINE
  8
default
  6
CONTINUOUS
 10
5.755396
 20
61.079136
 11
5.855396
 21
60.979134
 39
0
 62
0
  0
LINE
  8
default
  6
CONTINUOUS
 10
18.345324
 20
75.287773
 11
18.445324
 21
75.187767
 39
0
 62
0
  0
LINE
  8
default
  6
CONTINUOUS
 10
11.151079
 20
75.467628
 11
11.251080
 21
75.367622
 39
0
 62
0
  0
LINE
  8
default
  6
CONTINUOUS
 10
5.935252
 20
79.604317
 11
6.035252
 21
79.504318
 39
0
 62
0
  0
LINE
  8
default
  6
CONTINUOUS
 10
28.093525
 20
76.366905
 11
28.193525
 21
76.266907
 39
0
 62
0
  0
LINE
  8
default
  6
CONTINUOUS
 10
34.928059
 20
74.208633
 11
35.028057
 21
74.108635
 39
0
 62
0
  0
LINE
  8
default
  6
CONTINUOUS
 10
23.417267
 20
70.431656
 11
23.517265
 21
70.331657
 39
0
 62
0
  0
LINE
  8
default
  6
CONTINUOUS
 10
28.273380
 20
70.431656
 11
28.373381
 21
70.331657
 39
0
 62
0
  0
LINE
  8
default
  6
CONTINUOUS
 10
22.877697
 20
63.417267
 11
22.977697
 21
63.317265
 39
0
 62
0
  0
LINE
  8
default
  6
CONTINUOUS
 10
34.748199
 20
64.316544
 11
34.848202
 21
64.216545
 39
0
 62
0
  0
LINE
  8
default
  6
CONTINUOUS
 10
28.093525
 20
63.776978
 11
28.193525
 21
63.676979
 39
0
 62
0
  0
LINE
  8
default
  6
CONTINUOUS
 10
38.345322
 20
69.892090
 11
38.445324
 21
69.792084
 39
0
 62
0
  0
LINE
  8
default
  6
CONTINUOUS
 10
39.064751
 20
79.064751
 11
39.164749
 21
78.964752
 39
0
 62
0
  0
LINE
  8
default
  6
CONTINUOUS
 10
35.647484
 20
61.079136
 11
35.747482
 21
60.979134
 39
0
 62
0
  0
LINE
  8
default
  6
CONTINUOUS
 10
32.769783
 20
79.064751
 11
32.869781
 21
78.964752
 39
0
 62
0
  0
LINE
  8
default
  6
CONTINUOUS
 10
25.935251
 20
67.014389
 11
26.035252
 21
66.914391
 39
0
 62
0
  0
LINE
  8
default
  6
CONTINUOUS
 10
21.079136
 20
66.115112
 11
21.179136
 21
66.015106
 39
0
 62
0
  0
LINE
  8
default
  6
CONTINUOUS
 10
20.539568
 20
74.028778
 11
20.639568
 21
73.928780
 39
0
 62
0
  0
LINE
  8
default
  6
CONTINUOUS
 10
31.151079
 20
66.834534
 11
31.251080
 21
66.734528
 39
0
 62
0
  0
LINE
  8
default
  6
CONTINUOUS
 10
32.949638
 20
71.690651
 11
33.049641
 21
71.590645
 39
0
 62
0
  0
LINE
  8
default
  6
CONTINUOUS
 10
24.496403
 20
74.388489
 11
24.596403
 21
74.288490
 39
0
 62
0
  0
LINE
  8
default
  6
CONTINUOUS
 10
37.446045
 20
66.654678
 11
37.546043
 21
66.554672
 39
0
 62
0
  0
LINE
  8
default
  6
CONTINUOUS
 10
25.755396
 20
61.079136
 11
25.855396
 21
60.979134
 39
0
 62
0
  0
LINE
  8
default
  6
CONTINUOUS
 10
38.345322
 20
75.287773
 11
38.445324
 21
75.187767
 39
0
 62
0
  0
LINE
  8
default
  6
CONTINUOUS
 10
31.151079
 20
75.467628
 11
31.251080
 21
75.367622
 39
0
 62
0
  0
LINE
  8
default
  6
CONTINUOUS
 10
25.935251
 20
79.604317
 11
26.035252
 21
79.504318
 39
0
 62
0
  0
LINE
  8
default
  6
CONTINUOUS
 10
48.093525
 20
76.366905
 11
48.193527
 21
76.266907
 39
0
 62
0
  0
LINE
  8
default
  6
CONTINUOUS
 10
54.928059
 20
74.208633
 11
55.028057
 21
74.108635
 39
0
 62
0
  0
LINE
  8
default
  6
CONTINUOUS
 10
43.417267
 20
70.431656
 11
43.517265
 21
70.331657
 39
0
 62
0
  0
LINE
  8
default
  6
CONTINUOUS
 10
48.273380
 20
70.431656
 11
48.373383
 21
70.331657
 39
0
 62
0
  0
LINE
  8
default
  6
CONTINUOUS
 10
42.877697
 20
63.417267
 11
42.977699
 21
63.317265
 39
0
 62
0
  0
LINE
  8
default
  6
CONTINUOUS
 10
54.748199
 20
64.316544
 11
54.848202
 21
64.216545
 39
0
 62
0
  0
LINE
  8
default
  6
CONTINUOUS
 10
48.093525
 20
63.776978
 11
48.193527
 21
63.676979
 39
0
 62
0
  0
LINE
  8
default
  6
CONTINUOUS
 10
58.345322
 20
69.892090
 11
58.445324
 21
69.792084
 39
0
 62
0
  0
LINE
  8
default
  6
CONTINUOUS
 10
59.064751
 20
79.064751
 11
59.164749
 21
78.964752
 39
0
 62
0
  0
LINE
  8
default
  6
CONTINUOUS
 10
55.647484
 20
61.079136
 11
55.747482
 21
60.979134
 39
0
 62
0
  0
LINE
  8
default
  6
CONTINUOUS
 10
52.769783
 20
79.064751
 11
52.869781
 21
78.964752
 39
0
 62
0
  0
LINE
  8
default
  6
CONTINUOUS
 10
45.935253
 20
67.014389
 11
46.035252
 21
66.914391
 39
0
 62
0
  0
LINE
  8
default
  6
CONTINUOUS
 10
41.079136
 20
66.115112
 11
41.179138
 21
66.015106
 39
0
 62
0
  0
LINE
  8
default
  6
CONTINUOUS
 10
40.539570
 20
74.028778
 11
40.639568
 21
73.928780
 39
0
 62
0
  0
LINE
  8
default
  6
CONTINUOUS
 10
51.151077
 20
66.834534
 11
51.251080
 21
66.734528
 39
0
 62
0
  0
LINE
  8
default
  6
CONTINUOUS
 10
52.949638
 20
71.690651
 11
53.049641
 21
71.590645
 39
0
 62
0
  0
LINE
  8
default
  6
CONTINUOUS
 10
44.496403
 20
74.388489
 11
44.596401
 21
74.288490
 39
0
 62
0
  0
LINE
  8
default
  6
CONTINUOUS
 10
57.446045
 20
66.654678
 11
57.546043
 21
66.554672
 39
0
 62
0
  0
LINE
  8
default
  6
CONTINUOUS
 10
45.755394
 20
61.079136
 11
45.855396
 21
60.979134
 39
0
 62
0
  0
LINE
  8
default
  6
CONTINUOUS
 10
58.345322
 20
75.287773
 11
58.445324
 21
75.187767
 39
0
 62
0
  0
LINE
  8
default
  6
CONTINUOUS
 10
51.151077
 20
75.467628
 11
51.251080
 21
75.367622
 39
0
 62
0
  0
LINE
  8
default
  6
CONTINUOUS
 10
45.935253
 20
79.604317
 11
46.035252
 21
79.504318
 39
0
 62
0
  0
LINE
  8
default
  6
CONTINUOUS
 10
68.093521
 20
76.366905
 11
68.193527
 21
76.266907
 39
0
 62
0
  0
LINE
  8
default
  6
CONTINUOUS
 10
74.928055
 20
74.208633
 11
75.028061
 21
74.108635
 39
0
 62
0
  0
LINE
  8
default
  6
CONTINUOUS
 10
63.417267
 20
70.431656
 11
63.517265
 21
70.331657
 39
0
 62
0
  0
LINE
  8
default
  6
CONTINUOUS
 10
68.273384
 20
70.431656
 11
68.373383
 21
70.331657
 39
0
 62
0
  0
LINE
  8
default
  6
CONTINUOUS
 10
62.877697
 20
63.417267
 11
62.977699
 21
63.317265
 39
0
 62
0
  0
LINE
  8
default
  6
CONTINUOUS
 10
74.748199
 20
64.316544
 11
74.848206
 21
64.216545
 39
0
 62
0
  0
LINE
  8
default
  6
CONTINUOUS
 10
68.093521
 20
63.776978
 11
68.193527
 21
63.676979
 39
0
 62
0
  0
LINE
  8
default
  6
CONTINUOUS
 10
78.345322
 20
69.892090
 11
78.445328
 21
69.792084
 39
0
 62
0
  0
LINE
  8
default
  6
CONTINUOUS
 10
79.064751
 20
79.064751
 11
79.164749
 21
78.964752
 39
0
 62
0
  0
LINE
  8
default
  6
CONTINUOUS
 10
75.647484
 20
61.079136
 11
75.747482
 21
60.979134
 39
0
 62
0
  0
LINE
  8
default
  6
CONTINUOUS
 10
72.769783
 20
79.064751
 11
72.869781
 21
78.964752
 39
0
 62
0
  0
LINE
  8
default
  6
CONTINUOUS
 10
65.935249
 20
67.014389
 11
66.035248
 21
66.914391
 39
0
 62
0
  0
LINE
  8
default
  6
CONTINUOUS
 10
61.079136
 20
66.115112
 11
61.179138
 21
66.015106
 39
0
 62
0
  0
LINE
  8
default
  6
CONTINUOUS
 10
60.539570
 20
74.028778
 11
60.639568
 21
73.928780
 39
0
 62
0
  0
LINE
  8
default
  6
CONTINUOUS
 10
71.151077
 20
66.834534
 11
71.251083
 21
66.734528
 39
0
 62
0
  0
LINE
  8
default
  6
CONTINUOUS
 10
72.949638
 20
71.690651
 11
73.049637
 21
71.590645
 39
0
 62
0
  0
LINE
  8
default
  6
CONTINUOUS
 10
64.496399
 20
74.388489
 11
64.596405
 21
74.288490
 39
0
 62
0
  0
LINE
  8
default
  6
CONTINUOUS
 10
77.446045
 20
66.654678
 11
77.546043
 21
66.554672
 39
0
 62
0
  0
LINE
  8
default
  6
CONTINUOUS
 10
65.755394
 20
61.079136
 11
65.855392
 21
60.979134
 39
0
 62
0
  0
LINE
  8
default
  6
CONTINUOUS
 10
78.345322
 20
75.287773
 11
78.445328
 21
75.187767
 39
0
 62
0
  0
LINE
  8
default
  6
CONTINUOUS
 10
71.151077
 20
75.467628
 11
71.251083
 21
75.367622
 39
0
 62
0
  0
LINE
  8
default
  6
CONTINUOUS
 10
65.935249
 20
79.604317
 11
66.035248
 21
79.504318
 39
0
 62
0
  0
LINE
  8
default
  6
CONTINUOUS
 10
88.093521
 20
76.366905
 11
88.193527
 21
76.266907
 39
0
 62
0
  0
LINE
  8
default
  6
CONTINUOUS
 10
94.928055
 20
74.208633
 11
95.028061
 21
74.108635
 39
0
 62
0
  0
LINE
  8
default
  6
CONTINUOUS
 10
83.417267
 20
70.431656
 11
83.517265
 21
70.331657
 39
0
 62
0
  0
LINE
  8
default
  6
CONTINUOUS
 10
88.273384
 20
70.431656
 11
88.373383
 21
70.331657
 39
0
 62
0
  0
LINE
  8
default
  6
CONTINUOUS
 10
82.877701
 20
63.417267
 11
82.977699
 21
63.317265
 39
0
 62
0
  0
LINE
  8
default
  6
CONTINUOUS
 10
94.748199
 20
64.316544
 11
94.848206
 21
64.216545
 39
0
 62
0
  0
LINE
  8
default
  6
CONTINUOUS
 10
88.093521
 20
63.776978
 11
88.193527
 21
63.676979
 39
0
 62
0
  0
LINE
  8
default
  6
CONTINUOUS
 10
98.345322
 20
69.892090
 11
98.445328
 21
69.792084
 39
0
 62
0
  0
LINE
  8
default
  6
CONTINUOUS
 10
99.064751
 20
79.064751
 11
99.164749
 21
78.964752
 39
0
 62
0
  0
LINE
  8
default
  6
CONTINUOUS
 10
95.647484
 20
61.079136
 11
95.747482
 21
60.979134
 39
0
 62
0
  0
LINE
  8
default
  6
CONTINUOUS
 10
92.769783
 20
79.064751
 11
92.869781
 21
78.964752
 39
0
 62
0
  0
LINE
  8
default
  6
CONTINUOUS
 10
85.935249
 20
67.014389
 11
86.035248
 21
66.914391
 39
0
 62
0
  0
LINE
  8
default
  6
CONTINUOUS
 10
81.079140
 20
66.115112
 11
81.179138
 21
66.015106
 39
0
 62
0
  0
LINE
  8
default
  6
CONTINUOUS
 10
80.539566
 20
74.028778
 11
80.639572
 21
73.928780
 39
0
 62
0
  0
LINE
  8
default
  6
CONTINUOUS
 10
91.151077
 20
66.834534
 11
91.251083
 21
66.734528
 39
0
 62
0
  0
LINE
  8
default
  6
CONTINUOUS
 10
92.949638
 20
71.690651
 11
93.049637
 21
71.590645
 39
0
 62
0
  0
LINE
  8
default
  6
CONTINUOUS
 10
84.496399
 20
74.388489
 11
84.596405
 21
74.288490
 39
0
 62
0
  0
LINE
  8
default
  6
CONTINUOUS
 10
97.446045
 20
66.654678
 11
97.546043
 21
66.554672
 39
0
 62
0
  0
LINE
  8
default
  6
CONTINUOUS
 10
85.755394
 20
61.079136
 11
85.855392
 21
60.979134
 39
0
 62
0
  0
LINE
  8
default
  6
CONTINUOUS
 10
98.345322
 20
75.287773
 11
98.445328
 21
75.187767
 39
0
 62
0
  0
LINE
  8
default
  6
CONTINUOUS
 10
91.151077
 20
75.467628
 11
91.251083
 21
75.367622
 39
0
 62
0
  0
LINE
  8
default
  6
CONTINUOUS
 10
85.935249
 20
79.604317
 11
86.035248
 21
79.504318
 39
0
 62
0
  0
LINE
  8
default
  6
CONTINUOUS
 10
8.093525
 20
96.366905
 11
8.193525
 21
96.266907
 39
0
 62
0
  0
LINE
  8
default
  6
CONTINUOUS
 10
14.928058
 20
94.208633
 11
15.028057
 21
94.108635
 39
0
 62
0
  0
LINE
  8
default
  6
CONTINUOUS
 10
3.417266
 20
90.431656
 11
3.517266
 21
90.331657
 39
0
 62
0
  0
LINE
  8
default
  6
CONTINUOUS
 10
8.273381
 20
90.431656
 11
8.373381
 21
90.331657
 39
0
 62
0
  0
LINE
  8
default
  6
CONTINUOUS
 10
2.877698
 20
83.417267
 11
2.977698
 21
83.317268
 39
0
 62
0
  0
LINE
  8
default
  6
CONTINUOUS
 10
14.748201
 20
84.316544
 11
14.848202
 21
84.216545
 39
0
 62
0
  0
LINE
  8
default
  6
CONTINUOUS
 10
8.093525
 20
83.776978
 11
8.193525
 21
83.676979
 39
0
 62
0
  0
LINE
  8
default
  6
CONTINUOUS
 10
18.345324
 20
89.892090
 11
18.445324
 21
89.792084
 39
0
 62
0
  0
LINE
  8
default
  6
CONTINUOUS
 10
19.064749
 20
99.064751
 11
19.164749
 21
98.964752
 39
0
 62
0
  0
LINE
  8
default
  6
CONTINUOUS
 10
15.647482
 20
81.079132
 11
15.747482
 21
80.979134
 39
0
 62
0
  0
LINE
  8
default
  6
CONTINUOUS
 10
12.769784
 20
99.064751
 11
12.869783
 21
98.964752
 39
0
 62
0
  0
LINE
  8
default
  6
CONTINUOUS
 10
5.935252
 20
87.014389
 11
6.035252
 21
86.914391
 39
0
 62
0
  0
LINE
  8
default
  6
CONTINUOUS
 10
1.079137
 20
86.115112
 11
1.179137
 21
86.015106
 39
0
 62
0
  0
LINE
  8
default
  6
CONTINUOUS
 10
0.539568
 20
94.028778
 11
0.639568
 21
93.928780
 39
0
 62
0
  0
LINE
  8
default
  6
CONTINUOUS
 10
11.151079
 20
86.834534
 11
11.251080
 21
86.734528
 39
0
 62
0
  0
LINE
  8
default
  6
CONTINUOUS
 10
12.949640
 20
91.690651
 11
13.049641
 21
91.590645
 39
0
 62
0
  0
LINE
  8
default
  6
CONTINUOUS
 10
4.496403
 20
94.388489
 11
4.596403
 21
94.288490
 39
0
 62
0
  0
LINE
  8
default
  6
CONTINUOUS
 10
17.446043
 20
86.654678
 11
17.546043
 21
86.554672
 39
0
 62
0
  0
LINE
  8
default
  6
CONTINUOUS
 10
5.755396
 20
81.079132
 11
5.855396
 21
80.979134
 39
0
 62
0
  0
LINE
  8
default
  6
CONTINUOUS
 10
18.345324
 20
95.287773
 11
18.445324
 21
95.187767
 39
0
 62
0
  0
LINE
  8
default
  6
CONTINUOUS
 10
11.151079
 20
95.467628
 11
11.251080
 21
95.367622
 39
0
 62
0
  0
LINE
  8
default
  6
CONTINUOUS
 10
5.935252
 20
99.604317
 11
6.035252
 21
99.504318
 39
0
 62
0
  0
LINE
  8
default
  6
CONTINUOUS
 10
28.093525
 20
96.366905
 11
28.193525
 21
96.266907
 39
0
 62
0
  0
LINE
  8
default
  6
CONTINUOUS
 10
34.928059
 20
94.208633
 11
35.028057
 21
94.108635
 39
0
 62
0
  0
LINE
  8
default
  6
CONTINUOUS
 10
23.417267
 20
90.431656
 11
23.517265
 21
90.331657
 39
0
 62
0
  0
LINE
  8
default
  6
CONTINUOUS
 10
28.273380
 20
90.431656
 11
28.373381
 21
90.331657
 39
0
 62
0
  0
LINE
  8
default
  6
CONTINUOUS
 10
22.877697
 20
83.417267
 11
22.977697
 21
83.317268
 39
0
 62
0
  0
LINE
  8
default
  6
CONTINUOUS
 10
34.748199
 20
84.316544
 11
34.848202
 21
84.216545
 39
0
 62
0
  0
LINE
  8
default
  6
CONTINUOUS
 10
28.093525
 20
83.776978
 11
28.193525
 21
83.676979
 39
0
 62
0
  0
LINE
  8
default
  6
CONTINUOUS
 10
38.345322
 20
89.892090
 11
38.445324
 21
89.792084
 39
0
 62
0
  0
LINE
  8
default
  6
CONTINUOUS
 10
39.064751
 20
99.064751
 11
39.164749
 21
98.964752
 39
0
 62
0
  0
LINE
  8
default
  6
CONTINUOUS
 10
35.647484
 20
81.079132
 11
35.747482
 21
80.979134
 39
0
 62
0
  0
LINE
  8
default
  6
CONTINUOUS
 10
32.769783
 20
99.064751
 11
32.869781
 21
98.964752
 39
0
 62
0
  0
LINE
  8
default
  6
CONTINUOUS
 10
25.935251
 20
87.014389
 11
26.035252
 21
86.914391
 39
0
 62
0
  0
LINE
  8
default
  6
CONTINUOUS
 10
21.079136
 20
86.115112
 11
21.179136
 21
86.015106
 39
0
 62
0
  0
LINE
  8
default
  6
CONTINUOUS
 10
20.539568
 20
94.028778
 11
20.639568
 21
93.928780
 39
0
 62
0
  0
LINE
  8
default
  6
CONTINUOUS
 10
31.151079
 20
86.834534
 11
31.251080
 21
86.734528
 39
0
 62
0
  0
LINE
  8
default
  6
CONTINUOUS
 10
32.949638
 20
91.690651
 11
33.049641
 21
91.590645
 39
0
 62
0
  0
LINE
  8
default
  6
CONTINUOUS
 10
24.496403
 20
94.388489
 11
24.596403
 21
94.288490
 39
0
 62
0
  0
LINE
  8
default
  6
CONTINUOUS
 10
37.446045
 20
86.654678
 11
37.546043
 21
86.554672
 39
0
 62
0
  0
LINE
  8
default
  6
CONTINUOUS
 10
25.755396
 20
81.079132
 11
25.855396
 21
80.979134
 39
0
 62
0
  0
LINE
  8
default
  6
CONTINUOUS
 10
38.345322
 20
95.287773
 11
38.445324
 21
95.187767
 39
0
 62
0
  0
LINE
  8
default
  6
CONTINUOUS
 10
31.151079
 20
95.467628
 11
31.251080
 21
95.367622
 39
0
 62
0
  0
LINE
  8
default
  6
CONTINUOUS
 10
25.935251
 20
99.604317
 11
26.035252
 21
99.504318
 39
0
 62
0
  0
LINE
  8
default
  6
CONTINUOUS
 10
48.093525
 20
96.366905
 11
48.193527
 21
96.266907
 39
0
 62
0
  0
LINE
  8
default
  6
CONTINUOUS
 10
54.928059
 20
94.208633
 11
55.028057
 21
94.108635
 39
0
 62
0
  0
LINE
  8
default
  6
CONTINUOUS
 10
43.417267
 20
90.431656
 11
43.517265
 21
90.331657
 39
0
 62
0
  0
LINE
  8
default
  6
CONTINUOUS
 10
48.273380
 20
90.431656
 11
48.373383
 21
90.331657
 39
0
 62
0
  0
LINE
  8
default
  6
CONTINUOUS
 10
42.877697
 20
83.417267
 11
42.977699
 21
83.317268
 39
0
 62
0
  0
LINE
  8
default
  6
CONTINUOUS
 10
54.748199
 20
84.316544
 11
54.848202
 21
84.216545
 39
0
 62
0
  0
LINE
  8
default
  6
CONTINUOUS
 10
48.093525
 20
83.776978
 11
48.193527
 21
83.676979
 39
0
 62
0
  0
LINE
  8
default
  6
CONTINUOUS
 10
58.345322
 20
89.892090
 11
58.445324
 21
89.792084
 39
0
 62
0
  0
LINE
  8
default
  6
CONTINUOUS
 10
59.064751
 20
99.064751
 11
59.164749
 21
98.964752
 39
0
 62
0
  0
LINE
  8
default
  6
CONTINUOUS
 10
55.647484
 20
81.079132
 11
55.747482
 21
80.979134
 39
0
 62
0
  0
LINE
  8
default
  6
CONTINUOUS
 10
52.769783
 20
99.064751
 11
52.869781
 21
98.964752
 39
0
 62
0
  0
LINE
  8
default
  6
CONTINUOUS
 10
45.935253
 20
87.014389
 11
46.035252
 21
86.914391
 39
0
 62
0
  0
LINE
  8
default
  6
CONTINUOUS
 10
41.079136
 20
86.115112
 11
41.179138
 21
86.015106
 39
0
 62
0
  0
LINE
  8
default
  6
CONTINUOUS
 10
40.539570
 20
94.028778
 11
40.639568
 21
93.928780
 39
0
 62
0
  0
LINE
  8
default
  6
CONTINUOUS
 10
51.151077
 20
86.834534
 11
51.251080
 21
86.734528
 39
0
 62
0
  0
LINE
  8
default
  6
CONTINUOUS
 10
52.949638
 20
91.690651
 11
53.049641
 21
91.590645
 39
0
 62
0
  0
LINE
  8
default
  6
CONTINUOUS
 10
44.496403
 20
94.388489
 11
44.596401
 21
94.288490
 39
0
 62
0
  0
LINE
  8
default
  6
CONTINUOUS
 10
57.446045
 20
86.654678
 11
57.546043
 21
86.554672
 39
0
 62
0
  0
LINE
  8
default
  6
CONTINUOUS
 10
45.755394
 20
81.079132
 11
45.855396
 21
80.979134
 39
0
 62
0
  0
LINE
  8
default
  6
CONTINUOUS
 10
58.345322
 20
95.287773
 11
58.445324
 21
95.187767
 39
0
 62
0
  0
LINE
  8
default
  6
CONTINUOUS
 10
51.151077
 20
95.467628
 11
51.251080
 21
95.367622
 39
0
 62
0
  0
LINE
  8
default
  6
CONTINUOUS
 10
45.935253
 20
99.604317
 11
46.035252
 21
99.504318
 39
0
 62
0
  0
LINE
  8
default
  6
CONTINUOUS
 10
68.093521
 20
96.366905
 11
68.193527
 21
96.266907
 39
0
 62
0
  0
LINE
  8
default
  6
CONTINUOUS
 10
74.928055
 20
94.208633
 11
75.028061
 21
94.108635
 39
0
 62
0
  0
LINE
  8
default
  6
CONTINUOUS
 10
63.417267
 20
90.431656
 11
63.517265
 21
90.331657
 39
0
 62
0
  0
LINE
  8
default
  6
CONTINUOUS
 10
68.273384
 20
90.431656
 11
68.373383
 21
90.331657
 39
0
 62
0
  0
LINE
  8
default
  6
CONTINUOUS
 10
62.877697
 20
83.417267
 11
62.977699
 21
83.317268
 39
0
 62
0
  0
LINE
  8
default
  6
CONTINUOUS
 10
74.748199
 20
84.316544
 11
74.848206
 21
84.216545
 39
0
 62
0
  0
LINE
  8
default
  6
CONTINUOUS
 10
68.093521
 20
83.776978
 11
68.193527
 21
83.676979
 39
0
 62
0
  0
LINE
  8
default
  6
CONTINUOUS
 10
78.345322
 20
89.892090
 11
78.445328
 21
89.792084
 39
0
 62
0
  0
LINE
  8
default
  6
CONTINUOUS
 10
79.064751
 20
99.064751
 11
79.164749
 21
98.964752
 39
0
 62
0
  0
LINE
  8
default
  6
CONTINUOUS
 10
75.647484
 20
81.079132
 11
75.747482
 21
80.979134
 39
0
 62
0
  0
LINE
  8
default
  6
CONTINUOUS
 10
72.769783
 20
99.064751
 11
72.869781
 21
98.964752
 39
0
 62
0
  0
LINE
  8
default
  6
CONTINUOUS
 10
65.935249
 20
87.014389
 11
66.035248
 21
86.914391
 39
0
 62
0
  0
LINE
  8
default
  6
CONTINUOUS
 10
61.079136
 20
86.115112
 11
61.179138
 21
86.015106
 39
0
 62
0
  0
LINE
  8
default
  6
CONTINUOUS
 10
60.539570
 20
94.028778
 11
60.639568
 21
93.928780
 39
0
 62
0
  0
LINE
  8
default
  6
CONTINUOUS
 10
71.151077
 20
86.834534
 11
71.251083
 21
86.734528
 39
0
 62
0
  0
LINE
  8
default
  6
CONTINUOUS
 10
72.949638
 20
91.690651
 11
73.049637
 21
91.590645
 39
0
 62
0
  0
LINE
  8
default
  6
CONTINUOUS
 10
64.496399
 20
94.388489
 11
64.596405
 21
94.288490
 39
0
 62
0
  0
LINE
  8
default
  6
CONTINUOUS
 10
77.446045
 20
86.654678
 11
77.546043
 21
86.554672
 39
0
 62
0
  0
LINE
  8
default
  6
CONTINUOUS
 10
65.755394
 20
81.079132
 11
65.855392
 21
80.979134
 39
0
 62
0
  0
LINE
  8
default
  6
CONTINUOUS
 10
78.345322
 20
95.287773
 11
78.445328
 21
95.187767
 39
0
 62
0
  0
LINE
  8
default
  6
CONTINUOUS
 10
71.151077
 20
95.467628
 11
71.251083
 21
95.367622
 39
0
 62
0
  0
LINE
  8
default
  6
CONTINUOUS
 10
65.935249
 20
99.604317
 11
66.035248
 21
99.504318
 39
0
 62
0
  0
LINE
  8
default
  6
CONTINUOUS
 10
88.093521
 20
96.366905
 11
88.193527
 21
96.266907
 39
0
 62
0
  0
LINE
  8
default
  6
CONTINUOUS
 10
94.928055
 20
94.208633
 11
95.028061
 21
94.108635
 39
0
 62
0
  0
LINE
  8
default
  6
CONTINUOUS
 10
83.417267
 20
90.431656
 11
83.517265
 21
90.331657
 39
0
 62
0
  0
LINE
  8
default
  6
CONTINUOUS
 10
88.273384
 20
90.431656
 11
88.373383
 21
90.331657
 39
0
 62
0
  0
LINE
  8
default
  6
CONTINUOUS
 10
82.877701
 20
83.417267
 11
82.977699
 21
83.317268
 39
0
 62
0
  0
LINE
  8
default
  6
CONTINUOUS
 10
94.748199
 20
84.316544
 11
94.848206
 21
84.216545
 39
0
 62
0
  0
LINE
  8
default
  6
CONTINUOUS
 10
88.093521
 20
83.776978
 11
88.193527
 21
83.676979
 39
0
 62
0
  0
LINE
  8
default
  6
CONTINUOUS
 10
98.345322
 20
89.892090
 11
98.445328
 21
89.792084
 39
0
 62
0
  0
LINE
  8
default
  6
CONTINUOUS
 10
99.064751
 20
99.064751
 11
99.164749
 21
98.964752
 39
0
 62
0
  0
LINE
  8
default
  6
CONTINUOUS
 10
95.647484
 20
81.079132
 11
95.747482
 21
80.979134
 39
0
 62
0
  0
LINE
  8
default
  6
CONTINUOUS
 10
92.769783
 20
99.064751
 11
92.869781
 21
98.964752
 39
0
 62
0
  0
LINE
  8
default
  6
CONTINUOUS
 10
85.935249
 20
87.014389
 11
86.035248
 21
86.914391
 39
0
 62
0
  0
LINE
  8
default
  6
CONTINUOUS
 10
81.079140
 20
86.115112
 11
81.179138
 21
86.015106
 39
0
 62
0
  0
LINE
  8
default
  6
CONTINUOUS
 10
80.539566
 20
94.028778
 11
80.639572
 21
93.928780
 39
0
 62
0
  0
LINE
  8
default
  6
CONTINUOUS
 10
91.151077
 20
86.834534
 11
91.251083
 21
86.734528
 39
0
 62
0
  0
LINE
  8
default
  6
CONTINUOUS
 10
92.949638
 20
91.690651
 11
93.049637
 21
91.590645
 39
0
 62
0
  0
LINE
  8
default
  6
CONTINUOUS
 10
84.496399
 20
94.388489
 11
84.596405
 21
94.288490
 39
0
 62
0
  0
LINE
  8
default
  6
CONTINUOUS
 10
97.446045
 20
86.654678
 11
97.546043
 21
86.554672
 39
0
 62
0
  0
LINE
  8
default
  6
CONTINUOUS
 10
85.755394
 20
81.079132
 11
85.855392
 21
80.979134
 39
0
 62
0
  0
LINE
  8
default
  6
CONTINUOUS
 10
98.345322
 20
95.287773
 11
98.445328
 21
95.187767
 39
0
 62
0
  0
LINE
  8
default
  6
CONTINUOUS
 10
91.151077
 20
95.467628
 11
91.251083
 21
95.367622
 39
0
 62
0
  0
LINE
  8
default
  6
CONTINUOUS
 10
85.935249
 20
99.604317
 11
86.035248
 21
99.504318
 39
0
 62
0
  0
ENDSEC
  0
EOF