<svg height="256" viewBox="0 0 72.248892 72.248892" width="256" xmlns="http://www.w3.org/2000/svg"><g fill-rule="evenodd"><g transform="matrix(.8335578 0 0 .85757476 .386245 1.272605)"><g transform="translate(9.031122 -2.257778)"><path d="m7.9022231 64.346671v-47.413336l4.5155559-4.515556 22.577779-.000001 6.773333 6.773334v45.155559z" fill="#fff" stroke="#000" stroke-linecap="square" stroke-width="2.257778"/><path d="m10.160001 62.088893v-42.897781l3.386666-3.386666h15.804446l4.515556 4.515555v41.768892z" fill="#00ff7f"/></g><path d="m30.308193 31.886502 8.351639-8.351637 6.495719 6.495718 6.495719-6.495718 8.351638 8.351637-6.495718 6.49572 6.495718 6.49572-8.35164 8.351637-6.495718-6.495719-6.495718 6.49572-8.351639-8.351638 6.495718-6.49572z" fill="#00ff7f" stroke="#000" stroke-linecap="square" stroke-width="1.693333"/></g><g transform="matrix(.8335578 0 0 .85757476 4.150222 5.145032)"><g transform="translate(9.031122 -2.257778)"><path d="m7.9022231 64.346671v-47.413336l4.5155559-4.515556 22.577779-.000001 6.773333 6.773334v45.155559z" fill="#fff" stroke="#000" stroke-linecap="square" stroke-width="2.257778"/><path d="m10.160001 62.088893v-42.897781l3.386666-3.386666h15.804446l4.515556 4.515555v41.768892z" fill="#00ff7f"/></g><path d="m30.308193 31.886502 8.351639-8.351637 6.495719 6.495718 6.495719-6.495718 8.351638 8.351637-6.495718 6.49572 6.495718 6.49572-8.35164 8.351637-6.495718-6.495719-6.495718 6.49572-8.351639-8.351638 6.495718-6.49572z" fill="#00ff7f" stroke="#000" stroke-linecap="square" stroke-width="1.693333"/></g><g transform="matrix(.8335578 0 0 .85757476 7.914198 9.017458)"><g transform="translate(9.031122 -2.257778)"><path d="m7.9022231 64.346671v-47.413336l4.5155559-4.515556 22.577779-.000001 6.773333 6.773334v45.155559z" fill="#fff" stroke="#000" stroke-linecap="square" stroke-width="2.257778"/><path d="m10.160001 62.088893v-42.897781l3.386666-3.386666h15.804446l4.515556 4.515555v41.768892z" fill="#00ff7f"/></g><path d="m30.308193 31.886502 8.351639-8.351637 6.495719 6.495718 6.495719-6.495718 8.351638 8.351637-6.495718 6.49572 6.495718 6.49572-8.35164 8.351637-6.495718-6.495719-6.495718 6.49572-8.351639-8.351638 6.495718-6.49572z" fill="#00ff7f" stroke="#000" stroke-linecap="square" stroke-width="1.693333"/></g></g></svg>
