<svg height="256" viewBox="0 0 72.248892 72.248892" width="256" xmlns="http://www.w3.org/2000/svg"><path d="m36.160316 24.865882a21.348189 10.961054 0 0 0 -21.897238 10.648663l-.0047.08872a21.348189 10.961054 0 0 0 20.872559 11.178218 21.348189 10.961054 0 0 0 21.813844-10.694222 21.348189 10.961054 0 0 0 -20.784465-11.221379zm-.04404.878938a19.64057 10.083719.32412132 0 1 19.121318 10.403414 19.64057 10.083719.32412132 0 1 -20.068634 9.754652 19.64057 10.083719.32412132 0 1 -19.202695-10.363678l.0041-.08186a19.64057 10.083719.32412132 0 1 20.145895-9.712528z" fill="#0f0" stroke-width="1.53163"/><path d="m125 121v5h-5v5h5v5h5v-5h5v-5h-5v-5z" stroke-width="1.320676" transform="scale(.28222223)"/><circle cx="40.012032" cy="31.630459" r=".014177" stroke="#000" stroke-width=".282222"/><path d="m36.554037 14.271228a22.567896 21.568602 0 0 0 -23.148315 20.953895l-.0048.174572a22.567896 21.568602 0 0 0 22.06492 21.995931 22.567896 21.568602 0 0 0 23.060157-21.043542 22.567896 21.568602 0 0 0 -21.971962-22.080856zm-.04655 1.729533a20.769616 19.835629 5.0766371 0 1 20.213783 20.471301 20.769616 19.835629 5.0766371 0 1 -21.215234 19.194706 20.769616 19.835629 5.0766371 0 1 -20.299822-20.393117l.0042-.161088a20.769616 19.835629 5.0766371 0 1 21.297054-19.111802z" stroke-width="2.20902"/><path d="m3.641993 35.50729h65.056969v1.511322h-65.056969z" fill="#0f0" stroke-width=".278985"/><path d="m35.172672 4.490128h1.64638v63.260918h-1.64638z" fill="#0f0" stroke-width=".301057"/><path d="m35.197613 4.614854h.698464v63.186081h-.698464z" stroke-width=".37401"/><rect height="63.009502" ry=".097765" stroke-width=".212914" width=".608586" x="36.497154" y="4.802058"/><rect height=".56799" ry=".043692" stroke-width=".222087" width="65.087502" x="3.633611" y="35.450623"/><rect height=".667771" ry=".051367" stroke-width=".240937" width="65.016945" x="3.633611" y="36.86528"/></svg>
