<svg height="256" viewBox="0 0 72.248892 72.248892" width="256" xmlns="http://www.w3.org/2000/svg"><path d="m129.13281 66.021484a62.499999 62.499999 0 0 0 -64.107419 60.718746l-.013672.50586a62.499999 62.499999 0 0 0 61.107421 63.73829 62.499999 62.499999 0 0 0 63.86328-60.97852 62.499999 62.499999 0 0 0 -60.84961-63.984376zm-.1289 5.011719a57.732794 57.26626 44.999608 0 1 55.98047 59.320317 57.732794 57.26626 44.999608 0 1 -58.75391 55.62109 57.732794 57.26626 44.999608 0 1 -56.218751-59.09375l.011719-.4668a57.732794 57.26626 44.999608 0 1 58.980472-55.380857z" stroke-width="6.257826" transform="scale(.28222223)"/><path d="m125 121v5h-5v5h5v5h5v-5h5v-5h-5v-5z" stroke-width="1.320676" transform="scale(.28222223)"/><g fill="#0f0"><path d="m12.616535 35.560883h21.251627v1.41118h-21.251627z" stroke-width=".281994"/><path d="m38.096825 35.557739h21.015907v1.412443h-21.015907z" stroke-width=".284241"/><path d="m35.277416 38.381901h1.412446v20.393665h-1.412446z" stroke-width=".459474"/><path d="m35.284924 15.24149h1.406283v18.908428h-1.406283z" stroke-width=".287415"/></g></svg>
