<svg fill="none" height="800" stroke="#000" stroke-linecap="round" stroke-linejoin="round" stroke-width="2" viewBox="0 0 24 24" width="800" xmlns="http://www.w3.org/2000/svg"><path d="m9.5957529 9.7157953v4.7846247m0-4.7846247h4.7888361m-4.7888361 0v-1.9935943c0-1.101037-.8933424-1.993593-1.99535-1.993593-1.1020068 0-1.9953487.892556-1.9953487 1.993593 0 1.1010393.8933419 1.9935943 1.9953487 1.9935943zm0 4.7846247h4.7888361m-4.7888361 0h-1.99535c-1.1020068 0-1.9953487.892495-1.9953487 1.993597 0 1.101101.8933419 1.993594 1.9953487 1.993594 1.1020076 0 1.99535-.892493 1.99535-1.993594zm4.7888361 0v-4.7846247m0 4.7846247v1.993597c0 1.101101.89328 1.993594 1.99535 1.993594 1.102074 0 1.99535-.892493 1.99535-1.993594 0-1.101102-.893276-1.993597-1.99535-1.993597zm0-4.7846247v-1.9935943c0-1.101037.89328-1.993593 1.99535-1.993593 1.102074 0 1.99535.892556 1.99535 1.993593 0 1.1010393-.893276 1.9935943-1.99535 1.9935943zm-10.3758142-8.7718133h15.9627952c1.76325 0 3.192558 1.428099 3.192558 3.18975v15.948755c0 1.7617-1.429308 3.189748-3.192558 3.189748h-15.9627952c-1.763202 0-3.19255859-1.428048-3.19255859-3.189748v-15.948755c0-1.761651 1.42935659-3.18975 3.19255859-3.18975z" stroke="#464455" stroke-linecap="round" stroke-linejoin="round" stroke-width="1.59559"/><g fill="#00ff7f" stroke="none"><path d="m3.7051593 22.444321c-.3624744-.046201-.8340124-.235813-1.1118688-.447094-.4563104-.346979-.7658693-.814651-.9077359-1.37138l-.044277-.173758v-8.34398-8.34398l.044277-.173758c.1418666-.556729.4514255-1.024401.9077359-1.371379.1618753-.123091.5540212-.317686.7482325-.371298.3753741-.103622-.1137519-.09808 8.648649-.09808 8.762401 0 8.273274-.0055 8.648648.09808.194212.05361.586358.248207.748232.371298.456311.346978.76587.81465.907737 1.371379l.04428.173758v8.34398 8.34398l-.04428.173758c-.251483.986897-1.052062 1.69837-2.048573 1.820562-.210514.02581-16.3381319.02378-16.5410567-.0021zm4.3682919-3.192737c.338568-.05218.7528377-.211468 1.0469103-.402544.6205596-.403213 1.0411445-1.010529 1.2231485-1.766203.03678-.152717.04147-.24528.04913-.969814l.0085-.800983h1.589058 1.589059l.0085.800983c.0077.724534.01235.817097.04913.969814.167009.693416.521785 1.243683 1.06463 1.651271.349263.26224.788189.450479 1.215257.521179.257367.04261.686161.04173.938316-.0019 1.157856-.200415 2.055982-1.086445 2.281645-2.250915.04921-.253921.04957-.763817.00072-1.012285-.116815-.594165-.388509-1.096565-.815378-1.50775-.395042-.380528-.811159-.602214-1.378536-.734415-.123843-.02886-.275523-.03564-.948403-.04243l-.800983-.0081v-1.589391-1.589391l.800983-.0081c.67288-.0068.82456-.01357.948403-.04243.380968-.08877.718343-.231801 1.022113-.433337.186478-.1237189.589073-.5247883.720649-.7179187.212941-.3125598.375099-.7048428.451245-1.0916223.04876-.247665.04835-.757889-.000813-1.011572-.225996-1.16619-1.121403-2.049577-2.281645-2.251019-.258915-.04495-.702374-.0453-.952008-.000744-.564031.100668-1.08063.365412-1.477004.756927-.403912.398961-.651475.842664-.789191 1.414458-.03678.152717-.04147.24528-.04913.9698143l-.0085.8009823h-1.589058-1.589059l-.0085-.8009826c-.0077-.724535-.01235-.817097-.04913-.969815-.06405-.265952-.135519-.460407-.255179-.694342-.3971487-.776418-1.1392059-1.321442-2.0110155-1.477043-.2496345-.04455-.6930933-.04421-.9520083.000747-1.1599188.201386-2.0557116 1.085155-2.2816449 2.251019-.049208.253921-.049571.763818-.00072 1.0122855.049724.2529156.1546293.5609412.2627322.7714431.3473163.6763068.9816006 1.2009114 1.7045514 1.4098034.333414.09634.4739928.108515 1.2536574.108601l.7223589.00009v1.590764 1.590764l-.8009826.008c-.7258113.0072-.8175852.01185-.9778872.04909-.536433.124615-.9734634.361317-1.3581642.735603-.4221762.410746-.69012.909234-.8062656 1.499991-.04885.248468-.048487.758364.00072 1.012285.1701456.877987.7114125 1.596555 1.5013794 1.993179.5362647.269246 1.1002281.352759 1.7284098.255947z"/><path d="m7.2992031 8.8651552c-.3260637-.085477-.6015429-.3080649-.7532214-.6086058-.2352228-.4660784-.152337-.9889324.2153325-1.3583414.2432685-.244419.4999317-.352752.835737-.352752.4669155 0 .850473.236463 1.0644096.65621.1129542.221618.1240551.315195.1244385 1.0489491l.000342.6535626-.6732186-.00108c-.5929323-.000954-.6899862-.00548-.8138187-.03794z"/><path d="m10.398034 12.108109v-1.592138h1.592138 1.592137v1.592138 1.592137h-1.592137-1.592138z"/><path d="m15.194393 8.2407871c.00033-.7513211.0088-.8171011.137557-1.0645321.133165-.25596.387546-.478618.653843-.572303.152625-.0537.484091-.07391.649349-.0396.317079.06583.658862.333596.80382.629756.04003.08178.08684.22075.105129.312104.119192.5953065-.270329 1.2063213-.866178 1.3587141-.138569.03544-.218147.039256-.81865.039256h-.66516z"/><path d="m16.078624 17.639654c-.322758-.08515-.604779-.315753-.757817-.619646-.117401-.233127-.12609-.30492-.126414-1.044577l-.0003-.663391h.673614c.62001 0 .685314.0032.820639.04057.594803.164146.974164.765902.855735 1.357395-.0894.446514-.435835.818411-.866986.930711-.144607.03766-.45376.03711-.598481-.0011z"/><path d="m7.2948156 17.639752c-.3035427-.081641-.6167613-.338406-.7534335-.617638-.1335699-.272894-.1623741-.574577-.081231-.850782.0891471-.303449.3261312-.592206.5963598-.726643.2547267-.126726.3019287-.132649 1.0570449-.132649h.6753213l-.0077.712531c-.00631.583859-.013316.728856-.038799.802937-.1409979.409888-.4584363.713772-.8497014.813418-.1467312.03737-.4568205.03676-.5978604-.0012z"/></g></svg>
