<?xml version="1.0" encoding="UTF-8" standalone="no"?>
<svg
   fill-rule="evenodd"
   height="9.0375mm"
   preserveAspectRatio="xMidYMid"
   stroke-linejoin="round"
   stroke-width="28.222"
   viewBox="0 0 7230 7230"
   width="9.0375mm"
   version="1.1"
   id="svg29"
   sodipodi:docname="dim_arc.svg"
   inkscape:version="1.3.2 (091e20e, 2023-11-25, custom)"
   xmlns:inkscape="http://www.inkscape.org/namespaces/inkscape"
   xmlns:sodipodi="http://sodipodi.sourceforge.net/DTD/sodipodi-0.dtd"
   xmlns="http://www.w3.org/2000/svg"
   xmlns:svg="http://www.w3.org/2000/svg">
  <defs
     id="defs29">
    <clipPath
       clipPathUnits="userSpaceOnUse"
       id="clipPath30">
      <g
         id="g31"
         style="stroke-width:28.222">
        <path
           d="M 0,0 H 7230 V 7230 H 0 Z"
           id="path30"
           style="stroke-width:28.222" />
      </g>
    </clipPath>
    <clipPath
       clipPathUnits="userSpaceOnUse"
       id="clipPath31">
      <g
         id="g32"
         style="stroke-width:28.222">
        <path
           d="M 0,0 H 7230 V 7230 H 0 Z"
           id="path31"
           style="stroke-width:28.222" />
      </g>
    </clipPath>
    <clipPath
       clipPathUnits="userSpaceOnUse"
       id="clipPath32">
      <g
         id="g33"
         style="stroke-width:28.222">
        <path
           d="M 0,0 H 7230 V 7230 H 0 Z"
           id="path32"
           style="stroke-width:28.222" />
      </g>
    </clipPath>
    <clipPath
       clipPathUnits="userSpaceOnUse"
       id="clipPath33">
      <g
         id="g34"
         style="stroke-width:28.222">
        <path
           d="M 0,0 H 7230 V 7230 H 0 Z"
           id="path33"
           style="stroke-width:28.222" />
      </g>
    </clipPath>
    <clipPath
       clipPathUnits="userSpaceOnUse"
       id="clipPath34">
      <g
         id="g35"
         style="stroke-width:28.222">
        <path
           d="M 0,0 H 7230 V 7230 H 0 Z"
           id="path34"
           style="stroke-width:28.222" />
      </g>
    </clipPath>
    <clipPath
       clipPathUnits="userSpaceOnUse"
       id="clipPath35">
      <g
         id="g36"
         style="stroke-width:28.222">
        <path
           d="M 0,0 H 7230 V 7230 H 0 Z"
           id="path35"
           style="stroke-width:28.222" />
      </g>
    </clipPath>
    <clipPath
       clipPathUnits="userSpaceOnUse"
       id="clipPath36">
      <g
         id="g37"
         style="stroke-width:28.222">
        <path
           d="M 0,0 H 7230 V 7230 H 0 Z"
           id="path36"
           style="stroke-width:28.222" />
      </g>
    </clipPath>
    <clipPath
       clipPathUnits="userSpaceOnUse"
       id="clipPath37">
      <g
         id="g38"
         style="stroke-width:28.222">
        <path
           d="M 0,0 H 7230 V 7230 H 0 Z"
           id="path37"
           style="stroke-width:28.222" />
      </g>
    </clipPath>
    <clipPath
       clipPathUnits="userSpaceOnUse"
       id="clipPath38">
      <g
         id="g39"
         style="stroke-width:28.222">
        <path
           d="M 0,0 H 7230 V 7230 H 0 Z"
           id="path38"
           style="stroke-width:28.222" />
      </g>
    </clipPath>
    <clipPath
       clipPathUnits="userSpaceOnUse"
       id="clipPath39">
      <g
         id="g40"
         style="stroke-width:28.222">
        <path
           d="M 0,0 H 7230 V 7230 H 0 Z"
           id="path39"
           style="stroke-width:28.222" />
      </g>
    </clipPath>
  </defs>
  <sodipodi:namedview
     id="namedview29"
     pagecolor="#ffffff"
     bordercolor="#000000"
     borderopacity="0.25"
     inkscape:showpageshadow="2"
     inkscape:pageopacity="0.0"
     inkscape:pagecheckerboard="0"
     inkscape:deskcolor="#d1d1d1"
     inkscape:document-units="mm"
     inkscape:zoom="18.048754"
     inkscape:cx="30.223692"
     inkscape:cy="20.084488"
     inkscape:window-width="2560"
     inkscape:window-height="1417"
     inkscape:window-x="-8"
     inkscape:window-y="-8"
     inkscape:window-maximized="1"
     inkscape:current-layer="svg29" />
  <g
     fill="none"
     id="g20"
     clip-path="url(#clipPath39)"
     transform="matrix(0.97341566,0,0,0.97427313,262.58499,-46.008033)"
     style="stroke-width:28.98">
    <path
       d="M 1650,2258 H 5050 V 5657 H 1650 Z"
       id="path2"
       style="stroke-width:28.98" />
    <path
       d="m 1757,2911 c 231,-232 519,-399 835,-483 316,-85 649,-85 966,0 316,84 605,251 837,483 231,231 398,520 483,836 86,317 86,650 2,966 -85,317 -251,605 -482,837"
       stroke="#000000"
       stroke-linejoin="round"
       stroke-width="217.694"
       id="path3" />
    <path
       d="M 922,611 H 6544 V 6537 H 922 Z"
       id="path4"
       style="stroke-width:28.98" />
    <path
       d="m 1010,1686 c 80,-85 164,-164 252,-239"
       stroke="#000000"
       stroke-linejoin="round"
       stroke-width="180.727"
       id="path5" />
    <path
       d="m 1537,1237 c 96,-66 195,-125 297,-179"
       stroke="#000000"
       stroke-linejoin="round"
       stroke-width="180.727"
       id="path6" />
    <path
       d="m 2149,912 c 94,-37 191,-70 290,-98 13,-3 26,-7 39,-10"
       stroke="#000000"
       stroke-linejoin="round"
       stroke-width="180.727"
       id="path7" />
    <path
       d="m 2817,733 c 114,-17 230,-28 345,-32"
       stroke="#000000"
       stroke-linejoin="round"
       stroke-width="180.727"
       id="path8" />
    <path
       d="m 3508,710 c 115,9 230,25 344,47"
       stroke="#000000"
       stroke-linejoin="round"
       stroke-width="180.727"
       id="path9" />
    <path
       d="m 4187,844 c 110,35 218,77 324,124"
       stroke="#000000"
       stroke-linejoin="round"
       stroke-width="180.727"
       id="path10" />
    <path
       d="m 4819,1127 c 99,59 195,123 288,193"
       stroke="#000000"
       stroke-linejoin="round"
       stroke-width="180.727"
       id="path11" />
    <path
       d="m 5373,1542 c 50,46 98,94 145,144 33,34 65,69 96,105"
       stroke="#000000"
       stroke-linejoin="round"
       stroke-width="180.727"
       id="path12" />
    <path
       d="m 5827,2064 c 66,95 128,193 184,294"
       stroke="#000000"
       stroke-linejoin="round"
       stroke-width="180.727"
       id="path13" />
    <path
       d="m 6165,2669 c 46,105 86,214 122,324"
       stroke="#000000"
       stroke-linejoin="round"
       stroke-width="180.727"
       id="path14" />
    <path
       d="m 6376,3328 c 24,113 43,228 55,342"
       stroke="#000000"
       stroke-linejoin="round"
       stroke-width="180.727"
       id="path15" />
    <path
       d="m 6454,4016 c 1,116 -3,231 -12,347"
       stroke="#000000"
       stroke-linejoin="round"
       stroke-width="180.727"
       id="path16" />
    <path
       d="m 6397,4706 c -15,78 -31,155 -51,232 -9,36 -18,71 -28,106"
       stroke="#000000"
       stroke-linejoin="round"
       stroke-width="180.727"
       id="path17" />
    <path
       d="m 6206,5372 c -43,108 -91,213 -144,315"
       stroke="#000000"
       stroke-linejoin="round"
       stroke-width="180.727"
       id="path18" />
    <path
       d="m 5887,5986 c -63,97 -132,191 -205,280"
       stroke="#000000"
       stroke-linejoin="round"
       stroke-width="180.727"
       id="path19" />
    <path
       d="M 368,1268 H 1708 V 2608 H 368 Z"
       id="path20"
       style="stroke-width:28.98" />
  </g>
  <path
     d="m 475,1375 1126,375 -751,751 z"
     fill="#00ff7f"
     id="path21"
     clip-path="url(#clipPath38)"
     transform="translate(174.1444,-165.85181)" />
  <path
     d="m 475,1375 1126,375 -751,751 z"
     fill="none"
     stroke="#000000"
     stroke-linejoin="round"
     stroke-width="212"
     id="path22"
     clip-path="url(#clipPath37)"
     transform="translate(174.1444,-165.85181)" />
  <path
     d="M 4792,5693 H 6182 V 6984 H 4792 Z"
     fill="none"
     id="path23"
     clip-path="url(#clipPath36)"
     transform="translate(174.1444,-165.85181)" />
  <path
     d="M 6074,6876 4898,6648 5551,5799 Z"
     fill="#00ff7f"
     id="path24"
     clip-path="url(#clipPath35)"
     transform="translate(174.1444,-165.85181)" />
  <path
     d="M 6074,6876 4898,6648 5551,5799 Z"
     fill="none"
     stroke="#000000"
     stroke-linejoin="round"
     stroke-width="212"
     id="path25"
     clip-path="url(#clipPath34)"
     transform="translate(174.1444,-165.85181)" />
  <path
     d="M 994,1994 H 2007 V 3007 H 994 Z"
     fill="none"
     id="path26"
     clip-path="url(#clipPath33)"
     transform="translate(174.1444,-165.85181)" />
  <path
     d="m 1100,2100 800,800"
     fill="none"
     stroke="#000000"
     stroke-linejoin="round"
     stroke-width="212"
     id="path27"
     clip-path="url(#clipPath32)"
     transform="translate(174.1444,-165.85181)" />
  <path
     d="M 4294,5294 H 5307 V 6307 H 4294 Z"
     fill="none"
     id="path28"
     clip-path="url(#clipPath31)"
     transform="translate(174.1444,-165.85181)" />
  <path
     d="m 4400,5400 800,800"
     fill="none"
     stroke="#000000"
     stroke-linejoin="round"
     stroke-width="212"
     id="path29"
     clip-path="url(#clipPath30)"
     transform="translate(174.1444,-165.85181)" />
</svg>
