<svg height="256" viewBox="0 0 72.248892 72.248892" width="256" xmlns="http://www.w3.org/2000/svg"><path d="m45.18112 36.124447h-3.896059l-1.614716-4.814521h-7.777304l-1.585088 4.814521h-3.110921l6.710701-20.220989h4.488615zm-6.488493-7.732862-2.947969-9.021672-2.947968 9.021672z" transform="matrix(.55198456 -.53439132 .52256342 .53976726 -23.0503 40.56225)"/><g stroke="#000" stroke-width="2.25778"><path d="m19.762541 51.851935 14.981447-14.574654" fill="none"/><path d="m34.975599 36.982333-10.021994 2.631924 7.066935 7.299593z" fill="#00ff7f" fill-rule="evenodd" stroke-linecap="round"/><path d="m12.544866 58.910277 2.955059-9.931515 7.066935 7.299592z" fill="#00ff7f" fill-rule="evenodd" stroke-linecap="round"/><path d="m44.382409 43.501772-14.009041-14.397213" fill="none"/><path d="m45.471261 26.962622 14.981447-14.574653" fill="none"/><path d="m60.684318 12.093021-10.021993 2.631923 7.066934 7.299593z" fill="#00ff7f" fill-rule="evenodd" stroke-linecap="round"/><path d="m38.253585 34.020964 2.95506-9.931515 7.066935 7.299592z" fill="#00ff7f" fill-rule="evenodd" stroke-linecap="round"/><path d="m70.091128 18.612459-14.00904-14.397212" fill="none"/><path d="m18.706733 68.425216-14.0090401-14.397212" fill="none"/></g><path d="m45.18112 36.124447h-3.896059l-1.614716-4.814521h-7.777304l-1.585088 4.814521h-3.110921l6.710701-20.220989h4.488615zm-6.488493-7.732862-2.947969-9.021672-2.947968 9.021672z" transform="matrix(.55198456 -.53439132 .52256342 .53976726 4.411694 13.975545)"/></svg>
