<svg height="256" viewBox="0 0 256 256" width="256" xmlns="http://www.w3.org/2000/svg"><path d="m32 204h200" fill="none" stroke="#000" stroke-dashoffset="8" stroke-width="8"/><path d="m24 184 160-160" fill="none" stroke="#000" stroke-dashoffset="8" stroke-width="8"/><path d="m162.09168 162.74629q5.04 0 8.48-4 3.12-3.6 3.68-8.88.24-2.24.24-3.92 0-18.08-18.72-17.92-5.44.08-8.4 6.88-2.24 5.2-2.24 11.52 0 8.16 6 12.64 4.96 3.68 10.96 3.68zm17.28 7.44q-.48-1.92-1.04-7.36-.16-1.12-.64-5.92-4.72 5.84-11.6 9.52-7.44 4-14.48 4-8.64 0-13.44-6.56-4.32-5.84-4.32-14.72 0-9.84 6.56-16.48 4.88-4.96 15.52-9.52 3.36-1.44 7.44-1.44 8.96 0 14.16 6.4.64-2.32 1.6-4.16.88.24 2 .24 4.8 0 11.84-2.96-4.8 3.76-4.8 19.04 0 2.56.16 7.68.24 5.12.24 7.68 0 5.52.96 8.24 1.6 4.56 6.08 6.08z" transform="matrix(1.0132811 0 0 .98689297 -40 8)"/><g stroke="#000" stroke-width="8"><path d="m157.20888 75.442462a200 200 0 0 1 46.03006 111.126368" fill="none" stroke-dashoffset="14.16" stroke-linejoin="round"/><path d="m204 196 17.99999-32h-36l18 32" fill="#00ff7f" fill-rule="evenodd" stroke-linecap="round"/><path d="m150.00001 69.999995 9.89949 35.355335 25.45583-25.455843z" fill="#00ff7f" fill-rule="evenodd" stroke-linecap="round"/></g></svg>
