<svg height="150pt" preserveAspectRatio="xMidYMid meet" viewBox="0 0 150 150" width="150pt" xmlns="http://www.w3.org/2000/svg"><path d="m630.09659 1497.0864c-19-7-3.95682-42.6671 34.04318-90.6671 34.51591-65.5807 47.86023-72.4193-20.13977-81.4193-141-17-257-76-364-184-369-372-131-1001 392-1038 54-4 111-1 150 6 69 14 218 69 231 86 6 7 10 6 14-2 6-17 33-17 33 0-1 16-65 87-79 87s-14-23 0-37-82-59-181-85c-232-61-510 64-623 280-52 99-71 173-71 277 0 290 221 536 511 568l41 5-12-37c-7-20-25.30114-43.1614-34.30114-44.1614-23.11818-16.3227-54.39281-41.497-65.4625-68.3011-12.04318-29.1614 17.76364-17.5375 56.76364-22.5375 23-3 150-8 282-11s252-8 268-11c16-4 27-2 27 4 0 25-69 123-115 164-122 108-196.19432 115.5375-236.91477 143.2579-75.37631 38.9124 24.90564-7.2022-133.3 57.3978-33 0-93.52728 40.0114-104.68864 34.4307zm232.74205-128.2159c105-50 205.16136-96.8705 258.16136-181.8705l38.742-50-106.742-3.4625c-54 4-166.97841 10.4409-258.97841 10.4409-93 0-154.23636 2.2796-154.23636 6.2796s-3.78523 21.742 15.21477 28.742c31 11 37 19 55 80 23 75 25.02159 99-19.97841 158-13 17-30.02159 35-30.02159 38 0 20 117.83864-46.1295 202.83864-86.1295z" transform="matrix(.1 0 0 -.1 0 154.5)"/><g stroke="#000"><g fill="none" stroke-width="2.25778" transform="matrix(2.6574802 0 0 2.6574802 -33.510341 35.949513)"><path d="m51.928892 12.417779h15.804446"/><path d="m59.831115 20.320001v-15.8044451"/></g><path d="m137.40696 54.565076c-8.64288-.606968-16.94813-.915548-30.1653-1.120792-14.189077-.220335-21.16895-.483938-21.712717-.820005-.357913-.221202-.07904-1.892683.433214-2.596542.237502-.32634.941846-.825316 1.565209-1.108833 4.309533-1.960061 4.890134-2.844705 7.429361-11.319916 1.399613-4.671504 1.836923-6.909395 1.842546-9.429042.0098-4.387714-1.580954-7.544985-7.188241-14.267046-.830677-.995821-1.448121-1.911225-1.372099-2.034231.247532-.400516 2.093966.02871 4.680263 1.087986 1.390764.569618 7.866174 3.654351 14.389804 6.854964 6.52363 3.200612 13.46117 6.599846 15.41675 7.553852 12.46711 6.081922 20.60554 11.987869 25.00394 18.145032.69392.971387 2.46116 3.335534 3.9272 5.25366l2.66553 3.487501-3.9272.149487c-8.31222.3164-10.4355.343198-12.98826.163925z" fill="#00ff7f" stroke-width="4.8" transform="scale(.75)"/><circle cx="23.706667" cy="16.933336" fill="#00ff7f" opacity=".98" r="6.773334" stroke-dashoffset="6" stroke-linejoin="bevel" stroke-width="4.59878" transform="matrix(1.4328957 0 0 1.1879681 41.030819 63.477974)"/></g></svg>
