<svg height="150pt" preserveAspectRatio="xMidYMid meet" viewBox="0 0 150 150" width="150pt" xmlns="http://www.w3.org/2000/svg"><path d="m630.09659 1497.0864c-19-7-3.95682-42.6671 34.04318-90.6671 34.51591-65.5807 47.86023-72.4193-20.13977-81.4193-141-17-257-76-364-184-369-372-131-1001 392-1038 54-4 111-1 150 6 69 14 218 69 231 86 6 7 10 6 14-2 6-17 33-17 33 0-1 16-65 87-79 87s-14-23 0-37-82-59-181-85c-232-61-510 64-623 280-52 99-71 173-71 277 0 290 221 536 511 568l41 5-12-37c-7-20-25.30114-43.1614-34.30114-44.1614-23.11818-16.3227-54.39281-41.497-65.4625-68.3011-12.04318-29.1614 17.76364-17.5375 56.76364-22.5375 23-3 150-8 282-11s252-8 268-11c16-4 27-2 27 4 0 25-69 123-115 164-122 108-196.19432 115.5375-236.91477 143.2579-75.37631 38.9124 24.90564-7.2022-133.3 57.3978-33 0-93.52728 40.0114-104.68864 34.4307zm232.74205-128.2159c105-50 205.16136-96.8705 258.16136-181.8705l38.742-50-106.742-3.4625c-54 4-166.97841 10.4409-258.97841 10.4409-93 0-154.23636 2.2796-154.23636 6.2796s-3.78523 21.742 15.21477 28.742c31 11 37 19 55 80 23 75 25.02159 99-19.97841 158-13 17-30.02159 35-30.02159 38 0 20 117.83864-46.1295 202.83864-86.1295z" transform="matrix(-.1 0 0 -.1 156.6304 154.5)"/><g stroke="#000"><g fill="none" stroke-width="2.25778" transform="matrix(-2.6574802 0 0 2.6574802 190.14074 35.949513)"><path d="m51.928892 12.417779h15.804446"/><path d="m59.831115 20.320001v-15.8044451"/></g><path d="m53.575183 40.923807c6.48216-.455226 12.711097-.686661 22.623975-.840594 10.641807-.165251 15.876712-.362954 16.284537-.615004.268435-.165901.05928-1.419512-.32491-1.947406-.178127-.244755-.706385-.618987-1.173907-.831625-3.23215-1.470046-3.6676-2.133529-5.572021-8.489937-1.049709-3.503628-1.377692-5.182046-1.381909-7.071782-.0073-3.290785 1.185715-5.658738 5.391181-10.700284.623007-.7468658 1.08609-1.4334188 1.029074-1.5256733-.185649-.300387-1.570475.021532-3.510197.8159895-1.043073.4272138-5.899631 2.7407628-10.792353 5.1412228-4.892723 2.400459-10.095878 4.949885-11.562563 5.665389-9.350332 4.561442-15.454155 8.990902-18.752955 13.608774-.52044.72854-1.84587 2.501651-2.9454 3.940245l-1.999147 2.615626 2.9454.112115c6.234165.2373 7.826625.257399 9.741195.122944z" fill="#00ff7f" stroke-width="3.6"/><circle cx="23.706667" cy="16.933336" fill="#00ff7f" opacity=".98" r="6.773334" stroke-dashoffset="6" stroke-linejoin="bevel" stroke-width="4.59878" transform="matrix(-1.4328957 0 0 1.1879681 115.59958 63.477974)"/></g></svg>
