<svg height="256" viewBox="0 0 256 256" width="256" xmlns="http://www.w3.org/2000/svg"><g stroke="#000" stroke-width="8"><path d="m200 172h-160" fill="none"/><circle cx="-196" cy="172.00002" fill="#00ff7f" opacity=".98" r="24" stroke-dashoffset="6" stroke-linejoin="bevel" transform="scale(-1 1)"/><path d="m168 100-24.07745.0947" fill="none"/></g><text font-family="Cordia New" font-size="121.511" letter-spacing="0" transform="scale(1.0132811 .98689297)" word-spacing="0" x="82.665955" y="139.2415"><tspan x="82.665955" y="139.2415">?</tspan></text><path d="m168 116c0-10.66667 0-21.33333 0-32l0 0c10.66667 5.33333 21.33333 10.66667 32 16l0 0c-10.66667 5.33333-21.33333 10.66667-32 16z" fill-rule="evenodd"/><path d="m72 84v32l0 0c-10.66667-5.33333-21.33333-10.66667-32-16l0 0c10.66667-5.33333 21.33333-10.66667 32-16z" fill-rule="evenodd"/><path d="m96 100-24.07745.0947" fill="none" stroke="#000" stroke-width="8"/><path d="m32 208v-168" fill="none" stroke="#000" stroke-width="16"/><g transform="translate(334.72803 -224.93724)"><g stroke="#000"><path d="m48 172h160" fill="none" stroke-width="8"/><circle cx="52" cy="172.00002" fill="#00ff7f" opacity=".98" r="24" stroke-dashoffset="6" stroke-linejoin="bevel" stroke-width="8"/><path d="m80 100 24.07745.0947" fill="none" stroke-width="8"/></g><text font-family="Cordia New" font-size="121.511" letter-spacing="0" transform="scale(1.0132811 .98689297)" word-spacing="0" x="92.96225" y="139.2415"><tspan x="92.96225" y="139.2415">?</tspan></text><path d="m80 116c0-10.66667 0-21.33333 0-32-.000002 0-.000003 0-.000005 0-10.666663 5.33333-21.333327 10.66667-31.99999 16-.000002 0-.000003 0-.000005 0 10.666667 5.33333 21.333333 10.66667 32 16z" fill-rule="evenodd"/><path d="m176 84v32l0 0c10.66667-5.33333 21.33333-10.66667 32-16l0 0c-10.66667-5.33333-21.33333-10.66667-32-16z" fill-rule="evenodd"/><path d="m152 100 24.07745.0947" fill="none" stroke="#000" stroke-width="8"/><path d="m216 208v-168" fill="none" stroke="#000" stroke-width="16"/></g></svg>
