<svg height="256" viewBox="0 0 256 256" width="256" xmlns="http://www.w3.org/2000/svg"><g stroke="#000" stroke-width="8" transform="translate(0 -8)"><path d="m48 180h160" fill="none"/><g fill="#00ff7f" stroke-dashoffset="6" stroke-linejoin="bevel"><circle cx="52" cy="180.00002" opacity=".98" r="24"/><circle cx="204" cy="180.00002" opacity=".98" r="24"/></g></g><path d="m151.86633 73.663851q0 5.814503-2.07661 10.383041-2.07661 4.509206-5.45851 8.009774-3.32258 3.381905-7.65379 6.348488-4.33121 2.966586-9.19641 5.755176v13.34962h-10.62036v-18.096158q3.85655-2.195271 8.30643-4.805864 4.50921-2.610594 7.35713-5.280518 3.44123-3.085247 5.33985-6.348488 1.89861-3.322573 1.89861-8.425096 0-6.704478-4.56854-9.96772-4.50921-3.322573-11.68834-3.322573-6.40782 0-12.16299 2.017277-5.69584 2.017276-9.01841 4.093884h-.59332v-12.103659q4.15322-1.601955 10.50171-2.84792 6.40782-1.305296 12.10366-1.305296 12.7563 0 20.11343 6.229824 7.41646 6.170493 7.41646 16.316208zm-23.43601 67.578759h-12.10366v-12.51898h12.10366z" transform="scale(1.0132811 .98689299)"/><path d="m80 132c0-10.66667 0-21.33333 0-32-.000002 0-.000003 0-.000005 0-10.666663 5.33333-21.333327 10.66667-31.99999 16-.000002 0-.000003 0-.000005 0 10.666667 5.33333 21.333333 10.66667 32 16z" fill-rule="evenodd"/><path d="m176 100v32l0 0c10.66667-5.33333 21.33333-10.66667 32-16l0 0c-10.66667-5.33333-21.33333-10.66667-32-16z" fill-rule="evenodd"/><g fill="none" stroke="#000" stroke-width="8"><path d="m80 116h24"/><path d="m152 116h24"/></g></svg>
