<svg height="256" viewBox="0 0 72.248892 72.248892" width="256" xmlns="http://www.w3.org/2000/svg"><path d="m10.160001 64.346671v-51.928892l4.515556-4.5155563h24.835557l6.773333 6.7733333v49.671115z" fill="#fff" fill-rule="evenodd" stroke="#000" stroke-linecap="square" stroke-width="2.257778"/><g transform="matrix(.65130273 0 0 .65125828 19.36983 12.4975)"><g fill="none" stroke="#000" stroke-linecap="square" stroke-width="3.466675"><path d="m32.406686 7.9004317h7.435525"/><path d="m51.370157 12.096229 5.695942 4.779427"/><path d="m39.842211 7.9004317q-.120704 18.2657923 11.527946 4.1957973"/><path d="m63.199991 27.499789 1.291166 7.322507"/><path d="m57.066099 16.875656q-11.833578 13.914824 6.133892 10.624133"/><path d="m62.360878 46.903615-3.717761 6.439304"/><path d="m64.491157 34.822296q-18.009391 3.052953-2.130279 12.081319"/><path d="m49.245448 61.228439-6.987108 2.54308"/><path d="m58.643117 53.342919q-15.758409-9.237428-9.397669 7.88552"/><path d="m29.990556 63.771519-6.987108-2.54308"/><path d="m42.25834 63.771519q-6.133892-17.205513-12.267784 0"/><path d="m13.60578 53.342919-3.717762-6.439304"/><path d="m23.003448 61.228439q6.36074-17.122948-9.397668-7.88552"/><path d="m7.7577393 34.822296 1.2911652-7.322507"/><path d="m9.888018 46.903615q15.879111-9.028366-2.1302787-12.081319"/><path d="m15.182797 16.875656 5.695941-4.779427"/><path d="m9.0489045 27.499789q17.9674705 3.290691 6.1338925-10.624133"/><path d="m20.878738 12.096229q11.648651 14.069995 11.527948-4.1957973"/><path d="m48.542227 36.124449a12.41778 12.41778 0 1 0 -24.835559 0 12.41778 12.41778 0 0 0 24.835559 0z"/></g><path d="m95.0612 217.52147c-7.305961-2.68596-8.132414-3.04978-8.025592-3.53302.06549-.29629.727061-2.53326 1.470146-4.97103 2.653181-8.70406 3.689664-14.75636 3.473246-20.28122-.14672-3.74557-.586377-5.83383-1.724954-8.19307-.831011-1.72195-3.165573-4.28066-4.7478-5.20366-6.366269-3.71381-16.271035-1.94785-31.034985 5.53336-2.574027 1.30431-4.768375 2.27746-4.876328 2.16254-.107953-.11491-2.146885-3.59361-4.53096-7.73044-3.996336-6.93441-4.29716-7.54826-3.853996-7.86425.264376-.1885 2.486877-1.65945 4.93889-3.26878 10.229873-6.71415 16.225417-12.72198 18.401141-18.43886 1.013472-2.66298 1.175206-5.87054.42118-8.35301-.67271-2.21475-2.62711-5.11542-4.512702-6.69764-4.93147-4.13803-13.162989-7.44234-24.689112-9.91074l-3.503658-.75033 1.144928-6.47362c.629711-3.56049 1.340685-7.57202 1.579943-8.91452l.435015-2.4409 1.386465.22454c7.635021 1.23649 17.882265 1.64656 22.60787.9047 5.231971-.82135 8.768809-2.28733 11.239894-4.658803 6.195788-5.946026 4.956659-15.375849-3.735363-28.42627-1.489208-2.235935-3.688887-5.318412-4.888176-6.849947-1.199286-1.531536-2.172938-2.905493-2.163667-3.053237.0093-.147744 3.072878-2.832316 6.80802-5.965717l6.791164-5.697092 3.047518 3.388187c5.969646 6.636975 12.260643 11.867546 17.306371 14.389168 7.990912 3.993489 14.788722 2.468092 19.218162-4.312456 3.22166-4.931709 4.98814-12.551609 5.66433-24.433779l.32485-5.70829h9.0354 9.03541l.16266 4.768101c.28967 8.491141 1.63318 16.350813 3.66036 21.413441 4.17866 10.435702 12.7004 13.25784 22.69259 7.515078 4.61868-2.654471 10.66009-7.904298 16.57062-14.399421l2.36213-2.595771 6.86618 5.759372c3.7764 3.167654 6.86619 5.829991 6.86619 5.916309 0 .08631-.46545.717678-1.03434 1.40303-3.71135 4.471189-8.05672 10.971588-10.17288 15.217981-2.5758 5.168755-3.55876 8.542577-3.56002 12.219089-.002 5.628057 2.44292 9.467361 7.59322 11.924127 4.50118 2.14712 8.31535 2.72132 16.5759 2.49543 4.89219-.13379 12.93779-.90613 14.50578-1.39249.33212-.10302.65818 1.34227 1.85524 8.22334.79877 4.59158 1.50582 8.62824 1.57121 8.97035.10847.5674-.0191.64933-1.4523.93304-9.87455 1.95467-18.93975 5.08078-23.74209 8.18739-7.57058 4.89738-9.75039 11.36926-6.28913 18.67245 2.74497 5.7918 10.55826 12.84609 21.55588 19.46187 1.60472.96534 1.67268 1.04751 1.31898 1.59485-.2051.31739-2.21968 3.78043-4.47684 7.69565-2.25717 3.91521-4.14496 7.16371-4.19509 7.21889-.0501.0552-2.24204-.99121-4.87088-2.32529-10.15894-5.15543-17.09109-7.36158-23.18055-7.37716-4.4538-.0114-7.54738 1.15018-10.20776 3.8328-2.84783 2.87165-4.06492 6.59506-4.08101 12.48496-.0158 5.79111 1.30813 12.66607 4.07985 21.18565.61548 1.89185 1.07907 3.4688 1.0302 3.50434-.28711.2088-16.90312 6.12535-16.9592 6.03875-.0376-.058-.59117-1.43514-1.23025-3.06032-1.77379-4.51081-5.41071-11.76379-7.4758-14.90871-4.36002-6.6399-8.27424-9.91072-13.07179-10.92313-9.10109-1.92059-17.56094 6.66921-25.17646 25.56321-.71461 1.77293-1.45437 3.24191-1.64393 3.2644-.18955.0225-4.009747-1.30656-8.48932-2.95342zm42.80091-42.43556c15.86827-3.54064 28.51044-14.03144 34.55364-28.6735 6.70151-16.23705 4.06244-34.94079-6.83926-48.471592-15.76413-19.565881-43.53545-23.811752-64.41703-9.848524-11.40481 7.626243-18.779941 19.450986-20.802527 33.353246-.616683 4.23878-.428076 11.55754.404593 15.69988 2.558117 12.72611 9.911737 23.70486 20.763884 30.99992 4.09099 2.75005 9.64428 5.19494 14.77554 6.50507 4.36191 1.11369 6.47042 1.31331 12.69296 1.20165 5.03736-.0904 6.34649-.20348 8.8682-.76615z" fill="#00ff7f" transform="scale(.28222224)"/></g></svg>
