<svg height="256" viewBox="0 0 72.248892 72.248892" width="256" xmlns="http://www.w3.org/2000/svg"><path d="m24.209625 24.693192 13.178932 12.781337" fill="none" stroke="#000" stroke-width="2.25778"/><path d="m39.745084 38.459639c.269542-.256244.489543-.481347.488891-.500229-.0021-.06179-15.498108-15.387849-15.541608-15.371192-.02331.0089-.264053.221133-.535006.471582l-.492645.455361.175001.166247c.09625.09144 3.598585 3.559599 7.782963 7.707031 4.184379 4.147432 7.613443 7.539956 7.620143 7.538941.0067-.001.232718-.211497.502261-.467741z" fill="#00ff7f"/><path d="m36.3189 35.574906c-.416966-.383211-.758119-.720751-.758119-.750089 0-.09601 22.414956-24.712417 22.48097-24.688901.03536.01259.406925.329016.825703.703158l.761419.680258-.253495.267393c-.13942.147066-5.205335 5.717332-11.257585 12.378369s-11.012345 12.109983-11.022432 12.108768c-.01008-.0012-.359495-.315744-.776461-.698956z" fill="#00ff7f"/><g stroke="#000" stroke-width="2.25778"><path d="m59.497452 12.152469-22.770921 24.658592" fill="none"/><ellipse cx="1.309186" cy="51.374969" fill="none" rx="34.99556" ry="16.933334" stroke-dashoffset="3.99627" stroke-linecap="round" transform="matrix(-.70710678 .70710678 .70710678 .70710678 0 0)"/><circle cx="-36.124435" cy="-36.530727" fill="#00ff7f" r="5.644445" stroke-dashoffset="8" stroke-linecap="square" transform="matrix(0 -1 -1 0 0 0)"/></g><path d="m126.38825 143.59088c-4.89293-1.05734-9.00543-4.28321-11.14338-8.74093-1.21039-2.52371-1.61781-4.27491-1.61236-6.93033.009-4.14833 1.58888-7.94368 4.56237-10.95687 2.90779-2.94661 6.20531-4.47282 10.23067-4.73513 12.00751-.78247 20.55941 11.87596 15.27506 22.61-1.85964 3.77748-5.53013 7.01777-9.31213 8.22072-2.01737.64166-6.20524.92043-8.00023.53254z" fill="#00ff7f" transform="scale(.28222223)"/></svg>
