<svg height="256" viewBox="0 0 256 256" width="256" xmlns="http://www.w3.org/2000/svg"><g fill="none" stroke="#000"><path d="m60 176v-96" stroke-width="8"/><path d="m80 196h96" stroke-width="8"/><path d="m80 60h96" stroke-width="8"/><path d="m196 176v-96" stroke-width="8"/></g><path d="m232 232-28-8.20101-28 8.20101 8.20101-28-8.20101-28 28 8.20101 28-8.20101-8.20101 28z" fill="#00ff7f" transform="matrix(0 1 -1 0 264 -8)"/><g fill="none" stroke="#000" stroke-width="2.257778" transform="matrix(-2.5054766 -2.5055159 2.5055159 -2.5054766 -81.42277 377.01823)"><path d="m2.2577797 64.346716 11.2888893-.000088"/><path d="m7.9022689 69.991117-.0000886-11.28889"/></g><path d="m232 232-28-8.20101-28 8.20101 8.20101-28-8.20101-28 28 8.20101 28-8.20101-8.20101 28z" fill="#00ff7f" transform="matrix(0 1 -1 0 400 -144)"/><g fill="none" stroke="#000" stroke-width="2.257778" transform="matrix(-2.5054766 -2.5055159 2.5055159 -2.5054766 54.57723 241.01823)"><path d="m2.2577797 64.346716 11.2888893-.000088"/><path d="m7.9022689 69.991117-.0000886-11.28889"/></g><path d="m-31.999996-31.999996-28-8.20101-28.000001 8.20101 8.201011-28-8.201011-28.000001 28 8.201011 28.000001-8.201011-8.20101 28z" fill="#00ff7f" transform="scale(-1)"/><g fill="none" stroke="#000" stroke-width="2.257778" transform="matrix(2.5055159 -2.5054766 2.5054766 2.5055159 -121.01823 -81.422768)"><path d="m2.2577797 64.346716 11.2888893-.000088"/><path d="m7.9022689 69.991117-.0000886-11.28889"/></g><path d="m-168-168-28-8.20101-28 8.20101 8.20101-28-8.20101-28 28 8.20101 28-8.20101-8.20101 28z" fill="#00ff7f" transform="scale(-1)"/><g fill="none" stroke="#000" stroke-width="2.257778" transform="matrix(2.5055159 -2.5054766 2.5054766 2.5055159 14.981768 54.577232)"><path d="m2.2577797 64.346716 11.2888893-.000088"/><path d="m7.9022689 69.991117-.0000886-11.28889"/></g></svg>
