<svg height="256" viewBox="0 0 72.248892 72.248892" width="256" xmlns="http://www.w3.org/2000/svg"><path d="m22.655227 45.15556h-2.319239v-1.475879q-.310058.21084-.843359.595312-.520899.372071-1.016992.595313-.582911.285254-1.339454.471289-.756543.198437-1.773535.198437-1.872754 0-3.175-1.240234-1.302246-1.240235-1.302246-3.162598 0-1.575098.669726-2.542481.682129-.979785 1.934766-1.53789 1.265039-.558106 3.038574-.756543 1.773536-.198438 3.80752-.297657v-.359668q0-.79375-.285254-1.314648-.272851-.520899-.79375-.818555-.496094-.285254-1.190625-.384472-.694531-.09922-1.451074-.09922-.917774 0-2.046387.248047-1.128613.235644-2.331641.694531h-.124023v-2.368848q.682129-.186035 1.971973-.409277 1.289843-.223242 2.54248-.223242 1.463477 0 2.542481.248046 1.091406.235645 1.885156.818555.781348.570508 1.190625 1.475879.409278.905371.409278 2.244825v9.400977zm-2.319239-3.410645v-3.857129q-1.066601.06201-2.517676.186035-1.438672.124023-2.282031.359668-1.00459.285254-1.624707.892969-.620117.595312-.620117 1.649512 0 1.190625.719336 1.79834.719336.595312 2.195215.595312 1.227832 0 2.244824-.471289 1.016992-.483691 1.885156-1.153418z"/><path d="m46.134517 38.12343q0 1.736329-.496094 3.125391-.483691 1.389063-1.314648 2.331641-.880567.979785-1.934766 1.475879-1.054199.483691-2.319238.483691-1.178223 0-2.05879-.285254-.880566-.272851-1.736328-.74414l-.148828.644922h-2.182813v-19.298048h2.331641v6.895703q.979785-.806152 2.083594-1.314648 1.103809-.520899 2.480469-.520899 2.455664 0 3.869531 1.885157 1.42627 1.885156 1.42627 5.320605zm-2.406055.06201q0-2.480469-.818554-3.75791-.818555-1.289844-2.6417-1.289844-1.016992 0-2.058789.446484-1.041797.434082-1.934766 1.128614v7.9375q.992188.446485 1.699121.620117.719336.173633 1.624708.173633 1.934765 0 3.026172-1.265039 1.103808-1.277441 1.103808-3.993555z"/><path d="m67.632738 44.287396q-1.165821.558105-2.22002.868164-1.041797.310058-2.22002.310058-1.500683 0-2.75332-.434082-1.252637-.446484-2.145606-1.339453-.905371-.892969-1.401465-2.257227-.496093-1.364258-.496093-3.187402 0-3.398243 1.860351-5.333008 1.872754-1.934766 4.936133-1.934766 1.190626 0 2.331641.334863 1.153418.334864 2.108399.818555v2.59209h-.124024q-1.066601-.830957-2.207617-1.277441-1.128613-.446485-2.207617-.446485-1.984375 0-3.137793 1.339453-1.141016 1.327051-1.141016 3.906739 0 2.505273 1.116211 3.857129 1.128613 1.339453 3.162598 1.339453.706933 0 1.438672-.186035.731738-.186035 1.314648-.483691.508496-.26045.954981-.545704.446484-.297656.706933-.508496h.124024z"/><g stroke="#000" stroke-width="2.257778"><circle cx="9.031111" cy="45.155567" fill="#00ff7f" opacity=".98" r="3.386667" stroke-dashoffset="6" stroke-linejoin="bevel"/><path d="m25.964446 54.18667.000001-38.382225" fill="none" stroke-dasharray="4.515556 2.257778 1.128889 2.257778"/><path d="m48.542225 54.18667.000002-38.382225" fill="none" stroke-dasharray="4.515556 2.257778 1.128889 2.257778"/><circle cx="31.608892" cy="45.155567" fill="#00ff7f" opacity=".98" r="3.386667" stroke-dashoffset="6" stroke-linejoin="bevel"/><circle cx="54.186672" cy="45.155567" fill="#00ff7f" opacity=".98" r="3.386667" stroke-dashoffset="6" stroke-linejoin="bevel"/></g></svg>
