<svg height="256" viewBox="0 0 72.248892 72.248892" width="256" xmlns="http://www.w3.org/2000/svg"><g fill-rule="evenodd" transform="translate(.00001 -2.257778)"><path d="m7.9022231 64.346671v-47.413336l4.5155559-4.515556 22.577779-.000001 6.773333 6.773334v45.155559z" fill="#fff" stroke="#000" stroke-linecap="square" stroke-width="2.257778"/><path d="m10.160001 62.088893v-42.897781l3.386666-3.386666h15.804446l4.515556 4.515555v41.768892z" fill="#00ff7f"/></g><path d="m40.640003 10.160001h23.706668l.000001 6.773334v45.155559l-19.191113-.000001" fill="none" stroke="#000" stroke-width="2.257778"/><path d="m20.320002 18.062223h38.382225v18.062223h-38.382225z" fill="#fff"/><path d="m50.800003 46.28444-20.320001-11.28889v6.773334h-11.28889v9.031112h11.28889v6.773334z" fill="#fff" fill-rule="evenodd" stroke="#000" stroke-width="2.257778"/><path d="m31.602483 24.381118q0 .903821-.319533 1.679829-.310403.766878-.876432 1.332907-.702972.702972-1.66157 1.059023-.958598.346921-2.419319.346921h-1.807641v5.066875h-1.807642v-13.593832h3.688319q1.223354 0 2.072398.209979.849044.200849 1.506368.639065.776008.520382 1.195965 1.29639.429087.776008.429087 1.962843zm-1.880678.04565q0-.702972-.246497-1.223354-.246496-.520384-.748619-.849046-.438216-.283014-1.004246-.401698-.556899-.127813-1.415073-.127813h-1.789382v5.432055h1.524627q1.09554 0 1.780253-.19172.684713-.200849 1.113799-.629936.429087-.438216.602548-.922079.18259-.483864.18259-1.086411z"/><path d="m45.479328 27.083451q0 1.853289-.812526 3.359658-.803396 1.506368-2.145433 2.337153-.93121.575158-2.081527.830784-1.141188.255627-3.012736.255627h-3.432694v-13.593832h3.396176q1.990231 0 3.158808.292145 1.177706.283014 1.990232.785137 1.387684.867303 2.163692 2.309764.776008 1.442462.776008 3.423564zm-1.889807-.02739q0-1.597663-.5569-2.693204-.5569-1.09554-1.66157-1.725476-.803396-.456475-1.707217-.629936-.903821-.18259-2.163692-.18259h-1.698088v10.4898h1.698088q1.305519 0 2.273246-.19172.976857-.191719 1.789383-.712101 1.013375-.648195 1.515497-1.707217.511253-1.059023.511253-2.647556z"/><path d="m55.972299 21.879634h-6.874516v3.834392h5.906789v1.606792h-5.906789v6.545855h-1.807642v-13.593832h8.682158z"/></svg>
