<?xml version="1.0" encoding="UTF-8" standalone="no"?>
<svg
   version="1.0"
   width="150.000000pt"
   height="150.000000pt"
   viewBox="0 0 150.000000 150.000000"
   preserveAspectRatio="xMidYMid meet"
   id="svg1"
   sodipodi:docname="fileopen.svg"
   inkscape:version="1.3.2 (091e20e, 2023-11-25, custom)"
   xmlns:inkscape="http://www.inkscape.org/namespaces/inkscape"
   xmlns:sodipodi="http://sodipodi.sourceforge.net/DTD/sodipodi-0.dtd"
   xmlns="http://www.w3.org/2000/svg"
   xmlns:svg="http://www.w3.org/2000/svg">
  <defs
     id="defs1" />
  <sodipodi:namedview
     id="namedview1"
     pagecolor="#ffffff"
     bordercolor="#000000"
     borderopacity="0.25"
     inkscape:showpageshadow="2"
     inkscape:pageopacity="0.0"
     inkscape:pagecheckerboard="0"
     inkscape:deskcolor="#d1d1d1"
     inkscape:document-units="pt"
     inkscape:zoom="8.7186268"
     inkscape:cx="103.16992"
     inkscape:cy="101.22007"
     inkscape:window-width="2560"
     inkscape:window-height="1417"
     inkscape:window-x="-8"
     inkscape:window-y="-8"
     inkscape:window-maximized="1"
     inkscape:current-layer="svg1" />
  <g
     transform="translate(0.000000,150.000000) scale(0.100000,-0.100000)"
     fill="#000000"
     stroke="none"
     id="g1"
     style="stroke:#000000;stroke-opacity:1">
    <path
       d="m 379,1173 -125,-4 -52,-52 -51,-52 14,-390 C 173,461 179.43011,280.9892 179.43011,279.9892 181.43011,273.9892 820,281 895,286 l 80,7 213,269 c 118,148 215.122,279.63498 217.2993,279.08273 2.3342,-0.59205 -86.581,-3.28127 -164.4283,-3.685 L 1068.4301,836.50342 1065,1055 l -175,-4 -175,-3 -58,66 c -57,65 -59,66 -105,64 -26,-1 -104,-4 -173,-5 z m 259,-103 52.39173,-52.7007 153.618,1.6496 c 183.49847,3.6247 199.75017,7.1928 183.49847,3.6247 3.5518,-8.0456 0.1845,-65.81611 0.4918,-96.5736 3.2509,-106.35545 14.9956,-78.44991 -90.32056,-85.53511 L 878.44308,838.23415 835.6861,792.63289 779,730 H 686 C 507,730 539.48409,730.39773 380.48409,548.39773 L 221.98921,340.94545 218.71087,425.24496 C 218.15178,452.24496 209,621 205,774 l -7,278 38,39 38,39 H 430 586 Z M 1268,733 C 1239,695 1156,590 1083,499 L 951,333 613,327 c -186,-3 -340,-4 -342,-1 -2,2 57,79 132,172 153,191 137,182 298,182 l 91.97841,7.74204 L 837,735 l 53.81508,60.08272 91.7656,-1.65261 C 1040.5807,794.43011 1138,797 1203,798 l 119,2 z"
       id="path1"
       sodipodi:nodetypes="cccccccccssccccccccccccccccsccccccccccccccccsccccccc"
       style="stroke:#000000;stroke-opacity:1" />
  </g>
  <path
     style="fill:#00ff7f;stroke:#000000;stroke-width:2.6"
     d="m 29.61399,152.9197 c -0.03274,-0.11151 -0.177215,-3.45093 -0.321056,-7.42092 -0.143841,-3.96999 -0.440769,-11.19627 -0.659839,-16.05839 -0.822971,-18.26532 -1.04003,-24.77385 -1.704016,-51.094893 l -0.46852,-18.572587 2.053099,-2.108678 c 1.129204,-1.159773 3.401065,-3.477291 5.048581,-5.15004 l 2.995482,-3.041363 h 20.803624 20.803623 l 3.56315,4.095702 c 1.959733,2.252636 5.096793,5.622153 6.971246,7.487816 l 3.408096,3.392115 14.24635,-0.196308 c 7.83549,-0.107969 16.32664,-0.261716 18.86922,-0.34166 2.54258,-0.07994 6.2023,-0.196173 8.1327,-0.258285 3.35333,-0.107896 3.51406,-0.09926 3.60457,0.193666 0.0521,0.168628 0.11502,5.27318 0.1398,11.343447 0.0427,10.459906 -0.0333,11.277878 -0.3143,11.706982 -0.5739,0.87646 -0.90197,0.716945 -7.25928,0.866004 -7.19154,0.16862 -11.36644,0.30958 -12.01145,0.405552 -0.53691,0.07989 -2.92823,2.560016 -10.04,10.412835 l -3.7092,4.095705 -11.209779,0.001 c -6.165381,8.1e-4 -12.049199,0.0742 -13.075152,0.16327 -3.693941,0.32059 -5.830691,0.85896 -8.068652,2.03297 -3.26161,1.711 -5.006142,3.45753 -13.601905,13.61745 -2.415314,2.85483 -4.994333,5.88403 -5.731154,6.73155 -0.736822,0.84753 -5.87118,7.47162 -11.409688,14.7202 -9.195111,12.03413 -10.110239,13.17916 -10.533018,13.17916 -0.254653,0 -0.489793,-0.0912 -0.522532,-0.20276 z"
     id="path2"
     transform="scale(0.75)"
     sodipodi:nodetypes="cssscsscccsscssssscssscccssscscc" />
</svg>
