<?xml version="1.0" encoding="UTF-8" standalone="no"?>
<svg
   version="1.1"
   width="149"
   height="149"
   id="svg3"
   sodipodi:docname="folderclosed.svg"
   inkscape:version="1.3.2 (091e20e, 2023-11-25, custom)"
   xmlns:inkscape="http://www.inkscape.org/namespaces/inkscape"
   xmlns:sodipodi="http://sodipodi.sourceforge.net/DTD/sodipodi-0.dtd"
   xmlns="http://www.w3.org/2000/svg"
   xmlns:svg="http://www.w3.org/2000/svg">
  <defs
     id="defs3" />
  <sodipodi:namedview
     id="namedview3"
     pagecolor="#ffffff"
     bordercolor="#000000"
     borderopacity="0.25"
     inkscape:showpageshadow="2"
     inkscape:pageopacity="0.0"
     inkscape:pagecheckerboard="0"
     inkscape:deskcolor="#d1d1d1"
     inkscape:zoom="11.702855"
     inkscape:cx="49.85963"
     inkscape:cy="76.177996"
     inkscape:window-width="2560"
     inkscape:window-height="1417"
     inkscape:window-x="-8"
     inkscape:window-y="-8"
     inkscape:window-maximized="1"
     inkscape:current-layer="svg3" />
  <path
     d="m 0,0 c 2.4161165,0.04618184 4.8115647,-0.01998356 7.2265625,-0.09643555 11.5183945,-0.0821727 11.5183945,-0.0821727 15.9040525,3.95703125 1.519407,2.0061314 3.038206,4.0127232 4.556397,6.0197754 5.633482,5.1195599 13.583049,3.8340199 20.78955,3.6032719 2.419115,-0.02307 4.837983,-0.03107 7.257187,-0.03861 1.495883,-0.01056 2.991739,-0.0335 4.487214,-0.07001 1.730573,-0.04029 3.462139,-0.0332 5.193099,-0.01639 1,1 1,1 1,8 l 23,1 c -4.340983,13.27339 -8.801628,26.493655 -13.513305,39.639679 -0.532554,1.489536 -1.061613,2.980327 -1.587158,4.472351 -0.74434,2.109599 -1.501747,4.214045 -2.262818,6.317657 l -1.321533,3.694824 c -1.315186,2.875489 -1.315186,2.875489 -4.315186,4.875489 -2.671039,0.385321 -5.27069,0.665152 -7.956298,0.869628 l -2.45485,0.207779 c -2.681339,0.224776 -5.36351,0.437097 -8.045883,0.649155 -1.864696,0.153396 -3.729334,0.307489 -5.593918,0.46225 -3.911075,0.32286 -7.822552,0.640065 -11.734451,0.952789 -5.007486,0.400359 -10.014124,0.81031 -15.020528,1.223963 -4.779264,0.394482 -9.5589152,0.784181 -14.3386028,1.173498 l -2.7563266,0.225697 c -2.5846832,0.210759 -5.1696154,0.418124 -7.7546597,0.624401 l -2.3005369,0.188827 c -4.025755,0.317261 -8.005917,0.484213 -12.043945,0.422013 -0.599862,-13.208047 -1.155375,-26.416906 -1.638489,-39.629776 -0.203044,-5.489625 -0.433822,-10.974575 -0.738587,-16.459488 -0.163228,-3.114654 -0.26402,-6.231282 -0.372924,-9.348236 l -0.230469,-3.211914 c -0.131989,-5.906518 1.114263,-9.402026 4.902344,-13.9912114 C -15.10291,-0.11405368 -8.3927661,-0.20076344 0,0 Z"
     fill="#7BFA00"
     transform="translate(40.585937,30.641357)"
     id="path1"
     style="fill:#00ff7f;fill-opacity:1"
     sodipodi:nodetypes="cccccccccccccccccccccccccccccccc" />
  <path
     d="m 40.585937,30.641357 c 6.378099,0.333433 13.008808,-1.039288 19.208259,0.811859 5.705913,2.755883 7.127726,10.599456 13.713563,12.034143 7.450345,2.028647 15.221978,0.113093 22.811927,0.599036 4.728174,-0.06183 12.627724,-1.868497 10.678364,5.601105 -1.17003,3.467215 2.6905,2.11209 4.7154,2.517432 C 117.80897,52.469955 123.90448,52.734977 130,53 c -6.0605,18.463688 -12.31677,36.880871 -19.12479,55.07755 -2.03984,5.14283 -8.23055,4.29263 -12.712965,4.86669 -25.048274,1.94873 -50.071043,4.28064 -75.13567,5.98705 -3.821974,0.52688 -7.401426,0.55812 -6.221777,-4.26521 -0.991015,-21.795682 -1.687415,-43.608693 -2.79358,-65.395568 -0.40824,-8.276775 5.696301,-15.96542 13.73615,-17.723682 4.182136,-1.100673 8.552046,-0.995273 12.838569,-0.905473 z M 21.037841,41.724121 C 17.967926,48.847772 19.91358,56.714723 19.701755,64.206172 20.280365,80.799999 20.482954,97.404186 20.999999,114 36.017078,114.26582 50.864284,111.59327 65.812871,110.58572 78.534659,109.3236 91.351146,108.93371 104,107 c -0.42908,-17.068302 -0.2916,-34.159026 -1.14238,-51.211294 -0.0223,-3.986071 -0.1932,-8.211123 -5.063618,-6.679798 -8.350962,-0.09472 -16.714837,0.522072 -25.053012,0.114461 -7.669583,-0.91421 -8.91988,-10.932782 -16.119145,-12.744007 -6.747521,-1.671969 -13.769708,-0.2307 -20.635369,-0.59714 -5.47337,0.006 -11.524173,1.134787 -14.948635,5.841899 z"
     fill="#050901"
     id="path2"
     style="stroke:#000000;stroke-opacity:1" />
  <path
     d="M0 0 C5.28 0 10.56 0 16 0 C13.46549511 8.84049146 10.41188308 17.47176887 7.3125 26.125 C6.79599521 27.57283508 6.27971748 29.02075119 5.76367188 30.46875 C4.51172814 33.98010364 3.25672486 37.49035427 2 41 C1.67 41 1.34 41 1 41 C0.05135075 36.22721102 -0.13171421 31.60534023 -0.09765625 26.7578125 C-0.0962413 25.98944061 -0.09482635 25.22106873 -0.09336853 24.42941284 C-0.08780683 21.99456761 -0.0752616 19.55981706 -0.0625 17.125 C-0.05748004 15.46614717 -0.05291801 13.80729288 -0.04882812 12.1484375 C-0.03870426 8.09889322 -0.0191217 4.04955159 0 0 Z "
     fill="#F4F4F4"
     transform="translate(107,57)"
     id="path3" />
</svg>
