<svg height="256" viewBox="0 0 72.248892 72.248892" width="256" xmlns="http://www.w3.org/2000/svg"><path d="m63.217782 21.44889h-56.4444487" fill="none" stroke="#000" stroke-width="2.25778"/><path d="m63.217782 53.057781h-56.4444487" fill="none" stroke="#000" stroke-width="2.25778"/><path d="m50.800003 9.0311117v56.4444483" fill="none" stroke="#000" stroke-width="2.25778"/><path d="m19.191112 9.0311117v56.4444483" fill="none" stroke="#000" stroke-width="2.25778"/><g fill="#00ff7f"><path d="m48.742224 37v-28.1641789h1.06137 1.06137v28.1641789 28.164181h-1.06137-1.06137z"/><path d="m35 37.082089v-28.1641785h1.06137 1.06137v28.1641785 28.164182h-1.06137-1.06137z"/><path d="m17.306668 37.082089v-28.1641782h1.06137 1.06137v28.1641782 28.164182h-1.06137-1.06137z"/><path d="m6.7537299 51.938631v-1.061369h28.1641791 28.164182v1.061369 1.061369h-28.164182-28.1641791z"/><path d="m6.8358209 35.938631v-1.061369h28.1641791 28.164182v1.061369 1.061369h-28.164182-28.1641791z"/><path d="m6.7537299 20.503075v-1.061369h28.1641791 28.164182v1.061369 1.061369h-28.164182-28.1641791z"/></g><path d="m34.995558 9.0311117v56.4444483" fill="none" stroke="#000" stroke-width="2.25778"/><path d="m63.217782 37.253336h-56.4444487" fill="none" stroke="#000" stroke-width="2.25778"/></svg>
