<svg height="256" viewBox="0 0 72.248892 72.248892" width="256" xmlns="http://www.w3.org/2000/svg"><path d="m22.785564 60.746505-.178215-58.0161598" fill="none" stroke="#000" stroke-width="2.25778"/><path d="m53.331876 71.176237-.178219-59.127939" fill="none" stroke="#000" stroke-width="2.25778"/><path d="m10.746017 43.362574 54.546988 18.98143" fill="none" stroke="#000" stroke-width="2.25778"/><path d="m10.646218 10.250929 54.546986 18.981431" fill="none" stroke="#000" stroke-width="2.25778"/><g fill="#00ff7f"><path d="m37.768195 50.612488-27.217398-9.471198.0034 1.11183.0034 1.11183 27.2174 9.47119 27.217403 9.4712-.0034-1.11183-.0034-1.111829z"/><path d="m37.804133 36.244532-27.217397-9.471197.0034 1.111831.0034 1.111828 27.217398 9.471199 27.217403 9.47119-.0034-1.111831-.0033-1.11183z"/><path d="m37.748269 17.710022-27.217397-9.4712005.0034 1.1118331.0034 1.1118294 27.217396 9.471198 27.217408 9.471191-.0034-1.111832-.0033-1.111828z"/><path d="m52.072067 11.651406-1.025716-.356836.08892 29.503162.08892 29.503169 1.025719.356839 1.025719.356839-.08896-29.50307-.08892-29.503166z"/><path d="m36.610191 6.3568395-1.025718-.3568394.08893 29.5031649.08892 29.50317 1.025718.356838 1.025685.356936-.08893-29.503155-.08893-29.5031649z"/><path d="m21.693263 2.3981135-1.025717-.3501288.08892 28.9484153.08893 28.948425 1.025717.350128 1.025719.350129-.08894-28.948366-.08893-28.9484187z"/></g><path d="m10.696119 26.806753 54.546988 18.981428" fill="none" stroke="#000" stroke-width="2.25778"/><path d="m38.058721 65.861436-.178215-59.1279393" fill="none" stroke="#000" stroke-width="2.25778"/></svg>
