<svg height="256" viewBox="0 0 72.248892 72.248892" width="256" xmlns="http://www.w3.org/2000/svg"><path d="m23.430784 52.333914a9.7080717 8.957571 0 0 1 5.485793 8.065996h-9.708071z" fill="#00ff7f" stroke="#000" stroke-dashoffset="8" stroke-linecap="square" stroke-width="2.33132"/><path d="m28.621956 39.80847 10.575004-20.180625.950071.497806.950069.497804-10.575004 20.180626-10.575005 20.180626-.95007-.497805-.95007-.497805z" fill="#00ff7f"/><path d="m43.206982 36.664697.05613-22.783442 1.072584.0026 1.072583.0026-.05613 22.783441-.05613 22.783443-1.072583-.0026-1.072584-.0026z" fill="#00ff7f"/><g stroke="#000"><path d="m4.607312 5.231345h62.682362v62.687038h-62.682362z" fill="none" opacity="0" stroke-linecap="square" stroke-width=".532929"/><path d="m43.358286 10.532114v41.535366" fill="none" stroke-width="1.97672"/><path d="m64.075498 60.417927h-54.1866707" fill="none" stroke-width="2.25778"/><path d="m43.546185 50.931501a9.7080717 8.957571 0 0 1 9.708071 8.957571h-9.708071z" fill="#00ff7f" stroke-dashoffset="8" stroke-linecap="square" stroke-width="2.33132"/><circle cx="43.617691" cy="16.606604" fill="#00ff7f" r="5.644445" stroke-dashoffset="8" stroke-linecap="square" stroke-width="2.25778"/></g></svg>
