<svg height="256" viewBox="0 0 72.248892 72.248892" width="256" xmlns="http://www.w3.org/2000/svg"><path d="m-43.460929 45.226125a8.7239323 8.3460073 0 0 1 6.767712-8.127362" fill="#00ff7f" stroke="#000" stroke-dashoffset="8" stroke-linecap="square" stroke-width="2.13322" transform="scale(-1 1)"/><path d="m40.874791 46.403606c.05018-.625859.0529-.894297.01286-1.280569-.195581-1.887984-1.372743-3.612387-3.134359-4.591468-.574475-.319284-.973503-.4758-1.818152-.713145-.282103-.07926-.516579-.14714-.521063-.150824-.0045-.0036.114143-.371024.263592-.816315l.271745-.809619.07909.0223c1.439341.405766 1.815627.546307 2.592096.968146.865394.470149 1.575056 1.025866 2.203543 1.725533 1.165245 1.297211 1.830999 2.859145 1.935631 4.541189.0142.228371-.0148 1.111198-.05363 1.632057l-.01403.188758-.932156-.0648-.932161-.06479z" fill="#00ff7f"/><g stroke="#000"><path d="m4.607312 5.231345h62.682362v62.687038h-62.682362z" fill="none" opacity="0" stroke-linecap="square" stroke-width=".532929"/><path d="m22.408982 60.152408 27.093336-46.927034" fill="none" stroke-width="2.25778"/><path d="m69.096181 47.201301h-64.9081144" fill="none" stroke-width="2.47107"/><circle cx="29.772261" cy="47.202435" fill="#00ff7f" r="5.644445" stroke-dashoffset="8" stroke-linecap="square" stroke-width="2.25778"/></g></svg>
