<svg height="80" viewBox="0 0 22.577779 22.577779" width="80" xmlns="http://www.w3.org/2000/svg"><g transform="matrix(.3125 0 0 .3125 1.064466 .355722)"><g stroke="#000" stroke-width="2.257778"><path d="m42.708182 15.230874s.691055-3.946196-2.764219-7.3286516c-1.31899-1.2911931-3.473294-2.1358229-5.528438-2.2549701-2.906413-.1684996-6.091459.6975901-8.292658 2.2549701-6.910547 6.2011666-3.657537 12.4464776-8.04116 16.9165186-2.76422 2.818711-8.3095631.198735-12.4642956-3.386701" fill="none" stroke-linecap="round"/><rect fill="#fff" height="47.413322" rx="6.004009" stroke-dashoffset="7.992534" width="33.866653" x="25.964447" y="16.933334"/><path d="m25.964447 34.995553h33.866669" fill="none"/><path d="m37.253339 34.995555v-18.062224" fill="none"/><path d="m48.542219 34.995555v-18.062224" fill="none"/></g><path d="m38.382773 25.936343v-7.83293h4.503009 4.503005v7.83293 7.832929h-4.503005-4.503009z" fill="#00ff7f"/></g></svg>
