<?xml version="1.0" encoding="UTF-8" standalone="no"?>
<svg
   height="256"
   viewBox="0 0 72.248892 72.248892"
   width="256"
   version="1.1"
   id="svg5"
   sodipodi:docname="not_visible_all.svg"
   inkscape:version="1.3.2 (091e20e, 2023-11-25, custom)"
   xmlns:inkscape="http://www.inkscape.org/namespaces/inkscape"
   xmlns:sodipodi="http://sodipodi.sourceforge.net/DTD/sodipodi-0.dtd"
   xmlns="http://www.w3.org/2000/svg"
   xmlns:svg="http://www.w3.org/2000/svg">
  <defs
     id="defs5" />
  <sodipodi:namedview
     id="namedview5"
     pagecolor="#ffffff"
     bordercolor="#000000"
     borderopacity="0.25"
     inkscape:showpageshadow="2"
     inkscape:pageopacity="0.0"
     inkscape:pagecheckerboard="0"
     inkscape:deskcolor="#d1d1d1"
     inkscape:zoom="0.85142838"
     inkscape:cx="492.1142"
     inkscape:cy="202.60072"
     inkscape:window-width="2560"
     inkscape:window-height="1417"
     inkscape:window-x="-8"
     inkscape:window-y="-8"
     inkscape:window-maximized="1"
     inkscape:current-layer="svg5" />
  <path
     style="fill:none;stroke:#000000;stroke-width:2.82222;stroke-linecap:round;stroke-linejoin:round;stroke-dasharray:none;paint-order:fill markers stroke"
     d="M 8.8566581,7.266585 10.66813,9.183302 62.634477,63.71821"
     id="path14"
     sodipodi:nodetypes="ccc" />
  <path
     style="fill:none;stroke:#000000;stroke-width:2.82222;stroke-linecap:round;stroke-linejoin:round;stroke-dasharray:none;paint-order:fill markers stroke"
     d="m 47.584603,41.700014 7.42704,-8.050293 0.09056,-1.820898 c 0,0 -5.426538,-6.114126 -8.51391,-8.721121 -1.29597,-1.094317 -2.669817,-2.119952 -4.166399,-2.875102 -1.775312,-0.895782 -3.687676,-1.504528 -5.615537,-1.916739 -1.366418,-0.292164 -2.772993,-0.338783 -4.166394,-0.383341 -1.147126,-0.03671 -2.305199,-0.07241 -3.441793,0.09585 -1.080556,0.159943 -3.170071,0.862527 -3.170071,0.862527"
     id="path15"
     sodipodi:nodetypes="cccsssssc" />
  <path
     style="fill:none;stroke:#000000;stroke-width:2.54;stroke-linecap:round;stroke-linejoin:round;stroke-dasharray:none;paint-order:fill markers stroke"
     d="m 30.556782,24.1619 v 0 c 0,0 3.168115,-0.0024 4.61927,0.575022 1.097369,0.436659 2.117161,1.183354 2.898345,2.108406 0.683961,0.809923 1.156331,1.834069 1.449173,2.875082 0.389133,1.383243 0.362299,4.312663 0.362299,4.312663"
     id="path16"
     sodipodi:nodetypes="ccaaac" />
  <path
     style="fill:none;stroke:#000000;stroke-width:2.82222;stroke-linecap:round;stroke-linejoin:round;stroke-dasharray:none;paint-order:fill markers stroke"
     d="m 17.061329,23.874388 -7.7893379,7.666953 v 2.395895 c 0,0 5.5423199,6.392904 8.7856349,9.008644 1.087171,0.876804 2.286669,1.608658 3.53237,2.204251 1.505184,0.719662 3.095919,1.257452 4.709845,1.62922 1.573499,0.36244 3.190947,0.517674 4.800393,0.575031 1.329027,0.04742 2.667348,-0.0032 3.985243,-0.191605 0.950904,-0.135264 2.80777,-0.670836 2.80777,-0.670836"
     id="path17"
     sodipodi:nodetypes="cccaaaaac" />
  <path
     style="fill:none;stroke:#000000;stroke-width:2.54;stroke-linecap:round;stroke-linejoin:round;stroke-dasharray:none;paint-order:fill markers stroke"
     d="m 24.216645,31.157985 c 0,0 -0.134775,2.168317 0.09056,3.25844 0.2253,1.090126 0.635769,2.233183 1.26802,3.162603 0.612249,0.900039 1.457866,1.630877 2.354924,2.20425 0.801518,0.512294 1.719843,0.806971 2.626616,1.054222 0.826909,0.225352 2.536075,0.38332 2.536075,0.38332"
     id="path18"
     sodipodi:nodetypes="czaaac" />
  <path
     style="fill:none;stroke:#000000;stroke-width:2.82222;stroke-linecap:round;stroke-linejoin:round;stroke-dasharray:none;paint-order:fill markers stroke"
     d="m 52.225171,47.334989 7.42704,-8.050293 0.09056,-1.820898 C 51.635476,28.076283 55.030774,31.434486 50.825698,27.162693"
     id="path2"
     sodipodi:nodetypes="cccc" />
  <path
     style="fill:none;stroke:#000000;stroke-width:2.82222;stroke-linecap:round;stroke-linejoin:round;stroke-dasharray:none;paint-order:fill markers stroke"
     d="m 16.564312,41.643893 c 0,0 3.777724,4.94301 6.133882,6.936962 1.059441,0.896576 2.286669,1.608658 3.53237,2.204251 1.505184,0.719662 3.095919,1.257452 4.709845,1.62922 1.573499,0.36244 3.190947,0.517674 4.800393,0.575031 1.329027,0.04742 2.667348,-0.0032 3.985243,-0.191605 0.950904,-0.135264 2.80777,-0.670836 2.80777,-0.670836"
     id="path3"
     sodipodi:nodetypes="caaaaac" />
  <path
     style="fill:none;stroke:#000000;stroke-width:2.82222;stroke-linecap:round;stroke-linejoin:round;stroke-dasharray:none;paint-order:fill markers stroke"
     d="m 57.492691,51.644088 7.42704,-8.050293 0.09056,-1.820898 c 0,0 -11.191501,-11.747471 -8.51391,-8.721121 2.900308,3.278077 1.350785,0.550603 -3.508752,-3.513653"
     id="path4"
     sodipodi:nodetypes="cccsc" />
  <path
     style="fill:none;stroke:#000000;stroke-width:2.82222;stroke-linecap:round;stroke-linejoin:round;stroke-dasharray:none;paint-order:fill markers stroke"
     d="m 19.14159,44.406949 c 0,0 5.605344,5.975646 8.824124,8.483005 1.094903,0.852906 2.286669,1.608658 3.53237,2.204251 1.505184,0.719662 3.095919,1.257452 4.709845,1.62922 1.573499,0.36244 3.190947,0.517674 4.800393,0.575031 1.329027,0.04742 2.667348,-0.0032 3.985243,-0.191605 0.950904,-0.135264 2.80777,-0.670836 2.80777,-0.670836"
     id="path5"
     sodipodi:nodetypes="caaaaac" />
</svg>
