<?xml version="1.0" encoding="UTF-8" standalone="no"?>
<svg
   height="256"
   viewBox="0 0 72.248892 72.248892"
   width="256"
   version="1.1"
   id="svg5"
   sodipodi:docname="not_visible.svg"
   inkscape:version="1.3.2 (091e20e, 2023-11-25, custom)"
   xmlns:inkscape="http://www.inkscape.org/namespaces/inkscape"
   xmlns:sodipodi="http://sodipodi.sourceforge.net/DTD/sodipodi-0.dtd"
   xmlns="http://www.w3.org/2000/svg"
   xmlns:svg="http://www.w3.org/2000/svg">
  <defs
     id="defs5" />
  <sodipodi:namedview
     id="namedview5"
     pagecolor="#ffffff"
     bordercolor="#000000"
     borderopacity="0.25"
     inkscape:showpageshadow="2"
     inkscape:pageopacity="0.0"
     inkscape:pagecheckerboard="0"
     inkscape:deskcolor="#d1d1d1"
     inkscape:zoom="0.30102539"
     inkscape:cx="-1337.0965"
     inkscape:cy="795.61395"
     inkscape:window-width="2560"
     inkscape:window-height="1417"
     inkscape:window-x="-8"
     inkscape:window-y="-8"
     inkscape:window-maximized="1"
     inkscape:current-layer="svg5" />
  <path
     style="fill:none;stroke:#000000;stroke-width:2.82222234;stroke-linecap:round;stroke-linejoin:round;paint-order:fill markers stroke;stroke-dasharray:none"
     d="M 8.5251888,6.935116 10.606462,9.1280544 62.221989,64.829217"
     id="path14" />
  <path
     style="fill:none;stroke:#000000;stroke-width:2.82222234;stroke-linecap:round;stroke-linejoin:round;paint-order:fill markers stroke;stroke-dasharray:none"
     d="m 53.021274,46.330813 8.533224,-9.210436 0.104045,-2.083311 c 0,0 -6.234766,-6.995245 -9.781972,-9.977939 -1.488991,-1.252021 -3.067459,-2.425462 -4.786942,-3.289439 -2.039727,-1.024874 -4.236919,-1.721348 -6.451915,-2.192963 -1.569933,-0.334269 -3.186003,-0.387606 -4.786937,-0.438586 -1.317979,-0.042 -2.648535,-0.08285 -3.954414,0.109665 -1.241494,0.182992 -3.642221,0.986827 -3.642221,0.986827"
     id="path15"
     sodipodi:nodetypes="cccsssssc" />
  <path
     style="fill:none;stroke:#000000;stroke-width:2.54000011;stroke-linecap:round;stroke-linejoin:round;paint-order:fill markers stroke;stroke-dasharray:none"
     d="m 33.45733,26.265248 v 0 c 0,0 3.639973,-0.0028 5.307263,0.657889 1.260812,0.499587 2.432491,1.35389 3.330025,2.412253 0.78583,0.926642 1.328555,2.09838 1.665013,3.289415 0.44709,1.582585 0.41626,4.93417 0.41626,4.93417"
     id="path16"
     sodipodi:nodetypes="ccaaac" />
  <path
     style="fill:none;stroke:#000000;stroke-width:2.82222234;stroke-linecap:round;stroke-linejoin:round;paint-order:fill markers stroke;stroke-dasharray:none"
     d="m 17.951864,25.936302 -8.9494828,8.771852 v 2.741172 c 0,0 6.3677938,7.314198 10.0941678,10.306898 1.249095,1.003162 2.627246,1.840484 4.058481,2.52191 1.729366,0.823374 3.557025,1.438665 5.41133,1.86401 1.807856,0.414672 3.666206,0.592277 5.515363,0.657899 1.526972,0.05425 3.064623,-0.0037 4.578805,-0.219217 1.092532,-0.154757 3.225959,-0.767512 3.225959,-0.767512"
     id="path17"
     sodipodi:nodetypes="cccaaaaac" />
  <path
     style="fill:none;stroke:#000000;stroke-width:2.54000011;stroke-linecap:round;stroke-linejoin:round;paint-order:fill markers stroke;stroke-dasharray:none"
     d="m 26.172892,34.269552 c 0,0 -0.154848,2.480797 0.104045,3.72802 0.258856,1.247227 0.730461,2.555012 1.456879,3.618372 0.703437,1.029746 1.675,1.865906 2.705666,2.521909 0.920896,0.586122 1.975997,0.923265 3.017825,1.206148 0.950068,0.257828 2.913798,0.438561 2.913798,0.438561"
     id="path18"
     sodipodi:nodetypes="czaaac" />
</svg>
