<svg height="256" viewBox="0 0 72.248892 72.248892" width="256" xmlns="http://www.w3.org/2000/svg"><g transform="translate(-1.768906 -14.964445)"><circle cx="36.124413" cy="36.124439" fill="#00ff7f" r="15.80444"/><path d="m8.7503404 37.253352a31.608891 31.608891 0 0 1 27.3741026-15.804446 31.608891 31.608891 0 0 1 27.374102 15.804444" fill="none" stroke="#000" stroke-dashoffset="15.2" stroke-width="4.51556"/><circle cx="36.124443" cy="36.124451" r="7.902218"/><path d="m8.7503404-34.99557a31.608891 31.608891 0 0 1 27.3741026-15.804446 31.608891 31.608891 0 0 1 27.374102 15.804444" fill="none" stroke="#000" stroke-dashoffset="15.2" stroke-width="4.51556" transform="scale(1 -1)"/><circle cx="41.768906" cy="29.351107" fill="#fff" r="3.386662"/><circle cx="36.124413" cy="36.124439" fill="none" r="15.80444" stroke="#000" stroke-dashoffset="15.2" stroke-width="2.25778"/></g><g stroke="#000" stroke-linecap="square"><path d="m55.017578 72.515358h43.916206v38.100006h-43.916206z" fill="none" opacity="0" stroke-width=".532929"/><path d="m36.654405 58.962902.000001-11.054304 8.907915-.000001-.000001-8.59779h11.453037v8.59779l8.907911.000001v11.054304l-8.907911-.000001v8.597795h-11.453036l-.000001-8.597795z" fill="#00ff7f" fill-rule="evenodd" stroke-width="1.69333"/></g></svg>
