<svg height="512pt" preserveAspectRatio="xMidYMid meet" viewBox="0 0 512 512" width="512pt" xmlns="http://www.w3.org/2000/svg"><g transform="matrix(-.1 0 0 -.1 512.37087 512)"><path d="m146 4465c-57-20-87-45-116-96l-25-44v-1765-1765l25-45c28-49 74-85 130-100 25-7 846-9 2422-8l2385 3 49 30c31 20 58 47 74 75l25 45 3 1210c2 902 13.3429 1192.8316 4.3429 1226.8316-11 41-75.3429 123.1684-601.3429 649.1684-496 496-582 577-617 587-31 9-517 12-1880 12-1553-1-1845-3-1878-15zm3626.3248-870c-1.2899-474.1302 2.1502-470.6134.5409-569.4496 93.6429-2.1974-7.3194.8992 462.1343-10.3907l631.02-10.5705 9.7638-983.063 1.4389-1094.90458-2306.7395-16.77314-2348.85748 2.09665 5.38657 1654.82797c-1 817-2.09665 2000.4841-22.15971 1657.3448 216.94475 5.8504 544.95414-2.6765 1817.95412-4.6765l1744.8778 9.5799zm617.765 147.2738 486.8187-542.3925-656.2857 7.7107-304.6227-1.4388-4.9128 411.5246c-1.1221 93.9933-13.1316 249.1981-9.8161 491.6953 3.5907 262.6173 354.3072-247.896 488.8186-367.0993z"/><path d="m2475 3606c-40-18-79-56-100-97-10-19-162-416-338-884-307-815-320-853-321-922-1-64 2-76 29-114 45-64 104-91 186-87 124 7 163 54 255 310l39 108h335 335l39-108c92-256 131-303 255-310 82-4 141 23 186 87 27 38 30 50 29 114-1 69-13 106-322 925-177 469-331 870-343 892-36 63-89 94-168 97-41 2-77-2-96-11zm173-1029c45-122 82-225 82-229 0-5-76-8-170-8-93 0-170 3-170 8 0 13 165 452 170 452 3 0 42-100 88-223z"/></g><g fill="#00ff7f" transform="scale(.75)"><path d="m323.02266 369.9936c-2.25852-.14172-3.21485-.43061-3.21485-.97112 0-1.01995 12.74725-35.84664 17.88993-48.87699l4.0593-10.28531.82315 1.89874c2.88455 6.65371 20.31402 53.26882 21.11226 56.46473l.36243 1.45105-5.15674.36604c-5.1558.36596-29.80843.33357-35.87548-.0471z"/><path d="m34.105378 255.57676c0-.47714 61.999429-69.48382 67.371582-74.98599 2.10168-2.15255 8.72022-9.57466 14.70785-16.49358 24.61214-28.44019 33.27019-36.81848 39.88991-38.60098 2.63523-.7096 3.98512-.10137 5.36093 2.41553.86099 1.57508 1.00658 3.79565 1.1628 17.735.0982 8.76396-.0965 22.7276-.43278 31.0303-.33624 8.3027-.77103 29.20751-.9662 46.45511l-.35484 31.35929-47.29537.37413c-26.012454.20577-54.528785.53816-63.369626.73862-8.840841.20048-16.074256.18813-16.074256-.0274z"/></g></svg>
