<svg height="256" viewBox="0 0 72.248892 72.248892" width="256" xmlns="http://www.w3.org/2000/svg"><g fill-rule="evenodd"><g transform="matrix(.56472818 -.00065733 .0216064 .48350741 23.654183 40.42577)"><path d="m7.9022231 64.346671v-47.413336l4.5155559-4.515556 22.577779-.000001 6.773333 6.773334v45.155559z" fill="#fff" stroke="#000" stroke-linecap="square" stroke-width="2.25778"/><path d="m10.160001 62.088893v-42.897781l3.386666-3.386666h15.804446l4.515556 4.515555v41.768892z" fill="#00ff7f"/></g><g transform="matrix(.56472818 -.00065733 .0216064 .48350741 22.296512 -3.380528)"><path d="m7.9022231 64.346671v-47.413336l4.5155559-4.515556 22.577779-.000001 6.773333 6.773334v45.155559z" fill="#fff" stroke="#000" stroke-linecap="square" stroke-width="2.25778"/><path d="m10.160001 62.088893v-42.897781l3.386666-3.386666h15.804446l4.515556 4.515555v41.768892z" fill="#00ff7f"/></g><g transform="matrix(.53188418 -.00065824 .02034979 .48417417 46.522102 -3.296528)"><path d="m7.9022231 64.346671v-47.413336l4.5155559-4.515556 22.577779-.000001 6.773333 6.773334v45.155559z" fill="#fff" stroke="#000" stroke-linecap="square" stroke-width="2.25778"/><path d="m10.160001 62.088893v-42.897781l3.386666-3.386666h15.804446l4.515556 4.515555v41.768892z" fill="#00ff7f"/></g><path d="m7.9022231 64.346671v-47.413336l4.5155559-4.515556 22.577779-.000001 6.773333 6.773334v45.155559z" fill="#fff" stroke="#000" stroke-linecap="square" stroke-width="2.25778"/><path d="m10.160001 62.088893v-42.897781l3.386666-3.386666h15.804446l4.515556 4.515555v41.768892z" fill="#00ff7f"/></g><g fill="none" stroke="#000" stroke-width="9.03111" transform="translate(-9.031112)"><path d="m36.124447 38.382225h27.093335"/><path d="m49.671114 24.835558.000001 27.093335"/></g><g fill-rule="evenodd" transform="matrix(.53598806 -.00065812 .02050681 .4840897 47.358598 40.100189)"><path d="m7.9022231 64.346671v-47.413336l4.5155559-4.515556 22.577779-.000001 6.773333 6.773334v45.155559z" fill="#fff" stroke="#000" stroke-linecap="square" stroke-width="2.25778"/><path d="m10.160001 62.088893v-42.897781l3.386666-3.386666h15.804446l4.515556 4.515555v41.768892z" fill="#00ff7f"/></g></svg>
