<svg height="256" viewBox="0 0 72.248892 72.248892" width="256" xmlns="http://www.w3.org/2000/svg"><g fill-rule="evenodd" stroke-width="1.73146" transform="matrix(.59492389 0 0 .56068236 18.949489 -.905431)"><path d="m7.9022231 64.346671v-47.413336l4.5155559-4.515556 22.577779-.000001 6.773333 6.773334v45.155559z" fill="#fff" stroke="#000" stroke-linecap="square" stroke-width="3.90925"/><path d="m10.160001 62.088893v-42.897781l3.386666-3.386666h15.804446l4.515556 4.515555v41.768892z" fill="#00ff7f"/></g><g fill-rule="evenodd" stroke-width="1.73146" transform="matrix(.59492389 0 0 .56068236 5.517429 1.626362)"><path d="m7.9022231 64.346671v-47.413336l4.5155559-4.515556 22.577779-.000001 6.773333 6.773334v45.155559z" fill="#fff" stroke="#000" stroke-linecap="square" stroke-width="3.90925"/><path d="m10.160001 62.088893v-42.897781l3.386666-3.386666h15.804446l4.515556 4.515555v41.768892z" fill="#00ff7f"/></g><g stroke="#000"><g fill="none" stroke-width="9.03111" transform="translate(5.328885 13.071107)"><path d="m36.124447 38.382225h27.093335"/><path d="m49.671114 24.835558.000001 27.093335"/></g><circle cx="25.317496" cy="50.276754" fill="#00ff7f" opacity=".98" r="6.773334" stroke-dashoffset="6" stroke-linejoin="bevel" stroke-width="2.25778"/></g></svg>
