<svg height="256" viewBox="0 0 72.248892 72.248892" width="256" xmlns="http://www.w3.org/2000/svg"><g fill-rule="evenodd" transform="matrix(.44316841566 -.02316664962 .03594054897 .37039933367 22.89820226641 -1.24865836599)"><path d="m7.9022231 64.346671v-47.413336l4.5155559-4.515556 22.577779-.000001 6.773333 6.773334v45.155559z" fill="#fff" stroke="#000" stroke-linecap="square" stroke-width="2.25778"/><path d="m10.160001 62.088893v-42.897781l3.386666-3.386666h15.804446l4.515556 4.515555v41.768892z" fill="#00ff7f"/></g><g fill-rule="evenodd" transform="matrix(.44316841566 -.02316664962 .03594054897 .37039933367 45.63807495081 -2.77609821107)"><path d="m7.9022231 64.346671v-47.413336l4.5155559-4.515556 22.577779-.000001 6.773333 6.773334v45.155559z" fill="#fff" stroke="#000" stroke-linecap="square" stroke-width="2.25778"/><path d="m10.160001 62.088893v-42.897781l3.386666-3.386666h15.804446l4.515556 4.515555v41.768892z" fill="#00ff7f"/></g><g fill-rule="evenodd" transform="matrix(.44316841566 -.02316664962 .03594054897 .37039933367 25.77969137101 22.9114291379)"><path d="m7.9022231 64.346671v-47.413336l4.5155559-4.515556 22.577779-.000001 6.773333 6.773334v45.155559z" fill="#fff" stroke="#000" stroke-linecap="square" stroke-width="2.25778"/><path d="m10.160001 62.088893v-42.897781l3.386666-3.386666h15.804446l4.515556 4.515555v41.768892z" fill="#00ff7f"/></g><g fill-rule="evenodd" transform="matrix(.44320501606 -.02269455573 .03534926791 .37043729739 48.14004285938 21.29269682909)"><path d="m7.9022231 64.346671v-47.413336l4.5155559-4.515556 22.577779-.000001 6.773333 6.773334v45.155559z" fill="#fff" stroke="#000" stroke-linecap="square" stroke-width="2.25778"/><path d="m13.614135 62.300507v-42.897781l3.386666-3.386666h15.804446l4.515556 4.515555v41.768892z" fill="#00ff7f"/></g><g fill-rule="evenodd" transform="matrix(.44316841566 -.02316664962 .03594054897 .37039933367 28.97565164696 46.63249060803)"><path d="m7.9022231 64.346671v-47.413336l4.5155559-4.515556 22.577779-.000001 6.773333 6.773334v45.155559z" fill="#fff" stroke="#000" stroke-linecap="square" stroke-width="2.25778"/><path d="m10.160001 62.088893v-42.897781l3.386666-3.386666h15.804446l4.515556 4.515555v41.768892z" fill="#00ff7f"/></g><g fill-rule="evenodd" transform="matrix(.44320501606 -.02269455573 .03534926791 .37043729739 51.33599713034 45.01375829922)"><path d="m7.9022231 64.346671v-47.413336l4.5155559-4.515556 22.577779-.000001 6.773333 6.773334v45.155559z" fill="#fff" stroke="#000" stroke-linecap="square" stroke-width="2.25778"/><path d="m13.614135 62.300507v-42.897781l3.386666-3.386666h15.804446l4.515556 4.515555v41.768892z" fill="#00ff7f"/></g><g fill-rule="evenodd" transform="translate(-7.240053 -2.918764)"><path d="m7.9022231 64.346671v-47.413336l4.5155559-4.515556 22.577779-.000001 6.773333 6.773334v45.155559z" fill="#fff" stroke="#000" stroke-linecap="square" stroke-width="2.25778"/><path d="m10.160001 62.088893v-42.897781l3.386666-3.386666h15.804446l4.515556 4.515555v41.768892z" fill="#00ff7f"/></g><g fill="none" stroke="#000" stroke-width="9.03111" transform="translate(-16.271165 -2.918764)"><path d="m36.124447 38.382225h27.093335"/><path d="m49.671114 24.835558.000001 27.093335"/></g><g fill-rule="evenodd"><g transform="matrix(.51117826789 -.00049853513 .01955759489 .36670332425 -95.51900912725 76.98977159943)"><path d="m7.9022231 64.346671v-47.413336l4.5155559-4.515556 22.577779-.000001 6.773333 6.773334v45.155559z" fill="#fff" stroke="#000" stroke-linecap="square" stroke-width="2.25778"/><path d="m10.160001 62.088893v-42.897781l3.386666-3.386666h15.804446l4.515556 4.515555v41.768892z" fill="#00ff7f"/></g><g transform="matrix(.51117826789 -.00049853513 .01955759489 .36670332425 -69.26948858356 76.63051417905)"><path d="m7.9022231 64.346671v-47.413336l4.5155559-4.515556 22.577779-.000001 6.773333 6.773334v45.155559z" fill="#fff" stroke="#000" stroke-linecap="square" stroke-width="2.25778"/><path d="m10.160001 62.088893v-42.897781l3.386666-3.386666h15.804446l4.515556 4.515555v41.768892z" fill="#00ff7f"/></g><g transform="matrix(.51117826789 -.00049853513 .01955759489 .36670332425 -93.62534635945 100.9358388597)"><path d="m7.9022231 64.346671v-47.413336l4.5155559-4.515556 22.577779-.000001 6.773333 6.773334v45.155559z" fill="#fff" stroke="#000" stroke-linecap="square" stroke-width="2.25778"/><path d="m10.160001 62.088893v-42.897781l3.386666-3.386666h15.804446l4.515556 4.515555v41.768892z" fill="#00ff7f"/></g><g transform="matrix(.5111926026 -.00003161582 .01887515923 .366710939 -67.80705227841 100.46752853681)"><path d="m7.9022231 64.346671v-47.413336l4.5155559-4.515556 22.577779-.000001 6.773333 6.773334v45.155559z" fill="#fff" stroke="#000" stroke-linecap="square" stroke-width="2.25778"/><path d="m13.614135 62.300507v-42.897781l3.386666-3.386666h15.804446l4.515556 4.515555v41.768892z" fill="#00ff7f"/></g><g transform="matrix(.51117826789 -.00049853513 .01955759489 .36670332425 -91.34409499573 124.46524759856)"><path d="m7.9022231 64.346671v-47.413336l4.5155559-4.515556 22.577779-.000001 6.773333 6.773334v45.155559z" fill="#fff" stroke="#000" stroke-linecap="square" stroke-width="2.25778"/><path d="m10.160001 62.088893v-42.897781l3.386666-3.386666h15.804446l4.515556 4.515555v41.768892z" fill="#00ff7f"/></g><g transform="matrix(.5111926026 -.00003161582 .01887515923 .366710939 -65.52580782276 123.99693697319)"><path d="m7.9022231 64.346671v-47.413336l4.5155559-4.515556 22.577779-.000001 6.773333 6.773334v45.155559z" fill="#fff" stroke="#000" stroke-linecap="square" stroke-width="2.25778"/><path d="m13.614135 62.300507v-42.897781l3.386666-3.386666h15.804446l4.515556 4.515555v41.768892z" fill="#00ff7f"/></g><g transform="matrix(.51117827 -.00049854 .01955759 .36670332 66.338596 90.857681)"><path d="m7.9022231 64.346671v-47.413336l4.5155559-4.515556 22.577779-.000001 6.773333 6.773334v45.155559z" fill="#fff" stroke="#000" stroke-linecap="square" stroke-width="2.25778"/><path d="m10.160001 62.088893v-42.897781l3.386666-3.386666h15.804446l4.515556 4.515555v41.768892z" fill="#00ff7f"/></g><g transform="matrix(.5111926 -.00003162 .01887516 .36671094 92.156886 90.389371)"><path d="m7.9022231 64.346671v-47.413336l4.5155559-4.515556 22.577779-.000001 6.773333 6.773334v45.155559z" fill="#fff" stroke="#000" stroke-linecap="square" stroke-width="2.25778"/><path d="m13.614135 62.300507v-42.897781l3.386666-3.386666h15.804446l4.515556 4.515555v41.768892z" fill="#00ff7f"/></g></g></svg>
