<?xml version="1.0" encoding="UTF-8" standalone="no"?>
<svg
   height="256"
   viewBox="0 0 72.248892 72.248892"
   width="256"
   version="1.1"
   id="svg6"
   sodipodi:docname="pen_pick_resolved.svg"
   inkscape:version="1.3.2 (091e20e, 2023-11-25, custom)"
   xmlns:inkscape="http://www.inkscape.org/namespaces/inkscape"
   xmlns:sodipodi="http://sodipodi.sourceforge.net/DTD/sodipodi-0.dtd"
   xmlns="http://www.w3.org/2000/svg"
   xmlns:svg="http://www.w3.org/2000/svg">
  <defs
     id="defs6" />
  <sodipodi:namedview
     id="namedview6"
     pagecolor="#ffffff"
     bordercolor="#000000"
     borderopacity="0.25"
     inkscape:showpageshadow="2"
     inkscape:pageopacity="0.0"
     inkscape:pagecheckerboard="0"
     inkscape:deskcolor="#d1d1d1"
     inkscape:zoom="0.60205078"
     inkscape:cx="-582.1768"
     inkscape:cy="274.89376"
     inkscape:window-width="2560"
     inkscape:window-height="1417"
     inkscape:window-x="-8"
     inkscape:window-y="-8"
     inkscape:window-maximized="1"
     inkscape:current-layer="svg6" />
  <path
     style="fill:#ffffff;fill-opacity:1;stroke:#000000;stroke-width:2.25777787;stroke-linecap:round;stroke-linejoin:bevel;stroke-dasharray:none;paint-order:fill markers stroke"
     d="m 23.949232,66.397883 c -5.123335,-2.344157 -10.24667,-4.688356 -15.3700051,-7.032514 0.443004,-1.183192 1.000863,-2.342605 1.372355,-3.54054 -0.06186,-3.085504 -0.123338,-6.171054 -0.185201,-9.25656 1.4162031,-3.310365 2.8324071,-6.620731 4.2486101,-9.931097 0.886125,-0.755384 1.772288,-1.510763 2.658412,-2.266147 1.073037,0.171336 2.146074,0.342671 3.219111,0.513829 -0.84422,1.894965 -1.688441,3.789931 -2.532661,5.684892 0.592487,0.03528 1.345858,0.395799 1.840064,0.231104 0.780023,-1.719554 1.453594,-3.53062 2.299215,-5.193863 0.56677,-0.456318 1.133578,-0.912637 1.700347,-1.368959 1.061093,0.469247 2.122224,0.93854 3.183316,1.407788 -0.883322,2.152367 -1.766684,4.304731 -2.650007,6.457099 0.548444,0.06155 1.3743,0.784824 1.734469,0.39667 0.837762,-2.033537 1.592728,-4.125161 2.481926,-6.122662 0.45775,-0.513078 0.915539,-1.026155 1.373288,-1.539232 1.020512,0.466591 2.041024,0.93314 3.061496,1.399731 -0.997128,2.586373 -1.994295,5.172787 -2.991423,7.759159 1.191511,0.612339 1.754001,0.858007 2.043475,-0.541367 1.858818,-4.664757 3.717675,-9.329517 5.576532,-13.994278 0.581438,-0.407296 1.162914,-0.814442 1.744352,-1.221663 0.858071,0.41661 1.716182,0.833526 2.574254,1.250311 0.143959,0.792216 0.477242,1.60086 0.508096,2.383202 -2.568612,6.231573 -5.137225,12.463192 -7.705837,18.694767 1.690737,-0.555446 3.381434,-1.110847 5.072171,-1.666293 1.079223,0.488771 2.158408,0.977543 3.237631,1.466315 -0.377794,0.70221 -0.52292,1.62016 -1.049692,2.183841 -5.294101,3.559977 -10.588202,7.119954 -15.882303,10.679931 -0.520664,1.055508 -1.041328,2.11097 -1.561991,3.166478 z"
     id="path38" />
  <path
     style="fill:#ffffff;fill-opacity:1;stroke:#000000;stroke-width:3.2455557;stroke-linecap:round;stroke-linejoin:round;stroke-dasharray:none;paint-order:fill markers stroke"
     d="M 21.483686,6.3545786 64.956571,51.976192"
     id="path39" />
</svg>
