<?xml version="1.0" encoding="UTF-8" standalone="no"?>
<svg
   height="256"
   viewBox="0 0 72.248892 72.248892"
   width="256"
   version="1.1"
   id="svg6"
   sodipodi:docname="pickt_resolved_pen.svg"
   inkscape:version="1.3.2 (091e20e, 2023-11-25, custom)"
   xmlns:inkscape="http://www.inkscape.org/namespaces/inkscape"
   xmlns:sodipodi="http://sodipodi.sourceforge.net/DTD/sodipodi-0.dtd"
   xmlns="http://www.w3.org/2000/svg"
   xmlns:svg="http://www.w3.org/2000/svg">
  <defs
     id="defs6" />
  <sodipodi:namedview
     id="namedview6"
     pagecolor="#ffffff"
     bordercolor="#000000"
     borderopacity="0.25"
     inkscape:showpageshadow="2"
     inkscape:pageopacity="0.0"
     inkscape:pagecheckerboard="0"
     inkscape:deskcolor="#d1d1d1"
     inkscape:zoom="0.42571419"
     inkscape:cx="-903.18812"
     inkscape:cy="452.18131"
     inkscape:window-width="2560"
     inkscape:window-height="1417"
     inkscape:window-x="-8"
     inkscape:window-y="-8"
     inkscape:window-maximized="1"
     inkscape:current-layer="svg6" />
  <ellipse
     cx="-18.262653"
     cy="50.192703"
     transform="rotate(-90)"
     id="ellipse36"
     style="fill:#00ff7f;stroke:#000000;stroke-width:2.54000011;stroke-linecap:square;stroke-dasharray:none;stroke-dashoffset:8"
     rx="7.2761436"
     ry="7.2651248" />
  <path
     style="fill:#ffffff;fill-opacity:1;stroke:#000000;stroke-width:2.25777787;stroke-linecap:round;stroke-linejoin:bevel;stroke-dasharray:none;paint-order:fill markers stroke"
     d="m 28.232737,64.747116 c -6.28887,-2.662132 -12.577741,-5.32432 -18.8666096,-7.986454 0.543765,-1.343689 1.2285436,-2.660378 1.6845546,-4.020804 -0.0758,-3.504047 -0.151542,-7.008144 -0.227382,-10.512189 1.738389,-3.75941 3.476774,-7.518819 5.215164,-11.278228 1.087738,-0.85785 2.175477,-1.715695 3.263219,-2.573546 1.317139,0.194578 2.634269,0.389155 3.951409,0.58353 -1.036268,2.152012 -2.072531,4.304026 -3.1088,6.456035 0.727239,0.04007 1.652008,0.449488 2.258654,0.262452 0.957484,-1.952808 1.784305,-4.009539 2.822283,-5.898398 0.695726,-0.518217 1.391448,-1.036433 2.08717,-1.554656 1.302501,0.5329 2.605012,1.065852 3.907513,1.598752 -1.084299,2.444331 -2.168589,4.888657 -3.252888,7.332988 0.673217,0.0699 1.686943,0.891285 2.129054,0.450479 1.028355,-2.309382 1.955087,-4.68473 3.046542,-6.953187 0.561913,-0.582676 1.123825,-1.165351 1.685737,-1.748025 1.252661,0.529881 2.505327,1.059718 3.757985,1.5896 -1.223994,2.937209 -2.447988,5.874464 -3.671983,8.811673 1.462571,0.6954 2.153048,0.974393 2.508347,-0.614804 2.281727,-5.29752 4.563443,-10.595044 6.845169,-15.892569 0.71374,-0.462544 1.427477,-0.924919 2.141215,-1.387379 1.053289,0.473123 2.106572,0.946593 3.159863,1.419913 0.176995,0.899678 0.585827,1.818013 0.623719,2.706478 -3.152971,7.076872 -6.305944,14.153796 -9.458916,21.230667 2.075365,-0.630792 4.150723,-1.261531 6.226091,-1.892322 1.324718,0.555072 2.649444,1.110144 3.974162,1.665216 -0.46355,0.797464 -0.641894,1.839932 -1.288474,2.480074 -6.498496,4.042881 -12.996985,8.08576 -19.49548,12.128636 -0.639117,1.198685 -1.27823,2.397323 -1.917347,3.596007 z"
     id="path36" />
</svg>
