<?xml version="1.0" encoding="UTF-8" standalone="no"?>
<svg
   height="256"
   viewBox="0 0 72.248892 72.248892"
   width="256"
   version="1.1"
   id="svg6"
   sodipodi:docname="pen_pick_layer.svg"
   inkscape:version="1.3.2 (091e20e, 2023-11-25, custom)"
   xmlns:inkscape="http://www.inkscape.org/namespaces/inkscape"
   xmlns:sodipodi="http://sodipodi.sourceforge.net/DTD/sodipodi-0.dtd"
   xmlns="http://www.w3.org/2000/svg"
   xmlns:svg="http://www.w3.org/2000/svg">
  <defs
     id="defs6" />
  <sodipodi:namedview
     id="namedview6"
     pagecolor="#ffffff"
     bordercolor="#000000"
     borderopacity="0.25"
     inkscape:showpageshadow="2"
     inkscape:pageopacity="0.0"
     inkscape:pagecheckerboard="0"
     inkscape:deskcolor="#d1d1d1"
     inkscape:zoom="0.1505127"
     inkscape:cx="-1637.7356"
     inkscape:cy="1232.4542"
     inkscape:window-width="2560"
     inkscape:window-height="1417"
     inkscape:window-x="-8"
     inkscape:window-y="-8"
     inkscape:window-maximized="1"
     inkscape:current-layer="svg6" />
  <path
     d="M 28.987631,25.988004 10.925411,39.534671 H 44.792076 L 62.8543,25.988004 Z"
     fill="#ffffff"
     id="path1"
     style="fill-rule:evenodd;stroke:#000000;stroke-width:2.25778" />
  <path
     d="M 28.987631,19.21467 10.925411,32.761337 H 44.792076 L 62.8543,19.21467 Z"
     fill="#ffffff"
     id="path2"
     style="fill-rule:evenodd;stroke:#000000;stroke-width:2.25778;fill:#00ff7f;fill-opacity:1" />
  <path
     d="M 28.987631,12.441334 10.925411,25.987997 H 44.792076 L 62.8543,12.441334 Z"
     id="path4"
     style="fill:#ffffff;fill-rule:evenodd;stroke:#000000;stroke-width:2.25778" />
  <path
     d="m 44.403534,54.1202 c -0.05822,-0.163806 -1.978227,-2.234944 -2.571765,-2.774754 -0.793667,-0.722206 -1.597266,-1.329588 -2.304558,-1.737377 -0.175864,-0.102221 -0.552103,-0.268558 -0.83297,-0.368798 -0.406773,-0.145177 -0.577917,-0.186529 -0.847039,-0.206132 -0.442748,-0.03225 -0.712751,-0.113818 -0.93107,-0.287908 -0.14415,-0.108164 -0.193279,-0.175019 -0.241459,-0.310582 -0.162605,-0.457525 0.04997,-0.823071 0.799453,-1.379229 1.361646,-1.010895 5.69102,-3.320114 9.276514,-4.950344 2.031642,-0.922202 2.972923,-1.271809 3.771976,-1.391054 0.417303,-0.06314 0.678394,-0.06613 1.073245,-0.01399 0.642948,0.08397 0.919502,0.219663 1.768215,0.882603 1.152719,0.89967 2.260307,1.945989 3.966258,3.736052 0.668114,0.702056 1.286147,1.405967 1.266301,1.433408 -0.01418,0.0196 -0.871073,0.475771 -2.510452,1.335759 -7.055803,3.703526 -11.538905,6.04419 -11.631037,6.070492 -0.01919,0.0055 -0.04258,-0.01273 -0.05161,-0.03815 z m 1.752055,-2.220463 c 1.081855,-0.560833 9.441459,-4.938329 9.954097,-5.209114 0.234291,-0.125992 0.270495,-0.154993 0.251424,-0.208654 -0.04316,-0.121442 -1.112889,-1.215899 -2.211795,-2.261586 -1.297204,-1.234827 -2.186543,-1.976381 -2.609552,-2.179138 -0.478284,-0.227416 -0.847391,-0.230917 -1.497627,-0.01417 -0.344312,0.113854 -1.596485,0.623764 -1.622,0.659046 -0.02268,0.03136 0.233375,0.216455 1.023397,0.749943 1.187867,0.796313 1.304969,0.899756 1.285934,1.119834 -0.01123,0.158747 -0.13161,0.367317 -0.266919,0.474384 -0.133477,0.100323 -0.451094,0.19411 -0.621886,0.177544 -0.261444,-0.0218 -0.476048,-0.137843 -1.521773,-0.831639 -0.387157,-0.256543 -0.874352,-0.568518 -1.083286,-0.692406 -0.365427,-0.219196 -0.384797,-0.226109 -0.519155,-0.187751 -0.794633,0.22686 -6.606048,3.2796 -7.862972,4.133056 l -0.283491,0.189811 0.671106,0.234584 c 0.743743,0.260508 1.276475,0.522153 1.937879,0.955486 1.082634,0.714367 2.034979,1.549922 3.28735,2.88465 0.299393,0.318929 0.564184,0.576188 0.583378,0.570708 0.02303,-0.0066 0.520492,-0.260585 1.105891,-0.564586 z"
     id="path2-3"
     style="stroke-width:0.971543" />
  <path
     d="m 64.069105,67.242136 c -0.287787,0.02306 -0.655767,-0.03676 -1.105948,-0.185097 -1.429851,-0.465921 -2.68939,-1.559073 -4.164996,-3.617099 -0.419788,-0.586304 -0.92484,-1.341133 -1.628296,-2.428169 -1.705585,-2.645636 -2.008043,-3.04457 -2.750871,-3.647526 -0.858751,-0.691181 -1.708784,-1.107992 -2.778879,-1.346877 -1.039209,-0.235261 -1.693144,-0.278766 -3.385371,-0.221828 -0.885092,0.03182 -1.666535,0.03405 -1.710294,0.0061 -0.03791,-0.02339 -0.101993,0.01046 2.554157,-1.379344 7.98865,-4.172046 10.689862,-5.577819 10.714075,-5.569178 0.03874,0.01382 -0.183821,0.422663 -0.647838,1.199069 -0.818824,1.372315 -1.075071,2.055187 -1.064273,2.882684 0.0045,0.655094 0.208762,1.467798 0.49627,1.967434 0.230346,0.410189 0.710728,0.988526 1.561961,1.896498 0.475485,0.505076 1.250364,1.32908 1.715161,1.827875 1.32471,1.4074 2.081927,2.276886 2.689852,3.083227 0.675775,0.902071 0.95041,1.377385 1.289266,2.235657 0.286012,0.733372 0.412589,1.232292 0.383923,1.520446 -0.05119,0.534116 -0.332107,1.040494 -0.698871,1.269633 -0.384954,0.237443 -1.066728,0.472524 -1.469029,0.506496 z m 0.494426,-1.416577 c 0.05889,-0.06036 0.119901,-0.174217 0.14288,-0.252325 0.07657,-0.308051 -0.158539,-1.052847 -0.557707,-1.747693 -0.6728,-1.167336 -1.846265,-2.577475 -4.489663,-5.375329 -2.376425,-2.522554 -2.447109,-2.614362 -2.824689,-3.688667 -0.294247,-0.839899 -0.344317,-1.24245 -0.280981,-2.27776 0.022,-0.283138 0.02249,-0.519699 0.007,-0.527708 -0.07264,-0.02593 -5.041507,2.577853 -5.115219,2.679778 -0.01235,0.01286 0.0014,0.02761 0.0284,0.03233 0.02705,0.0047 0.303548,0.06888 0.620619,0.14012 1.423072,0.327871 2.774599,0.977915 3.686847,1.772034 0.687906,0.603082 1.201587,1.287011 2.662824,3.554451 2.001246,3.108726 2.890726,4.267085 3.882585,5.035365 0.520318,0.405174 1.249288,0.778777 1.648154,0.842219 0.246265,0.03857 0.433363,-0.01795 0.588992,-0.186816 z"
     id="path3-6"
     style="stroke-width:0.971543" />
  <path
     d="m 45.691106,55.423103 c -0.08433,-0.03503 -0.648743,-0.695143 -0.686885,-0.802464 -0.009,-0.02541 9.5e-4,-0.06871 0.02564,-0.09442 0.05971,-0.06993 0.291168,-0.192003 7.156738,-3.788337 3.294114,-1.724358 6.145339,-3.219619 6.341418,-3.32226 l 0.348097,-0.186481 0.09602,0.04414 c 0.106712,0.05042 0.450217,0.422077 0.615497,0.661083 0.09159,0.138725 0.104636,0.17544 0.07062,0.222482 -0.08322,0.110861 0.205639,-0.04004 -5.951391,3.170471 -1.665247,0.870484 -4.090946,2.135384 -5.386066,2.809986 -1.294116,0.677426 -2.396996,1.250484 -2.447729,1.2743 -0.06792,0.03494 -0.118004,0.03679 -0.181955,0.01151 z"
     id="path4-5"
     style="stroke-width:0.971543" />
</svg>
