<?xml version="1.0" encoding="UTF-8" standalone="no"?>
<svg
   version="1.1"
   width="149px"
   height="149px"
   style="shape-rendering:geometricPrecision; text-rendering:geometricPrecision; image-rendering:optimizeQuality; fill-rule:evenodd; clip-rule:evenodd"
   id="svg9"
   sodipodi:docname="pen_fill_by_current.svg"
   inkscape:version="1.3.2 (091e20e, 2023-11-25, custom)"
   xml:space="preserve"
   xmlns:inkscape="http://www.inkscape.org/namespaces/inkscape"
   xmlns:sodipodi="http://sodipodi.sourceforge.net/DTD/sodipodi-0.dtd"
   xmlns="http://www.w3.org/2000/svg"
   xmlns:svg="http://www.w3.org/2000/svg"><defs
     id="defs9"><inkscape:path-effect
       effect="skeletal"
       id="path-effect4"
       is_visible="true"
       lpeversion="1"
       pattern="M 0,18.867925 C 0,8.4528302 8.4528302,0 18.867925,0 c 10.415094,0 18.867924,8.4528302 18.867924,18.867925 0,10.415094 -8.45283,18.867924 -18.867924,18.867924 C 8.4528302,37.735849 0,29.283019 0,18.867925 Z"
       copytype="single_stretched"
       prop_scale="1"
       scale_y_rel="false"
       spacing="0"
       normal_offset="0"
       tang_offset="0"
       prop_units="false"
       vertical_pattern="false"
       hide_knot="false"
       fuse_tolerance="0" /><inkscape:path-effect
       effect="skeletal"
       id="path-effect3"
       is_visible="true"
       lpeversion="1"
       pattern="M 0,18.867925 C 0,8.4528302 8.4528302,0 18.867925,0 c 10.415094,0 18.867924,8.4528302 18.867924,18.867925 0,10.415094 -8.45283,18.867924 -18.867924,18.867924 C 8.4528302,37.735849 0,29.283019 0,18.867925 Z"
       copytype="single_stretched"
       prop_scale="1"
       scale_y_rel="false"
       spacing="0"
       normal_offset="0"
       tang_offset="0"
       prop_units="false"
       vertical_pattern="false"
       hide_knot="false"
       fuse_tolerance="0" /><inkscape:path-effect
       effect="skeletal"
       id="path-effect2"
       is_visible="true"
       lpeversion="1"
       pattern="M 0,18.867925 C 0,8.4528302 8.4528302,0 18.867925,0 c 10.415094,0 18.867924,8.4528302 18.867924,18.867925 0,10.415094 -8.45283,18.867924 -18.867924,18.867924 C 8.4528302,37.735849 0,29.283019 0,18.867925 Z"
       copytype="single_stretched"
       prop_scale="1"
       scale_y_rel="false"
       spacing="0"
       normal_offset="0"
       tang_offset="0"
       prop_units="false"
       vertical_pattern="false"
       hide_knot="false"
       fuse_tolerance="0" /><inkscape:path-effect
       effect="fillet_chamfer"
       id="path-effect1"
       is_visible="true"
       lpeversion="1"
       nodesatellites_param="F,0,0,1,0,0,0,1 @ F,0,0,1,0,0,0,1 @ F,0,0,1,0,0,0,1 @ F,0,0,1,0,0,0,1 @ F,0,0,1,0,0.52659415,0,1 @ F,0,1,1,0,0.52659415,0,1 @ F,0,0,1,0,0,0,1 @ F,0,0,1,0,0,0,1 @ F,0,0,1,0,0,0,1 @ F,0,0,1,0,0,0,1 @ F,0,0,1,0,0,0,1 @ F,0,0,1,0,0,0,1 @ F,0,0,1,0,0,0,1 @ F,0,0,1,0,0,0,1 @ F,0,0,1,0,0,0,1"
       radius="0"
       unit="px"
       method="auto"
       mode="F"
       chamfer_steps="1"
       flexible="false"
       use_knot_distance="true"
       apply_no_radius="true"
       apply_with_radius="true"
       only_selected="false"
       hide_knots="false" /></defs><sodipodi:namedview
     id="namedview9"
     pagecolor="#ffffff"
     bordercolor="#000000"
     borderopacity="0.25"
     inkscape:showpageshadow="2"
     inkscape:pageopacity="0.0"
     inkscape:pagecheckerboard="0"
     inkscape:deskcolor="#d1d1d1"
     inkscape:zoom="2.9257136"
     inkscape:cx="88.354513"
     inkscape:cy="85.620137"
     inkscape:window-width="2560"
     inkscape:window-height="1417"
     inkscape:window-x="-8"
     inkscape:window-y="-8"
     inkscape:window-maximized="1"
     inkscape:current-layer="svg9" /><path
     style="fill:none;fill-opacity:1;stroke:none;stroke-width:2.6;stroke-opacity:1"
     d="m 74.5,9.1841043 c 0.0043,-5.3045676 20.974452,-10.08309559 54.71023,-13.4847238 0,-4e-7 0,-7e-7 1e-5,-1e-6 m 10.9355,5.5785344 c 4.19744,4.6952861 8.61559,9.7746551 13.2191,15.1988221 m 2.91936,8.987137 c 2.13085,28.142847 3.43323,62.390674 3.56407,99.462917 m -18.73991,18.85666 c -2.05327,0.02 -4.11523,0.0365 -6.18532,0.0493 -16.92478,0.10512 -33.30915,-0.0373 -48.848271,-0.39719 M 67.796947,125.56156 c 0.438152,-33.086855 1.900156,-62.352907 4.126054,-84.854238 m 2.546698,7.417842 C 70.882578,42.010875 67.747439,36.389987 65.11119,31.340557 m 8.033358,4.00767 c -2e-6,-1e-6 -5e-6,-1e-6 -7e-6,-2e-6 -2.616625,-0.433377 -5.069215,-0.878652 -7.348628,-1.334868 m -8.713685,-8.37867 c 0.526444,-3.296922 1.089438,-6.23778 1.687214,-8.795395 M 61.220666,11.39724 C 68.381995,8.2301187 73.009538,7.3603678 74.500028,9.1840814 75.990518,11.007795 74.216946,15.369568 69.687572,21.75706 m 2.451218,-5.442056 c 0.796229,2.502948 1.587796,5.390685 2.370809,8.636257 m -8.713686,-8.37867 c 2.279413,-0.456217 4.732003,-0.901492 7.348628,-1.334869 2e-6,0 5e-6,-10e-7 7e-6,-10e-7 m 8.033358,4.007669 c 4.123439,3.92986 8.658082,8.497189 13.541885,13.635324 m 2.546699,7.417842 c 2.9504,22.417843 5.35546,51.621522 6.86043,84.677044 M 85.849097,107.10158 c 15.533453,-0.55292 31.914783,-0.89881 48.839563,-1.00393 2.07009,-0.0129 4.1321,-0.022 6.18546,-0.0275 m -18.73991,18.85666 c 0.13084,-37.072243 1.43322,-71.32007 3.56407,-99.462917 m 2.91936,8.987137 c -3.73433,-6.055472 -7.1981,-11.828015 -10.36488,-17.271888 m 10.9355,5.578534 c 0,0 0,0 -1e-5,-1e-6 C 95.45805,19.301247 74.495693,14.488672 74.5,9.1841043"
     id="path1"
     inkscape:path-effect="#path-effect2"
     inkscape:original-d="m 74.5,9.1841038 54.69925,0.044414 11.79199,16.2353552 V 124.92679 L 85.961933,125.26858 84.594745,40.502939 73.144548,25.292974 h -7.348635 l -0.341797,-8.715822 z" /><path
     style="fill:#00ff7f;fill-opacity:1;stroke:#000000;stroke-width:4.2;stroke-linejoin:miter;stroke-dasharray:none;stroke-opacity:1;paint-order:fill markers stroke"
     d="m 16.064461,26.147466 57.08009,-0.170898 12.64648,15.893558 0.1709,15.893558 -26.48926,-14.184573 -0.5127,27.856451 -23.92578,-10.766604 0.17089,36.401376 23.92579,-11.962894 -0.1709,22.21681 27.00196,-14.184581 0.1709,46.142591 -74.34084,0.5127 -1.19629,-105.786164 z"
     id="path10" /><path
     style="fill:none;stroke:#000000;stroke-width:3.8;paint-order:markers stroke fill"
     d="m 129.96875,9.3149414 -56.738281,0.1699219 -7.34961,7.0078127 0.341797,9.740234 7.691406,0.171875 11.449219,15.550782 0.08594,15.636718 32.214839,17.517578 -31.787105,17.773438 -0.171875,31.787109 56.22656,-0.16992 -0.68359,-99.462892 z"
     id="path14" /><path
     style="fill:none;fill-opacity:1;stroke:#000000;stroke-width:3.8;stroke-linejoin:miter;stroke-dasharray:none;stroke-opacity:1;paint-order:markers stroke fill"
     d="m 58.105482,70.922867 1.538086,1.025391 13.159183,6.066896 -13.842777,7.006837"
     id="path13"
     sodipodi:nodetypes="cccc" /></svg>
