<svg height="256" viewBox="0 0 72.248892 72.248892" width="256" xmlns="http://www.w3.org/2000/svg"><path d="m129.13281 66.021484a62.499999 62.499999 0 0 0 -64.107419 60.718746l-.013672.50586a62.499999 62.499999 0 0 0 61.107421 63.73829 62.499999 62.499999 0 0 0 63.86328-60.97852 62.499999 62.499999 0 0 0 -60.84961-63.984376zm-.1289 5.011719a57.732794 57.26626 44.999608 0 1 55.98047 59.320317 57.732794 57.26626 44.999608 0 1 -58.75391 55.62109 57.732794 57.26626 44.999608 0 1 -56.218751-59.09375l.011719-.4668a57.732794 57.26626 44.999608 0 1 58.980472-55.380857z" stroke-width="6.257826" transform="scale(.28222223)"/><path d="m35.277779 18.626667h1.411111v18.344446h-1.411111z" stroke-width=".775887"/><path d="m60 61v5 125 5h5 125 5v-130-5zm5 5h125v125h-125z" stroke-width="5" transform="scale(.28222223)"/></svg>
