<svg height="256" viewBox="0 0 72.248892 72.248892" width="256" xmlns="http://www.w3.org/2000/svg"><path d="m129.13281 66.021484a62.499999 62.499999 0 0 0 -64.107419 60.718746l-.01367.50586a62.499999 62.499999 0 0 0 61.107419 63.73829 62.499999 62.499999 0 0 0 63.86328-60.97852 62.499999 62.499999 0 0 0 -60.84961-63.984376zm-.1289 5.011719a57.732794 57.26626 44.999608 0 1 55.98047 59.320317 57.732794 57.26626 44.999608 0 1 -58.75391 55.62109 57.732794 57.26626 44.999608 0 1 -56.218751-59.09375l.01172-.4668a57.732794 57.26626 44.999608 0 1 58.980471-55.380857z" stroke-width="6.257826" transform="scale(.28222223)"/><path d="m5.6502239 5.9322252 60.6428311 60.6665758m0-60.666576-60.6428312 60.666576" fill="none" stroke="#000" stroke-width="1.427268"/><path d="m16.933334 17.215555h1.411111v38.100002h-1.411111zm0 36.688891h38.100003v1.411111h-38.100003zm36.688889-35.277779h1.411111v35.277779h-1.411111zm-36.688889-1.411112h38.100003v1.411111h-38.100003z" stroke-width=".282222"/></svg>
