<?xml version="1.0" encoding="UTF-8" standalone="no"?>
<svg
   height="256"
   viewBox="0 0 72.248892 72.248892"
   width="256"
   version="1.1"
   id="svg9"
   sodipodi:docname="polyline_segment_type.svg"
   inkscape:version="1.3.2 (091e20e, 2023-11-25, custom)"
   xmlns:inkscape="http://www.inkscape.org/namespaces/inkscape"
   xmlns:sodipodi="http://sodipodi.sourceforge.net/DTD/sodipodi-0.dtd"
   xmlns="http://www.w3.org/2000/svg"
   xmlns:svg="http://www.w3.org/2000/svg">
  <defs
     id="defs9" />
  <sodipodi:namedview
     id="namedview9"
     pagecolor="#ffffff"
     bordercolor="#000000"
     borderopacity="0.25"
     inkscape:showpageshadow="2"
     inkscape:pageopacity="0.0"
     inkscape:pagecheckerboard="0"
     inkscape:deskcolor="#d1d1d1"
     inkscape:zoom="4.8164062"
     inkscape:cx="128"
     inkscape:cy="128"
     inkscape:window-width="2560"
     inkscape:window-height="1417"
     inkscape:window-x="-8"
     inkscape:window-y="-8"
     inkscape:window-maximized="1"
     inkscape:current-layer="svg9" />
  <path
     d="m 24.680047,35.799996 a 12.160387,15.543803 0.471186 0 1 6.190689,-13.410872 12.160387,15.543803 0.471186 0 1 12.159976,0.100003 12.160387,15.543803 0.471186 0 1 5.969287,13.510874"
     fill="none"
     stroke="#00ff7f"
     id="path1"
     style="stroke-width:2.25778" />
  <circle
     cx="59.755825"
     cy="-60.519871"
     fill="#00ff7f"
     r="5.6444449"
     stroke-dashoffset="1.6"
     transform="rotate(90.471186)"
     id="circle1"
     style="stroke:#000000;stroke-width:2.25778" />
  <circle
     cx="35.822369"
     cy="-50.164314"
     fill="#00ff7f"
     r="5.6444449"
     stroke-dashoffset="1.6"
     transform="rotate(90.471186)"
     id="circle2"
     style="stroke:#000000;stroke-width:2.25778" />
  <circle
     cx="35.822369"
     cy="-25.328749"
     fill="#00ff7f"
     r="5.6444449"
     stroke-dashoffset="1.6"
     transform="rotate(90.471186)"
     id="circle3"
     style="stroke:#000000;stroke-width:2.25778" />
  <circle
     cx="9.7468443"
     cy="-14.097687"
     fill="#00ff7f"
     r="5.6444449"
     stroke-dashoffset="1.6"
     transform="rotate(90.471186)"
     id="circle4"
     style="stroke:#000000;stroke-width:2.25778" />
  <path
     d="m 15.174266,14.525546 7.385191,16.403409"
     fill="none"
     id="path4"
     style="stroke:#000000;stroke-width:2.25778" />
  <path
     d="m 15.174266,14.525546 7.385191,16.403409"
     fill="none"
     id="path5"
     style="stroke:#000000;stroke-width:2.25778" />
  <path
     d="m 51.585251,41.172484 5.759361,13.612388"
     fill="none"
     id="path6"
     style="stroke:#000000;stroke-width:2.25778" />
  <path
     d="M 44.995913,36.335971 30.996387,36.220839"
     fill="none"
     stroke-opacity="0.372642"
     id="path7"
     style="stroke:#000000;stroke-width:1.69333341;stroke-dasharray:1.69333339, 1.69333339;stroke-dashoffset:0;stroke-opacity:1" />
  <path
     d="m 24.617586,31.454649 a 12.417779,12.991985 0.471186 0 1 6.301208,-11.19995 12.417779,12.991985 0.471186 0 1 12.417359,0.10212 12.417779,12.991985 0.471186 0 1 6.116151,11.302069"
     fill="none"
     id="path8"
     style="stroke:#000000;stroke-width:2.25778" />
</svg>
