<?xml version="1.0" encoding="UTF-8" standalone="no"?>
<svg
   height="256"
   viewBox="0 0 72.248892 72.248892"
   width="256"
   version="1.1"
   id="svg10"
   sodipodi:docname="polyline_arc_to_lines.svg"
   inkscape:version="1.3.2 (091e20e, 2023-11-25, custom)"
   xmlns:inkscape="http://www.inkscape.org/namespaces/inkscape"
   xmlns:sodipodi="http://sodipodi.sourceforge.net/DTD/sodipodi-0.dtd"
   xmlns="http://www.w3.org/2000/svg"
   xmlns:svg="http://www.w3.org/2000/svg">
  <defs
     id="defs10" />
  <sodipodi:namedview
     id="namedview10"
     pagecolor="#ffffff"
     bordercolor="#000000"
     borderopacity="0.25"
     inkscape:showpageshadow="2"
     inkscape:pageopacity="0.0"
     inkscape:pagecheckerboard="0"
     inkscape:deskcolor="#d1d1d1"
     inkscape:zoom="3.4057135"
     inkscape:cx="84.710589"
     inkscape:cy="200.39853"
     inkscape:window-width="2560"
     inkscape:window-height="1417"
     inkscape:window-x="-8"
     inkscape:window-y="-8"
     inkscape:window-maximized="1"
     inkscape:current-layer="svg10" />
  <circle
     cx="61.355556"
     cy="8.7733355"
     fill="#00ff7f"
     r="5.6444449"
     stroke-dashoffset="1.6"
     id="circle1"
     style="stroke:#000000;stroke-width:2.25778" />
  <circle
     cx="37.4221"
     cy="19.128891"
     fill="#00ff7f"
     r="5.6444449"
     stroke-dashoffset="1.6"
     id="circle2"
     style="stroke:#000000;stroke-width:2.25778" />
  <circle
     cx="37.4221"
     cy="43.964458"
     fill="#00ff7f"
     r="5.6444449"
     stroke-dashoffset="1.6"
     id="circle3"
     style="stroke:#000000;stroke-width:2.25778" />
  <path
     d="m 32.342121,43.96441 a 12.418459,12.417779 0 0 1 -10.754701,-6.20889 12.418459,12.417779 0 0 1 0,-12.417779 12.418459,12.417779 0 0 1 10.754701,-6.208889"
     fill="none"
     stroke-opacity="0.363208"
     id="path3"
     style="stroke:#000000;stroke-width:1.41111117;stroke-dasharray:1.41111112, 1.41111112;stroke-dashoffset:0;stroke-opacity:1" />
  <circle
     cx="11.346578"
     cy="55.195518"
     fill="#00ff7f"
     r="5.6444449"
     stroke-dashoffset="1.6"
     id="circle4"
     style="stroke:#000000;stroke-width:2.25778" />
  <path
     d="M 38.000001,49.000002 A 12.418459,12.417779 65.44355 0 1 36.822233,61.362314 12.418459,12.417779 65.44355 0 1 25.527614,66.523013 12.418459,12.417779 65.44355 0 1 15.410763,59.3214"
     stroke-opacity="0.363208"
     id="path4"
     style="fill:none;stroke:#000000;stroke-width:1.41111117;stroke-dasharray:1.41111112, 1.41111112;stroke-dashoffset:0;stroke-opacity:1" />
  <path
     d="M 63.133638,13.544061 A 12.418459,12.417779 65.44355 0 1 61.95587,25.906374 12.418459,12.417779 65.44355 0 1 50.66125,31.067073 12.418459,12.417779 65.44355 0 1 40.5444,23.86546"
     stroke-opacity="0.363208"
     id="path5"
     style="fill:none;stroke:#000000;stroke-width:1.41111117;stroke-dasharray:1.41111117,1.41111117;stroke-dashoffset:0;stroke-opacity:1" />
  <path
     d="M 16,54 32.342121,46.480163"
     id="path6"
     style="fill:none;stroke:#000000;stroke-width:2.25778" />
  <path
     d="M 16,54 32.342121,46.480163"
     id="path7"
     style="fill:none;stroke:#000000;stroke-width:2.25778" />
  <path
     d="M 42.346605,17.371111 55.91117,11.500001"
     id="path8"
     style="fill:none;stroke:#000000;stroke-width:2.25778" />
  <path
     d="M 37.564444,24 V 38"
     id="path9"
     style="fill:none;stroke:#000000;stroke-width:2.25778" />
</svg>
