<svg height="256" viewBox="0 0 72.248892 72.248892" width="256" xmlns="http://www.w3.org/2000/svg"><path d="m36.943179 63.341004c-2.289248-.320596-4.269757-2.053361-4.852506-4.245505-.160875-.605164-.177752-1.980887-.03162-2.577609.148406-.606025.698762-1.715319 1.096955-2.21102 1.732063-2.156194 4.841819-2.792425 7.327618-1.49917 2.552353 1.327881 3.694473 4.183245 2.730591 6.82664-.638147 1.750085-2.254803 3.160979-4.114831 3.591111-.630468.145799-1.577747.196562-2.156204.115553zm1.862667-1.929655c.928537-.247139 1.850049-.911487 2.347643-1.692492.548053-.860205.701461-2.065926.390816-3.071679-.561208-1.81698-2.537751-2.958738-4.511921-2.606327-3.354109.598742-4.417571 4.652388-1.751564 6.676514.425811.323291.885777.549966 1.412217.695954.469246.13013 1.620526.129055 2.112809-.002z" fill="#00ff7f"/><path d="m35.239785 20.358994c-1.942008-.356305-3.560911-1.555251-4.355262-3.225469-.386906-.813518-.514048-1.396204-.512806-2.350173.0013-.985827.132822-1.551226.5644-2.425986.646767-1.310924 1.832587-2.348483 3.262294-2.8544155 3.211375-1.1364148 6.739567.6941315 7.620338 3.9536895.179348.663733.181628 1.986135.0046 2.653422-.520134 1.960308-2.082247 3.530619-4.070993 4.092359-.63436.17918-1.94438.260816-2.512546.156573zm2.056511-1.949959c1.707333-.4696 2.808284-1.891001 2.808284-3.625683 0-1.397087-.695521-2.569812-1.935806-3.26398-.694499-.3887-1.286682-.513487-2.23291-.470525-1.157181.05254-1.919819.390817-2.704354 1.199553-.708615.730475-1.011384 1.48934-1.011384 2.534952 0 2.571809 2.476554 4.340703 5.07617 3.625683z" fill="#00ff7f"/><path d="m56.821136 42.007932c-2.218295-.428202-4.049228-2.099988-4.593121-4.193885-.207064-.797162-.207064-1.899733 0-2.696896.457801-1.76246 1.851981-3.270444 3.620273-3.915793 3.101769-1.132005 6.500058.480229 7.580495 3.596377.190946.550715.210286.704111.210286 1.667866 0 .963752-.01933 1.117148-.210286 1.667865-.638257 1.840834-2.109569 3.219798-4.00512 3.753737-.715253.201473-1.899604.256413-2.602527.120729zm2.247423-1.938506c.550977-.170242 1.275326-.583113 1.642745-.936348.357884-.344069.754564-.96645.939171-1.473536.22321-.613111.22321-1.774774 0-2.387885-.43384-1.191686-1.377202-2.054651-2.6635-2.436512-.469748-.139452-1.602551-.160985-2.125822-.04041-.58593.135013-1.27889.518606-1.774656.982368-1.581935 1.479824-1.581935 3.897167 0 5.376991.480695.449667 1.194985.851086 1.74362.979887.554657.130214 1.716529.09671 2.238442-.06456z" fill="#00ff7f"/><path d="m13.658019 41.581157c-1.884712-.260302-3.630122-1.496489-4.4469024-3.149524-.439536-.889553-.5952527-1.653086-.5474487-2.684334.064802-1.39794.5086776-2.459803 1.4505331-3.470048 1.23736-1.327203 2.867295-1.992934 4.628144-1.890318.959542.05592 1.484779.19626 2.391181.638914.617178.301408.823716.455379 1.443697 1.07625.562838.56365.794828.862782 1.044803 1.34719 1.219954 2.364049.602065 5.227684-1.486126 6.887507-.540249.429423-1.640148.96783-2.29118 1.121542-.646979.152756-1.587473.205582-2.186701.122821zm1.842397-1.933815c.994438-.259018 2.023821-1.047093 2.483985-1.901681.730834-1.357264.510605-3.094601-.535054-4.220911-.793364-.854559-1.819598-1.297271-3.00715-1.297271-2.920676 0-4.8106234 2.840917-3.590588 5.397272.432279.905758 1.466429 1.740933 2.499829 2.018848.542561.145915 1.596103.147749 2.148978.0038z" fill="#00ff7f"/><g stroke="#000"><path d="m4.607312 5.231345h62.682362v62.687038h-62.682362z" fill="none" opacity="0" stroke-linecap="square" stroke-width=".532929"/><path d="m13.546668 14.675557 45.264538-.000001" fill="none" stroke-width="2.38278"/><path d="m57.573337 58.702226.000001-43.596673" fill="none" stroke-width="2.33847"/><path d="m14.675594 54.18667-.000037-39.511113" fill="none" stroke-width="2.25778"/><path d="m18.062223 57.5733 39.511114.000037" fill="none" stroke-width="2.25778"/><circle cx="57.497467" cy="14.869258" fill="#00ff7f" r="5.644445" stroke-dashoffset="8" stroke-linecap="square" stroke-width="2.25778"/><circle cx="14.675478" cy="57.573383" fill="#00ff7f" r="5.644445" stroke-dashoffset="8" stroke-linecap="square" stroke-width="2.25778"/><ellipse cx="37.096199" cy="36.23848" fill="none" rx="4.902274" ry="4.712744" stroke-dashoffset="8" stroke-linecap="square" stroke-width="1.92263"/></g><path d="m127.73138 148.04112c-7.86011-1.51725-14.34767-7.4409-16.27485-14.86022-.73369-2.82459-.73369-6.73133 0-9.55592 1.62214-6.24495 6.56214-11.5882 12.82775-13.87486 10.99051-4.01104 23.03169 1.70159 26.86002 12.74306.67657 1.95136.7451 2.49489.7451 5.90976s-.0685 3.9584-.7451 5.90976c-2.26155 6.52264-7.47486 11.40873-14.19138 13.30065-2.53436.71388-6.73088.90855-9.22154.42777zm7.96331-6.86872c1.95228-.60322 4.51886-2.06615 5.82074-3.31777 1.26809-1.21914 2.67365-3.42443 3.32778-5.22118.79089-2.17244.79089-6.28858 0-8.46102-1.53724-4.22251-4.87986-7.28026-9.43761-8.63331-1.66446-.49412-5.67832-.57042-7.53244-.14318-2.07613.47839-4.5315 1.83758-6.28815 3.48084-5.60528 5.24347-5.60528 13.80885 0 19.05232 1.70326 1.59331 4.2342 3.01566 6.17818 3.47204 1.96532.46139 6.08219.34266 7.9315-.22874z" transform="scale(.28222223)"/><path d="m127.73138 148.04112c-7.86011-1.51725-14.34767-7.4409-16.27485-14.86022-.73369-2.82459-.73369-6.73133 0-9.55592 1.62214-6.24495 6.56214-11.5882 12.82775-13.87486 5.56314-2.0303 11.36865-1.66638 16.69436 1.0465 4.91138 2.50182 8.32563 6.43188 10.16141 11.69656.68204 1.95595.74935 2.48684.74935 5.90976s-.0673 3.95381-.74935 5.90976c-2.29418 6.57927-7.43596 11.3989-14.19079 13.30166-2.53061.71285-6.72889.90721-9.21788.42676zm7.67422-6.76978c7.71661-2.26658 11.97145-10.12654 9.33646-17.24722-2.03622-5.50259-7.11406-8.92787-13.21107-8.91157-2.96834.008-4.32629.29739-6.62018 1.41113-2.1399 1.03897-5.00827 3.79114-6.00859 5.76516-1.49633 2.95286-1.89096 6.29592-1.10114 9.32821 1.17114 4.49633 5.0995 8.41148 9.7121 9.67945 1.85417.5097 6.11775.49611 7.89242-.0252z" fill="#00ff7f" transform="scale(.28222223)"/></svg>
