<svg height="256" viewBox="0 0 72.248892 72.248892" width="256" xmlns="http://www.w3.org/2000/svg"><path d="m60.144774 57.092868 10.402411-30.098922" fill="none" stroke="#000" stroke-width="1.99862"/><path d="m17.207652 56.757657 12.062461-29.472908" fill="none" stroke="#000" stroke-width="1.99862"/><path d="m4.607312 5.231345h62.682362v62.687038h-62.682362z" fill="none" opacity="0" stroke="#000" stroke-linecap="square" stroke-width=".532929"/><path d="m13.546668 14.675557 39.275385-.000001" fill="none" stroke="#000" stroke-width="2.21955"/><path d="m14.675594 54.18667-.000037-39.511113" fill="none" stroke="#000" stroke-width="2.25778"/><path d="m18.0623 57.5733 33.294371.000037" fill="none" stroke="#000" stroke-width="2.07264"/><circle cx="57.57328" cy="14.675582" fill="none" r="5.644445" stroke="#000" stroke-dashoffset="8" stroke-linecap="square" stroke-width="2.25778"/><g fill="#00ff7f"><path d="m200.2874 67.39974c-2.83764-.686607-4.94505-1.915898-7.30519-4.261253-1.62859-1.618385-2.42405-2.669149-3.17008-4.187502-3.04482-6.19693-1.76984-13.470126 3.19522-18.227353 6.44622-6.176392 15.93206-6.083356 22.16355.217378 3.19178 3.227247 4.56467 6.595963 4.56467 11.200459 0 4.426425-1.68596 8.276789-4.96885 11.347776-3.91903 3.666057-9.38668 5.142731-14.47932 3.910495z" transform="scale(.28222223)"/><path d="m29.186158 28.517763 39.275385-.000001" fill-rule="evenodd" stroke="#000" stroke-width="2.21955"/><path d="m27.444185 27.633495v-1.061149h21.94737 21.947373v1.061149 1.061149h-21.947373-21.94737z"/><path d="m77.764556 126.52256c.000004-31.026231.03134-43.67891.06964-28.117061.0383 15.561851.0383 40.946951-.000005 56.411331-.0383 15.46439-.06964 2.73197-.06964-28.29427z" transform="scale(.28222223)"/><path d="m32.904115 123.56768c.000003-31.026231.03134-43.678909.06964-28.117061.0383 15.561851.0383 40.946951-.000006 56.411331-.0383 15.46439-.06964 2.73197-.06964-28.29427z" transform="scale(.28222223)"/><path d="m21.448086 41.265622 5.953099-14.724754.878565.355197.878566.355196-5.953099 14.724755-5.953099 14.724755-.878565-.355197-.878566-.355196z"/><path d="m63.053447 43.126047 5.267021-14.983867.894025.314261.894026.314261-5.267021 14.983867-5.267021 14.983868-.894025-.314261-.894026-.314261z"/><circle cx="14.675478" cy="57.573383" r="5.644445" stroke="#000" stroke-dashoffset="8" stroke-linecap="square" stroke-width="2.25778"/><path d="m199.32004 218.11844c-5.48667-1.50256-10.1258-6.276-11.4155-11.74602-2.56985-10.89951 7.07882-21.15017 18.05409-19.18052 3.37725.60609 5.96422 1.9727 8.41348 4.44459 2.32559 2.34708 3.52354 4.42214 4.29556 7.44072 1.97129 7.70769-2.3347 15.67085-10.08005 18.64123-2.09715.80426-7.01613 1.01658-9.26758.4z" transform="scale(.28222223)"/></g><circle cx="57.381439" cy="57.229816" fill="none" r="5.644445" stroke="#000" stroke-dashoffset="8" stroke-linecap="square" stroke-width="2.25778"/><path d="m57.573337 51.272644.000001-31.845804" fill="none" stroke="#000" stroke-width="1.99862"/></svg>
