<svg height="256" viewBox="0 0 72.248892 72.248892" width="256" xmlns="http://www.w3.org/2000/svg"><g transform="matrix(.70710678 -.70710678 .70710678 .70710678 -36.186633 15.531957)"><path d="m60.960004 50.800003h-38.382225l-13.5466672 4.515556 13.5466672 4.515556h39.511114v-9.031112" fill="none" stroke="#000" stroke-linecap="square" stroke-width="2.257778"/><path d="m18.062224 55.315559h-5.644445" fill="none" stroke="#000" stroke-width="4.515556"/><g fill-rule="evenodd" stroke-width="2.257778"><path d="m22.577779 57.573337h38.426054" fill="#00ff7f" stroke="#00ff7f"/><path d="m22.577779 55.315559h38.426054" fill="#00ff7f" stroke="#00ff7f"/><path d="m22.577779 53.057781h38.426054" fill="#fff" stroke="#fff"/></g></g><g stroke="#000"><path d="m46.284676 32.73775a15.804678 15.804742 0 0 1 14.601618 9.756529 15.804678 15.804742 0 0 1 -3.426024 17.223853 15.804678 15.804742 0 0 1 -17.223783 3.426037 15.804678 15.804742 0 0 1 -9.756489-14.601678" fill="none" stroke-linecap="square" stroke-width="2.257778"/><path d="m45.155559 27.093335-6.773334 5.644445 6.773334 5.644445z" fill-rule="evenodd" stroke-width=".282222"/></g></svg>
