<svg height="256" viewBox="0 0 256 256" width="256" xmlns="http://www.w3.org/2000/svg"><g stroke="#000" stroke-width="8"><path d="m72 184 112-112" fill="none"/><circle cx="60" cy="196.00002" fill="#00ff7f" opacity=".98" r="24" stroke-dashoffset="6" stroke-linejoin="bevel"/><circle cx="196" cy="60.00002" fill="#00ff7f" opacity=".98" r="24" stroke-dashoffset="6" stroke-linejoin="bevel"/></g><g transform="matrix(.7071068 -.7071068 .7071068 .7071068 -59.965515 87.916738)"><path d="m80 132c0-10.66667 0-21.33333 0-32-.000002 0-.000003 0-.000005 0-10.666663 5.33333-21.333327 10.66667-31.99999 16-.000002 0-.000003 0-.000005 0 10.666667 5.33333 21.333333 10.66667 32 16z" fill-rule="evenodd"/><path d="m80 116h35.96021" fill="none" stroke="#000" stroke-width="8"/></g><g transform="matrix(.7071068 -.7071068 .7071068 .7071068 -29.102603 185.05383)"><path d="m176 100v32l0 0c10.66667-5.33333 21.33333-10.66667 32-16l0 0c-10.66667-5.33333-21.33333-10.66667-32-16z" fill-rule="evenodd"/><path d="m140.20142 116h35.79858" fill="none" stroke="#000" stroke-width="8"/></g></svg>
