<?xml version="1.0" encoding="UTF-8" standalone="no"?>
<svg
   height="256"
   viewBox="0 0 72.248892 72.248892"
   width="256"
   version="1.1"
   id="svg6"
   sodipodi:docname="select_by_pen_resolved.svg"
   inkscape:version="1.3.2 (091e20e, 2023-11-25, custom)"
   xmlns:inkscape="http://www.inkscape.org/namespaces/inkscape"
   xmlns:sodipodi="http://sodipodi.sourceforge.net/DTD/sodipodi-0.dtd"
   xmlns="http://www.w3.org/2000/svg"
   xmlns:svg="http://www.w3.org/2000/svg">
  <defs
     id="defs6" />
  <sodipodi:namedview
     id="namedview6"
     pagecolor="#ffffff"
     bordercolor="#000000"
     borderopacity="0.25"
     inkscape:showpageshadow="2"
     inkscape:pageopacity="0.0"
     inkscape:pagecheckerboard="0"
     inkscape:deskcolor="#d1d1d1"
     inkscape:zoom="0.30102539"
     inkscape:cx="-1672.6164"
     inkscape:cy="523.21168"
     inkscape:window-width="2560"
     inkscape:window-height="1417"
     inkscape:window-x="-8"
     inkscape:window-y="-8"
     inkscape:window-maximized="1"
     inkscape:current-layer="svg6" />
  <path
     style="fill:#ffffff;fill-opacity:1;stroke:#000000;stroke-width:2.25777787;stroke-linecap:round;stroke-linejoin:round;stroke-dasharray:none;paint-order:fill markers stroke"
     d="m 5.5562664,20.741618 54.2181116,0.07603"
     id="path40" />
  <path
     style="fill:#ffffff;fill-opacity:1;stroke:#000000;stroke-width:2.25777787;stroke-linecap:round;stroke-linejoin:round;stroke-dasharray:none;paint-order:fill markers stroke"
     d="M 20.66371,5.0101299 20.817154,58.740366"
     id="path41" />
  <ellipse
     cx="-20.779633"
     cy="20.740433"
     transform="rotate(-90)"
     id="ellipse44"
     style="fill:#00ff7f;stroke:#000000;stroke-width:2.25778;stroke-linecap:square;stroke-dasharray:none;stroke-dashoffset:8"
     rx="6.1486783"
     ry="6.5596747"
     inkscape:transform-center-x="3.1489568"
     inkscape:transform-center-y="-0.82867286" />
  <path
     style="fill:#00ff7f;fill-opacity:1;stroke:#000000;stroke-width:1.97555564;stroke-linecap:round;stroke-linejoin:round;stroke-dasharray:none;paint-order:fill markers stroke"
     d="m 36.025133,51.507287 c 4.446564,-1.889995 8.893127,-3.780024 13.33969,-5.670019 -0.384484,-0.953958 -0.868654,-1.888745 -1.191072,-2.854589 0.0537,-2.487712 0.107377,-4.975461 0.160737,-7.463173 -1.229129,-2.669009 -2.458292,-5.338017 -3.687421,-8.007025 -0.769105,-0.609034 -1.538175,-1.218066 -2.30728,-1.827099 -0.93126,0.138139 -1.862552,0.276281 -2.793846,0.414278 0.732702,1.52783 1.465371,3.055662 2.198108,4.583489 -0.514222,0.02845 -1.168076,0.319117 -1.597001,0.18633 -0.676984,-1.386405 -1.26158,-2.84659 -1.995531,-4.187594 -0.491901,-0.36791 -0.983769,-0.73582 -1.475704,-1.103733 -0.920927,0.378334 -1.841887,0.756706 -2.762833,1.135039 0.766659,1.735364 1.533299,3.470724 2.299972,5.206087 -0.475997,0.04963 -1.19276,0.632771 -1.505353,0.31982 -0.727117,-1.639555 -1.382348,-3.325944 -2.154064,-4.936446 -0.397292,-0.413672 -0.794588,-0.827345 -1.191919,-1.241018 -0.885679,0.376192 -1.771398,0.752349 -2.657078,1.128541 0.865438,2.085284 1.73084,4.170604 2.596278,6.255887 -1.034117,0.493703 -1.522325,0.691775 -1.773523,-0.436482 -1.613309,-3.760999 -3.226585,-7.521996 -4.839895,-11.282996 -0.504666,-0.328386 -1.009298,-0.656651 -1.513966,-0.984976 -0.744702,0.335891 -1.489439,0.672033 -2.234176,1.00807 -0.12497,0.638734 -0.414225,1.290706 -0.440986,1.921478 2.229313,5.024256 4.458625,10.048547 6.687942,15.072803 -1.467398,-0.447833 -2.934792,-0.89563 -4.402186,-1.343463 -0.936649,0.394076 -1.873298,0.788152 -2.809946,1.182228 0.327787,0.566163 0.453878,1.306268 0.911039,1.76074 4.594778,2.870259 9.189523,5.740519 13.784321,8.610775 0.451887,0.851012 0.903773,1.70199 1.35566,2.553002 z"
     id="path44" />
  <path
     d="m 45.113044,47.532427 c -0.135462,0.01013 -0.306999,-0.02128 -0.515445,-0.09702 -0.662159,-0.237983 -1.232655,-0.786696 -1.886451,-1.815611 -0.18598,-0.293121 -0.408808,-0.670334 -0.718504,-1.21345 -0.750692,-1.321811 -0.885131,-1.521334 -1.22237,-1.824213 -0.389977,-0.347229 -0.781005,-0.558152 -1.27862,-0.68172 -0.483191,-0.121626 -0.789204,-0.146244 -1.584267,-0.125755 -0.415883,0.01173 -0.78258,0.0092 -0.802589,-0.0048 -0.01735,-0.01179 -0.04805,0.0047 1.224262,-0.673297 3.826464,-2.035282 5.120219,-2.721028 5.131418,-2.716625 0.01792,0.007 -0.09417,0.20907 -0.326435,0.592538 -0.409907,0.677794 -0.542933,1.015763 -0.553372,1.426791 -0.01017,0.325375 0.07045,0.729946 0.195987,0.979415 0.100394,0.204781 0.314953,0.494224 0.697341,0.949089 0.213635,0.253035 0.56177,0.665845 0.770508,0.915712 0.595187,0.705085 0.934183,1.140403 1.204314,1.543672 0.300173,0.451126 0.420126,0.688456 0.563037,1.116278 0.120456,0.365547 0.170498,0.613919 0.151648,0.7569 -0.03402,0.265034 -0.17532,0.515234 -0.3517,0.627348 -0.18507,0.116155 -0.509365,0.22977 -0.698762,0.24479 z m 0.258528,-0.701269 c 0.02876,-0.02971 0.05952,-0.08597 0.07177,-0.12466 0.0417,-0.152642 -0.05466,-0.523628 -0.228931,-0.870562 -0.293806,-0.582857 -0.817977,-1.288607 -2.005842,-2.690334 -1.067758,-1.26377 -1.099203,-1.309692 -1.256235,-1.844985 -0.122335,-0.418489 -0.138275,-0.618651 -0.08916,-1.132548 0.01562,-0.14052 0.02029,-0.258006 0.01315,-0.262055 -0.0336,-0.01321 -2.413788,1.257089 -2.450283,1.307371 -0.006,0.0063 1.19e-4,0.01372 0.01272,0.01619 0.0126,0.0025 0.141135,0.03561 0.288571,0.07245 0.661565,0.169389 1.283524,0.498456 1.696673,0.897055 0.311467,0.302689 0.539673,0.644728 1.182803,1.777583 0.880741,1.553166 1.276382,2.132561 1.72737,2.518695 0.236542,0.203625 0.571576,0.392531 0.757537,0.425876 0.114825,0.02029 0.203671,-0.0069 0.279856,-0.09007 z"
     id="path5-7"
     style="stroke-width:0.0041874" />
  <path
     d="m 36.7115,41.577887 c -0.03891,-0.01779 -0.291366,-0.34823 -0.307252,-0.401707 -0.0038,-0.01267 0.0017,-0.03412 0.0138,-0.04678 0.02933,-0.03446 0.140214,-0.09402 3.42894,-1.848541 1.577915,-0.841243 2.943733,-1.570743 3.037656,-1.620817 l 0.166823,-0.09101 0.04423,0.02236 c 0.04913,0.02553 0.203334,0.211698 0.276406,0.331162 0.04037,0.06932 0.04581,0.08761 0.02896,0.110821 -0.04113,0.05468 0.09724,-0.01894 -2.851812,1.547225 -0.797648,0.424662 -1.959492,1.041711 -2.579805,1.370792 -0.619895,0.330489 -1.148106,0.610022 -1.172356,0.621617 -0.03252,0.01704 -0.05606,0.01773 -0.08559,0.0049 z"
     id="path6-4"
     style="stroke-width:0.0041874" />
  <path
     d="m 36.131781,40.924871 c -0.651146,-0.861802 -1.347924,-1.733103 -2.27916,-2.3072 -0.328438,-0.233215 -0.747867,-0.199923 -1.094716,-0.366053 -0.445822,-0.370963 0.149764,-0.836282 0.475862,-1.022668 1.57013,-0.988849 3.236159,-1.820918 4.929384,-2.576558 0.634977,-0.26994 1.411067,-0.590718 2.060168,-0.188974 1.00205,0.769636 1.814251,1.753571 2.609964,2.727113 0.198829,0.282825 -0.450396,0.361815 -0.645677,0.545251 -2.009864,1.071082 -4.013871,2.153534 -6.032323,3.20828 l -0.0235,-0.01918 z m 0.863674,-1.094732 c 1.624697,-0.868339 3.256789,-1.724382 4.874114,-2.605567 -0.101422,-0.304522 -0.454068,-0.556766 -0.660837,-0.829367 -0.479269,-0.498587 -0.930282,-1.040894 -1.502292,-1.436521 -0.462992,-0.242715 -0.939762,0.10558 -1.372665,0.256329 -0.219269,0.163367 0.419081,0.388422 0.544271,0.561554 0.451054,0.126223 0.54011,0.765774 -0.02816,0.746981 -0.437128,-0.142257 -0.760315,-0.509826 -1.152235,-0.741278 -0.314309,-0.310387 -0.685212,0.11363 -1.0056,0.209834 -1.075926,0.560981 -2.164958,1.107924 -3.179316,1.776349 0.649743,0.215195 1.245459,0.570666 1.741782,1.04295 0.445572,0.391157 0.805247,0.866146 1.211472,1.294037 0.178167,-0.08844 0.353308,-0.183001 0.529466,-0.275301 z"
     id="path7-3"
     style="stroke-width:0.0041874;stroke:#000000;stroke-opacity:1" />
</svg>
