<?xml version="1.0" encoding="UTF-8" standalone="no"?>
<svg
   height="256"
   viewBox="0 0 72.248892 72.248892"
   width="256"
   version="1.1"
   id="svg6"
   sodipodi:docname="select_by_pen_drawing.svg"
   inkscape:version="1.3.2 (091e20e, 2023-11-25, custom)"
   xmlns:inkscape="http://www.inkscape.org/namespaces/inkscape"
   xmlns:sodipodi="http://sodipodi.sourceforge.net/DTD/sodipodi-0.dtd"
   xmlns="http://www.w3.org/2000/svg"
   xmlns:svg="http://www.w3.org/2000/svg">
  <defs
     id="defs6" />
  <sodipodi:namedview
     id="namedview6"
     pagecolor="#ffffff"
     bordercolor="#000000"
     borderopacity="0.25"
     inkscape:showpageshadow="2"
     inkscape:pageopacity="0.0"
     inkscape:pagecheckerboard="0"
     inkscape:deskcolor="#d1d1d1"
     inkscape:zoom="0.60205078"
     inkscape:cx="-627.02352"
     inkscape:cy="314.7575"
     inkscape:window-width="2560"
     inkscape:window-height="1417"
     inkscape:window-x="-8"
     inkscape:window-y="-8"
     inkscape:window-maximized="1"
     inkscape:current-layer="svg6" />
  <path
     style="fill:#ffffff;fill-opacity:1;stroke:#000000;stroke-width:2.25777787;stroke-linecap:round;stroke-linejoin:round;stroke-dasharray:none;paint-order:fill markers stroke"
     d="m 5.5562664,20.741618 54.2181116,0.07603"
     id="path40" />
  <path
     style="fill:#ffffff;fill-opacity:1;stroke:#000000;stroke-width:2.25777787;stroke-linecap:round;stroke-linejoin:round;stroke-dasharray:none;paint-order:fill markers stroke"
     d="M 20.66371,5.0101299 20.817154,58.740366"
     id="path41" />
  <path
     style="fill:#ffffff;fill-opacity:1;stroke:#000000;stroke-width:2.25777787;stroke-linecap:round;stroke-linejoin:round;stroke-dasharray:none;paint-order:fill markers stroke"
     d="M 14.841891,54.592003 H 63.918142"
     id="path42" />
  <path
     style="fill:#ffffff;fill-opacity:1;stroke:#000000;stroke-width:2.25777787;stroke-linecap:round;stroke-linejoin:round;stroke-dasharray:none;paint-order:fill markers stroke"
     d="m 53.906816,17.370517 0.07666,48.432414"
     id="path43" />
  <ellipse
     cx="-54.591988"
     cy="53.945221"
     transform="rotate(-90)"
     id="ellipse43"
     style="fill:#ffffff;fill-opacity:1;stroke:#000000;stroke-width:2.25777787;stroke-linecap:square;stroke-dasharray:none;stroke-dashoffset:8"
     rx="5.1657286"
     ry="5.1368232" />
  <ellipse
     cx="-20.779633"
     cy="20.740433"
     transform="rotate(-90)"
     id="ellipse44"
     style="fill:#00ff7f;stroke:#000000;stroke-width:2.25778;stroke-linecap:square;stroke-dasharray:none;stroke-dashoffset:8"
     rx="6.1486783"
     ry="6.5596747"
     inkscape:transform-center-x="3.1489568"
     inkscape:transform-center-y="-0.82867286" />
  <path
     style="fill:#ffffff;fill-opacity:1;stroke:#000000;stroke-width:1.97555564;stroke-linecap:round;stroke-linejoin:round;stroke-dasharray:none;paint-order:fill markers stroke"
     d="m 36.025133,51.507287 c 4.446564,-1.889995 8.893127,-3.780024 13.33969,-5.670019 -0.384484,-0.953958 -0.868654,-1.888745 -1.191072,-2.854589 0.0537,-2.487712 0.107377,-4.975461 0.160737,-7.463173 -1.229129,-2.669009 -2.458292,-5.338017 -3.687421,-8.007025 -0.769105,-0.609034 -1.538175,-1.218066 -2.30728,-1.827099 -0.93126,0.138139 -1.862552,0.276281 -2.793846,0.414278 0.732702,1.52783 1.465371,3.055662 2.198108,4.583489 -0.514222,0.02845 -1.168076,0.319117 -1.597001,0.18633 -0.676984,-1.386405 -1.26158,-2.84659 -1.995531,-4.187594 -0.491901,-0.36791 -0.983769,-0.73582 -1.475704,-1.103733 -0.920927,0.378334 -1.841887,0.756706 -2.762833,1.135039 0.766659,1.735364 1.533299,3.470724 2.299972,5.206087 -0.475997,0.04963 -1.19276,0.632771 -1.505353,0.31982 -0.727117,-1.639555 -1.382348,-3.325944 -2.154064,-4.936446 -0.397292,-0.413672 -0.794588,-0.827345 -1.191919,-1.241018 -0.885679,0.376192 -1.771398,0.752349 -2.657078,1.128541 0.865438,2.085284 1.73084,4.170604 2.596278,6.255887 -1.034117,0.493703 -1.522325,0.691775 -1.773523,-0.436482 -1.613309,-3.760999 -3.226585,-7.521996 -4.839895,-11.282996 -0.504666,-0.328386 -1.009298,-0.656651 -1.513966,-0.984976 -0.744702,0.335891 -1.489439,0.672033 -2.234176,1.00807 -0.12497,0.638734 -0.414225,1.290706 -0.440986,1.921478 2.229313,5.024256 4.458625,10.048547 6.687942,15.072803 -1.467398,-0.447833 -2.934792,-0.89563 -4.402186,-1.343463 -0.936649,0.394076 -1.873298,0.788152 -2.809946,1.182228 0.327787,0.566163 0.453878,1.306268 0.911039,1.76074 4.594778,2.870259 9.189523,5.740519 13.784321,8.610775 0.451887,0.851012 0.903773,1.70199 1.35566,2.553002 z"
     id="path44" />
  <g
     transform="matrix(0.00182171,-5.2663215e-4,4.1803682e-4,0.00140728,32.081183,36.345496)"
     id="g7"
     style="stroke-width:2.50972">
    <path
       d="m 4908,9786 c -70,-19 -152,-72 -246,-161 -299,-281 -505,-748 -681,-1545 -50,-227 -106,-516 -181,-930 -181,-1007 -219,-1163 -344,-1425 -145,-301 -311,-513 -544,-688 -226,-171 -377,-245 -782,-382 -212,-71 -397,-142 -405,-155 -7,-11 -25,-6 720,-209 2240,-608 2997,-812 3002,-807 8,8 -79,119 -254,326 -309,366 -427,562 -494,829 -54,211 -74,491 -48,678 20,153 85,383 210,753 70,206 184,542 252,745 195,574 301,923 377,1238 84,352 109,530 117,837 6,262 -6,434 -37,524 -57,167 -166,304 -272,344 -111,41 -292,54 -390,28 z m 236,-410 c 19,-14 43,-45 55,-68 44,-92 51,-353 15,-613 -61,-437 -220,-998 -610,-2140 -350,-1029 -359,-1065 -358,-1445 1,-297 23,-431 125,-758 29,-89 49,-165 46,-169 -15,-15 -1409,366 -1435,392 -4,3 -2,9 4,13 6,4 66,50 135,102 309,236 574,569 723,908 112,257 176,524 331,1387 212,1183 325,1637 495,1975 89,178 230,365 319,422 55,35 104,34 155,-6 z"
       id="path5-7"
       style="stroke-width:2.50972" />
    <path
       d="m 1555,4300 c -17,-19 -95,-283 -95,-321 0,-9 6,-22 14,-28 20,-17 85,-35 2011,-561 924,-252 1724,-471 1779,-486 l 98,-28 19,23 c 21,26 71,177 90,269 10,53 10,66 -2,78 -29,28 52,6 -1674,473 -467,127 -1147,311 -1510,409 -363,99 -672,182 -686,185 -19,5 -31,1 -44,-13 z"
       id="path6-4"
       style="stroke-width:2.50972" />
    <path
       d="M 1360,3763 C 1360,3705 1080,2863 985,2635 858,2330 719,2061 586,1865 553,1816 478,1728 420,1670 336,1586 299,1557 237,1526 135,1475 78,1424 41,1348 16,1300 10,1274 10,1226 10,1064 91,966 315,856 722,656 1940,311 2925,116 3483,6 3735,-20 3934,15 c 104,18 166,41 255,94 145,86 199,155 344,446 197,395 371,833 624,1565 99,287 186,570 179,577 -5,5 -246,73 -706,199 -1980,543 -3237,884 -3261,884 -5,0 -9,-8 -9,-17 z m 601,-553 c 303,-81 2648,-721 2792,-761 66,-19 77,-25 77,-44 0,-43 -161,-493 -333,-930 C 4294,959 4146,639 4063,535 3969,418 3882,383 3710,393 c -91,5 -430,54 -439,63 -8,8 37,91 179,335 214,365 233,409 210,478 -16,50 -62,106 -103,128 -40,20 -123,21 -162,0 -60,-31 -101,-88 -290,-407 C 3035,872 2946,727 2907,668 2839,564 2835,560 2800,560 2593,560 962,1008 593,1167 l -83,35 139,137 c 154,152 258,285 378,485 196,329 351,685 535,1229 44,130 85,237 90,237 6,0 145,-36 309,-80 z"
       id="path7-3"
       style="stroke-width:2.50972" />
  </g>
</svg>
