<svg height="256" viewBox="0 0 72.248892 72.248892" width="256" xmlns="http://www.w3.org/2000/svg"><path d="m12.742224 63.951108 47.916116-17.386538" fill="none" stroke="#000" stroke-width="2.25778"/><path d="m4.4651268 30.876994h7.1272142v.611849q-.677995 0-.959115.231511-.264583.23151-.264583.611849 0 .396875.578776 1.223698.181901.264583.545703.826823l1.07487 1.719792 1.240234-1.719792q1.190625-1.63711 1.190625-2.067058 0-.347265-.281119-.578776-.28112-.248047-.909506-.248047v-.611849h5.126303v.611849q-.810287.04961-1.405599.446485-.810287.562239-2.215886 2.447396l-2.067057 2.761589 3.770312 5.423958q1.389063 2.000912 1.984376 2.414323.595312.396875 1.53789.446485v.595312h-7.14375v-.595312q.744141 0 1.157552-.33073.314193-.23151.314193-.611849 0-.380338-1.058334-1.918229l-2.215885-3.241146-2.4308597 3.241146q-1.1244793 1.504818-1.1244793 1.785938 0 .396875.3638021.727604.3803386.314193 1.1244793.347266v.595312h-4.9444014v-.595312q.5953126-.082683 1.041797-.413412.6283854-.479557 2.1166668-2.447396l3.1750002-4.216797-2.877344-4.167188q-1.2236979-1.785937-1.9016928-2.232422-.6614584-.463021-1.6701824-.463021z" transform="matrix(.94082443 -.33889438 .33889438 .94082443 24.464115 -1.062812)"/><g stroke-width="1.10784" transform="matrix(.2403752 -.0905077 .09197301 .23535225 6.78879 35.400028)"><path d="m176 100v32l0 0c10.66667-5.33333 21.33333-10.66667 32-16l0 0c-10.66667-5.33333-21.33333-10.66667-32-16z" fill-rule="evenodd"/><path d="m140.20142 116h35.79858" fill="none" stroke="#000" stroke-width="8.86275"/></g><g stroke-width="1.10784" transform="matrix(-.07935258 -.23986325 .24484068 -.0777394 -5.599747 73.02144)"><path d="m176 100v32l0 0c10.66667-5.33333 21.33333-10.66667 32-16l0 0c-10.66667-5.33333-21.33333-10.66667-32-16z" fill-rule="evenodd"/><path d="m140.20142 116h35.79858" fill="none" stroke="#000" stroke-width="8.86275"/></g><g stroke="#000"><path d="m24.523754 69.286449-15.6829125-47.500367" fill="none" stroke-width="2.25779"/><ellipse cx="1.53253" cy="-63.797138" fill="#00ff7f" rx="5.137754" ry="5.052932" stroke-dashoffset="8" stroke-linecap="square" stroke-width="2.25786" transform="matrix(.95328464 -.30207349 -.3135179 -.94958229 0 0)"/><g fill-rule="evenodd" stroke-width="5.36312" transform="matrix(.42653758 0 0 .4155003 10.851242 1.397443)"><path d="m10.160001 53.057781v-42.89778h51.928892v47.413336l-4.515556 4.515556h-38.382225z" fill="#fff"/><path d="m19.191112 11.28889v19.191112l4.515556 4.515556h24.835557l4.515556-4.515556v-19.191112" fill="#00ff7f"/><path d="m23.706668 60.960004v-14.675557l2.257778-2.257778h20.320001l2.257778 2.257778v14.675557" fill="#00ff7f"/><path d="m28.222224 57.573337v-9.031112h4.515556v9.031112z" fill="#fff"/></g></g></svg>
