<svg height="256" viewBox="0 0 72.248892 72.248892" width="256" xmlns="http://www.w3.org/2000/svg"><g fill="none" stroke="#000" stroke-linecap="square" stroke-width="2.257778"><path d="m32.173336 6.2088909h7.902224"/><path d="m52.327071 10.668076 6.053454 5.079451"/><path d="m40.07556 6.2088909q-.12828 19.4124121 12.251511 4.4591851"/><path d="m64.899418 27.038581 1.372207 7.782171"/><path d="m58.380525 15.747527q-12.576326 14.788315 6.518893 11.291054"/><path d="m64.007637 47.660465-3.951111 6.843526"/><path d="m66.271625 34.820752q-19.13977 3.2446-2.263988 12.839713"/><path d="m50.069002 62.884518-7.425661 2.70272"/><path d="m60.056526 54.503991q-16.747503-9.817299-9.987524 8.380527"/><path d="m29.605555 65.587238-7.425661-2.70272"/><path d="m42.643341 65.587238q-6.518893-18.285575-13.037786 0"/><path d="m12.19237 54.503991-3.9511113-6.843526"/><path d="m22.179894 62.884518q6.759979-18.197826-9.987524-8.380527"/><path d="m5.9772707 34.820752 1.3722066-7.782171"/><path d="m8.2412587 47.660465q16.8757813-9.595113-2.263988-12.839713"/><path d="m13.86837 15.747527 6.053454-5.079451"/><path d="m7.3494773 27.038581q19.0952187 3.497261 6.5188927-11.291054"/><path d="m19.921824 10.668076q12.379791 14.953227 12.251512-4.4591851"/><path d="m48.542227 36.124449a12.41778 12.41778 0 1 0 -24.835559 0 12.41778 12.41778 0 0 0 24.835559 0z"/></g><path d="m93.132424 223.72913c-4.949423-1.79374-9.049812-3.29967-9.111975-3.3465-.06216-.0468.509392-2.04897 1.270123-4.4492 3.026465-9.54903 4.142257-15.36944 4.158117-21.69041.0093-3.70193-.08237-4.77347-.556248-6.50258-1.510674-5.51228-4.564123-8.82819-9.451418-10.26383-6.699869-1.96808-16.882198.62406-30.563181 7.78054-2.104554 1.10089-3.928327 2.00161-4.052829 2.00161-.124503 0-2.262633-3.53578-4.751401-7.85729-2.488767-4.32151-4.688352-8.11424-4.887966-8.42829-.343544-.54048-.251231-.64004 1.727914-1.86345 8.919588-5.51366 16.503287-11.62482 19.909484-16.04363 5.550142-7.20012 5.958079-13.97062 1.18676-19.69657-1.960554-2.35281-4.497947-4.16542-8.797632-6.28465-5.372594-2.64806-11.854867-4.70573-20.274586-6.43578-1.547664-.31801-2.849207-.61347-2.892318-.65658-.119887-.11989 3.224163-19.07121 3.401701-19.27803.08555-.0997.699516-.0745 1.364364.0559 2.131147.41801 10.498333 1.29358 14.102833 1.47578 2.039084.10306 5.05088.0452 7.2383-.13896 10.256565-.8637 16.194231-4.354951 18.144309-10.668567.674833-2.184859.720593-6.019672.10449-8.756433-1.363139-6.055143-5.892537-14.137861-13.120306-23.413224-1.814916-2.329076-2.224277-3.011506-1.95819-3.264441 1.047383-.995625 14.568927-12.191743 14.723956-12.191743.102304 0 1.703553 1.671261 3.558333 3.713915 11.784285 12.977924 21.713453 18.765501 29.406242 17.140492 2.68465-.5671 4.42288-1.563504 6.69582-3.838238 1.62049-1.621777 2.17386-2.429816 3.40816-4.97668 2.91468-6.014129 4.31659-13.408247 4.8929-25.806541l.18418-3.962224h9.85808 9.85808l.16963 4.902413c.46225 13.359325 2.84617 23.122401 6.96919 28.541448 3.73197 4.905084 9.58034 6.595662 15.72317 4.545061 3.577-1.194075 6.78386-3.075075 11.22225-6.582474 2.58772-2.044919 9.39804-8.69713 11.98934-11.71098l1.8894-2.197501 7.5729 6.345942 7.57291 6.345942-2.70215 3.510985c-13.673 17.765753-16.70214 29.58602-9.43796 36.828673 2.76251 2.754321 6.19243 4.287605 11.50622 5.143635 5.30085.85394 15.58196.48606 23.97251-.85778 1.18195-.1893 2.17644-.32061 2.20999-.29179.0335.0288.82944 4.39683 1.76868 9.7067l1.7077 9.6543-1.50006.33494c-16.8197 3.75562-24.9399 7.11464-29.86302 12.35321-6.48691 6.90256-5.15854 15.11374 3.90118 24.11459 3.63414 3.61053 12.06313 9.87581 17.00715 12.64146.77551.43381 1.41014.88395 1.41029 1.0003s-2.1939 4.01554-4.87566 8.66486l-4.87593 8.4533-1.10099-.64453c-2.26558-1.32632-9.80135-4.99879-12.65187-6.16576-3.32181-1.3599-8.19243-2.87839-11.01364-3.43368-1.0413-.20495-3.37873-.36046-5.2382-.34849-3.61279.0233-5.57218.48596-7.98279 1.88512-2.68483 1.55832-5.12584 5.00759-6.15971 8.70397-.7506 2.68361-.68324 10.57263.12729 14.90871.7794 4.16952 2.41193 10.43246 3.78017 14.50197.59539 1.77083.99619 3.29805.89068 3.3938-.45204.41024-18.16923 6.67591-18.34571 6.48794-.10712-.11408-.82535-1.77889-1.59607-3.69956s-2.28493-5.30535-3.36492-7.52151c-5.30097-10.87779-10.39197-16.7779-16.39129-18.99637-2.27958-.84295-6.30691-.81973-8.57779.0495-7.15022 2.73677-13.71407 11.75109-20.00669 27.47577-.63558 1.58824-1.22934 2.88213-1.31947 2.8753-.0901-.007-4.213403-1.48003-9.162826-3.27377zm44.729686-48.64322c15.86827-3.54064 28.51044-14.03144 34.55364-28.6735 6.70151-16.23705 4.06244-34.94079-6.83926-48.471592-15.76413-19.565881-43.53545-23.811752-64.41703-9.848524-11.40481 7.626243-18.779941 19.450986-20.802527 33.353246-.616683 4.23878-.428076 11.55754.404593 15.69988 2.558117 12.72611 9.911737 23.70486 20.763884 30.99992 4.09099 2.75005 9.64428 5.19494 14.77554 6.50507 4.36191 1.11369 6.47042 1.31331 12.69296 1.20165 5.03736-.0904 6.34649-.20348 8.8682-.76615z" fill="#00ff7f" transform="scale(.28222224)"/></svg>
