<svg height="256" viewBox="0 0 72.248892 72.248892" width="256" xmlns="http://www.w3.org/2000/svg"><path d="m15.052332 3.704084h35.547783v62.044209h-35.547783z" fill="none" opacity="0" stroke="#000" stroke-linecap="square" stroke-width=".399268" transform="matrix(.97049632 .24111593 -.24111593 .97049632 0 0)"/><path d="m56.668557 11.54974-39.744713 46.815289" fill="none" stroke="#000" stroke-width="2.17377"/><g transform="matrix(.64719185 -.76232716 .23485924 .97202939 0 0)"><rect height="21.888378" ry=".052044" width="2.217254" x="63.051796" y="52.580948"/><rect height="21.888378" ry=".052044" width="2.217254" x="22.747967" y="52.003757"/><rect fill="#00ff7f" height="18.664072" ry=".052044" width="1.225352" x="23.800085" y="53.553207"/><rect height="21.888378" ry=".052044" width="2.217254" x="2.869656" y="50.755447"/><rect fill="#00ff7f" height="18.664072" ry=".052044" width="1.225352" x="3.908859" y="52.340481"/><rect height="21.888378" ry=".052044" width="2.217254" x="43.235676" y="52.297134"/><rect fill="#00ff7f" height="18.664072" ry=".052044" width="1.225352" x="44.247261" y="53.769081"/><rect fill="#00ff7f" height="18.664072" ry=".052044" width="1.225352" x="64.170265" y="54.136723"/></g></svg>
