<svg fill-rule="evenodd" height="72.3mm" preserveAspectRatio="xMidYMid" stroke-linejoin="round" stroke-width="28.222" viewBox="0 0 7230 7230" width="72.3mm" xmlns="http://www.w3.org/2000/svg" xmlns:xlink="http://www.w3.org/1999/xlink"><clipPath id="a"><path d="m0 0h7230v7230h-7230z"/></clipPath><g clip-path="url(#a)"><path d="m1100 1100h5031v171h-5031z" fill="none"/><path d="m3615 1270h-2515v-170h5030v170z"/><path d="m1080 5960h5051v181h-5051z" fill="none"/><path d="m3605 6140h-2525v-180h5050v180z"/><path d="m5950 1100h181v5001h-181z" fill="none"/><path d="m6130 3600v2500h-180v-5000h180z"/><path d="m1080 1100h181v5001h-181z" fill="none"/><path d="m1260 3600v2500h-180v-5000h180z"/><path d="m2954 2959h1272v1273h-1272z" fill="none"/><path d="m4225 3595c0 112-29 221-85 318s-136 177-233 233c-96 56-206 85-317 85-112 0-222-29-318-85-97-56-177-136-233-233s-85-206-85-318 29-221 85-318 136-177 233-233c96-56 206-85 317-85 112 0 222 29 318 85 97 56 177 136 233 233s85 206 85 318z"/><g fill="none"><path d="m1118 1116h4971v4969h-4971z"/><path d="m1210 5992 255-254" stroke="#000" stroke-linejoin="round" stroke-width="183"/><path d="m1720 5483 255-255" stroke="#000" stroke-linejoin="round" stroke-width="183"/><path d="m2230 4973 255-255" stroke="#000" stroke-linejoin="round" stroke-width="183"/><path d="m2740 4463 255-255" stroke="#000" stroke-linejoin="round" stroke-width="183"/><path d="m3250 3953 255-255" stroke="#000" stroke-linejoin="round" stroke-width="183"/><path d="m3760 3443 255-255" stroke="#000" stroke-linejoin="round" stroke-width="183"/><path d="m4270 2933 254-254" stroke="#000" stroke-linejoin="round" stroke-width="183"/><path d="m4779 2424 255-255" stroke="#000" stroke-linejoin="round" stroke-width="183"/><path d="m5289 1914 255-255" stroke="#000" stroke-linejoin="round" stroke-width="183"/><path d="m5799 1404 197-196" stroke="#000" stroke-linejoin="round" stroke-width="183"/><path d="m3160 3160h862v862h-862z"/></g><path d="m4021 3591c0 75-20 149-58 215-37 65-92 120-157 157-66 38-140 58-215 58-76 0-150-20-216-58-65-37-120-92-157-157-38-66-58-140-58-215 0-76 20-150 58-216 37-65 92-120 157-157 66-38 140-58 215-58 76 0 150 20 216 58 65 37 120 92 157 157 38 66 58 140 58 215z" fill="#00ff7f"/></g></svg>
