<svg height="256" viewBox="0 0 72.248892 72.248892" width="256" xmlns="http://www.w3.org/2000/svg"><g stroke-width="2.25778"><path d="m60 26c-17.111643-7.968402-20.251085-8.278349-21-8.633981-7 2-12.226665 9.715431-19 19.644444-6 11.989537-5 11.989537-9 22.989537" fill="none" stroke="#000"/><path d="m62 31c5-15-17-14-23-13.633981-13-.366019-21 7.633981-16.678357 20.278425-5.321643 25.355556-16.8741356 16.714213-11.321643 22.024165" fill="none" stroke="#00ff7f"/><circle cx="-39" cy="16.644445" fill="#00ff7f" r="5.644445" stroke="#000" stroke-dashoffset="1.6" transform="scale(-1 1)"/><circle cx="-20" cy="37.644444" fill="#00ff7f" r="5.644445" stroke="#000" stroke-dashoffset="1.6" transform="scale(-1 1)"/><circle cx="-11" cy="60.644444" fill="#00ff7f" r="5.644445" stroke="#000" stroke-dashoffset="1.6" transform="scale(-1 1)"/><circle cx="-64" cy="28.644445" fill="#00ff7f" r="5.644445" stroke="#000" stroke-dashoffset="1.6" transform="scale(-1 1)"/></g><path d="m232 232-28-8.20101-28 8.20101 8.20101-28-8.20101-28 28 8.20101 28-8.20101-8.20101 28z" fill="#00ff7f" transform="matrix(0 .28222223 -.28222223 0 119.05686 -47.702224)"/><g fill="none" stroke="#000" stroke-width="2.25778" transform="matrix(-.70710123 -.70711233 .70711233 -.70710123 21.570874 60.95848)"><path d="m2.2577797 64.346716 11.2888893-.000088"/><path d="m7.9022689 69.991117-.0000886-11.28889"/></g><path d="m232 232-28-8.20101-28 8.20101 8.20101-28-8.20101-28 28 8.20101 28-8.20101-8.20101 28z" fill="#00ff7f" transform="matrix(0 .28222223 -.28222223 0 74.16105 -44.573335)"/><g fill="none" stroke="#000" stroke-width="2.25778" transform="matrix(-.70710123 -.70711233 .70711233 -.70710123 -23.324935 64.08737)"><path d="m2.2577797 64.346716 11.2888893-.000088"/><path d="m7.9022689 69.991117-.0000886-11.28889"/></g><path d="m232 232-28-8.20101-28 8.20101 8.20101-28-8.20101-28 28 8.20101 28-8.20101-8.20101 28z" fill="#00ff7f" transform="matrix(0 .28222223 -.28222223 0 85.573332 -.573334)"/><g fill="none" stroke="#000" stroke-width="2.25778" transform="matrix(-.70710123 -.70711233 .70711233 -.70710123 -11.912652 108.087371)"><path d="m2.2577797 64.346716 11.2888893-.000088"/><path d="m7.9022689 69.991117-.0000886-11.28889"/></g></svg>
