<svg height="256" viewBox="0 0 72.248892 72.248892" width="256" xmlns="http://www.w3.org/2000/svg"><g stroke="#000"><g stroke-width="2.25778"><path d="m19.826125 61.489536c18.817275-11.309737-.809069-16.653704-1.925598-21.229269" fill="none"/><path d="m18.482286 40.508733c-10.1624761-15.898521 12.392209-37.2079715 34.500853-29.716481" fill="none"/><circle cx="-13.743516" cy="41.86208" fill="#00ff7f" r="5.644445" stroke-dashoffset="1.6" transform="matrix(-.99488838 .10098072 .10098072 .99488838 0 0)"/><circle cx="-53.018925" cy="16.206024" fill="#00ff7f" r="5.644445" stroke-dashoffset="1.6" transform="matrix(-.99488838 .10098072 .10098072 .99488838 0 0)"/><path d="m44.560694 45.082192-10.570186-11.765199-3.436523 4.620702-3.844386-17.792192 17.280424 5.720874-4.897483 2.994569 10.50667 11.694499-5.038514 4.526746" fill="#fff" fill-rule="evenodd" stroke-linecap="square"/><circle cx="-13.181514" cy="62.669254" fill="#00ff7f" r="5.644445" stroke-dashoffset="1.6" transform="matrix(-.99488838 .10098072 .10098072 .99488838 0 0)"/></g><path d="m66.031113 54.999999-18.062227.000002" fill="none" stroke-width="4.51556"/><path d="m57.000003 45.968888v18.062223" fill="none" stroke-width="4.51556"/></g></svg>
