<svg height="256" viewBox="0 0 72.248892 72.248892" width="256" xmlns="http://www.w3.org/2000/svg"><g stroke="#000"><g stroke-width="2.25778"><path d="m11 19c11 19 16.664722-.536178 21.257962-1.577611" fill="none"/><path d="m32 18c9.375824-4.522078 18.68971-4.201579 20 7" fill="none"/><circle cx="-20.091146" cy="-30.666946" fill="#00ff7f" r="5.644445" stroke-dashoffset="1.6" transform="matrix(-.08467125 -.99640894 -.99640894 .08467125 0 0)"/><path d="m61.147386 54.384426c-4.020457-5.543262 8.261838-19.447438-8.147386-29.384426" fill="none"/><circle cx="-59.366554" cy="-56.323002" fill="#00ff7f" r="5.644445" stroke-dashoffset="1.6" transform="matrix(-.08467125 -.99640894 -.99640894 .08467125 0 0)"/><circle cx="-28.382433" cy="-51.332497" fill="#00ff7f" r="5.644445" stroke-dashoffset="1.6" transform="matrix(-.08467125 -.99640894 -.99640894 .08467125 0 0)"/></g><path d="m32.507894 54.933707 18.06222.0025" fill="none" stroke-width="4.51556"/><path d="m23.774262 44.440246 11.936756-10.376058-4.563793-3.511748 17.852775-3.55244-6.003154 17.1844-2.913948-4.945876-11.865026 10.313708-4.44361-5.111984" fill="#fff" fill-rule="evenodd" stroke-linecap="square" stroke-width="2.25778"/><circle cx="-19.529144" cy="-9.859772" fill="#00ff7f" r="5.644445" stroke-dashoffset="1.6" stroke-width="2.25778" transform="matrix(-.08467125 -.99640894 -.99640894 .08467125 0 0)"/></g></svg>
