<svg fill="none" height="800" viewBox="0 0 24 24" width="800" xmlns="http://www.w3.org/2000/svg"><path d="m4.0873989.8653571h15.9627951c1.76325 0 3.192558 1.428099 3.192558 3.18975v15.9487549c0 1.7617-1.429308 3.189748-3.192558 3.189748h-15.9627951c-1.7632022 0-3.19255875-1.428048-3.19255875-3.189748v-15.9487549c0-1.761651 1.42935655-3.18975 3.19255875-3.18975z" stroke="#464455" stroke-linecap="round" stroke-linejoin="round" stroke-width="1.59559"/><path d="m5.0439799 21.836364h14.0000001zm11.0000001-9v5h-8.0000001v-5h-5l9.0000001-9.0000004 9 9.0000004z" fill="#464455"/><path d="m5.7263487 19.29168 12.5646103-.0556" fill="#464455"/><path d="m119.1604 743.72796c-26.610104-5.78127-50.384024-27.69057-58.266555-53.69665-3.095713-10.21339-3.129978-13.8997-2.717669-292.37506l.417574-282.03125 3.633935-8.56112c9.205567-21.687238 27.004734-38.595065 49.153535-46.692045l11.27503-4.121835h279.6875 279.6875l10.15625 3.615847c19.70444 7.01521 36.14378 20.824655 45.34789 38.093327 9.88685 18.549626 9.30436-.452092 9.28288 302.822076-.0125 185.75552-.55444 279.66571-1.63903 284.375-6.61139 28.70641-33.39599 53.88181-63.04433 59.25672-6.40214 1.16063-93.44055 1.64234-281.25 1.55656-222.64288-.10168-273.74652-.50829-281.72451-2.24157zm416.7771-232.00921v-82.8125h82.8125c45.54688 0 82.8125-.52872 82.8125-1.17492 0-.64622-67.5-68.67219-150-151.16883l-150-149.9939-150 149.9939c-82.5 82.49664-150 150.52261-150 151.16883 0 .6462 37.26563 1.17492 82.8125 1.17492h82.8125v82.8125 82.8125h134.375 134.375z" fill="#00ff7f" transform="scale(.03)"/></svg>
