<svg height="800" viewBox="0 0 16 16" width="800" xmlns="http://www.w3.org/2000/svg"><g fill="#444"><path d="m9 7v-1h-1v-1h-1v1h-.5v1h.5v3.56c.176.835.907 1.453 1.783 1.453.077 0 .152-.005.226-.014l-.009-.999c-.055.012-.119.019-.185.019-.359 0-.669-.21-.813-.514l-.002-3.505z"/><path d="m14 3h1v9h-1z"/><path d="m13 6c-.025-.001-.055-.001-.085-.001-.773 0-1.462.358-1.911.917l-.004-.915h-1v6h1v-3c-.003-.037-.004-.08-.004-.124 0-1.038.842-1.88 1.88-1.88.044 0 .087.001.13.004l-.006-1z"/><path d="m4.19 12c-2.03 0-3.19-1.46-3.19-4s1.16-4 3.19-4h.029c.539 0 1.052.114 1.515.32l-.424.901c-.319-.139-.69-.22-1.08-.22-.014 0-.028 0-.042 0-1.808 0-2.188 1.63-2.188 3s.38 3 2.19 3c.497-.013.96-.145 1.366-.368l.444.898c-.524.285-1.146.458-1.806.47z"/></g></svg>
