<svg fill="none" height="800" stroke="#000" stroke-linecap="round" stroke-linejoin="round" stroke-width="2" viewBox="0 0 24 24" width="800" xmlns="http://www.w3.org/2000/svg"><path d="m5 21h14zm11-9v5h-8v-5h-5l9-9 9 9z"/><path d="m300.0819 463.67338c0-75.7455.18071-71.92285-3.76868-79.72178-2.16007-4.26555-9.41132-11.47763-13.75094-13.67668-7.318-3.70831-7.04165-3.69015-56.16357-3.69015h-45.23426l109.41704-109.41851 109.41704-109.41851 109.25662 109.25471 109.25661 109.25471-46.68422.3276c-45.99458.32275-46.73533.34856-50.14447 1.74662-10.34354 4.24181-17.65976 12.17339-20.7091 22.45092-.94196 3.17478-1.05587 11.03884-1.05587 72.89107v69.33235h-99.9181-99.9181z" fill="#00ff7f" stroke="none" transform="scale(.03)"/></svg>
