<svg height="256" viewBox="0 0 256 256" width="256" xmlns="http://www.w3.org/2000/svg"><g stroke="#000"><path d="m32 184 60.209863-27.87828 71.790137 31.87828 56.23924-24.23924" fill="none" stroke-width="16"/><circle cx="92" cy="156.00002" fill="#00ff7f" opacity=".98" r="16" stroke-dashoffset="6" stroke-linejoin="bevel" stroke-width="8"/><circle cx="164" cy="188.00002" fill="#00ff7f" opacity=".98" r="16" stroke-dashoffset="6" stroke-linejoin="bevel" stroke-width="8"/></g><text font-family="Cordia New" font-size="121.510902" letter-spacing="0" transform="scale(1.0132811 .98689297)" word-spacing="0" x="100.06208" y="139.2415"><tspan x="100.06208" y="139.2415">?</tspan></text><path d="m63.761891 128.50092-13.523785-29.00184h-.000005l-22.239946 28.02468h-.000005c11.921243.32575 23.842498.65145 35.763741.97716z" fill-rule="evenodd"/><path d="m57 114 35.537251-17.62004 21.700849 8.16424" fill="none" stroke="#000" stroke-width="8"/><path d="m193.30746 99.11132 13.52379 29.00185 22.23995-28.02469c-11.92124-.32575-23.8425-.65145-35.76374-.97716z" fill-rule="evenodd"/><path d="m200.06935 113.61224-32.06935 14.38776-21-10" fill="none" stroke="#000" stroke-width="8"/><circle cx="36.66317" cy="180.44493" r="16" style="opacity:.98;fill:#00ff7f;stroke:#000;stroke-width:8;stroke-linejoin:bevel;stroke-dashoffset:6"/><circle cx="219.87408" cy="164.36098" r="16" style="opacity:.98;fill:#00ff7f;stroke:#000;stroke-width:8;stroke-linejoin:bevel;stroke-dashoffset:6"/></svg>
