<svg height="256" viewBox="0 0 72.248892 72.248892" width="256" xmlns="http://www.w3.org/2000/svg"><g stroke="#000" stroke-width="2.257778"><path d="m27.375557 44.02667 31.326669-23.706669" fill="none" stroke-dasharray="4.515556 2.257778"/><path d="m62.197531 17.565306-10.257371 1.467558 6.185017 8.060471z" fill="#00ff7f" fill-rule="evenodd" stroke-linecap="round"/><path d="m9.0311121 57.573337 18.3444449-13.546667" fill="none"/></g><path d="m4.4651268 30.876994h7.1272142v.611849q-.677995 0-.959115.231511-.264583.23151-.264583.611849 0 .396875.578776 1.223698.181901.264583.545703.826823l1.07487 1.719792 1.240234-1.719792q1.190625-1.63711 1.190625-2.067058 0-.347265-.281119-.578776-.28112-.248047-.909506-.248047v-.611849h5.126303v.611849q-.810287.04961-1.405599.446485-.810287.562239-2.215886 2.447396l-2.067057 2.761589 3.770312 5.423958q1.389063 2.000912 1.984376 2.414323.595312.396875 1.53789.446485v.595312h-7.14375v-.595312q.744141 0 1.157552-.33073.314193-.23151.314193-.611849 0-.380338-1.058334-1.918229l-2.215885-3.241146-2.4308597 3.241146q-1.1244793 1.504818-1.1244793 1.785938 0 .396875.3638021.727604.3803386.314193 1.1244793.347266v.595312h-4.9444014v-.595312q.5953126-.082683 1.041797-.413412.6283854-.479557 2.1166668-2.447396l3.1750002-4.216797-2.877344-4.167188q-1.2236979-1.785937-1.9016928-2.232422-.6614584-.463021-1.6701824-.463021z" transform="matrix(.79335334 -.60876143 .60876143 .79335334 0 0)"/></svg>
