<svg height="256" viewBox="0 0 72.248892 72.248892" width="256" xmlns="http://www.w3.org/2000/svg"><path d="m14.699917 45.886107 39.378145-14.547504" fill="none" stroke="#000" stroke-width="2.25778"/><path d="m4.4651268 30.876994h7.1272142v.611849q-.677995 0-.959115.231511-.264583.23151-.264583.611849 0 .396875.578776 1.223698.181901.264583.545703.826823l1.07487 1.719792 1.240234-1.719792q1.190625-1.63711 1.190625-2.067058 0-.347265-.281119-.578776-.28112-.248047-.909506-.248047v-.611849h5.126303v.611849q-.810287.04961-1.405599.446485-.810287.562239-2.215886 2.447396l-2.067057 2.761589 3.770312 5.423958q1.389063 2.000912 1.984376 2.414323.595312.396875 1.53789.446485v.595312h-7.14375v-.595312q.744141 0 1.157552-.33073.314193-.23151.314193-.611849 0-.380338-1.058334-1.918229l-2.215885-3.241146-2.4308597 3.241146q-1.1244793 1.504818-1.1244793 1.785938 0 .396875.3638021.727604.3803386.314193 1.1244793.347266v.595312h-4.9444014v-.595312q.5953126-.082683 1.041797-.413412.6283854-.479557 2.1166668-2.447396l3.1750002-4.216797-2.877344-4.167188q-1.2236979-1.785937-1.9016928-2.232422-.6614584-.463021-1.6701824-.463021z" transform="matrix(.677563 -.23413608 .24406498 .64999882 27.882262 -2.423626)"/><g stroke-width="1.33598" transform="matrix(.19754377 -.07572878 .07558474 .19692178 9.807303 21.997109)"><path d="m176 100v32l0 0c10.66667-5.33333 21.33333-10.66667 32-16l0 0c-10.66667-5.33333-21.33333-10.66667-32-16z" fill-rule="evenodd"/><path d="m140.20142 116h35.79858" fill="none" stroke="#000" stroke-width="10.6879"/></g><g stroke-width="1.41977" transform="matrix(-.06723589 -.19771831 .17486411 -.07345705 3.042986 53.925615)"><path d="m176 100v32l0 0c10.66667-5.33333 21.33333-10.66667 32-16l0 0c-10.66667-5.33333-21.33333-10.66667-32-16z" fill-rule="evenodd"/><path d="m140.20142 116h35.79858" fill="none" stroke="#000" stroke-width="11.3582"/></g><g stroke="#000"><path d="m24.382146 50.350245-12.88844-39.74407" fill="none" stroke-width="2.25779"/><ellipse cx="7.634865" cy="-47.331001" fill="#00ff7f" rx="4.229321" ry="4.220504" stroke-dashoffset="8" stroke-linecap="square" stroke-width="2.25778" transform="matrix(.95169758 -.307037 -.30847159 -.95123356 0 0)"/><path d="m39.290325 58.50183.000001-11.054304 8.907915-.000001-.000001-8.59779h11.453041v8.59779l8.90791.000001v11.054304l-8.90791-.000001v8.597795h-11.45304l-.000001-8.597795z" fill="#00ff7f" fill-rule="evenodd" stroke-linecap="square" stroke-width="1.69333"/></g></svg>
