<svg height="256" viewBox="0 0 72.248892 72.248892" width="256" xmlns="http://www.w3.org/2000/svg"><path d="m7 25c6.835759 7.937636 19.104653 23.941941 28.914359 35.707722" fill="none" stroke="#000" stroke-width="2.25778"/><path d="m4.4651268 30.876994h7.1272142v.611849q-.677995 0-.959115.231511-.264583.23151-.264583.611849 0 .396875.578776 1.223698.181901.264583.545703.826823l1.07487 1.719792 1.240234-1.719792q1.190625-1.63711 1.190625-2.067058 0-.347265-.281119-.578776-.28112-.248047-.909506-.248047v-.611849h5.126303v.611849q-.810287.04961-1.405599.446485-.810287.562239-2.215886 2.447396l-2.067057 2.761589 3.770312 5.423958q1.389063 2.000912 1.984376 2.414323.595312.396875 1.53789.446485v.595312h-7.14375v-.595312q.744141 0 1.157552-.33073.314193-.23151.314193-.611849 0-.380338-1.058334-1.918229l-2.215885-3.241146-2.4308597 3.241146q-1.1244793 1.504818-1.1244793 1.785938 0 .396875.3638021.727604.3803386.314193 1.1244793.347266v.595312h-4.9444014v-.595312q.5953126-.082683 1.041797-.413412.6283854-.479557 2.1166668-2.447396l3.1750002-4.216797-2.877344-4.167188q-1.2236979-1.785937-1.9016928-2.232422-.6614584-.463021-1.6701824-.463021z" transform="matrix(.28347366 .33884134 -.30355019 .25259857 34.015011 49.482269)"/><g stroke-width="1.24675" transform="matrix(.14277198 .16609753 -.17573796 .15445345 30.751548 12.896029)"><path d="m176 100v32l0 0c10.66667-5.33333 21.33333-10.66667 32-16l0 0c-10.66667-5.33333-21.33333-10.66667-32-16z" fill-rule="evenodd"/><path d="m140.20142 116h35.79858" fill="none" stroke="#000" stroke-width="9.97404"/></g><g stroke-width="1.24675" transform="matrix(.17821766 -.15153924 .13963529 .16878819 -6.478648 16.553523)"><path d="m176 100v32l0 0c10.66667-5.33333 21.33333-10.66667 32-16l0 0c-10.66667-5.33333-21.33333-10.66667-32-16z" fill-rule="evenodd"/><path d="m140.20142 116h35.79858" fill="none" stroke="#000" stroke-width="9.97404"/></g><path d="m5.7861812 39.449781 35.3021168-29.984214" fill="none" stroke="#000" stroke-width="2.25779"/><ellipse cx="34.511288" cy="-9.305574" fill="#00ff7f" rx="4.382155" ry="4.678147" stroke="#000" stroke-dashoffset="8" stroke-linecap="square" stroke-width="2.25799" transform="matrix(.60695136 .79473898 .78281533 -.62225409 0 0)"/><g stroke="#00ff7f"><text stroke-width="10" transform="scale(.28222223)"/><text fill="#fff" stroke-width="2.82222" x="-71.718208" y="-20"><tspan stroke-width="2.82222" x="-71.718208" y="-20"/></text><text fill="#fff" stroke-width="10" transform="scale(.28222223)"/><text fill="#fff" stroke-width="2.82222" x="-66" y="-15.389848"><tspan stroke-width="2.82222" x="-66" y="-15.389848"/></text><text fill="#fff" stroke-width="10" transform="scale(.28222223)"/></g><ellipse cx="48.224712" cy="32.89439" fill="#00ff7f" rx="10.178813" ry="8.372978"/><path d="m29.943329 34.555848a21.430407 17.359558 0 0 1 18.559276-8.67978 21.430407 17.359558 0 0 1 18.559277 8.679779" fill="none" stroke="#000" stroke-dashoffset="15.2" stroke-width="2.822222"/><ellipse cx="48.761135" cy="33.138477" rx="5.357599" ry="4.872973"/><path d="m29.930649-32.279865a21.430407 17.01125 0 0 1 18.559276-8.505625 21.430407 17.01125 0 0 1 18.559277 8.505624" fill="none" stroke="#000" stroke-dashoffset="15.2" stroke-width="2.822222" transform="scale(1 -1)"/><ellipse cx="48.489925" cy="33.217896" fill="none" rx="9.857488" ry="7.567593" stroke="#000" stroke-dashoffset="15.2" stroke-width="2.25778"/></svg>
