<svg height="256" viewBox="0 0 72.248892 72.248892" width="256" xmlns="http://www.w3.org/2000/svg"><path d="m4.8076169 53.225171 50.9707781.475463" fill="none" stroke="#000" stroke-width="2.25778"/><path d="m4.4651268 30.876994h7.1272142v.611849q-.677995 0-.959115.231511-.264583.23151-.264583.611849 0 .396875.578776 1.223698.181901.264583.545703.826823l1.07487 1.719792 1.240234-1.719792q1.190625-1.63711 1.190625-2.067058 0-.347265-.281119-.578776-.28112-.248047-.909506-.248047v-.611849h5.126303v.611849q-.810287.04961-1.405599.446485-.810287.562239-2.215886 2.447396l-2.067057 2.761589 3.770312 5.423958q1.389063 2.000912 1.984376 2.414323.595312.396875 1.53789.446485v.595312h-7.14375v-.595312q.744141 0 1.157552-.33073.314193-.23151.314193-.611849 0-.380338-1.058334-1.918229l-2.215885-3.241146-2.4308597 3.241146q-1.1244793 1.504818-1.1244793 1.785938 0 .396875.3638021.727604.3803386.314193 1.1244793.347266v.595312h-4.9444014v-.595312q.5953126-.082683 1.041797-.413412.6283854-.479557 2.1166668-2.447396l3.1750002-4.216797-2.877344-4.167188q-1.2236979-1.785937-1.9016928-2.232422-.6614584-.463021-1.6701824-.463021z" transform="matrix(.51804625 .00497524 -.00604377 .42645648 60.428636 37.900128)"/><g stroke-width="1.10784" transform="matrix(.25684898 -.00069378 .00382376 .25265608 9.218903 24.395532)"><path d="m176 100v32l0 0c10.66667-5.33333 21.33333-10.66667 32-16l0 0c-10.66667-5.33333-21.33333-10.66667-32-16z" fill-rule="evenodd"/><path d="m140.20142 116h35.79858" fill="none" stroke="#000" stroke-width="8.86275"/></g><g stroke-width="1.10784" transform="matrix(.00066346 -.25264752 .25685826 .00376939 -15.88259 57.530217)"><path d="m176 100v32l0 0c10.66667-5.33333 21.33333-10.66667 32-16l0 0c-10.66667-5.33333-21.33333-10.66667-32-16z" fill-rule="evenodd"/><path d="m140.20142 116h35.79858" fill="none" stroke="#000" stroke-width="8.86275"/></g><path d="m13.873986 63.523675.161133-50.022121" fill="none" stroke="#000" stroke-width="2.25779"/><ellipse cx="16.336988" cy="-51.897915" fill="#00ff7f" rx="5.137754" ry="5.052932" stroke="#000" stroke-dashoffset="8" stroke-linecap="square" stroke-width="2.25786" transform="matrix(.99872311 .0505189 .03850244 -.99925851 0 0)"/><g stroke="#00ff7f"><text stroke-width="10" transform="scale(.28222223)"/><text fill="#fff" stroke-width="2.82222" x="-71.718208" y="-20"><tspan stroke-width="2.82222" x="-71.718208" y="-20"/></text><text fill="#fff" stroke-width="10" transform="scale(.28222223)"/><text fill="#fff" stroke-width="2.82222" x="-66" y="-15.389848"><tspan stroke-width="2.82222" x="-66" y="-15.389848"/></text><text fill="#fff" stroke-width="10" transform="scale(.28222223)"/></g><text font-family="Verdana" font-size="13.4771" letter-spacing="0" stroke="#000" stroke-width="1.35467" transform="scale(1.0138371 .98635176)" x="22.242992" y="68.699142"><tspan font-size="13.4771" stroke="#000" stroke-width="1.35467" x="22.242992" y="68.699142">W</tspan></text><path d="m41.034084 24.117085-10.744932 9.680358-2.702539-4.4891-5.173226 15.738873 16.300833-3.607586-4.187642-3.151127 10.680366-9.622185-4.17285-4.549233" fill="#00ff7f" fill-rule="evenodd" stroke="#000" stroke-linecap="square" stroke-width="2.25778"/><path d="m62.885456 9.764723 2.678988 29.88014" fill="none" stroke="#000" stroke-dasharray="4.51556 2.25778" stroke-dashoffset="3.38667" stroke-width="2.25778"/><path d="m66.423696 11.599878-31.375138 2.813027" fill="none" stroke="#000" stroke-dasharray="4.51556 2.25778" stroke-dashoffset="2.25778" stroke-width="2.25778"/></svg>
