<?xml version="1.0" encoding="UTF-8" standalone="no"?>
<svg
   height="256"
   viewBox="0 0 72.248892 72.248892"
   width="256"
   version="1.1"
   id="svg4"
   sodipodi:docname="visible_all.svg"
   inkscape:version="1.3.2 (091e20e, 2023-11-25, custom)"
   xmlns:inkscape="http://www.inkscape.org/namespaces/inkscape"
   xmlns:sodipodi="http://sodipodi.sourceforge.net/DTD/sodipodi-0.dtd"
   xmlns="http://www.w3.org/2000/svg"
   xmlns:svg="http://www.w3.org/2000/svg">
  <defs
     id="defs4" />
  <sodipodi:namedview
     id="namedview4"
     pagecolor="#ffffff"
     bordercolor="#000000"
     borderopacity="0.25"
     inkscape:showpageshadow="2"
     inkscape:pageopacity="0.0"
     inkscape:pagecheckerboard="0"
     inkscape:deskcolor="#d1d1d1"
     inkscape:zoom="1.2041016"
     inkscape:cx="160.70073"
     inkscape:cy="258.69911"
     inkscape:window-width="2560"
     inkscape:window-height="1417"
     inkscape:window-x="-8"
     inkscape:window-y="-8"
     inkscape:window-maximized="1"
     inkscape:current-layer="svg4" />
  <path
     fill="#00ff7f"
     id="circle1"
     style="stroke-width:0.999999"
     sodipodi:type="arc"
     sodipodi:cx="32.855049"
     sodipodi:cy="-22.328838"
     sodipodi:rx="14.883173"
     sodipodi:ry="15.668699"
     sodipodi:start="0"
     sodipodi:end="3.4396596"
     sodipodi:open="true"
     sodipodi:arc-type="arc"
     d="M 47.738222,-22.328838 A 14.883173,15.668699 0 0 1 38.981426,-8.0491607 14.883173,15.668699 0 0 1 23.015491,-10.572919 14.883173,15.668699 0 0 1 18.628135,-26.930311"
     transform="scale(1,-1)" />
  <path
     d="M 7.0766553,23.448053 A 29.766357,31.337411 0 0 1 32.855077,7.7793485 29.766357,31.337411 0 0 1 58.633496,23.448052"
     fill="none"
     stroke="#000000"
     stroke-dashoffset="15.2"
     stroke-width="4.51556"
     id="path1"
     style="stroke-width:3.38668;stroke-dasharray:none" />
  <ellipse
     cx="32.85508"
     cy="22.32885"
     id="circle2"
     style="stroke-width:0.999999"
     rx="7.4415846"
     ry="7.8343477" />
  <path
     d="m 7.0766553,21.209664 c 2.6586228,4.847914 4.9517897,6.900204 8.6817587,9.887959 m 39.186533,-3.673262 c 2.966153,-4.473312 1.029927,-1.366782 3.688549,-6.214696"
     fill="none"
     stroke="#000000"
     stroke-dashoffset="15.2"
     stroke-width="4.51556"
     id="path2"
     style="stroke-width:3.38668;stroke-dasharray:none"
     sodipodi:nodetypes="cccc" />
  <ellipse
     cx="38.170517"
     cy="15.613681"
     fill="#ffffff"
     id="circle3"
     style="stroke-width:0.999999"
     rx="3.1892481"
     ry="3.3575747" />
  <path
     fill="none"
     stroke="#000000"
     stroke-dashoffset="15.2"
     stroke-width="2.25778"
     id="circle4"
     sodipodi:type="arc"
     sodipodi:cx="33.29184"
     sodipodi:cy="-22.328838"
     sodipodi:rx="14.009591"
     sodipodi:ry="14.389985"
     sodipodi:start="0"
     sodipodi:end="3.4071131"
     sodipodi:open="true"
     sodipodi:arc-type="arc"
     d="M 47.301431,-22.328838 A 14.009591,14.389985 0 0 1 39.196795,-9.2795497 14.009591,14.389985 0 0 1 24.260053,-11.32845 14.009591,14.389985 0 0 1 19.7732,-26.104936"
     transform="scale(1,-1)" />
  <path
     fill="#00ff7f"
     id="ellipse44"
     style="stroke-width:0.999999"
     transform="scale(1,-1)"
     sodipodi:type="arc"
     sodipodi:cx="37.222965"
     sodipodi:cy="-35.915188"
     sodipodi:rx="14.883173"
     sodipodi:ry="15.668699"
     sodipodi:start="0"
     sodipodi:end="3.4171999"
     sodipodi:open="true"
     sodipodi:arc-type="arc"
     d="m 52.106138,-35.915188 a 14.883173,15.668699 0 0 1 -8.655422,14.230992 14.883173,15.668699 0 0 1 -15.899014,-2.321291 14.883173,15.668699 0 0 1 -4.650221,-16.173645" />
  <path
     d="M 11.444571,37.034397 A 29.766357,31.337411 0 0 1 37.222993,21.365691 29.766357,31.337411 0 0 1 63.001413,37.034396"
     fill="none"
     stroke="#000000"
     stroke-dashoffset="15.2"
     stroke-width="4.51556"
     id="path44"
     style="stroke-width:3.38668;stroke-dasharray:none" />
  <ellipse
     cx="37.222996"
     cy="35.915195"
     id="ellipse45"
     style="stroke-width:0.999999"
     rx="7.4415846"
     ry="7.8343477" />
  <path
     d="m 11.444571,34.796008 c 2.845205,4.931273 5.574442,7.317305 9.09357,10.227029 M 58.31339,40.72567 c 2.900879,-2.679468 3.51314,-3.505705 4.842453,-5.929661"
     fill="none"
     stroke="#000000"
     stroke-dashoffset="15.2"
     stroke-width="4.51556"
     id="path45"
     style="stroke-width:3.38668;stroke-dasharray:none"
     sodipodi:nodetypes="cccc" />
  <ellipse
     cx="42.538433"
     cy="29.200022"
     fill="#ffffff"
     id="ellipse46"
     style="stroke-width:0.999999"
     rx="3.1892481"
     ry="3.3575747" />
  <path
     fill="none"
     stroke="#000000"
     stroke-dashoffset="15.2"
     stroke-width="2.25778"
     id="ellipse47"
     transform="scale(1,-1)"
     sodipodi:type="arc"
     sodipodi:cx="37.659756"
     sodipodi:cy="-35.915188"
     sodipodi:rx="14.009591"
     sodipodi:ry="14.389985"
     sodipodi:start="0"
     sodipodi:end="3.5221732"
     sodipodi:open="true"
     sodipodi:arc-type="arc"
     d="m 51.669347,-35.915188 a 14.009591,14.389985 0 0 1 -8.596113,13.27226 14.009591,14.389985 0 0 1 -15.2394,-3.015131 14.009591,14.389985 0 0 1 -3.181271,-15.602426" />
  <ellipse
     cx="41.736477"
     cy="49.661369"
     fill="#00ff7f"
     id="ellipse48"
     style="stroke-width:0.999999"
     rx="14.883173"
     ry="15.668699" />
  <path
     d="M 15.958083,50.780581 A 29.766357,31.337411 0 0 1 41.736505,35.111875 29.766357,31.337411 0 0 1 67.514925,50.78058"
     fill="none"
     stroke="#000000"
     stroke-dashoffset="15.2"
     stroke-width="4.51556"
     id="path48"
     style="stroke-width:3.38668;stroke-dasharray:none" />
  <ellipse
     cx="41.736504"
     cy="49.661377"
     id="ellipse49"
     style="stroke-width:0.999999"
     rx="7.4415846"
     ry="7.8343477" />
  <path
     d="M 15.958083,48.542192 A 29.766357,31.337411 0 0 0 41.736505,64.210896 29.766357,31.337411 0 0 0 67.514925,48.542193"
     fill="none"
     stroke="#000000"
     stroke-dashoffset="15.2"
     stroke-width="4.51556"
     id="path49"
     style="stroke-width:3.38668;stroke-dasharray:none" />
  <ellipse
     cx="47.051941"
     cy="42.946209"
     fill="#ffffff"
     id="ellipse50"
     style="stroke-width:0.999999"
     rx="3.1892481"
     ry="3.3575747" />
  <ellipse
     cx="42.173267"
     cy="49.661369"
     fill="none"
     stroke="#000000"
     stroke-dashoffset="15.2"
     stroke-width="2.25778"
     id="ellipse51"
     rx="14.009591"
     ry="14.389985" />
</svg>
