<svg height="256" viewBox="0 0 72.248892 72.248892" width="256" xmlns="http://www.w3.org/2000/svg"><g transform="translate(-2.257778 3.386668)"><path d="m18.062224 33.866669h27.093335" fill="none" stroke="#00ff7f" stroke-width="4.515556"/><g fill="#00ff7f" fill-rule="evenodd"><path d="m31.608891 20.320001v27.093335" stroke="#00ff7f" stroke-width="4.515556"/><path d="m19.75556 27.093329-10.1600074 6.773338 10.1600074 6.773339z"/><path d="m43.462217 27.093329 10.160007 6.773338-10.160007 6.773339z"/><path d="m38.382227 45.719995-6.773339 10.160008-6.773338-10.160008z"/><path d="m24.83555 22.013339 6.773338-10.160007 6.773339 10.160007z"/></g><path d="m19.755557 27.093335v4.515556h9.595556v-9.595556h-4.515556l6.773331-10.160003 6.773339 10.160007h-4.515558v9.595552h9.595556v-4.515556l10.160001 6.773334-10.16001 6.773336v-4.515558h-9.595547v9.595556h4.515556l-6.773334 10.160001-6.773341-10.16001 4.515563.000009v-9.595556h-9.595556v4.515556l-10.1600045-6.773337z" fill="none" stroke="#000" stroke-width="1.128889"/><g fill="none" stroke="#000" transform="translate(18.062224 -2.257779)"><circle cx="28.222223" cy="19.191113" r="9.031112" stroke-width="2.257778"/><path d="m34.995558 25.964446 14.368411 14.36841" stroke-width="4.515556"/></g></g></svg>
