<?xml version="1.0" encoding="UTF-8" standalone="no"?>
<svg
   xmlns:dc="http://purl.org/dc/elements/1.1/"
   xmlns:cc="http://creativecommons.org/ns#"
   xmlns:rdf="http://www.w3.org/1999/02/22-rdf-syntax-ns#"
   xmlns:svg="http://www.w3.org/2000/svg"
   xmlns="http://www.w3.org/2000/svg"
   xmlns:sodipodi="http://sodipodi.sourceforge.net/DTD/sodipodi-0.dtd"
   xmlns:inkscape="http://www.inkscape.org/namespaces/inkscape"
   version="1.1"
   id="svg2"
   viewBox="0 0 16 11.50401"
   height="11.50401"
   width="16"
   inkscape:version="0.92.4 (5da689c313, 2019-01-14)"
   sodipodi:docname="distance_point_to_point.svg"
   sodipodi:version="0.32"
   inkscape:output_extension="org.inkscape.output.svg.inkscape">
  <sodipodi:namedview
     pagecolor="#ffffff"
     bordercolor="#666666"
     borderopacity="1"
     objecttolerance="10"
     gridtolerance="10"
     guidetolerance="10"
     inkscape:pageopacity="0"
     inkscape:pageshadow="2"
     inkscape:window-width="1920"
     inkscape:window-height="1137"
     id="namedview20"
     showgrid="true"
     inkscape:zoom="2.1875"
     inkscape:cx="-4.7999999"
     inkscape:cy="71.542872"
     inkscape:window-x="-8"
     inkscape:window-y="-8"
     inkscape:window-maximized="1"
     inkscape:current-layer="svg2">
    <inkscape:grid
       type="xygrid"
       id="grid4166"
       originx="-24"
       originy="-55.999987" />
  </sodipodi:namedview>
  <defs
     id="defs4">
    <marker
       style="overflow:visible"
       id="Arrow2Lend"
       refX="0"
       refY="0"
       orient="auto">
      <path
         transform="matrix(-1.1,0,0,-1.1,-1.1,0)"
         d="M 8.7185878,4.0337352 -2.2072895,0.01601326 8.7185884,-4.0017078 c -1.7454984,2.3720609 -1.7354408,5.6174519 -6e-7,8.035443 z"
         style="fill:#000000;fill-opacity:1;fill-rule:evenodd;stroke:#000000;stroke-width:0.625;stroke-linejoin:round;stroke-opacity:1"
         id="path4196"
         inkscape:connector-curvature="0" />
    </marker>
    <marker
       style="overflow:visible"
       id="Arrow2Lstart"
       refX="0"
       refY="0"
       orient="auto">
      <path
         transform="matrix(1.1,0,0,1.1,1.1,0)"
         d="M 8.7185878,4.0337352 -2.2072895,0.01601326 8.7185884,-4.0017078 c -1.7454984,2.3720609 -1.7354408,5.6174519 -6e-7,8.035443 z"
         style="fill:#000000;fill-opacity:1;fill-rule:evenodd;stroke:#000000;stroke-width:0.625;stroke-linejoin:round;stroke-opacity:1"
         id="path4193"
         inkscape:connector-curvature="0" />
    </marker>
    <marker
       style="overflow:visible"
       id="Arrow1Mstart"
       refX="0"
       refY="0"
       orient="auto">
      <path
         transform="matrix(0.4,0,0,0.4,4,0)"
         style="fill:#000000;fill-opacity:1;fill-rule:evenodd;stroke:#000000;stroke-width:1.00000003pt;stroke-opacity:1"
         d="M 0,0 5,-5 -12.5,0 5,5 Z"
         id="path4181"
         inkscape:connector-curvature="0" />
    </marker>
  </defs>
  <metadata
     id="metadata7">
    <rdf:RDF>
      <cc:Work
         rdf:about="">
        <dc:format>image/svg+xml</dc:format>
        <dc:type
           rdf:resource="http://purl.org/dc/dcmitype/StillImage" />
        <dc:title />
      </cc:Work>
      <cc:Work
         rdf:about="">
        <dc:format>image/svg+xml</dc:format>
        <dc:type
           rdf:resource="http://purl.org/dc/dcmitype/StillImage" />
      </cc:Work>
    </rdf:RDF>
  </metadata>
  <g
     id="g8849"
     transform="matrix(0.07692308,0,0,0.07692308,-1.8461539,-4.4959916)">
    <path
       id="path4163"
       d="M 48,180 H 208"
       style="fill:none;fill-rule:evenodd;stroke:#000000;stroke-width:8;stroke-linecap:butt;stroke-linejoin:miter;stroke-miterlimit:4;stroke-dasharray:none;stroke-opacity:1"
       inkscape:connector-curvature="0" />
    <circle
       r="24"
       cy="180.00002"
       cx="52"
       id="path4146"
       style="opacity:0.98000004;fill:#00ff7f;fill-opacity:1;stroke:#000000;stroke-width:8;stroke-linecap:butt;stroke-linejoin:bevel;stroke-miterlimit:4;stroke-dasharray:none;stroke-dashoffset:6;stroke-opacity:1" />
    <circle
       r="24"
       cy="180.00002"
       cx="204"
       id="path4146-5"
       style="opacity:0.98000004;fill:#00ff7f;fill-opacity:1;stroke:#000000;stroke-width:8;stroke-linecap:butt;stroke-linejoin:bevel;stroke-miterlimit:4;stroke-dasharray:none;stroke-dashoffset:6;stroke-opacity:1" />
  </g>
  <g
     transform="matrix(0.0779447,0,0,0.07591485,-1.8461539,-3.8806016)"
     style="font-style:normal;font-variant:normal;font-weight:normal;font-stretch:normal;font-size:121.51124573px;line-height:125%;font-family:sans-serif;text-align:start;letter-spacing:0px;word-spacing:0px;writing-mode:lr-tb;text-anchor:start;fill:#000000;fill-opacity:1;stroke:none;stroke-width:1px;stroke-linecap:butt;stroke-linejoin:miter;stroke-opacity:1"
     id="text4441">
    <path
       d="m 151.86633,73.663851 q 0,5.814503 -2.07661,10.383041 -2.07661,4.509206 -5.45851,8.009774 -3.32258,3.381905 -7.65379,6.348488 -4.33121,2.966586 -9.19641,5.755176 v 13.34962 H 116.86065 V 99.413792 q 3.85655,-2.195271 8.30643,-4.805864 4.50921,-2.610594 7.35713,-5.280518 3.44123,-3.085247 5.33985,-6.348488 1.89861,-3.322573 1.89861,-8.425096 0,-6.704478 -4.56854,-9.96772 -4.50921,-3.322573 -11.68834,-3.322573 -6.40782,0 -12.16299,2.017277 -5.69584,2.017276 -9.01841,4.093884 h -0.59332 V 55.271035 q 4.15322,-1.601955 10.50171,-2.84792 6.40782,-1.305296 12.10366,-1.305296 12.7563,0 20.11343,6.229824 7.41646,6.170493 7.41646,16.316208 z m -23.43601,67.578759 h -12.10366 v -12.51898 h 12.10366 z"
       style="font-style:normal;font-variant:normal;font-weight:normal;font-stretch:normal;font-size:121.51124573px;line-height:125%;font-family:sans-serif;text-align:start;writing-mode:lr-tb;text-anchor:start"
       id="path4205"
       inkscape:connector-curvature="0" />
  </g>
  <path
     inkscape:connector-curvature="0"
     style="color:#000000;display:inline;overflow:visible;visibility:visible;fill:#000000;fill-rule:evenodd;stroke:none;stroke-width:0.07692308;stroke-linecap:butt;stroke-linejoin:miter;stroke-miterlimit:4;stroke-dasharray:none;stroke-dashoffset:0;stroke-opacity:1;marker:none;marker-start:none;marker-mid:none;marker-end:none;enable-background:accumulate"
     d="m 4.3076921,6.2732384 c 0,-0.82051 0,-1.64102 0,-2.46153 0,0 0,0 0,0 -0.820513,0.41025 -1.641025,0.82051 -2.461538,1.23077 0,0 0,0 0,0 0.820513,0.41025 1.641025,0.82051 2.461538,1.23076 z"
     id="path4488" />
  <path
     inkscape:connector-curvature="0"
     style="color:#000000;display:inline;overflow:visible;visibility:visible;fill:#000000;fill-rule:evenodd;stroke:none;stroke-width:0.07692308;stroke-linecap:butt;stroke-linejoin:miter;stroke-miterlimit:4;stroke-dasharray:none;stroke-dashoffset:0;stroke-opacity:1;marker:none;marker-start:none;marker-mid:none;marker-end:none;enable-background:accumulate"
     d="m 11.692308,3.8117084 c 0,0.82051 0,1.64102 0,2.46153 0,0 0,0 0,0 0.820513,-0.41025 1.641025,-0.82051 2.461538,-1.23076 0,0 0,0 0,0 -0.820513,-0.41026 -1.641025,-0.82052 -2.461538,-1.23077 z"
     id="path4499" />
  <path
     style="fill:none;fill-rule:evenodd;stroke:#000000;stroke-width:0.61538464;stroke-linecap:butt;stroke-linejoin:miter;stroke-miterlimit:4;stroke-dasharray:none;stroke-opacity:1"
     d="m 4.3076921,5.0424784 h 1.846154"
     id="path4194"
     inkscape:connector-curvature="0" />
  <path
     style="fill:none;fill-rule:evenodd;stroke:#000000;stroke-width:0.61538464;stroke-linecap:butt;stroke-linejoin:miter;stroke-miterlimit:4;stroke-dasharray:none;stroke-opacity:1"
     d="M 9.8461541,5.0424784 H 11.692308"
     id="path4197"
     inkscape:connector-curvature="0" />
</svg>
