<?xml version="1.0" encoding="UTF-8" standalone="no"?>
<svg
   xmlns:osb="http://www.openswatchbook.org/uri/2009/osb"
   xmlns:dc="http://purl.org/dc/elements/1.1/"
   xmlns:cc="http://creativecommons.org/ns#"
   xmlns:rdf="http://www.w3.org/1999/02/22-rdf-syntax-ns#"
   xmlns:svg="http://www.w3.org/2000/svg"
   xmlns="http://www.w3.org/2000/svg"
   xmlns:sodipodi="http://sodipodi.sourceforge.net/DTD/sodipodi-0.dtd"
   xmlns:inkscape="http://www.inkscape.org/namespaces/inkscape"
   width="15.999993"
   height="14.200426"
   viewBox="0 0 4.5155539 4.007676"
   id="svg4295"
   version="1.1"
   inkscape:version="0.92.4 (5da689c313, 2019-01-14)"
   sodipodi:docname="unlink_shaped_text.svg"
   inkscape:export-filename="D:\LC_Recources\icons\explodetext24.png"
   inkscape:export-xdpi="8.4375"
   inkscape:export-ydpi="8.4375">
  <metadata
     id="metadata4325">
    <rdf:RDF>
      <cc:Work
         rdf:about="">
        <dc:format>image/svg+xml</dc:format>
        <dc:type
           rdf:resource="http://purl.org/dc/dcmitype/StillImage" />
        <dc:title></dc:title>
      </cc:Work>
    </rdf:RDF>
  </metadata>
  <defs
     id="defs4323">
    <linearGradient
       id="linearGradient896"
       osb:paint="gradient">
      <stop
         style="stop-color:#000000;stop-opacity:1;"
         offset="0"
         id="stop892" />
      <stop
         style="stop-color:#000000;stop-opacity:0;"
         offset="1"
         id="stop894" />
    </linearGradient>
    <linearGradient
       id="linearGradient870"
       osb:paint="solid">
      <stop
         style="stop-color:#000000;stop-opacity:1;"
         offset="0"
         id="stop868" />
    </linearGradient>
    <linearGradient
       id="linearGradient864"
       osb:paint="solid">
      <stop
         style="stop-color:#000000;stop-opacity:1;"
         offset="0"
         id="stop862" />
    </linearGradient>
  </defs>
  <sodipodi:namedview
     pagecolor="#ffffff"
     bordercolor="#666666"
     borderopacity="1"
     objecttolerance="10"
     gridtolerance="10"
     guidetolerance="10"
     inkscape:pageopacity="0"
     inkscape:pageshadow="2"
     inkscape:window-width="1920"
     inkscape:window-height="1137"
     id="namedview4321"
     showgrid="true"
     units="px"
     inkscape:snap-grids="true"
     inkscape:zoom="3.7226562"
     inkscape:cx="117.10389"
     inkscape:cy="118.21774"
     inkscape:window-x="-8"
     inkscape:window-y="-8"
     inkscape:window-maximized="1"
     inkscape:current-layer="svg4295"
     inkscape:object-nodes="true"
     inkscape:snap-object-midpoints="false"
     showguides="true">
    <inkscape:grid
       type="xygrid"
       id="grid4867"
       originx="-2.4686295"
       originy="-2.7607711" />
  </sodipodi:namedview>
  <path
     inkscape:connector-curvature="0"
     id="path4789"
     style="font-style:normal;font-weight:normal;font-size:medium;line-height:125%;font-family:sans-serif;letter-spacing:0px;word-spacing:0px;fill:#000000;fill-opacity:1;stroke:none;stroke-width:0.0656765px;stroke-linecap:butt;stroke-linejoin:miter;stroke-opacity:1"
     d="m 1.2682145,2.440206 -0.1319126,0.07616 -0.048465,-0.08394 q -0.010712,0.02217 -0.028419,0.06155 -0.017409,0.03827 -0.038295,0.06726 -0.023787,0.03537 -0.060709,0.07079 -0.036514,0.03613 -0.094358,0.06953 -0.1065175,0.0615 -0.2213132,0.03372 -0.1147957,-0.02778 -0.1779227,-0.137118 -0.051723,-0.08959 -0.045398,-0.166602 0.00662,-0.07813 0.059543,-0.151006 0.053625,-0.07328 0.147983,-0.142812 0.094358,-0.06953 0.2067878,-0.141962 l -0.011811,-0.02046 q -0.026065,-0.04515 -0.059395,-0.06541 -0.032625,-0.02067 -0.072027,-0.02049 -0.037584,6.6e-5 -0.080345,0.01723 -0.042762,0.01716 -0.085792,0.04201 -0.052201,0.03014 -0.108248,0.08131 -0.056455,0.05046 -0.1098108,0.11607 l -0.00705,0.0041 -0.077789,-0.134734 q 0.032689,-0.03298 0.098721,-0.08803 0.066032,-0.05505 0.1372791,-0.09619 0.083239,-0.04806 0.1527555,-0.06938 0.069815,-0.02244 0.1341028,-0.01535 0.063176,0.0068 0.1161851,0.04485 0.05301,0.03805 0.096995,0.11424 L 1.2682181,2.440246 Z M 1.0243023,2.322377 0.89764094,2.102993 q -0.058629,0.03855 -0.1370901,0.09326 -0.077755,0.0543 -0.1179854,0.0954 -0.047771,0.04921 -0.063086,0.104143 -0.015722,0.05422 0.018896,0.114183 0.039098,0.06772 0.099968,0.07866 0.060463,0.01024 0.1444074,-0.03823 0.069836,-0.04032 0.1122037,-0.100522 0.04196,-0.06091 0.069347,-0.127509 z" />
  <path
     inkscape:connector-curvature="0"
     id="path4791"
     style="font-style:normal;font-weight:normal;font-size:medium;line-height:125%;font-family:sans-serif;letter-spacing:0px;word-spacing:0px;fill:#000000;fill-opacity:1;stroke:none;stroke-width:0.0656765px;stroke-linecap:butt;stroke-linejoin:miter;stroke-opacity:1"
     d="m 2.8023516,1.730613 q 0,0.114036 -0.032582,0.205265 -0.031767,0.09123 -0.086341,0.153134 -0.057833,0.06435 -0.1270687,0.09693 -0.069236,0.03177 -0.1523194,0.03177 -0.077382,0 -0.1352142,-0.01874 -0.057832,-0.01792 -0.1140359,-0.04887 l -0.00977,0.04236 H 2.0016562 V 0.925034 h 0.153134 v 0.452885 q 0.064349,-0.05295 0.1368432,-0.08634 0.072494,-0.03421 0.1629085,-0.03421 0.1612794,0 0.2541372,0.123811 0.093673,0.12381 0.093673,0.349438 z m -0.1580213,0.0041 q 0,-0.162909 -0.05376,-0.246807 -0.05376,-0.08471 -0.1734976,-0.08471 -0.066792,0 -0.135214,0.02932 -0.068422,0.02851 -0.1270687,0.07412 v 0.521307 q 0.065163,0.02932 0.1115923,0.04073 0.047243,0.0114 0.1067052,0.0114 0.1270686,0 0.1987483,-0.08308 0.072494,-0.0839 0.072494,-0.262283 z" />
  <path
     inkscape:connector-curvature="0"
     id="path4793"
     style="font-style:normal;font-weight:normal;font-size:medium;line-height:125%;font-family:sans-serif;letter-spacing:0px;word-spacing:0px;fill:#000000;fill-opacity:1;stroke:none;stroke-width:0.0656765px;stroke-linecap:butt;stroke-linejoin:miter;stroke-opacity:1"
     d="M 4.1164298,2.948934 Q 4.0317938,2.942434 3.9616515,2.925414 3.8922145,2.908834 3.8252006,2.870144 3.7398456,2.820864 3.6828531,2.75504 3.6262681,2.68851 3.6048021,2.608397 3.5826301,2.527877 3.5992121,2.43399 3.6157951,2.3401 3.6756641,2.236408 3.7872564,2.043124 3.9566029,1.99417 4.1266548,1.94562 4.3008922,2.04622 q 0.06772,0.0391 0.1216217,0.09561 0.054607,0.05692 0.09304,0.115793 l -0.08512,0.147432 -0.00705,-0.0041 Q 4.3900059,2.318665 4.3397689,2.255803 4.2902379,2.193343 4.2288669,2.157913 4.1160006,2.092753 4.0064117,2.131063 3.8979355,2.169073 3.8132231,2.3158 q -0.082269,0.142494 -0.063174,0.256038 0.020207,0.113247 0.1358953,0.180039 0.040209,0.02322 0.087937,0.03666 0.047729,0.01345 0.090657,0.01566 0.037475,0.0019 0.072237,3.22e-4 0.03517,-0.0023 0.056907,-0.0057 l 0.00705,0.0041 z" />
  <circle
     style="opacity:0.98000004;fill:#00ff7f;fill-opacity:1;stroke:#000000;stroke-width:0.14828296;stroke-linecap:butt;stroke-linejoin:bevel;stroke-miterlimit:4;stroke-dasharray:none;stroke-dashoffset:6;stroke-opacity:1"
     id="path4146"
     cx="0.29656592"
     cy="2.8178797"
     r="0.22242443" />
  <path
     sodipodi:nodetypes="cc"
     inkscape:connector-curvature="0"
     id="path5985"
     d="M 1.4133754,2.52081 1.4133755,0"
     style="fill:none;fill-rule:evenodd;stroke:#000000;stroke-width:0.14828296;stroke-linecap:butt;stroke-linejoin:miter;stroke-miterlimit:4;stroke-dasharray:0.29656592, 0.14828296, 0.07414148, 0.14828296;stroke-dashoffset:0;stroke-opacity:1" />
  <path
     style="fill:none;fill-rule:evenodd;stroke:#000000;stroke-width:0.14828296;stroke-linecap:butt;stroke-linejoin:miter;stroke-miterlimit:4;stroke-dasharray:0.29656592, 0.14828296, 0.07414148, 0.14828296;stroke-dashoffset:0;stroke-opacity:1"
     d="M 2.896205,2.52081 2.8962051,0"
     id="path5987"
     inkscape:connector-curvature="0"
     sodipodi:nodetypes="cc" />
  <circle
     r="0.22242443"
     cy="2.2652063"
     cx="1.8391446"
     id="circle5989"
     style="opacity:0.98000004;fill:#00ff7f;fill-opacity:1;stroke:#000000;stroke-width:0.14828296;stroke-linecap:butt;stroke-linejoin:bevel;stroke-miterlimit:4;stroke-dasharray:none;stroke-dashoffset:6;stroke-opacity:1" />
  <circle
     style="opacity:0.98000004;fill:#00ff7f;fill-opacity:1;stroke:#000000;stroke-width:0.14828296;stroke-linecap:butt;stroke-linejoin:bevel;stroke-miterlimit:4;stroke-dasharray:none;stroke-dashoffset:6;stroke-opacity:1"
     id="circle5991"
     cx="3.3169951"
     cy="2.5091791"
     r="0.22242443" />
  <path
     style="opacity:1;fill:none;fill-opacity:1;stroke:#000000;stroke-width:0.08343543;stroke-miterlimit:4;stroke-dasharray:none;stroke-opacity:1"
     d="M 0.11589964,4.00364 A 1.9925522,1.3901529 0 0 1 2.1040116,2.706241 1.9925522,1.3901529 0 0 1 4.092129,4.003698"
     id="path860"
     inkscape:connector-curvature="0" />
</svg>
