999
dxflib 2.0.4.8
  0
SECTION
  2
HEADER
  9
$ACADVER
  1
AC1015
  9
$HANDSEED
  5
FFFF
  9
$DIMASZ
 40
3.0
  9
$GRIDUNIT
 10
0.001
 20
20.0
  9
$DIMADEC
 70
1
  9
$DIMGAP
 40
0.625
  9
$DIMALT
 70
4
  9
$SPLINESEGS
 70
32
  9
$AUPREC
 70
1
  9
$LUNITS
 70
2
  9
$DIMRND
 40
0.01
  9
$DIMEXO
 40
2.0
  9
$INSUNITS
 70
4
  9
$DIMLUNIT
 70
2
  9
$DIMTXT
 40
5.0
  9
$GRIDMODE
 70
0
  9
$LUPREC
 70
1
  9
$DIMSTYLE
  2
Standard
  9
$PLIMMAX
 10
420.0
 20
297.0
  9
$PLIMMIN
 10
0.0
 20
0.0
  9
$DIMEXE
 40
2.0
  9
$PINSBASE
 10
0.959612277867528
 20
0.0
 30
0.0
  9
$DIMAUNIT
 70
1
  9
$AUNITS
 70
1
  0
ENDSEC
  0
SECTION
  2
TABLES
  0
TABLE
  2
VPORT
  5
8
100
AcDbSymbolTable
 70
1
  0
VPORT
  5
30
100
AcDbSymbolTableRecord
100
AcDbViewportTableRecord
  2
*Active
 70
0
 10
0.0
 20
0.0
 11
1.0
 21
1.0
 12
286.3055555555554861
 22
148.5
 13
0.0
 23
0.0
 14
10.0
 24
10.0
 15
10.0
 25
10.0
 16
0.0
 26
0.0
 36
1.0
 17
0.0
 27
0.0
 37
0.0
 40
297.0
 41
1.92798353909465
 42
50.0
 43
0.0
 44
0.0
 50
0.0
 51
0.0
 71
0
 72
100
 73
1
 74
3
 75
1
 76
1
 77
0
 78
0
281
0
 65
1
110
0.0
120
0.0
130
0.0
111
1.0
121
0.0
131
0.0
112
0.0
122
1.0
132
0.0
 79
0
146
0.0
  0
ENDTAB
  0
TABLE
  2
LTYPE
  5
5
100
AcDbSymbolTable
 70
21
  0
LTYPE
  5
14
100
AcDbSymbolTableRecord
100
AcDbLinetypeTableRecord
  2
ByBlock
 70
0
  3

 72
65
 73
0
 40
0.0
  0
LTYPE
  5
15
100
AcDbSymbolTableRecord
100
AcDbLinetypeTableRecord
  2
ByLayer
 70
0
  3

 72
65
 73
0
 40
0.0
  0
LTYPE
  5
16
100
AcDbSymbolTableRecord
100
AcDbLinetypeTableRecord
  2
CONTINUOUS
 70
0
  3
Solid line
 72
65
 73
0
 40
0.0
  0
LTYPE
  5
31
100
AcDbSymbolTableRecord
100
AcDbLinetypeTableRecord
  2
DOT
 70
0
  3
Dot . . . . . . . . . . . . . . . . . . . . . .
 72
65
 73
2
 40
6.3499999999999996
 49
0.0
 74
0
 49
-6.3499999999999996
 74
0
  0
LTYPE
  5
32
100
AcDbSymbolTableRecord
100
AcDbLinetypeTableRecord
  2
DOT2
 70
0
  3
Dot (.5x) .....................................
 72
65
 73
2
 40
3.1749999999999998
 49
0.0
 74
0
 49
-3.1749999999999998
 74
0
  0
LTYPE
  5
33
100
AcDbSymbolTableRecord
100
AcDbLinetypeTableRecord
  2
DOTX2
 70
0
  3
Dot (2x) .  .  .  .  .  .  .  .  .  .  .  .  .
 72
65
 73
2
 40
12.6999999999999993
 49
0.0
 74
0
 49
-12.6999999999999993
 74
0
  0
LTYPE
  5
34
100
AcDbSymbolTableRecord
100
AcDbLinetypeTableRecord
  2
DASHED
 70
0
  3
Dashed __ __ __ __ __ __ __ __ __ __ __ __ __ _
 72
65
 73
2
 40
19.0500000000000007
 49
12.6999999999999993
 74
0
 49
-6.3499999999999996
 74
0
  0
LTYPE
  5
35
100
AcDbSymbolTableRecord
100
AcDbLinetypeTableRecord
  2
DASHED2
 70
0
  3
Dashed (.5x) _ _ _ _ _ _ _ _ _ _ _ _ _ _ _ _ _
 72
65
 73
2
 40
9.5250000000000004
 49
6.3499999999999996
 74
0
 49
-3.1749999999999998
 74
0
  0
LTYPE
  5
36
100
AcDbSymbolTableRecord
100
AcDbLinetypeTableRecord
  2
DASHEDX2
 70
0
  3
Dashed (2x) ____  ____  ____  ____  ____  ___
 72
65
 73
2
 40
38.1000000000000014
 49
25.3999999999999986
 74
0
 49
-12.6999999999999993
 74
0
  0
LTYPE
  5
37
100
AcDbSymbolTableRecord
100
AcDbLinetypeTableRecord
  2
DASHDOT
 70
0
  3
Dash dot __ . __ . __ . __ . __ . __ . __ . __
 72
65
 73
4
 40
25.3999999999999986
 49
12.6999999999999993
 74
0
 49
-6.3499999999999996
 74
0
 49
0.0
 74
0
 49
-6.3499999999999996
 74
0
  0
LTYPE
  5
38
100
AcDbSymbolTableRecord
100
AcDbLinetypeTableRecord
  2
DASHDOT2
 70
0
  3
Dash dot (.5x) _._._._._._._._._._._._._._._.
 72
65
 73
4
 40
12.6999999999999993
 49
6.3499999999999996
 74
0
 49
-3.1749999999999998
 74
0
 49
0.0
 74
0
 49
-3.1749999999999998
 74
0
  0
LTYPE
  5
39
100
AcDbSymbolTableRecord
100
AcDbLinetypeTableRecord
  2
DASHDOTX2
 70
0
  3
Dash dot (2x) ____  .  ____  .  ____  .  ___
 72
65
 73
4
 40
50.7999999999999972
 49
25.3999999999999986
 74
0
 49
-12.6999999999999993
 74
0
 49
0.0
 74
0
 49
-12.6999999999999993
 74
0
  0
LTYPE
  5
3A
100
AcDbSymbolTableRecord
100
AcDbLinetypeTableRecord
  2
DIVIDE
 70
0
  3
Divide ____ . . ____ . . ____ . . ____ . . ____
 72
65
 73
6
 40
31.75
 49
12.6999999999999993
 74
0
 49
-6.3499999999999996
 74
0
 49
0.0
 74
0
 49
-6.3499999999999996
 74
0
 49
0.0
 74
0
 49
-6.3499999999999996
 74
0
  0
LTYPE
  5
3B
100
AcDbSymbolTableRecord
100
AcDbLinetypeTableRecord
  2
DIVIDE2
 70
0
  3
Divide (.5x) __..__..__..__..__..__..__..__.._
 72
65
 73
6
 40
15.875
 49
6.3499999999999996
 74
0
 49
-3.1749999999999998
 74
0
 49
0.0
 74
0
 49
-3.1749999999999998
 74
0
 49
0.0
 74
0
 49
-3.1749999999999998
 74
0
  0
LTYPE
  5
3C
100
AcDbSymbolTableRecord
100
AcDbLinetypeTableRecord
  2
DIVIDEX2
 70
0
  3
Divide (2x) ________  .  .  ________  .  .  _
 72
65
 73
6
 40
63.5
 49
25.3999999999999986
 74
0
 49
-12.6999999999999993
 74
0
 49
0.0
 74
0
 49
-12.6999999999999993
 74
0
 49
0.0
 74
0
 49
-12.6999999999999993
 74
0
  0
LTYPE
  5
3D
100
AcDbSymbolTableRecord
100
AcDbLinetypeTableRecord
  2
CENTER
 70
0
  3
Center ____ _ ____ _ ____ _ ____ _ ____ _ ____
 72
65
 73
4
 40
50.7999999999999972
 49
31.75
 74
0
 49
-6.3499999999999996
 74
0
 49
6.3499999999999996
 74
0
 49
-6.3499999999999996
 74
0
  0
LTYPE
  5
3E
100
AcDbSymbolTableRecord
100
AcDbLinetypeTableRecord
  2
CENTER2
 70
0
  3
Center (.5x) ___ _ ___ _ ___ _ ___ _ ___ _ ___
 72
65
 73
4
 40
28.5749999999999993
 49
19.0500000000000007
 74
0
 49
-3.1749999999999998
 74
0
 49
3.1749999999999998
 74
0
 49
-3.1749999999999998
 74
0
  0
LTYPE
  5
3F
100
AcDbSymbolTableRecord
100
AcDbLinetypeTableRecord
  2
CENTERX2
 70
0
  3
Center (2x) ________  __  ________  __  _____
 72
65
 73
4
 40
101.5999999999999943
 49
63.5
 74
0
 49
-12.6999999999999993
 74
0
 49
12.6999999999999993
 74
0
 49
-12.6999999999999993
 74
0
  0
LTYPE
  5
40
100
AcDbSymbolTableRecord
100
AcDbLinetypeTableRecord
  2
BORDER
 70
0
  3
Border __ __ . __ __ . __ __ . __ __ . __ __ .
 72
65
 73
6
 40
44.4500000000000028
 49
12.6999999999999993
 74
0
 49
-6.3499999999999996
 74
0
 49
12.6999999999999993
 74
0
 49
-6.3499999999999996
 74
0
 49
0.0
 74
0
 49
-6.3499999999999996
 74
0
  0
LTYPE
  5
41
100
AcDbSymbolTableRecord
100
AcDbLinetypeTableRecord
  2
BORDER2
 70
0
  3
Border (.5x) __.__.__.__.__.__.__.__.__.__.__.
 72
65
 73
6
 40
22.2250000000000014
 49
6.3499999999999996
 74
0
 49
-3.1749999999999998
 74
0
 49
6.3499999999999996
 74
0
 49
-3.1749999999999998
 74
0
 49
0.0
 74
0
 49
-3.1749999999999998
 74
0
  0
LTYPE
  5
42
100
AcDbSymbolTableRecord
100
AcDbLinetypeTableRecord
  2
BORDERX2
 70
0
  3
Border (2x) ____  ____  .  ____  ____  .  ___
 72
65
 73
6
 40
88.9000000000000057
 49
25.3999999999999986
 74
0
 49
-12.6999999999999993
 74
0
 49
25.3999999999999986
 74
0
 49
-12.6999999999999993
 74
0
 49
0.0
 74
0
 49
-12.6999999999999993
 74
0
  0
ENDTAB
  0
TABLE
  2
LAYER
  5
2
100
AcDbSymbolTable
 70
1
  0
LAYER
  5
10
100
AcDbSymbolTableRecord
100
AcDbLayerTableRecord
  2
0
 70
0
 62
7
  6
CONTINUOUS
390
F
  0
ENDTAB
  0
TABLE
  2
STYLE
  5
3
100
AcDbSymbolTable
 70
1
  0
STYLE
  5
11
100
AcDbSymbolTableRecord
100
AcDbTextStyleTableRecord
  2
Standard
 70
0
 40
0.0
 41
0.75
 50
0.0
 71
0
 42
2.5
  3
txt
  4

  0
ENDTAB
  0
TABLE
  2
VIEW
  5
6
100
AcDbSymbolTable
 70
0
  0
ENDTAB
  0
TABLE
  2
UCS
  5
7
100
AcDbSymbolTable
 70
0
  0
ENDTAB
  0
TABLE
  2
APPID
  5
9
100
AcDbSymbolTable
 70
1
  0
APPID
  5
12
100
AcDbSymbolTableRecord
100
AcDbRegAppTableRecord
  2
ACAD
 70
0
  0
ENDTAB
  0
TABLE
  2
DIMSTYLE
  5
A
100
AcDbSymbolTable
 70
1
100
AcDbDimStyleTable
 71
0
  0
DIMSTYLE
105
27
100
AcDbSymbolTableRecord
100
AcDbDimStyleTableRecord
  2
Standard
 41
3.0
 42
2.0
 43
3.75
 44
2.0
 70
0
 73
0
 74
0
 77
1
 78
8
140
5.0
141
2.5
143
0.03937007874016
147
0.625
171
3
172
1
271
2
272
2
274
3
278
44
283
0
284
8
340
11
  0
ENDTAB
  0
TABLE
  2
BLOCK_RECORD
  5
1
100
AcDbSymbolTable
 70
1
  0
BLOCK_RECORD
  5
1F
100
AcDbSymbolTableRecord
100
AcDbBlockTableRecord
  2
*Model_Space
340
22
  0
BLOCK_RECORD
  5
1B
100
AcDbSymbolTableRecord
100
AcDbBlockTableRecord
  2
*Paper_Space
340
1E
  0
BLOCK_RECORD
  5
23
100
AcDbSymbolTableRecord
100
AcDbBlockTableRecord
  2
*Paper_Space0
340
26
  0
ENDTAB
  0
ENDSEC
  0
SECTION
  2
BLOCKS
  0
BLOCK
  5
20
100
AcDbEntity
  8
0
100
AcDbBlockBegin
  2
*Model_Space
 70
0
 10
0.0
 20
0.0
 30
0.0
  3
*Model_Space
  1

  0
ENDBLK
  5
21
100
AcDbEntity
  8
0
100
AcDbBlockEnd
  0
BLOCK
  5
1C
100
AcDbEntity
 67
1
  8
0
100
AcDbBlockBegin
  2
*Paper_Space
 70
0
 10
0.0
 20
0.0
 30
0.0
  3
*Paper_Space
  1

  0
ENDBLK
  5
1D
100
AcDbEntity
 67
1
  8
0
100
AcDbBlockEnd
  0
BLOCK
  5
24
100
AcDbEntity
  8
0
100
AcDbBlockBegin
  2
*Paper_Space0
 70
0
 10
0.0
 20
0.0
 30
0.0
  3
*Paper_Space0
  1

  0
ENDBLK
  5
25
100
AcDbEntity
  8
0
100
AcDbBlockEnd
  0
ENDSEC
  0
SECTION
  2
ENTITIES
  0
LINE
  5
43
100
AcDbEntity
100
AcDbLine
  8
0
 62
256
370
50
  6
CONTINUOUS
 10
230.0
 20
292.0
 30
0.0
 11
415.0
 21
292.0
 31
0.0
  0
LINE
  5
44
100
AcDbEntity
100
AcDbLine
  8
0
 62
256
370
50
  6
CONTINUOUS
 10
415.0
 20
5.0000000000000009
 30
0.0
 11
230.0
 21
5.0000000000000009
 31
0.0
  0
LINE
  5
45
100
AcDbEntity
100
AcDbLine
  8
0
 62
256
370
50
  6
CONTINUOUS
 10
415.0
 20
292.0
 30
0.0
 11
415.0
 21
5.0000000000000009
 31
0.0
  0
LINE
  5
46
100
AcDbEntity
100
AcDbLine
  8
0
 62
256
370
18
  6
CONTINUOUS
 10
420.0
 20
297.0
 30
0.0
 11
420.0
 21
0.000000000000002
 31
0.0
  0
LINE
  5
47
100
AcDbEntity
100
AcDbLine
  8
0
 62
256
370
50
  6
CONTINUOUS
 10
20.0
 20
172.0
 30
0.0
 11
8.0
 21
172.0
 31
0.0
  0
LINE
  5
48
100
AcDbEntity
100
AcDbLine
  8
0
 62
256
370
50
  6
CONTINUOUS
 10
20.0
 20
232.0
 30
0.0
 11
8.0
 21
232.0
 31
0.0
  0
LINE
  5
49
100
AcDbEntity
100
AcDbLine
  8
0
 62
256
370
50
  6
CONTINUOUS
 10
20.0
 20
150.0
 30
0.0
 11
8.0
 21
150.0
 31
0.0
  0
LINE
  5
4A
100
AcDbEntity
100
AcDbLine
  8
0
 62
256
370
50
  6
CONTINUOUS
 10
8.0
 20
5.0000000000000009
 30
0.0
 11
8.0
 21
150.0
 31
0.0
  0
LINE
  5
4B
100
AcDbEntity
100
AcDbLine
  8
0
 62
256
370
50
  6
CONTINUOUS
 10
20.0
 20
115.0
 30
0.0
 11
8.0
 21
115.0
 31
0.0
  0
LINE
  5
4C
100
AcDbEntity
100
AcDbLine
  8
0
 62
256
370
50
  6
CONTINUOUS
 10
20.0
 20
90.0
 30
0.0
 11
8.0
 21
90.0
 31
0.0
  0
LINE
  5
4D
100
AcDbEntity
100
AcDbLine
  8
0
 62
256
370
50
  6
CONTINUOUS
 10
20.0
 20
65.0
 30
0.0
 11
8.0
 21
65.0
 31
0.0
  0
LINE
  5
4E
100
AcDbEntity
100
AcDbLine
  8
0
 62
256
370
50
  6
CONTINUOUS
 10
20.0
 20
30.0
 30
0.0
 11
8.0
 21
30.0
 31
0.0
  0
LINE
  5
4F
100
AcDbEntity
100
AcDbLine
  8
0
 62
256
370
18
  6
CONTINUOUS
 10
13.0
 20
5.0000000000000009
 30
0.0
 11
13.0
 21
150.0
 31
0.0
  0
LINE
  5
50
100
AcDbEntity
100
AcDbLine
  8
0
 62
256
370
18
  6
CONTINUOUS
 10
13.0
 20
172.0
 30
0.0
 11
13.0
 21
292.0
 31
0.0
  0
LINE
  5
51
100
AcDbEntity
100
AcDbLine
  8
0
 62
256
370
50
  6
CONTINUOUS
 10
20.0
 20
5.0000000000000009
 30
0.0
 11
20.0
 21
292.0
 31
0.0
  0
LINE
  5
52
100
AcDbEntity
100
AcDbLine
  8
0
 62
256
370
50
  6
CONTINUOUS
 10
8.0
 20
172.0
 30
0.0
 11
8.0
 21
292.0
 31
0.0
  0
LINE
  5
53
100
AcDbEntity
100
AcDbLine
  8
0
 62
256
370
50
  6
CONTINUOUS
 10
20.0
 20
278.0
 30
0.0
 11
90.0
 21
278.0
 31
0.0
  0
LINE
  5
54
100
AcDbEntity
100
AcDbLine
  8
0
 62
256
370
50
  6
CONTINUOUS
 10
90.0
 20
278.0
 30
0.0
 11
90.0
 21
292.0
 31
0.0
  0
LINE
  5
55
100
AcDbEntity
100
AcDbLine
  8
0
 62
256
370
18
  6
CONTINUOUS
 10
0.0
 20
297.0
 30
0.0
 11
420.0
 21
297.0
 31
0.0
  0
LINE
  5
56
100
AcDbEntity
100
AcDbLine
  8
0
 62
256
370
18
  6
CONTINUOUS
 10
0.0
 20
0.000000000000001
 30
0.0
 11
0.0
 21
297.0
 31
0.0
  0
LINE
  5
57
100
AcDbEntity
100
AcDbLine
  8
0
 62
256
370
50
  6
CONTINUOUS
 10
230.0
 20
292.0
 30
0.0
 11
8.0
 21
292.0
 31
0.0
  0
LINE
  5
58
100
AcDbEntity
100
AcDbLine
  8
0
 62
256
370
18
  6
CONTINUOUS
 10
420.0
 20
0.000000000000002
 30
0.0
 11
0.0
 21
0.0
 31
0.0
  0
LINE
  5
59
100
AcDbEntity
100
AcDbLine
  8
0
 62
256
370
50
  6
CONTINUOUS
 10
230.0
 20
5.0000000000000009
 30
0.0
 11
8.0
 21
5.0000000000000009
 31
0.0
  0
MTEXT
  5
5A
100
AcDbEntity
100
AcDbMText
  8
0
 62
256
370
18
  6
CONTINUOUS
 10
385.3900375939851983
 20
284.3712741675622055
 30
0.0
 40
5.0
 41
100.0
 71
1
 72
2
  1
3,2
  7
unicode2
 50
0.0
 73
1
 44
1.0
  0
ARC
  5
5B
100
AcDbEntity
  8
0
 62
256
370
18
  6
CONTINUOUS
100
AcDbCircle
 10
401.0683227297490703
 20
275.2285155311637936
 30
0.0
 40
5.3252957026099379
100
AcDbArc
 50
149.9898623596818368
 51
210.0101376403183053
  0
LINE
  5
5C
100
AcDbEntity
100
AcDbLine
  8
0
 62
256
370
18
  6
CONTINUOUS
 10
390.8743090095578054
 20
272.58341507488052
 30
0.0
 11
394.8743090095578054
 21
279.5116183051560483
 31
0.0
  0
ARC
  5
5D
100
AcDbEntity
  8
0
 62
256
370
18
  6
CONTINUOUS
100
AcDbCircle
 10
399.1864732186612628
 20
275.2285155311637936
 30
0.0
 40
5.3252957026099379
100
AcDbArc
 50
329.9898623596816947
 51
30.0101376403181348
  0
LINE
  5
5E
100
AcDbEntity
100
AcDbLine
  8
0
 62
256
370
18
  6
CONTINUOUS
 10
399.9500596919964437
 20
272.58341507488052
 30
0.0
 11
403.9500596919964437
 21
279.5116183051560483
 31
0.0
  0
LINE
  5
5F
100
AcDbEntity
100
AcDbLine
  8
0
 62
256
370
18
  6
CONTINUOUS
 10
399.9500596919964437
 20
272.58341507488052
 30
0.0
 11
397.4500596919964437
 21
276.9135420938027323
 31
0.0
  0
LINE
  5
60
100
AcDbEntity
100
AcDbLine
  8
0
 62
256
370
18
  6
CONTINUOUS
 10
390.8746819459934159
 20
272.5830254999420958
 30
0.0
 11
388.3746819459934159
 21
276.9140254999421131
 31
0.0
  0
LINE
  5
61
100
AcDbEntity
100
AcDbLine
  8
0
 62
256
370
18
  6
CONTINUOUS
 10
210.0
 20
297.0
 30
0.0
 11
210.0
 21
297.0
 31
0.0
  0
LINE
  5
62
100
AcDbEntity
100
AcDbLine
  8
0
 62
256
370
18
  6
CONTINUOUS
 10
210.0
 20
0.0000000000000011
 30
0.0
 11
210.0
 21
5.0000000000000009
 31
0.0
  0
LINE
  5
63
100
AcDbEntity
100
AcDbLine
  8
0
 62
256
370
18
  6
CONTINUOUS
 10
210.0
 20
292.0
 30
0.0
 11
210.0
 21
297.0
 31
0.0
  0
MTEXT
  5
64
100
AcDbEntity
100
AcDbMText
  8
0
 62
256
370
18
  6
CONTINUOUS
 10
313.0
 20
1.5000000000000011
 30
0.0
 40
2.7999999999999998
 41
100.0
 71
7
 72
2
  1
\U+041a\U+043e\U+043f\U+0438\U+0440\U+043e\U+0432\U+0430\U+043b
  7
unicode2
 50
0.0
 73
1
 44
1.0
  0
MTEXT
  5
65
100
AcDbEntity
100
AcDbMText
  8
0
 62
256
370
18
  6
CONTINUOUS
 10
415.9495602275124497
 20
5.0717569800970717
 30
0.0
 40
1.2
 41
100.0
 71
1
 72
2
  1
KONSEXPERT\~&\~RIBBONSOFT
  7
unicode2
 50
90.0
 73
1
 44
1.0
  0
MTEXT
  5
66
100
AcDbEntity
100
AcDbMText
  8
0
 62
256
370
18
  6
CONTINUOUS
 10
417.7609020061184992
 20
7.1246109958506247
 30
0.0
 40
1.2
 41
100.0
 71
1
 72
2
  1
OPEN\~SOURCE\~RELEASE
  7
unicode2
 50
90.0
 73
1
 44
1.0
  0
MTEXT
  5
67
100
AcDbEntity
100
AcDbMText
  8
0
 62
256
370
18
  6
CONTINUOUS
 10
86.2923631812727479
 20
287.1706398650097753
 30
0.0
 40
5.0
 41
100.0
 71
7
 72
2
  1
_
  7
unicode2
 50
180.0
 73
1
 44
1.0
  0
LINE
  5
68
100
AcDbEntity
100
AcDbLine
  8
0
 62
0
370
0
  6
CONTINUOUS
 10
230.0
 20
15.0000000000000018
 30
0.0
 11
295.0
 21
15.0000000000000018
 31
0.0
  0
MTEXT
  5
69
100
AcDbEntity
100
AcDbMText
  8
0
 62
256
370
18
  6
CONTINUOUS
 10
285.5626091148748174
 20
8.9045835530173978
 30
0.0
 40
2.6000000000000001
 41
100.0
 71
1
 72
2
  1
\U+0414\U+0430\U+0442\U+0430
  7
unicode2
 50
0.0
 73
1
 44
1.0
  0
LINE
  5
6A
100
AcDbEntity
100
AcDbLine
  8
0
 62
256
370
50
  6
CONTINUOUS
 10
405.0
 20
5.0000000000000009
 30
0.0
 11
405.0
 21
20.0
 31
0.0
  0
LINE
  5
6B
100
AcDbEntity
100
AcDbLine
  8
0
 62
256
370
50
  6
CONTINUOUS
 10
230.0
 20
20.0
 30
0.0
 11
415.0
 21
20.0
 31
0.0
  0
LINE
  5
6C
100
AcDbEntity
100
AcDbLine
  8
0
 62
256
370
50
  6
CONTINUOUS
 10
237.0
 20
5.0000000000000009
 30
0.0
 11
237.0
 21
20.0
 31
0.0
  0
LINE
  5
6D
100
AcDbEntity
100
AcDbLine
  8
0
 62
256
370
50
  6
CONTINUOUS
 10
247.0
 20
5.0000000000000009
 30
0.0
 11
247.0
 21
20.0
 31
0.0
  0
LINE
  5
6E
100
AcDbEntity
100
AcDbLine
  8
0
 62
256
370
50
  6
CONTINUOUS
 10
270.0
 20
5.0000000000000009
 30
0.0
 11
270.0
 21
20.0
 31
0.0
  0
LINE
  5
6F
100
AcDbEntity
100
AcDbLine
  8
0
 62
256
370
50
  6
CONTINUOUS
 10
285.0
 20
5.0000000000000009
 30
0.0
 11
285.0
 21
20.0
 31
0.0
  0
LINE
  5
70
100
AcDbEntity
100
AcDbLine
  8
0
 62
256
370
50
  6
CONTINUOUS
 10
230.0
 20
10.0000000000000018
 30
0.0
 11
295.0
 21
10.0000000000000018
 31
0.0
  0
LINE
  5
71
100
AcDbEntity
100
AcDbLine
  8
0
 62
256
370
50
  6
CONTINUOUS
 10
295.0
 20
5.0000000000000009
 30
0.0
 11
295.0
 21
20.0
 31
0.0
  0
LINE
  5
72
100
AcDbEntity
100
AcDbLine
  8
0
 62
256
370
50
  6
CONTINUOUS
 10
405.0
 20
12.5000000000000018
 30
0.0
 11
415.0
 21
12.5000000000000018
 31
0.0
  0
MTEXT
  5
73
100
AcDbEntity
100
AcDbMText
  8
0
 62
256
370
18
  6
CONTINUOUS
 10
313.1080332830454154
 20
9.0069404027661069
 30
0.0
 40
7.0
 41
100.0
 71
7
 72
2
  1
_
  7
unicode2
 50
0.0
 73
0
 44
1.0
  0
MTEXT
  5
74
100
AcDbEntity
100
AcDbMText
  8
0
 62
256
370
18
  6
CONTINUOUS
 10
405.808390574918576
 20
14.99855981169698
 30
0.0
 40
2.7999999999999998
 41
100.0
 71
7
 72
2
  1
\U+041b\U+0438\U+0441\U+0442
  7
unicode2
 50
0.0
 73
1
 44
1.0
  0
MTEXT
  5
75
100
AcDbEntity
100
AcDbMText
  8
0
 62
256
370
18
  6
CONTINUOUS
 10
409.0773587896377421
 20
11.5013653628708923
 30
0.0
 40
5.0
 41
100.0
 71
1
 72
2
  1
_
  7
unicode2
 50
0.0
 73
1
 44
1.0
  0
LINE
  5
76
100
AcDbEntity
100
AcDbLine
  8
0
 62
256
370
50
  6
CONTINUOUS
 10
230.0
 20
5.0000000000000009
 30
0.0
 11
230.0
 21
20.0
 31
0.0
  0
MTEXT
  5
77
100
AcDbEntity
100
AcDbMText
  8
0
 62
256
370
18
  6
CONTINUOUS
 10
11.7895402864853338
 20
249.9483341540374681
 30
0.0
 40
2.7999999999999998
 41
100.0
 71
7
 72
2
  1
\U+041f\U+0435\U+0440\U+0432.\~\U+043f\U+0440\U+0438\U+043c\U+0435\U+043d.
  7
unicode
 50
90.0
 73
1
 44
1.0
  0
MTEXT
  5
78
100
AcDbEntity
100
AcDbMText
  8
0
 62
256
370
18
  6
CONTINUOUS
 10
12.0
 20
196.0
 30
0.0
 40
2.7999999999999998
 41
100.0
 71
7
 72
2
  1
\U+0421\U+043f\U+0440\U+0430\U+0432.\~N
  7
unicode
 50
90.0
 73
1
 44
1.0
  0
MTEXT
  5
79
100
AcDbEntity
100
AcDbMText
  8
0
 62
256
370
18
  6
CONTINUOUS
 10
11.7622287206093858
 20
119.8600584854845579
 30
0.0
 40
2.7999999999999998
 41
100.0
 71
7
 72
2
  1
\U+041f\U+043e\U+0434\U+043f.\~\U+0438\~\U+0434\U+0430\U+0442\U+0430
  7
unicode
 50
90.0
 73
1
 44
1.0
  0
MTEXT
  5
7A
100
AcDbEntity
100
AcDbMText
  8
0
 62
256
370
18
  6
CONTINUOUS
 10
12.0
 20
90.9250389949079647
 30
0.0
 40
2.7999999999999998
 41
100.0
 71
7
 72
2
  1
\U+0418\U+043d\U+0432.\~N\~\U+0434\U+0443\U+0431\U+043b.
  7
unicode
 50
90.0
 73
1
 44
1.0
  0
MTEXT
  5
7B
100
AcDbEntity
100
AcDbMText
  8
0
 62
256
370
18
  6
CONTINUOUS
 10
12.0
 20
34.5242868814802364
 30
0.0
 40
2.7999999999999998
 41
100.0
 71
7
 72
2
  1
\U+041f\U+043e\U+0434\U+043f.\~\U+0438\~\U+0434\U+0430\U+0442\U+0430
  7
unicode
 50
90.0
 73
1
 44
1.0
  0
MTEXT
  5
7C
100
AcDbEntity
100
AcDbMText
  8
0
 62
256
370
18
  6
CONTINUOUS
 10
12.0
 20
5.8784486766489978
 30
0.0
 40
2.7999999999999998
 41
100.0
 71
7
 72
2
  1
\U+0418\U+043d\U+0432.\~N\~\U+043f\U+043e\U+0434\U+043b.
  7
unicode
 50
90.0
 73
1
 44
1.0
  0
MTEXT
  5
7D
100
AcDbEntity
100
AcDbMText
  8
0
 62
256
370
18
  6
CONTINUOUS
 10
230.4226181582011748
 20
8.4671795971909791
 30
0.0
 40
2.6000000000000001
 41
100.0
 71
1
 72
2
  1
\U+0418\U+0437\U+043c.
  7
unicode
 50
0.0
 73
1
 44
1.0
  0
MTEXT
  5
7E
100
AcDbEntity
100
AcDbMText
  8
0
 62
256
370
18
  6
CONTINUOUS
 10
237.7163955900067833
 20
8.4897778611760248
 30
0.0
 40
2.6000000000000001
 41
100.0
 71
1
 72
2
  1
\U+041b\U+0438\U+0441\U+0442.
  7
unicode
 50
0.0
 73
1
 44
1.0
  0
MTEXT
  5
7F
100
AcDbEntity
100
AcDbMText
  8
0
 62
256
370
18
  6
CONTINUOUS
 10
250.7749412416331722
 20
8.674582443111662
 30
0.0
 40
2.6000000000000001
 41
100.0
 71
1
 72
2
  1
N\~\U+0434\U+043e\U+043a\U+0443\U+043c.
  7
unicode
 50
0.0
 73
1
 44
1.0
  0
MTEXT
  5
80
100
AcDbEntity
100
AcDbMText
  8
0
 62
256
370
18
  6
CONTINUOUS
 10
273.3725502898711284
 20
8.9620838304938264
 30
0.0
 40
2.6000000000000001
 41
100.0
 71
1
 72
2
  1
\U+041f\U+043e\U+0434\U+043f.
  7
unicode
 50
0.0
 73
1
 44
1.0
  0
MTEXT
  5
81
100
AcDbEntity
100
AcDbMText
  8
0
 62
256
370
18
  6
CONTINUOUS
 10
285.553782367699398
 20
8.8580292000743643
 30
0.0
 40
2.5
 41
100.0
 71
1
 72
2
  1
\U+0414\U+0430\U+0442\U+0430
  7
unicode
 50
0.0
 73
0
 44
1.0
  0
MTEXT
  5
82
100
AcDbEntity
100
AcDbMText
  8
0
 62
256
370
18
  6
CONTINUOUS
 10
316.6465306028710529
 20
8.052450259507518
 30
0.0
 40
7.0
 41
100.0
 71
7
 72
2
  1
_
  7
unicode
 50
0.0
 73
0
 44
1.0
  0
MTEXT
  5
83
100
AcDbEntity
100
AcDbMText
  8
0
 62
256
370
18
  6
CONTINUOUS
 10
406.1579271859781102
 20
17.1462039430206588
 30
0.0
 40
2.5
 41
100.0
 71
1
 72
2
  1
\U+041b\U+0438\U+0441\U+0442
  7
unicode
 50
0.0
 73
0
 44
1.0
  0
MTEXT
  5
84
100
AcDbEntity
100
AcDbMText
  8
0
 62
256
370
18
  6
CONTINUOUS
 10
409.0000566892532561
 20
11.712721069112364
 30
0.0
 40
5.0
 41
100.0
 71
1
 72
2
  1
_
  7
unicode
 50
0.0
 73
0
 44
1.0
  0
MTEXT
  5
85
100
AcDbEntity
100
AcDbMText
  8
0
 62
256
370
18
  6
CONTINUOUS
 10
87.0119905293809808
 20
288.8042490932684814
 30
0.0
 40
5.0
 41
100.0
 71
7
 72
2
  1
_
  7
unicode
 50
180.0
 73
0
 44
1.0
  0
MTEXT
  5
86
100
AcDbEntity
100
AcDbMText
  8
0
 62
256
370
18
  6
CONTINUOUS
 10
370.717110141766625
 20
1.5000000000000011
 30
0.0
 40
2.7999999999999998
 41
100.0
 71
7
 72
2
  1
\U+0424\U+043e\U+0440\U+043c\U+0430\U+0442\~\U+04103\~\U+0413\U+041e\U+0421\U+0422\~2.301
  7
unicode
 50
0.0
 73
1
 44
1.0
  0
MTEXT
  5
87
100
AcDbEntity
100
AcDbMText
  8
0
 62
256
370
18
  6
CONTINUOUS
 10
9.2277866362977647
 20
66.4139866449291532
 30
0.0
 40
2.7999999999999998
 41
100.0
 71
1
 72
2
  1
\U+0412\U+0437\U+0430\U+043c.\~\U+0438\U+043d\U+0432.N
  7
unicode
 50
90.0
 73
0
 44
1.0
  0
ENDSEC
  0
SECTION
  2
OBJECTS
  0
DICTIONARY
  5
C
100
AcDbDictionary
280
0
281
1
  3
ACAD_GROUP
350
D
  3
ACAD_LAYOUT
350
1A
  3
ACAD_MLINESTYLE
350
17
  3
ACAD_PLOTSETTINGS
350
19
  3
ACAD_PLOTSTYLENAME
350
E
  3
AcDbVariableDictionary
350
88
  0
DICTIONARY
  5
D
100
AcDbDictionary
280
0
281
1
  0
ACDBDICTIONARYWDFLT
  5
E
100
AcDbDictionary
281
1
  3
Normal
350
F
100
AcDbDictionaryWithDefault
340
F
  0
ACDBPLACEHOLDER
  5
F
  0
DICTIONARY
  5
17
100
AcDbDictionary
280
0
281
1
  3
Standard
350
18
  0
MLINESTYLE
  5
18
100
AcDbMlineStyle
  2
STANDARD
 70
0
  3

 62
256
 51
90.0
 52
90.0
 71
2
 49
0.5
 62
256
  6
BYLAYER
 49
-0.5
 62
256
  6
BYLAYER
  0
DICTIONARY
  5
19
100
AcDbDictionary
280
0
281
1
  0
DICTIONARY
  5
1A
100
AcDbDictionary
281
1
  3
Layout1
350
1E
  3
Layout2
350
26
  3
Model
350
22
  0
LAYOUT
  5
1E
100
AcDbPlotSettings
  1

  2
C:\Program Files\AutoCAD 2002\plotters\DWF ePlot (optimized for plotting).pc3
  4

  6

 40
0.0
 41
0.0
 42
0.0
 43
0.0
 44
0.0
 45
0.0
 46
0.0
 47
0.0
 48
0.0
 49
0.0
140
0.0
141
0.0
142
1.0
143
1.0
 70
688
 72
0
 73
0
 74
5
  7

 75
16
147
1.0
148
0.0
149
0.0
100
AcDbLayout
  1
Layout1
 70
1
 71
1
 10
0.0
 20
0.0
 11
420.0
 21
297.0
 12
0.0
 22
0.0
 32
0.0
 14
100000000000000000000.0
 24
100000000000000000000.0
 34
100000000000000000000.0
 15
-100000000000000000000.0
 25
-100000000000000000000.0
 35
-100000000000000000000.0
146
0.0
 13
0.0
 23
0.0
 33
0.0
 16
1.0
 26
0.0
 36
0.0
 17
0.0
 27
1.0
 37
0.0
 76
0
330
1B
  0
LAYOUT
  5
22
100
AcDbPlotSettings
  1

  2
C:\Program Files\AutoCAD 2002\plotters\DWF ePlot (optimized for plotting).pc3
  4

  6

 40
0.0
 41
0.0
 42
0.0
 43
0.0
 44
0.0
 45
0.0
 46
0.0
 47
0.0
 48
0.0
 49
0.0
140
0.0
141
0.0
142
1.0
143
1.0
 70
1712
 72
0
 73
0
 74
0
  7

 75
0
147
1.0
148
0.0
149
0.0
100
AcDbLayout
  1
Model
 70
1
 71
0
 10
0.0
 20
0.0
 11
12.0
 21
9.0
 12
0.0
 22
0.0
 32
0.0
 14
0.0
 24
0.0
 34
0.0
 15
0.0
 25
0.0
 35
0.0
146
0.0
 13
0.0
 23
0.0
 33
0.0
 16
1.0
 26
0.0
 36
0.0
 17
0.0
 27
1.0
 37
0.0
 76
0
330
1F
  0
LAYOUT
  5
26
100
AcDbPlotSettings
  1

  2
C:\Program Files\AutoCAD 2002\plotters\DWF ePlot (optimized for plotting).pc3
  4

  6

 40
0.0
 41
0.0
 42
0.0
 43
0.0
 44
0.0
 45
0.0
 46
0.0
 47
0.0
 48
0.0
 49
0.0
140
0.0
141
0.0
142
1.0
143
1.0
 70
688
 72
0
 73
0
 74
5
  7

 75
16
147
1.0
148
0.0
149
0.0
100
AcDbLayout
  1
Layout2
 70
1
 71
2
 10
0.0
 20
0.0
 11
12.0
 21
9.0
 12
0.0
 22
0.0
 32
0.0
 14
0.0
 24
0.0
 34
0.0
 15
0.0
 25
0.0
 35
0.0
146
0.0
 13
0.0
 23
0.0
 33
0.0
 16
1.0
 26
0.0
 36
0.0
 17
0.0
 27
1.0
 37
0.0
 76
0
330
23
  0
DICTIONARY
  5
88
100
AcDbDictionary
281
1
  3
DIMASSOC
350
8A
  3
HIDETEXT
350
89
  0
DICTIONARYVAR
  5
89
100
DictionaryVariables
280
0
  1
2
  0
DICTIONARYVAR
  5
8A
100
DictionaryVariables
280
0
  1
1
  0
ENDSEC
  0
EOF
