999
dxfrw 0.5.11
0
SECTION
2
HEADER
9
$ACADVER
1
AC1021
9
$HANDSEED
5
20000
9
$DWGCODEPAGE
3
ANSI_1252
9
$INSBASE
10
25
20
40
30
0
9
$EXTMIN
10
-23.5
20
0
30
0
9
$EXTMAX
10
21.5
20
40.8838834765
30
0
9
$LIMMIN
10
0
20
0
9
$LIMMAX
10
40
20
40
9
$ORTHOMODE
70
1
9
$LTSCALE
40
1
9
$TEXTSTYLE
7
Standard
9
$CLAYER
8
0
9
$DIMASZ
40
2.5
9
$DIMLFAC
40
1
9
$DIMSCALE
40
1
9
$DIMEXO
40
2
9
$DIMEXE
40
1.25
9
$DIMTXT
40
2.5
9
$DIMTSZ
40
0
9
$DIMAUNIT
70
0
9
$DIMADEC
70
1
9
$DIMLUNIT
70
2
9
$DIMSTYLE
2
ag
9
$DIMGAP
40
0.625
9
$DIMTIH
70
0
9
$LUNITS
70
2
9
$LUPREC
70
1
9
$AUNITS
70
0
9
$AUPREC
70
1
9
$SPLINESEGS
70
8
9
$GRIDMODE
70
1
9
$SNAPSTYLE
70
0
9
$PINSBASE
10
0
20
0
30
0
9
$PLIMMIN
10
-20
20
-7.5
9
$PLIMMAX
10
277
20
202.5
9
$INSUNITS
70
4
9
$PSVPSCALE
40
0
0
ENDSEC
0
SECTION
2
CLASSES
0
ENDSEC
0
SECTION
2
TABLES
0
TABLE
2
VPORT
5
8
330
0
100
AcDbSymbolTable
70
1
0
VPORT
5
31
330
2
100
AcDbSymbolTableRecord
100
AcDbViewportTableRecord
2
*ACTIVE
70
0
10
0
20
0
11
1
21
1
12
22.2819807225
22
23.7042348112
13
0
23
0
14
10
24
10
15
10
25
10
16
0
26
0
36
1
17
0
27
0
37
0
40
71.1127044336
41
1.38
42
50
43
0
44
0
50
0
51
0
71
0
72
100
73
1
74
3
75
0
76
1
77
0
78
0
281
0
65
1
110
0
120
0
130
0
111
1
121
0
131
0
112
0
122
1
132
0
79
0
146
0
348
10020
60
7
61
5
292
1
282
1
141
0
142
0
63
250
421
3358443
0
ENDTAB
0
TABLE
2
LTYPE
5
5
330
0
100
AcDbSymbolTable
70
4
0
LTYPE
5
14
330
5
100
AcDbSymbolTableRecord
100
AcDbLinetypeTableRecord
2
ByBlock
70
0
3

72
65
73
0
40
0
0
LTYPE
5
15
330
5
100
AcDbSymbolTableRecord
100
AcDbLinetypeTableRecord
2
ByLayer
70
0
3

72
65
73
0
40
0
0
LTYPE
5
16
330
5
100
AcDbSymbolTableRecord
100
AcDbLinetypeTableRecord
2
Continuous
70
0
3
Solid line
72
65
73
0
40
0
0
LTYPE
5
32
330
5
100
AcDbSymbolTableRecord
100
AcDbLinetypeTableRecord
2
DOT
70
0
3
Dot . . . . . . . . . . . . . . . . . . . . . .
72
65
73
2
40
6.35
49
0
74
0
49
-6.35
74
0
0
LTYPE
5
33
330
5
100
AcDbSymbolTableRecord
100
AcDbLinetypeTableRecord
2
DOT2
70
0
3
Dot (.5x) .....................................
72
65
73
2
40
3.175
49
0
74
0
49
-3.175
74
0
0
LTYPE
5
34
330
5
100
AcDbSymbolTableRecord
100
AcDbLinetypeTableRecord
2
DOTX2
70
0
3
Dot (2x) .  .  .  .  .  .  .  .  .  .  .  .  .
72
65
73
2
40
12.7
49
0
74
0
49
-12.7
74
0
0
LTYPE
5
35
330
5
100
AcDbSymbolTableRecord
100
AcDbLinetypeTableRecord
2
DASHED
70
0
3
Dot . . . . . . . . . . . . . . . . . . . . . .
72
65
73
2
40
19.05
49
12.7
74
0
49
-6.35
74
0
0
LTYPE
5
36
330
5
100
AcDbSymbolTableRecord
100
AcDbLinetypeTableRecord
2
DASHED2
70
0
3
Dashed (.5x) _ _ _ _ _ _ _ _ _ _ _ _ _ _ _ _ _
72
65
73
2
40
9.525
49
6.35
74
0
49
-3.175
74
0
0
LTYPE
5
37
330
5
100
AcDbSymbolTableRecord
100
AcDbLinetypeTableRecord
2
DASHEDX2
70
0
3
Dashed (2x) ____  ____  ____  ____  ____  ___
72
65
73
2
40
38.1
49
25.4
74
0
49
-12.7
74
0
0
LTYPE
5
38
330
5
100
AcDbSymbolTableRecord
100
AcDbLinetypeTableRecord
2
DASHDOT
70
0
3
Dash dot __ . __ . __ . __ . __ . __ . __ . __
72
65
73
4
40
25.4
49
12.7
74
0
49
-6.35
74
0
49
0
74
0
49
-6.35
74
0
0
LTYPE
5
39
330
5
100
AcDbSymbolTableRecord
100
AcDbLinetypeTableRecord
2
DASHDOT2
70
0
3
Dash dot (.5x) _._._._._._._._._._._._._._._.
72
65
73
4
40
12.7
49
6.35
74
0
49
-3.175
74
0
49
0
74
0
49
-3.175
74
0
0
LTYPE
5
3A
330
5
100
AcDbSymbolTableRecord
100
AcDbLinetypeTableRecord
2
DASHDOTX2
70
0
3
Dash dot (2x) ____  .  ____  .  ____  .  ___
72
65
73
4
40
50.8
49
25.4
74
0
49
-12.7
74
0
49
0
74
0
49
-12.7
74
0
0
LTYPE
5
3B
330
5
100
AcDbSymbolTableRecord
100
AcDbLinetypeTableRecord
2
DIVIDE
70
0
3
Divide ____ . . ____ . . ____ . . ____ . . ____
72
65
73
6
40
31.75
49
12.7
74
0
49
-6.35
74
0
49
0
74
0
49
-6.35
74
0
49
0
74
0
49
-6.35
74
0
0
LTYPE
5
3C
330
5
100
AcDbSymbolTableRecord
100
AcDbLinetypeTableRecord
2
DIVIDE2
70
0
3
Divide (.5x) __..__..__..__..__..__..__..__.._
72
65
73
6
40
15.875
49
6.35
74
0
49
-3.175
74
0
49
0
74
0
49
-3.175
74
0
49
0
74
0
49
-3.175
74
0
0
LTYPE
5
3D
330
5
100
AcDbSymbolTableRecord
100
AcDbLinetypeTableRecord
2
DIVIDEX2
70
0
3
Divide (2x) ________  .  .  ________  .  .  _
72
65
73
6
40
63.5
49
25.4
74
0
49
-12.7
74
0
49
0
74
0
49
-12.7
74
0
49
0
74
0
49
-12.7
74
0
0
LTYPE
5
3E
330
5
100
AcDbSymbolTableRecord
100
AcDbLinetypeTableRecord
2
BORDER
70
0
3
Border __ __ . __ __ . __ __ . __ __ . __ __ .
72
65
73
6
40
44.45
49
12.7
74
0
49
-6.35
74
0
49
12.7
74
0
49
-6.35
74
0
49
0
74
0
49
-6.35
74
0
0
LTYPE
5
3F
330
5
100
AcDbSymbolTableRecord
100
AcDbLinetypeTableRecord
2
BORDER2
70
0
3
Border (.5x) __.__.__.__.__.__.__.__.__.__.__.
72
65
73
6
40
22.225
49
6.35
74
0
49
-3.175
74
0
49
6.35
74
0
49
-3.175
74
0
49
0
74
0
49
-3.175
74
0
0
LTYPE
5
40
330
5
100
AcDbSymbolTableRecord
100
AcDbLinetypeTableRecord
2
BORDERX2
70
0
3
Border (2x) ____  ____  .  ____  ____  .  ___
72
65
73
6
40
88.9
49
25.4
74
0
49
-12.7
74
0
49
25.4
74
0
49
-12.7
74
0
49
0
74
0
49
-12.7
74
0
0
LTYPE
5
41
330
5
100
AcDbSymbolTableRecord
100
AcDbLinetypeTableRecord
2
CENTER
70
0
3
Center ____ _ ____ _ ____ _ ____ _ ____ _ ____
72
65
73
4
40
50.8
49
31.75
74
0
49
-6.35
74
0
49
6.35
74
0
49
-6.35
74
0
0
LTYPE
5
42
330
5
100
AcDbSymbolTableRecord
100
AcDbLinetypeTableRecord
2
CENTER2
70
0
3
Center (.5x) ___ _ ___ _ ___ _ ___ _ ___ _ ___
72
65
73
4
40
28.575
49
19.05
74
0
49
-3.175
74
0
49
3.175
74
0
49
-3.175
74
0
0
LTYPE
5
43
330
5
100
AcDbSymbolTableRecord
100
AcDbLinetypeTableRecord
2
CENTERX2
70
0
3
Center (2x) ________  __  ________  __  _____
72
65
73
4
40
101.6
49
63.5
74
0
49
-12.7
74
0
49
12.7
74
0
49
-12.7
74
0
0
ENDTAB
0
TABLE
2
LAYER
5
2
330
0
100
AcDbSymbolTable
70
1
0
LAYER
5
10
330
2
100
AcDbSymbolTableRecord
100
AcDbLayerTableRecord
2
0
70
0
62
7
6
CONTINUOUS
370
-3
390
F
0
LAYER
5
44
330
2
100
AcDbSymbolTableRecord
100
AcDbLayerTableRecord
2
CRT-Tube
70
0
62
8
6
CONTINUOUS
370
-3
390
F
0
LAYER
5
45
330
2
100
AcDbSymbolTableRecord
100
AcDbLayerTableRecord
2
Contour
70
0
62
7
6
CONTINUOUS
370
-3
390
F
0
ENDTAB
0
TABLE
2
STYLE
5
3
330
0
100
AcDbSymbolTable
70
3
0
STYLE
5
46
330
2
100
AcDbSymbolTableRecord
100
AcDbTextStyleTableRecord
2
standard
70
0
40
0
41
1
50
0
71
0
42
1
3
standard
4

0
ENDTAB
0
TABLE
2
VIEW
5
6
330
0
100
AcDbSymbolTable
70
0
0
ENDTAB
0
TABLE
2
UCS
5
7
330
0
100
AcDbSymbolTable
70
0
0
ENDTAB
0
TABLE
2
APPID
5
9
330
0
100
AcDbSymbolTable
70
1
0
APPID
5
12
330
9
100
AcDbSymbolTableRecord
100
AcDbRegAppTableRecord
2
ACAD
70
0
0
ENDTAB
0
TABLE
2
DIMSTYLE
5
A
330
0
100
AcDbSymbolTable
70
1
100
AcDbDimStyleTable
71
1
0
DIMSTYLE
105
47
330
A
100
AcDbSymbolTableRecord
100
AcDbDimStyleTableRecord
2
Standard
70
0
40
1
41
2.5
42
2
43
0.38
44
1.25
45
0
46
0
47
0
48
0
140
2.5
141
0.09
142
0
143
25.4
144
1
145
0
146
1
147
0.625
148
0
71
0
72
0
73
0
74
1
75
0
76
0
77
0
78
0
79
0
170
0
171
2
172
0
173
0
174
0
175
0
176
0
177
0
178
0
179
0
271
4
272
4
273
2
274
2
275
0
276
0
277
2
278
46
279
0
280
0
281
0
282
0
283
1
284
0
285
0
286
0
288
0
289
3
340
Standard
341

371
-2
372
-2
0
ENDTAB
0
TABLE
2
BLOCK_RECORD
5
1
330
0
100
AcDbSymbolTable
70
2
0
BLOCK_RECORD
5
1F
330
1
100
AcDbSymbolTableRecord
100
AcDbBlockTableRecord
2
*Model_Space
70
0
280
1
281
0
0
BLOCK_RECORD
5
1E
330
1
100
AcDbSymbolTableRecord
100
AcDbBlockTableRecord
2
*Paper_Space
70
0
280
1
281
0
0
ENDTAB
0
ENDSEC
0
SECTION
2
BLOCKS
0
BLOCK
5
20
330
1F
100
AcDbEntity
8
0
100
AcDbBlockBegin
2
*Model_Space
70
0
10
0
20
0
30
0
3
*Model_Space
1

0
ENDBLK
5
21
330
1F
100
AcDbEntity
8
0
100
AcDbBlockEnd
0
BLOCK
5
1C
330
1B
100
AcDbEntity
8
0
100
AcDbBlockBegin
2
*Paper_Space
70
0
10
0
20
0
30
0
3
*Paper_Space
1

0
ENDBLK
5
1D
330
1F
100
AcDbEntity
8
0
100
AcDbBlockEnd
0
ENDSEC
0
SECTION
2
ENTITIES
0
ARC
5
48
100
AcDbEntity
8
CRT-Tube
6
ByLayer
62
256
370
-1
100
AcDbCircle
10
-11
20
12.5
40
7.5
100
AcDbArc
50
180
51
270
0
ARC
5
49
100
AcDbEntity
8
CRT-Tube
6
ByLayer
62
256
370
-1
100
AcDbCircle
10
-11
20
27.5
40
7.5
100
AcDbArc
50
90
51
180
0
LINE
5
4A
100
AcDbEntity
8
CRT-Tube
6
ByLayer
62
256
370
-1
100
AcDbLine
10
-11
20
35
11
9.139320225
21
35
0
LINE
5
4B
100
AcDbEntity
8
CRT-Tube
6
ByLayer
62
256
370
-1
100
AcDbLine
10
13.61145618
20
36.05572809
11
20.0527864045
21
39.2763932023
0
LINE
5
4C
100
AcDbEntity
8
CRT-Tube
6
ByLayer
62
256
370
-1
100
AcDbLine
10
21.5
20
38.3819660113
11
21.5
21
1.61803398875
0
LINE
5
4D
100
AcDbEntity
8
CRT-Tube
6
ByLayer
62
256
370
-1
100
AcDbLine
10
20.0527864045
20
0.72360679775
11
13.61145618
21
3.94427191
0
LINE
5
4E
100
AcDbEntity
8
CRT-Tube
6
ByLayer
62
256
370
-1
100
AcDbLine
10
9.139320225
20
5
11
-11
21
5
0
ARC
5
4F
100
AcDbEntity
8
CRT-Tube
6
ByLayer
62
256
370
-1
100
AcDbCircle
10
9.139320225
20
-5
40
10
100
AcDbArc
50
63.4349488229
51
90
0
ARC
5
50
100
AcDbEntity
8
CRT-Tube
6
ByLayer
62
256
370
-1
100
AcDbCircle
10
9.139320225
20
45
40
10
100
AcDbArc
50
270
51
296.565051177
0
ARC
5
51
100
AcDbEntity
8
CRT-Tube
6
ByLayer
62
256
370
-1
100
AcDbCircle
10
20.5
20
38.3819660113
40
1
100
AcDbArc
50
0
51
116.565051177
0
ARC
5
52
100
AcDbEntity
8
CRT-Tube
6
ByLayer
62
256
370
-1
100
AcDbCircle
10
20.5
20
1.61803398875
40
1
100
AcDbArc
50
243.434948823
51
0
0
LINE
5
53
100
AcDbEntity
8
CRT-Tube
6
ByLayer
62
256
370
-1
100
AcDbLine
10
-18.5
20
27.5
11
-18.5
21
12.5
0
LINE
5
54
100
AcDbEntity
8
Contour
6
ByLayer
62
256
370
-1
100
AcDbLine
10
-13.5000000997
20
32.5
11
-13.5000000997
21
27.5
0
LINE
5
55
100
AcDbEntity
8
Contour
6
ByLayer
62
256
370
-1
100
AcDbLine
10
-13.5000000997
20
32.5
11
-14.2071068808
21
33.2071067812
0
ARC
5
56
100
AcDbEntity
8
Contour
6
ByLayer
62
256
370
-1
100
AcDbCircle
10
-16.541207383
20
29.375
40
1.25
100
AcDbArc
50
0
51
150
0
ARC
5
57
100
AcDbEntity
8
Contour
6
ByLayer
62
256
370
-1
100
AcDbCircle
10
-16.541207383
20
30.625
40
1.25
100
AcDbArc
50
210
51
90
0
LINE
5
58
100
AcDbEntity
8
Contour
6
ByLayer
62
256
370
-1
100
AcDbLine
10
-10.8333245317
20
34
11
-10.8333245317
21
33
0
LINE
5
59
100
AcDbEntity
8
Contour
6
ByLayer
62
256
370
-1
100
AcDbLine
10
-10.8333245317
20
31.5
11
-10.8333245317
21
30.5
0
LINE
5
5A
100
AcDbEntity
8
Contour
6
ByLayer
62
256
370
-1
100
AcDbLine
10
-13.5000000997
20
27.5
11
-14.7500000997
21
26.25
0
ARC
5
5B
100
AcDbEntity
8
Contour
6
ByLayer
62
256
370
-1
100
AcDbCircle
10
-16.541207383
20
29.375
40
1.25
100
AcDbArc
50
270
51
90
0
LINE
5
5C
100
AcDbEntity
8
Contour
6
ByLayer
62
256
370
-1
100
AcDbLine
10
-10.8333245317
20
28.75
11
-10.8333245317
21
27.75
0
LINE
5
5D
100
AcDbEntity
8
Contour
6
ByLayer
62
256
370
-1
100
AcDbLine
10
-14.2071068808
20
33.2071067812
11
-15.4575139192
21
34.375
0
LINE
5
5E
100
AcDbEntity
8
Contour
6
ByLayer
62
256
370
-1
100
AcDbLine
10
-16.541207383
20
28.125
11
-20.916207383
21
28.125
0
LINE
5
5F
100
AcDbEntity
8
Contour
6
ByLayer
62
256
370
-1
100
AcDbLine
10
-13.5000000997
20
22.5
11
-13.5000000997
21
17.5
0
LINE
5
60
100
AcDbEntity
8
Contour
6
ByLayer
62
256
370
-1
100
AcDbLine
10
-13.5000000997
20
22.5
11
-14.2071068808
21
23.2071067812
0
ARC
5
61
100
AcDbEntity
8
Contour
6
ByLayer
62
256
370
-1
100
AcDbCircle
10
-16.541207383
20
19.375
40
1.25
100
AcDbArc
50
0
51
150
0
ARC
5
62
100
AcDbEntity
8
Contour
6
ByLayer
62
256
370
-1
100
AcDbCircle
10
-16.541207383
20
20.625
40
1.25
100
AcDbArc
50
210
51
90
0
LINE
5
63
100
AcDbEntity
8
Contour
6
ByLayer
62
256
370
-1
100
AcDbLine
10
-10.8333245317
20
24
11
-10.8333245317
21
23
0
LINE
5
64
100
AcDbEntity
8
Contour
6
ByLayer
62
256
370
-1
100
AcDbLine
10
-10.8333245317
20
21.5
11
-10.8333245317
21
20.5
0
LINE
5
65
100
AcDbEntity
8
Contour
6
ByLayer
62
256
370
-1
100
AcDbLine
10
-13.5000000997
20
17.5
11
-14.7500000997
21
16.25
0
ARC
5
66
100
AcDbEntity
8
Contour
6
ByLayer
62
256
370
-1
100
AcDbCircle
10
-16.541207383
20
19.375
40
1.25
100
AcDbArc
50
270
51
90
0
LINE
5
67
100
AcDbEntity
8
Contour
6
ByLayer
62
256
370
-1
100
AcDbLine
10
-10.8333245317
20
18.75
11
-10.8333245317
21
17.75
0
LINE
5
68
100
AcDbEntity
8
Contour
6
ByLayer
62
256
370
-1
100
AcDbLine
10
-14.2071068808
20
23.2071067812
11
-15.4575139192
21
24.375
0
LINE
5
69
100
AcDbEntity
8
Contour
6
ByLayer
62
256
370
-1
100
AcDbLine
10
-16.541207383
20
18.125
11
-20.916207383
21
18.125
0
LINE
5
6A
100
AcDbEntity
8
Contour
6
ByLayer
62
256
370
-1
100
AcDbLine
10
-13.5000000997
20
12.5
11
-13.5000000997
21
7.5
0
LINE
5
6B
100
AcDbEntity
8
Contour
6
ByLayer
62
256
370
-1
100
AcDbLine
10
-13.5000000997
20
12.5
11
-14.2071068808
21
13.2071067812
0
ARC
5
6C
100
AcDbEntity
8
Contour
6
ByLayer
62
256
370
-1
100
AcDbCircle
10
-16.541207383
20
9.375
40
1.25
100
AcDbArc
50
0
51
150
0
ARC
5
6D
100
AcDbEntity
8
Contour
6
ByLayer
62
256
370
-1
100
AcDbCircle
10
-16.541207383
20
10.625
40
1.25
100
AcDbArc
50
210
51
90
0
LINE
5
6E
100
AcDbEntity
8
Contour
6
ByLayer
62
256
370
-1
100
AcDbLine
10
-10.8333245317
20
14
11
-10.8333245317
21
13
0
LINE
5
6F
100
AcDbEntity
8
Contour
6
ByLayer
62
256
370
-1
100
AcDbLine
10
-10.8333245317
20
11.5
11
-10.8333245317
21
10.5
0
LINE
5
70
100
AcDbEntity
8
Contour
6
ByLayer
62
256
370
-1
100
AcDbLine
10
-13.5000000997
20
7.5
11
-14.7500000997
21
6.25
0
ARC
5
71
100
AcDbEntity
8
Contour
6
ByLayer
62
256
370
-1
100
AcDbCircle
10
-16.541207383
20
9.375
40
1.25
100
AcDbArc
50
270
51
90
0
LINE
5
72
100
AcDbEntity
8
Contour
6
ByLayer
62
256
370
-1
100
AcDbLine
10
-10.8333245317
20
8.75
11
-10.8333245317
21
7.75
0
LINE
5
73
100
AcDbEntity
8
Contour
6
ByLayer
62
256
370
-1
100
AcDbLine
10
-14.2071068808
20
13.2071067812
11
-15.4575139192
21
14.375
0
LINE
5
74
100
AcDbEntity
8
Contour
6
ByLayer
62
256
370
-1
100
AcDbLine
10
-16.541207383
20
8.125
11
-20.916207383
21
8.125
0
CIRCLE
5
75
100
AcDbEntity
8
Contour
6
ByLayer
62
256
370
-1
100
AcDbCircle
10
-21.541207383
20
31.875
40
0.625
0
CIRCLE
5
76
100
AcDbEntity
8
Contour
6
ByLayer
62
256
370
-1
100
AcDbCircle
10
-21.541207383
20
28.125
40
0.625
0
CIRCLE
5
77
100
AcDbEntity
8
Contour
6
ByLayer
62
256
370
-1
100
AcDbCircle
10
-21.541207383
20
21.875
40
0.625
0
CIRCLE
5
78
100
AcDbEntity
8
Contour
6
ByLayer
62
256
370
-1
100
AcDbCircle
10
-21.541207383
20
18.125
40
0.625
0
CIRCLE
5
79
100
AcDbEntity
8
Contour
6
ByLayer
62
256
370
-1
100
AcDbCircle
10
-21.541207383
20
11.875
40
0.625
0
CIRCLE
5
7A
100
AcDbEntity
8
Contour
6
ByLayer
62
256
370
-1
100
AcDbCircle
10
-21.541207383
20
8.125
40
0.625
0
LINE
5
7B
100
AcDbEntity
8
Contour
6
ByLayer
62
256
370
-1
100
AcDbLine
10
-20.916207383
20
31.875
11
-16.541207383
21
31.875
0
LINE
5
7C
100
AcDbEntity
8
Contour
6
ByLayer
62
256
370
-1
100
AcDbLine
10
-20.916207383
20
21.875
11
-16.541207383
21
21.875
0
LINE
5
7D
100
AcDbEntity
8
Contour
6
ByLayer
62
256
370
-1
100
AcDbLine
10
-20.916207383
20
11.875
11
-16.541207383
21
11.875
0
LINE
5
7E
100
AcDbEntity
8
Contour
6
ByLayer
62
256
370
-1
100
AcDbLine
10
-10.8333245317
20
34
11
-10.8333245317
21
40
0
LINE
5
7F
100
AcDbEntity
8
Contour
6
ByLayer
62
256
370
-1
100
AcDbLine
10
14
20
31.5
11
14
21
30.5
0
LINE
5
80
100
AcDbEntity
8
Contour
6
ByLayer
62
256
370
-1
100
AcDbLine
10
14
20
28.75
11
14
21
27.75
0
LINE
5
81
100
AcDbEntity
8
Contour
6
ByLayer
62
256
370
-1
100
AcDbLine
10
14
20
24
11
14
21
23
0
LINE
5
82
100
AcDbEntity
8
Contour
6
ByLayer
62
256
370
-1
100
AcDbLine
10
14
20
21.5
11
14
21
20.5
0
LINE
5
83
100
AcDbEntity
8
Contour
6
ByLayer
62
256
370
-1
100
AcDbLine
10
14
20
18.75
11
14
21
17.75
0
LINE
5
84
100
AcDbEntity
8
Contour
6
ByLayer
62
256
370
-1
100
AcDbLine
10
14
20
14
11
14
21
13
0
LINE
5
85
100
AcDbEntity
8
Contour
6
ByLayer
62
256
370
-1
100
AcDbLine
10
14
20
11.5
11
14
21
10.5
0
LINE
5
86
100
AcDbEntity
8
Contour
6
ByLayer
62
256
370
-1
100
AcDbLine
10
14
20
8.75
11
14
21
7.75
0
LINE
5
87
100
AcDbEntity
8
Contour
6
ByLayer
62
256
370
-1
100
AcDbLine
10
10
20
34
11
10
21
33
0
LINE
5
88
100
AcDbEntity
8
Contour
6
ByLayer
62
256
370
-1
100
AcDbLine
10
10
20
31.5
11
10
21
30.5
0
LINE
5
89
100
AcDbEntity
8
Contour
6
ByLayer
62
256
370
-1
100
AcDbLine
10
10
20
28.75
11
10
21
27.75
0
LINE
5
8A
100
AcDbEntity
8
Contour
6
ByLayer
62
256
370
-1
100
AcDbLine
10
10
20
24
11
10
21
23
0
LINE
5
8B
100
AcDbEntity
8
Contour
6
ByLayer
62
256
370
-1
100
AcDbLine
10
10
20
21.5
11
10
21
20.5
0
LINE
5
8C
100
AcDbEntity
8
Contour
6
ByLayer
62
256
370
-1
100
AcDbLine
10
10
20
18.75
11
10
21
17.75
0
LINE
5
8D
100
AcDbEntity
8
Contour
6
ByLayer
62
256
370
-1
100
AcDbLine
10
10
20
14
11
10
21
13
0
LINE
5
8E
100
AcDbEntity
8
Contour
6
ByLayer
62
256
370
-1
100
AcDbLine
10
10
20
11.5
11
10
21
10.5
0
LINE
5
8F
100
AcDbEntity
8
Contour
6
ByLayer
62
256
370
-1
100
AcDbLine
10
10
20
8.75
11
10
21
7.75
0
LINE
5
90
100
AcDbEntity
8
Contour
6
ByLayer
62
256
370
-1
100
AcDbLine
10
6
20
34
11
6
21
33
0
LINE
5
91
100
AcDbEntity
8
Contour
6
ByLayer
62
256
370
-1
100
AcDbLine
10
6
20
31.5
11
6
21
30.5
0
LINE
5
92
100
AcDbEntity
8
Contour
6
ByLayer
62
256
370
-1
100
AcDbLine
10
6
20
28.75
11
6
21
27.75
0
LINE
5
93
100
AcDbEntity
8
Contour
6
ByLayer
62
256
370
-1
100
AcDbLine
10
6
20
24
11
6
21
23
0
LINE
5
94
100
AcDbEntity
8
Contour
6
ByLayer
62
256
370
-1
100
AcDbLine
10
6
20
21.5
11
6
21
20.5
0
LINE
5
95
100
AcDbEntity
8
Contour
6
ByLayer
62
256
370
-1
100
AcDbLine
10
6
20
18.75
11
6
21
17.75
0
LINE
5
96
100
AcDbEntity
8
Contour
6
ByLayer
62
256
370
-1
100
AcDbLine
10
6
20
14
11
6
21
13
0
LINE
5
97
100
AcDbEntity
8
Contour
6
ByLayer
62
256
370
-1
100
AcDbLine
10
6
20
11.5
11
6
21
10.5
0
LINE
5
98
100
AcDbEntity
8
Contour
6
ByLayer
62
256
370
-1
100
AcDbLine
10
6
20
8.75
11
6
21
7.75
0
LINE
5
99
100
AcDbEntity
8
Contour
6
ByLayer
62
256
370
-1
100
AcDbLine
10
-10.8333245317
20
24
11
-7.83332453166
21
24
0
LINE
5
9A
100
AcDbEntity
8
Contour
6
ByLayer
62
256
370
-1
100
AcDbLine
10
-7.83332453166
20
24
11
-7.83332453166
21
40
0
LINE
5
9B
100
AcDbEntity
8
Contour
6
ByLayer
62
256
370
-1
100
AcDbLine
10
-10.8333245317
20
14
11
-4.83332453166
21
14
0
LINE
5
9C
100
AcDbEntity
8
Contour
6
ByLayer
62
256
370
-1
100
AcDbLine
10
-4.83332453166
20
14
11
-4.83332453166
21
40
0
LINE
5
9D
100
AcDbEntity
8
Contour
6
ByLayer
62
256
370
-1
100
AcDbLine
10
6
20
7.75
11
6
21
0
0
LINE
5
9E
100
AcDbEntity
8
Contour
6
ByLayer
62
256
370
-1
100
AcDbLine
10
6
20
17.75
11
3
21
17.75
0
LINE
5
9F
100
AcDbEntity
8
Contour
6
ByLayer
62
256
370
-1
100
AcDbLine
10
3
20
17.75
11
3
21
0
0
LINE
5
A0
100
AcDbEntity
8
Contour
6
ByLayer
62
256
370
-1
100
AcDbLine
10
6
20
27.75
11
0
21
27.75
0
LINE
5
A1
100
AcDbEntity
8
Contour
6
ByLayer
62
256
370
-1
100
AcDbLine
10
0
20
27.75
11
0
21
0
0
LINE
5
A2
100
AcDbEntity
8
Contour
6
ByLayer
62
256
370
-1
100
AcDbLine
10
10
20
16.2212369029
11
10
21
15.2212369029
0
LINE
5
A3
100
AcDbEntity
8
Contour
6
ByLayer
62
256
370
-1
100
AcDbLine
10
10
20
26.4167227391
11
10
21
25.4167227391
0
LINE
5
A4
100
AcDbEntity
8
Contour
6
ByLayer
62
256
370
-1
100
AcDbLine
10
14
20
16.2892247722
11
14
21
15.2892247722
0
LINE
5
A5
100
AcDbEntity
8
Contour
6
ByLayer
62
256
370
-1
100
AcDbLine
10
14
20
26.571113089
11
14
21
25.571113089
0
LINE
5
A6
100
AcDbEntity
8
Contour
6
ByLayer
62
256
370
-1
100
AcDbLine
10
10
20
7.75
11
10
21
0
0
LINE
5
A7
100
AcDbEntity
8
Contour
6
ByLayer
62
256
370
-1
100
AcDbLine
10
14
20
5.88965037801
11
14
21
4.52484692499
0
LINE
5
A8
100
AcDbEntity
8
Contour
6
ByLayer
62
256
370
-1
100
AcDbLine
10
19.6278655259
20
38.2267283831
11
18.3710657646
21
37.4807509616
0
LINE
5
A9
100
AcDbEntity
8
Contour
6
ByLayer
62
256
370
-1
100
AcDbLine
10
17.7938833669
20
37.2272249431
11
15.9566910975
21
36.3432740564
0
LINE
5
AA
100
AcDbEntity
8
Contour
6
ByLayer
62
256
370
-1
100
AcDbLine
10
19.9742696484
20
1.544586428
11
19.078536677
21
1.98917887498
0
LINE
5
AB
100
AcDbEntity
8
Contour
6
ByLayer
62
256
370
-1
100
AcDbLine
10
17.7349372199
20
2.65606754543
11
16.8392042484
21
3.10065999241
0
LINE
5
AC
100
AcDbEntity
8
Contour
6
ByLayer
62
256
370
-1
100
AcDbLine
10
19.8049233578
20
0.0823983283573
11
18.9091903864
21
0.526990775329
0
LINE
5
AD
100
AcDbEntity
8
Contour
6
ByLayer
62
256
370
-1
100
AcDbLine
10
19.6278655259
20
38.2267283831
11
19
21
40
0
LINE
5
AE
100
AcDbEntity
8
Contour
6
ByLayer
62
256
370
-1
100
AcDbLine
10
19
20
40
11
12.3838834765
21
40
0
MTEXT
5
AF
100
AcDbEntity
8
Contour
6
ByLayer
62
256
370
-1
100
AcDbMText
10
4.625
20
40
30
0
40
2
41
4.44444444444
71
1
72
5
1
EHT
7
standard
210
0
220
0
230
1
50
0
73
1
44
1
0
CIRCLE
5
B0
100
AcDbEntity
8
Contour
6
ByLayer
62
256
370
-1
100
AcDbCircle
10
11.5
20
40
40
0.883883476483
0
LINE
5
B1
100
AcDbEntity
8
Contour
6
ByLayer
62
256
370
-1
100
AcDbLine
10
12.7953225764
20
0.99232256355
11
15.8875677351
21
0.99232256355
0
LINE
5
B2
100
AcDbEntity
8
Contour
6
ByLayer
62
256
370
-1
100
AcDbLine
10
12.7953225764
20
0.99232256355
11
13.375
21
0
0
LINE
5
B3
100
AcDbEntity
8
Contour
6
ByLayer
62
256
370
-1
100
AcDbLine
10
13.4203225764
20
0.99232256355
11
14
21
0
0
LINE
5
B4
100
AcDbEntity
8
Contour
6
ByLayer
62
256
370
-1
100
AcDbLine
10
14.0453225764
20
0.99232256355
11
14.625
21
0
0
LINE
5
B5
100
AcDbEntity
8
Contour
6
ByLayer
62
256
370
-1
100
AcDbLine
10
14.6703225764
20
0.99232256355
11
15.25
21
0
0
LINE
5
B6
100
AcDbEntity
8
Contour
6
ByLayer
62
256
370
-1
100
AcDbLine
10
15.2953225764
20
0.99232256355
11
15.875
21
0
0
LINE
5
B7
100
AcDbEntity
8
Contour
6
ByLayer
62
256
370
-1
100
AcDbLine
10
15.9203225764
20
0.99232256355
11
16.5
21
0
0
LINE
5
B8
100
AcDbEntity
8
Contour
6
ByLayer
62
256
370
-1
100
AcDbLine
10
-15.4575139192
20
34.375
11
-23.5
21
34.375
0
LINE
5
B9
100
AcDbEntity
8
Contour
6
ByLayer
62
256
370
-1
100
AcDbLine
10
-15.4575139192
20
24.375
11
-23.5
21
24.375
0
LINE
5
BA
100
AcDbEntity
8
Contour
6
ByLayer
62
256
370
-1
100
AcDbLine
10
-15.4575139192
20
14.375
11
-23.5
21
14.375
0
LINE
5
BB
100
AcDbEntity
8
Contour
6
ByLayer
62
256
370
-1
100
AcDbLine
10
15.3377006517
20
35.9904280845
11
14
21
35.2272333923
0
LINE
5
BC
100
AcDbEntity
8
Contour
6
ByLayer
62
256
370
-1
100
AcDbLine
10
14
20
35.2272333923
11
14
21
34
0
LINE
5
BD
100
AcDbEntity
8
Contour
6
ByLayer
62
256
370
-1
100
AcDbLine
10
14
20
34
11
14
21
33.3
0
LINE
5
BE
100
AcDbEntity
8
Contour
6
ByLayer
62
256
370
-1
100
AcDbLine
10
15.2716715485
20
3.87869677461
11
14
21
4.52484692499
0
LINE
5
BF
100
AcDbEntity
8
Contour
6
ByLayer
62
256
370
-1
100
AcDbLine
10
13.8426959333
20
2.7
11
13.8426959333
21
0.99232256355
0
LINE
5
C0
100
AcDbEntity
8
Contour
6
ByLayer
62
256
370
-1
100
AcDbLine
10
13.8426959333
20
2.7
11
14.3085714631
21
2.7
0
LINE
5
C1
100
AcDbEntity
8
Contour
6
ByLayer
62
256
370
-1
100
AcDbLine
10
17.9286524027
20
1.02599148769
11
16.4
21
1.73287544339
0
LINE
5
C2
100
AcDbEntity
8
Contour
6
ByLayer
62
256
370
-1
100
AcDbLine
10
15.5
20
2.14905609963
11
14.3085714631
21
2.7
0
LINE
5
C3
100
AcDbEntity
8
Contour
6
ByLayer
62
256
370
-1
100
AcDbLine
10
-14.2012896013
20
6.79871049832
11
-14.2012896013
21
13.2012895017
0
LINE
5
C4
100
AcDbEntity
8
Contour
6
ByLayer
62
256
370
-1
100
AcDbLine
10
-14.2071068808
20
16.7928932188
11
-14.2071068808
21
23.2071067812
0
LINE
5
C5
100
AcDbEntity
8
Contour
6
ByLayer
62
256
370
-1
100
AcDbLine
10
-14.2071068808
20
26.7928932188
11
-14.2071068808
21
33.2071067812
0
ENDSEC
0
SECTION
2
OBJECTS
0
DICTIONARY
5
C
330
0
100
AcDbDictionary
281
1
3
ACAD_GROUP
350
D
0
DICTIONARY
5
D
330
C
100
AcDbDictionary
281
1
0
ENDSEC
0
EOF
