<svg height="64" viewBox="0 0 94.32 64" width="94.32" xmlns="http://www.w3.org/2000/svg"><path d="m72.43 56h-50.61l-13.82-24.2 13.82-23.8h50.61l13.87 23.8zm-2.15-44.22h-46.27l-11.7 20.02 11.7 20.42h46.27l11.71-20.42zm-23.73 25.69-3.18-1.51-1.66 3.42-1.66 1.88-1.51.76h-3.34l-1.48-.76-1.7-1.88-.87-1.91-.94-2.64v-4.92l.94-3.02.91-1.51 1.66-2.27 1.52-.75h3.26l1.55.75 1.66 2.27 1.66 3.02 3.18-1.51-1.85-4.15-2.54-2.27-2.79-1.51h-5.04l-2.72 1.51-2.57 2.27-1.21 3.02-1.21 3.4v6.04l1.21 3.42 1.21 3.02 2.57 2.27 2.68 1.51h5.15l2.72-1.51 2.54-2.27zm19.98-14.73v-3.4h-16.7v26.08h3.52v-11.73h8.01v-3.78h-8.01v-7.17z" fill="#000"/></svg>