<svg height="64" viewBox="0 0 94.32 64" width="94.32" xmlns="http://www.w3.org/2000/svg"><path d="m72.3 56h-50.48l-13.82-23.98 13.82-24.02h50.48l13.81 24.02zm-2.19-44.32h-46.08l-11.74 20.34 11.74 20.32h46.08l11.71-20.32zm-10.19 11.07v22.96h-3.74v-22.96h-7.88v-3.67h19.48v3.67zm-15.58 3.7-2.97-2.91-2.59-.87h-3.86l-2.61.87-1.37 1.34v.95l.78 1.53.68.67 1.79.87 6.71 2.17 2.6 1.25 1.53 1.49 1.45 2.84v4.44l-3.05 3.03-4.08 1.32h-5.05l-4.03-1.32-3.54-3.47 2.48-2.73 3.1 3.01 2.61.84h3.86l2.59-.84 1.39-1.32v-2.07l-.78-1.52-.69-.67-1.84-.88-6.66-2.17-2.6-1.28-1.57-1.48-1.42-2.85v-3.36l3.07-2.97 4.03-1.36h5.05l4.06 1.36 3.66 3.54z" fill="#000"/></svg>