/* XPM */
static char * qg_align_bc_xpm[] = {
"15 15 4 1",
" 	c None",
".	c #000000",
"+	c #FF0000",
"@	c #0000FF",
"               ",
"               ",
"               ",
"               ",
" ....   ....   ",
" .   . ..   .  ",
" .   . .       ",
" ....  .       ",
" .   . .       ",
" .   . .    .  ",
" .... +++...   ",
"@@@@@@+++@@@@@@",
"      +++      ",
"               ",
"               "};
