/* XPM */
static char * qg_arcspara_xpm[] = {
"17 15 3 1",
" 	c None",
".	c #000000",
"+	c #FF0000",
"             ....",
"         ....    ",
"       ..        ",
"      .          ",
"    ..       ++++",
"   .      +++    ",
"  .     ++       ",
"  .    +         ",
" .    +       ...",
".    +     ...   ",
"    +     .      ",
"    +    .       ",
"   +    .        ",
"       .         ",
"       .         "};
