/* XPM */
static char * qg_align_ml_xpm[] = {
"15 15 4 1",
" 	c None",
".	c #0000FF",
"+	c #000000",
"@	c #FF0000",
" .             ",
" .             ",
" .             ",
" .             ",
" .++   ++  +   ",
" .++   ++  +   ",
"@@@+   ++  +   ",
"@@@ + + +  +   ",
"@@@ + + +  +   ",
" .+ ++  +  +   ",
" .+  +  +  ++++",
" .             ",
" .             ",
" .             ",
" .             "};
