/* XPM */
static char * qg_align_mc_xpm[] = {
"15 15 3 1",
" 	c None",
".	c #000000",
"+	c #FF0000",
"               ",
"               ",
"               ",
"               ",
" ..   ..  .... ",
" ..   .. ..   .",
" ..   +++.     ",
" . . .+++.     ",
" . . .+++.     ",
" . ..  . .    .",
" .  .  .  .... ",
"               ",
"               ",
"               ",
"               "};
