/* XPM */
static char * qg_arcscraa_xpm[] = {
"18 18 3 1",
" 	c None",
".	c #FF0000",
"+	c #000000",
"               .  ",
"               .  ",
"            +++.  ",
"         +++   .  ",
"       ++      .  ",
"      +           ",
"     +            ",
"    +             ",
"   +              ",
".  +              ",
" .+               ",
"  ..              ",
"    .             ",
"                  ",
"               .  ",
"              ... ",
"               .  ",
"                  "};
