/* XPM */
static const char *qg_arcs3p_xpm[] = {
"18 18 3 1",
"  c None",
"% c #ff0000",
"& c #000000",
"       % &&&&&& % ",
"      %%%      %%%",
"     &&%        % ",
"    &             ",
"   &              ",
"  &               ",
"  &               ",
" &                ",
" &                ",
"&                 ",
"&                 ",
"&                 ",
"&                 ",
"&                 ",
"&                 ",
" %                ",
"%%%               ",
" %                "
};

