/* XPM */
static char * qg_align_tc_xpm[] = {
"15 15 4 1",
" 	c None",
".	c #FF0000",
"+	c #0000FF",
"@	c #000000",
"               ",
"               ",
"               ",
"      ...      ",
"++++++...++++++",
" @@@@@...@@@@  ",
"   @    @@   @ ",
"   @    @      ",
"   @    @      ",
"   @    @      ",
"   @    @    @ ",
"   @     @@@@  ",
"               ",
"               ",
"               "};
