/* XPM */
static char * qg_back_xpm[] = {
"16 11 3 1",
" 	c None",
".	c #FFFFFF",
"+	c #000000",
"    .+          ",
"   .++          ",
"  .+++......    ",
" .+++++++++++   ",
".++++++++++++   ",
"+++++++++++++   ",
" ++++++++++++   ",
"  +++++++++++   ",
"   +++          ",
"    ++          ",
"     +          "};
