/* XPM */
static char * qg_colorbox_xpm[] = {
"116 20 43 1",
" 	c None",
".	c #4A4C4A",
"+	c #000000",
"@	c #F6F2F6",
"#	c #FFFFFF",
"$	c #E6E6E6",
"%	c #FF0000",
"&	c #313031",
"*	c #CDCACD",
"=	c #F6F6F6",
"-	c #949194",
";	c #202420",
">	c #FFFAFF",
",	c #000400",
"'	c #414441",
")	c #949594",
"!	c #181C18",
"~	c #C5C6C5",
"{	c #EEEEEE",
"]	c #525552",
"^	c #080808",
"/	c #101010",
"(	c #8B898B",
"_	c #D5D2D5",
":	c #BDBEBD",
"<	c #DEDEDE",
"[	c #B4B6B4",
"}	c #181818",
"|	c #5A595A",
"1	c #EEEAEE",
"2	c #5A5D5A",
"3	c #838183",
"4	c #E6E2E6",
"5	c #8B8D8B",
"6	c #6A696A",
"7	c #080C08",
"8	c #DEDADE",
"9	c #101410",
"0	c #D5D6D5",
"a	c #ACAAAC",
"b	c #202020",
"c	c #393839",
"d	c #838583",
"....................................................................................................................",
".++++++++++++++++++++++++++++++++++++++++++++++++++++++++++++++++++++++++++++++++++++++++++++++++++++++++++++++++++@",
".+################################################################################################################+@",
".+##################################################################################################@@@@@@@@@@@@@.+@",
".+####++++++++++++++++##############################################################################@$$$$$$$$$$$$.+@",
".+####+%%%%%%%%%%%%%%+###+++++&*#############+######################################################@$$$$$$$$$$$$.+@",
".+####+%%%%%%%%%%%%%%+###+###=-;#############+######################################################@$$$$$$$$$$$$.+@",
".+####+%%%%%%%%%%%%%%+###+####>,#############+######################################################@$$$$$$$$$$$$.+@",
".+####+%%%%%%%%%%%%%%+###+###=-'##)!,&~#{]^/(+######################################################@$$+++++++$$$.+@",
".+####+%%%%%%%%%%%%%%+###+++++,_#:&<>[}>]|1{2+######################################################@$$$+++++$$$$.+@",
".+####+%%%%%%%%%%%%%%+###+###>3.#3+++++<^1##1+######################################################@$$$$+++$$$$$.+@",
".+####+%%%%%%%%%%%%%%+###+####4;#56###_#71##1+######################################################@$$$$$+$$$$$$.+@",
".+####+%%%%%%%%%%%%%%+###+####$!#89~>(&#]|1{2+######################################################@$$$$$$$$$$$$.+@",
".+####+%%%%%%%%%%%%%%+###+####=,0#ab,c8#{]^7d2######################################################@$$$$$$$$$$$$.+@",
".+####+%%%%%%%%%%%%%%+##############################################################################@$$$$$$$$$$$$.+@",
".+####++++++++++++++++##############################################################################@$$$$$$$$$$$$.+@",
".+##################################################################################################@$$$$$$$$$$$$.+@",
".+##################################################################################################..............+@",
".+#################################################################################################++++++++++++++++@",
".@@@@@@@@@@@@@@@@@@@@@@@@@@@@@@@@@@@@@@@@@@@@@@@@@@@@@@@@@@@@@@@@@@@@@@@@@@@@@@@@@@@@@@@@@@@@@@@@@@@@@@@@@@@@@@@@@@@"};
