/* XPM */
static char * qg_char_degrees_xpm[] = {
"15 15 2 1",
" 	c None",
".	c #000000",
"               ",
"               ",
"      ..       ",
"     .  .      ",
"     .  .      ",
"     .  .      ",
"      ..       ",
"               ",
"               ",
"               ",
"               ",
"               ",
"               ",
"               ",
"               "};
