/* XPM */
static const char * qg_circles3p_xpm[] = {
"18 18 3 1",
" 	c None",
".	c #000000",
"+	c #FF0000",
"      ......      ",
"   ++.      ..    ",
"   ++         ++  ",
"  .           ++  ",
" .              . ",
" .              . ",
".                .",
".                .",
".                .",
".                .",
".                .",
".                .",
" ++             . ",
" ++             . ",
"  .            .  ",
"   .          .   ",
"    ..      ..    ",
"      ......      "};
