/* XPM */
static const char * qg_circlescr_xpm[] = {
"18 18 3 1",
"$ c none",
"% c #000000",
"& c #ff0000",
"$$$$$$%%%%%%$$$$$$",
"$$$$%%$$$$$$%%$$$$",
"$$$%$$$$$$$$$$%$$$",
"$$%$$$$$$$$$$$&%$$",
"$%$$$$$$$$$$$&$$%$",
"$%$$$$$$$$$$&$$$%$",
"%$$$$$$$$$$&$$$$$%",
"%$$$$$$$$$&$$$$$$%",
"%$$$$$$$&&$$$$$$$%",
"%$$$$$$$&&$$$$$$$%",
"%$$$$$$$$$$$$$$$$%",
"%$$$$$$$$$$$$$$$$%",
"$%$$$$$$$$$$$$$$%$",
"$%$$$$$$$$$$$$$$%$",
"$$%$$$$$$$$$$$$%$$",
"$$$%$$$$$$$$$$%$$$",
"$$$$%%$$$$$$%%$$$$",
"$$$$$$%%%%%%$$$$$$"
};

