/* XPM */
static char * qg_dimleader_xpm[] = {
"15 10 2 1",
" 	c None",
".	c #000000",
"               ",
"       ........",
"      .        ",
"     .         ",
"    .          ",
" . .           ",
" ..            ",
"....           ",
"..             ",
"               "};
