/* XPM */
static char * qg_dlgmodifyscale_xpm[] = {
"80 53 4 1",
" 	c None",
".	c #000000",
"+	c #0000FF",
"@	c #FF0000",
"                                                                                ",
"                                                                                ",
"       .+                                          .           ..               ",
"       . +                                        ..          .                 ",
"       ..   ++                                   . .    ..   ...                ",
"       ..       +                                  .    ..    .                 ",
"       . .       +                                 .          .                 ",
"       . .          ++                             .          .                 ",
"       .  .             +                          .    ..    .                 ",
"       .  .              +                         .    ..    .                 ",
"       .   .                ++                     .          .                 ",
"       .   .                    +                                               ",
"       .    .                    +                                              ",
"       .    .                       ++                                          ",
"       .     .                        . +                                       ",
"       .     .                        .  +                                      ",
"       .      .                       ..    ++                                  ",
"       .      .                       ..        +                               ",
"       .       .                      . .        +                              ",
"       .       .                      . .           ++                          ",
"       .        .                     .  .              +                       ",
"       .        .                     .  .               +                      ",
"       .         .                    .   .                 ++                  ",
"       .         .                    .   .                     +        @      ",
"       .          .                   .    .                     +       @      ",
"       .          .                   .    .                        ++   @      ",
"       .           .                  .     .                         @@@@@@@   ",
"       .           .                  .     .                        +  +@      ",
"       .            .                 .      .                    +   +  @      ",
"       .            .                 .      .                   +       @      ",
"       .             .                .       .              ++   ++            ",
"       .             .                .       .           +                     ",
"       .              .               .        .         +    ++                ",
"       .              .               .        .     ++                         ",
"       .               .              .         .++       ++                    ",
"       .               .              .       + .                               ",
"       .                .             .      +   .    ++                        ",
"       .                .             .  ++      .                              ",
"       .                 .            .           .+                            ",
"       .                 .           +.............                             ",
"       .                  .      ++            ++                               ",
"       .                  .  ++                                                 ",
"       .                  +.               ++                                   ",
"       .                 + .                                                    ",
"       .             ++     .          ++                                       ",
"       .          +         .                                                   ",
"       .         +           .     ++                                           ",
"       .     ++              .                                                  ",
"       . ++                   .++                                               ",
"       ........................                                                 ",
"                                                                                ",
"                                                                                ",
"                                                                                "};
