/* XPM */
static const char *qg_dirneg_xpm[] = {
"14 15 3 1",
"$ c none",
"% c #000000",
"& c #ff0000",
"$$$$$$$$$$$$$&",
"$$$$%%%%%%$$&&",
"$$$%$$$$$$%&&&",
"$$%$$$$$$$&&&&",
"$%$$$$$$$&&&&&",
"%$$$$$$$&&&&&&",
"%$$$$$$$$$$$$$",
"%$$$$$$$$$$$$$",
"%$$$$$$$$$$$$$",
"%$$$$$$$$$$$$%",
"%$$$$$$$$$$$$%",
"$%$$$$$$$$$$%$",
"$$%$$$$$$$$%$$",
"$$$%$$$$$$%$$$",
"$$$$%%%%%%$$$$"
};

