/* XPM */
static char * qg_dlgmodifyrotate2_xpm[] = {
"88 58 5 1",
" 	c None",
".	c #FF0000",
"+	c #000000",
"@	c #0000FF",
"#	c #808080",
"                                                                                        ",
"                                                                                        ",
"                                                                                        ",
"                                  .                                                     ",
"                                                                                        ",
"                              +++++++++                                      @          ",
"                              +       +                                     @           ",
"                              +       +                                    @            ",
"                              +       +                                   @             ",
"                              +       +                                  @ @            ",
"                              +       +                                 @   @           ",
"                              +   .   +                                @     @          ",
"                              +  ...  +                               @+      @         ",
"                              +   .   +                              @ +      @         ",
"                              +       +                             @  +       @        ",
"     +++++++++                +       +                 ++##+++++  @   ++++    @        ",
"  @  +       +                +       +                 +#  #   + @    +   +   @        ",
"   @ +       +                +       +                 #    #  +@     +   +    @       ",
"     +       +                +       +                #+     # +      +   +    @       ",
"     +       +                +++++++++               # +      #+      +   +  @@@@@     ",
"     +       +                                       #  +     @ #      ++++    @@@      ",
"     +   .   +                    .                  #  +   .@  +#              @       ",
"     +  ...  +                    .                   # +  ...@@+@#@@@@@@@@@@@@@@@@@@   ",
"     +   .   +                    .                    #+   .   +  #                    ",
"     +       +                    .                     #       +  #                    ",
"     +       +                    .                     +#      + #                     ",
"     +       +                    .                     + #     +#                      ",
"     +       +                    .                    @+  #    #                       ",
"     +       +                    .                   @ +   #  #+                       ",
"     +++++++++ @                  .                  @  +++++##++                       ",
"                @                 .                 @                                   ",
"                 @                .                @                                    ",
"                  @               .               @                                     ",
"                   @              .              @                                      ",
"                    @             .             @                                       ",
"                     @            .            @ @@@@                                   ",
"                      @           .           @  @@@                                    ",
"                       @          .          @   @@@                                    ",
"                        @         .         @    @  @                                   ",
"                         @        .        @        @                                   ",
"                          @       .       @          @                                  ",
"                           @      .      @     +++   @          +++++++++               ",
"                            @     .     @         +  @          +       +               ",
"                             @    .    @       ++++   @         +       +               ",
"                              @   .   @       +   +   @         +       +               ",
"                               @  .  @        +   +   @         +       +               ",
"                                @ . @          ++++   @         +       +               ",
"                                 @.@                  @         +   .   +               ",
"                              ........................@........ +  ...  + ....          ",
"                                  .                             +   .   +               ",
"                                  .                             +       +               ",
"                                  .                             +       +               ",
"                                  .                             +       +               ",
"                                                                +       +               ",
"                                                                +       +               ",
"                                                                +++++++++               ",
"                                                                                        ",
"                                                                                        "};
