/* XPM */
static char * qg_dlgmodifymirror_xpm[] = {
"53 60 3 1",
" 	c None",
".	c #FF0000",
"+	c #000000",
"                          .                          ",
"                          .                          ",
"                          .                          ",
"                          .                          ",
"                                                     ",
"                          .                          ",
"                                                     ",
"                          .                          ",
"                          .                          ",
"                          .                          ",
"                    +     .     +                    ",
"                    +           +                    ",
"                   ++     .     ++                   ",
"                   ++           ++                   ",
"                  + +     .     + +                  ",
"                  + +     .     + +                  ",
"                 +  +     .     +  +                 ",
"                 +  +     .     +  +                 ",
"                +   +           +   +                ",
"                +   +     .     +   +                ",
"               +    +           +    +               ",
"               +    +     .     +    +               ",
"              +     +     .     +     +              ",
"              +     +     .     +     +              ",
"             +      +     .     +      +             ",
"             +      +           +      +             ",
"            +       +     .     +       +            ",
"            +       +           +       +            ",
"           +        +     .     +        +           ",
"           +        +     .     +        +           ",
"          +         +     .     +         +          ",
"          +         +     .     +         +          ",
"         +          +           +          +         ",
"         +          +     .     +          +         ",
"        +           +           +           +        ",
"        +           +     .     +           +        ",
"       +            +     .     +            +       ",
"       +            +     .     +            +       ",
"      +             +     .     +             +      ",
"      +             +           +             +      ",
"     +              +     .     +              +     ",
"     +              +           +              +     ",
"    +               +     .     +               +    ",
"    +               +     .     +               +    ",
"   +                +     .     +                +   ",
"   +                +     .     +                +   ",
"  +                 +           +                 +  ",
"  +                 +     .     +                 +  ",
" +                  +           +                  + ",
" ++++++++++++++++++++     .     ++++++++++++++++++++ ",
"                          .                          ",
"                          .                          ",
"                          .                          ",
"                                                     ",
"                          .                          ",
"                                                     ",
"                          .                          ",
"                          .                          ",
"                          .                          ",
"                          .                          "};
