/* XPM */
static char * qg_dimver_xpm[] = {
"10 15 2 1",
" 	c None",
".	c #000000",
"..........",
"   .      ",
"  ...     ",
" . . .    ",
"   .      ",
"   .      ",
"   .      ",
"   .      ",
"   .      ",
"   .      ",
"   .      ",
" . . .    ",
"  ...     ",
"   .      ",
".........."};
