/* XPM */
static const char *qg_deselectinters_xpm[] = {
"15 18 4 1",
"$ c None",
"% c #000000",
"& c #0000ff",
"' c #ff0000",
"$$$$$$$$$%$$$$$",
"$$$$$$$$%%%$$$$",
"$$$$'%%%%&%%%%%",
"$$''$$$$$&$$$$'",
"$'$$$$$$$&$$$$'",
"$'$$'''$$&$$$$'",
"'$$'$$$'$&$$$$'",
"'$$'$$$'$&$$$$'",
"'$$'$$$'$&$%$$'",
"'$$$'''$$&%'$$'",
"'$$$$$$$$&$'$$'",
"'$$$$$$$%&$'$$'",
"'''''$$%%&%%$$'",
"$$$$'$$$$&$$$$'",
"$$$$'$$$$&$$$$'",
"$$$$%%%%%&%%%%%",
"$$$$$$$$%%%$$$$",
"$$$$$$$$$%$$$$$"
};

