/* XPM */
static const char *qg_deselectwindow_xpm[] = {
"18 17 3 1",
"$ c None",
"% c #000000",
"& c #0000ff",
"$%$$$$$$$$$$$$$$$$",
"%%%&&&&&&&&&&&&&&$",
"$%$$$$$$$$$$$$$$&$",
"$&$$$$$$$$$$$$$$&$",
"$&$$$%%$$$$$$$$$&$",
"$&$$%$$%$$$$$$$$&$",
"$&$%$$$$%$$$$$$$&$",
"$&$%$$$$%$$$$%$$&$",
"$&$$%$$%$$$$%%$$&$",
"$&$$$%%$$$$%$%$$&$",
"$&$$$$$$$$%$$%$$&$",
"$&$$$$$$$%$$$%$$&$",
"$&$$$$$$%%%%%%$$&$",
"$&$$$$$$$$$$$$$$&$",
"$&$$$$$$$$$$$$$$%$",
"$&&&&&&&&&&&&&&%%%",
"$$$$$$$$$$$$$$$$%$"
};

