/* XPM */
static char * qg_dlgmodifyrotate_xpm[] = {
"83 57 4 1",
" 	c None",
".	c #FF0000",
"+	c #000000",
"@	c #0000FF",
"                                                                                   ",
"                                                                                   ",
"                                    .                                              ",
"                                    .                                              ",
"                                    .                                              ",
"                                    .                                              ",
"                                                                                   ",
"                             +++++++++++++++                                       ",
"                             +             +                                       ",
"                             +             +                                       ",
"                             +      .      +                                       ",
"                             +     ...     +                                       ",
"                             +      .      +                                       ",
"                             +             +                                       ",
"                             +             +                                       ",
"    @       ++               +++++++++++++++               ++       @              ",
"     @     +  +                                           +  +     @               ",
"      @   +    +                    .                    +    +   @                ",
"         +      +                   .                   +      +                   ",
"        +        +                  .                  +        +                  ",
"       +          +                 .                 +          +                 ",
"      +    .      +                 .                 +      .    +                ",
"     +    ...    +                  .                  +    ...    +               ",
"    +      .    +                   .                   +    .      +              ",
"    +          +                    .                    +          +              ",
"     +        +                     .                     +        +               ",
"      +      +                      .                      +      +                ",
"       +    +   @                   .                   @   +    +                 ",
"        +  +     @                  .                  @     +  +                  ",
"         ++       @                 .                 @       ++                   ",
"                   @                .                @                             ",
"                    @               .               @                              ",
"                     @              .              @                               ",
"                      @             .             @                                ",
"                       @            .            @ @@@@                            ",
"                        @           .           @  @@@                             ",
"                         @          .          @   @@@                             ",
"                          @         .         @    @  @                            ",
"                           @        .        @        @                            ",
"                            @       .       @          @                           ",
"                             @      .      @     +++   @          +++++++++        ",
"                              @     .     @         +  @          +       +        ",
"                               @    .    @       ++++   @         +       +        ",
"                                @   .   @       +   +   @         +       +        ",
"                                 @  .  @        +   +   @         +       +        ",
"                                  @ . @          ++++   @         +       +        ",
"                                   @.@                  @         +   .   +        ",
"                                ........................@........ +  ...  + ....   ",
"                                    .                             +   .   +        ",
"                                    .                             +       +        ",
"                                    .                             +       +        ",
"                                    .                             +       +        ",
"                                                                  +       +        ",
"                                                                  +       +        ",
"                                                                  +++++++++        ",
"                                                                                   ",
"                                                                                   "};
