/* XPM */
static char * qg_dlgmodifymoverotate_xpm[] = {
"115 41 4 1",
" 	c None",
".	c #000000",
"+	c #FF0000",
"@	c #0000FF",
"                                                                                                                   ",
"                                                                                                                   ",
"                                              .                     .                                              ",
"                                            .. .                   . ..                                            ",
"                                          ..   .                   .   ..                                          ",
"                                         .      .                 .      .                                         ",
"  .....................                ..       .                 .       ..                .....................  ",
"  .                   .               .          .               .          .               .                   .  ",
"  .                   .             ..           .               .           ..             .                   .  ",
"  .                   .           ..              .             .              ..           .                   .  ",
"  .                   .          .                .             .                .          .                   .  ",
"  .                   .        ..                  .           .                  ..        .                   .  ",
"  .                   .      ..                     .         .                     ..      .                   .  ",
"  .                   .     .                       .         .                       .     .                   .  ",
"  .         +         .      .            +          .       .          +            .      .         +         .  ",
"  .         +         .      .            +          .       .          +            .      .         +         .  ",
"  .       +++++       .       .         +++++         .     .         +++++         .       .       +++++       .  ",
"  .         +         .       .           +           .     .           +           .       .         +         .  ",
"  .         +         .        .          +            .   .            +          .        .         +         .  ",
"  .                   .         .                      .   .                      .         .                   .  ",
"  .                   .         .                       . .                       .         .                   .  ",
"  .                   .          .                    ..   ..                    .          .                   .  ",
"  .                   .          .                  ..       ..                  .          .                   .  ",
"  .                   .           .               ..@          ..               .           .                   .  ",
"  .                   .           .             ..   @           ..             .           .                   .  ",
"  .                   .            .           .     @             .           .            .                   .  ",
"  .....................             .        ..      @              ..        .             .....................  ",
"                                    .      ..         @               ..      .                                    ",
"                                     .   ..           @                 ..   .                                     ",
"                                     . ..             @                   .. .                                     ",
"                                      @@@@@@@@@@@@@@@@@@@@@@                .                                      ",
"                                                                                                                   ",
"                                                                                                                   ",
"                                                 ...                                                               ",
"                                                    .                                                              ",
"                                                 ....                                                              ",
"                                                .   .                                                              ",
"                                                .   .                                                              ",
"                                                 ....                                                              ",
"                                                                                                                   ",
"                                                                                                                   "};
