/* XPM */
static const char *qg_dirpos_xpm[] = {
"14 15 3 1",
"$ c none",
"% c #ff0000",
"& c #000000",
"$$$$&&&&&&$$$$",
"$$$&$$$$$$&$$$",
"$$&$$$$$$$$&$$",
"$&$$$$$$$$$$&$",
"&$$$$$$$$$$$$&",
"&$$$$$$$$$$$$&",
"&$$$$$$$$$$$$$",
"&$$$$$$$$$$$$$",
"&$$$$$$$$$$$$$",
"&$$$$$$$%%%%%%",
"$&$$$$$$$%%%%%",
"$$&$$$$$$$%%%%",
"$$$&$$$$$$&%%%",
"$$$$&&&&&&$$%%",
"$$$$$$$$$$$$$%"
};

