/* XPM */
static char * qg_dlgmodifymove_xpm[] = {
"73 25 3 1",
" 	c None",
".	c #000000",
"+	c #0000FF",
"                                                                         ",
"                                                                         ",
"  .                   .            .            .                        ",
"  .                   .            .            .                        ",
"  ..                  ..           ..           ..                       ",
"  ..                  ..           ..           ..                       ",
"  . .                 . .          . .          . .                      ",
"  . .                 . .          . .          . .                      ",
"  .  .                .  .         .  .         .  .                     ",
"  .  .          +     .  .         .  .         .  .                     ",
"  .   .         ++    .   .        .   .        .   .                    ",
"  .   .         +++   .   .        .   .        .   .                    ",
"  .    .   +++++++++  .    .       .    .       .    .                   ",
"  .    .   +++++++++  .    .       .    .       .    .                   ",
"  .     .       +++   .     .      .     .      .     .                  ",
"  .     .       ++    .     .      .     .      .     .                  ",
"  .      .      +     .      .     .      .     .      .                 ",
"  .      .            .      .     .      .     .      .                 ",
"  .       .           .       .    .       .    .       .                ",
"  .       .           .       .    .       .    .       .                ",
"  .        .          .        .   .        .   .        .               ",
"  .        .          .        .   .        .   .        .               ",
"  .         .         .         .  .         .  .         .  ..  ..  ..  ",
"  ...........         ...........  ...........  ...........  ..  ..  ..  ",
"                                                                         "};
