/* XPM */
static char * qg_ellipsearcsaxes_xpm[] = {
"18 18 3 1",
" 	c None",
".	c #000000",
"+	c #FF0000",
"             ...++",
"           ..   ++",
"         ..    + .",
"        .     +  .",
"       .     +   .",
"     ++     +   . ",
"     ++    +    . ",
"    .  +  +    .  ",
"   .    ++     .  ",
"  .     ++    .   ",
"  .          .    ",
" .          .     ",
" .         .      ",
".         .       ",
".                 ",
"                  ",
"                  ",
"                  "};
