/* XPM */
static char * qg_infoarea_xpm[] = {
"20 20 3 1",
" 	c None",
".	c #000000",
"+	c #FF0000",
"                    ",
"                    ",
"                    ",
"         .........  ",
"        .++++++++.  ",
"       .+++++++++.  ",
"      .++++++++++.  ",
"     .+++++++++++.  ",
"    .++++++++++++.  ",
"   .+++++++++++++.  ",
"  .++++++++++++++.  ",
" .+++++++++++++++.  ",
" .+++++++++++++++.  ",
" .+++++++++++++++.  ",
" .+++++++++++++++.  ",
" .................  ",
"                    ",
"                    ",
"                    ",
"                    "};
