/* XPM */
static const char *qg_linesrect_xpm[] = {
"18 15 3 1",
"$ c none",
"% c #ff0000",
"& c #000000",
"$%$$$$$$$$$$$$$$$$",
"%%%&&&&&&&&&&&&&&$",
"$%$$$$$$$$$$$$$$&$",
"$&$$$$$$$$$$$$$$&$",
"$&$$$$$$$$$$$$$$&$",
"$&$$$$$$$$$$$$$$&$",
"$&$$$$$$$$$$$$$$&$",
"$&$$$$$$$$$$$$$$&$",
"$&$$$$$$$$$$$$$$&$",
"$&$$$$$$$$$$$$$$&$",
"$&$$$$$$$$$$$$$$&$",
"$&$$$$$$$$$$$$$$&$",
"$&$$$$$$$$$$$$$$%$",
"$&&&&&&&&&&&&&&%%%",
"$$$$$$$$$$$$$$$$%$"
};

