/* XPM */
static char * qg_lineshor_xpm[] = {
"17 3 3 1",
" 	c None",
".	c #FF0000",
"+	c #000000",
" .               ",
"...++++++++++++++",
" .               "};
