/* XPM */
static char * qg_linesparathrough_xpm[] = {
"17 15 3 1",
" 	c None",
".	c #FF0000",
"+	c #000000",
"            ..   ",
"          ..     ",
"        ..       ",
"      ..         ",
"    ..           ",
"  ..             ",
"..               ",
"               ++",
"             ++  ",
"         . ++    ",
"        ...      ",
"       ++.       ",
"     ++          ",
"   ++            ",
"                 "};
