/* XPM */
static const char *qg_linesbisector_xpm[] = {
"18 18 4 1",
"$ c none",
"% c #ff0000",
"& c #000000",
"' c #0000ff",
"$$$$$$%$$$$$$$$$$$",
"$$$$$$%$$$$$$$$$$$",
"$$$$$%$$$$$$$$$$$$",
"$$$$$%$$''''$$$$$$",
"$$$$$%$$$$$$$$$$$$",
"$$$$%$$$''''$$$$$$",
"$$$$%$$$$$$$$$&$$$",
"$$$$%'$$$$$$$&$$$$",
"$$$$%$''$$$&&$$$$$",
"$$$%$$$$'$&$$$$$$$",
"$$$%$$$$$'$$$$$$$$",
"$$$%$$$&&'$$$$''''",
"$$%$$$&$$$'$$$$$$$",
"$$%$$&$$$$'$$$''''",
"$$%&&$$$$$'$$$$$$$",
"$%&$$$$$$$$'$$$$$$",
"%&%%%%%%%%%'%%%%%%",
"$%$$$$$$$$$$$$$$$$"
};

