/* XPM */
static char * qg_linesnormal_xpm[] = {
"18 13 3 1",
" 	c None",
".	c #FF0000",
"+	c #000000",
"                . ",
"               ...",
"              + . ",
"             +    ",
"           ++     ",
"          +       ",
"        ++        ",
"       +          ",
"      +           ",
"    ++            ",
" . +              ",
"...               ",
" .                "};
