/* XPM */
static const char *qg_linestan1_xpm[] = {
"18 18 3 1",
"$ c none",
"% c #ff0000",
"& c #000000",
"$$$$$$$$$$$$$$$$%$",
"$$$$$$$$$$$$$$$%%%",
"$$$$$$$$$$$$$&&$%$",
"$$$$$$$$$$&&&$$$$$",
"$$$$$$$&&&$$$$$$$$",
"$$$$$&&$$$$$$$$$$$",
"$$$&&%%%%$$$$$$$$$",
"$$%$$$$$$%$$$$$$$$",
"$%$$$$$$$$%$$$$$$$",
"%$$$$$$$$$$%$$$$$$",
"%$$$$$$$$$$%$$$$$$",
"%$$$$$$$$$$%$$$$$$",
"%$$$$$$$$$$%$$$$$$",
"%$$$$$$$$$$%$$$$$$",
"%$$$$$$$$$$%$$$$$$",
"$%$$$$$$$$%$$$$$$$",
"$$%$$$$$$%$$$$$$$$",
"$$$%%%%%%$$$$$$$$$"
};

