/* XPM */
static char * qg_linespara_xpm[] = {
"17 15 4 1",
" 	c None",
".	c #FF0000",
"+	c #0000FF",
"@	c #000000",
"            ..   ",
"          ..     ",
"        ..       ",
"      ..         ",
"    ..           ",
"  .. +           ",
"..   +           ",
"      +        @@",
"      +      @@  ",
"       +   @@    ",
"       + @@      ",
"       @@        ",
"     @@          ",
"   @@            ",
"                 "};
