/* XPM */
static char * qg_linesangle_xpm[] = {
"17 11 3 1",
" 	c None",
".	c #000000",
"+	c #FF0000",
"               ..",
"              .  ",
"            ..   ",
"           .     ",
"         ..      ",
"        .        ",
"      ..         ",
"     .           ",
" + ..            ",
"+++              ",
" +               "};
