/* XPM */
static const char * qg_linesfree_xpm[] = {
"18 13 2 1",
" 	c None",
".	c #000000",
"                  ",
"             ...  ",
"     ..     .   . ",
"    .  .   .      ",
"   .   .   .      ",
"   .   .   .      ",
"  .    .   .      ",
"  .   .     .     ",
" .    .     .     ",
" .    .     .     ",
" .     .   .      ",
"        ...       ",
"                  "};
