/* XPM */
static const char * qg_linesrelativeangle_xpm[] = {
"18 13 3 1",
" 	c None",
".	c #000000",
"+	c #FF0000",
"          .      .",
"          .    .. ",
"          .   .   ",
"         .   .    ",
"         . ..     ",
"        +..       ",
"       +++        ",
"       .+         ",
"      . .         ",
"    .. .          ",
"   .   .          ",
"  .    .          ",
"..    .           "};
