/* XPM */
static char * qg_linesver_xpm[] = {
"3 17 3 1",
" 	c None",
".	c #000000",
"+	c #FF0000",
" . ",
" . ",
" . ",
" . ",
" . ",
" . ",
" . ",
" . ",
" . ",
" . ",
" . ",
" . ",
" . ",
" . ",
" + ",
"+++",
" + "};
