/* XPM */
static char * qg_modifyexplodetext_xpm[] = {
"18 18 3 1",
" 	c None",
".	c #0000FF",
"+	c #000000",
"                  ",
"                  ",
"                  ",
"...  ...  ...  ...",
" .    .    .    . ",
"                  ",
"   +   +++   +++  ",
"  +++  +  + ++ ++ ",
"  + +  +  + +     ",
"  + +  +++  +     ",
" +++++ +  + +     ",
" +   + +  + ++ ++ ",
" +   + +++   +++  ",
"                  ",
" .    .    .    . ",
"...  ...  ...  ...",
"                  ",
"                  "};
