/* XPM */
static char * qg_modifytext_xpm[] = {
"18 18 4 1",
" 	c None",
".	c #000000",
"+	c #FFFFFF",
"@	c #D1D1D1",
"                  ",
"                  ",
"                  ",
" .................",
" .++++++++.++++++@",
" .++++.+++.++++++@",
" .+++.+.++.++++++@",
" .+++.+.++.++++++@",
" .+++.+.++.++++++@",
" .++.+++.+.++++++@",
" .++.....+.++++++@",
" .++.+++.+.++++++@",
" .+.+++++..++++++@",
" .+.+++++..++++++@",
" .++++++++.++++++@",
" .@@@@@@@@@@@@@@@@",
"                  ",
"                  "};
