/* XPM */
static const char *qg_modifymove_xpm[] = {
"18 16 4 1",
"$ c #000000",
"% c None",
"& c #ff0000",
"' c #0000ff",
"$%%%%%%%%%&%%%%%%%",
"$%%%%%%%%%&%%%%%%%",
"$$%%%%%%%%&&%%%%%%",
"$$%%%%%%%%&&%%%%%%",
"$%$%%%%%%%&%&%%%%%",
"$%$%%%%%''&%&%%%%%",
"$%%$%%%%%''%%&%%%%",
"$%''''''''''%&%%%%",
"$%''''''''''%%&%%%",
"$%%%$%%%%''%%%&%%%",
"$%%%%$%%''&%%%%&%%",
"$%%%%$%%%%&%%%%&%%",
"$%%%%%$%%%&%%%%%&%",
"$%%%%%$%%%&%%%%%&%",
"$%%%%%%$%%&%%%%%%&",
"$$$$$$$$%%&&&&&&&&"
};

