/* XPM */
static char * qg_menuimage_xpm[] = {
"18 18 5 1",
" 	c None",
".	c #000000",
"+	c #0000FF",
"@	c #FFFFFF",
"#	c #1DAF00",
"                  ",
"                  ",
"                  ",
" ................ ",
" .++@++@++@++@++. ",
" .++@++@++@++@++. ",
" .@@@@@@@@@@@@@@. ",
" .++@++@++@++@++. ",
" .++@++@++@++@++. ",
" .@@@@@@@@@@@@@@. ",
" .##@##@##@##@##. ",
" .##@##@##@##@##. ",
" .@@@@@@@@@@@@@@. ",
" .##@##@##@##@##. ",
" .##@##@##@##@##. ",
" ................ ",
"                  ",
"                  "};
