/* XPM */
static char * qg_modifydelete_xpm[] = {
"18 17 5 1",
" 	c None",
".	c #FFFFFF",
"+	c #FF0000",
"@	c #800000",
"#	c #000000",
"             ..   ",
"            ....  ",
"           ++++.. ",
"          ++++++. ",
"         +++++++. ",
"        +++++++@  ",
"       ++++++@@@  ",
"       +++++@@@   ",
"      ..+++@@@    ",
"##    ....+@@     ",
"  ## ......@      ",
"    ##.....       ",
"       ..         ",
"        ##        ",
"          ##      ",
"            ##    ",
"              ##  "};
