/* XPM */
static const char *edittrim2_xpm[] = {
"18 18 4 1",
"$ c none",
"% c #000000",
"& c #0000ff",
"' c #ff0000",
"$%%$$$$$$$&$$$$$$$",
"$$$%$$$$$$$&&$$$$$",
"$$$$%%$$$$$$$&$$$&",
"$$$$$$%$$$$$$$&&&&",
"$$$$$$$''$$$$$$&&&",
"$$$$$$$$$'$$$$&&&&",
"$$$$$$$$$$''$$$$$$",
"$$$$$$$$$$$$'$$$$$",
"$$$$$$$$$$$$$''$$$",
"$$$$$$$$$$$$$$$'$$",
"$$$$$$$$$$$$$''$$$",
"$$$$$$$$$$$$'$$$$$",
"$$$$$$$$$$''$$$$$$",
"$$$$$$$$$'$$$$&&&&",
"$$$$$$$''$$$$$$&&&",
"$$$$$$%$$$$$$$&&&&",
"$$$$%%$$$$$$$&$$$&",
"$$$%$$$$$$$&&$$$$$"
};

