/* XPM */
static char * qg_modifyexplode_xpm[] = {
"18 18 4 1",
" 	c None",
".	c #000000",
"+	c #C10000",
"@	c #FFFFFF",
"                  ",
"          .  .    ",
"           . .   .",
"        .       . ",
"         ..  ..   ",
"            .     ",
"        ....   .  ",
"       .++.. .  . ",
"      ..+.+. .    ",
"     .+.+++.      ",
"    .+@+...       ",
"   .+@+++.        ",
"  .+@+++.         ",
" .+@+++.          ",
" .@+++.           ",
" .+++.            ",
"  ...             ",
"                  "};
