/* XPM */
static const char *qg_modifybevel_xpm[] = {
"18 17 3 1",
"$ c None",
"% c #000000",
"& c #ff0000",
"%%%%%%%%&$$$$$$$$$",
"$$$$$$$$$&$$$$$$$$",
"$$$$$$$$$$&$$$$$$$",
"$$$$$$$$$$$&$$$$$$",
"$$$$$$$$$$$$&$$$$$",
"$$$$$$$$$$$$$&$$$$",
"$$$$$$$$$$$$$$&$$$",
"$$$$$$$$$$$$$$$&$$",
"$$$$$$$$$$$$$$$$&$",
"$$$$$$$$$$$$$$$$$&",
"$$$$$$$$$$$$$$$$$%",
"$$$$$$$$$$$$$$$$$%",
"$$$$$$$$$$$$$$$$$%",
"$$$$$$$$$$$$$$$$$%",
"$$$$$$$$$$$$$$$$$%",
"$$$$$$$$$$$$$$$$$%",
"$$$$$$$$$$$$$$$$$%"
};

