/* XPM */
static const char *qg_modifyrotate2_xpm[] = {
"12 18 4 1",
"$ c #000000",
"% c None",
"& c #0000ff",
"' c #ff0000",
"%%%%%%%'%%%%",
"%%%%%%%'%%%%",
"%%%%%%%''%%%",
"%%%%%%%''%%%",
"%%%%%%%'%'%%",
"%%%%%%%'%'%%",
"%%%%%%%'%%'%",
"%%%%%%%'%%'%",
"$%%%%%%'%%%'",
"$%%%%%%'''''",
"$$%%%%%%&&%%",
"$$%%%%%%&&%%",
"$%$%%%%&&&%%",
"$%$%%%&&&%%%",
"$%%$&&&&%%%%",
"$%%$&&&%%%%%",
"$%%%$%%%%%%%",
"$$$$$%%%%%%%"
};

