/* XPM */
static const char *qg_modifymoverotate_xpm[] = {
"18 18 4 1",
"$ c #000000",
"% c None",
"& c #ff0000",
"' c #0000ff",
"%%%%%%%%%%'''%%%%%",
"%%%''%%%%''''%%%%%",
"%%%%''%%'''%%%''%%",
"'''''''%''%%%''''%",
"'''''''%''%%''''''",
"%%%%''%%'''%%%''%%",
"%%%''%%%%''''''%%%",
"%%%%%%%%%%''''%%%%",
"%%%%%%%%%%%%%%%%%%",
"%%%%%%%%%%%%%%%%%%",
"$%%%%%%%%%%%%%%%%%",
"$%%%%%%%%%%%%%%%%%",
"$$%%%%%%%%%%%%&&%%",
"$$%%%%%%%%%%&&%&%%",
"$%$%%%%%%%&&%%%&%%",
"$%$%%%%%&&&&&&&&%%",
"$%%$%%%%%%%%%%%%%%",
"$$$$%%%%%%%%%%%%%%"
};

