/* XPM */
static char * qg_modifyattributes_xpm[] = {
"18 18 5 1",
" 	c None",
".	c #000000",
"+	c #FF0000",
"@	c #0000FF",
"#	c #00FF00",
"    .  .  ++++++++",
" .  .  .  ++++++++",
" .  .  .  ++++++++",
" .  .  .  @@@@@@@@",
" .  .     @@@@@@@@",
"    .  .  @@@@@@@@",
"    .     ########",
" .  .  .  ########",
" .  .  .  ########",
" .  .  .          ",
" .  .  .  ........",
"    .             ",
"    .  .  ........",
" .  .     ........",
" .  .  .          ",
" .  .  .  ........",
" .  .  .  ........",
"    .  .  ........"};
