/* XPM */
static const char *qg_modifyrotate_xpm[] = {
"15 18 4 1",
"$ c #000000",
"% c None",
"& c #0000ff",
"' c #ff0000",
"%%%%%%%%%%%%%''",
"%%%%%%%%%%%''%'",
"%%%%%%%%%''%%%'",
"%%%%%%%''%%%%%'",
"%%%%%''%%&&%%%'",
"%%%'''''&&&&'''",
"$%%%%%%&&&&&&%%",
"$%%%%%%&%&&%&%%",
"$$%%%%%%%&&%%%%",
"$$%%%%%%&&&%%%%",
"$%$%%%%%&&%%%%%",
"$%$%%%&&&&%%%%%",
"$%%&&&&&&%%%%%%",
"$%%&&&&%%%%%%%%",
"$%%%$%%%%%%%%%%",
"$%%%$%%%%%%%%%%",
"$%%%%$%%%%%%%%%",
"$$$$$$%%%%%%%%%"
};

