/* XPM */
static const char *qg_modifytrim_xpm[] = {
"18 18 4 1",
"$ c none",
"% c #0000ff",
"& c #000000",
"' c #ff0000",
"&&&$$$$$$$$$$$$$$$",
"$$$&&$$$$$$$$$$$$$",
"$$$$$&&&$$$$$$$$$$",
"$$$$$$$$&&&$$$$$$$",
"$$$$$$$$$$$&&&$$$$",
"$$$$$$$$$$'$$$&&$$",
"$$$$$$$$$'$$$$$$&&",
"$$$$$$$$'$$$$$$$$$",
"$$$$$$$'$$$$$$$$$$",
"$$$$$$'$$$%%%%$$$$",
"$$$$$'$$$$$%%%$$$$",
"$$$$'$$$$$$%%%$$$$",
"$$$&$$$$$$%$$%$$$$",
"$$&$$$$$$%$$$$$$$$",
"$&$$$$$$%$$$$$$$$$",
"&$$$$$$%$$$$$$$$$$",
"$$$$$$%$$$$$$$$$$$",
"$$$$$%$$$$$$$$$$$$"
};

