/* XPM */
static const char *qg_modifymirror_xpm[] = {
"17 18 4 1",
"$ c none",
"% c #0000ff",
"& c #000000",
"' c #ff0000",
"$$$$$$$$%$$$$$$$$",
"$$$$$&$$%$$'$$$$$",
"$$$$$&$$%$$'$$$$$",
"$$$$&&$$$$$''$$$$",
"$$$$&&$$$$$''$$$$",
"$$$$&&$$%$$''$$$$",
"$$$&$&$$%$$'$'$$$",
"$$$&$&$$%$$'$'$$$",
"$$$&$&$$$$$'$'$$$",
"$$&$$&$$$$$'$$'$$",
"$$&$$&$$%$$'$$'$$",
"$$&$$&$$%$$'$$'$$",
"$&$$$&$$%$$'$$$'$",
"$&$$$&$$$$$'$$$'$",
"$&$$$&$$$$$'$$$'$",
"&$$$$&$$%$$'$$$$'",
"&&&&&&$$%$$''''''",
"$$$$$$$$%$$$$$$$$"
};

