/* XPM */
static const char * qg_modifytrimamount_xpm[] = {
"16 16 4 1",
" 	c None",
".	c #000000",
"+	c #FF0000",
"@	c #0000FF",
"           .    ",
"          .     ",
"         .      ",
"        .       ",
"       .        ",
"      +         ",
"     +          ",
"    +    @      ",
"   +    @       ",
"  +    @        ",
" +  @ @  .  .   ",
"    @@    ..    ",
"    @@@   ..    ",
"         .  .   ",
"                ",
"                "};
