/* XPM */
static char * qg_menublock_xpm[] = {
"18 18 4 1",
" 	c None",
".	c #000000",
"+	c #FFFFDE",
"@	c #FF0000",
"                  ",
"                  ",
" ..............   ",
" .++++++++++++.   ",
" .++++++++++++.   ",
" .++++++++++++.   ",
" .++++++++++++.   ",
" .++++++++.....   ",
" .+++++++.++++..  ",
" .++++++.+++++.+. ",
" .+++++.++++++.++.",
" @+++++.++++++.++.",
"@@@............++.",
" @     .+++++++++.",
"       .+++++++++.",
"        .+++++++. ",
"         .+++++.  ",
"          .....   "};
