/* XPM */
static char * qg_modifyentity_xpm[] = {
"18 18 4 1",
" 	c None",
".	c #585858",
"+	c #FFFFFF",
"@	c #303030",
" .......  ....... ",
" .+++++++ .+++++++",
" .+@@++++ .+@@++++",
"  +++++++  +++++++",
"                  ",
"                  ",
" .......  ....... ",
" .+++++++ .+++++++",
" .+@@++++ .+@@++++",
"  +++++++  +++++++",
"                  ",
"                  ",
"                  ",
"+++++++   +++++++ ",
"+ @ @@ .  + @ @ @.",
"+@ @@  .  +@ @@ @.",
"+ @ @@ .  +@ @ @ .",
" .......   ......."};
