/* XPM */
static char * qg_printfit_xpm[] = {
"18 18 4 1",
" 	c None",
".	c #000000",
"+	c #FFFFFF",
"@	c #0000FF",
"                  ",
"                  ",
"                  ",
"..................",
".++++++++++++++++.",
".+@@+@@+@@+@@+@@+.",
".+@++++++++++++@+.",
".++++++++++++++++.",
".+@++++++++++++@+.",
".+@++++++++++++@+.",
".++++++++++++++++.",
".+@++++++++++++@+.",
".+@@+@@+@@+@@+@@+.",
".++++++++++++++++.",
"..................",
"                  ",
"                  ",
"                  "};
