/* XPM */
static char * qg_polylineappend_xpm[] = {
"18 18 4 1",
" 	c None",
".	c #FF0000",
"+	c #000000",
"@	c #FFFFFF",
"                  ",
"                  ",
"                  ",
" .      .         ",
"...++++...        ",
" .      .+        ",
"          +       ",
"           +.     ",
"           .+.    ",
"            ++    ",
"            +++   ",
"   @        ++++  ",
"  @+@       +++++ ",
" @@+@@      ++++++",
"@+++++@     ++++  ",
" @@+@@      + ++  ",
"  @+@          ++ ",
"   @           ++ "};
