/* XPM */
static char * qg_polylinedelbetween_xpm[] = {
"18 18 5 1",
" 	c None",
".	c #FF0000",
"+	c #0000FF",
"@	c #000000",
"#	c #FFFFFF",
"                  ",
"                  ",
"                  ",
" .    +     +   . ",
"...@@+++   +++@...",
" .    +     +   . ",
"      @     @     ",
"      @     @     ",
"      +     +     ",
"     +++@@@+++    ",
"      +     +     ",
"                  ",
"                  ",
" #####            ",
"#@@@@@#           ",
" #####            ",
"                  ",
"                  "};
