/* XPM */
static char * qg_polylinetrim_xpm[] = {
"18 18 4 1",
" 	c None",
".	c #FF0000",
"+	c #0000FF",
"@	c #000000",
"                  ",
"                  ",
"              ..  ",
"            .. .  ",
"          ..   .  ",
"       +..     .  ",
"      +++      .  ",
"    @@ +       .  ",
"  @@   @       .  ",
"@@     @       .  ",
"       +       +  ",
"      +++@@@@@+++ ",
"       +       +  ",
"               @  ",
"               @  ",
"               @  ",
"               @  ",
"               @  "};
