/* XPM */
static char * qg_lockrelativezero_xpm[] = {
"17 17 3 1",
" 	c None",
".	c #000000",
"+	c #FF0000",
"            ..   ",
"           .  .  ",
" ...........  .  ",
" ...........  .  ",
"  ..       .  .  ",
"  ..        ..   ",
"  ..             ",
"                 ",
"      +++++      ",
"     +  +  +     ",
"     +  +  +     ",
"     +++++++     ",
"     +  +  +     ",
"     +  +  +     ",
"      +++++      ",
"                 ",
"                 "};
