/* XPM */
static char * qg_relativezero_xpm[] = {
"17 17 4 1",
" 	c None",
".	c #FF0000",
"+	c #000000",
"@	c #FFFFFF",
"                 ",
"  .....          ",
" .  .  .         ",
" .  .  .         ",
" ...+...         ",
" .  ++ .         ",
" .  +@+.         ",
"  ..+@@+         ",
"    +@@@+        ",
"    +@@@@+       ",
"    +@@@+++      ",
"    +@+@+        ",
"    +++@@+       ",
"    +  +@+       ",
"        +@+      ",
"        +@+      ",
"         +       "};
