/* XPM */
static char * qg_snaporthorestrict_xpm[] = {
"17 17 3 1",
" 	c None",
".	c #000000",
"+	c #FF0000",
"        .        ",
"        .        ",
"        .        ",
"        .        ",
"        .        ",
"      +++++      ",
"     +  +  +     ",
"     +  +  +     ",
".....+++++++.....",
"     +  +  +     ",
"     +  +  +     ",
"      +++++      ",
"        .        ",
"        .        ",
"        .        ",
"        .        ",
"        .        "};
