/* XPM */
static char * qg_snaphorrestrict_xpm[] = {
"17 17 3 1",
" 	c None",
".	c #FF0000",
"+	c #000000",
"                 ",
"                 ",
"                 ",
"                 ",
"                 ",
"      .....      ",
"     .  .  .     ",
"     .  .  .     ",
"+++++.......+++++",
"     .  .  .     ",
"     .  .  .     ",
"      .....      ",
"                 ",
"                 ",
"                 ",
"                 ",
"                 "};
