/* XPM */
static const char *qg_selectsingle_xpm[] = {
"15 18 4 1",
"$ c None",
"% c #000000",
"& c #ffffff",
"' c #ff0000",
"$$$$$$$$$$$$$$'",
"$$$$$$$$$$$$''$",
"$$$$$$$$$$''$$$",
"$$$$$$$$''$$$$$",
"$$$$$$$'$$$$$$$",
"$$$$$''%$$$$$$$",
"$$$''$$%%$$$$$$",
"$''$$$$%&%$$$$$",
"'$$$$$$%&&%$$$$",
"$$$$$$$%&&&%$$$",
"$$$$$$$%&&&&%$$",
"$$$$$$$%&&&%%%$",
"$$$$$$$%&%&%$$$",
"$$$$$$$%%%&&%$$",
"$$$$$$$%$$%&%$$",
"$$$$$$$$$$$%&%$",
"$$$$$$$$$$$%&%$",
"$$$$$$$$$$$$%$$"
};

