/* XPM */
static char * qg_snapintersection_xpm[] = {
"18 18 3 1",
" 	c None",
".	c #000000",
"+	c #FF0000",
"             .    ",
"             .    ",
"             .    ",
"             .    ",
"            .     ",
"            .     ",
"            .     ",
".           .     ",
" ....      .      ",
"     ....  +      ",
"         .+++     ",
"           + .... ",
"          .      .",
"          .       ",
"          .       ",
"          .       ",
"         .        ",
"         .        "};
