/* XPM */
static const char *qg_selectwindow_xpm[] = {
"18 16 4 1",
"$ c None",
"% c #000000",
"& c #0000ff",
"' c #ff0000",
"$%$$$$$$$$$$$$$$$$",
"%%%&&&&&&&&&&&&&&$",
"$%$$$$$$$$$$$$$$&$",
"$&$$$$$$$$$$$$$$&$",
"$&$$$'''$$$$$$$$&$",
"$&$$'$$$'$$$$$$$&$",
"$&$$'$$$'$$$$'$$&$",
"$&$$'$$$'$$$''$$&$",
"$&$$$'''$$$'$'$$&$",
"$&$$$$$$$$'$$'$$&$",
"$&$$$$$$$'$$$'$$&$",
"$&$$$$$$''''''$$&$",
"$&$$$$$$$$$$$$$$&$",
"$&$$$$$$$$$$$$$$%$",
"$&&&&&&&&&&&&&&%%%",
"$$$$$$$$$$$$$$$$%$"
};

