/* XPM */
static const char *qg_snapendpoint_xpm[] = {
"18 18 3 1",
"$ c none",
"% c #ff0000",
"& c #000000",
"$$$$$$%%%$$$$$$$$$",
"$$$$$$%%%$$$$$$$$$",
"$$$$$$%%%$$$$$$$$$",
"$$$$$$$&$$$$$$$$$$",
"$$$$$$$&$$$$$$$$$$",
"$$$$$$$&$$$$$$$$$$",
"$$$$$$$$&$$$$$$$$$",
"%%%$$$$$$&$$$$$$$$",
"%%%$$$$$$$&$$$$$$$",
"%%%&$$$$$$$&&&$%%%",
"$$$$&&$$$$$$$$&%%%",
"$$$$$$&&$$$$$$$%%%",
"$$$$$$$$&&$$$$$$$$",
"$$$$$$$$$$&&$$$$$$",
"$$$$$$$$$$$$&&$$$$",
"$$$$$$$$$$$$$$&%%%",
"$$$$$$$$$$$$$$$%%%",
"$$$$$$$$$$$$$$$%%%"
};

