/* XPM */
static const char *qg_snapfree_xpm[] = {
"5 5 2 1",
"$ c None",
"% c #000000",
"$$%$$",
"$$%$$",
"%%%%%",
"$$%$$",
"$$%$$"
};

