/* XPM */
static const char *qg_selectcontour_xpm[] = {
"18 16 3 1",
"$ c None",
"% c #ff0000",
"& c #000000",
"$$$$$%%%%%%%%%%%%%",
"$$$%%$$$$$$$$$$$$%",
"$$%$$$$$$$$$$$$$$%",
"$%$$$$$$$$$$$$$$$%",
"$%$$$&&&$$$$$$$$$%",
"%$$$&$$$&$$$$$$$$%",
"%$$$&$$$&$$$$&$$$%",
"%$$$&$$$&$$$&&$$$%",
"%$$$$&&&$$$&$&$$$%",
"%$$$$$$$$$&$$&$$$%",
"%$$$$$$$$&$$$&$$$%",
"%%%%%%$$&&&&&&$$$%",
"$$$$$%$$$$$$$$$$$%",
"$$$$$%$$$$$$$$$$$%",
"$$$$$%$$$$$$$$$$$%",
"$$$$$%%%%%%%%%%%%%"
};

