/* XPM */
static const char *qg_selectinvert_xpm[] = {
"18 16 4 1",
"$ c None",
"% c #0000ff",
"& c #000000",
"' c #ff0000",
"%$$$$'''''''''''$$",
"$%$''$$$$$$$$$$'$$",
"$$%$$$$$$$$$$$$'$$",
"$$'%$&&&$$$$$$$'$$",
"$&$$%%$$&$$$$$$'$$",
"$&$$'$%$&$$$$$$'$$",
"$&$$'$$%&$$$&$$'$$",
"$&$$$'''%$$&&$$'$$",
"$&$$$$$$$%&$&$$'$$",
"$&$$$$$$$'%$&$$'$$",
"$&&&&&$$'''%&$$'$$",
"$$$$$&$$$$$$%%$'$$",
"$$$$$&$$$$$$$$%'$$",
"$$$$$&&&&&&&&&&%$$",
"$$$$$$$$$$$$$$$$%$",
"$$$$$$$$$$$$$$$$$%"
};

