/* XPM */
static const char *qg_selectall_xpm[] = {
"18 16 2 1",
"$ c None",
"% c #ff0000",
"$$$$$%%%%%%%%%%%%%",
"$$$%%$$$$$$$$$$$$%",
"$$%$$$$$$$$$$$$$$%",
"$%$$$$$$$$$$$$$$$%",
"$%$$$%%%$$$$$$$$$%",
"%$$$%$$$%$$$$$$$$%",
"%$$$%$$$%$$$$%$$$%",
"%$$$%$$$%$$$%%$$$%",
"%$$$$%%%$$$%$%$$$%",
"%$$$$$$$$$%$$%$$$%",
"%$$$$$$$$%$$$%$$$%",
"%%%%%%$$%%%%%%$$$%",
"$$$$$%$$$$$$$$$$$%",
"$$$$$%$$$$$$$$$$$%",
"$$$$$%$$$$$$$$$$$%",
"$$$$$%%%%%%%%%%%%%"
};

