/* XPM */
static const char *qg_snapcenter_xpm[] = {
"18 18 3 1",
"  c none",
"% c #000000",
"& c #ff0000",
"               %% ",
"             %%   ",
"           %%     ",
"       &&&%       ",
"       &&&        ",
"     %%&&&        ",
"   %%        %%%% ",
" %%       %%%     ",
"%        %        ",
"        %         ",
"       %          ",
"      %           ",
"      %           ",
"      %           ",
"     %            ",
"     %        &&& ",
"     %        &&& ",
"     %        &&& "
};

