/* XPM */
static const char *qg_selectlayer_xpm[] = {
"14 19 4 1",
"$ c None",
"% c #000000",
"& c #ffffff",
"' c #ff0000",
"$$$$$$$$%%$$$$",
"$$$$$$%%&%$$$$",
"$$$$%%&&&%$$%%",
"$$%%&&&%&%%%&%",
"%%&&&%%&%%&&&%",
"%&&%%&%%&&&&&%",
"%&%&%%&&&&'&&%",
"%&%&%&&&&&'&&%",
"%&%&%&&&&''&&%",
"%&%&%&&&&''&&%",
"%&%&%&&&'&'&&%",
"%&%%%&&&'&'&&%",
"%&%&%&&'&''&&%",
"%&&&%&&''&&&&%",
"%&&&%&'&&&&&%%",
"%&%%%&&&&&%%$$",
"%%$$%&&&%%$$$$",
"$$$$%&%%$$$$$$",
"$$$$%%$$$$$$$$"
};

