/* XPM */
static const char *qg_snapmiddle_xpm[] = {
"17 18 3 1",
"  c None",
"% c #000000",
"& c #ff0000",
"               %%",
"             %%  ",
"           %%    ",
"       &&&%      ",
"       &&&       ",
"     %%&&&       ",
"   %%        %%%%",
" %%       %%%    ",
"%      &&&       ",
"       &&&       ",
"       &&&       ",
"      %          ",
"      %          ",
"      %          ",
"     %           ",
"     %           ",
"     %           ",
"     %           "
};

