/* XPM */
static const char *qg_snapgrid_xpm[] = {
"18 18 2 1",
"$ c #ff0000",
"  c None",
"$$   $$   $$   $$ ",
"$$   $$   $$   $$ ",
"                  ",
"                  ",
"                  ",
"$$   $$   $$   $$ ",
"$$   $$   $$   $$ ",
"                  ",
"                  ",
"                  ",
"$$   $$   $$   $$ ",
"$$   $$   $$   $$ ",
"                  ",
"                  ",
"                  ",
"$$   $$   $$   $$ ",
"$$   $$   $$   $$ ",
"                  "
};

