/* XPM */
static char * qg_tolerance1_xpm[] = {
"32 10 3 1",
" 	c None",
".	c #000000",
"+	c #FF0000",
"..................  ............",
".                .  .++++++++++.",
".                .  .++++++++++.",
".                .  ............",
".                .              ",
".                .              ",
".                .  ............",
".                .  .          .",
".                .  .          .",
"..................  ............"};
