/* XPM */
static char * qg_widthbox_xpm[] = {
"113 20 27 1",
" 	c None",
".	c #4A4C4A",
"+	c #000000",
"@	c #FFFFFF",
"#	c #F6F2F6",
"$	c #E6E6E6",
"%	c #949194",
"&	c #181818",
"*	c #393839",
"=	c #D5D6D5",
"-	c #CDCACD",
";	c #080C08",
">	c #C5C6C5",
",	c #F6F6F6",
"'	c #838583",
")	c #292C29",
"!	c #A4A1A4",
"~	c #6A6D6A",
"{	c #000400",
"]	c #838183",
"^	c #5A595A",
"/	c #BDBABD",
"(	c #6A696A",
"_	c #4A484A",
":	c #DEDADE",
"<	c #ACAAAC",
"[	c #414041",
".................................................................................................................",
".++++++++++++++++++++++++++++++++++++++++++++++++++++++++++++++++++++++++++++++++++++++++++++++++++++++++++++++++",
".+@@@@@@@@@@@@@@@@@@@@@@@@@@@@@@@@@@@@@@@@@@@@@@@@@@@@@@@@@@@@@@@@@@@@@@@@@@@@@@@@@@@@@@@@@@@@@@@@@@@@@@@@@@@@@@+",
".+@@@@@@@@@@@@@@@@@@@@@@@@@@@@@@@@@@@@@@@@@@@@@@@@@@@@@@@@@@@@@@@@@@@@@@@@@@@@@@@@@@@@@@@@@@@@@@@@#############.+",
".+@@@@@@@@@@@@@@@@@@@@@@@@@@@@@@@@@@@@@@@@@@@@@@@@@@@@@@@@@@@@@@@@@@@@@@@@@@@@@@@@@@@@@@@@@@@@@@@@#$$$$$$$$$$$$.+",
".+@@@@@@@@@@@@@@@@@@@@@@@@@@@@@@@@@@@@@@@@@@@@@@@@@@@@@@@@@@@@@@@@@@@@@@@@@@@@@@@@@@@@@@@@@@@@@@@@#$$$$$$$$$$$$.+",
".+@@@@@@@@@@@@@@@@@@@@@@@@@@@@@@@@@@@@@@@%&+*=@@@@@@@@@@@@@@@@@@@@@@@@@@@@@@@@@@@@@@@@@@@@@@@@@@@@#$$$$$$$$$$$$.+",
".+@@@@@@@@@@@@@@@@@@@@@@@@@@@@@@@@@@@@@@-;>,')@@@@@@@@@@@@@@@@@@@@@@@@@@@@@@@@@@@@@@@@@@@@@@@@@@@@#$$$$$$$$$$$$.+",
".+@@@@@@@@@@@@@@@@@@@@@@@@@@@@@@@@@@@@@@!~@@,{@@@@@@@@@@@@@@@@@@@@@@@@@@@@@@@@@@@@@@@@@@@@@@@@@@@@#$$+++++++$$$.+",
".+@@@@++++++++++++++++++++++++++++++++@@@@@@]^@@@@@@@@@@@@@@@@@@@@@@@@@@@@@@@@@@@@@@@@@@@@@@@@@@@@#$$$+++++$$$$.+",
".+@@@@@@@@@@@@@@@@@@@@@@@@@@@@@@@@@@@@@@@@/*(,@@@@@@@@@@@@@@@@@@@@@@@@@@@@@@@@@@@@@@@@@@@@@@@@@@@@#$$$$+++$$$$$.+",
".+@@@@@@@@@@@@@@@@@@@@@@@@@@@@@@@@@@@@@@@(_:@@@@@@@@@@@@@@@@@@@@@@@@@@@@@@@@@@@@@@@@@@@@@@@@@@@@@@#$$$$$+$$$$$$.+",
".+@@@@@@@@@@@@@@@@@@@@@@@@@@@@@@@@@@@@@@<[@@@@@@@@@@@@@@@@@@@@@@@@@@@@@@@@@@@@@@@@@@@@@@@@@@@@@@@@#$$$$$$$$$$$$.+",
".+@@@@@@@@@@@@@@@@@@@@@@@@@@@@@@@@@@@@@@(++++;@@@@@@@@@@@@@@@@@@@@@@@@@@@@@@@@@@@@@@@@@@@@@@@@@@@@#$$$$$$$$$$$$.+",
".+@@@@@@@@@@@@@@@@@@@@@@@@@@@@@@@@@@@@@@@@@@@@@@@@@@@@@@@@@@@@@@@@@@@@@@@@@@@@@@@@@@@@@@@@@@@@@@@@#$$$$$$$$$$$$.+",
".+@@@@@@@@@@@@@@@@@@@@@@@@@@@@@@@@@@@@@@@@@@@@@@@@@@@@@@@@@@@@@@@@@@@@@@@@@@@@@@@@@@@@@@@@@@@@@@@@#$$$$$$$$$$$$.+",
".+@@@@@@@@@@@@@@@@@@@@@@@@@@@@@@@@@@@@@@@@@@@@@@@@@@@@@@@@@@@@@@@@@@@@@@@@@@@@@@@@@@@@@@@@@@@@@@@@#$$$$$$$$$$$$.+",
".+@@@@@@@@@@@@@@@@@@@@@@@@@@@@@@@@@@@@@@@@@@@@@@@@@@@@@@@@@@@@@@@@@@@@@@@@@@@@@@@@@@@@@@@@@@@@@@@@..............+",
".+@@@@@@@@@@@@@@@@@@@@@@@@@@@@@@@@@@@@@@@@@@@@@@@@@@@@@@@@@@@@@@@@@@@@@@@@@@@@@@@@@@@@@@@@@@@@@@@++++++++++++++++",
".################################################################################################################"};
