999
dxfrw 0.5.11
0
SECTION
2
HEADER
9
$ACADVER
1
AC1021
9
$HANDSEED
5
20000
9
$DWGCODEPAGE
3
ANSI_1252
9
$INSBASE
10
0
20
0
30
0
9
$EXTMIN
10
10000000000
20
10000000000
30
0
9
$EXTMAX
10
-10000000000
20
-10000000000
30
0
9
$LIMMIN
10
0
20
0
9
$LIMMAX
10
4000
20
30000
9
$ORTHOMODE
70
0
9
$LTSCALE
40
1
9
$TEXTSTYLE
7
Standard
9
$CLAYER
8
0
9
$DIMASZ
40
2.5
9
$DIMLFAC
40
1
9
$DIMSCALE
40
1
9
$DIMEXO
40
0.625
9
$DIMEXE
40
1.25
9
$DIMTXT
40
2.5
9
$DIMTSZ
40
0
9
$DIMAUNIT
70
0
9
$DIMADEC
70
0
9
$DIMLUNIT
70
2
9
$DIMSTYLE
2
ISO-25
9
$DIMGAP
40
0.625
9
$DIMTIH
70
0
9
$LUNITS
70
2
9
$LUPREC
70
4
9
$AUNITS
70
0
9
$AUPREC
70
0
9
$SPLINESEGS
70
8
9
$GRIDMODE
70
1
9
$SNAPSTYLE
70
0
9
$PINSBASE
10
0
20
0
30
0
9
$PLIMMIN
10
0
20
0
9
$PLIMMAX
10
12
20
9
9
$INSUNITS
70
4
9
$PSVPSCALE
40
0
0
ENDSEC
0
SECTION
2
CLASSES
0
ENDSEC
0
SECTION
2
TABLES
0
TABLE
2
VPORT
5
8
330
0
100
AcDbSymbolTable
70
1
0
VPORT
5
31
330
2
100
AcDbSymbolTableRecord
100
AcDbViewportTableRecord
2
*ACTIVE
70
0
10
0
20
0
11
1
21
1
12
10112.798486
22
7868.44373064
13
0
23
0
14
10
24
10
15
10
25
10
16
0
26
0
36
1
17
0
27
0
37
0
40
23763.7562335
41
1.38
42
50
43
0
44
0
50
0
51
0
71
0
72
100
73
1
74
3
75
0
76
1
77
0
78
0
281
0
65
1
110
0
120
0
130
0
111
1
121
0
131
0
112
0
122
1
132
0
79
0
146
0
348
10020
60
7
61
5
292
1
282
1
141
0
142
0
63
250
421
3358443
0
ENDTAB
0
TABLE
2
LTYPE
5
5
330
0
100
AcDbSymbolTable
70
4
0
LTYPE
5
14
330
5
100
AcDbSymbolTableRecord
100
AcDbLinetypeTableRecord
2
ByBlock
70
0
3

72
65
73
0
40
0
0
LTYPE
5
15
330
5
100
AcDbSymbolTableRecord
100
AcDbLinetypeTableRecord
2
ByLayer
70
0
3

72
65
73
0
40
0
0
LTYPE
5
16
330
5
100
AcDbSymbolTableRecord
100
AcDbLinetypeTableRecord
2
Continuous
70
0
3
Solid line
72
65
73
0
40
0
0
LTYPE
5
32
330
5
100
AcDbSymbolTableRecord
100
AcDbLinetypeTableRecord
2
DOT
70
0
3
Dot . . . . . . . . . . . . . . . . . . . . . .
72
65
73
2
40
6.35
49
0
74
0
49
-6.35
74
0
0
LTYPE
5
33
330
5
100
AcDbSymbolTableRecord
100
AcDbLinetypeTableRecord
2
DOT2
70
0
3
Dot (.5x) .....................................
72
65
73
2
40
3.175
49
0
74
0
49
-3.175
74
0
0
LTYPE
5
34
330
5
100
AcDbSymbolTableRecord
100
AcDbLinetypeTableRecord
2
DOTX2
70
0
3
Dot (2x) .  .  .  .  .  .  .  .  .  .  .  .  .
72
65
73
2
40
12.7
49
0
74
0
49
-12.7
74
0
0
LTYPE
5
35
330
5
100
AcDbSymbolTableRecord
100
AcDbLinetypeTableRecord
2
DASHED
70
0
3
Dot . . . . . . . . . . . . . . . . . . . . . .
72
65
73
2
40
19.05
49
12.7
74
0
49
-6.35
74
0
0
LTYPE
5
36
330
5
100
AcDbSymbolTableRecord
100
AcDbLinetypeTableRecord
2
DASHED2
70
0
3
Dashed (.5x) _ _ _ _ _ _ _ _ _ _ _ _ _ _ _ _ _
72
65
73
2
40
9.525
49
6.35
74
0
49
-3.175
74
0
0
LTYPE
5
37
330
5
100
AcDbSymbolTableRecord
100
AcDbLinetypeTableRecord
2
DASHEDX2
70
0
3
Dashed (2x) ____  ____  ____  ____  ____  ___
72
65
73
2
40
38.1
49
25.4
74
0
49
-12.7
74
0
0
LTYPE
5
38
330
5
100
AcDbSymbolTableRecord
100
AcDbLinetypeTableRecord
2
DASHDOT
70
0
3
Dash dot __ . __ . __ . __ . __ . __ . __ . __
72
65
73
4
40
25.4
49
12.7
74
0
49
-6.35
74
0
49
0
74
0
49
-6.35
74
0
0
LTYPE
5
39
330
5
100
AcDbSymbolTableRecord
100
AcDbLinetypeTableRecord
2
DASHDOT2
70
0
3
Dash dot (.5x) _._._._._._._._._._._._._._._.
72
65
73
4
40
12.7
49
6.35
74
0
49
-3.175
74
0
49
0
74
0
49
-3.175
74
0
0
LTYPE
5
3A
330
5
100
AcDbSymbolTableRecord
100
AcDbLinetypeTableRecord
2
DASHDOTX2
70
0
3
Dash dot (2x) ____  .  ____  .  ____  .  ___
72
65
73
4
40
50.8
49
25.4
74
0
49
-12.7
74
0
49
0
74
0
49
-12.7
74
0
0
LTYPE
5
3B
330
5
100
AcDbSymbolTableRecord
100
AcDbLinetypeTableRecord
2
DIVIDE
70
0
3
Divide ____ . . ____ . . ____ . . ____ . . ____
72
65
73
6
40
31.75
49
12.7
74
0
49
-6.35
74
0
49
0
74
0
49
-6.35
74
0
49
0
74
0
49
-6.35
74
0
0
LTYPE
5
3C
330
5
100
AcDbSymbolTableRecord
100
AcDbLinetypeTableRecord
2
DIVIDE2
70
0
3
Divide (.5x) __..__..__..__..__..__..__..__.._
72
65
73
6
40
15.875
49
6.35
74
0
49
-3.175
74
0
49
0
74
0
49
-3.175
74
0
49
0
74
0
49
-3.175
74
0
0
LTYPE
5
3D
330
5
100
AcDbSymbolTableRecord
100
AcDbLinetypeTableRecord
2
DIVIDEX2
70
0
3
Divide (2x) ________  .  .  ________  .  .  _
72
65
73
6
40
63.5
49
25.4
74
0
49
-12.7
74
0
49
0
74
0
49
-12.7
74
0
49
0
74
0
49
-12.7
74
0
0
LTYPE
5
3E
330
5
100
AcDbSymbolTableRecord
100
AcDbLinetypeTableRecord
2
BORDER
70
0
3
Border __ __ . __ __ . __ __ . __ __ . __ __ .
72
65
73
6
40
44.45
49
12.7
74
0
49
-6.35
74
0
49
12.7
74
0
49
-6.35
74
0
49
0
74
0
49
-6.35
74
0
0
LTYPE
5
3F
330
5
100
AcDbSymbolTableRecord
100
AcDbLinetypeTableRecord
2
BORDER2
70
0
3
Border (.5x) __.__.__.__.__.__.__.__.__.__.__.
72
65
73
6
40
22.225
49
6.35
74
0
49
-3.175
74
0
49
6.35
74
0
49
-3.175
74
0
49
0
74
0
49
-3.175
74
0
0
LTYPE
5
40
330
5
100
AcDbSymbolTableRecord
100
AcDbLinetypeTableRecord
2
BORDERX2
70
0
3
Border (2x) ____  ____  .  ____  ____  .  ___
72
65
73
6
40
88.9
49
25.4
74
0
49
-12.7
74
0
49
25.4
74
0
49
-12.7
74
0
49
0
74
0
49
-12.7
74
0
0
LTYPE
5
41
330
5
100
AcDbSymbolTableRecord
100
AcDbLinetypeTableRecord
2
CENTER
70
0
3
Center ____ _ ____ _ ____ _ ____ _ ____ _ ____
72
65
73
4
40
50.8
49
31.75
74
0
49
-6.35
74
0
49
6.35
74
0
49
-6.35
74
0
0
LTYPE
5
42
330
5
100
AcDbSymbolTableRecord
100
AcDbLinetypeTableRecord
2
CENTER2
70
0
3
Center (.5x) ___ _ ___ _ ___ _ ___ _ ___ _ ___
72
65
73
4
40
28.575
49
19.05
74
0
49
-3.175
74
0
49
3.175
74
0
49
-3.175
74
0
0
LTYPE
5
43
330
5
100
AcDbSymbolTableRecord
100
AcDbLinetypeTableRecord
2
CENTERX2
70
0
3
Center (2x) ________  __  ________  __  _____
72
65
73
4
40
101.6
49
63.5
74
0
49
-12.7
74
0
49
12.7
74
0
49
-12.7
74
0
0
ENDTAB
0
TABLE
2
LAYER
5
2
330
0
100
AcDbSymbolTable
70
1
0
LAYER
5
10
330
2
100
AcDbSymbolTableRecord
100
AcDbLayerTableRecord
2
0
70
0
62
7
6
CONTINUOUS
370
-3
390
F
0
LAYER
5
44
330
2
100
AcDbSymbolTableRecord
100
AcDbLayerTableRecord
2
Contour
70
0
62
7
6
CONTINUOUS
370
-3
390
F
0
ENDTAB
0
TABLE
2
STYLE
5
3
330
0
100
AcDbSymbolTable
70
3
0
STYLE
5
45
330
2
100
AcDbSymbolTableRecord
100
AcDbTextStyleTableRecord
2
Standard
70
0
40
0
41
1
50
0
71
0
42
1
3
txt
4

0
ENDTAB
0
TABLE
2
VIEW
5
6
330
0
100
AcDbSymbolTable
70
0
0
ENDTAB
0
TABLE
2
UCS
5
7
330
0
100
AcDbSymbolTable
70
0
0
ENDTAB
0
TABLE
2
APPID
5
9
330
0
100
AcDbSymbolTable
70
1
0
APPID
5
12
330
9
100
AcDbSymbolTableRecord
100
AcDbRegAppTableRecord
2
ACAD
70
0
0
ENDTAB
0
TABLE
2
DIMSTYLE
5
A
330
0
100
AcDbSymbolTable
70
1
100
AcDbDimStyleTable
71
1
0
DIMSTYLE
105
46
330
A
100
AcDbSymbolTableRecord
100
AcDbDimStyleTableRecord
2
Standard
70
0
40
1
41
2.5
42
0.625
43
0.38
44
1.25
45
0
46
0
47
0
48
0
140
2.5
141
0.09
142
0
143
25.4
144
1
145
0
146
1
147
0.625
148
0
71
0
72
0
73
0
74
1
75
0
76
0
77
0
78
0
79
0
170
0
171
2
172
0
173
0
174
0
175
0
176
0
177
0
178
0
179
0
271
4
272
4
273
2
274
2
275
0
276
0
277
2
278
46
279
0
280
0
281
0
282
0
283
1
284
0
285
0
286
0
288
0
289
3
340
Standard
341

371
-2
372
-2
0
ENDTAB
0
TABLE
2
BLOCK_RECORD
5
1
330
0
100
AcDbSymbolTable
70
2
0
BLOCK_RECORD
5
1F
330
1
100
AcDbSymbolTableRecord
100
AcDbBlockTableRecord
2
*Model_Space
70
0
280
1
281
0
0
BLOCK_RECORD
5
1E
330
1
100
AcDbSymbolTableRecord
100
AcDbBlockTableRecord
2
*Paper_Space
70
0
280
1
281
0
0
BLOCK_RECORD
5
47
330
1
100
AcDbSymbolTableRecord
100
AcDbBlockTableRecord
2
DRESSER
70
0
280
1
281
0
0
BLOCK_RECORD
5
4A
330
1
100
AcDbSymbolTableRecord
100
AcDbBlockTableRecord
2
BEDSIDE TABLE
70
0
280
1
281
0
0
BLOCK_RECORD
5
4D
330
1
100
AcDbSymbolTableRecord
100
AcDbBlockTableRecord
2
DOUBLE BED
70
0
280
1
281
0
0
BLOCK_RECORD
5
50
330
1
100
AcDbSymbolTableRecord
100
AcDbBlockTableRecord
2
WARDROBE
70
0
280
1
281
0
0
BLOCK_RECORD
5
53
330
1
100
AcDbSymbolTableRecord
100
AcDbBlockTableRecord
2
SOFA
70
0
280
1
281
0
0
BLOCK_RECORD
5
56
330
1
100
AcDbSymbolTableRecord
100
AcDbBlockTableRecord
2
LOUNGER
70
0
280
1
281
0
0
BLOCK_RECORD
5
59
330
1
100
AcDbSymbolTableRecord
100
AcDbBlockTableRecord
2
TV
70
0
280
1
281
0
0
BLOCK_RECORD
5
5C
330
1
100
AcDbSymbolTableRecord
100
AcDbBlockTableRecord
2
COFFEE TABLE
70
0
280
1
281
0
0
BLOCK_RECORD
5
5F
330
1
100
AcDbSymbolTableRecord
100
AcDbBlockTableRecord
2
TABLE
70
0
280
1
281
0
0
BLOCK_RECORD
5
62
330
1
100
AcDbSymbolTableRecord
100
AcDbBlockTableRecord
2
CHAIR
70
0
280
1
281
0
0
BLOCK_RECORD
5
65
330
1
100
AcDbSymbolTableRecord
100
AcDbBlockTableRecord
2
TOILET
70
0
280
1
281
0
0
BLOCK_RECORD
5
68
330
1
100
AcDbSymbolTableRecord
100
AcDbBlockTableRecord
2
BATH
70
0
280
1
281
0
0
BLOCK_RECORD
5
6B
330
1
100
AcDbSymbolTableRecord
100
AcDbBlockTableRecord
2
SINK
70
0
280
1
281
0
0
BLOCK_RECORD
5
6E
330
1
100
AcDbSymbolTableRecord
100
AcDbBlockTableRecord
2
KITCHEN SINK
70
0
280
1
281
0
0
BLOCK_RECORD
5
71
330
1
100
AcDbSymbolTableRecord
100
AcDbBlockTableRecord
2
BREAKFAST BAR
70
0
280
1
281
0
0
ENDTAB
0
ENDSEC
0
SECTION
2
BLOCKS
0
BLOCK
5
20
330
1F
100
AcDbEntity
8
0
100
AcDbBlockBegin
2
*Model_Space
70
0
10
0
20
0
30
0
3
*Model_Space
1

0
ENDBLK
5
21
330
1F
100
AcDbEntity
8
0
100
AcDbBlockEnd
0
BLOCK
5
1C
330
1B
100
AcDbEntity
8
0
100
AcDbBlockBegin
2
*Paper_Space
70
0
10
0
20
0
30
0
3
*Paper_Space
1

0
ENDBLK
5
1D
330
1F
100
AcDbEntity
8
0
100
AcDbBlockEnd
0
BLOCK
5
48
330
47
100
AcDbEntity
8
0
100
AcDbBlockBegin
2
DRESSER
70
0
10
0
20
0
3
DRESSER
1

0
LINE
5
74
100
AcDbEntity
8
Contour
6
ByLayer
62
256
370
-1
100
AcDbLine
10
0
20
0
11
1200
21
0
0
LINE
5
75
100
AcDbEntity
8
Contour
6
ByLayer
62
256
370
-1
100
AcDbLine
10
1200
20
0
11
1200
21
-600
0
LINE
5
76
100
AcDbEntity
8
Contour
6
ByLayer
62
256
370
-1
100
AcDbLine
10
1200
20
-600
11
0
21
-600
0
LINE
5
77
100
AcDbEntity
8
Contour
6
ByLayer
62
256
370
-1
100
AcDbLine
10
0
20
-600
11
0
21
0
0
LINE
5
78
100
AcDbEntity
8
Contour
6
ByLayer
62
256
370
-1
100
AcDbLine
10
20
20
-600
11
20
21
-620
0
LINE
5
79
100
AcDbEntity
8
Contour
6
ByLayer
62
256
370
-1
100
AcDbLine
10
20
20
-620
11
1180
21
-620
0
LINE
5
7A
100
AcDbEntity
8
Contour
6
ByLayer
62
256
370
-1
100
AcDbLine
10
1180
20
-620
11
1180
21
-600
0
ENDBLK
5
49
330
47
100
AcDbEntity
8
0
100
AcDbBlockEnd
0
BLOCK
5
4B
330
4A
100
AcDbEntity
8
0
100
AcDbBlockBegin
2
BEDSIDE TABLE
70
0
10
0
20
0
3
BEDSIDE TABLE
1

0
LINE
5
7B
100
AcDbEntity
8
Contour
6
ByLayer
62
256
370
-1
100
AcDbLine
10
-200
20
-400
11
-200
21
-50
0
ARC
5
7C
100
AcDbEntity
8
Contour
6
ByLayer
62
256
370
-1
100
AcDbCircle
10
-150
20
-400
40
50
100
AcDbArc
50
180
51
270
0
ARC
5
7D
100
AcDbEntity
8
Contour
6
ByLayer
62
256
370
-1
100
AcDbCircle
10
-150
20
-50
40
50
100
AcDbArc
50
90
51
180
0
LINE
5
7E
100
AcDbEntity
8
Contour
6
ByLayer
62
256
370
-1
100
AcDbLine
10
-150
20
0
11
150
21
0
0
LINE
5
7F
100
AcDbEntity
8
Contour
6
ByLayer
62
256
370
-1
100
AcDbLine
10
200
20
-50
11
200
21
-400
0
ARC
5
80
100
AcDbEntity
8
Contour
6
ByLayer
62
256
370
-1
100
AcDbCircle
10
150
20
-50
40
50
100
AcDbArc
50
0
51
90
0
LINE
5
81
100
AcDbEntity
8
Contour
6
ByLayer
62
256
370
-1
100
AcDbLine
10
150
20
-450
11
-150
21
-450
0
ARC
5
82
100
AcDbEntity
8
Contour
6
ByLayer
62
256
370
-1
100
AcDbCircle
10
150
20
-400
40
50
100
AcDbArc
50
270
51
0
0
ENDBLK
5
4C
330
4A
100
AcDbEntity
8
0
100
AcDbBlockEnd
0
BLOCK
5
4E
330
4D
100
AcDbEntity
8
0
100
AcDbBlockBegin
2
DOUBLE BED
70
0
10
0
20
0
3
DOUBLE BED
1

0
LINE
5
83
100
AcDbEntity
8
Contour
6
ByLayer
62
256
370
-1
100
AcDbLine
10
0
20
0
11
2000
21
0
0
LINE
5
84
100
AcDbEntity
8
Contour
6
ByLayer
62
256
370
-1
100
AcDbLine
10
2000
20
0
11
2000
21
-1360
0
LINE
5
85
100
AcDbEntity
8
Contour
6
ByLayer
62
256
370
-1
100
AcDbLine
10
2000
20
-1360
11
0
21
-1360
0
LINE
5
86
100
AcDbEntity
8
Contour
6
ByLayer
62
256
370
-1
100
AcDbLine
10
0
20
-1360
11
0
21
0
0
LINE
5
87
100
AcDbEntity
8
Contour
6
ByLayer
62
256
370
-1
100
AcDbLine
10
450
20
0
11
450
21
-1360
0
LINE
5
88
100
AcDbEntity
8
Contour
6
ByLayer
62
256
370
-1
100
AcDbLine
10
450
20
0
11
777.57321084
21
-900
0
LINE
5
89
100
AcDbEntity
8
Contour
6
ByLayer
62
256
370
-1
100
AcDbLine
10
714.781162904
20
-988.176752844
11
744.744111674
21
-1100
0
LINE
5
8A
100
AcDbEntity
8
Contour
6
ByLayer
62
256
370
-1
100
AcDbLine
10
777.57321084
20
-900
11
450
21
-1360
0
LINE
5
8B
100
AcDbEntity
8
Contour
6
ByLayer
62
256
370
-1
100
AcDbLine
10
744.744111674
20
-1100
11
450
21
-1360
0
LINE
5
8C
100
AcDbEntity
8
Contour
6
ByLayer
62
256
370
-1
100
AcDbLine
10
100
20
-50
11
350
21
-50
0
LINE
5
8D
100
AcDbEntity
8
Contour
6
ByLayer
62
256
370
-1
100
AcDbLine
10
400
20
-100
11
400
21
-600
0
ARC
5
8E
100
AcDbEntity
8
Contour
6
ByLayer
62
256
370
-1
100
AcDbCircle
10
350
20
-100
40
50
100
AcDbArc
50
0
51
90
0
LINE
5
8F
100
AcDbEntity
8
Contour
6
ByLayer
62
256
370
-1
100
AcDbLine
10
350
20
-650
11
100
21
-650
0
ARC
5
90
100
AcDbEntity
8
Contour
6
ByLayer
62
256
370
-1
100
AcDbCircle
10
350
20
-600
40
50
100
AcDbArc
50
270
51
0
0
LINE
5
91
100
AcDbEntity
8
Contour
6
ByLayer
62
256
370
-1
100
AcDbLine
10
50
20
-600
11
50
21
-100
0
ARC
5
92
100
AcDbEntity
8
Contour
6
ByLayer
62
256
370
-1
100
AcDbCircle
10
100
20
-600
40
50
100
AcDbArc
50
180
51
270
0
ARC
5
93
100
AcDbEntity
8
Contour
6
ByLayer
62
256
370
-1
100
AcDbCircle
10
100
20
-100
40
50
100
AcDbArc
50
90
51
180
0
LINE
5
94
100
AcDbEntity
8
Contour
6
ByLayer
62
256
370
-1
100
AcDbLine
10
100
20
-700
11
350
21
-700
0
LINE
5
95
100
AcDbEntity
8
Contour
6
ByLayer
62
256
370
-1
100
AcDbLine
10
400
20
-750
11
400
21
-1250
0
ARC
5
96
100
AcDbEntity
8
Contour
6
ByLayer
62
256
370
-1
100
AcDbCircle
10
350
20
-750
40
50
100
AcDbArc
50
0
51
90
0
LINE
5
97
100
AcDbEntity
8
Contour
6
ByLayer
62
256
370
-1
100
AcDbLine
10
350
20
-1300
11
100
21
-1300
0
ARC
5
98
100
AcDbEntity
8
Contour
6
ByLayer
62
256
370
-1
100
AcDbCircle
10
350
20
-1250
40
50
100
AcDbArc
50
270
51
0
0
LINE
5
99
100
AcDbEntity
8
Contour
6
ByLayer
62
256
370
-1
100
AcDbLine
10
50
20
-1250
11
50
21
-750
0
ARC
5
9A
100
AcDbEntity
8
Contour
6
ByLayer
62
256
370
-1
100
AcDbCircle
10
100
20
-1250
40
50
100
AcDbArc
50
180
51
270
0
ARC
5
9B
100
AcDbEntity
8
Contour
6
ByLayer
62
256
370
-1
100
AcDbCircle
10
100
20
-750
40
50
100
AcDbArc
50
90
51
180
0
ENDBLK
5
4F
330
4D
100
AcDbEntity
8
0
100
AcDbBlockEnd
0
BLOCK
5
51
330
50
100
AcDbEntity
8
0
100
AcDbBlockBegin
2
WARDROBE
70
0
10
0
20
0
3
WARDROBE
1

0
LINE
5
9C
100
AcDbEntity
8
Contour
6
ByLayer
62
256
370
-1
100
AcDbLine
10
0
20
0
11
1800
21
0
0
LINE
5
9D
100
AcDbEntity
8
Contour
6
ByLayer
62
256
370
-1
100
AcDbLine
10
1800
20
0
11
1800
21
-600
0
LINE
5
9E
100
AcDbEntity
8
Contour
6
ByLayer
62
256
370
-1
100
AcDbLine
10
1800
20
-600
11
0
21
-600
0
LINE
5
9F
100
AcDbEntity
8
Contour
6
ByLayer
62
256
370
-1
100
AcDbLine
10
0
20
-600
11
0
21
0
0
LINE
5
A0
100
AcDbEntity
8
Contour
6
ByLayer
62
256
370
-1
100
AcDbLine
10
20
20
-600
11
20
21
-620
0
LINE
5
A1
100
AcDbEntity
8
Contour
6
ByLayer
62
256
370
-1
100
AcDbLine
10
20
20
-620
11
870
21
-620
0
LINE
5
A2
100
AcDbEntity
8
Contour
6
ByLayer
62
256
370
-1
100
AcDbLine
10
870
20
-620
11
870
21
-600
0
LINE
5
A3
100
AcDbEntity
8
Contour
6
ByLayer
62
256
370
-1
100
AcDbLine
10
1780
20
-600
11
1780
21
-620
0
LINE
5
A4
100
AcDbEntity
8
Contour
6
ByLayer
62
256
370
-1
100
AcDbLine
10
1780
20
-620
11
930
21
-620
0
LINE
5
A5
100
AcDbEntity
8
Contour
6
ByLayer
62
256
370
-1
100
AcDbLine
10
930
20
-620
11
930
21
-600
0
ENDBLK
5
52
330
50
100
AcDbEntity
8
0
100
AcDbBlockEnd
0
BLOCK
5
54
330
53
100
AcDbEntity
8
0
100
AcDbBlockBegin
2
SOFA
70
0
10
0
20
0
3
SOFA
1

0
LINE
5
A6
100
AcDbEntity
8
Contour
6
ByLayer
62
256
370
-1
100
AcDbLine
10
0
20
0
11
2100
21
0
0
LINE
5
A7
100
AcDbEntity
8
Contour
6
ByLayer
62
256
370
-1
100
AcDbLine
10
2100
20
0
11
2100
21
-650
0
LINE
5
A8
100
AcDbEntity
8
Contour
6
ByLayer
62
256
370
-1
100
AcDbLine
10
1950
20
-800
11
1950
21
-800
0
ARC
5
A9
100
AcDbEntity
8
Contour
6
ByLayer
62
256
370
-1
100
AcDbCircle
10
1950
20
-650
40
150
100
AcDbArc
50
180
51
270
0
ARC
5
AA
100
AcDbEntity
8
Contour
6
ByLayer
62
256
370
-1
100
AcDbCircle
10
1950
20
-650
40
150
100
AcDbArc
50
270
51
0
0
LINE
5
AB
100
AcDbEntity
8
Contour
6
ByLayer
62
256
370
-1
100
AcDbLine
10
0
20
-650
11
0
21
0
0
LINE
5
AC
100
AcDbEntity
8
Contour
6
ByLayer
62
256
370
-1
100
AcDbLine
10
150
20
-800
11
150
21
-800
0
ARC
5
AD
100
AcDbEntity
8
Contour
6
ByLayer
62
256
370
-1
100
AcDbCircle
10
150
20
-650
40
150
100
AcDbArc
50
180
51
270
0
LINE
5
AE
100
AcDbEntity
8
Contour
6
ByLayer
62
256
370
-1
100
AcDbLine
10
300
20
-650
11
300
21
-300
0
ARC
5
AF
100
AcDbEntity
8
Contour
6
ByLayer
62
256
370
-1
100
AcDbCircle
10
400
20
-300
40
100
100
AcDbArc
50
90
51
180
0
ARC
5
B0
100
AcDbEntity
8
Contour
6
ByLayer
62
256
370
-1
100
AcDbCircle
10
150
20
-650
40
150
100
AcDbArc
50
270
51
0
0
LINE
5
B1
100
AcDbEntity
8
Contour
6
ByLayer
62
256
370
-1
100
AcDbLine
10
400
20
-200
11
1700
21
-200
0
LINE
5
B2
100
AcDbEntity
8
Contour
6
ByLayer
62
256
370
-1
100
AcDbLine
10
1800
20
-300
11
1800
21
-650
0
ARC
5
B3
100
AcDbEntity
8
Contour
6
ByLayer
62
256
370
-1
100
AcDbCircle
10
1700
20
-300
40
100
100
AcDbArc
50
0
51
90
0
LINE
5
B4
100
AcDbEntity
8
Contour
6
ByLayer
62
256
370
-1
100
AcDbLine
10
150
20
-800
11
1950
21
-800
0
LINE
5
B5
100
AcDbEntity
8
Contour
6
ByLayer
62
256
370
-1
100
AcDbLine
10
800
20
-800
11
800
21
-200
0
LINE
5
B6
100
AcDbEntity
8
Contour
6
ByLayer
62
256
370
-1
100
AcDbLine
10
1300
20
-800
11
1300
21
-200
0
ENDBLK
5
55
330
53
100
AcDbEntity
8
0
100
AcDbBlockEnd
0
BLOCK
5
57
330
56
100
AcDbEntity
8
0
100
AcDbBlockBegin
2
LOUNGER
70
0
10
0
20
0
3
LOUNGER
1

0
LINE
5
B7
100
AcDbEntity
8
Contour
6
ByLayer
62
256
370
-1
100
AcDbLine
10
1100
20
0
11
0
21
0
0
LINE
5
B8
100
AcDbEntity
8
Contour
6
ByLayer
62
256
370
-1
100
AcDbLine
10
0
20
0
11
0
21
-650
0
LINE
5
B9
100
AcDbEntity
8
Contour
6
ByLayer
62
256
370
-1
100
AcDbLine
10
150
20
-800
11
150
21
-800
0
ARC
5
BA
100
AcDbEntity
8
Contour
6
ByLayer
62
256
370
-1
100
AcDbCircle
10
150
20
-650
40
150
100
AcDbArc
50
270
51
0
0
ARC
5
BB
100
AcDbEntity
8
Contour
6
ByLayer
62
256
370
-1
100
AcDbCircle
10
950
20
-650
40
150
100
AcDbArc
50
270
51
0
0
ARC
5
BC
100
AcDbEntity
8
Contour
6
ByLayer
62
256
370
-1
100
AcDbCircle
10
150
20
-650
40
150
100
AcDbArc
50
180
51
270
0
LINE
5
BD
100
AcDbEntity
8
Contour
6
ByLayer
62
256
370
-1
100
AcDbLine
10
1100
20
-650
11
1100
21
0
0
LINE
5
BE
100
AcDbEntity
8
Contour
6
ByLayer
62
256
370
-1
100
AcDbLine
10
300
20
-300
11
300
21
-650
0
ARC
5
BF
100
AcDbEntity
8
Contour
6
ByLayer
62
256
370
-1
100
AcDbCircle
10
400
20
-300
40
100
100
AcDbArc
50
90
51
180
0
LINE
5
C0
100
AcDbEntity
8
Contour
6
ByLayer
62
256
370
-1
100
AcDbLine
10
800
20
-300
11
800
21
-650
0
ARC
5
C1
100
AcDbEntity
8
Contour
6
ByLayer
62
256
370
-1
100
AcDbCircle
10
700
20
-300
40
100
100
AcDbArc
50
0
51
90
0
LINE
5
C2
100
AcDbEntity
8
Contour
6
ByLayer
62
256
370
-1
100
AcDbLine
10
700
20
-200
11
400
21
-200
0
LINE
5
C3
100
AcDbEntity
8
Contour
6
ByLayer
62
256
370
-1
100
AcDbLine
10
950
20
-800
11
950
21
-800
0
ARC
5
C4
100
AcDbEntity
8
Contour
6
ByLayer
62
256
370
-1
100
AcDbCircle
10
950
20
-650
40
150
100
AcDbArc
50
180
51
270
0
LINE
5
C5
100
AcDbEntity
8
Contour
6
ByLayer
62
256
370
-1
100
AcDbLine
10
150
20
-800
11
950
21
-800
0
ENDBLK
5
58
330
56
100
AcDbEntity
8
0
100
AcDbBlockEnd
0
BLOCK
5
5A
330
59
100
AcDbEntity
8
0
100
AcDbBlockBegin
2
TV
70
0
10
0
20
0
3
TV
1

0
LINE
5
C6
100
AcDbEntity
8
Contour
6
ByLayer
62
256
370
-1
100
AcDbLine
10
0
20
-100
11
0
21
0
0
LINE
5
C7
100
AcDbEntity
8
Contour
6
ByLayer
62
256
370
-1
100
AcDbLine
10
0
20
0
11
1000
21
0
0
LINE
5
C8
100
AcDbEntity
8
Contour
6
ByLayer
62
256
370
-1
100
AcDbLine
10
1000
20
0
11
1000
21
-100
0
LINE
5
C9
100
AcDbEntity
8
Contour
6
ByLayer
62
256
370
-1
100
AcDbLine
10
1000
20
-100
11
0
21
-100
0
LINE
5
CA
100
AcDbEntity
8
Contour
6
ByLayer
62
256
370
-1
100
AcDbLine
10
100
20
0
11
200
21
200
0
LINE
5
CB
100
AcDbEntity
8
Contour
6
ByLayer
62
256
370
-1
100
AcDbLine
10
900
20
0
11
800
21
200
0
LINE
5
CC
100
AcDbEntity
8
Contour
6
ByLayer
62
256
370
-1
100
AcDbLine
10
200
20
200
11
800
21
200
0
ENDBLK
5
5B
330
59
100
AcDbEntity
8
0
100
AcDbBlockEnd
0
BLOCK
5
5D
330
5C
100
AcDbEntity
8
0
100
AcDbBlockBegin
2
COFFEE TABLE
70
0
10
0
20
0
3
COFFEE TABLE
1

0
ELLIPSE
5
CD
100
AcDbEntity
8
Contour
6
ByLayer
62
256
370
-1
100
AcDbEllipse
10
0
20
0
30
0
11
-400
21
0
31
0
40
0.75
41
0
42
6.28318530718
0
ENDBLK
5
5E
330
5C
100
AcDbEntity
8
0
100
AcDbBlockEnd
0
BLOCK
5
60
330
5F
100
AcDbEntity
8
0
100
AcDbBlockBegin
2
TABLE
70
0
10
0
20
0
3
TABLE
1

0
LINE
5
CE
100
AcDbEntity
8
Contour
6
ByLayer
62
256
370
-1
100
AcDbLine
10
-550
20
0
11
550
21
0
0
LINE
5
CF
100
AcDbEntity
8
Contour
6
ByLayer
62
256
370
-1
100
AcDbLine
10
750
20
-200
11
750
21
-700
0
ARC
5
D0
100
AcDbEntity
8
Contour
6
ByLayer
62
256
370
-1
100
AcDbCircle
10
550
20
-200
40
200
100
AcDbArc
50
0
51
90
0
LINE
5
D1
100
AcDbEntity
8
Contour
6
ByLayer
62
256
370
-1
100
AcDbLine
10
550
20
-900
11
-550
21
-900
0
ARC
5
D2
100
AcDbEntity
8
Contour
6
ByLayer
62
256
370
-1
100
AcDbCircle
10
550
20
-700
40
200
100
AcDbArc
50
270
51
0
0
ARC
5
D3
100
AcDbEntity
8
Contour
6
ByLayer
62
256
370
-1
100
AcDbCircle
10
-550
20
-700
40
200
100
AcDbArc
50
180
51
270
0
LINE
5
D4
100
AcDbEntity
8
Contour
6
ByLayer
62
256
370
-1
100
AcDbLine
10
-750
20
-700
11
-750
21
-200
0
ARC
5
D5
100
AcDbEntity
8
Contour
6
ByLayer
62
256
370
-1
100
AcDbCircle
10
-550
20
-200
40
200
100
AcDbArc
50
90
51
180
0
ENDBLK
5
61
330
5F
100
AcDbEntity
8
0
100
AcDbBlockEnd
0
BLOCK
5
63
330
62
100
AcDbEntity
8
0
100
AcDbBlockBegin
2
CHAIR
70
0
10
0
20
0
3
CHAIR
1

0
LINE
5
D6
100
AcDbEntity
8
Contour
6
ByLayer
62
256
370
-1
100
AcDbLine
10
-300
20
-450
11
300
21
-450
0
LINE
5
D7
100
AcDbEntity
8
Contour
6
ByLayer
62
256
370
-1
100
AcDbLine
10
300
20
-450
11
300
21
-250
0
ARC
5
D8
100
AcDbEntity
8
Contour
6
ByLayer
62
256
370
-1
100
AcDbCircle
10
50
20
-250
40
250
100
AcDbArc
50
0
51
90
0
LINE
5
D9
100
AcDbEntity
8
Contour
6
ByLayer
62
256
370
-1
100
AcDbLine
10
250
20
-450
11
250
21
-250
0
ARC
5
DA
100
AcDbEntity
8
Contour
6
ByLayer
62
256
370
-1
100
AcDbCircle
10
50
20
-250
40
200
100
AcDbArc
50
0
51
90
0
LINE
5
DB
100
AcDbEntity
8
Contour
6
ByLayer
62
256
370
-1
100
AcDbLine
10
50
20
0
11
-50
21
0
0
LINE
5
DC
100
AcDbEntity
8
Contour
6
ByLayer
62
256
370
-1
100
AcDbLine
10
50
20
-50
11
-50
21
-50
0
ARC
5
DD
100
AcDbEntity
8
Contour
6
ByLayer
62
256
370
-1
100
AcDbCircle
10
-50
20
-250
40
200
100
AcDbArc
50
90
51
180
0
LINE
5
DE
100
AcDbEntity
8
Contour
6
ByLayer
62
256
370
-1
100
AcDbLine
10
-300
20
-250
11
-300
21
-450
0
ARC
5
DF
100
AcDbEntity
8
Contour
6
ByLayer
62
256
370
-1
100
AcDbCircle
10
-50
20
-250
40
250
100
AcDbArc
50
90
51
180
0
LINE
5
E0
100
AcDbEntity
8
Contour
6
ByLayer
62
256
370
-1
100
AcDbLine
10
-250
20
-250
11
-250
21
-450
0
ENDBLK
5
64
330
62
100
AcDbEntity
8
0
100
AcDbBlockEnd
0
BLOCK
5
66
330
65
100
AcDbEntity
8
0
100
AcDbBlockBegin
2
TOILET
70
0
10
0
20
0
3
TOILET
1

0
LINE
5
E1
100
AcDbEntity
8
Contour
6
ByLayer
62
256
370
-1
100
AcDbLine
10
-250
20
0
11
250
21
0
0
LINE
5
E2
100
AcDbEntity
8
Contour
6
ByLayer
62
256
370
-1
100
AcDbLine
10
-225
20
-220
11
225
21
-220
0
ARC
5
E3
100
AcDbEntity
8
Contour
6
ByLayer
62
256
370
-1
100
AcDbCircle
10
225
20
-195
40
25
100
AcDbArc
50
270
51
0
0
ARC
5
E4
100
AcDbEntity
8
Contour
6
ByLayer
62
256
370
-1
100
AcDbCircle
10
-225
20
-195
40
25
100
AcDbArc
50
180
51
270
0
ELLIPSE
5
E5
100
AcDbEntity
8
Contour
6
ByLayer
62
256
370
-1
100
AcDbEllipse
10
0
20
-470
30
0
11
0
21
-175
31
0
40
0.657142857143
41
0
42
6.28318530718
0
ELLIPSE
5
E6
100
AcDbEntity
8
Contour
6
ByLayer
62
256
370
-1
100
AcDbEllipse
10
0
20
-470
30
0
11
0
21
250
31
0
40
0.76
41
0.844874995849
42
5.43830996567
0
LINE
5
E7
100
AcDbEntity
8
Contour
6
ByLayer
62
256
370
-1
100
AcDbLine
10
-250
20
0
11
-250
21
-195
0
LINE
5
E8
100
AcDbEntity
8
Contour
6
ByLayer
62
256
370
-1
100
AcDbLine
10
250
20
0
11
250
21
-195
0
LINE
5
E9
100
AcDbEntity
8
Contour
6
ByLayer
62
256
370
-1
100
AcDbLine
10
125
20
-220
11
125
21
-248.120804313
0
LINE
5
EA
100
AcDbEntity
8
Contour
6
ByLayer
62
256
370
-1
100
AcDbLine
10
-125
20
-220
11
-125
21
-248.120804313
0
ARC
5
EB
100
AcDbEntity
8
Contour
6
ByLayer
62
256
370
-1
100
AcDbCircle
10
225
20
-248.120804313
40
100
100
AcDbArc
50
180
51
214.00260952
0
ARC
5
EC
100
AcDbEntity
8
Contour
6
ByLayer
62
256
370
-1
100
AcDbCircle
10
-225
20
-248.120804313
40
100
100
AcDbArc
50
325.99739048
51
0
0
ENDBLK
5
67
330
65
100
AcDbEntity
8
0
100
AcDbBlockEnd
0
BLOCK
5
69
330
68
100
AcDbEntity
8
0
100
AcDbBlockBegin
2
BATH
70
0
10
0
20
0
3
BATH
1

0
LINE
5
ED
100
AcDbEntity
8
Contour
6
ByLayer
62
256
370
-1
100
AcDbLine
10
1700
20
0
11
0
21
0
0
LINE
5
EE
100
AcDbEntity
8
Contour
6
ByLayer
62
256
370
-1
100
AcDbLine
10
1320
20
-100
11
225
21
-100
0
ARC
5
EF
100
AcDbEntity
8
Contour
6
ByLayer
62
256
370
-1
100
AcDbCircle
10
225
20
-200
40
100
100
AcDbArc
50
90
51
180
0
LINE
5
F0
100
AcDbEntity
8
Contour
6
ByLayer
62
256
370
-1
100
AcDbLine
10
0
20
0
11
0
21
-760
0
LINE
5
F1
100
AcDbEntity
8
Contour
6
ByLayer
62
256
370
-1
100
AcDbLine
10
0
20
-760
11
1700
21
-760
0
LINE
5
F2
100
AcDbEntity
8
Contour
6
ByLayer
62
256
370
-1
100
AcDbLine
10
225
20
-660
11
1320
21
-660
0
ARC
5
F3
100
AcDbEntity
8
Contour
6
ByLayer
62
256
370
-1
100
AcDbCircle
10
1320
20
-380
40
280
100
AcDbArc
50
270
51
0
0
ARC
5
F4
100
AcDbEntity
8
Contour
6
ByLayer
62
256
370
-1
100
AcDbCircle
10
225
20
-560
40
100
100
AcDbArc
50
180
51
270
0
LINE
5
F5
100
AcDbEntity
8
Contour
6
ByLayer
62
256
370
-1
100
AcDbLine
10
1700
20
-760
11
1700
21
0
0
LINE
5
F6
100
AcDbEntity
8
Contour
6
ByLayer
62
256
370
-1
100
AcDbLine
10
125
20
-200
11
125
21
-560
0
LINE
5
F7
100
AcDbEntity
8
Contour
6
ByLayer
62
256
370
-1
100
AcDbLine
10
1600
20
-380
11
1600
21
-380
0
ARC
5
F8
100
AcDbEntity
8
Contour
6
ByLayer
62
256
370
-1
100
AcDbCircle
10
1320
20
-380
40
280
100
AcDbArc
50
0
51
90
0
CIRCLE
5
F9
100
AcDbEntity
8
Contour
6
ByLayer
62
256
370
-1
100
AcDbCircle
10
175
20
-380
40
25
0
ENDBLK
5
6A
330
68
100
AcDbEntity
8
0
100
AcDbBlockEnd
0
BLOCK
5
6C
330
6B
100
AcDbEntity
8
0
100
AcDbBlockBegin
2
SINK
70
0
10
0
20
0
3
SINK
1

0
LINE
5
FA
100
AcDbEntity
8
Contour
6
ByLayer
62
256
370
-1
100
AcDbLine
10
0
20
0
11
640
21
0
0
LINE
5
FB
100
AcDbEntity
8
Contour
6
ByLayer
62
256
370
-1
100
AcDbLine
10
640
20
0
11
640
21
-460
0
LINE
5
FC
100
AcDbEntity
8
Contour
6
ByLayer
62
256
370
-1
100
AcDbLine
10
610
20
-490
11
30
21
-490
0
ARC
5
FD
100
AcDbEntity
8
Contour
6
ByLayer
62
256
370
-1
100
AcDbCircle
10
30
20
-460
40
30
100
AcDbArc
50
180
51
270
0
ARC
5
FE
100
AcDbEntity
8
Contour
6
ByLayer
62
256
370
-1
100
AcDbCircle
10
610
20
-460
40
30
100
AcDbArc
50
270
51
0
0
LINE
5
FF
100
AcDbEntity
8
Contour
6
ByLayer
62
256
370
-1
100
AcDbLine
10
0
20
-460
11
0
21
0
0
LINE
5
100
100
AcDbEntity
8
Contour
6
ByLayer
62
256
370
-1
100
AcDbLine
10
30
20
-30
11
610
21
-30
0
LINE
5
101
100
AcDbEntity
8
Contour
6
ByLayer
62
256
370
-1
100
AcDbLine
10
135
20
-120
11
505
21
-120
0
ARC
5
102
100
AcDbEntity
8
Contour
6
ByLayer
62
256
370
-1
100
AcDbCircle
10
505
20
-170
40
50
100
AcDbArc
50
0
51
90
0
LINE
5
103
100
AcDbEntity
8
Contour
6
ByLayer
62
256
370
-1
100
AcDbLine
10
0
20
-200
11
0
21
-200
0
ARC
5
104
100
AcDbEntity
8
Contour
6
ByLayer
62
256
370
-1
100
AcDbCircle
10
0
20
-170
40
30
100
AcDbArc
50
270
51
0
0
LINE
5
105
100
AcDbEntity
8
Contour
6
ByLayer
62
256
370
-1
100
AcDbLine
10
610
20
-30
11
610
21
-170
0
LINE
5
106
100
AcDbEntity
8
Contour
6
ByLayer
62
256
370
-1
100
AcDbLine
10
30
20
-170
11
30
21
-30
0
CIRCLE
5
107
100
AcDbEntity
8
Contour
6
ByLayer
62
256
370
-1
100
AcDbCircle
10
320
20
-170
40
25
0
ARC
5
108
100
AcDbEntity
8
Contour
6
ByLayer
62
256
370
-1
100
AcDbCircle
10
640
20
-170
40
30
100
AcDbArc
50
180
51
270
0
LINE
5
109
100
AcDbEntity
8
Contour
6
ByLayer
62
256
370
-1
100
AcDbLine
10
185
20
-420
11
455
21
-420
0
ARC
5
10A
100
AcDbEntity
8
Contour
6
ByLayer
62
256
370
-1
100
AcDbCircle
10
455
20
-320
40
100
100
AcDbArc
50
270
51
0
0
ARC
5
10B
100
AcDbEntity
8
Contour
6
ByLayer
62
256
370
-1
100
AcDbCircle
10
185
20
-320
40
100
100
AcDbArc
50
180
51
270
0
LINE
5
10C
100
AcDbEntity
8
Contour
6
ByLayer
62
256
370
-1
100
AcDbLine
10
555
20
-170
11
555
21
-320
0
LINE
5
10D
100
AcDbEntity
8
Contour
6
ByLayer
62
256
370
-1
100
AcDbLine
10
85
20
-320
11
85
21
-170
0
ARC
5
10E
100
AcDbEntity
8
Contour
6
ByLayer
62
256
370
-1
100
AcDbCircle
10
135
20
-170
40
50
100
AcDbArc
50
90
51
180
0
ENDBLK
5
6D
330
6B
100
AcDbEntity
8
0
100
AcDbBlockEnd
0
BLOCK
5
6F
330
6E
100
AcDbEntity
8
0
100
AcDbBlockBegin
2
KITCHEN SINK
70
0
10
0
20
0
3
KITCHEN SINK
1

0
LINE
5
10F
100
AcDbEntity
8
Contour
6
ByLayer
62
256
370
-1
100
AcDbLine
10
1000
20
0
11
0
21
0
0
LINE
5
110
100
AcDbEntity
8
Contour
6
ByLayer
62
256
370
-1
100
AcDbLine
10
0
20
0
11
0
21
-500
0
LINE
5
111
100
AcDbEntity
8
Contour
6
ByLayer
62
256
370
-1
100
AcDbLine
10
0
20
-500
11
1000
21
-500
0
LINE
5
112
100
AcDbEntity
8
Contour
6
ByLayer
62
256
370
-1
100
AcDbLine
10
1000
20
-500
11
1000
21
0
0
LINE
5
113
100
AcDbEntity
8
Contour
6
ByLayer
62
256
370
-1
100
AcDbLine
10
400
20
-50
11
150
21
-50
0
LINE
5
114
100
AcDbEntity
8
Contour
6
ByLayer
62
256
370
-1
100
AcDbLine
10
150
20
-450
11
400
21
-450
0
ARC
5
115
100
AcDbEntity
8
Contour
6
ByLayer
62
256
370
-1
100
AcDbCircle
10
150
20
-350
40
100
100
AcDbArc
50
180
51
270
0
LINE
5
116
100
AcDbEntity
8
Contour
6
ByLayer
62
256
370
-1
100
AcDbLine
10
950
20
-250
11
550
21
-250
0
LINE
5
117
100
AcDbEntity
8
Contour
6
ByLayer
62
256
370
-1
100
AcDbLine
10
50
20
-150
11
50
21
-350
0
ARC
5
118
100
AcDbEntity
8
Contour
6
ByLayer
62
256
370
-1
100
AcDbCircle
10
150
20
-150
40
100
100
AcDbArc
50
90
51
180
0
LINE
5
119
100
AcDbEntity
8
Contour
6
ByLayer
62
256
370
-1
100
AcDbLine
10
500
20
-150
11
500
21
-350
0
ARC
5
11A
100
AcDbEntity
8
Contour
6
ByLayer
62
256
370
-1
100
AcDbCircle
10
400
20
-150
40
100
100
AcDbArc
50
0
51
90
0
ARC
5
11B
100
AcDbEntity
8
Contour
6
ByLayer
62
256
370
-1
100
AcDbCircle
10
400
20
-350
40
100
100
AcDbArc
50
270
51
0
0
LINE
5
11C
100
AcDbEntity
8
Contour
6
ByLayer
62
256
370
-1
100
AcDbLine
10
950
20
-210
11
550
21
-210
0
LINE
5
11D
100
AcDbEntity
8
Contour
6
ByLayer
62
256
370
-1
100
AcDbLine
10
950
20
-170
11
550
21
-170
0
LINE
5
11E
100
AcDbEntity
8
Contour
6
ByLayer
62
256
370
-1
100
AcDbLine
10
950
20
-130
11
550
21
-130
0
LINE
5
11F
100
AcDbEntity
8
Contour
6
ByLayer
62
256
370
-1
100
AcDbLine
10
950
20
-90
11
550
21
-90
0
LINE
5
120
100
AcDbEntity
8
Contour
6
ByLayer
62
256
370
-1
100
AcDbLine
10
950
20
-290
11
550
21
-290
0
LINE
5
121
100
AcDbEntity
8
Contour
6
ByLayer
62
256
370
-1
100
AcDbLine
10
950
20
-330
11
550
21
-330
0
LINE
5
122
100
AcDbEntity
8
Contour
6
ByLayer
62
256
370
-1
100
AcDbLine
10
950
20
-370
11
550
21
-370
0
LINE
5
123
100
AcDbEntity
8
Contour
6
ByLayer
62
256
370
-1
100
AcDbLine
10
950
20
-410
11
550
21
-410
0
CIRCLE
5
124
100
AcDbEntity
8
Contour
6
ByLayer
62
256
370
-1
100
AcDbCircle
10
275
20
-100
40
25
0
ENDBLK
5
70
330
6E
100
AcDbEntity
8
0
100
AcDbBlockEnd
0
BLOCK
5
72
330
71
100
AcDbEntity
8
0
100
AcDbBlockBegin
2
BREAKFAST BAR
70
0
10
0
20
0
3
BREAKFAST BAR
1

0
LINE
5
125
100
AcDbEntity
8
Contour
6
ByLayer
62
256
370
-1
100
AcDbLine
10
0
20
-450
11
0
21
-450
0
ARC
5
126
100
AcDbEntity
8
Contour
6
ByLayer
62
256
370
-1
100
AcDbCircle
10
250
20
-450
40
250
100
AcDbArc
50
180
51
270
0
ARC
5
127
100
AcDbEntity
8
Contour
6
ByLayer
62
256
370
-1
100
AcDbCircle
10
250
20
-450
40
250
100
AcDbArc
50
90
51
180
0
CIRCLE
5
128
100
AcDbEntity
8
Contour
6
ByLayer
62
256
370
-1
100
AcDbCircle
10
0
20
0
40
175
0
CIRCLE
5
129
100
AcDbEntity
8
Contour
6
ByLayer
62
256
370
-1
100
AcDbCircle
10
0
20
-900
40
175
0
LINE
5
12A
100
AcDbEntity
8
Contour
6
ByLayer
62
256
370
-1
100
AcDbLine
10
700
20
-200
11
700
21
-700
0
LINE
5
12B
100
AcDbEntity
8
Contour
6
ByLayer
62
256
370
-1
100
AcDbLine
10
250
20
-200
11
700
21
-200
0
LINE
5
12C
100
AcDbEntity
8
Contour
6
ByLayer
62
256
370
-1
100
AcDbLine
10
250
20
-700
11
700
21
-700
0
ENDBLK
5
73
330
71
100
AcDbEntity
8
0
100
AcDbBlockEnd
0
ENDSEC
0
SECTION
2
ENTITIES
0
INSERT
5
12D
100
AcDbEntity
8
0
6
ByLayer
62
256
370
-1
100
AcDbBlockReference
2
DRESSER
10
-1300
20
12260
30
0
41
1
42
1
43
0
50
0
70
1
71
1
44
0
45
0
0
INSERT
5
12E
100
AcDbEntity
8
0
6
ByLayer
62
256
370
-1
100
AcDbBlockReference
2
BEDSIDE TABLE
10
1400
20
12210
30
0
41
1
42
1
43
0
50
0
70
1
71
1
44
0
45
0
0
INSERT
5
12F
100
AcDbEntity
8
0
6
ByLayer
62
256
370
-1
100
AcDbBlockReference
2
DOUBLE BED
10
-800
20
10760
30
0
41
1
42
1
43
0
50
0
70
1
71
1
44
0
45
0
0
INSERT
5
130
100
AcDbEntity
8
0
6
ByLayer
62
256
370
-1
100
AcDbBlockReference
2
WARDROBE
10
-800
20
8260
30
0
41
1
42
1
43
0
50
0
70
1
71
1
44
0
45
0
0
INSERT
5
131
100
AcDbEntity
8
0
6
ByLayer
62
256
370
-1
100
AcDbBlockReference
2
SOFA
10
-1800
20
6260
30
0
41
1
42
1
43
0
50
0
70
1
71
1
44
0
45
0
0
INSERT
5
132
100
AcDbEntity
8
0
6
ByLayer
62
256
370
-1
100
AcDbBlockReference
2
LOUNGER
10
1100
20
6260
30
0
41
1
42
1
43
0
50
0
70
1
71
1
44
0
45
0
0
INSERT
5
133
100
AcDbEntity
8
0
6
ByLayer
62
256
370
-1
100
AcDbBlockReference
2
TV
10
-1300
20
3860
30
0
41
1
42
1
43
0
50
0
70
1
71
1
44
0
45
0
0
INSERT
5
134
100
AcDbEntity
8
0
6
ByLayer
62
256
370
-1
100
AcDbBlockReference
2
COFFEE TABLE
10
1200
20
3960
30
0
41
1
42
1
43
0
50
0
70
1
71
1
44
0
45
0
0
INSERT
5
135
100
AcDbEntity
8
0
6
ByLayer
62
256
370
-1
100
AcDbBlockReference
2
TABLE
10
-550
20
2760
30
0
41
1
42
1
43
0
50
0
70
1
71
1
44
0
45
0
0
INSERT
5
136
100
AcDbEntity
8
0
6
ByLayer
62
256
370
-1
100
AcDbBlockReference
2
CHAIR
10
1500
20
2210
30
0
41
1
42
1
43
0
50
0
70
1
71
1
44
0
45
0
0
INSERT
5
137
100
AcDbEntity
8
0
6
ByLayer
62
256
370
-1
100
AcDbBlockReference
2
TOILET
10
-1050
20
760
30
0
41
1
42
1
43
0
50
0
70
1
71
1
44
0
45
0
0
INSERT
5
138
100
AcDbEntity
8
0
6
ByLayer
62
256
370
-1
100
AcDbBlockReference
2
BATH
10
0
20
760
30
0
41
1
42
1
43
0
50
0
70
1
71
1
44
0
45
0
0
INSERT
5
139
100
AcDbEntity
8
0
6
ByLayer
62
256
370
-1
100
AcDbBlockReference
2
SINK
10
-1300
20
-1240
30
0
41
1
42
1
43
0
50
0
70
1
71
1
44
0
45
0
0
INSERT
5
13A
100
AcDbEntity
8
0
6
ByLayer
62
256
370
-1
100
AcDbBlockReference
2
KITCHEN SINK
10
700
20
-1240
30
0
41
1
42
1
43
0
50
0
70
1
71
1
44
0
45
0
0
INSERT
5
13B
100
AcDbEntity
8
0
6
ByLayer
62
256
370
-1
100
AcDbBlockReference
2
BREAKFAST BAR
10
-800
20
-3240
30
0
41
1
42
1
43
0
50
0
70
1
71
1
44
0
45
0
0
ENDSEC
0
SECTION
2
OBJECTS
0
DICTIONARY
5
C
330
0
100
AcDbDictionary
281
1
3
ACAD_GROUP
350
D
0
DICTIONARY
5
D
330
C
100
AcDbDictionary
281
1
0
ENDSEC
0
EOF
