  0
SECTION
  2
HEADER
  9
$LIMMIN
 10
0.000000
 20
0.000000
  9
$LIMMAX
 10
100.155640
 20
100.622570
  9
$EXTMIN
 10
0.000000
 20
0.000000
  9
$EXTMAX
 10
100.155640
 20
100.622570
  9
$ANGBASE
 50
0.000000
  9
$ANGDIR
 70
0
  9
$INSUNITS
 70
0
  9
$DIMALT
 70
4
  9
$DIMLUNIT
 70
2
  9
$DIMASZ
 40
3.000000
  9
$DIMTXT
 40
5.000000
  9
$DIMRND
 40
0.010000
  9
$DIMEXE
 40
2.000000
  9
$DIMEXO
 40
2.000000
  9
$DIMAUNIT
 70
0
  9
$DIMADEC
 70
2
  9
$GRIDUNIT
 10
0.001000
 20
0.001000
  9
$PLIMMIN
 10
0.000000
 20
0.000000
  9
$PLIMMAX
 10
210.000000
 20
297.000000
  9
$PSVPSCALE
 40
1.000000
  0
ENDSEC
  0
SECTION
  2
TABLES
  0
TABLE
  2
LTYPE
 70
     1
  0
LTYPE
  2
CONTINUOUS
 70
    64
  3
Ausgez
 72
    65
 73
  0
 40
0.000000
  0
ENDTAB
  0
TABLE
  2
LAYER
 70
     1
  0
LAYER
  2
default
 70
    64
 62
7
  6
CONTINUOUS
  0
ENDTAB
  0
ENDSEC
  0
SECTION
  2
BLOCKS
  0
ENDSEC
  0
SECTION
  2
ENTITIES
  0
LINE
  8
default
  6
CONTINUOUS
 10
0.155644
 20
0.000000
 11
0.037539
 21
3.729557
 39
0
 62
7
  0
LINE
  8
default
  6
CONTINUOUS
 10
0.604284
 20
7.398393
 11
1.834285
 21
10.901057
 39
0
 62
7
  0
LINE
  8
default
  6
CONTINUOUS
 10
3.685816
 20
14.118725
 11
6.096070
 21
16.942241
 39
0
 62
7
  0
LINE
  8
default
  6
CONTINUOUS
 10
8.983276
 20
19.275819
 11
6.096070
 21
16.942241
 39
0
 62
7
  0
LINE
  8
default
  6
CONTINUOUS
 10
3.685816
 20
14.118725
 11
1.834285
 21
10.901057
 39
0
 62
7
  0
LINE
  8
default
  6
CONTINUOUS
 10
0.604284
 20
7.398393
 11
0.037539
 21
3.729557
 39
0
 62
7
  0
LINE
  8
default
  6
CONTINUOUS
 10
8.983276
 20
19.275819
 11
12.249492
 21
21.040298
 39
0
 62
7
  0
LINE
  8
default
  6
CONTINUOUS
 10
12.249492
 20
21.040298
 11
15.783916
 21
22.175820
 39
0
 62
7
  0
LINE
  8
default
  6
CONTINUOUS
 10
15.783916
 20
22.175820
 11
19.466645
 21
22.643862
 39
0
 62
7
  0
LINE
  8
default
  6
CONTINUOUS
 10
19.466645
 20
22.643862
 11
23.172749
 21
22.428546
 39
0
 62
7
  0
LINE
  8
default
  6
CONTINUOUS
 10
23.172749
 20
22.428546
 11
26.776499
 21
21.537178
 39
0
 62
7
  0
LINE
  8
default
  6
CONTINUOUS
 10
26.776499
 20
21.537178
 11
30.155646
 21
19.999998
 39
0
 62
7
  0
LINE
  8
default
  6
CONTINUOUS
 10
20.155639
 20
10.000002
 11
23.867668
 21
9.880831
 39
0
 62
7
  0
LINE
  8
default
  6
CONTINUOUS
 10
23.867668
 20
9.880831
 11
27.538547
 21
10.444765
 39
0
 62
7
  0
LINE
  8
default
  6
CONTINUOUS
 10
27.538547
 20
10.444765
 11
31.043634
 21
11.672656
 39
0
 62
7
  0
LINE
  8
default
  6
CONTINUOUS
 10
31.043634
 20
11.672656
 11
34.263926
 21
13.522813
 39
0
 62
7
  0
LINE
  8
default
  6
CONTINUOUS
 10
34.263926
 20
13.522813
 11
37.090083
 21
15.932417
 39
0
 62
7
  0
LINE
  8
default
  6
CONTINUOUS
 10
37.090083
 20
15.932417
 11
39.426152
 21
18.819656
 39
0
 62
7
  0
LINE
  8
default
  6
CONTINUOUS
 10
39.426152
 20
18.819656
 11
41.192808
 21
22.086502
 39
0
 62
7
  0
LINE
  8
default
  6
CONTINUOUS
 10
41.192808
 20
22.086502
 11
42.330077
 21
25.622033
 39
0
 62
7
  0
LINE
  8
default
  6
CONTINUOUS
 10
42.330077
 20
25.622033
 11
42.799344
 21
29.306211
 39
0
 62
7
  0
LINE
  8
default
  6
CONTINUOUS
 10
42.799344
 20
29.306211
 11
42.584671
 21
33.013942
 39
0
 62
7
  0
LINE
  8
default
  6
CONTINUOUS
 10
42.584671
 20
33.013942
 11
41.693351
 21
36.619343
 39
0
 62
7
  0
LINE
  8
default
  6
CONTINUOUS
 10
41.693351
 20
36.619343
 11
40.155646
 21
39.999997
 39
0
 62
7
  0
LINE
  8
default
  6
CONTINUOUS
 10
10.155654
 20
89.999999
 11
16.354442
 21
93.194794
 39
0
 62
7
  0
LINE
  8
default
  6
CONTINUOUS
 10
16.354442
 20
93.194794
 11
22.806123
 21
95.841960
 39
0
 62
7
  0
LINE
  8
default
  6
CONTINUOUS
 10
22.806123
 20
95.841960
 11
29.462424
 21
97.921691
 39
0
 62
7
  0
LINE
  8
default
  6
CONTINUOUS
 10
29.462424
 20
97.921691
 11
36.273552
 21
99.418429
 39
0
 62
7
  0
LINE
  8
default
  6
CONTINUOUS
 10
36.273552
 20
99.418429
 11
43.188541
 21
100.320970
 39
0
 62
7
  0
LINE
  8
default
  6
CONTINUOUS
 10
43.188541
 20
100.320970
 11
50.155655
 21
100.622570
 39
0
 62
7
  0
LINE
  8
default
  6
CONTINUOUS
 10
50.155655
 20
100.622570
 11
57.122769
 21
100.320970
 39
0
 62
7
  0
LINE
  8
default
  6
CONTINUOUS
 10
57.122769
 20
100.320970
 11
64.037758
 21
99.418429
 39
0
 62
7
  0
LINE
  8
default
  6
CONTINUOUS
 10
64.037758
 20
99.418429
 11
70.848882
 21
97.921691
 39
0
 62
7
  0
LINE
  8
default
  6
CONTINUOUS
 10
70.848882
 20
97.921691
 11
77.505187
 21
95.841952
 39
0
 62
7
  0
LINE
  8
default
  6
CONTINUOUS
 10
77.505187
 20
95.841952
 11
83.956859
 21
93.194785
 39
0
 62
7
  0
LINE
  8
default
  6
CONTINUOUS
 10
83.956859
 20
93.194785
 11
90.155648
 21
89.999990
 39
0
 62
7
  0
LINE
  8
default
  6
CONTINUOUS
 10
10.155645
 20
50.000006
 11
8.520709
 21
54.349385
 39
0
 62
7
  0
LINE
  8
default
  6
CONTINUOUS
 10
8.520709
 20
54.349385
 11
7.819974
 21
58.942762
 39
0
 62
7
  0
LINE
  8
default
  6
CONTINUOUS
 10
7.819974
 20
58.942762
 11
8.083699
 21
63.581786
 39
0
 62
7
  0
LINE
  8
default
  6
CONTINUOUS
 10
8.083699
 20
63.581786
 11
9.300497
 21
68.066153
 39
0
 62
7
  0
LINE
  8
default
  6
CONTINUOUS
 10
9.300497
 20
68.066153
 11
11.417825
 21
72.202220
 39
0
 62
7
  0
LINE
  8
default
  6
CONTINUOUS
 10
11.417825
 20
72.202220
 11
14.344258
 21
75.811391
 39
0
 62
7
  0
LINE
  8
default
  6
CONTINUOUS
 10
14.344258
 20
75.811391
 11
17.953431
 21
78.737818
 39
0
 62
7
  0
LINE
  8
default
  6
CONTINUOUS
 10
17.953431
 20
78.737818
 11
22.089499
 21
80.855151
 39
0
 62
7
  0
LINE
  8
default
  6
CONTINUOUS
 10
22.089499
 20
80.855151
 11
26.573864
 21
82.071947
 39
0
 62
7
  0
LINE
  8
default
  6
CONTINUOUS
 10
26.573864
 20
82.071947
 11
31.212892
 21
82.335669
 39
0
 62
7
  0
LINE
  8
default
  6
CONTINUOUS
 10
31.212892
 20
82.335669
 11
35.806267
 21
81.634937
 39
0
 62
7
  0
LINE
  8
default
  6
CONTINUOUS
 10
35.806267
 20
81.634937
 11
40.155646
 21
79.999994
 39
0
 62
7
  0
LINE
  8
default
  6
CONTINUOUS
 10
50.155655
 20
89.999990
 11
57.777894
 21
88.441949
 39
0
 62
7
  0
LINE
  8
default
  6
CONTINUOUS
 10
57.777894
 20
88.441949
 11
65.069448
 21
85.729149
 39
0
 62
7
  0
LINE
  8
default
  6
CONTINUOUS
 10
65.069448
 20
85.729149
 11
71.856503
 21
81.926262
 39
0
 62
7
  0
LINE
  8
default
  6
CONTINUOUS
 10
71.856503
 20
81.926262
 11
77.977262
 21
77.123934
 39
0
 62
7
  0
LINE
  8
default
  6
CONTINUOUS
 10
77.977262
 20
77.123934
 11
83.285829
 21
71.436655
 39
0
 62
7
  0
LINE
  8
default
  6
CONTINUOUS
 10
83.285829
 20
71.436655
 11
87.655645
 21
64.999987
 39
0
 62
7
  0
LINE
  8
default
  6
CONTINUOUS
 10
87.655645
 20
64.999987
 11
90.982555
 21
57.967371
 39
0
 62
7
  0
LINE
  8
default
  6
CONTINUOUS
 10
90.982555
 20
57.967371
 11
93.187244
 21
50.506450
 39
0
 62
7
  0
LINE
  8
default
  6
CONTINUOUS
 10
94.217166
 20
42.795074
 11
93.187244
 21
50.506450
 39
0
 62
7
  0
LINE
  8
default
  6
CONTINUOUS
 10
94.217166
 20
42.795074
 11
94.047772
 21
35.017074
 39
0
 62
7
  0
LINE
  8
default
  6
CONTINUOUS
 10
94.047772
 20
35.017074
 11
92.683079
 21
27.357854
 39
0
 62
7
  0
LINE
  8
default
  6
CONTINUOUS
 10
92.683079
 20
27.357854
 11
90.155639
 21
19.999996
 39
0
 62
7
  0
LINE
  8
default
  6
CONTINUOUS
 10
70.155647
 20
49.999997
 11
74.991282
 21
46.730321
 39
0
 62
7
  0
LINE
  8
default
  6
CONTINUOUS
 10
74.991282
 20
46.730321
 11
78.815892
 21
42.320506
 39
0
 62
7
  0
LINE
  8
default
  6
CONTINUOUS
 10
78.815892
 20
42.320506
 11
81.368843
 21
37.071063
 39
0
 62
7
  0
LINE
  8
default
  6
CONTINUOUS
 10
81.368843
 20
37.071063
 11
82.476148
 21
31.339743
 39
0
 62
7
  0
LINE
  8
default
  6
CONTINUOUS
 10
82.476148
 20
31.339743
 11
82.062349
 21
25.517118
 39
0
 62
7
  0
LINE
  8
default
  6
CONTINUOUS
 10
82.062349
 20
25.517118
 11
80.155643
 21
19.999996
 39
0
 62
7
  0
LINE
  8
default
  6
CONTINUOUS
 10
80.155643
 20
19.999996
 11
76.885967
 21
15.164359
 39
0
 62
7
  0
LINE
  8
default
  6
CONTINUOUS
 10
76.885967
 20
15.164359
 11
72.476143
 21
11.339746
 39
0
 62
7
  0
LINE
  8
default
  6
CONTINUOUS
 10
72.476143
 20
11.339746
 11
67.226705
 21
8.786798
 39
0
 62
7
  0
LINE
  8
default
  6
CONTINUOUS
 10
67.226705
 20
8.786798
 11
61.495385
 21
7.679495
 39
0
 62
7
  0
LINE
  8
default
  6
CONTINUOUS
 10
61.495385
 20
7.679495
 11
55.672762
 21
8.093297
 39
0
 62
7
  0
LINE
  8
default
  6
CONTINUOUS
 10
55.672762
 20
8.093297
 11
50.155638
 21
10.000004
 39
0
 62
7
  0
LINE
  8
default
  6
CONTINUOUS
 10
20.155639
 20
69.999998
 11
23.632674
 21
66.950721
 39
0
 62
7
  0
LINE
  8
default
  6
CONTINUOUS
 10
23.632674
 20
66.950721
 11
27.477970
 21
64.381375
 39
0
 62
7
  0
LINE
  8
default
  6
CONTINUOUS
 10
27.477970
 20
64.381375
 11
31.625736
 21
62.335922
 39
0
 62
7
  0
LINE
  8
default
  6
CONTINUOUS
 10
31.625736
 20
62.335922
 11
36.005004
 21
60.849363
 39
0
 62
7
  0
LINE
  8
default
  6
CONTINUOUS
 10
36.005004
 20
60.849363
 11
40.540841
 21
59.947124
 39
0
 62
7
  0
LINE
  8
default
  6
CONTINUOUS
 10
40.540841
 20
59.947124
 11
45.155640
 21
59.644658
 39
0
 62
7
  0
LINE
  8
default
  6
CONTINUOUS
 10
45.155640
 20
59.644658
 11
49.770438
 21
59.947124
 39
0
 62
7
  0
LINE
  8
default
  6
CONTINUOUS
 10
49.770438
 20
59.947124
 11
54.306275
 21
60.849363
 39
0
 62
7
  0
LINE
  8
default
  6
CONTINUOUS
 10
54.306275
 20
60.849363
 11
58.685544
 21
62.335922
 39
0
 62
7
  0
LINE
  8
default
  6
CONTINUOUS
 10
58.685544
 20
62.335922
 11
62.833307
 21
64.381375
 39
0
 62
7
  0
LINE
  8
default
  6
CONTINUOUS
 10
62.833307
 20
64.381375
 11
66.678608
 21
66.950721
 39
0
 62
7
  0
LINE
  8
default
  6
CONTINUOUS
 10
66.678608
 20
66.950721
 11
70.155639
 21
69.999998
 39
0
 62
7
  0
LINE
  8
default
  6
CONTINUOUS
 10
20.155639
 20
40.000001
 11
23.632674
 21
43.049278
 39
0
 62
7
  0
LINE
  8
default
  6
CONTINUOUS
 10
23.632674
 20
43.049278
 11
27.477970
 21
45.618624
 39
0
 62
7
  0
LINE
  8
default
  6
CONTINUOUS
 10
27.477970
 20
45.618624
 11
31.625736
 21
47.664077
 39
0
 62
7
  0
LINE
  8
default
  6
CONTINUOUS
 10
31.625736
 20
47.664077
 11
36.005004
 21
49.150632
 39
0
 62
7
  0
LINE
  8
default
  6
CONTINUOUS
 10
36.005004
 20
49.150632
 11
40.540841
 21
50.052870
 39
0
 62
7
  0
LINE
  8
default
  6
CONTINUOUS
 10
40.540841
 20
50.052870
 11
45.155640
 21
50.355337
 39
0
 62
7
  0
LINE
  8
default
  6
CONTINUOUS
 10
45.155640
 20
50.355337
 11
49.770438
 21
50.052870
 39
0
 62
7
  0
LINE
  8
default
  6
CONTINUOUS
 10
49.770438
 20
50.052870
 11
54.306275
 21
49.150632
 39
0
 62
7
  0
LINE
  8
default
  6
CONTINUOUS
 10
54.306275
 20
49.150632
 11
58.685544
 21
47.664077
 39
0
 62
7
  0
LINE
  8
default
  6
CONTINUOUS
 10
58.685544
 20
47.664077
 11
62.833307
 21
45.618624
 39
0
 62
7
  0
LINE
  8
default
  6
CONTINUOUS
 10
62.833307
 20
45.618624
 11
66.678608
 21
43.049278
 39
0
 62
7
  0
LINE
  8
default
  6
CONTINUOUS
 10
66.678608
 20
43.049278
 11
70.155639
 21
40.000001
 39
0
 62
7
  0
LINE
  8
default
  6
CONTINUOUS
 10
60.155642
 20
39.999997
 11
62.070760
 21
39.219038
 39
0
 62
7
  0
LINE
  8
default
  6
CONTINUOUS
 10
62.070760
 20
39.219038
 11
63.867560
 21
38.194790
 39
0
 62
7
  0
LINE
  8
default
  6
CONTINUOUS
 10
63.867560
 20
38.194790
 11
65.515293
 21
36.944770
 39
0
 62
7
  0
LINE
  8
default
  6
CONTINUOUS
 10
65.515293
 20
36.944770
 11
66.985768
 21
35.490376
 39
0
 62
7
  0
LINE
  8
default
  6
CONTINUOUS
 10
66.985768
 20
35.490376
 11
68.253832
 21
33.856489
 39
0
 62
7
  0
LINE
  8
default
  6
CONTINUOUS
 10
68.253832
 20
33.856489
 11
69.297778
 21
32.071063
 39
0
 62
7
  0
LINE
  8
default
  6
CONTINUOUS
 10
69.297778
 20
32.071063
 11
70.099747
 21
30.164650
 39
0
 62
7
  0
LINE
  8
default
  6
CONTINUOUS
 10
70.099747
 20
30.164650
 11
70.646024
 21
28.169868
 39
0
 62
7
  0
LINE
  8
default
  6
CONTINUOUS
 10
70.646024
 20
28.169868
 11
70.927249
 21
26.120851
 39
0
 62
7
  0
LINE
  8
default
  6
CONTINUOUS
 10
70.927249
 20
26.120851
 11
70.938622
 21
24.052654
 39
0
 62
7
  0
LINE
  8
default
  6
CONTINUOUS
 10
70.938622
 20
24.052654
 11
70.679943
 21
22.000666
 39
0
 62
7
  0
LINE
  8
default
  6
CONTINUOUS
 10
70.679943
 20
22.000666
 11
70.155639
 21
19.999998
 39
0
 62
7
  0
LINE
  8
default
  6
CONTINUOUS
 10
90.155657
 20
30.000001
 11
89.021493
 21
27.303927
 39
0
 62
7
  0
LINE
  8
default
  6
CONTINUOUS
 10
89.021493
 20
27.303927
 11
88.248942
 21
24.482881
 39
0
 62
7
  0
LINE
  8
default
  6
CONTINUOUS
 10
88.248942
 20
24.482881
 11
87.851223
 21
21.585130
 39
0
 62
7
  0
LINE
  8
default
  6
CONTINUOUS
 10
87.851223
 20
21.585130
 11
87.835143
 21
18.660258
 39
0
 62
7
  0
LINE
  8
default
  6
CONTINUOUS
 10
87.835143
 20
18.660258
 11
88.200973
 21
15.758308
 39
0
 62
7
  0
LINE
  8
default
  6
CONTINUOUS
 10
88.200973
 20
15.758308
 11
88.942448
 21
12.928936
 39
0
 62
7
  0
LINE
  8
default
  6
CONTINUOUS
 10
88.942448
 20
12.928936
 11
90.046883
 21
10.220551
 39
0
 62
7
  0
LINE
  8
default
  6
CONTINUOUS
 10
90.046883
 20
10.220551
 11
91.495390
 21
7.679495
 39
0
 62
7
  0
LINE
  8
default
  6
CONTINUOUS
 10
91.495390
 20
7.679495
 11
93.263183
 21
5.349248
 39
0
 62
7
  0
LINE
  8
default
  6
CONTINUOUS
 10
93.263183
 20
5.349248
 11
95.320009
 21
3.269677
 39
0
 62
7
  0
LINE
  8
default
  6
CONTINUOUS
 10
95.320009
 20
3.269677
 11
97.630672
 21
1.476367
 39
0
 62
7
  0
LINE
  8
default
  6
CONTINUOUS
 10
97.630672
 20
1.476367
 11
100.155640
 21
0.000002
 39
0
 62
7
  0
ENDSEC
  0
EOF
