  0
SECTION
  2
HEADER
  9
$LIMMIN
 10
0.000000
 20
0.000000
  9
$LIMMAX
 10
99.999997
 20
99.999505
  9
$EXTMIN
 10
0.000000
 20
0.000000
  9
$EXTMAX
 10
99.999997
 20
99.999505
  9
$ANGBASE
 50
0.000000
  9
$ANGDIR
 70
0
  9
$INSUNITS
 70
0
  9
$DIMALT
 70
4
  9
$DIMLUNIT
 70
2
  9
$DIMASZ
 40
3.000000
  9
$DIMTXT
 40
5.000000
  9
$DIMRND
 40
0.010000
  9
$DIMEXE
 40
2.000000
  9
$DIMEXO
 40
2.000000
  9
$DIMAUNIT
 70
0
  9
$DIMADEC
 70
2
  9
$GRIDUNIT
 10
0.001000
 20
0.001000
  9
$PLIMMIN
 10
0.000000
 20
0.000000
  9
$PLIMMAX
 10
210.000000
 20
297.000000
  9
$PSVPSCALE
 40
1.000000
  0
ENDSEC
  0
SECTION
  2
TABLES
  0
TABLE
  2
LTYPE
 70
     1
  0
LTYPE
  2
CONTINUOUS
 70
    64
  3
Ausgez
 72
    65
 73
  0
 40
0.000000
  0
ENDTAB
  0
TABLE
  2
LAYER
 70
     1
  0
LAYER
  2
default
 70
    64
 62
7
  6
CONTINUOUS
  0
ENDTAB
  0
ENDSEC
  0
SECTION
  2
BLOCKS
  0
ENDSEC
  0
SECTION
  2
ENTITIES
  0
LINE
  8
default
  6
CONTINUOUS
 10
0.000000
 20
0.000000
 11
0.000000
 21
16.667000
 39
0
 62
7
  0
LINE
  8
default
  6
CONTINUOUS
 10
0.000000
 20
33.333500
 11
0.000000
 21
49.999998
 39
0
 62
7
  0
LINE
  8
default
  6
CONTINUOUS
 10
24.999999
 20
16.667000
 11
24.999999
 21
33.333500
 39
0
 62
7
  0
LINE
  8
default
  6
CONTINUOUS
 10
49.999998
 20
0.000000
 11
49.999998
 21
16.667000
 39
0
 62
7
  0
LINE
  8
default
  6
CONTINUOUS
 10
49.999998
 20
33.333500
 11
49.999998
 21
49.999998
 39
0
 62
7
  0
LINE
  8
default
  6
CONTINUOUS
 10
19.999999
 20
16.667000
 11
19.999999
 21
33.333500
 39
0
 62
7
  0
LINE
  8
default
  6
CONTINUOUS
 10
45.000000
 20
0.000000
 11
45.000000
 21
16.667000
 39
0
 62
7
  0
LINE
  8
default
  6
CONTINUOUS
 10
45.000000
 20
33.333500
 11
45.000000
 21
49.999998
 39
0
 62
7
  0
LINE
  8
default
  6
CONTINUOUS
 10
45.000000
 20
36.110998
 11
49.999998
 21
36.110998
 39
0
 62
7
  0
LINE
  8
default
  6
CONTINUOUS
 10
19.999999
 20
19.444500
 11
24.999999
 21
19.444500
 39
0
 62
7
  0
LINE
  8
default
  6
CONTINUOUS
 10
45.000000
 20
2.778000
 11
49.999998
 21
2.778000
 39
0
 62
7
  0
LINE
  8
default
  6
CONTINUOUS
 10
45.000000
 20
38.889001
 11
49.999998
 21
38.889001
 39
0
 62
7
  0
LINE
  8
default
  6
CONTINUOUS
 10
19.999999
 20
22.222498
 11
24.999999
 21
22.222498
 39
0
 62
7
  0
LINE
  8
default
  6
CONTINUOUS
 10
45.000000
 20
5.555500
 11
49.999998
 21
5.555500
 39
0
 62
7
  0
LINE
  8
default
  6
CONTINUOUS
 10
45.000000
 20
41.666999
 11
49.999998
 21
41.666999
 39
0
 62
7
  0
LINE
  8
default
  6
CONTINUOUS
 10
19.999999
 20
24.999999
 11
24.999999
 21
24.999999
 39
0
 62
7
  0
LINE
  8
default
  6
CONTINUOUS
 10
45.000000
 20
8.333500
 11
49.999998
 21
8.333500
 39
0
 62
7
  0
LINE
  8
default
  6
CONTINUOUS
 10
45.000000
 20
44.444497
 11
49.999998
 21
44.444497
 39
0
 62
7
  0
LINE
  8
default
  6
CONTINUOUS
 10
19.999999
 20
27.777499
 11
24.999999
 21
27.777499
 39
0
 62
7
  0
LINE
  8
default
  6
CONTINUOUS
 10
45.000000
 20
11.111000
 11
49.999998
 21
11.111000
 39
0
 62
7
  0
LINE
  8
default
  6
CONTINUOUS
 10
45.000000
 20
47.222000
 11
49.999998
 21
47.222000
 39
0
 62
7
  0
LINE
  8
default
  6
CONTINUOUS
 10
19.999999
 20
30.555500
 11
24.999999
 21
30.555500
 39
0
 62
7
  0
LINE
  8
default
  6
CONTINUOUS
 10
45.000000
 20
13.888999
 11
49.999998
 21
13.888999
 39
0
 62
7
  0
LINE
  8
default
  6
CONTINUOUS
 10
0.000000
 20
49.999998
 11
99.999997
 21
49.999998
 39
0
 62
7
  0
LINE
  8
default
  6
CONTINUOUS
 10
0.000000
 20
33.333500
 11
99.999997
 21
33.333500
 39
0
 62
7
  0
LINE
  8
default
  6
CONTINUOUS
 10
0.000000
 20
16.667000
 11
99.999997
 21
16.667000
 39
0
 62
7
  0
LINE
  8
default
  6
CONTINUOUS
 10
0.000000
 20
0.000000
 11
99.999997
 21
0.000000
 39
0
 62
7
  0
LINE
  8
default
  6
CONTINUOUS
 10
74.999995
 20
16.667000
 11
74.999995
 21
33.333500
 39
0
 62
7
  0
LINE
  8
default
  6
CONTINUOUS
 10
99.999997
 20
0.000000
 11
99.999997
 21
16.667000
 39
0
 62
7
  0
LINE
  8
default
  6
CONTINUOUS
 10
99.999997
 20
33.333500
 11
99.999997
 21
49.999998
 39
0
 62
7
  0
LINE
  8
default
  6
CONTINUOUS
 10
69.999994
 20
16.667000
 11
69.999994
 21
33.333500
 39
0
 62
7
  0
LINE
  8
default
  6
CONTINUOUS
 10
95.000003
 20
0.000000
 11
95.000003
 21
16.667000
 39
0
 62
7
  0
LINE
  8
default
  6
CONTINUOUS
 10
95.000003
 20
33.333500
 11
95.000003
 21
49.999998
 39
0
 62
7
  0
LINE
  8
default
  6
CONTINUOUS
 10
95.000003
 20
36.110998
 11
99.999997
 21
36.110998
 39
0
 62
7
  0
LINE
  8
default
  6
CONTINUOUS
 10
69.999994
 20
19.444500
 11
74.999995
 21
19.444500
 39
0
 62
7
  0
LINE
  8
default
  6
CONTINUOUS
 10
95.000003
 20
2.778000
 11
99.999997
 21
2.778000
 39
0
 62
7
  0
LINE
  8
default
  6
CONTINUOUS
 10
95.000003
 20
38.889001
 11
99.999997
 21
38.889001
 39
0
 62
7
  0
LINE
  8
default
  6
CONTINUOUS
 10
69.999994
 20
22.222498
 11
74.999995
 21
22.222498
 39
0
 62
7
  0
LINE
  8
default
  6
CONTINUOUS
 10
95.000003
 20
5.555500
 11
99.999997
 21
5.555500
 39
0
 62
7
  0
LINE
  8
default
  6
CONTINUOUS
 10
95.000003
 20
41.666999
 11
99.999997
 21
41.666999
 39
0
 62
7
  0
LINE
  8
default
  6
CONTINUOUS
 10
69.999994
 20
24.999999
 11
74.999995
 21
24.999999
 39
0
 62
7
  0
LINE
  8
default
  6
CONTINUOUS
 10
95.000003
 20
8.333500
 11
99.999997
 21
8.333500
 39
0
 62
7
  0
LINE
  8
default
  6
CONTINUOUS
 10
95.000003
 20
44.444497
 11
99.999997
 21
44.444497
 39
0
 62
7
  0
LINE
  8
default
  6
CONTINUOUS
 10
69.999994
 20
27.777499
 11
74.999995
 21
27.777499
 39
0
 62
7
  0
LINE
  8
default
  6
CONTINUOUS
 10
95.000003
 20
11.111000
 11
99.999997
 21
11.111000
 39
0
 62
7
  0
LINE
  8
default
  6
CONTINUOUS
 10
95.000003
 20
47.222000
 11
99.999997
 21
47.222000
 39
0
 62
7
  0
LINE
  8
default
  6
CONTINUOUS
 10
69.999994
 20
30.555500
 11
74.999995
 21
30.555500
 39
0
 62
7
  0
LINE
  8
default
  6
CONTINUOUS
 10
95.000003
 20
13.888999
 11
99.999997
 21
13.888999
 39
0
 62
7
  0
LINE
  8
default
  6
CONTINUOUS
 10
0.000000
 20
66.666501
 11
0.000000
 21
83.332999
 39
0
 62
7
  0
LINE
  8
default
  6
CONTINUOUS
 10
24.999999
 20
49.999998
 11
24.999999
 21
66.666501
 39
0
 62
7
  0
LINE
  8
default
  6
CONTINUOUS
 10
49.999998
 20
66.666501
 11
49.999998
 21
83.332999
 39
0
 62
7
  0
LINE
  8
default
  6
CONTINUOUS
 10
19.999999
 20
49.999998
 11
19.999999
 21
66.666501
 39
0
 62
7
  0
LINE
  8
default
  6
CONTINUOUS
 10
45.000000
 20
66.666501
 11
45.000000
 21
83.332999
 39
0
 62
7
  0
LINE
  8
default
  6
CONTINUOUS
 10
45.000000
 20
69.443999
 11
49.999998
 21
69.443999
 39
0
 62
7
  0
LINE
  8
default
  6
CONTINUOUS
 10
19.999999
 20
52.777501
 11
24.999999
 21
52.777501
 39
0
 62
7
  0
LINE
  8
default
  6
CONTINUOUS
 10
45.000000
 20
72.221997
 11
49.999998
 21
72.221997
 39
0
 62
7
  0
LINE
  8
default
  6
CONTINUOUS
 10
19.999999
 20
55.555499
 11
24.999999
 21
55.555499
 39
0
 62
7
  0
LINE
  8
default
  6
CONTINUOUS
 10
45.000000
 20
74.999995
 11
49.999998
 21
74.999995
 39
0
 62
7
  0
LINE
  8
default
  6
CONTINUOUS
 10
19.999999
 20
58.332997
 11
24.999999
 21
58.332997
 39
0
 62
7
  0
LINE
  8
default
  6
CONTINUOUS
 10
45.000000
 20
77.777494
 11
49.999998
 21
77.777494
 39
0
 62
7
  0
LINE
  8
default
  6
CONTINUOUS
 10
19.999999
 20
61.110496
 11
24.999999
 21
61.110496
 39
0
 62
7
  0
LINE
  8
default
  6
CONTINUOUS
 10
45.000000
 20
80.555001
 11
49.999998
 21
80.555001
 39
0
 62
7
  0
LINE
  8
default
  6
CONTINUOUS
 10
19.999999
 20
63.888498
 11
24.999999
 21
63.888498
 39
0
 62
7
  0
LINE
  8
default
  6
CONTINUOUS
 10
0.000000
 20
83.332999
 11
99.999997
 21
83.332999
 39
0
 62
7
  0
LINE
  8
default
  6
CONTINUOUS
 10
0.000000
 20
66.666501
 11
99.999997
 21
66.666501
 39
0
 62
7
  0
LINE
  8
default
  6
CONTINUOUS
 10
74.999995
 20
49.999998
 11
74.999995
 21
66.666501
 39
0
 62
7
  0
LINE
  8
default
  6
CONTINUOUS
 10
99.999997
 20
66.666501
 11
99.999997
 21
83.332999
 39
0
 62
7
  0
LINE
  8
default
  6
CONTINUOUS
 10
69.999994
 20
49.999998
 11
69.999994
 21
66.666501
 39
0
 62
7
  0
LINE
  8
default
  6
CONTINUOUS
 10
95.000003
 20
66.666501
 11
95.000003
 21
83.332999
 39
0
 62
7
  0
LINE
  8
default
  6
CONTINUOUS
 10
95.000003
 20
69.443999
 11
99.999997
 21
69.443999
 39
0
 62
7
  0
LINE
  8
default
  6
CONTINUOUS
 10
69.999994
 20
52.777501
 11
74.999995
 21
52.777501
 39
0
 62
7
  0
LINE
  8
default
  6
CONTINUOUS
 10
95.000003
 20
72.221997
 11
99.999997
 21
72.221997
 39
0
 62
7
  0
LINE
  8
default
  6
CONTINUOUS
 10
69.999994
 20
55.555499
 11
74.999995
 21
55.555499
 39
0
 62
7
  0
LINE
  8
default
  6
CONTINUOUS
 10
95.000003
 20
74.999995
 11
99.999997
 21
74.999995
 39
0
 62
7
  0
LINE
  8
default
  6
CONTINUOUS
 10
69.999994
 20
58.332997
 11
74.999995
 21
58.332997
 39
0
 62
7
  0
LINE
  8
default
  6
CONTINUOUS
 10
95.000003
 20
77.777494
 11
99.999997
 21
77.777494
 39
0
 62
7
  0
LINE
  8
default
  6
CONTINUOUS
 10
69.999994
 20
61.110496
 11
74.999995
 21
61.110496
 39
0
 62
7
  0
LINE
  8
default
  6
CONTINUOUS
 10
95.000003
 20
80.555001
 11
99.999997
 21
80.555001
 39
0
 62
7
  0
LINE
  8
default
  6
CONTINUOUS
 10
69.999994
 20
63.888498
 11
74.999995
 21
63.888498
 39
0
 62
7
  0
LINE
  8
default
  6
CONTINUOUS
 10
24.999999
 20
83.332999
 11
24.999999
 21
99.999505
 39
0
 62
7
  0
LINE
  8
default
  6
CONTINUOUS
 10
19.999999
 20
83.332999
 11
19.999999
 21
99.999505
 39
0
 62
7
  0
LINE
  8
default
  6
CONTINUOUS
 10
19.999999
 20
86.110506
 11
24.999999
 21
86.110506
 39
0
 62
7
  0
LINE
  8
default
  6
CONTINUOUS
 10
19.999999
 20
88.888496
 11
24.999999
 21
88.888496
 39
0
 62
7
  0
LINE
  8
default
  6
CONTINUOUS
 10
19.999999
 20
91.666002
 11
24.999999
 21
91.666002
 39
0
 62
7
  0
LINE
  8
default
  6
CONTINUOUS
 10
19.999999
 20
94.443492
 11
24.999999
 21
94.443492
 39
0
 62
7
  0
LINE
  8
default
  6
CONTINUOUS
 10
19.999999
 20
97.221499
 11
24.999999
 21
97.221499
 39
0
 62
7
  0
LINE
  8
default
  6
CONTINUOUS
 10
74.999995
 20
83.332999
 11
74.999995
 21
99.999505
 39
0
 62
7
  0
LINE
  8
default
  6
CONTINUOUS
 10
69.999994
 20
83.332999
 11
69.999994
 21
99.999505
 39
0
 62
7
  0
LINE
  8
default
  6
CONTINUOUS
 10
69.999994
 20
86.110506
 11
74.999995
 21
86.110506
 39
0
 62
7
  0
LINE
  8
default
  6
CONTINUOUS
 10
69.999994
 20
88.888496
 11
74.999995
 21
88.888496
 39
0
 62
7
  0
LINE
  8
default
  6
CONTINUOUS
 10
69.999994
 20
91.666002
 11
74.999995
 21
91.666002
 39
0
 62
7
  0
LINE
  8
default
  6
CONTINUOUS
 10
69.999994
 20
94.443492
 11
74.999995
 21
94.443492
 39
0
 62
7
  0
LINE
  8
default
  6
CONTINUOUS
 10
69.999994
 20
97.221499
 11
74.999995
 21
97.221499
 39
0
 62
7
  0
ENDSEC
  0
EOF
