999
dxfrw 0.5.10
0
SECTION
2
HEADER
9
$ACADVER
1
AC1021
9
$HANDSEED
5
20000
9
$DWGCODEPAGE
3
ANSI_1252
9
$INSBASE
10
0
20
0
30
0
9
$EXTMIN
10
-1.04083408559e-17
20
8.67361737988e-18
30
0
9
$EXTMAX
10
80
20
80
30
0
9
$LIMMIN
10
-8.929
20
1.25
9
$LIMMAX
10
83.929
20
72.75
9
$ORTHOMODE
70
0
9
$LTSCALE
40
1
9
$TEXTSTYLE
7
STANDARD
9
$DIMASZ
40
2.5
9
$DIMLFAC
40
1
9
$DIMSCALE
40
1
9
$DIMEXO
40
0.625
9
$DIMEXE
40
1.25
9
$DIMTXT
40
2.5
9
$DIMTSZ
40
0
9
$DIMAUNIT
70
0
9
$DIMADEC
70
0
9
$DIMLUNIT
70
2
9
$DIMSTYLE
2
Standard
9
$DIMGAP
40
0.625
9
$DIMTIH
70
0
9
$LUNITS
70
2
9
$LUPREC
70
4
9
$AUNITS
70
0
9
$AUPREC
70
2
9
$SPLINESEGS
70
8
9
$GRIDMODE
70
1
9
$SNAPSTYLE
70
0
9
$PINSBASE
10
0
20
0
30
0
9
$PLIMMIN
10
0
20
0
9
$PLIMMAX
10
210
20
297
9
$INSUNITS
70
4
9
$PSVPSCALE
40
1
0
ENDSEC
0
SECTION
2
CLASSES
0
ENDSEC
0
SECTION
2
TABLES
0
TABLE
2
VPORT
5
8
330
0
100
AcDbSymbolTable
70
1
0
VPORT
5
31
330
2
100
AcDbSymbolTableRecord
100
AcDbViewportTableRecord
2
*ACTIVE
70
0
10
0
20
0
11
1
21
1
12
126.916208575
22
90.9965269027
13
0
23
0
14
10
24
10
15
10
25
10
16
0
26
0
36
1
17
0
27
0
37
0
40
218.939012097
41
1.546875
42
50
43
0
44
0
50
0
51
0
71
0
72
100
73
1
74
3
75
0
76
1
77
0
78
0
281
0
65
1
110
0
120
0
130
0
111
1
121
0
131
0
112
0
122
1
132
0
79
0
146
0
348
10020
60
7
61
5
292
1
282
1
141
0
142
0
63
250
421
3358443
0
ENDTAB
0
TABLE
2
LTYPE
5
5
330
0
100
AcDbSymbolTable
70
4
0
LTYPE
5
14
330
5
100
AcDbSymbolTableRecord
100
AcDbLinetypeTableRecord
2
ByBlock
70
0
3

72
65
73
0
40
0
0
LTYPE
5
15
330
5
100
AcDbSymbolTableRecord
100
AcDbLinetypeTableRecord
2
ByLayer
70
0
3

72
65
73
0
40
0
0
LTYPE
5
16
330
5
100
AcDbSymbolTableRecord
100
AcDbLinetypeTableRecord
2
Continuous
70
0
3
Solid line
72
65
73
0
40
0
0
LTYPE
5
32
330
5
100
AcDbSymbolTableRecord
100
AcDbLinetypeTableRecord
2
DOT
70
0
3
Dot . . . . . . . . . . . . . . . . . . . . . .
72
65
73
2
40
6.35
49
0
74
0
49
-6.35
74
0
0
LTYPE
5
33
330
5
100
AcDbSymbolTableRecord
100
AcDbLinetypeTableRecord
2
DOT2
70
0
3
Dot (.5x) .....................................
72
65
73
2
40
3.175
49
0
74
0
49
-3.175
74
0
0
LTYPE
5
34
330
5
100
AcDbSymbolTableRecord
100
AcDbLinetypeTableRecord
2
DOTX2
70
0
3
Dot (2x) .  .  .  .  .  .  .  .  .  .  .  .  .
72
65
73
2
40
12.7
49
0
74
0
49
-12.7
74
0
0
LTYPE
5
35
330
5
100
AcDbSymbolTableRecord
100
AcDbLinetypeTableRecord
2
DASHED
70
0
3
Dot . . . . . . . . . . . . . . . . . . . . . .
72
65
73
2
40
19.05
49
12.7
74
0
49
-6.35
74
0
0
LTYPE
5
36
330
5
100
AcDbSymbolTableRecord
100
AcDbLinetypeTableRecord
2
DASHED2
70
0
3
Dashed (.5x) _ _ _ _ _ _ _ _ _ _ _ _ _ _ _ _ _
72
65
73
2
40
9.525
49
6.35
74
0
49
-3.175
74
0
0
LTYPE
5
37
330
5
100
AcDbSymbolTableRecord
100
AcDbLinetypeTableRecord
2
DASHEDX2
70
0
3
Dashed (2x) ____  ____  ____  ____  ____  ___
72
65
73
2
40
38.1
49
25.4
74
0
49
-12.7
74
0
0
LTYPE
5
38
330
5
100
AcDbSymbolTableRecord
100
AcDbLinetypeTableRecord
2
DASHDOT
70
0
3
Dash dot __ . __ . __ . __ . __ . __ . __ . __
72
65
73
4
40
25.4
49
12.7
74
0
49
-6.35
74
0
49
0
74
0
49
-6.35
74
0
0
LTYPE
5
39
330
5
100
AcDbSymbolTableRecord
100
AcDbLinetypeTableRecord
2
DASHDOT2
70
0
3
Dash dot (.5x) _._._._._._._._._._._._._._._.
72
65
73
4
40
12.7
49
6.35
74
0
49
-3.175
74
0
49
0
74
0
49
-3.175
74
0
0
LTYPE
5
3A
330
5
100
AcDbSymbolTableRecord
100
AcDbLinetypeTableRecord
2
DASHDOTX2
70
0
3
Dash dot (2x) ____  .  ____  .  ____  .  ___
72
65
73
4
40
50.8
49
25.4
74
0
49
-12.7
74
0
49
0
74
0
49
-12.7
74
0
0
LTYPE
5
3B
330
5
100
AcDbSymbolTableRecord
100
AcDbLinetypeTableRecord
2
DIVIDE
70
0
3
Divide ____ . . ____ . . ____ . . ____ . . ____
72
65
73
6
40
31.75
49
12.7
74
0
49
-6.35
74
0
49
0
74
0
49
-6.35
74
0
49
0
74
0
49
-6.35
74
0
0
LTYPE
5
3C
330
5
100
AcDbSymbolTableRecord
100
AcDbLinetypeTableRecord
2
DIVIDE2
70
0
3
Divide (.5x) __..__..__..__..__..__..__..__.._
72
65
73
6
40
15.875
49
6.35
74
0
49
-3.175
74
0
49
0
74
0
49
-3.175
74
0
49
0
74
0
49
-3.175
74
0
0
LTYPE
5
3D
330
5
100
AcDbSymbolTableRecord
100
AcDbLinetypeTableRecord
2
DIVIDEX2
70
0
3
Divide (2x) ________  .  .  ________  .  .  _
72
65
73
6
40
63.5
49
25.4
74
0
49
-12.7
74
0
49
0
74
0
49
-12.7
74
0
49
0
74
0
49
-12.7
74
0
0
LTYPE
5
3E
330
5
100
AcDbSymbolTableRecord
100
AcDbLinetypeTableRecord
2
BORDER
70
0
3
Border __ __ . __ __ . __ __ . __ __ . __ __ .
72
65
73
6
40
44.45
49
12.7
74
0
49
-6.35
74
0
49
12.7
74
0
49
-6.35
74
0
49
0
74
0
49
-6.35
74
0
0
LTYPE
5
3F
330
5
100
AcDbSymbolTableRecord
100
AcDbLinetypeTableRecord
2
BORDER2
70
0
3
Border (.5x) __.__.__.__.__.__.__.__.__.__.__.
72
65
73
6
40
22.225
49
6.35
74
0
49
-3.175
74
0
49
6.35
74
0
49
-3.175
74
0
49
0
74
0
49
-3.175
74
0
0
LTYPE
5
40
330
5
100
AcDbSymbolTableRecord
100
AcDbLinetypeTableRecord
2
BORDERX2
70
0
3
Border (2x) ____  ____  .  ____  ____  .  ___
72
65
73
6
40
88.9
49
25.4
74
0
49
-12.7
74
0
49
25.4
74
0
49
-12.7
74
0
49
0
74
0
49
-12.7
74
0
0
LTYPE
5
41
330
5
100
AcDbSymbolTableRecord
100
AcDbLinetypeTableRecord
2
CENTER
70
0
3
Center ____ _ ____ _ ____ _ ____ _ ____ _ ____
72
65
73
4
40
50.8
49
31.75
74
0
49
-6.35
74
0
49
6.35
74
0
49
-6.35
74
0
0
LTYPE
5
42
330
5
100
AcDbSymbolTableRecord
100
AcDbLinetypeTableRecord
2
CENTER2
70
0
3
Center (.5x) ___ _ ___ _ ___ _ ___ _ ___ _ ___
72
65
73
4
40
28.575
49
19.05
74
0
49
-3.175
74
0
49
3.175
74
0
49
-3.175
74
0
0
LTYPE
5
43
330
5
100
AcDbSymbolTableRecord
100
AcDbLinetypeTableRecord
2
CENTERX2
70
0
3
Center (2x) ________  __  ________  __  _____
72
65
73
4
40
101.6
49
63.5
74
0
49
-12.7
74
0
49
12.7
74
0
49
-12.7
74
0
0
ENDTAB
0
TABLE
2
LAYER
5
2
330
0
100
AcDbSymbolTable
70
1
0
LAYER
5
10
330
2
100
AcDbSymbolTableRecord
100
AcDbLayerTableRecord
2
0
70
0
62
7
6
CONTINUOUS
370
0
390
F
0
ENDTAB
0
TABLE
2
STYLE
5
3
330
0
100
AcDbSymbolTable
70
3
0
STYLE
5
44
330
2
100
AcDbSymbolTableRecord
100
AcDbTextStyleTableRecord
2
Standard
70
0
40
0
41
1
50
0
71
0
42
1
3
txt
4

0
ENDTAB
0
TABLE
2
VIEW
5
6
330
0
100
AcDbSymbolTable
70
0
0
ENDTAB
0
TABLE
2
UCS
5
7
330
0
100
AcDbSymbolTable
70
0
0
ENDTAB
0
TABLE
2
APPID
5
9
330
0
100
AcDbSymbolTable
70
1
0
APPID
5
12
330
9
100
AcDbSymbolTableRecord
100
AcDbRegAppTableRecord
2
ACAD
70
0
0
ENDTAB
0
TABLE
2
DIMSTYLE
5
A
330
0
100
AcDbSymbolTable
70
1
100
AcDbDimStyleTable
71
1
0
DIMSTYLE
105
45
330
A
100
AcDbSymbolTableRecord
100
AcDbDimStyleTableRecord
2
Standard
70
0
40
1
41
2.5
42
0.625
43
0.38
44
1.25
45
0
46
0
47
0
48
0
140
2.5
141
0.09
142
0
143
25.4
144
1
145
0
146
1
147
0.625
148
0
71
0
72
0
73
0
74
1
75
0
76
0
77
0
78
0
79
0
170
0
171
2
172
0
173
0
174
0
175
0
176
0
177
0
178
0
179
0
271
4
272
4
273
2
274
2
275
0
276
0
277
2
278
46
279
0
280
0
281
0
282
0
283
1
284
0
285
0
286
0
288
0
289
3
340
Standard
341

371
-2
372
-2
0
ENDTAB
0
TABLE
2
BLOCK_RECORD
5
1
330
0
100
AcDbSymbolTable
70
2
0
BLOCK_RECORD
5
1F
330
1
100
AcDbSymbolTableRecord
100
AcDbBlockTableRecord
2
*Model_Space
70
0
280
1
281
0
0
BLOCK_RECORD
5
1E
330
1
100
AcDbSymbolTableRecord
100
AcDbBlockTableRecord
2
*Paper_Space
70
0
280
1
281
0
0
ENDTAB
0
ENDSEC
0
SECTION
2
BLOCKS
0
BLOCK
5
20
330
1F
100
AcDbEntity
8
0
100
AcDbBlockBegin
2
*Model_Space
70
0
10
0
20
0
30
0
3
*Model_Space
1

0
ENDBLK
5
21
330
1F
100
AcDbEntity
8
0
100
AcDbBlockEnd
0
BLOCK
5
1C
330
1B
100
AcDbEntity
8
0
100
AcDbBlockBegin
2
*Paper_Space
70
0
10
0
20
0
30
0
3
*Paper_Space
1

0
ENDBLK
5
1D
330
1F
100
AcDbEntity
8
0
100
AcDbBlockEnd
0
ENDSEC
0
SECTION
2
ENTITIES
0
LINE
5
46
100
AcDbEntity
8
0
6
CONTINUOUS
62
7
370
-1
100
AcDbLine
10
49.5
20
4.5
11
58.5
21
4.5
0
LINE
5
47
100
AcDbEntity
8
0
6
CONTINUOUS
62
7
370
-1
100
AcDbLine
10
25.5
20
8
11
31
21
8
0
LINE
5
48
100
AcDbEntity
8
0
6
CONTINUOUS
62
7
370
-1
100
AcDbLine
10
22.5
20
8.5
11
23
21
8.5
0
LINE
5
49
100
AcDbEntity
8
0
6
CONTINUOUS
62
7
370
-1
100
AcDbLine
10
21
20
9
11
21.5
21
9
0
LINE
5
4A
100
AcDbEntity
8
0
6
CONTINUOUS
62
7
370
-1
100
AcDbLine
10
16
20
10
11
20
21
10
0
LINE
5
4B
100
AcDbEntity
8
0
6
CONTINUOUS
62
7
370
-1
100
AcDbLine
10
13.5
20
10.5
11
14.5
21
10.5
0
LINE
5
4C
100
AcDbEntity
8
0
6
CONTINUOUS
62
7
370
-1
100
AcDbLine
10
22
20
10.5
11
23
21
10.5
0
LINE
5
4D
100
AcDbEntity
8
0
6
CONTINUOUS
62
7
370
-1
100
AcDbLine
10
19
20
12
11
20.5
21
12
0
LINE
5
4E
100
AcDbEntity
8
0
6
CONTINUOUS
62
7
370
-1
100
AcDbLine
10
12
20
12.5
11
12.5
21
12.5
0
LINE
5
4F
100
AcDbEntity
8
0
6
CONTINUOUS
62
7
370
-1
100
AcDbLine
10
14
20
12.5
11
14.5
21
12.5
0
LINE
5
50
100
AcDbEntity
8
0
6
CONTINUOUS
62
7
370
-1
100
AcDbLine
10
13.5
20
14
11
14.5
21
14
0
LINE
5
51
100
AcDbEntity
8
0
6
CONTINUOUS
62
7
370
-1
100
AcDbLine
10
14
20
14.5
11
15
21
14.5
0
LINE
5
52
100
AcDbEntity
8
0
6
CONTINUOUS
62
7
370
-1
100
AcDbLine
10
16
20
15
11
18
21
15
0
LINE
5
53
100
AcDbEntity
8
0
6
CONTINUOUS
62
7
370
-1
100
AcDbLine
10
12.5
20
37.5
11
15
21
37.5
0
LINE
5
54
100
AcDbEntity
8
0
6
CONTINUOUS
62
7
370
-1
100
AcDbLine
10
21.5
20
40
11
23.5
21
40
0
LINE
5
55
100
AcDbEntity
8
0
6
CONTINUOUS
62
7
370
-1
100
AcDbLine
10
10
20
40.5
11
11.5
21
40.5
0
LINE
5
56
100
AcDbEntity
8
0
6
CONTINUOUS
62
7
370
-1
100
AcDbLine
10
13
20
42.5
11
15.5
21
42.5
0
LINE
5
57
100
AcDbEntity
8
0
6
CONTINUOUS
62
7
370
-1
100
AcDbLine
10
12
20
44.5
11
13
21
44.5
0
LINE
5
58
100
AcDbEntity
8
0
6
CONTINUOUS
62
7
370
-1
100
AcDbLine
10
16
20
45
11
16.5
21
45
0
LINE
5
59
100
AcDbEntity
8
0
6
CONTINUOUS
62
7
370
-1
100
AcDbLine
10
16.5
20
45.5
11
18
21
45.5
0
LINE
5
5A
100
AcDbEntity
8
0
6
CONTINUOUS
62
7
370
-1
100
AcDbLine
10
33.5
20
64
11
36.5
21
64
0
LINE
5
5B
100
AcDbEntity
8
0
6
CONTINUOUS
62
7
370
-1
100
AcDbLine
10
48
20
67
11
49
21
67
0
LINE
5
5C
100
AcDbEntity
8
0
6
CONTINUOUS
62
7
370
-1
100
AcDbLine
10
10
20
39
11
10
21
39.5
0
LINE
5
5D
100
AcDbEntity
8
0
6
CONTINUOUS
62
7
370
-1
100
AcDbLine
10
12
20
12.5
11
12
21
13
0
LINE
5
5E
100
AcDbEntity
8
0
6
CONTINUOUS
62
7
370
-1
100
AcDbLine
10
12.5
20
11
11
12.5
21
11.5
0
LINE
5
5F
100
AcDbEntity
8
0
6
CONTINUOUS
62
7
370
-1
100
AcDbLine
10
13
20
42
11
13
21
44.5
0
LINE
5
60
100
AcDbEntity
8
0
6
CONTINUOUS
62
7
370
-1
100
AcDbLine
10
14
20
14
11
14
21
14.5
0
LINE
5
61
100
AcDbEntity
8
0
6
CONTINUOUS
62
7
370
-1
100
AcDbLine
10
14.5
20
14
11
14.5
21
14.5
0
LINE
5
62
100
AcDbEntity
8
0
6
CONTINUOUS
62
7
370
-1
100
AcDbLine
10
14.5
20
42
11
14.5
21
44
0
LINE
5
63
100
AcDbEntity
8
0
6
CONTINUOUS
62
7
370
-1
100
AcDbLine
10
17.5
20
44
11
17.5
21
46
0
LINE
5
64
100
AcDbEntity
8
0
6
CONTINUOUS
62
7
370
-1
100
AcDbLine
10
18
20
12
11
18
21
12.5
0
LINE
5
65
100
AcDbEntity
8
0
6
CONTINUOUS
62
7
370
-1
100
AcDbLine
10
18.5
20
10
11
18.5
21
11.5
0
LINE
5
66
100
AcDbEntity
8
0
6
CONTINUOUS
62
7
370
-1
100
AcDbLine
10
19
20
41.5
11
19
21
44
0
LINE
5
67
100
AcDbEntity
8
0
6
CONTINUOUS
62
7
370
-1
100
AcDbLine
10
19.5
20
46.5
11
19.5
21
48
0
LINE
5
68
100
AcDbEntity
8
0
6
CONTINUOUS
62
7
370
-1
100
AcDbLine
10
20
20
10
11
20
21
13.5
0
LINE
5
69
100
AcDbEntity
8
0
6
CONTINUOUS
62
7
370
-1
100
AcDbLine
10
22.5
20
58
11
22.5
21
62
0
LINE
5
6A
100
AcDbEntity
8
0
6
CONTINUOUS
62
7
370
-1
100
AcDbLine
10
24.5
20
54
11
24.5
21
54.5
0
LINE
5
6B
100
AcDbEntity
8
0
6
CONTINUOUS
62
7
370
-1
100
AcDbLine
10
25
20
37
11
25
21
38.5
0
LINE
5
6C
100
AcDbEntity
8
0
6
CONTINUOUS
62
7
370
-1
100
AcDbLine
10
25.5
20
10
11
25.5
21
10.5
0
LINE
5
6D
100
AcDbEntity
8
0
6
CONTINUOUS
62
7
370
-1
100
AcDbLine
10
25.5
20
23.5
11
25.5
21
26
0
LINE
5
6E
100
AcDbEntity
8
0
6
CONTINUOUS
62
7
370
-1
100
AcDbLine
10
26
20
8
11
26
21
8.5
0
LINE
5
6F
100
AcDbEntity
8
0
6
CONTINUOUS
62
7
370
-1
100
AcDbLine
10
27
20
18.5
11
27
21
19.5
0
LINE
5
70
100
AcDbEntity
8
0
6
CONTINUOUS
62
7
370
-1
100
AcDbLine
10
31.5
20
50
11
31.5
21
51
0
LINE
5
71
100
AcDbEntity
8
0
6
CONTINUOUS
62
7
370
-1
100
AcDbLine
10
43
20
28.5
11
43
21
32
0
LINE
5
72
100
AcDbEntity
8
0
6
CONTINUOUS
62
7
370
-1
100
AcDbLine
10
43.5
20
11
11
43.5
21
12
0
LINE
5
73
100
AcDbEntity
8
0
6
CONTINUOUS
62
7
370
-1
100
AcDbLine
10
48
20
66
11
48
21
67
0
LINE
5
74
100
AcDbEntity
8
0
6
CONTINUOUS
62
7
370
-1
100
AcDbLine
10
49
20
5
11
49
21
5.5
0
LINE
5
75
100
AcDbEntity
8
0
6
CONTINUOUS
62
7
370
-1
100
AcDbLine
10
54
20
58.5
11
54
21
60
0
LINE
5
76
100
AcDbEntity
8
0
6
CONTINUOUS
62
7
370
-1
100
AcDbLine
10
66
20
8
11
66
21
10.5
0
LINE
5
77
100
AcDbEntity
8
0
6
CONTINUOUS
62
7
370
-1
100
AcDbLine
10
25.5
20
8
11
25
21
8.5
0
LINE
5
78
100
AcDbEntity
8
0
6
CONTINUOUS
62
7
370
-1
100
AcDbLine
10
26
20
8.5
11
25.5
21
9
0
LINE
5
79
100
AcDbEntity
8
0
6
CONTINUOUS
62
7
370
-1
100
AcDbLine
10
25
20
8.5
11
26
21
9.5
0
LINE
5
7A
100
AcDbEntity
8
0
6
CONTINUOUS
62
7
370
-1
100
AcDbLine
10
18.5
20
11.5
11
18
21
12
0
LINE
5
7B
100
AcDbEntity
8
0
6
CONTINUOUS
62
7
370
-1
100
AcDbLine
10
28.5
20
12.5
11
29
21
13
0
LINE
5
7C
100
AcDbEntity
8
0
6
CONTINUOUS
62
7
370
-1
100
AcDbLine
10
12
20
13
11
12.5
21
13.5
0
LINE
5
7D
100
AcDbEntity
8
0
6
CONTINUOUS
62
7
370
-1
100
AcDbLine
10
15
20
39
11
15.5
21
39.5
0
LINE
5
7E
100
AcDbEntity
8
0
6
CONTINUOUS
62
7
370
-1
100
AcDbLine
10
9.5
20
39.5
11
9
21
40
0
LINE
5
7F
100
AcDbEntity
8
0
6
CONTINUOUS
62
7
370
-1
100
AcDbLine
10
24
20
53.5
11
24.5
21
54
0
LINE
5
80
100
AcDbEntity
8
0
6
CONTINUOUS
62
7
370
-1
100
AcDbLine
10
31
20
68.5
11
31
21
69
0
LINE
5
81
100
AcDbEntity
8
0
6
CONTINUOUS
62
7
370
-1
100
AcDbLine
10
32
20
69
11
32
21
69.5
0
LINE
5
82
100
AcDbEntity
8
0
6
CONTINUOUS
62
7
370
-1
100
AcDbLine
10
31
20
69
11
32
21
69
0
LINE
5
83
100
AcDbEntity
8
0
6
CONTINUOUS
62
7
370
-1
100
AcDbLine
10
30.5
20
69.5
11
32
21
69.5
0
LINE
5
84
100
AcDbEntity
8
0
6
CONTINUOUS
62
7
370
-1
100
AcDbLine
10
30
20
67
11
30
21
67.5
0
LINE
5
85
100
AcDbEntity
8
0
6
CONTINUOUS
62
7
370
-1
100
AcDbLine
10
30
20
67.5
11
30.5
21
67.5
0
LINE
5
86
100
AcDbEntity
8
0
6
CONTINUOUS
62
7
370
-1
100
AcDbLine
10
30.5
20
69
11
30.5
21
69.5
0
LINE
5
87
100
AcDbEntity
8
0
6
CONTINUOUS
62
7
370
-1
100
AcDbLine
10
29.5
20
69
11
30.5
21
69
0
LINE
5
88
100
AcDbEntity
8
0
6
CONTINUOUS
62
7
370
-1
100
AcDbLine
10
30.5
20
67.5
11
30.5
21
68.5
0
LINE
5
89
100
AcDbEntity
8
0
6
CONTINUOUS
62
7
370
-1
100
AcDbLine
10
30.5
20
68.5
11
31
21
68.5
0
LINE
5
8A
100
AcDbEntity
8
0
6
CONTINUOUS
62
7
370
-1
100
AcDbLine
10
29
20
68
11
29
21
68.5
0
LINE
5
8B
100
AcDbEntity
8
0
6
CONTINUOUS
62
7
370
-1
100
AcDbLine
10
28
20
68
11
29
21
68
0
LINE
5
8C
100
AcDbEntity
8
0
6
CONTINUOUS
62
7
370
-1
100
AcDbLine
10
29
20
68.5
11
29.5
21
68.5
0
LINE
5
8D
100
AcDbEntity
8
0
6
CONTINUOUS
62
7
370
-1
100
AcDbLine
10
29.5
20
68.5
11
29.5
21
69
0
LINE
5
8E
100
AcDbEntity
8
0
6
CONTINUOUS
62
7
370
-1
100
AcDbLine
10
29
20
66
11
29
21
66.5
0
LINE
5
8F
100
AcDbEntity
8
0
6
CONTINUOUS
62
7
370
-1
100
AcDbLine
10
28
20
68
11
28
21
67.5
0
LINE
5
90
100
AcDbEntity
8
0
6
CONTINUOUS
62
7
370
-1
100
AcDbLine
10
29
20
66.5
11
29.5
21
66.5
0
LINE
5
91
100
AcDbEntity
8
0
6
CONTINUOUS
62
7
370
-1
100
AcDbLine
10
27.5
20
67.5
11
28
21
67.5
0
LINE
5
92
100
AcDbEntity
8
0
6
CONTINUOUS
62
7
370
-1
100
AcDbLine
10
29.5
20
66.5
11
29.5
21
67
0
LINE
5
93
100
AcDbEntity
8
0
6
CONTINUOUS
62
7
370
-1
100
AcDbLine
10
29.5
20
67
11
30
21
67
0
LINE
5
94
100
AcDbEntity
8
0
6
CONTINUOUS
62
7
370
-1
100
AcDbLine
10
28.5
20
66
11
29
21
66
0
LINE
5
95
100
AcDbEntity
8
0
6
CONTINUOUS
62
7
370
-1
100
AcDbLine
10
27
20
66.5
11
27
21
67
0
LINE
5
96
100
AcDbEntity
8
0
6
CONTINUOUS
62
7
370
-1
100
AcDbLine
10
26
20
66.5
11
27
21
66.5
0
LINE
5
97
100
AcDbEntity
8
0
6
CONTINUOUS
62
7
370
-1
100
AcDbLine
10
27
20
67
11
27.5
21
67
0
LINE
5
98
100
AcDbEntity
8
0
6
CONTINUOUS
62
7
370
-1
100
AcDbLine
10
27.5
20
67
11
27.5
21
67.5
0
LINE
5
99
100
AcDbEntity
8
0
6
CONTINUOUS
62
7
370
-1
100
AcDbLine
10
27
20
59
11
27
21
59.5
0
LINE
5
9A
100
AcDbEntity
8
0
6
CONTINUOUS
62
7
370
-1
100
AcDbLine
10
27
20
59.5
11
28
21
59.5
0
LINE
5
9B
100
AcDbEntity
8
0
6
CONTINUOUS
62
7
370
-1
100
AcDbLine
10
28
20
59.5
11
28
21
60
0
LINE
5
9C
100
AcDbEntity
8
0
6
CONTINUOUS
62
7
370
-1
100
AcDbLine
10
26.5
20
58.5
11
26.5
21
59
0
LINE
5
9D
100
AcDbEntity
8
0
6
CONTINUOUS
62
7
370
-1
100
AcDbLine
10
26.5
20
59
11
27
21
59
0
LINE
5
9E
100
AcDbEntity
8
0
6
CONTINUOUS
62
7
370
-1
100
AcDbLine
10
26
20
58.5
11
26.5
21
58.5
0
LINE
5
9F
100
AcDbEntity
8
0
6
CONTINUOUS
62
7
370
-1
100
AcDbLine
10
26
20
58
11
26
21
58.5
0
LINE
5
A0
100
AcDbEntity
8
0
6
CONTINUOUS
62
7
370
-1
100
AcDbLine
10
25.5
20
58
11
26
21
58
0
LINE
5
A1
100
AcDbEntity
8
0
6
CONTINUOUS
62
7
370
-1
100
AcDbLine
10
25.5
20
57
11
25.5
21
58
0
LINE
5
A2
100
AcDbEntity
8
0
6
CONTINUOUS
62
7
370
-1
100
AcDbLine
10
25
20
57
11
25.5
21
57
0
LINE
5
A3
100
AcDbEntity
8
0
6
CONTINUOUS
62
7
370
-1
100
AcDbLine
10
25
20
56.5
11
25
21
57
0
LINE
5
A4
100
AcDbEntity
8
0
6
CONTINUOUS
62
7
370
-1
100
AcDbLine
10
24.5
20
56.5
11
25
21
56.5
0
LINE
5
A5
100
AcDbEntity
8
0
6
CONTINUOUS
62
7
370
-1
100
AcDbLine
10
24.5
20
56
11
24.5
21
56.5
0
LINE
5
A6
100
AcDbEntity
8
0
6
CONTINUOUS
62
7
370
-1
100
AcDbLine
10
24
20
56
11
24.5
21
56
0
LINE
5
A7
100
AcDbEntity
8
0
6
CONTINUOUS
62
7
370
-1
100
AcDbLine
10
24.5
20
64.5
11
24.5
21
65
0
LINE
5
A8
100
AcDbEntity
8
0
6
CONTINUOUS
62
7
370
-1
100
AcDbLine
10
24
20
64.5
11
24.5
21
64.5
0
LINE
5
A9
100
AcDbEntity
8
0
6
CONTINUOUS
62
7
370
-1
100
AcDbLine
10
24
20
64
11
24
21
64.5
0
LINE
5
AA
100
AcDbEntity
8
0
6
CONTINUOUS
62
7
370
-1
100
AcDbLine
10
23.5
20
64
11
24
21
64
0
LINE
5
AB
100
AcDbEntity
8
0
6
CONTINUOUS
62
7
370
-1
100
AcDbLine
10
23.5
20
63
11
23.5
21
64
0
LINE
5
AC
100
AcDbEntity
8
0
6
CONTINUOUS
62
7
370
-1
100
AcDbLine
10
23
20
63
11
23.5
21
63
0
LINE
5
AD
100
AcDbEntity
8
0
6
CONTINUOUS
62
7
370
-1
100
AcDbLine
10
23
20
62
11
23
21
63
0
LINE
5
AE
100
AcDbEntity
8
0
6
CONTINUOUS
62
7
370
-1
100
AcDbLine
10
22.5
20
62
11
23
21
62
0
LINE
5
AF
100
AcDbEntity
8
0
6
CONTINUOUS
62
7
370
-1
100
AcDbLine
10
25.5
20
65.5
11
25.5
21
65
0
LINE
5
B0
100
AcDbEntity
8
0
6
CONTINUOUS
62
7
370
-1
100
AcDbLine
10
24.5
20
65
11
25.5
21
65
0
LINE
5
B1
100
AcDbEntity
8
0
6
CONTINUOUS
62
7
370
-1
100
AcDbLine
10
26
20
65.5
11
26
21
66.5
0
LINE
5
B2
100
AcDbEntity
8
0
6
CONTINUOUS
62
7
370
-1
100
AcDbLine
10
25.5
20
65.5
11
26
21
65.5
0
LINE
5
B3
100
AcDbEntity
8
0
6
CONTINUOUS
62
7
370
-1
100
AcDbLine
10
22.5
20
58
11
23
21
58
0
LINE
5
B4
100
AcDbEntity
8
0
6
CONTINUOUS
62
7
370
-1
100
AcDbLine
10
28.5
20
64
11
29
21
64
0
LINE
5
B5
100
AcDbEntity
8
0
6
CONTINUOUS
62
7
370
-1
100
AcDbLine
10
28.5
20
64
11
28.5
21
66
0
LINE
5
B6
100
AcDbEntity
8
0
6
CONTINUOUS
62
7
370
-1
100
AcDbLine
10
29
20
63
11
29
21
64
0
LINE
5
B7
100
AcDbEntity
8
0
6
CONTINUOUS
62
7
370
-1
100
AcDbLine
10
31
20
63
11
31
21
63.5
0
LINE
5
B8
100
AcDbEntity
8
0
6
CONTINUOUS
62
7
370
-1
100
AcDbLine
10
29
20
63
11
31
21
63
0
LINE
5
B9
100
AcDbEntity
8
0
6
CONTINUOUS
62
7
370
-1
100
AcDbLine
10
31
20
58.5
11
31.5
21
58.5
0
LINE
5
BA
100
AcDbEntity
8
0
6
CONTINUOUS
62
7
370
-1
100
AcDbLine
10
31
20
57.5
11
31
21
58.5
0
LINE
5
BB
100
AcDbEntity
8
0
6
CONTINUOUS
62
7
370
-1
100
AcDbLine
10
30.5
20
57
11
30.5
21
57.5
0
LINE
5
BC
100
AcDbEntity
8
0
6
CONTINUOUS
62
7
370
-1
100
AcDbLine
10
30.5
20
57.5
11
31
21
57.5
0
LINE
5
BD
100
AcDbEntity
8
0
6
CONTINUOUS
62
7
370
-1
100
AcDbLine
10
30
20
56
11
30
21
57
0
LINE
5
BE
100
AcDbEntity
8
0
6
CONTINUOUS
62
7
370
-1
100
AcDbLine
10
30
20
57
11
30.5
21
57
0
LINE
5
BF
100
AcDbEntity
8
0
6
CONTINUOUS
62
7
370
-1
100
AcDbLine
10
29.5
20
55.5
11
29.5
21
56
0
LINE
5
C0
100
AcDbEntity
8
0
6
CONTINUOUS
62
7
370
-1
100
AcDbLine
10
29.5
20
56
11
30
21
56
0
LINE
5
C1
100
AcDbEntity
8
0
6
CONTINUOUS
62
7
370
-1
100
AcDbLine
10
29
20
59
11
29.5
21
59
0
LINE
5
C2
100
AcDbEntity
8
0
6
CONTINUOUS
62
7
370
-1
100
AcDbLine
10
28
20
60
11
29.5
21
60
0
LINE
5
C3
100
AcDbEntity
8
0
6
CONTINUOUS
62
7
370
-1
100
AcDbLine
10
29.5
20
59
11
29.5
21
60
0
LINE
5
C4
100
AcDbEntity
8
0
6
CONTINUOUS
62
7
370
-1
100
AcDbLine
10
31.5
20
58.5
11
31.5
21
59
0
LINE
5
C5
100
AcDbEntity
8
0
6
CONTINUOUS
62
7
370
-1
100
AcDbLine
10
43
20
60.5
11
43
21
61.5
0
LINE
5
C6
100
AcDbEntity
8
0
6
CONTINUOUS
62
7
370
-1
100
AcDbLine
10
43
20
60.5
11
43.5
21
60.5
0
LINE
5
C7
100
AcDbEntity
8
0
6
CONTINUOUS
62
7
370
-1
100
AcDbLine
10
42
20
61.5
11
43
21
61.5
0
LINE
5
C8
100
AcDbEntity
8
0
6
CONTINUOUS
62
7
370
-1
100
AcDbLine
10
42
20
61.5
11
42
21
62
0
LINE
5
C9
100
AcDbEntity
8
0
6
CONTINUOUS
62
7
370
-1
100
AcDbLine
10
41
20
62
11
42
21
62
0
LINE
5
CA
100
AcDbEntity
8
0
6
CONTINUOUS
62
7
370
-1
100
AcDbLine
10
41
20
62
11
41
21
62.5
0
LINE
5
CB
100
AcDbEntity
8
0
6
CONTINUOUS
62
7
370
-1
100
AcDbLine
10
40.5
20
62.5
11
41
21
62.5
0
LINE
5
CC
100
AcDbEntity
8
0
6
CONTINUOUS
62
7
370
-1
100
AcDbLine
10
40.5
20
62.5
11
40.5
21
63
0
LINE
5
CD
100
AcDbEntity
8
0
6
CONTINUOUS
62
7
370
-1
100
AcDbLine
10
39
20
63
11
40.5
21
63
0
LINE
5
CE
100
AcDbEntity
8
0
6
CONTINUOUS
62
7
370
-1
100
AcDbLine
10
39
20
63
11
39
21
63.5
0
LINE
5
CF
100
AcDbEntity
8
0
6
CONTINUOUS
62
7
370
-1
100
AcDbLine
10
31
20
63.5
11
33.5
21
63.5
0
LINE
5
D0
100
AcDbEntity
8
0
6
CONTINUOUS
62
7
370
-1
100
AcDbLine
10
33.5
20
63.5
11
33.5
21
64
0
LINE
5
D1
100
AcDbEntity
8
0
6
CONTINUOUS
62
7
370
-1
100
AcDbLine
10
36.5
20
63.5
11
36.5
21
64
0
LINE
5
D2
100
AcDbEntity
8
0
6
CONTINUOUS
62
7
370
-1
100
AcDbLine
10
36.5
20
63.5
11
39
21
63.5
0
LINE
5
D3
100
AcDbEntity
8
0
6
CONTINUOUS
62
7
370
-1
100
AcDbLine
10
43.5
20
60
11
43.5
21
60.5
0
LINE
5
D4
100
AcDbEntity
8
0
6
CONTINUOUS
62
7
370
-1
100
AcDbLine
10
44
20
60
11
43.5
21
60
0
LINE
5
D5
100
AcDbEntity
8
0
6
CONTINUOUS
62
7
370
-1
100
AcDbLine
10
49
20
66.5
11
49
21
67
0
LINE
5
D6
100
AcDbEntity
8
0
6
CONTINUOUS
62
7
370
-1
100
AcDbLine
10
49
20
66.5
11
50
21
66.5
0
LINE
5
D7
100
AcDbEntity
8
0
6
CONTINUOUS
62
7
370
-1
100
AcDbLine
10
48
20
66
11
48.5
21
66
0
LINE
5
D8
100
AcDbEntity
8
0
6
CONTINUOUS
62
7
370
-1
100
AcDbLine
10
48.5
20
64
11
48.5
21
66
0
LINE
5
D9
100
AcDbEntity
8
0
6
CONTINUOUS
62
7
370
-1
100
AcDbLine
10
48.5
20
64
11
49
21
64
0
LINE
5
DA
100
AcDbEntity
8
0
6
CONTINUOUS
62
7
370
-1
100
AcDbLine
10
48.5
20
60
11
48.5
21
60.5
0
LINE
5
DB
100
AcDbEntity
8
0
6
CONTINUOUS
62
7
370
-1
100
AcDbLine
10
46.5
20
60
11
48.5
21
60
0
LINE
5
DC
100
AcDbEntity
8
0
6
CONTINUOUS
62
7
370
-1
100
AcDbLine
10
53.5
20
60
11
53.5
21
62
0
LINE
5
DD
100
AcDbEntity
8
0
6
CONTINUOUS
62
7
370
-1
100
AcDbLine
10
53.5
20
60
11
54
21
60
0
LINE
5
DE
100
AcDbEntity
8
0
6
CONTINUOUS
62
7
370
-1
100
AcDbLine
10
50
20
66
11
50.5
21
66
0
LINE
5
DF
100
AcDbEntity
8
0
6
CONTINUOUS
62
7
370
-1
100
AcDbLine
10
50
20
66
11
50
21
66.5
0
LINE
5
E0
100
AcDbEntity
8
0
6
CONTINUOUS
62
7
370
-1
100
AcDbLine
10
50.5
20
65.5
11
50.5
21
66
0
LINE
5
E1
100
AcDbEntity
8
0
6
CONTINUOUS
62
7
370
-1
100
AcDbLine
10
50.5
20
65.5
11
51
21
65.5
0
LINE
5
E2
100
AcDbEntity
8
0
6
CONTINUOUS
62
7
370
-1
100
AcDbLine
10
51
20
65
11
51
21
65.5
0
LINE
5
E3
100
AcDbEntity
8
0
6
CONTINUOUS
62
7
370
-1
100
AcDbLine
10
51
20
65
11
51.5
21
65
0
LINE
5
E4
100
AcDbEntity
8
0
6
CONTINUOUS
62
7
370
-1
100
AcDbLine
10
51.5
20
64.5
11
51.5
21
65
0
LINE
5
E5
100
AcDbEntity
8
0
6
CONTINUOUS
62
7
370
-1
100
AcDbLine
10
51.5
20
64.5
11
52
21
64.5
0
LINE
5
E6
100
AcDbEntity
8
0
6
CONTINUOUS
62
7
370
-1
100
AcDbLine
10
52
20
63.5
11
52
21
64.5
0
LINE
5
E7
100
AcDbEntity
8
0
6
CONTINUOUS
62
7
370
-1
100
AcDbLine
10
52
20
63.5
11
52.5
21
63.5
0
LINE
5
E8
100
AcDbEntity
8
0
6
CONTINUOUS
62
7
370
-1
100
AcDbLine
10
52.5
20
62.5
11
52.5
21
63.5
0
LINE
5
E9
100
AcDbEntity
8
0
6
CONTINUOUS
62
7
370
-1
100
AcDbLine
10
52.5
20
62.5
11
53
21
62.5
0
LINE
5
EA
100
AcDbEntity
8
0
6
CONTINUOUS
62
7
370
-1
100
AcDbLine
10
53
20
62
11
53
21
62.5
0
LINE
5
EB
100
AcDbEntity
8
0
6
CONTINUOUS
62
7
370
-1
100
AcDbLine
10
53
20
62
11
53.5
21
62
0
LINE
5
EC
100
AcDbEntity
8
0
6
CONTINUOUS
62
7
370
-1
100
AcDbLine
10
44
20
59.5
11
44
21
60
0
LINE
5
ED
100
AcDbEntity
8
0
6
CONTINUOUS
62
7
370
-1
100
AcDbLine
10
44
20
59.5
11
46.5
21
59.5
0
LINE
5
EE
100
AcDbEntity
8
0
6
CONTINUOUS
62
7
370
-1
100
AcDbLine
10
46.5
20
59.5
11
46.5
21
60
0
LINE
5
EF
100
AcDbEntity
8
0
6
CONTINUOUS
62
7
370
-1
100
AcDbLine
10
34.5
20
57
11
35
21
57
0
LINE
5
F0
100
AcDbEntity
8
0
6
CONTINUOUS
62
7
370
-1
100
AcDbLine
10
44.5
20
43
11
44.5
21
43.5
0
LINE
5
F1
100
AcDbEntity
8
0
6
CONTINUOUS
62
7
370
-1
100
AcDbLine
10
44.5
20
43.5
11
45
21
43.5
0
LINE
5
F2
100
AcDbEntity
8
0
6
CONTINUOUS
62
7
370
-1
100
AcDbLine
10
45
20
43.5
11
45
21
44
0
LINE
5
F3
100
AcDbEntity
8
0
6
CONTINUOUS
62
7
370
-1
100
AcDbLine
10
45
20
44
11
45.5
21
44
0
LINE
5
F4
100
AcDbEntity
8
0
6
CONTINUOUS
62
7
370
-1
100
AcDbLine
10
45.5
20
44
11
45.5
21
45
0
LINE
5
F5
100
AcDbEntity
8
0
6
CONTINUOUS
62
7
370
-1
100
AcDbLine
10
45.5
20
45
11
46
21
45
0
LINE
5
F6
100
AcDbEntity
8
0
6
CONTINUOUS
62
7
370
-1
100
AcDbLine
10
46
20
45
11
46
21
45.5
0
LINE
5
F7
100
AcDbEntity
8
0
6
CONTINUOUS
62
7
370
-1
100
AcDbLine
10
46
20
45.5
11
46.5
21
45.5
0
LINE
5
F8
100
AcDbEntity
8
0
6
CONTINUOUS
62
7
370
-1
100
AcDbLine
10
47
20
50.5
11
47
21
51
0
LINE
5
F9
100
AcDbEntity
8
0
6
CONTINUOUS
62
7
370
-1
100
AcDbLine
10
47
20
51
11
48
21
51
0
LINE
5
FA
100
AcDbEntity
8
0
6
CONTINUOUS
62
7
370
-1
100
AcDbLine
10
48
20
51
11
48
21
51.5
0
LINE
5
FB
100
AcDbEntity
8
0
6
CONTINUOUS
62
7
370
-1
100
AcDbLine
10
48
20
51.5
11
48.5
21
51.5
0
LINE
5
FC
100
AcDbEntity
8
0
6
CONTINUOUS
62
7
370
-1
100
AcDbLine
10
48.5
20
51.5
11
48.5
21
52
0
LINE
5
FD
100
AcDbEntity
8
0
6
CONTINUOUS
62
7
370
-1
100
AcDbLine
10
48.5
20
52
11
49
21
52
0
LINE
5
FE
100
AcDbEntity
8
0
6
CONTINUOUS
62
7
370
-1
100
AcDbLine
10
49
20
52
11
49
21
52.5
0
LINE
5
FF
100
AcDbEntity
8
0
6
CONTINUOUS
62
7
370
-1
100
AcDbLine
10
49
20
52.5
11
50
21
52.5
0
LINE
5
100
100
AcDbEntity
8
0
6
CONTINUOUS
62
7
370
-1
100
AcDbLine
10
50
20
52.5
11
50
21
53
0
LINE
5
101
100
AcDbEntity
8
0
6
CONTINUOUS
62
7
370
-1
100
AcDbLine
10
50
20
53
11
50.5
21
53
0
LINE
5
102
100
AcDbEntity
8
0
6
CONTINUOUS
62
7
370
-1
100
AcDbLine
10
50.5
20
53
11
50.5
21
53.5
0
LINE
5
103
100
AcDbEntity
8
0
6
CONTINUOUS
62
7
370
-1
100
AcDbLine
10
50.5
20
53.5
11
51
21
53.5
0
LINE
5
104
100
AcDbEntity
8
0
6
CONTINUOUS
62
7
370
-1
100
AcDbLine
10
51
20
53.5
11
51
21
54
0
LINE
5
105
100
AcDbEntity
8
0
6
CONTINUOUS
62
7
370
-1
100
AcDbLine
10
51
20
54
11
51.5
21
54
0
LINE
5
106
100
AcDbEntity
8
0
6
CONTINUOUS
62
7
370
-1
100
AcDbLine
10
51.5
20
54
11
51.5
21
55
0
LINE
5
107
100
AcDbEntity
8
0
6
CONTINUOUS
62
7
370
-1
100
AcDbLine
10
51.5
20
55
11
52
21
55
0
LINE
5
108
100
AcDbEntity
8
0
6
CONTINUOUS
62
7
370
-1
100
AcDbLine
10
52
20
55
11
52
21
55.5
0
LINE
5
109
100
AcDbEntity
8
0
6
CONTINUOUS
62
7
370
-1
100
AcDbLine
10
52
20
55.5
11
52.5
21
55.5
0
LINE
5
10A
100
AcDbEntity
8
0
6
CONTINUOUS
62
7
370
-1
100
AcDbLine
10
52.5
20
55.5
11
52.5
21
56
0
LINE
5
10B
100
AcDbEntity
8
0
6
CONTINUOUS
62
7
370
-1
100
AcDbLine
10
52.5
20
56
11
53
21
56
0
LINE
5
10C
100
AcDbEntity
8
0
6
CONTINUOUS
62
7
370
-1
100
AcDbLine
10
53
20
56
11
53
21
56.5
0
LINE
5
10D
100
AcDbEntity
8
0
6
CONTINUOUS
62
7
370
-1
100
AcDbLine
10
53
20
56.5
11
53.5
21
56.5
0
LINE
5
10E
100
AcDbEntity
8
0
6
CONTINUOUS
62
7
370
-1
100
AcDbLine
10
53.5
20
58.5
11
54
21
58.5
0
LINE
5
10F
100
AcDbEntity
8
0
6
CONTINUOUS
62
7
370
-1
100
AcDbLine
10
53.5
20
56.5
11
53.5
21
58.5
0
LINE
5
110
100
AcDbEntity
8
0
6
CONTINUOUS
62
7
370
-1
100
AcDbLine
10
48.5
20
60.5
11
49
21
60.5
0
LINE
5
111
100
AcDbEntity
8
0
6
CONTINUOUS
62
7
370
-1
100
AcDbLine
10
49
20
60.5
11
49
21
64
0
LINE
5
112
100
AcDbEntity
8
0
6
CONTINUOUS
62
7
370
-1
100
AcDbLine
10
46.5
20
45.5
11
46.5
21
50.5
0
LINE
5
113
100
AcDbEntity
8
0
6
CONTINUOUS
62
7
370
-1
100
AcDbLine
10
46.5
20
50.5
11
47
21
50.5
0
LINE
5
114
100
AcDbEntity
8
0
6
CONTINUOUS
62
7
370
-1
100
AcDbLine
10
34
20
58.5
11
34
21
59
0
LINE
5
115
100
AcDbEntity
8
0
6
CONTINUOUS
62
7
370
-1
100
AcDbLine
10
31.5
20
59
11
34
21
59
0
LINE
5
116
100
AcDbEntity
8
0
6
CONTINUOUS
62
7
370
-1
100
AcDbLine
10
34.5
20
58
11
34.5
21
58.5
0
LINE
5
117
100
AcDbEntity
8
0
6
CONTINUOUS
62
7
370
-1
100
AcDbLine
10
34
20
58.5
11
34.5
21
58.5
0
LINE
5
118
100
AcDbEntity
8
0
6
CONTINUOUS
62
7
370
-1
100
AcDbLine
10
34.5
20
58
11
35
21
58
0
LINE
5
119
100
AcDbEntity
8
0
6
CONTINUOUS
62
7
370
-1
100
AcDbLine
10
58.5
20
5
11
64
21
5
0
LINE
5
11A
100
AcDbEntity
8
0
6
CONTINUOUS
62
7
370
-1
100
AcDbLine
10
58.5
20
4.5
11
58.5
21
5
0
LINE
5
11B
100
AcDbEntity
8
0
6
CONTINUOUS
62
7
370
-1
100
AcDbLine
10
58.5
20
7.5
11
58.5
21
8.5
0
LINE
5
11C
100
AcDbEntity
8
0
6
CONTINUOUS
62
7
370
-1
100
AcDbLine
10
49
20
5
11
49.5
21
5
0
LINE
5
11D
100
AcDbEntity
8
0
6
CONTINUOUS
62
7
370
-1
100
AcDbLine
10
49.5
20
4.5
11
49.5
21
5
0
LINE
5
11E
100
AcDbEntity
8
0
6
CONTINUOUS
62
7
370
-1
100
AcDbLine
10
50.5
20
5.5
11
50.5
21
6
0
LINE
5
11F
100
AcDbEntity
8
0
6
CONTINUOUS
62
7
370
-1
100
AcDbLine
10
49
20
5.5
11
50.5
21
5.5
0
LINE
5
120
100
AcDbEntity
8
0
6
CONTINUOUS
62
7
370
-1
100
AcDbLine
10
52
20
6
11
52
21
6.5
0
LINE
5
121
100
AcDbEntity
8
0
6
CONTINUOUS
62
7
370
-1
100
AcDbLine
10
50.5
20
6
11
52
21
6
0
LINE
5
122
100
AcDbEntity
8
0
6
CONTINUOUS
62
7
370
-1
100
AcDbLine
10
53.5
20
6.5
11
53.5
21
7
0
LINE
5
123
100
AcDbEntity
8
0
6
CONTINUOUS
62
7
370
-1
100
AcDbLine
10
52
20
6.5
11
53.5
21
6.5
0
LINE
5
124
100
AcDbEntity
8
0
6
CONTINUOUS
62
7
370
-1
100
AcDbLine
10
54.5
20
7
11
54.5
21
7.5
0
LINE
5
125
100
AcDbEntity
8
0
6
CONTINUOUS
62
7
370
-1
100
AcDbLine
10
53.5
20
7
11
54.5
21
7
0
LINE
5
126
100
AcDbEntity
8
0
6
CONTINUOUS
62
7
370
-1
100
AcDbLine
10
55
20
7.5
11
55
21
8
0
LINE
5
127
100
AcDbEntity
8
0
6
CONTINUOUS
62
7
370
-1
100
AcDbLine
10
54.5
20
7.5
11
55
21
7.5
0
LINE
5
128
100
AcDbEntity
8
0
6
CONTINUOUS
62
7
370
-1
100
AcDbLine
10
56
20
8
11
56
21
8.5
0
LINE
5
129
100
AcDbEntity
8
0
6
CONTINUOUS
62
7
370
-1
100
AcDbLine
10
55
20
8
11
56
21
8
0
LINE
5
12A
100
AcDbEntity
8
0
6
CONTINUOUS
62
7
370
-1
100
AcDbLine
10
56
20
8.5
11
56.5
21
8.5
0
LINE
5
12B
100
AcDbEntity
8
0
6
CONTINUOUS
62
7
370
-1
100
AcDbLine
10
56.5
20
8.5
11
56.5
21
9
0
LINE
5
12C
100
AcDbEntity
8
0
6
CONTINUOUS
62
7
370
-1
100
AcDbLine
10
56.5
20
9
11
57
21
9
0
LINE
5
12D
100
AcDbEntity
8
0
6
CONTINUOUS
62
7
370
-1
100
AcDbLine
10
64
20
5.5
11
64.5
21
5.5
0
LINE
5
12E
100
AcDbEntity
8
0
6
CONTINUOUS
62
7
370
-1
100
AcDbLine
10
58
20
8.5
11
58
21
9.5
0
LINE
5
12F
100
AcDbEntity
8
0
6
CONTINUOUS
62
7
370
-1
100
AcDbLine
10
58
20
8.5
11
58.5
21
8.5
0
LINE
5
130
100
AcDbEntity
8
0
6
CONTINUOUS
62
7
370
-1
100
AcDbLine
10
57.5
20
9.5
11
57.5
21
10
0
LINE
5
131
100
AcDbEntity
8
0
6
CONTINUOUS
62
7
370
-1
100
AcDbLine
10
57
20
9.5
11
58
21
9.5
0
LINE
5
132
100
AcDbEntity
8
0
6
CONTINUOUS
62
7
370
-1
100
AcDbLine
10
57
20
9
11
57
21
9.5
0
LINE
5
133
100
AcDbEntity
8
0
6
CONTINUOUS
62
7
370
-1
100
AcDbLine
10
60.5
20
7.5
11
60.5
21
8
0
LINE
5
134
100
AcDbEntity
8
0
6
CONTINUOUS
62
7
370
-1
100
AcDbLine
10
58.5
20
7.5
11
60.5
21
7.5
0
LINE
5
135
100
AcDbEntity
8
0
6
CONTINUOUS
62
7
370
-1
100
AcDbLine
10
64
20
7
11
65
21
7
0
LINE
5
136
100
AcDbEntity
8
0
6
CONTINUOUS
62
7
370
-1
100
AcDbLine
10
64
20
5
11
64
21
7
0
LINE
5
137
100
AcDbEntity
8
0
6
CONTINUOUS
62
7
370
-1
100
AcDbLine
10
62.5
20
8.5
11
63.5
21
8.5
0
LINE
5
138
100
AcDbEntity
8
0
6
CONTINUOUS
62
7
370
-1
100
AcDbLine
10
65.5
20
7.5
11
65.5
21
8
0
LINE
5
139
100
AcDbEntity
8
0
6
CONTINUOUS
62
7
370
-1
100
AcDbLine
10
65.5
20
8
11
66
21
8
0
LINE
5
13A
100
AcDbEntity
8
0
6
CONTINUOUS
62
7
370
-1
100
AcDbLine
10
62.5
20
8
11
62.5
21
8.5
0
LINE
5
13B
100
AcDbEntity
8
0
6
CONTINUOUS
62
7
370
-1
100
AcDbLine
10
60.5
20
8
11
62.5
21
8
0
LINE
5
13C
100
AcDbEntity
8
0
6
CONTINUOUS
62
7
370
-1
100
AcDbLine
10
65
20
7.5
11
65.5
21
7.5
0
LINE
5
13D
100
AcDbEntity
8
0
6
CONTINUOUS
62
7
370
-1
100
AcDbLine
10
65
20
7
11
65
21
7.5
0
LINE
5
13E
100
AcDbEntity
8
0
6
CONTINUOUS
62
7
370
-1
100
AcDbLine
10
34.5
20
50.5
11
35
21
50.5
0
LINE
5
13F
100
AcDbEntity
8
0
6
CONTINUOUS
62
7
370
-1
100
AcDbLine
10
35
20
50.5
11
35
21
58
0
LINE
5
140
100
AcDbEntity
8
0
6
CONTINUOUS
62
7
370
-1
100
AcDbLine
10
34.5
20
48.5
11
34.5
21
50.5
0
LINE
5
141
100
AcDbEntity
8
0
6
CONTINUOUS
62
7
370
-1
100
AcDbLine
10
34
20
48.5
11
34.5
21
48.5
0
LINE
5
142
100
AcDbEntity
8
0
6
CONTINUOUS
62
7
370
-1
100
AcDbLine
10
34
20
48
11
34
21
48.5
0
LINE
5
143
100
AcDbEntity
8
0
6
CONTINUOUS
62
7
370
-1
100
AcDbLine
10
33.5
20
48
11
34
21
48
0
LINE
5
144
100
AcDbEntity
8
0
6
CONTINUOUS
62
7
370
-1
100
AcDbLine
10
33.5
20
47
11
33.5
21
48
0
LINE
5
145
100
AcDbEntity
8
0
6
CONTINUOUS
62
7
370
-1
100
AcDbLine
10
30.5
20
47
11
33.5
21
47
0
LINE
5
146
100
AcDbEntity
8
0
6
CONTINUOUS
62
7
370
-1
100
AcDbLine
10
20
20
48
11
20
21
49
0
LINE
5
147
100
AcDbEntity
8
0
6
CONTINUOUS
62
7
370
-1
100
AcDbLine
10
19.5
20
48
11
20
21
48
0
LINE
5
148
100
AcDbEntity
8
0
6
CONTINUOUS
62
7
370
-1
100
AcDbLine
10
20
20
49
11
20.5
21
49
0
LINE
5
149
100
AcDbEntity
8
0
6
CONTINUOUS
62
7
370
-1
100
AcDbLine
10
20.5
20
49
11
20.5
21
49.5
0
LINE
5
14A
100
AcDbEntity
8
0
6
CONTINUOUS
62
7
370
-1
100
AcDbLine
10
20.5
20
49.5
11
21
21
49.5
0
LINE
5
14B
100
AcDbEntity
8
0
6
CONTINUOUS
62
7
370
-1
100
AcDbLine
10
21
20
49.5
11
21
21
50
0
LINE
5
14C
100
AcDbEntity
8
0
6
CONTINUOUS
62
7
370
-1
100
AcDbLine
10
21
20
50
11
21.5
21
50
0
LINE
5
14D
100
AcDbEntity
8
0
6
CONTINUOUS
62
7
370
-1
100
AcDbLine
10
21.5
20
50
11
21.5
21
50.5
0
LINE
5
14E
100
AcDbEntity
8
0
6
CONTINUOUS
62
7
370
-1
100
AcDbLine
10
21.5
20
50.5
11
22
21
50.5
0
LINE
5
14F
100
AcDbEntity
8
0
6
CONTINUOUS
62
7
370
-1
100
AcDbLine
10
22
20
50.5
11
22
21
51.5
0
LINE
5
150
100
AcDbEntity
8
0
6
CONTINUOUS
62
7
370
-1
100
AcDbLine
10
22
20
51.5
11
22.5
21
51.5
0
LINE
5
151
100
AcDbEntity
8
0
6
CONTINUOUS
62
7
370
-1
100
AcDbLine
10
22.5
20
51.5
11
22.5
21
53.5
0
LINE
5
152
100
AcDbEntity
8
0
6
CONTINUOUS
62
7
370
-1
100
AcDbLine
10
23
20
53.5
11
23
21
58
0
LINE
5
153
100
AcDbEntity
8
0
6
CONTINUOUS
62
7
370
-1
100
AcDbLine
10
22.5
20
53.5
11
23
21
53.5
0
LINE
5
154
100
AcDbEntity
8
0
6
CONTINUOUS
62
7
370
-1
100
AcDbLine
10
24
20
52.5
11
24
21
53.5
0
LINE
5
155
100
AcDbEntity
8
0
6
CONTINUOUS
62
7
370
-1
100
AcDbLine
10
24
20
52.5
11
25
21
52.5
0
LINE
5
156
100
AcDbEntity
8
0
6
CONTINUOUS
62
7
370
-1
100
AcDbLine
10
25
20
52.5
11
25
21
53
0
LINE
5
157
100
AcDbEntity
8
0
6
CONTINUOUS
62
7
370
-1
100
AcDbLine
10
24
20
54.5
11
24
21
56
0
LINE
5
158
100
AcDbEntity
8
0
6
CONTINUOUS
62
7
370
-1
100
AcDbLine
10
24
20
54.5
11
26
21
54.5
0
LINE
5
159
100
AcDbEntity
8
0
6
CONTINUOUS
62
7
370
-1
100
AcDbLine
10
25.5
20
53
11
25.5
21
54.5
0
LINE
5
15A
100
AcDbEntity
8
0
6
CONTINUOUS
62
7
370
-1
100
AcDbLine
10
25
20
53
11
25.5
21
53
0
LINE
5
15B
100
AcDbEntity
8
0
6
CONTINUOUS
62
7
370
-1
100
AcDbLine
10
26
20
54
11
26
21
54.5
0
LINE
5
15C
100
AcDbEntity
8
0
6
CONTINUOUS
62
7
370
-1
100
AcDbLine
10
26
20
54
11
26.5
21
54
0
LINE
5
15D
100
AcDbEntity
8
0
6
CONTINUOUS
62
7
370
-1
100
AcDbLine
10
26.5
20
52.5
11
26.5
21
54
0
LINE
5
15E
100
AcDbEntity
8
0
6
CONTINUOUS
62
7
370
-1
100
AcDbLine
10
26.5
20
52.5
11
27.5
21
52.5
0
LINE
5
15F
100
AcDbEntity
8
0
6
CONTINUOUS
62
7
370
-1
100
AcDbLine
10
27.5
20
52.5
11
27.5
21
54
0
LINE
5
160
100
AcDbEntity
8
0
6
CONTINUOUS
62
7
370
-1
100
AcDbLine
10
28
20
55.5
11
28.5
21
55.5
0
LINE
5
161
100
AcDbEntity
8
0
6
CONTINUOUS
62
7
370
-1
100
AcDbLine
10
28.5
20
55.5
11
28.5
21
56.5
0
LINE
5
162
100
AcDbEntity
8
0
6
CONTINUOUS
62
7
370
-1
100
AcDbLine
10
27.5
20
54
11
28
21
54
0
LINE
5
163
100
AcDbEntity
8
0
6
CONTINUOUS
62
7
370
-1
100
AcDbLine
10
28
20
54
11
28
21
55.5
0
LINE
5
164
100
AcDbEntity
8
0
6
CONTINUOUS
62
7
370
-1
100
AcDbLine
10
29
20
53.5
11
30.5
21
53.5
0
LINE
5
165
100
AcDbEntity
8
0
6
CONTINUOUS
62
7
370
-1
100
AcDbLine
10
29
20
55.5
11
29.5
21
55.5
0
LINE
5
166
100
AcDbEntity
8
0
6
CONTINUOUS
62
7
370
-1
100
AcDbLine
10
28.5
20
56.5
11
29
21
56.5
0
LINE
5
167
100
AcDbEntity
8
0
6
CONTINUOUS
62
7
370
-1
100
AcDbLine
10
29
20
56.5
11
29
21
59
0
LINE
5
168
100
AcDbEntity
8
0
6
CONTINUOUS
62
7
370
-1
100
AcDbLine
10
30.5
20
53
11
30.5
21
53.5
0
LINE
5
169
100
AcDbEntity
8
0
6
CONTINUOUS
62
7
370
-1
100
AcDbLine
10
30.5
20
53
11
31
21
53
0
LINE
5
16A
100
AcDbEntity
8
0
6
CONTINUOUS
62
7
370
-1
100
AcDbLine
10
30.5
20
47
11
30.5
21
49
0
LINE
5
16B
100
AcDbEntity
8
0
6
CONTINUOUS
62
7
370
-1
100
AcDbLine
10
30.5
20
49
11
31
21
49
0
LINE
5
16C
100
AcDbEntity
8
0
6
CONTINUOUS
62
7
370
-1
100
AcDbLine
10
31
20
50
11
31.5
21
50
0
LINE
5
16D
100
AcDbEntity
8
0
6
CONTINUOUS
62
7
370
-1
100
AcDbLine
10
31
20
49
11
31
21
50
0
LINE
5
16E
100
AcDbEntity
8
0
6
CONTINUOUS
62
7
370
-1
100
AcDbLine
10
31
20
51
11
31
21
53
0
LINE
5
16F
100
AcDbEntity
8
0
6
CONTINUOUS
62
7
370
-1
100
AcDbLine
10
31
20
51
11
31.5
21
51
0
LINE
5
170
100
AcDbEntity
8
0
6
CONTINUOUS
62
7
370
-1
100
AcDbLine
10
14.5
20
47.5
11
14.5
21
48
0
LINE
5
171
100
AcDbEntity
8
0
6
CONTINUOUS
62
7
370
-1
100
AcDbLine
10
14.5
20
48
11
15
21
48
0
LINE
5
172
100
AcDbEntity
8
0
6
CONTINUOUS
62
7
370
-1
100
AcDbLine
10
15
20
48
11
15
21
47.5
0
LINE
5
173
100
AcDbEntity
8
0
6
CONTINUOUS
62
7
370
-1
100
AcDbLine
10
15
20
47.5
11
14.5
21
47.5
0
LINE
5
174
100
AcDbEntity
8
0
6
CONTINUOUS
62
7
370
-1
100
AcDbLine
10
15
20
46.5
11
15
21
47
0
LINE
5
175
100
AcDbEntity
8
0
6
CONTINUOUS
62
7
370
-1
100
AcDbLine
10
15
20
47
11
15.5
21
47
0
LINE
5
176
100
AcDbEntity
8
0
6
CONTINUOUS
62
7
370
-1
100
AcDbLine
10
15.5
20
47
11
15.5
21
46.5
0
LINE
5
177
100
AcDbEntity
8
0
6
CONTINUOUS
62
7
370
-1
100
AcDbLine
10
15.5
20
46.5
11
15
21
46.5
0
LINE
5
178
100
AcDbEntity
8
0
6
CONTINUOUS
62
7
370
-1
100
AcDbLine
10
40.226
20
17
11
41
21
17
0
LINE
5
179
100
AcDbEntity
8
0
6
CONTINUOUS
62
7
370
-1
100
AcDbLine
10
19.5
20
46.5
11
20
21
46.5
0
LINE
5
17A
100
AcDbEntity
8
0
6
CONTINUOUS
62
7
370
-1
100
AcDbLine
10
20
20
45
11
20
21
46.5
0
LINE
5
17B
100
AcDbEntity
8
0
6
CONTINUOUS
62
7
370
-1
100
AcDbLine
10
20
20
45
11
20.5
21
45
0
LINE
5
17C
100
AcDbEntity
8
0
6
CONTINUOUS
62
7
370
-1
100
AcDbLine
10
20.5
20
44
11
20.5
21
45
0
LINE
5
17D
100
AcDbEntity
8
0
6
CONTINUOUS
62
7
370
-1
100
AcDbLine
10
20.5
20
44
11
21
21
44
0
LINE
5
17E
100
AcDbEntity
8
0
6
CONTINUOUS
62
7
370
-1
100
AcDbLine
10
21
20
43.5
11
21
21
44
0
LINE
5
17F
100
AcDbEntity
8
0
6
CONTINUOUS
62
7
370
-1
100
AcDbLine
10
21
20
43.5
11
22
21
43.5
0
LINE
5
180
100
AcDbEntity
8
0
6
CONTINUOUS
62
7
370
-1
100
AcDbLine
10
22
20
43
11
22
21
43.5
0
LINE
5
181
100
AcDbEntity
8
0
6
CONTINUOUS
62
7
370
-1
100
AcDbLine
10
28.5
20
39
11
29.5
21
39
0
LINE
5
182
100
AcDbEntity
8
0
6
CONTINUOUS
62
7
370
-1
100
AcDbLine
10
28.5
20
39
11
28.5
21
39.5
0
LINE
5
183
100
AcDbEntity
8
0
6
CONTINUOUS
62
7
370
-1
100
AcDbLine
10
27.5
20
39.5
11
28.5
21
39.5
0
LINE
5
184
100
AcDbEntity
8
0
6
CONTINUOUS
62
7
370
-1
100
AcDbLine
10
27.5
20
39.5
11
27.5
21
40
0
LINE
5
185
100
AcDbEntity
8
0
6
CONTINUOUS
62
7
370
-1
100
AcDbLine
10
26.5
20
40
11
27.5
21
40
0
LINE
5
186
100
AcDbEntity
8
0
6
CONTINUOUS
62
7
370
-1
100
AcDbLine
10
26.5
20
40
11
26.5
21
40.5
0
LINE
5
187
100
AcDbEntity
8
0
6
CONTINUOUS
62
7
370
-1
100
AcDbLine
10
26
20
40.5
11
26.5
21
40.5
0
LINE
5
188
100
AcDbEntity
8
0
6
CONTINUOUS
62
7
370
-1
100
AcDbLine
10
26
20
40.5
11
26
21
41
0
LINE
5
189
100
AcDbEntity
8
0
6
CONTINUOUS
62
7
370
-1
100
AcDbLine
10
25.5
20
41
11
26
21
41
0
LINE
5
18A
100
AcDbEntity
8
0
6
CONTINUOUS
62
7
370
-1
100
AcDbLine
10
25.5
20
41
11
25.5
21
41.5
0
LINE
5
18B
100
AcDbEntity
8
0
6
CONTINUOUS
62
7
370
-1
100
AcDbLine
10
24.5
20
41.5
11
25.5
21
41.5
0
LINE
5
18C
100
AcDbEntity
8
0
6
CONTINUOUS
62
7
370
-1
100
AcDbLine
10
24.5
20
41.5
11
24.5
21
42
0
LINE
5
18D
100
AcDbEntity
8
0
6
CONTINUOUS
62
7
370
-1
100
AcDbLine
10
23.5
20
42
11
24.5
21
42
0
LINE
5
18E
100
AcDbEntity
8
0
6
CONTINUOUS
62
7
370
-1
100
AcDbLine
10
22.5
20
42.5
11
23.5
21
42.5
0
LINE
5
18F
100
AcDbEntity
8
0
6
CONTINUOUS
62
7
370
-1
100
AcDbLine
10
23.5
20
42
11
23.5
21
42.5
0
LINE
5
190
100
AcDbEntity
8
0
6
CONTINUOUS
62
7
370
-1
100
AcDbLine
10
22
20
43
11
22.5
21
43
0
LINE
5
191
100
AcDbEntity
8
0
6
CONTINUOUS
62
7
370
-1
100
AcDbLine
10
22.5
20
42.5
11
22.5
21
43
0
LINE
5
192
100
AcDbEntity
8
0
6
CONTINUOUS
62
7
370
-1
100
AcDbLine
10
44
20
42.5
11
44
21
43
0
LINE
5
193
100
AcDbEntity
8
0
6
CONTINUOUS
62
7
370
-1
100
AcDbLine
10
44
20
43
11
44.5
21
43
0
LINE
5
194
100
AcDbEntity
8
0
6
CONTINUOUS
62
7
370
-1
100
AcDbLine
10
43.5
20
42.5
11
44
21
42.5
0
LINE
5
195
100
AcDbEntity
8
0
6
CONTINUOUS
62
7
370
-1
100
AcDbLine
10
43.5
20
42
11
43.5
21
42.5
0
LINE
5
196
100
AcDbEntity
8
0
6
CONTINUOUS
62
7
370
-1
100
AcDbLine
10
43
20
42
11
43.5
21
42
0
LINE
5
197
100
AcDbEntity
8
0
6
CONTINUOUS
62
7
370
-1
100
AcDbLine
10
43
20
41
11
43
21
42
0
LINE
5
198
100
AcDbEntity
8
0
6
CONTINUOUS
62
7
370
-1
100
AcDbLine
10
42
20
40.5
11
42
21
41
0
LINE
5
199
100
AcDbEntity
8
0
6
CONTINUOUS
62
7
370
-1
100
AcDbLine
10
42
20
41
11
43
21
41
0
LINE
5
19A
100
AcDbEntity
8
0
6
CONTINUOUS
62
7
370
-1
100
AcDbLine
10
41.5
20
40
11
41.5
21
40.5
0
LINE
5
19B
100
AcDbEntity
8
0
6
CONTINUOUS
62
7
370
-1
100
AcDbLine
10
41.5
20
40.5
11
42
21
40.5
0
LINE
5
19C
100
AcDbEntity
8
0
6
CONTINUOUS
62
7
370
-1
100
AcDbLine
10
41
20
40
11
41.5
21
40
0
LINE
5
19D
100
AcDbEntity
8
0
6
CONTINUOUS
62
7
370
-1
100
AcDbLine
10
41
20
36
11
41
21
40
0
LINE
5
19E
100
AcDbEntity
8
0
6
CONTINUOUS
62
7
370
-1
100
AcDbLine
10
41
20
36
11
41.5
21
36
0
LINE
5
19F
100
AcDbEntity
8
0
6
CONTINUOUS
62
7
370
-1
100
AcDbLine
10
41.5
20
35
11
41.5
21
36
0
LINE
5
1A0
100
AcDbEntity
8
0
6
CONTINUOUS
62
7
370
-1
100
AcDbLine
10
41.5
20
35
11
42
21
35
0
LINE
5
1A1
100
AcDbEntity
8
0
6
CONTINUOUS
62
7
370
-1
100
AcDbLine
10
29
20
36.5
11
29.5
21
36.5
0
LINE
5
1A2
100
AcDbEntity
8
0
6
CONTINUOUS
62
7
370
-1
100
AcDbLine
10
29.5
20
36.5
11
29.5
21
39
0
LINE
5
1A3
100
AcDbEntity
8
0
6
CONTINUOUS
62
7
370
-1
100
AcDbLine
10
29
20
36
11
29
21
36.5
0
LINE
5
1A4
100
AcDbEntity
8
0
6
CONTINUOUS
62
7
370
-1
100
AcDbLine
10
28.5
20
36
11
29
21
36
0
LINE
5
1A5
100
AcDbEntity
8
0
6
CONTINUOUS
62
7
370
-1
100
AcDbLine
10
28.5
20
35.5
11
28.5
21
36
0
LINE
5
1A6
100
AcDbEntity
8
0
6
CONTINUOUS
62
7
370
-1
100
AcDbLine
10
26.5
20
35.5
11
26.5
21
36
0
LINE
5
1A7
100
AcDbEntity
8
0
6
CONTINUOUS
62
7
370
-1
100
AcDbLine
10
26.5
20
35.5
11
28.5
21
35.5
0
LINE
5
1A8
100
AcDbEntity
8
0
6
CONTINUOUS
62
7
370
-1
100
AcDbLine
10
42
20
32.5
11
42.5
21
32.5
0
LINE
5
1A9
100
AcDbEntity
8
0
6
CONTINUOUS
62
7
370
-1
100
AcDbLine
10
42
20
32.5
11
42
21
35
0
LINE
5
1AA
100
AcDbEntity
8
0
6
CONTINUOUS
62
7
370
-1
100
AcDbLine
10
42
20
28.5
11
43
21
28.5
0
LINE
5
1AB
100
AcDbEntity
8
0
6
CONTINUOUS
62
7
370
-1
100
AcDbLine
10
42.5
20
32
11
42.5
21
32.5
0
LINE
5
1AC
100
AcDbEntity
8
0
6
CONTINUOUS
62
7
370
-1
100
AcDbLine
10
42.5
20
32
11
43
21
32
0
LINE
5
1AD
100
AcDbEntity
8
0
6
CONTINUOUS
62
7
370
-1
100
AcDbLine
10
42
20
24.5
11
42.5
21
24.5
0
LINE
5
1AE
100
AcDbEntity
8
0
6
CONTINUOUS
62
7
370
-1
100
AcDbLine
10
42
20
24.5
11
42
21
28.5
0
LINE
5
1AF
100
AcDbEntity
8
0
6
CONTINUOUS
62
7
370
-1
100
AcDbLine
10
42.5
20
23.5
11
42.5
21
24.5
0
LINE
5
1B0
100
AcDbEntity
8
0
6
CONTINUOUS
62
7
370
-1
100
AcDbLine
10
42.5
20
23.5
11
43
21
23.5
0
LINE
5
1B1
100
AcDbEntity
8
0
6
CONTINUOUS
62
7
370
-1
100
AcDbLine
10
43
20
22
11
43
21
23.5
0
LINE
5
1B2
100
AcDbEntity
8
0
6
CONTINUOUS
62
7
370
-1
100
AcDbLine
10
43
20
22
11
43.5
21
22
0
LINE
5
1B3
100
AcDbEntity
8
0
6
CONTINUOUS
62
7
370
-1
100
AcDbLine
10
43.5
20
20.5
11
43.5
21
22
0
LINE
5
1B4
100
AcDbEntity
8
0
6
CONTINUOUS
62
7
370
-1
100
AcDbLine
10
43.5
20
20.5
11
44
21
20.5
0
LINE
5
1B5
100
AcDbEntity
8
0
6
CONTINUOUS
62
7
370
-1
100
AcDbLine
10
44
20
20
11
44
21
20.5
0
LINE
5
1B6
100
AcDbEntity
8
0
6
CONTINUOUS
62
7
370
-1
100
AcDbLine
10
44
20
20
11
44.5
21
20
0
LINE
5
1B7
100
AcDbEntity
8
0
6
CONTINUOUS
62
7
370
-1
100
AcDbLine
10
44.5
20
19.5
11
44.5
21
20
0
LINE
5
1B8
100
AcDbEntity
8
0
6
CONTINUOUS
62
7
370
-1
100
AcDbLine
10
44.5
20
19.5
11
45
21
19.5
0
LINE
5
1B9
100
AcDbEntity
8
0
6
CONTINUOUS
62
7
370
-1
100
AcDbLine
10
45
20
19
11
45
21
19.5
0
LINE
5
1BA
100
AcDbEntity
8
0
6
CONTINUOUS
62
7
370
-1
100
AcDbLine
10
45
20
19
11
45.5
21
19
0
LINE
5
1BB
100
AcDbEntity
8
0
6
CONTINUOUS
62
7
370
-1
100
AcDbLine
10
45.5
20
18.5
11
45.5
21
19
0
LINE
5
1BC
100
AcDbEntity
8
0
6
CONTINUOUS
62
7
370
-1
100
AcDbLine
10
45.5
20
18.5
11
46
21
18.5
0
LINE
5
1BD
100
AcDbEntity
8
0
6
CONTINUOUS
62
7
370
-1
100
AcDbLine
10
46
20
18
11
46
21
18.5
0
LINE
5
1BE
100
AcDbEntity
8
0
6
CONTINUOUS
62
7
370
-1
100
AcDbLine
10
46
20
18
11
47
21
18
0
LINE
5
1BF
100
AcDbEntity
8
0
6
CONTINUOUS
62
7
370
-1
100
AcDbLine
10
41
20
17.5
11
42.5
21
17.5
0
LINE
5
1C0
100
AcDbEntity
8
0
6
CONTINUOUS
62
7
370
-1
100
AcDbLine
10
42.5
20
17
11
42.5
21
17.5
0
LINE
5
1C1
100
AcDbEntity
8
0
6
CONTINUOUS
62
7
370
-1
100
AcDbLine
10
43.5
20
16.5
11
43.5
21
17
0
LINE
5
1C2
100
AcDbEntity
8
0
6
CONTINUOUS
62
7
370
-1
100
AcDbLine
10
42.5
20
17
11
43.5
21
17
0
LINE
5
1C3
100
AcDbEntity
8
0
6
CONTINUOUS
62
7
370
-1
100
AcDbLine
10
43.5
20
16.5
11
44
21
16.5
0
LINE
5
1C4
100
AcDbEntity
8
0
6
CONTINUOUS
62
7
370
-1
100
AcDbLine
10
44
20
16
11
44
21
16.5
0
LINE
5
1C5
100
AcDbEntity
8
0
6
CONTINUOUS
62
7
370
-1
100
AcDbLine
10
44
20
16
11
45
21
16
0
LINE
5
1C6
100
AcDbEntity
8
0
6
CONTINUOUS
62
7
370
-1
100
AcDbLine
10
45
20
15.5
11
45
21
16
0
LINE
5
1C7
100
AcDbEntity
8
0
6
CONTINUOUS
62
7
370
-1
100
AcDbLine
10
45
20
15.5
11
46
21
15.5
0
LINE
5
1C8
100
AcDbEntity
8
0
6
CONTINUOUS
62
7
370
-1
100
AcDbLine
10
46
20
15
11
46
21
15.5
0
LINE
5
1C9
100
AcDbEntity
8
0
6
CONTINUOUS
62
7
370
-1
100
AcDbLine
10
47
20
17.5
11
47
21
18
0
LINE
5
1CA
100
AcDbEntity
8
0
6
CONTINUOUS
62
7
370
-1
100
AcDbLine
10
47
20
17.5
11
47.5
21
17.5
0
LINE
5
1CB
100
AcDbEntity
8
0
6
CONTINUOUS
62
7
370
-1
100
AcDbLine
10
47.5
20
17
11
47.5
21
17.5
0
LINE
5
1CC
100
AcDbEntity
8
0
6
CONTINUOUS
62
7
370
-1
100
AcDbLine
10
47.5
20
17
11
48.5
21
17
0
LINE
5
1CD
100
AcDbEntity
8
0
6
CONTINUOUS
62
7
370
-1
100
AcDbLine
10
48.5
20
16.5
11
48.5
21
17
0
LINE
5
1CE
100
AcDbEntity
8
0
6
CONTINUOUS
62
7
370
-1
100
AcDbLine
10
48.5
20
16.5
11
50.5
21
16.5
0
LINE
5
1CF
100
AcDbEntity
8
0
6
CONTINUOUS
62
7
370
-1
100
AcDbLine
10
50.5
20
16
11
50.5
21
16.5
0
LINE
5
1D0
100
AcDbEntity
8
0
6
CONTINUOUS
62
7
370
-1
100
AcDbLine
10
50.5
20
16
11
52
21
16
0
LINE
5
1D1
100
AcDbEntity
8
0
6
CONTINUOUS
62
7
370
-1
100
AcDbLine
10
48
20
14.5
11
48.5
21
14.5
0
LINE
5
1D2
100
AcDbEntity
8
0
6
CONTINUOUS
62
7
370
-1
100
AcDbLine
10
48.5
20
14
11
48.5
21
14.5
0
LINE
5
1D3
100
AcDbEntity
8
0
6
CONTINUOUS
62
7
370
-1
100
AcDbLine
10
46
20
15
11
48
21
15
0
LINE
5
1D4
100
AcDbEntity
8
0
6
CONTINUOUS
62
7
370
-1
100
AcDbLine
10
48
20
14.5
11
48
21
15
0
LINE
5
1D5
100
AcDbEntity
8
0
6
CONTINUOUS
62
7
370
-1
100
AcDbLine
10
54
20
15.5
11
52
21
15.5
0
LINE
5
1D6
100
AcDbEntity
8
0
6
CONTINUOUS
62
7
370
-1
100
AcDbLine
10
52
20
15.5
11
52
21
16
0
LINE
5
1D7
100
AcDbEntity
8
0
6
CONTINUOUS
62
7
370
-1
100
AcDbLine
10
51
20
13.5
11
51
21
14
0
LINE
5
1D8
100
AcDbEntity
8
0
6
CONTINUOUS
62
7
370
-1
100
AcDbLine
10
48.5
20
14
11
51
21
14
0
LINE
5
1D9
100
AcDbEntity
8
0
6
CONTINUOUS
62
7
370
-1
100
AcDbLine
10
54
20
15
11
54
21
15.5
0
LINE
5
1DA
100
AcDbEntity
8
0
6
CONTINUOUS
62
7
370
-1
100
AcDbLine
10
54
20
15
11
56
21
15
0
LINE
5
1DB
100
AcDbEntity
8
0
6
CONTINUOUS
62
7
370
-1
100
AcDbLine
10
56
20
14.5
11
56
21
15
0
LINE
5
1DC
100
AcDbEntity
8
0
6
CONTINUOUS
62
7
370
-1
100
AcDbLine
10
56
20
14.5
11
58
21
14.5
0
LINE
5
1DD
100
AcDbEntity
8
0
6
CONTINUOUS
62
7
370
-1
100
AcDbLine
10
51
20
13.5
11
54
21
13.5
0
LINE
5
1DE
100
AcDbEntity
8
0
6
CONTINUOUS
62
7
370
-1
100
AcDbLine
10
54
20
13
11
54
21
13.5
0
LINE
5
1DF
100
AcDbEntity
8
0
6
CONTINUOUS
62
7
370
-1
100
AcDbLine
10
54
20
13
11
56.5
21
13
0
LINE
5
1E0
100
AcDbEntity
8
0
6
CONTINUOUS
62
7
370
-1
100
AcDbLine
10
56.5
20
12.5
11
56.5
21
13
0
LINE
5
1E1
100
AcDbEntity
8
0
6
CONTINUOUS
62
7
370
-1
100
AcDbLine
10
56.5
20
12.5
11
58.5
21
12.5
0
LINE
5
1E2
100
AcDbEntity
8
0
6
CONTINUOUS
62
7
370
-1
100
AcDbLine
10
58.5
20
12
11
58.5
21
12.5
0
LINE
5
1E3
100
AcDbEntity
8
0
6
CONTINUOUS
62
7
370
-1
100
AcDbLine
10
58.5
20
12
11
60.5
21
12
0
LINE
5
1E4
100
AcDbEntity
8
0
6
CONTINUOUS
62
7
370
-1
100
AcDbLine
10
60.5
20
11.5
11
60.5
21
12
0
LINE
5
1E5
100
AcDbEntity
8
0
6
CONTINUOUS
62
7
370
-1
100
AcDbLine
10
61
20
13
11
61
21
13.5
0
LINE
5
1E6
100
AcDbEntity
8
0
6
CONTINUOUS
62
7
370
-1
100
AcDbLine
10
62.5
20
13
11
61
21
13
0
LINE
5
1E7
100
AcDbEntity
8
0
6
CONTINUOUS
62
7
370
-1
100
AcDbLine
10
62.5
20
12.5
11
62.5
21
13
0
LINE
5
1E8
100
AcDbEntity
8
0
6
CONTINUOUS
62
7
370
-1
100
AcDbLine
10
64.5
20
12.5
11
62.5
21
12.5
0
LINE
5
1E9
100
AcDbEntity
8
0
6
CONTINUOUS
62
7
370
-1
100
AcDbLine
10
61.5
20
11
11
61.5
21
11.5
0
LINE
5
1EA
100
AcDbEntity
8
0
6
CONTINUOUS
62
7
370
-1
100
AcDbLine
10
60.5
20
11.5
11
61.5
21
11.5
0
LINE
5
1EB
100
AcDbEntity
8
0
6
CONTINUOUS
62
7
370
-1
100
AcDbLine
10
65
20
11.5
11
65
21
12
0
LINE
5
1EC
100
AcDbEntity
8
0
6
CONTINUOUS
62
7
370
-1
100
AcDbLine
10
65
20
11.5
11
65.5
21
11.5
0
LINE
5
1ED
100
AcDbEntity
8
0
6
CONTINUOUS
62
7
370
-1
100
AcDbLine
10
64.5
20
12
11
64.5
21
12.5
0
LINE
5
1EE
100
AcDbEntity
8
0
6
CONTINUOUS
62
7
370
-1
100
AcDbLine
10
65
20
12
11
64.5
21
12
0
LINE
5
1EF
100
AcDbEntity
8
0
6
CONTINUOUS
62
7
370
-1
100
AcDbLine
10
62.5
20
10.5
11
62.5
21
11
0
LINE
5
1F0
100
AcDbEntity
8
0
6
CONTINUOUS
62
7
370
-1
100
AcDbLine
10
61.5
20
11
11
62.5
21
11
0
LINE
5
1F1
100
AcDbEntity
8
0
6
CONTINUOUS
62
7
370
-1
100
AcDbLine
10
65.5
20
11.5
11
65.5
21
10.5
0
LINE
5
1F2
100
AcDbEntity
8
0
6
CONTINUOUS
62
7
370
-1
100
AcDbLine
10
65.5
20
10.5
11
66
21
10.5
0
LINE
5
1F3
100
AcDbEntity
8
0
6
CONTINUOUS
62
7
370
-1
100
AcDbLine
10
63
20
10
11
63
21
10.5
0
LINE
5
1F4
100
AcDbEntity
8
0
6
CONTINUOUS
62
7
370
-1
100
AcDbLine
10
62.5
20
10.5
11
63
21
10.5
0
LINE
5
1F5
100
AcDbEntity
8
0
6
CONTINUOUS
62
7
370
-1
100
AcDbLine
10
63
20
10
11
63.5
21
10
0
LINE
5
1F6
100
AcDbEntity
8
0
6
CONTINUOUS
62
7
370
-1
100
AcDbLine
10
63.5
20
8.5
11
63.5
21
10
0
LINE
5
1F7
100
AcDbEntity
8
0
6
CONTINUOUS
62
7
370
-1
100
AcDbLine
10
58
20
14
11
58
21
14.5
0
LINE
5
1F8
100
AcDbEntity
8
0
6
CONTINUOUS
62
7
370
-1
100
AcDbLine
10
58
20
14
11
59
21
14
0
LINE
5
1F9
100
AcDbEntity
8
0
6
CONTINUOUS
62
7
370
-1
100
AcDbLine
10
59
20
13.5
11
59
21
14
0
LINE
5
1FA
100
AcDbEntity
8
0
6
CONTINUOUS
62
7
370
-1
100
AcDbLine
10
59
20
13.5
11
61
21
13.5
0
LINE
5
1FB
100
AcDbEntity
8
0
6
CONTINUOUS
62
7
370
-1
100
AcDbLine
10
24
20
36
11
26.5
21
36
0
LINE
5
1FC
100
AcDbEntity
8
0
6
CONTINUOUS
62
7
370
-1
100
AcDbLine
10
24
20
36
11
24
21
37
0
LINE
5
1FD
100
AcDbEntity
8
0
6
CONTINUOUS
62
7
370
-1
100
AcDbLine
10
24
20
37
11
25
21
37
0
LINE
5
1FE
100
AcDbEntity
8
0
6
CONTINUOUS
62
7
370
-1
100
AcDbLine
10
24.5
20
38.5
11
24.5
21
39.5
0
LINE
5
1FF
100
AcDbEntity
8
0
6
CONTINUOUS
62
7
370
-1
100
AcDbLine
10
24.5
20
38.5
11
25
21
38.5
0
LINE
5
200
100
AcDbEntity
8
0
6
CONTINUOUS
62
7
370
-1
100
AcDbLine
10
23.5
20
39.5
11
23.5
21
40
0
LINE
5
201
100
AcDbEntity
8
0
6
CONTINUOUS
62
7
370
-1
100
AcDbLine
10
23.5
20
39.5
11
24.5
21
39.5
0
LINE
5
202
100
AcDbEntity
8
0
6
CONTINUOUS
62
7
370
-1
100
AcDbLine
10
19
20
36
11
19.5
21
36
0
LINE
5
203
100
AcDbEntity
8
0
6
CONTINUOUS
62
7
370
-1
100
AcDbLine
10
19
20
37.5
11
19.5
21
37.5
0
LINE
5
204
100
AcDbEntity
8
0
6
CONTINUOUS
62
7
370
-1
100
AcDbLine
10
19.5
20
36
11
19.5
21
37.5
0
LINE
5
205
100
AcDbEntity
8
0
6
CONTINUOUS
62
7
370
-1
100
AcDbLine
10
19.5
20
39
11
19.5
21
39.5
0
LINE
5
206
100
AcDbEntity
8
0
6
CONTINUOUS
62
7
370
-1
100
AcDbLine
10
19.5
20
39
11
20.5
21
39
0
LINE
5
207
100
AcDbEntity
8
0
6
CONTINUOUS
62
7
370
-1
100
AcDbLine
10
20.5
20
39
11
20.5
21
39.5
0
LINE
5
208
100
AcDbEntity
8
0
6
CONTINUOUS
62
7
370
-1
100
AcDbLine
10
21.5
20
39.5
11
21.5
21
40
0
LINE
5
209
100
AcDbEntity
8
0
6
CONTINUOUS
62
7
370
-1
100
AcDbLine
10
20.5
20
39.5
11
21.5
21
39.5
0
LINE
5
20A
100
AcDbEntity
8
0
6
CONTINUOUS
62
7
370
-1
100
AcDbLine
10
16.5
20
39
11
16.5
21
39.5
0
LINE
5
20B
100
AcDbEntity
8
0
6
CONTINUOUS
62
7
370
-1
100
AcDbLine
10
16.5
20
39.5
11
17.5
21
39.5
0
LINE
5
20C
100
AcDbEntity
8
0
6
CONTINUOUS
62
7
370
-1
100
AcDbLine
10
17.5
20
39
11
17.5
21
39.5
0
LINE
5
20D
100
AcDbEntity
8
0
6
CONTINUOUS
62
7
370
-1
100
AcDbLine
10
19
20
39.5
11
19
21
40
0
LINE
5
20E
100
AcDbEntity
8
0
6
CONTINUOUS
62
7
370
-1
100
AcDbLine
10
19
20
39.5
11
19.5
21
39.5
0
LINE
5
20F
100
AcDbEntity
8
0
6
CONTINUOUS
62
7
370
-1
100
AcDbLine
10
17.5
20
39
11
18.5
21
39
0
LINE
5
210
100
AcDbEntity
8
0
6
CONTINUOUS
62
7
370
-1
100
AcDbLine
10
18.5
20
38.5
11
18.5
21
39
0
LINE
5
211
100
AcDbEntity
8
0
6
CONTINUOUS
62
7
370
-1
100
AcDbLine
10
18.5
20
38.5
11
19
21
38.5
0
LINE
5
212
100
AcDbEntity
8
0
6
CONTINUOUS
62
7
370
-1
100
AcDbLine
10
19
20
37.5
11
19
21
38.5
0
LINE
5
213
100
AcDbEntity
8
0
6
CONTINUOUS
62
7
370
-1
100
AcDbLine
10
18.5
20
40
11
19
21
40
0
LINE
5
214
100
AcDbEntity
8
0
6
CONTINUOUS
62
7
370
-1
100
AcDbLine
10
18.5
20
40
11
18.5
21
41.214
0
LINE
5
215
100
AcDbEntity
8
0
6
CONTINUOUS
62
7
370
-1
100
AcDbLine
10
16
20
46
11
16.5
21
46
0
LINE
5
216
100
AcDbEntity
8
0
6
CONTINUOUS
62
7
370
-1
100
AcDbLine
10
16.5
20
45
11
16.5
21
46
0
LINE
5
217
100
AcDbEntity
8
0
6
CONTINUOUS
62
7
370
-1
100
AcDbLine
10
17
20
46
11
17
21
46.5
0
LINE
5
218
100
AcDbEntity
8
0
6
CONTINUOUS
62
7
370
-1
100
AcDbLine
10
17
20
46
11
17.5
21
46
0
LINE
5
219
100
AcDbEntity
8
0
6
CONTINUOUS
62
7
370
-1
100
AcDbLine
10
16.5
20
46.5
11
16.5
21
47
0
LINE
5
21A
100
AcDbEntity
8
0
6
CONTINUOUS
62
7
370
-1
100
AcDbLine
10
16
20
46.5
11
17
21
46.5
0
LINE
5
21B
100
AcDbEntity
8
0
6
CONTINUOUS
62
7
370
-1
100
AcDbLine
10
16
20
46
11
16
21
46.5
0
LINE
5
21C
100
AcDbEntity
8
0
6
CONTINUOUS
62
7
370
-1
100
AcDbLine
10
18
20
45
11
18
21
45.5
0
LINE
5
21D
100
AcDbEntity
8
0
6
CONTINUOUS
62
7
370
-1
100
AcDbLine
10
18
20
45
11
18.5
21
45
0
LINE
5
21E
100
AcDbEntity
8
0
6
CONTINUOUS
62
7
370
-1
100
AcDbLine
10
18.5
20
44
11
18.5
21
45
0
LINE
5
21F
100
AcDbEntity
8
0
6
CONTINUOUS
62
7
370
-1
100
AcDbLine
10
18.5
20
44
11
19
21
44
0
LINE
5
220
100
AcDbEntity
8
0
6
CONTINUOUS
62
7
370
-1
100
AcDbLine
10
18
20
43.5
11
18
21
44
0
LINE
5
221
100
AcDbEntity
8
0
6
CONTINUOUS
62
7
370
-1
100
AcDbLine
10
17.5
20
44
11
18
21
44
0
LINE
5
222
100
AcDbEntity
8
0
6
CONTINUOUS
62
7
370
-1
100
AcDbLine
10
18
20
43.5
11
18.5
21
43.5
0
LINE
5
223
100
AcDbEntity
8
0
6
CONTINUOUS
62
7
370
-1
100
AcDbLine
10
18.5
20
41.214
11
18.5
21
43.5
0
LINE
5
224
100
AcDbEntity
8
0
6
CONTINUOUS
62
7
370
-1
100
AcDbLine
10
15.5
20
41
11
16
21
41
0
LINE
5
225
100
AcDbEntity
8
0
6
CONTINUOUS
62
7
370
-1
100
AcDbLine
10
16.5
20
41.5
11
16.5
21
42
0
LINE
5
226
100
AcDbEntity
8
0
6
CONTINUOUS
62
7
370
-1
100
AcDbLine
10
16.5
20
41.5
11
19
21
41.5
0
LINE
5
227
100
AcDbEntity
8
0
6
CONTINUOUS
62
7
370
-1
100
AcDbLine
10
15
20
41.5
11
15.5
21
41.5
0
LINE
5
228
100
AcDbEntity
8
0
6
CONTINUOUS
62
7
370
-1
100
AcDbLine
10
15.5
20
41
11
15.5
21
41.5
0
LINE
5
229
100
AcDbEntity
8
0
6
CONTINUOUS
62
7
370
-1
100
AcDbLine
10
15.5
20
42
11
15.5
21
42.5
0
LINE
5
22A
100
AcDbEntity
8
0
6
CONTINUOUS
62
7
370
-1
100
AcDbLine
10
15.5
20
42
11
16.5
21
42
0
LINE
5
22B
100
AcDbEntity
8
0
6
CONTINUOUS
62
7
370
-1
100
AcDbLine
10
14.5
20
42
11
15
21
42
0
LINE
5
22C
100
AcDbEntity
8
0
6
CONTINUOUS
62
7
370
-1
100
AcDbLine
10
15
20
41.5
11
15
21
42
0
LINE
5
22D
100
AcDbEntity
8
0
6
CONTINUOUS
62
7
370
-1
100
AcDbLine
10
11
20
39.5
11
11
21
40.5
0
LINE
5
22E
100
AcDbEntity
8
0
6
CONTINUOUS
62
7
370
-1
100
AcDbLine
10
9.5
20
39.5
11
11
21
39.5
0
LINE
5
22F
100
AcDbEntity
8
0
6
CONTINUOUS
62
7
370
-1
100
AcDbLine
10
10.5
20
38.5
11
10.5
21
39
0
LINE
5
230
100
AcDbEntity
8
0
6
CONTINUOUS
62
7
370
-1
100
AcDbLine
10
10
20
39
11
10.5
21
39
0
LINE
5
231
100
AcDbEntity
8
0
6
CONTINUOUS
62
7
370
-1
100
AcDbLine
10
11.5
20
39
11
11.5
21
40.5
0
LINE
5
232
100
AcDbEntity
8
0
6
CONTINUOUS
62
7
370
-1
100
AcDbLine
10
11.5
20
39
11
15
21
39
0
LINE
5
233
100
AcDbEntity
8
0
6
CONTINUOUS
62
7
370
-1
100
AcDbLine
10
10.5
20
38.5
11
12
21
38.5
0
LINE
5
234
100
AcDbEntity
8
0
6
CONTINUOUS
62
7
370
-1
100
AcDbLine
10
12
20
38
11
12
21
38.5
0
LINE
5
235
100
AcDbEntity
8
0
6
CONTINUOUS
62
7
370
-1
100
AcDbLine
10
12
20
38
11
12.5
21
38
0
LINE
5
236
100
AcDbEntity
8
0
6
CONTINUOUS
62
7
370
-1
100
AcDbLine
10
12.5
20
37.5
11
12.5
21
38
0
LINE
5
237
100
AcDbEntity
8
0
6
CONTINUOUS
62
7
370
-1
100
AcDbLine
10
15
20
38
11
15.5
21
38
0
LINE
5
238
100
AcDbEntity
8
0
6
CONTINUOUS
62
7
370
-1
100
AcDbLine
10
15
20
37.5
11
15
21
38
0
LINE
5
239
100
AcDbEntity
8
0
6
CONTINUOUS
62
7
370
-1
100
AcDbLine
10
15.5
20
38
11
15.5
21
38.5
0
LINE
5
23A
100
AcDbEntity
8
0
6
CONTINUOUS
62
7
370
-1
100
AcDbLine
10
15.5
20
38.5
11
16
21
38.5
0
LINE
5
23B
100
AcDbEntity
8
0
6
CONTINUOUS
62
7
370
-1
100
AcDbLine
10
15.5
20
39.5
11
16
21
39.5
0
LINE
5
23C
100
AcDbEntity
8
0
6
CONTINUOUS
62
7
370
-1
100
AcDbLine
10
16
20
39.5
11
16
21
41
0
LINE
5
23D
100
AcDbEntity
8
0
6
CONTINUOUS
62
7
370
-1
100
AcDbLine
10
16
20
38.5
11
16
21
39
0
LINE
5
23E
100
AcDbEntity
8
0
6
CONTINUOUS
62
7
370
-1
100
AcDbLine
10
16
20
39
11
16.5
21
39
0
LINE
5
23F
100
AcDbEntity
8
0
6
CONTINUOUS
62
7
370
-1
100
AcDbLine
10
13
20
44
11
15
21
44
0
LINE
5
240
100
AcDbEntity
8
0
6
CONTINUOUS
62
7
370
-1
100
AcDbLine
10
19.5
20
33
11
20.5
21
33
0
LINE
5
241
100
AcDbEntity
8
0
6
CONTINUOUS
62
7
370
-1
100
AcDbLine
10
20.5
20
32.5
11
20.5
21
33
0
LINE
5
242
100
AcDbEntity
8
0
6
CONTINUOUS
62
7
370
-1
100
AcDbLine
10
20.5
20
32.5
11
21
21
32.5
0
LINE
5
243
100
AcDbEntity
8
0
6
CONTINUOUS
62
7
370
-1
100
AcDbLine
10
21
20
31.5
11
21
21
32.5
0
LINE
5
244
100
AcDbEntity
8
0
6
CONTINUOUS
62
7
370
-1
100
AcDbLine
10
21
20
31.5
11
21.5
21
31.5
0
LINE
5
245
100
AcDbEntity
8
0
6
CONTINUOUS
62
7
370
-1
100
AcDbLine
10
21.5
20
31
11
21.5
21
31.5
0
LINE
5
246
100
AcDbEntity
8
0
6
CONTINUOUS
62
7
370
-1
100
AcDbLine
10
21.5
20
31
11
24
21
31
0
LINE
5
247
100
AcDbEntity
8
0
6
CONTINUOUS
62
7
370
-1
100
AcDbLine
10
24
20
30.5
11
24
21
31
0
LINE
5
248
100
AcDbEntity
8
0
6
CONTINUOUS
62
7
370
-1
100
AcDbLine
10
24.5
20
30
11
24.5
21
30.5
0
LINE
5
249
100
AcDbEntity
8
0
6
CONTINUOUS
62
7
370
-1
100
AcDbLine
10
24
20
30.5
11
24.5
21
30.5
0
LINE
5
24A
100
AcDbEntity
8
0
6
CONTINUOUS
62
7
370
-1
100
AcDbLine
10
25.5
20
28.5
11
25.5
21
30
0
LINE
5
24B
100
AcDbEntity
8
0
6
CONTINUOUS
62
7
370
-1
100
AcDbLine
10
24.5
20
30
11
25.5
21
30
0
LINE
5
24C
100
AcDbEntity
8
0
6
CONTINUOUS
62
7
370
-1
100
AcDbLine
10
25.5
20
28.5
11
26
21
28.5
0
LINE
5
24D
100
AcDbEntity
8
0
6
CONTINUOUS
62
7
370
-1
100
AcDbLine
10
19
20
33.5
11
19
21
36
0
LINE
5
24E
100
AcDbEntity
8
0
6
CONTINUOUS
62
7
370
-1
100
AcDbLine
10
19
20
33.5
11
19.5
21
33.5
0
LINE
5
24F
100
AcDbEntity
8
0
6
CONTINUOUS
62
7
370
-1
100
AcDbLine
10
19.5
20
33
11
19.5
21
33.5
0
LINE
5
250
100
AcDbEntity
8
0
6
CONTINUOUS
62
7
370
-1
100
AcDbLine
10
25.5
20
26
11
26
21
26
0
LINE
5
251
100
AcDbEntity
8
0
6
CONTINUOUS
62
7
370
-1
100
AcDbLine
10
26
20
26
11
26
21
28.5
0
LINE
5
252
100
AcDbEntity
8
0
6
CONTINUOUS
62
7
370
-1
100
AcDbLine
10
25.5
20
23.5
11
26
21
23.5
0
LINE
5
253
100
AcDbEntity
8
0
6
CONTINUOUS
62
7
370
-1
100
AcDbLine
10
26
20
22.5
11
26
21
23.5
0
LINE
5
254
100
AcDbEntity
8
0
6
CONTINUOUS
62
7
370
-1
100
AcDbLine
10
26
20
22.5
11
26.5
21
22.5
0
LINE
5
255
100
AcDbEntity
8
0
6
CONTINUOUS
62
7
370
-1
100
AcDbLine
10
26.5
20
21.5
11
26.5
21
22.5
0
LINE
5
256
100
AcDbEntity
8
0
6
CONTINUOUS
62
7
370
-1
100
AcDbLine
10
27
20
21
11
27
21
21.5
0
LINE
5
257
100
AcDbEntity
8
0
6
CONTINUOUS
62
7
370
-1
100
AcDbLine
10
26.5
20
21.5
11
27
21
21.5
0
LINE
5
258
100
AcDbEntity
8
0
6
CONTINUOUS
62
7
370
-1
100
AcDbLine
10
27
20
21
11
27.5
21
21
0
LINE
5
259
100
AcDbEntity
8
0
6
CONTINUOUS
62
7
370
-1
100
AcDbLine
10
27.5
20
19.5
11
27.5
21
21
0
LINE
5
25A
100
AcDbEntity
8
0
6
CONTINUOUS
62
7
370
-1
100
AcDbLine
10
27
20
19.5
11
27.5
21
19.5
0
LINE
5
25B
100
AcDbEntity
8
0
6
CONTINUOUS
62
7
370
-1
100
AcDbLine
10
27
20
18.5
11
27.5
21
18.5
0
LINE
5
25C
100
AcDbEntity
8
0
6
CONTINUOUS
62
7
370
-1
100
AcDbLine
10
27
20
16.5
11
27.5
21
16.5
0
LINE
5
25D
100
AcDbEntity
8
0
6
CONTINUOUS
62
7
370
-1
100
AcDbLine
10
27.5
20
16.5
11
27.5
21
18.5
0
LINE
5
25E
100
AcDbEntity
8
0
6
CONTINUOUS
62
7
370
-1
100
AcDbLine
10
27.5
20
13.5
11
29
21
13.5
0
LINE
5
25F
100
AcDbEntity
8
0
6
CONTINUOUS
62
7
370
-1
100
AcDbLine
10
29
20
13
11
29
21
13.5
0
LINE
5
260
100
AcDbEntity
8
0
6
CONTINUOUS
62
7
370
-1
100
AcDbLine
10
27.5
20
13.5
11
27.5
21
14
0
LINE
5
261
100
AcDbEntity
8
0
6
CONTINUOUS
62
7
370
-1
100
AcDbLine
10
25.5
20
16
11
27
21
16
0
LINE
5
262
100
AcDbEntity
8
0
6
CONTINUOUS
62
7
370
-1
100
AcDbLine
10
27
20
16
11
27
21
16.5
0
LINE
5
263
100
AcDbEntity
8
0
6
CONTINUOUS
62
7
370
-1
100
AcDbLine
10
20.5
20
15.5
11
25.5
21
15.5
0
LINE
5
264
100
AcDbEntity
8
0
6
CONTINUOUS
62
7
370
-1
100
AcDbLine
10
25.5
20
15.5
11
25.5
21
16
0
LINE
5
265
100
AcDbEntity
8
0
6
CONTINUOUS
62
7
370
-1
100
AcDbLine
10
24
20
13.5
11
24
21
14
0
LINE
5
266
100
AcDbEntity
8
0
6
CONTINUOUS
62
7
370
-1
100
AcDbLine
10
24
20
14
11
27.5
21
14
0
LINE
5
267
100
AcDbEntity
8
0
6
CONTINUOUS
62
7
370
-1
100
AcDbLine
10
22
20
13
11
22
21
13.5
0
LINE
5
268
100
AcDbEntity
8
0
6
CONTINUOUS
62
7
370
-1
100
AcDbLine
10
22
20
13.5
11
24
21
13.5
0
LINE
5
269
100
AcDbEntity
8
0
6
CONTINUOUS
62
7
370
-1
100
AcDbLine
10
21
20
12.5
11
21
21
13
0
LINE
5
26A
100
AcDbEntity
8
0
6
CONTINUOUS
62
7
370
-1
100
AcDbLine
10
21
20
13
11
22
21
13
0
LINE
5
26B
100
AcDbEntity
8
0
6
CONTINUOUS
62
7
370
-1
100
AcDbLine
10
20.5
20
12
11
20.5
21
12.5
0
LINE
5
26C
100
AcDbEntity
8
0
6
CONTINUOUS
62
7
370
-1
100
AcDbLine
10
20.5
20
12.5
11
21
21
12.5
0
LINE
5
26D
100
AcDbEntity
8
0
6
CONTINUOUS
62
7
370
-1
100
AcDbLine
10
20
20
15
11
20.5
21
15
0
LINE
5
26E
100
AcDbEntity
8
0
6
CONTINUOUS
62
7
370
-1
100
AcDbLine
10
20
20
13.5
11
20.5
21
13.5
0
LINE
5
26F
100
AcDbEntity
8
0
6
CONTINUOUS
62
7
370
-1
100
AcDbLine
10
20.5
20
13.5
11
20.5
21
15.5
0
LINE
5
270
100
AcDbEntity
8
0
6
CONTINUOUS
62
7
370
-1
100
AcDbLine
10
29
20
13
11
30
21
13
0
LINE
5
271
100
AcDbEntity
8
0
6
CONTINUOUS
62
7
370
-1
100
AcDbLine
10
29.5
20
12
11
30
21
12
0
LINE
5
272
100
AcDbEntity
8
0
6
CONTINUOUS
62
7
370
-1
100
AcDbLine
10
30
20
12
11
30
21
13
0
LINE
5
273
100
AcDbEntity
8
0
6
CONTINUOUS
62
7
370
-1
100
AcDbLine
10
29.5
20
11.5
11
29.5
21
12
0
LINE
5
274
100
AcDbEntity
8
0
6
CONTINUOUS
62
7
370
-1
100
AcDbLine
10
28.5
20
11.5
11
29.5
21
11.5
0
LINE
5
275
100
AcDbEntity
8
0
6
CONTINUOUS
62
7
370
-1
100
AcDbLine
10
27
20
11
11
28.5
21
11
0
LINE
5
276
100
AcDbEntity
8
0
6
CONTINUOUS
62
7
370
-1
100
AcDbLine
10
28.5
20
11
11
28.5
21
11.5
0
LINE
5
277
100
AcDbEntity
8
0
6
CONTINUOUS
62
7
370
-1
100
AcDbLine
10
25.5
20
10.5
11
27
21
10.5
0
LINE
5
278
100
AcDbEntity
8
0
6
CONTINUOUS
62
7
370
-1
100
AcDbLine
10
27
20
10.5
11
27
21
11.5
0
LINE
5
279
100
AcDbEntity
8
0
6
CONTINUOUS
62
7
370
-1
100
AcDbLine
10
24
20
10
11
26
21
10
0
LINE
5
27A
100
AcDbEntity
8
0
6
CONTINUOUS
62
7
370
-1
100
AcDbLine
10
26
20
9.5
11
26
21
10
0
LINE
5
27B
100
AcDbEntity
8
0
6
CONTINUOUS
62
7
370
-1
100
AcDbLine
10
31
20
8
11
31
21
8.5
0
LINE
5
27C
100
AcDbEntity
8
0
6
CONTINUOUS
62
7
370
-1
100
AcDbLine
10
31
20
8.5
11
36
21
8.5
0
LINE
5
27D
100
AcDbEntity
8
0
6
CONTINUOUS
62
7
370
-1
100
AcDbLine
10
36
20
8.5
11
36
21
9
0
LINE
5
27E
100
AcDbEntity
8
0
6
CONTINUOUS
62
7
370
-1
100
AcDbLine
10
36
20
9
11
38.5
21
9
0
LINE
5
27F
100
AcDbEntity
8
0
6
CONTINUOUS
62
7
370
-1
100
AcDbLine
10
38.5
20
9
11
38.5
21
9.5
0
LINE
5
280
100
AcDbEntity
8
0
6
CONTINUOUS
62
7
370
-1
100
AcDbLine
10
38.5
20
9.5
11
40
21
9.5
0
LINE
5
281
100
AcDbEntity
8
0
6
CONTINUOUS
62
7
370
-1
100
AcDbLine
10
40
20
10
11
41.5
21
10
0
LINE
5
282
100
AcDbEntity
8
0
6
CONTINUOUS
62
7
370
-1
100
AcDbLine
10
40
20
9.5
11
40
21
10
0
LINE
5
283
100
AcDbEntity
8
0
6
CONTINUOUS
62
7
370
-1
100
AcDbLine
10
41.5
20
10
11
41.5
21
10.5
0
LINE
5
284
100
AcDbEntity
8
0
6
CONTINUOUS
62
7
370
-1
100
AcDbLine
10
41.5
20
10.5
11
43
21
10.5
0
LINE
5
285
100
AcDbEntity
8
0
6
CONTINUOUS
62
7
370
-1
100
AcDbLine
10
43
20
12
11
43
21
13
0
LINE
5
286
100
AcDbEntity
8
0
6
CONTINUOUS
62
7
370
-1
100
AcDbLine
10
43
20
12
11
43.5
21
12
0
LINE
5
287
100
AcDbEntity
8
0
6
CONTINUOUS
62
7
370
-1
100
AcDbLine
10
43
20
11
11
43.5
21
11
0
LINE
5
288
100
AcDbEntity
8
0
6
CONTINUOUS
62
7
370
-1
100
AcDbLine
10
43
20
10.5
11
43
21
11
0
LINE
5
289
100
AcDbEntity
8
0
6
CONTINUOUS
62
7
370
-1
100
AcDbLine
10
42.5
20
13
11
42.5
21
13.5
0
LINE
5
28A
100
AcDbEntity
8
0
6
CONTINUOUS
62
7
370
-1
100
AcDbLine
10
42.5
20
13
11
43
21
13
0
LINE
5
28B
100
AcDbEntity
8
0
6
CONTINUOUS
62
7
370
-1
100
AcDbLine
10
42
20
13.5
11
42.5
21
13.5
0
LINE
5
28C
100
AcDbEntity
8
0
6
CONTINUOUS
62
7
370
-1
100
AcDbLine
10
42
20
13.5
11
42
21
15
0
LINE
5
28D
100
AcDbEntity
8
0
6
CONTINUOUS
62
7
370
-1
100
AcDbLine
10
41
20
16.5
11
41
21
17.5
0
LINE
5
28E
100
AcDbEntity
8
0
6
CONTINUOUS
62
7
370
-1
100
AcDbLine
10
41
20
16.5
11
41.5
21
16.5
0
LINE
5
28F
100
AcDbEntity
8
0
6
CONTINUOUS
62
7
370
-1
100
AcDbLine
10
41.5
20
15
11
41.5
21
16.5
0
LINE
5
290
100
AcDbEntity
8
0
6
CONTINUOUS
62
7
370
-1
100
AcDbLine
10
41.5
20
15
11
42
21
15
0
LINE
5
291
100
AcDbEntity
8
0
6
CONTINUOUS
62
7
370
-1
100
AcDbLine
10
18.5
20
11.5
11
19
21
11.5
0
LINE
5
292
100
AcDbEntity
8
0
6
CONTINUOUS
62
7
370
-1
100
AcDbLine
10
19
20
11.5
11
19
21
12
0
LINE
5
293
100
AcDbEntity
8
0
6
CONTINUOUS
62
7
370
-1
100
AcDbLine
10
30
20
51.5
11
30
21
53.5
0
LINE
5
294
100
AcDbEntity
8
0
6
CONTINUOUS
62
7
370
-1
100
AcDbLine
10
29
20
51.5
11
30
21
51.5
0
LINE
5
295
100
AcDbEntity
8
0
6
CONTINUOUS
62
7
370
-1
100
AcDbLine
10
29
20
51.5
11
29
21
55.5
0
LINE
5
296
100
AcDbEntity
8
0
6
ByLayer
62
256
370
-1
100
AcDbLine
10
80
20
80
11
79.99
21
79.99
0
LINE
5
297
100
AcDbEntity
8
0
6
ByLayer
62
256
370
-1
100
AcDbLine
10
-1.04083408559e-17
20
8.67361737988e-18
11
0.01
21
0.01
0
ENDSEC
0
SECTION
2
OBJECTS
0
DICTIONARY
5
C
330
0
100
AcDbDictionary
281
1
3
ACAD_GROUP
350
D
0
DICTIONARY
5
D
330
C
100
AcDbDictionary
281
1
0
ENDSEC
0
EOF
