  0
SECTION
  2
HEADER
  9
$LIMMIN
 10
0.000000
 20
0.000000
  9
$LIMMAX
 10
100.000010
 20
100.000000
  9
$EXTMIN
 10
0.000000
 20
0.000000
  9
$EXTMAX
 10
100.000010
 20
100.000000
  9
$ANGBASE
 50
0.000000
  9
$ANGDIR
 70
0
  9
$INSUNITS
 70
0
  9
$DIMALT
 70
4
  9
$DIMLUNIT
 70
2
  9
$DIMASZ
 40
3.000000
  9
$DIMTXT
 40
5.000000
  9
$DIMRND
 40
0.010000
  9
$DIMEXE
 40
2.000000
  9
$DIMEXO
 40
2.000000
  9
$DIMAUNIT
 70
0
  9
$DIMADEC
 70
2
  9
$GRIDUNIT
 10
0.001000
 20
0.001000
  9
$PLIMMIN
 10
0.000000
 20
0.000000
  9
$PLIMMAX
 10
210.000000
 20
297.000000
  9
$PSVPSCALE
 40
1.000000
  0
ENDSEC
  0
SECTION
  2
TABLES
  0
TABLE
  2
LTYPE
 70
     1
  0
LTYPE
  2
CONTINUOUS
 70
    64
  3
Ausgez
 72
    65
 73
  0
 40
0.000000
  0
ENDTAB
  0
TABLE
  2
LAYER
 70
     1
  0
LAYER
  2
default
 70
    64
 62
0
  6
CONTINUOUS
  0
ENDTAB
  0
ENDSEC
  0
SECTION
  2
BLOCKS
  0
ENDSEC
  0
SECTION
  2
ENTITIES
  0
LINE
  8
default
  6
CONTINUOUS
 10
50.000015
 20
24.968420
 11
4.284988
 21
2.021875
 39
0
 62
7
  0
LINE
  8
default
  6
CONTINUOUS
 10
41.497877
 20
12.165175
 11
32.996632
 21
16.432341
 39
0
 62
7
  0
LINE
  8
default
  6
CONTINUOUS
 10
50.000050
 20
20.700724
 11
41.497877
 21
16.433076
 39
0
 62
7
  0
LINE
  8
default
  6
CONTINUOUS
 10
41.497877
 20
16.433076
 11
41.497877
 21
0.000000
 39
0
 62
7
  0
LINE
  8
default
  6
CONTINUOUS
 10
50.000015
 20
100.000000
 11
50.000015
 21
0.000000
 39
0
 62
7
  0
LINE
  8
default
  6
CONTINUOUS
 10
41.497877
 20
37.387607
 11
41.497877
 21
66.433078
 39
0
 62
7
  0
LINE
  8
default
  6
CONTINUOUS
 10
50.000015
 20
41.655228
 11
41.497877
 21
37.387607
 39
0
 62
7
  0
LINE
  8
default
  6
CONTINUOUS
 10
45.748482
 20
27.102462
 11
0.000000
 21
50.000002
 39
0
 62
7
  0
LINE
  8
default
  6
CONTINUOUS
 10
4.284988
 20
52.021876
 11
12.787492
 21
47.754071
 39
0
 62
7
  0
LINE
  8
default
  6
CONTINUOUS
 10
41.497877
 20
62.165177
 11
12.787492
 21
47.754071
 39
0
 62
7
  0
LINE
  8
default
  6
CONTINUOUS
 10
17.261926
 20
50.000002
 11
45.748482
 21
35.175582
 39
0
 62
7
  0
LINE
  8
default
  6
CONTINUOUS
 10
45.748482
 20
27.102462
 11
45.748482
 21
35.175582
 39
0
 62
7
  0
LINE
  8
default
  6
CONTINUOUS
 10
17.261926
 20
50.000002
 11
17.261926
 21
41.360250
 39
0
 62
7
  0
LINE
  8
default
  6
CONTINUOUS
 10
41.497877
 20
12.165175
 11
17.261926
 21
0.000000
 39
0
 62
7
  0
LINE
  8
default
  6
CONTINUOUS
 10
4.284988
 20
2.021875
 11
8.313042
 21
0.000000
 39
0
 62
7
  0
LINE
  8
default
  6
CONTINUOUS
 10
17.261926
 20
41.360250
 11
8.502137
 21
36.963300
 39
0
 62
7
  0
LINE
  8
default
  6
CONTINUOUS
 10
0.088800
 20
45.753500
 11
8.502137
 21
41.530444
 39
0
 62
7
  0
LINE
  8
default
  6
CONTINUOUS
 10
8.502137
 20
41.530444
 11
8.502137
 21
12.868053
 39
0
 62
7
  0
LINE
  8
default
  6
CONTINUOUS
 10
45.748482
 20
27.102462
 11
36.988711
 21
22.705512
 39
0
 62
7
  0
LINE
  8
default
  6
CONTINUOUS
 10
32.993868
 20
16.432228
 11
32.993868
 21
24.704972
 39
0
 62
7
  0
LINE
  8
default
  6
CONTINUOUS
 10
36.988711
 20
22.705512
 11
8.502137
 21
36.963309
 39
0
 62
7
  0
LINE
  8
default
  6
CONTINUOUS
 10
4.282416
 20
10.828648
 11
32.993868
 21
24.704972
 39
0
 62
7
  0
LINE
  8
default
  6
CONTINUOUS
 10
4.282416
 20
2.020593
 11
4.282416
 21
10.828648
 39
0
 62
7
  0
LINE
  8
default
  6
CONTINUOUS
 10
50.000015
 20
24.968420
 11
95.715042
 21
2.021875
 39
0
 62
7
  0
LINE
  8
default
  6
CONTINUOUS
 10
58.502135
 20
12.165175
 11
67.003380
 21
16.432341
 39
0
 62
7
  0
LINE
  8
default
  6
CONTINUOUS
 10
49.999962
 20
20.700724
 11
58.502135
 21
16.433076
 39
0
 62
7
  0
LINE
  8
default
  6
CONTINUOUS
 10
58.502135
 20
16.433076
 11
58.502135
 21
0.000000
 39
0
 62
7
  0
LINE
  8
default
  6
CONTINUOUS
 10
58.502135
 20
37.387607
 11
58.502135
 21
66.433078
 39
0
 62
7
  0
LINE
  8
default
  6
CONTINUOUS
 10
50.000015
 20
41.655228
 11
58.502135
 21
37.387607
 39
0
 62
7
  0
LINE
  8
default
  6
CONTINUOUS
 10
95.715042
 20
52.021881
 11
87.212537
 21
47.754071
 39
0
 62
7
  0
LINE
  8
default
  6
CONTINUOUS
 10
58.502135
 20
62.165177
 11
87.212537
 21
47.754071
 39
0
 62
7
  0
LINE
  8
default
  6
CONTINUOUS
 10
82.738104
 20
50.000002
 11
54.251530
 21
35.175582
 39
0
 62
7
  0
LINE
  8
default
  6
CONTINUOUS
 10
54.251530
 20
27.102462
 11
54.251530
 21
35.175582
 39
0
 62
7
  0
LINE
  8
default
  6
CONTINUOUS
 10
82.738104
 20
50.000002
 11
82.738104
 21
41.360250
 39
0
 62
7
  0
LINE
  8
default
  6
CONTINUOUS
 10
58.502135
 20
12.165175
 11
82.738104
 21
0.000000
 39
0
 62
7
  0
LINE
  8
default
  6
CONTINUOUS
 10
95.715042
 20
2.021875
 11
91.686971
 21
0.000000
 39
0
 62
7
  0
LINE
  8
default
  6
CONTINUOUS
 10
82.738104
 20
41.360250
 11
91.497892
 21
36.963300
 39
0
 62
7
  0
LINE
  8
default
  6
CONTINUOUS
 10
91.497892
 20
41.530444
 11
91.497892
 21
12.868055
 39
0
 62
7
  0
LINE
  8
default
  6
CONTINUOUS
 10
54.251530
 20
27.102462
 11
63.011301
 21
22.705512
 39
0
 62
7
  0
LINE
  8
default
  6
CONTINUOUS
 10
67.006144
 20
16.432228
 11
67.006144
 21
24.704972
 39
0
 62
7
  0
LINE
  8
default
  6
CONTINUOUS
 10
63.011301
 20
22.705512
 11
91.497892
 21
36.963309
 39
0
 62
7
  0
LINE
  8
default
  6
CONTINUOUS
 10
95.717597
 20
10.828648
 11
67.006144
 21
24.704972
 39
0
 62
7
  0
LINE
  8
default
  6
CONTINUOUS
 10
95.717597
 20
2.020593
 11
95.717597
 21
10.828648
 39
0
 62
7
  0
LINE
  8
default
  6
CONTINUOUS
 10
50.000015
 20
74.968422
 11
4.284988
 21
52.021876
 39
0
 62
7
  0
LINE
  8
default
  6
CONTINUOUS
 10
41.497877
 20
62.165177
 11
32.996632
 21
66.432343
 39
0
 62
7
  0
LINE
  8
default
  6
CONTINUOUS
 10
50.000050
 20
70.700726
 11
41.497877
 21
66.433078
 39
0
 62
7
  0
LINE
  8
default
  6
CONTINUOUS
 10
41.497877
 20
87.387609
 11
41.497877
 21
100.000000
 39
0
 62
7
  0
LINE
  8
default
  6
CONTINUOUS
 10
50.000015
 20
91.655230
 11
41.497877
 21
87.387609
 39
0
 62
7
  0
LINE
  8
default
  6
CONTINUOUS
 10
45.748482
 20
77.102464
 11
0.000000
 21
100.000000
 39
0
 62
7
  0
LINE
  8
default
  6
CONTINUOUS
 10
8.313042
 20
100.000000
 11
12.787492
 21
97.754073
 39
0
 62
7
  0
LINE
  8
default
  6
CONTINUOUS
 10
17.261926
 20
100.000000
 11
12.787492
 21
97.754073
 39
0
 62
7
  0
LINE
  8
default
  6
CONTINUOUS
 10
17.261926
 20
100.000000
 11
45.748482
 21
85.175580
 39
0
 62
7
  0
LINE
  8
default
  6
CONTINUOUS
 10
45.748482
 20
77.102464
 11
45.748482
 21
85.175580
 39
0
 62
7
  0
LINE
  8
default
  6
CONTINUOUS
 10
17.261926
 20
100.000000
 11
17.261926
 21
91.360257
 39
0
 62
7
  0
LINE
  8
default
  6
CONTINUOUS
 10
17.261926
 20
91.360257
 11
8.502137
 21
86.963302
 39
0
 62
7
  0
LINE
  8
default
  6
CONTINUOUS
 10
8.502137
 20
91.530447
 11
8.502137
 21
62.868057
 39
0
 62
7
  0
LINE
  8
default
  6
CONTINUOUS
 10
0.000000
 20
67.135670
 11
8.502137
 21
62.868057
 39
0
 62
7
  0
LINE
  8
default
  6
CONTINUOUS
 10
45.748482
 20
77.102464
 11
36.988711
 21
72.705514
 39
0
 62
7
  0
LINE
  8
default
  6
CONTINUOUS
 10
32.993868
 20
66.432230
 11
32.993868
 21
74.704970
 39
0
 62
7
  0
LINE
  8
default
  6
CONTINUOUS
 10
36.988711
 20
72.705514
 11
8.502137
 21
86.963311
 39
0
 62
7
  0
LINE
  8
default
  6
CONTINUOUS
 10
4.282416
 20
60.828650
 11
32.993868
 21
74.704970
 39
0
 62
7
  0
LINE
  8
default
  6
CONTINUOUS
 10
4.282416
 20
52.020594
 11
4.282416
 21
60.828650
 39
0
 62
7
  0
LINE
  8
default
  6
CONTINUOUS
 10
50.000015
 20
74.968422
 11
95.715042
 21
52.021876
 39
0
 62
7
  0
LINE
  8
default
  6
CONTINUOUS
 10
58.502135
 20
62.165177
 11
67.003380
 21
66.432343
 39
0
 62
7
  0
LINE
  8
default
  6
CONTINUOUS
 10
49.999962
 20
70.700726
 11
58.502135
 21
66.433078
 39
0
 62
7
  0
LINE
  8
default
  6
CONTINUOUS
 10
58.502135
 20
87.387609
 11
58.502135
 21
100.000000
 39
0
 62
7
  0
LINE
  8
default
  6
CONTINUOUS
 10
50.000015
 20
91.655230
 11
58.502135
 21
87.387609
 39
0
 62
7
  0
LINE
  8
default
  6
CONTINUOUS
 10
54.251530
 20
77.102464
 11
100.000010
 21
100.000000
 39
0
 62
7
  0
LINE
  8
default
  6
CONTINUOUS
 10
91.686971
 20
100.000000
 11
87.212537
 21
97.754073
 39
0
 62
7
  0
LINE
  8
default
  6
CONTINUOUS
 10
82.738104
 20
100.000000
 11
87.212537
 21
97.754073
 39
0
 62
7
  0
LINE
  8
default
  6
CONTINUOUS
 10
82.738104
 20
100.000000
 11
54.251530
 21
85.175580
 39
0
 62
7
  0
LINE
  8
default
  6
CONTINUOUS
 10
54.251530
 20
77.102464
 11
54.251530
 21
85.175580
 39
0
 62
7
  0
LINE
  8
default
  6
CONTINUOUS
 10
82.738104
 20
100.000000
 11
82.738104
 21
91.360257
 39
0
 62
7
  0
LINE
  8
default
  6
CONTINUOUS
 10
82.738104
 20
91.360257
 11
91.497892
 21
86.963302
 39
0
 62
7
  0
LINE
  8
default
  6
CONTINUOUS
 10
99.911230
 20
95.753502
 11
91.497892
 21
91.530447
 39
0
 62
7
  0
LINE
  8
default
  6
CONTINUOUS
 10
91.497892
 20
91.530447
 11
91.497892
 21
62.868057
 39
0
 62
7
  0
LINE
  8
default
  6
CONTINUOUS
 10
100.000010
 20
67.135670
 11
91.497892
 21
62.868057
 39
0
 62
7
  0
LINE
  8
default
  6
CONTINUOUS
 10
54.251530
 20
77.102464
 11
63.011301
 21
72.705514
 39
0
 62
7
  0
LINE
  8
default
  6
CONTINUOUS
 10
67.006144
 20
66.432230
 11
67.006144
 21
74.704970
 39
0
 62
7
  0
LINE
  8
default
  6
CONTINUOUS
 10
63.011301
 20
72.705514
 11
91.497892
 21
86.963311
 39
0
 62
7
  0
LINE
  8
default
  6
CONTINUOUS
 10
95.717597
 20
60.828650
 11
67.006144
 21
74.704970
 39
0
 62
7
  0
LINE
  8
default
  6
CONTINUOUS
 10
95.717597
 20
52.020594
 11
95.717597
 21
60.828650
 39
0
 62
7
  0
LINE
  8
default
  6
CONTINUOUS
 10
0.000000
 20
100.000000
 11
0.000000
 21
0.000000
 39
0
 62
7
  0
LINE
  8
default
  6
CONTINUOUS
 10
100.000010
 20
45.798066
 11
91.497892
 21
41.530444
 39
0
 62
7
  0
LINE
  8
default
  6
CONTINUOUS
 10
54.251530
 20
27.102462
 11
100.000010
 21
50.000002
 39
0
 62
7
  0
LINE
  8
default
  6
CONTINUOUS
 10
100.000010
 20
17.135668
 11
91.497892
 21
12.868055
 39
0
 62
7
  0
LINE
  8
default
  6
CONTINUOUS
 10
0.000000
 20
95.798077
 11
8.502137
 21
91.530447
 39
0
 62
7
  0
LINE
  8
default
  6
CONTINUOUS
 10
0.000000
 20
17.135669
 11
8.502137
 21
12.868053
 39
0
 62
7
  0
ENDSEC
  0
EOF
