  0
SECTION
  2
HEADER
  9
$LIMMIN
 10
0.000000
 20
0.000000
  9
$LIMMAX
 10
85.000000
 20
83.287000
  9
$EXTMIN
 10
0.000000
 20
0.000000
  9
$EXTMAX
 10
85.000000
 20
83.287000
  9
$ANGBASE
 50
0.000000
  9
$ANGDIR
 70
0
  9
$INSUNITS
 70
0
  9
$DIMALT
 70
4
  9
$DIMLUNIT
 70
2
  9
$DIMASZ
 40
3.000000
  9
$DIMTXT
 40
5.000000
  9
$DIMRND
 40
0.010000
  9
$DIMEXE
 40
2.000000
  9
$DIMEXO
 40
2.000000
  9
$DIMAUNIT
 70
0
  9
$DIMADEC
 70
2
  9
$GRIDUNIT
 10
0.001000
 20
0.001000
  9
$PLIMMIN
 10
0.000000
 20
0.000000
  9
$PLIMMAX
 10
210.000000
 20
297.000000
  9
$PSVPSCALE
 40
1.000000
  0
ENDSEC
  0
SECTION
  2
TABLES
  0
TABLE
  2
LTYPE
 70
     1
  0
LTYPE
  2
CONTINUOUS
 70
    64
  3
Ausgez
 72
    65
 73
  0
 40
0.000000
  0
ENDTAB
  0
TABLE
  2
LAYER
 70
     1
  0
LAYER
  2
default
 70
    64
 62
0
  6
CONTINUOUS
  0
ENDTAB
  0
ENDSEC
  0
SECTION
  2
BLOCKS
  0
ENDSEC
  0
SECTION
  2
ENTITIES
  0
LINE
  8
default
  6
CONTINUOUS
 10
17.500000
 20
33.287000
 11
13.369000
 21
20.572000
 39
0
 62
7
  0
LINE
  8
default
  6
CONTINUOUS
 10
6.684000
 20
0.000000
 11
17.500000
 21
7.858000
 39
0
 62
7
  0
LINE
  8
default
  6
CONTINUOUS
 10
24.184000
 20
12.714000
 11
35.000000
 21
20.572000
 39
0
 62
7
  0
LINE
  8
default
  6
CONTINUOUS
 10
13.369000
 20
20.572000
 11
0.000000
 21
20.572000
 39
0
 62
7
  0
LINE
  8
default
  6
CONTINUOUS
 10
17.500000
 20
7.858000
 11
28.316000
 21
0.000000
 39
0
 62
7
  0
LINE
  8
default
  6
CONTINUOUS
 10
28.316000
 20
0.000000
 11
24.184000
 21
12.714000
 39
0
 62
7
  0
LINE
  8
default
  6
CONTINUOUS
 10
35.000000
 20
20.572000
 11
21.631000
 21
20.572000
 39
0
 62
7
  0
LINE
  8
default
  6
CONTINUOUS
 10
17.500000
 20
33.287000
 11
21.631000
 21
20.572000
 39
0
 62
7
  0
LINE
  8
default
  6
CONTINUOUS
 10
6.684000
 20
0.000000
 11
10.816000
 21
12.714000
 39
0
 62
7
  0
LINE
  8
default
  6
CONTINUOUS
 10
0.000000
 20
20.572000
 11
10.816000
 21
12.714000
 39
0
 62
7
  0
LINE
  8
default
  6
CONTINUOUS
 10
67.500000
 20
33.287000
 11
63.369000
 21
20.572000
 39
0
 62
7
  0
LINE
  8
default
  6
CONTINUOUS
 10
56.684000
 20
0.000000
 11
67.500000
 21
7.858000
 39
0
 62
7
  0
LINE
  8
default
  6
CONTINUOUS
 10
74.184000
 20
12.714000
 11
85.000000
 21
20.572000
 39
0
 62
7
  0
LINE
  8
default
  6
CONTINUOUS
 10
63.369000
 20
20.572000
 11
50.000000
 21
20.572000
 39
0
 62
7
  0
LINE
  8
default
  6
CONTINUOUS
 10
67.500000
 20
7.858000
 11
78.316000
 21
0.000000
 39
0
 62
7
  0
LINE
  8
default
  6
CONTINUOUS
 10
78.316000
 20
0.000000
 11
74.184000
 21
12.714000
 39
0
 62
7
  0
LINE
  8
default
  6
CONTINUOUS
 10
85.000000
 20
20.572000
 11
71.631000
 21
20.572000
 39
0
 62
7
  0
LINE
  8
default
  6
CONTINUOUS
 10
67.500000
 20
33.287000
 11
71.631000
 21
20.572000
 39
0
 62
7
  0
LINE
  8
default
  6
CONTINUOUS
 10
56.684000
 20
0.000000
 11
60.816000
 21
12.714000
 39
0
 62
7
  0
LINE
  8
default
  6
CONTINUOUS
 10
50.000000
 20
20.572000
 11
60.816000
 21
12.714000
 39
0
 62
7
  0
LINE
  8
default
  6
CONTINUOUS
 10
17.500000
 20
83.287000
 11
13.369000
 21
70.572000
 39
0
 62
7
  0
LINE
  8
default
  6
CONTINUOUS
 10
6.684000
 20
50.000000
 11
17.500000
 21
57.858000
 39
0
 62
7
  0
LINE
  8
default
  6
CONTINUOUS
 10
24.184000
 20
62.714000
 11
35.000000
 21
70.572000
 39
0
 62
7
  0
LINE
  8
default
  6
CONTINUOUS
 10
13.369000
 20
70.572000
 11
0.000000
 21
70.572000
 39
0
 62
7
  0
LINE
  8
default
  6
CONTINUOUS
 10
17.500000
 20
57.858000
 11
28.316000
 21
50.000000
 39
0
 62
7
  0
LINE
  8
default
  6
CONTINUOUS
 10
28.316000
 20
50.000000
 11
24.184000
 21
62.714000
 39
0
 62
7
  0
LINE
  8
default
  6
CONTINUOUS
 10
35.000000
 20
70.572000
 11
21.631000
 21
70.572000
 39
0
 62
7
  0
LINE
  8
default
  6
CONTINUOUS
 10
17.500000
 20
83.287000
 11
21.631000
 21
70.572000
 39
0
 62
7
  0
LINE
  8
default
  6
CONTINUOUS
 10
6.684000
 20
50.000000
 11
10.816000
 21
62.715000
 39
0
 62
7
  0
LINE
  8
default
  6
CONTINUOUS
 10
0.000000
 20
70.572000
 11
10.816000
 21
62.714000
 39
0
 62
7
  0
LINE
  8
default
  6
CONTINUOUS
 10
67.500000
 20
83.287000
 11
63.369000
 21
70.572000
 39
0
 62
7
  0
LINE
  8
default
  6
CONTINUOUS
 10
56.684000
 20
50.000000
 11
67.500000
 21
57.858000
 39
0
 62
7
  0
LINE
  8
default
  6
CONTINUOUS
 10
74.184000
 20
62.714000
 11
85.000000
 21
70.572000
 39
0
 62
7
  0
LINE
  8
default
  6
CONTINUOUS
 10
63.369000
 20
70.572000
 11
50.000000
 21
70.572000
 39
0
 62
7
  0
LINE
  8
default
  6
CONTINUOUS
 10
67.500000
 20
57.858000
 11
78.316000
 21
50.000000
 39
0
 62
7
  0
LINE
  8
default
  6
CONTINUOUS
 10
78.316000
 20
50.000000
 11
74.184000
 21
62.714000
 39
0
 62
7
  0
LINE
  8
default
  6
CONTINUOUS
 10
85.000000
 20
70.572000
 11
71.631000
 21
70.572000
 39
0
 62
7
  0
LINE
  8
default
  6
CONTINUOUS
 10
67.500000
 20
83.287000
 11
71.631000
 21
70.572000
 39
0
 62
7
  0
LINE
  8
default
  6
CONTINUOUS
 10
56.684000
 20
50.000000
 11
60.816000
 21
62.715000
 39
0
 62
7
  0
LINE
  8
default
  6
CONTINUOUS
 10
50.000000
 20
70.572000
 11
60.816000
 21
62.714000
 39
0
 62
7
  0
ENDSEC
  0
EOF
