  0
SECTION
  2
HEADER
  9
$LIMMIN
 10
-0.000046
 20
-0.000004
  9
$LIMMAX
 10
100.000023
 20
100.000000
  9
$EXTMIN
 10
-0.000046
 20
-0.000004
  9
$EXTMAX
 10
100.000023
 20
100.000000
  0
ENDSEC
  0
SECTION
  2
TABLES
  0
TABLE
  2
LTYPE
 70
     1
  0
LTYPE
  2
CONTINUOUS
 70
    64
  3
Ausgez
 72
    65
 73
  0
 40
0.000000
  0
ENDTAB
  0
TABLE
  2
LAYER
 70
     1
  0
LAYER
  2
default
 70
    64
 62
     0
  6
CONTINUOUS
  0
ENDTAB
  0
ENDSEC
  0
SECTION
  2
BLOCKS
  0
ENDSEC
  0
SECTION
  2
ENTITIES
  0
LINE
  8
default
  6
CONTINUOUS
 10
0.000000
 20
0.000000
 11
100.000000
 21
100.000000
 39
0
 62
0
  0
LINE
  8
default
  6
CONTINUOUS
 10
0.000000
 20
2.000000
 11
98.000000
 21
100.000000
 39
0
 62
0
  0
LINE
  8
default
  6
CONTINUOUS
 10
0.000000
 20
4.000000
 11
96.000000
 21
100.000000
 39
0
 62
0
  0
LINE
  8
default
  6
CONTINUOUS
 10
0.000000
 20
6.000000
 11
94.000000
 21
100.000000
 39
0
 62
0
  0
LINE
  8
default
  6
CONTINUOUS
 10
0.000000
 20
7.999998
 11
92.000000
 21
100.000000
 39
0
 62
0
  0
LINE
  8
default
  6
CONTINUOUS
 10
0.000000
 20
10.000002
 11
90.000000
 21
100.000000
 39
0
 62
0
  0
LINE
  8
default
  6
CONTINUOUS
 10
0.000000
 20
12.000000
 11
88.000000
 21
100.000000
 39
0
 62
0
  0
LINE
  8
default
  6
CONTINUOUS
 10
0.000000
 20
13.999998
 11
86.000000
 21
100.000000
 39
0
 62
0
  0
LINE
  8
default
  6
CONTINUOUS
 10
0.000000
 20
16.000002
 11
84.000000
 21
100.000000
 39
0
 62
0
  0
LINE
  8
default
  6
CONTINUOUS
 10
0.000000
 20
18.000000
 11
82.000000
 21
100.000000
 39
0
 62
0
  0
LINE
  8
default
  6
CONTINUOUS
 10
0.000000
 20
19.999998
 11
80.000000
 21
100.000000
 39
0
 62
0
  0
LINE
  8
default
  6
CONTINUOUS
 10
0.000000
 20
22.000004
 11
78.000000
 21
100.000000
 39
0
 62
0
  0
LINE
  8
default
  6
CONTINUOUS
 10
0.000000
 20
24.000000
 11
76.000000
 21
100.000000
 39
0
 62
0
  0
LINE
  8
default
  6
CONTINUOUS
 10
0.000000
 20
26.000000
 11
74.000000
 21
100.000000
 39
0
 62
0
  0
LINE
  8
default
  6
CONTINUOUS
 10
0.000000
 20
27.999996
 11
72.000000
 21
100.000000
 39
0
 62
0
  0
LINE
  8
default
  6
CONTINUOUS
 10
0.000000
 20
30.000002
 11
70.000000
 21
100.000000
 39
0
 62
0
  0
LINE
  8
default
  6
CONTINUOUS
 10
0.000000
 20
32.000000
 11
68.000000
 21
100.000000
 39
0
 62
0
  0
LINE
  8
default
  6
CONTINUOUS
 10
0.000000
 20
33.999996
 11
66.000000
 21
100.000000
 39
0
 62
0
  0
LINE
  8
default
  6
CONTINUOUS
 10
0.000000
 20
36.000000
 11
64.000000
 21
100.000000
 39
0
 62
0
  0
LINE
  8
default
  6
CONTINUOUS
 10
0.000000
 20
38.000000
 11
62.000000
 21
100.000000
 39
0
 62
0
  0
LINE
  8
default
  6
CONTINUOUS
 10
0.000000
 20
39.999996
 11
60.000000
 21
100.000000
 39
0
 62
0
  0
LINE
  8
default
  6
CONTINUOUS
 10
0.000000
 20
42.000000
 11
58.000000
 21
100.000000
 39
0
 62
0
  0
LINE
  8
default
  6
CONTINUOUS
 10
0.000000
 20
44.000000
 11
56.000000
 21
100.000000
 39
0
 62
0
  0
LINE
  8
default
  6
CONTINUOUS
 10
0.000000
 20
45.999996
 11
54.000000
 21
100.000000
 39
0
 62
0
  0
LINE
  8
default
  6
CONTINUOUS
 10
0.000000
 20
48.000000
 11
52.000000
 21
100.000000
 39
0
 62
0
  0
LINE
  8
default
  6
CONTINUOUS
 10
0.000000
 20
50.000000
 11
50.000000
 21
100.000000
 39
0
 62
0
  0
LINE
  8
default
  6
CONTINUOUS
 10
0.000000
 20
52.000000
 11
48.000000
 21
100.000000
 39
0
 62
0
  0
LINE
  8
default
  6
CONTINUOUS
 10
0.000000
 20
54.000000
 11
46.000000
 21
100.000000
 39
0
 62
0
  0
LINE
  8
default
  6
CONTINUOUS
 10
0.000000
 20
56.000000
 11
44.000000
 21
100.000000
 39
0
 62
0
  0
LINE
  8
default
  6
CONTINUOUS
 10
0.000000
 20
58.000000
 11
42.000000
 21
100.000000
 39
0
 62
0
  0
LINE
  8
default
  6
CONTINUOUS
 10
0.000000
 20
60.000000
 11
40.000000
 21
100.000000
 39
0
 62
0
  0
LINE
  8
default
  6
CONTINUOUS
 10
0.000000
 20
62.000000
 11
38.000000
 21
100.000000
 39
0
 62
0
  0
LINE
  8
default
  6
CONTINUOUS
 10
0.000000
 20
64.000000
 11
36.000000
 21
100.000000
 39
0
 62
0
  0
LINE
  8
default
  6
CONTINUOUS
 10
0.000000
 20
66.000000
 11
34.000000
 21
100.000000
 39
0
 62
0
  0
LINE
  8
default
  6
CONTINUOUS
 10
0.000000
 20
68.000000
 11
32.000000
 21
100.000000
 39
0
 62
0
  0
LINE
  8
default
  6
CONTINUOUS
 10
0.000000
 20
70.000000
 11
30.000000
 21
100.000000
 39
0
 62
0
  0
LINE
  8
default
  6
CONTINUOUS
 10
0.000000
 20
72.000000
 11
28.000000
 21
100.000000
 39
0
 62
0
  0
LINE
  8
default
  6
CONTINUOUS
 10
0.000000
 20
74.000000
 11
26.000000
 21
100.000000
 39
0
 62
0
  0
LINE
  8
default
  6
CONTINUOUS
 10
0.000000
 20
76.000000
 11
24.000000
 21
100.000000
 39
0
 62
0
  0
LINE
  8
default
  6
CONTINUOUS
 10
0.000000
 20
78.000000
 11
22.000000
 21
100.000000
 39
0
 62
0
  0
LINE
  8
default
  6
CONTINUOUS
 10
0.000000
 20
80.000000
 11
20.000000
 21
100.000000
 39
0
 62
0
  0
LINE
  8
default
  6
CONTINUOUS
 10
0.000000
 20
82.000000
 11
18.000000
 21
100.000000
 39
0
 62
0
  0
LINE
  8
default
  6
CONTINUOUS
 10
0.000000
 20
84.000000
 11
16.000000
 21
100.000000
 39
0
 62
0
  0
LINE
  8
default
  6
CONTINUOUS
 10
0.000000
 20
86.000000
 11
14.000000
 21
100.000000
 39
0
 62
0
  0
LINE
  8
default
  6
CONTINUOUS
 10
0.000000
 20
88.000000
 11
12.000000
 21
100.000000
 39
0
 62
0
  0
LINE
  8
default
  6
CONTINUOUS
 10
0.000000
 20
90.000000
 11
10.000000
 21
100.000000
 39
0
 62
0
  0
LINE
  8
default
  6
CONTINUOUS
 10
0.000000
 20
92.000000
 11
8.000000
 21
100.000000
 39
0
 62
0
  0
LINE
  8
default
  6
CONTINUOUS
 10
0.000000
 20
94.000000
 11
6.000000
 21
100.000000
 39
0
 62
0
  0
LINE
  8
default
  6
CONTINUOUS
 10
0.000000
 20
96.000000
 11
4.000000
 21
100.000000
 39
0
 62
0
  0
LINE
  8
default
  6
CONTINUOUS
 10
0.000000
 20
98.000000
 11
2.000000
 21
100.000000
 39
0
 62
0
  0
LINE
  8
default
  6
CONTINUOUS
 10
2.000000
 20
0.000000
 11
99.999992
 21
98.000008
 39
0
 62
0
  0
LINE
  8
default
  6
CONTINUOUS
 10
4.000000
 20
0.000000
 11
100.000000
 21
96.000000
 39
0
 62
0
  0
LINE
  8
default
  6
CONTINUOUS
 10
6.000000
 20
0.000000
 11
100.000000
 21
94.000000
 39
0
 62
0
  0
LINE
  8
default
  6
CONTINUOUS
 10
7.999998
 20
0.000000
 11
100.000000
 21
92.000000
 39
0
 62
0
  0
LINE
  8
default
  6
CONTINUOUS
 10
10.000002
 20
-0.000000
 11
100.000000
 21
90.000000
 39
0
 62
0
  0
LINE
  8
default
  6
CONTINUOUS
 10
11.999999
 20
0.000001
 11
100.000000
 21
88.000000
 39
0
 62
0
  0
LINE
  8
default
  6
CONTINUOUS
 10
13.999997
 20
0.000001
 11
100.000000
 21
86.000000
 39
0
 62
0
  0
LINE
  8
default
  6
CONTINUOUS
 10
16.000002
 20
-0.000001
 11
100.000000
 21
84.000000
 39
0
 62
0
  0
LINE
  8
default
  6
CONTINUOUS
 10
18.000000
 20
-0.000001
 11
100.000000
 21
82.000000
 39
0
 62
0
  0
LINE
  8
default
  6
CONTINUOUS
 10
19.999998
 20
-0.000001
 11
100.000000
 21
80.000000
 39
0
 62
0
  0
LINE
  8
default
  6
CONTINUOUS
 10
22.000004
 20
0.000000
 11
100.000000
 21
78.000000
 39
0
 62
0
  0
LINE
  8
default
  6
CONTINUOUS
 10
23.999998
 20
0.000001
 11
100.000008
 21
75.999992
 39
0
 62
0
  0
LINE
  8
default
  6
CONTINUOUS
 10
26.000002
 20
-0.000001
 11
100.000000
 21
74.000000
 39
0
 62
0
  0
LINE
  8
default
  6
CONTINUOUS
 10
27.999994
 20
0.000001
 11
100.000000
 21
72.000000
 39
0
 62
0
  0
LINE
  8
default
  6
CONTINUOUS
 10
30.000002
 20
-0.000001
 11
100.000000
 21
70.000000
 39
0
 62
0
  0
LINE
  8
default
  6
CONTINUOUS
 10
32.000000
 20
0.000001
 11
100.000000
 21
68.000000
 39
0
 62
0
  0
LINE
  8
default
  6
CONTINUOUS
 10
33.999996
 20
-0.000000
 11
100.000000
 21
66.000000
 39
0
 62
0
  0
LINE
  8
default
  6
CONTINUOUS
 10
36.000000
 20
-0.000001
 11
100.000000
 21
64.000000
 39
0
 62
0
  0
LINE
  8
default
  6
CONTINUOUS
 10
38.000000
 20
-0.000001
 11
100.000000
 21
61.999996
 39
0
 62
0
  0
LINE
  8
default
  6
CONTINUOUS
 10
39.999996
 20
-0.000001
 11
100.000000
 21
60.000000
 39
0
 62
0
  0
LINE
  8
default
  6
CONTINUOUS
 10
42.000000
 20
0.000001
 11
100.000008
 21
57.999996
 39
0
 62
0
  0
LINE
  8
default
  6
CONTINUOUS
 10
44.000000
 20
0.000001
 11
100.000000
 21
56.000000
 39
0
 62
0
  0
LINE
  8
default
  6
CONTINUOUS
 10
45.999996
 20
0.000001
 11
100.000000
 21
54.000000
 39
0
 62
0
  0
LINE
  8
default
  6
CONTINUOUS
 10
47.999996
 20
0.000002
 11
100.000000
 21
51.999996
 39
0
 62
0
  0
LINE
  8
default
  6
CONTINUOUS
 10
50.000000
 20
0.000000
 11
100.000000
 21
50.000000
 39
0
 62
0
  0
LINE
  8
default
  6
CONTINUOUS
 10
52.000004
 20
-0.000002
 11
100.000000
 21
48.000004
 39
0
 62
0
  0
LINE
  8
default
  6
CONTINUOUS
 10
54.000000
 20
0.000001
 11
100.000000
 21
46.000000
 39
0
 62
0
  0
LINE
  8
default
  6
CONTINUOUS
 10
56.000000
 20
-0.000001
 11
99.999992
 21
44.000004
 39
0
 62
0
  0
LINE
  8
default
  6
CONTINUOUS
 10
57.999996
 20
0.000002
 11
100.000008
 21
41.999992
 39
0
 62
0
  0
LINE
  8
default
  6
CONTINUOUS
 10
60.000000
 20
0.000000
 11
100.000008
 21
39.999996
 39
0
 62
0
  0
LINE
  8
default
  6
CONTINUOUS
 10
62.000004
 20
-0.000002
 11
99.999992
 21
38.000008
 39
0
 62
0
  0
LINE
  8
default
  6
CONTINUOUS
 10
64.000000
 20
0.000001
 11
100.000008
 21
35.999996
 39
0
 62
0
  0
LINE
  8
default
  6
CONTINUOUS
 10
66.000000
 20
-0.000001
 11
100.000008
 21
33.999992
 39
0
 62
0
  0
LINE
  8
default
  6
CONTINUOUS
 10
68.000000
 20
0.000002
 11
99.999992
 21
32.000008
 39
0
 62
0
  0
LINE
  8
default
  6
CONTINUOUS
 10
70.000000
 20
0.000000
 11
100.000008
 21
29.999989
 39
0
 62
0
  0
LINE
  8
default
  6
CONTINUOUS
 10
72.000000
 20
-0.000002
 11
99.999992
 21
28.000010
 39
0
 62
0
  0
LINE
  8
default
  6
CONTINUOUS
 10
74.000000
 20
0.000001
 11
99.999992
 21
26.000006
 39
0
 62
0
  0
LINE
  8
default
  6
CONTINUOUS
 10
76.000000
 20
-0.000001
 11
99.999992
 21
24.000004
 39
0
 62
0
  0
LINE
  8
default
  6
CONTINUOUS
 10
78.000000
 20
0.000002
 11
100.000000
 21
21.999996
 39
0
 62
0
  0
LINE
  8
default
  6
CONTINUOUS
 10
80.000000
 20
0.000000
 11
100.000008
 21
19.999989
 39
0
 62
0
  0
LINE
  8
default
  6
CONTINUOUS
 10
82.000000
 20
-0.000002
 11
100.000000
 21
17.999998
 39
0
 62
0
  0
LINE
  8
default
  6
CONTINUOUS
 10
84.000000
 20
0.000001
 11
100.000000
 21
16.000002
 39
0
 62
0
  0
LINE
  8
default
  6
CONTINUOUS
 10
86.000000
 20
-0.000001
 11
99.999992
 21
14.000005
 39
0
 62
0
  0
LINE
  8
default
  6
CONTINUOUS
 10
88.000000
 20
0.000002
 11
100.000000
 21
11.999997
 39
0
 62
0
  0
LINE
  8
default
  6
CONTINUOUS
 10
90.000000
 20
0.000000
 11
100.000000
 21
10.000000
 39
0
 62
0
  0
LINE
  8
default
  6
CONTINUOUS
 10
92.000000
 20
-0.000002
 11
100.000000
 21
7.999998
 39
0
 62
0
  0
LINE
  8
default
  6
CONTINUOUS
 10
94.000008
 20
-0.000004
 11
99.999992
 21
6.000007
 39
0
 62
0
  0
LINE
  8
default
  6
CONTINUOUS
 10
95.999992
 20
0.000004
 11
99.999992
 21
4.000004
 39
0
 62
0
  0
LINE
  8
default
  6
CONTINUOUS
 10
98.000000
 20
0.000002
 11
100.000008
 21
1.999991
 39
0
 62
0
  0
LINE
  8
default
  6
CONTINUOUS
 10
99.999992
 20
0.000000
 11
0.000000
 21
100.000000
 39
0
 62
0
  0
LINE
  8
default
  6
CONTINUOUS
 10
99.999977
 20
2.000000
 11
2.000000
 21
100.000000
 39
0
 62
0
  0
LINE
  8
default
  6
CONTINUOUS
 10
99.999969
 20
4.000000
 11
4.000000
 21
100.000000
 39
0
 62
0
  0
LINE
  8
default
  6
CONTINUOUS
 10
100.000023
 20
6.000000
 11
6.000000
 21
100.000000
 39
0
 62
0
  0
LINE
  8
default
  6
CONTINUOUS
 10
99.999992
 20
7.999998
 11
8.000000
 21
100.000000
 39
0
 62
0
  0
LINE
  8
default
  6
CONTINUOUS
 10
99.999969
 20
10.000002
 11
10.000000
 21
100.000000
 39
0
 62
0
  0
LINE
  8
default
  6
CONTINUOUS
 10
99.999985
 20
12.000000
 11
12.000000
 21
100.000000
 39
0
 62
0
  0
LINE
  8
default
  6
CONTINUOUS
 10
100.000008
 20
13.999998
 11
14.000000
 21
100.000000
 39
0
 62
0
  0
LINE
  8
default
  6
CONTINUOUS
 10
100.000023
 20
16.000002
 11
16.000000
 21
100.000000
 39
0
 62
0
  0
LINE
  8
default
  6
CONTINUOUS
 10
99.999985
 20
18.000000
 11
18.000000
 21
100.000000
 39
0
 62
0
  0
LINE
  8
default
  6
CONTINUOUS
 10
100.000008
 20
19.999998
 11
20.000000
 21
100.000000
 39
0
 62
0
  0
LINE
  8
default
  6
CONTINUOUS
 10
100.000015
 20
22.000004
 11
22.000000
 21
100.000000
 39
0
 62
0
  0
LINE
  8
default
  6
CONTINUOUS
 10
99.999977
 20
24.000000
 11
24.000000
 21
100.000000
 39
0
 62
0
  0
LINE
  8
default
  6
CONTINUOUS
 10
99.999977
 20
26.000000
 11
26.000000
 21
100.000000
 39
0
 62
0
  0
LINE
  8
default
  6
CONTINUOUS
 10
100.000008
 20
27.999996
 11
28.000000
 21
100.000000
 39
0
 62
0
  0
LINE
  8
default
  6
CONTINUOUS
 10
99.999985
 20
30.000002
 11
30.000000
 21
100.000000
 39
0
 62
0
  0
LINE
  8
default
  6
CONTINUOUS
 10
100.000008
 20
32.000000
 11
32.000000
 21
100.000000
 39
0
 62
0
  0
LINE
  8
default
  6
CONTINUOUS
 10
100.000000
 20
33.999996
 11
34.000000
 21
100.000000
 39
0
 62
0
  0
LINE
  8
default
  6
CONTINUOUS
 10
100.000000
 20
36.000000
 11
36.000000
 21
100.000000
 39
0
 62
0
  0
LINE
  8
default
  6
CONTINUOUS
 10
99.999985
 20
38.000000
 11
38.000000
 21
100.000000
 39
0
 62
0
  0
LINE
  8
default
  6
CONTINUOUS
 10
100.000008
 20
39.999996
 11
40.000000
 21
100.000000
 39
0
 62
0
  0
LINE
  8
default
  6
CONTINUOUS
 10
100.000015
 20
42.000000
 11
42.000000
 21
100.000000
 39
0
 62
0
  0
LINE
  8
default
  6
CONTINUOUS
 10
100.000000
 20
44.000000
 11
44.000000
 21
100.000000
 39
0
 62
0
  0
LINE
  8
default
  6
CONTINUOUS
 10
99.999992
 20
45.999996
 11
46.000000
 21
100.000000
 39
0
 62
0
  0
LINE
  8
default
  6
CONTINUOUS
 10
99.999992
 20
48.000000
 11
48.000000
 21
100.000000
 39
0
 62
0
  0
LINE
  8
default
  6
CONTINUOUS
 10
100.000000
 20
50.000000
 11
50.000000
 21
100.000000
 39
0
 62
0
  0
LINE
  8
default
  6
CONTINUOUS
 10
100.000000
 20
52.000000
 11
52.000000
 21
100.000000
 39
0
 62
0
  0
LINE
  8
default
  6
CONTINUOUS
 10
100.000000
 20
54.000000
 11
54.000000
 21
100.000000
 39
0
 62
0
  0
LINE
  8
default
  6
CONTINUOUS
 10
100.000000
 20
56.000000
 11
56.000000
 21
100.000000
 39
0
 62
0
  0
LINE
  8
default
  6
CONTINUOUS
 10
100.000000
 20
58.000000
 11
58.000000
 21
100.000000
 39
0
 62
0
  0
LINE
  8
default
  6
CONTINUOUS
 10
100.000008
 20
60.000000
 11
60.000000
 21
100.000000
 39
0
 62
0
  0
LINE
  8
default
  6
CONTINUOUS
 10
100.000000
 20
62.000000
 11
62.000000
 21
100.000000
 39
0
 62
0
  0
LINE
  8
default
  6
CONTINUOUS
 10
99.999992
 20
64.000000
 11
64.000000
 21
100.000000
 39
0
 62
0
  0
LINE
  8
default
  6
CONTINUOUS
 10
100.000008
 20
66.000000
 11
66.000000
 21
100.000000
 39
0
 62
0
  0
LINE
  8
default
  6
CONTINUOUS
 10
99.999992
 20
68.000000
 11
68.000000
 21
100.000000
 39
0
 62
0
  0
LINE
  8
default
  6
CONTINUOUS
 10
100.000000
 20
70.000000
 11
70.000000
 21
100.000000
 39
0
 62
0
  0
LINE
  8
default
  6
CONTINUOUS
 10
100.000000
 20
72.000000
 11
72.000000
 21
100.000000
 39
0
 62
0
  0
LINE
  8
default
  6
CONTINUOUS
 10
100.000000
 20
74.000000
 11
74.000000
 21
100.000000
 39
0
 62
0
  0
LINE
  8
default
  6
CONTINUOUS
 10
99.999992
 20
76.000000
 11
76.000000
 21
100.000000
 39
0
 62
0
  0
LINE
  8
default
  6
CONTINUOUS
 10
99.999992
 20
78.000000
 11
78.000000
 21
100.000000
 39
0
 62
0
  0
LINE
  8
default
  6
CONTINUOUS
 10
100.000000
 20
80.000000
 11
80.000000
 21
100.000000
 39
0
 62
0
  0
LINE
  8
default
  6
CONTINUOUS
 10
100.000000
 20
82.000000
 11
82.000000
 21
100.000000
 39
0
 62
0
  0
LINE
  8
default
  6
CONTINUOUS
 10
100.000000
 20
84.000000
 11
84.000000
 21
100.000000
 39
0
 62
0
  0
LINE
  8
default
  6
CONTINUOUS
 10
100.000000
 20
86.000000
 11
86.000000
 21
100.000000
 39
0
 62
0
  0
LINE
  8
default
  6
CONTINUOUS
 10
100.000008
 20
88.000000
 11
88.000000
 21
100.000000
 39
0
 62
0
  0
LINE
  8
default
  6
CONTINUOUS
 10
100.000000
 20
90.000000
 11
90.000000
 21
100.000000
 39
0
 62
0
  0
LINE
  8
default
  6
CONTINUOUS
 10
100.000000
 20
92.000000
 11
92.000000
 21
100.000000
 39
0
 62
0
  0
LINE
  8
default
  6
CONTINUOUS
 10
100.000000
 20
94.000000
 11
94.000000
 21
100.000000
 39
0
 62
0
  0
LINE
  8
default
  6
CONTINUOUS
 10
100.000000
 20
96.000000
 11
96.000000
 21
100.000000
 39
0
 62
0
  0
LINE
  8
default
  6
CONTINUOUS
 10
100.000000
 20
98.000000
 11
98.000000
 21
100.000000
 39
0
 62
0
  0
LINE
  8
default
  6
CONTINUOUS
 10
98.000000
 20
0.000000
 11
0.000000
 21
98.000008
 39
0
 62
0
  0
LINE
  8
default
  6
CONTINUOUS
 10
95.999969
 20
0.000000
 11
0.000000
 21
96.000000
 39
0
 62
0
  0
LINE
  8
default
  6
CONTINUOUS
 10
94.000008
 20
0.000000
 11
0.000000
 21
94.000000
 39
0
 62
0
  0
LINE
  8
default
  6
CONTINUOUS
 10
92.000015
 20
0.000000
 11
0.000000
 21
92.000000
 39
0
 62
0
  0
LINE
  8
default
  6
CONTINUOUS
 10
89.999985
 20
0.000000
 11
0.000000
 21
90.000000
 39
0
 62
0
  0
LINE
  8
default
  6
CONTINUOUS
 10
88.000008
 20
0.000001
 11
-0.000008
 21
88.000000
 39
0
 62
0
  0
LINE
  8
default
  6
CONTINUOUS
 10
86.000046
 20
0.000001
 11
0.000000
 21
86.000000
 39
0
 62
0
  0
LINE
  8
default
  6
CONTINUOUS
 10
83.999992
 20
-0.000001
 11
-0.000008
 21
84.000000
 39
0
 62
0
  0
LINE
  8
default
  6
CONTINUOUS
 10
82.000015
 20
-0.000001
 11
0.000008
 21
82.000000
 39
0
 62
0
  0
LINE
  8
default
  6
CONTINUOUS
 10
80.000015
 20
-0.000001
 11
0.000015
 21
80.000000
 39
0
 62
0
  0
LINE
  8
default
  6
CONTINUOUS
 10
77.999985
 20
0.000000
 11
-0.000008
 21
78.000000
 39
0
 62
0
  0
LINE
  8
default
  6
CONTINUOUS
 10
76.000008
 20
0.000001
 11
0.000000
 21
75.999992
 39
0
 62
0
  0
LINE
  8
default
  6
CONTINUOUS
 10
73.999985
 20
-0.000001
 11
0.000000
 21
74.000000
 39
0
 62
0
  0
LINE
  8
default
  6
CONTINUOUS
 10
71.999962
 20
0.000001
 11
0.000015
 21
72.000000
 39
0
 62
0
  0
LINE
  8
default
  6
CONTINUOUS
 10
70.000015
 20
-0.000001
 11
-0.000015
 21
70.000000
 39
0
 62
0
  0
LINE
  8
default
  6
CONTINUOUS
 10
68.000015
 20
0.000001
 11
-0.000015
 21
68.000000
 39
0
 62
0
  0
LINE
  8
default
  6
CONTINUOUS
 10
65.999977
 20
0.000000
 11
-0.000008
 21
66.000000
 39
0
 62
0
  0
LINE
  8
default
  6
CONTINUOUS
 10
63.999977
 20
-0.000001
 11
-0.000015
 21
64.000000
 39
0
 62
0
  0
LINE
  8
default
  6
CONTINUOUS
 10
62.000000
 20
-0.000001
 11
-0.000008
 21
61.999996
 39
0
 62
0
  0
LINE
  8
default
  6
CONTINUOUS
 10
60.000027
 20
-0.000001
 11
0.000015
 21
60.000000
 39
0
 62
0
  0
LINE
  8
default
  6
CONTINUOUS
 10
57.999973
 20
0.000001
 11
0.000023
 21
57.999996
 39
0
 62
0
  0
LINE
  8
default
  6
CONTINUOUS
 10
55.999977
 20
0.000001
 11
0.000000
 21
56.000000
 39
0
 62
0
  0
LINE
  8
default
  6
CONTINUOUS
 10
54.000027
 20
0.000001
 11
-0.000023
 21
54.000000
 39
0
 62
0
  0
LINE
  8
default
  6
CONTINUOUS
 10
51.999958
 20
0.000002
 11
0.000015
 21
51.999996
 39
0
 62
0
  0
LINE
  8
default
  6
CONTINUOUS
 10
50.000000
 20
0.000000
 11
0.000000
 21
50.000000
 39
0
 62
0
  0
LINE
  8
default
  6
CONTINUOUS
 10
48.000042
 20
-0.000002
 11
-0.000015
 21
48.000004
 39
0
 62
0
  0
LINE
  8
default
  6
CONTINUOUS
 10
45.999969
 20
0.000001
 11
0.000015
 21
46.000000
 39
0
 62
0
  0
LINE
  8
default
  6
CONTINUOUS
 10
44.000023
 20
-0.000001
 11
0.000038
 21
44.000004
 39
0
 62
0
  0
LINE
  8
default
  6
CONTINUOUS
 10
42.000023
 20
0.000002
 11
-0.000023
 21
41.999992
 39
0
 62
0
  0
LINE
  8
default
  6
CONTINUOUS
 10
39.999969
 20
0.000000
 11
0.000000
 21
39.999996
 39
0
 62
0
  0
LINE
  8
default
  6
CONTINUOUS
 10
38.000004
 20
-0.000002
 11
0.000023
 21
38.000008
 39
0
 62
0
  0
LINE
  8
default
  6
CONTINUOUS
 10
36.000023
 20
0.000001
 11
-0.000038
 21
35.999996
 39
0
 62
0
  0
LINE
  8
default
  6
CONTINUOUS
 10
34.000023
 20
-0.000001
 11
-0.000038
 21
33.999992
 39
0
 62
0
  0
LINE
  8
default
  6
CONTINUOUS
 10
31.999981
 20
0.000002
 11
0.000038
 21
32.000008
 39
0
 62
0
  0
LINE
  8
default
  6
CONTINUOUS
 10
29.999985
 20
0.000000
 11
-0.000031
 21
29.999989
 39
0
 62
0
  0
LINE
  8
default
  6
CONTINUOUS
 10
28.000031
 20
-0.000002
 11
0.000000
 21
28.000010
 39
0
 62
0
  0
LINE
  8
default
  6
CONTINUOUS
 10
26.000019
 20
0.000001
 11
0.000031
 21
26.000006
 39
0
 62
0
  0
LINE
  8
default
  6
CONTINUOUS
 10
23.999992
 20
-0.000001
 11
0.000023
 21
24.000004
 39
0
 62
0
  0
LINE
  8
default
  6
CONTINUOUS
 10
22.000015
 20
0.000002
 11
-0.000015
 21
21.999996
 39
0
 62
0
  0
LINE
  8
default
  6
CONTINUOUS
 10
19.999981
 20
0.000000
 11
0.000023
 21
19.999989
 39
0
 62
0
  0
LINE
  8
default
  6
CONTINUOUS
 10
17.999939
 20
-0.000002
 11
-0.000031
 21
17.999998
 39
0
 62
0
  0
LINE
  8
default
  6
CONTINUOUS
 10
16.000061
 20
0.000001
 11
-0.000023
 21
16.000002
 39
0
 62
0
  0
LINE
  8
default
  6
CONTINUOUS
 10
13.999954
 20
-0.000001
 11
-0.000008
 21
14.000005
 39
0
 62
0
  0
LINE
  8
default
  6
CONTINUOUS
 10
11.999992
 20
0.000002
 11
-0.000031
 21
11.999997
 39
0
 62
0
  0
LINE
  8
default
  6
CONTINUOUS
 10
10.000069
 20
0.000000
 11
0.000031
 21
10.000000
 39
0
 62
0
  0
LINE
  8
default
  6
CONTINUOUS
 10
7.999985
 20
-0.000002
 11
-0.000046
 21
7.999998
 39
0
 62
0
  0
LINE
  8
default
  6
CONTINUOUS
 10
5.999939
 20
-0.000004
 11
-0.000031
 21
6.000007
 39
0
 62
0
  0
LINE
  8
default
  6
CONTINUOUS
 10
4.000023
 20
0.000004
 11
0.000031
 21
4.000004
 39
0
 62
0
  0
LINE
  8
default
  6
CONTINUOUS
 10
2.000053
 20
0.000002
 11
0.000015
 21
1.999991
 39
0
 62
0
  0
ENDSEC
  0
EOF