999
dxfrw 0.6.3
  0
SECTION
  2
HEADER
  9
$ACADVER
  1
AC1021
  9
$DWGCODEPAGE
  3
ANSI_1252
  9
$TITLE
  1

  9
$SUBJECT
  1

  9
$AUTHOR
  1

  9
$KEYWORDS
  1

  9
$COMMENTS
  1

  9
$INSBASE
 10
0
 20
0
 30
0
  9
$EXTMIN
 10
106.5972222222225
 20
108.5416666666671
 30
0
  9
$EXTMAX
 10
106.5972222222225
 20
108.5416666666671
 30
0
  9
$LIMMIN
 10
0
 20
0
  9
$LIMMAX
 10
420
 20
297
  9
$ORTHOMODE
 70
    0
  9
$REGENMODE
 70
    1
  9
$FILLMODE
 70
    1
  9
$QTEXTMODE
 70
    0
  9
$MIRRTEXT
 70
    0
  9
$LTSCALE
 40
1
  9
$ATTMODE
 70
    0
  9
$TEXTSIZE
 40
2.5
  9
$TRACEWID
 40
15.68
  9
$TEXTSTYLE
  7
STANDARD
  9
$CLAYER
  8
0
  9
$CELTYPE
  6
BYLAYER
  9
$CECOLOR
 62
  256
  9
$CELTSCALE
 40
1
  9
$DISPSILH
 70
    0
  9
$DIMSCALE
 40
1
  9
$DIMASZ
 40
2.5
  9
$DIMEXO
 40
0.625
  9
$DIMDLI
 40
3.75
  9
$DIMRND
 40
0
  9
$DIMDLE
 40
0
  9
$DIMEXE
 40
1.25
  9
$DIMTP
 40
0
  9
$DIMTM
 40
0
  9
$DIMTXT
 40
2.5
  9
$DIMCEN
 40
2.5
  9
$DIMTSZ
 40
0
  9
$DIMTOL
 70
    0
  9
$DIMLIM
 70
    0
  9
$DIMTIH
 70
    0
  9
$DIMTOH
 70
    0
  9
$DIMSE1
 70
    0
  9
$DIMSE2
 70
    0
  9
$DIMTAD
 70
    1
  9
$DIMZIN
 70
    8
  9
$DIMBLK
  1

  9
$DIMASO
 70
    1
  9
$DIMSHO
 70
    1
  9
$DIMPOST
  1

  9
$DIMAPOST
  1

  9
$DIMALT
 70
    0
  9
$DIMALTD
 70
    3
  9
$DIMALTF
 40
0.03937
  9
$DIMLFAC
 40
1
  9
$DIMTOFL
 70
    1
  9
$DIMTVP
 40
0
  9
$DIMTIX
 70
    0
  9
$DIMSOXD
 70
    0
  9
$DIMSAH
 70
    0
  9
$DIMBLK1
  1

  9
$DIMBLK2
  1

  9
$DIMSTYLE
  2
Standard
  9
$DIMCLRD
 70
    0
  9
$DIMCLRE
 70
    0
  9
$DIMCLRT
 70
    0
  9
$DIMTFAC
 40
1
  9
$DIMGAP
 40
0.625
  9
$DIMJUST
 70
    0
  9
$DIMSD1
 70
    0
  9
$DIMSD2
 70
    0
  9
$DIMTOLJ
 70
    0
  9
$DIMTZIN
 70
    8
  9
$DIMALTZ
 70
    0
  9
$DIMALTTZ
 70
    0
  9
$DIMUPT
 70
    0
  9
$DIMDEC
 70
    2
  9
$DIMTDEC
 70
    2
  9
$DIMALTU
 70
    2
  9
$DIMALTTD
 70
    3
  9
$DIMTXSTY
  7
standard
  9
$DIMAUNIT
 70
    0
  9
$DIMADEC
 70
    0
  9
$DIMALTRND
 40
0
  9
$DIMAZIN
 70
    0
  9
$DIMDSEP
 70
   44
  9
$DIMATFIT
 70
    3
  9
$DIMFRAC
 70
    0
  9
$DIMLDRBLK
  1
STANDARD
  9
$DIMLUNIT
 70
    2
  9
$DIMLWD
 70
   -2
  9
$DIMLWE
 70
   -2
  9
$DIMTMOVE
 70
    0
  9
$DIMFXL
 40
1
  9
$DIMFXLON
 70
    0
  9
$DIMJOGANG
 40
0.7854
  9
$DIMTFILL
 70
    0
  9
$DIMTFILLCLR
 70
    0
  9
$DIMARCSYM
 70
    0
  9
$DIMLTYPE
  6

  9
$DIMLTEX1
  6

  9
$DIMLTEX2
  6

  9
$LUNITS
 70
    2
  9
$LUPREC
 70
    4
  9
$SKETCHINC
 40
1
  9
$FILLETRAD
 40
0
  9
$AUNITS
 70
    0
  9
$AUPREC
 70
    2
  9
$MENU
  1
.
  9
$ELEVATION
 40
0
  9
$PELEVATION
 40
0
  9
$THICKNESS
 40
0
  9
$LIMCHECK
 70
    0
  9
$CHAMFERA
 40
0
  9
$CHAMFERB
 40
0
  9
$CHAMFERC
 40
0
  9
$CHAMFERD
 40
0
  9
$SKPOLY
 70
    0
  9
$USRTIMER
 70
    1
  9
$ANGBASE
 50
0
  9
$ANGDIR
 70
    0
  9
$PDMODE
 70
   96
  9
$PDSIZE
 40
-2
  9
$PLINEWID
 40
0
  9
$COORDS
 70
    2
  9
$SPLFRAME
 70
    0
  9
$SPLINETYPE
 70
    2
  9
$SPLINESEGS
 70
    8
  9
$HANDSEED
  5
20000
  9
$SURFTAB1
 70
    6
  9
$SURFTAB2
 70
    6
  9
$SURFTYPE
 70
    6
  9
$SURFU
 70
    6
  9
$SURFV
 70
    6
  9
$UCSBASE
  2

  9
$UCSNAME
  2

  9
$UCSORG
 10
0
 20
0
 30
0
  9
$UCSXDIR
 10
1
 20
0
 30
0
  9
$UCSYDIR
 10
0
 20
1
 30
0
  9
$UCSORTHOREF
  2

  9
$UCSORTHOVIEW
 70
    0
  9
$UCSORGTOP
 10
0
 20
0
 30
0
  9
$UCSORGBOTTOM
 10
0
 20
0
 30
0
  9
$UCSORGLEFT
 10
0
 20
0
 30
0
  9
$UCSORGRIGHT
 10
0
 20
0
 30
0
  9
$UCSORGFRONT
 10
0
 20
0
 30
0
  9
$UCSORGBACK
 10
0
 20
0
 30
0
  9
$PUCSBASE
  2

  9
$PUCSNAME
  2

  9
$PUCSORG
 10
0
 20
0
 30
0
  9
$PUCSXDIR
 10
1
 20
0
 30
0
  9
$PUCSYDIR
 10
0
 20
1
 30
0
  9
$PUCSORTHOREF
  2

  9
$PUCSORTHOVIEW
 70
    0
  9
$PUCSORGTOP
 10
0
 20
0
 30
0
  9
$PUCSORGBOTTOM
 10
0
 20
0
 30
0
  9
$PUCSORGLEFT
 10
0
 20
0
 30
0
  9
$PUCSORGRIGHT
 10
0
 20
0
 30
0
  9
$PUCSORGFRONT
 10
0
 20
0
 30
0
  9
$PUCSORGBACK
 10
0
 20
0
 30
0
  9
$USERI1
 70
    0
  9
$USERI2
 70
    0
  9
$USERI3
 70
    0
  9
$USERI4
 70
    0
  9
$USERI5
 70
    0
  9
$USERR1
 40
0
  9
$USERR2
 40
0
  9
$USERR3
 40
0
  9
$USERR4
 40
0
  9
$USERR5
 40
0
  9
$WORLDVIEW
 70
    1
  9
$SHADEDGE
 70
    3
  9
$SHADEDIF
 70
   70
  9
$TILEMODE
 70
    1
  9
$MAXACTVP
 70
   64
  9
$PINSBASE
 10
0
 20
0
 30
0
  9
$PLIMCHECK
 70
    0
  9
$PEXTMIN
 10
0
 20
0
 30
0
  9
$PEXTMAX
 10
0
 20
0
 30
0
  9
$GRIDMODE
 70
    1
  9
$SNAPSTYLE
 70
    0
  9
$GRIDUNIT
 10
0
 20
0
  9
$PLIMMIN
 10
0
 20
0
  9
$PLIMMAX
 10
297
 20
210
  9
$UNITMODE
 70
    0
  9
$VISRETAIN
 70
    1
  9
$PLINEGEN
 70
    0
  9
$PSLTSCALE
 70
    1
  9
$TREEDEPTH
 70
 3020
  9
$CMLSTYLE
  2
Standard
  9
$CMLJUST
 70
    0
  9
$CMLSCALE
 40
20
  9
$PROXYGRAPHICS
 70
    1
  9
$MEASUREMENT
 70
    1
  9
$CELWEIGHT
370
   -1
  9
$ENDCAPS
280
    1
  9
$JOINSTYLE
280
    1
  9
$LWDISPLAY
290
    0
  9
$INSUNITS
 70
    4
  9
$HYPERLINKBASE
  1

  9
$STYLESHEET
  1

  9
$XEDIT
290
    1
  9
$CEPSNTYPE
380
    0
  9
$PSTYLEMODE
290
    1
  9
$EXTNAMES
290
    1
  9
$PSVPSCALE
 40
1
  9
$OLESTARTUP
290
    0
  9
$CAMERADISPLAY
290
    0
  9
$LENSLENGTH
 40
50
  9
$CAMERAHEIGHT
 40
0
  9
$STEPSPERSEC
 40
2
  9
$STEPSIZE
 40
50
  9
$3DDWFPREC
 40
2
  9
$PSOLWIDTH
 40
5
  9
$PSOLHEIGHT
 40
80
  9
$LOFTANG1
 40
1.570796326794897
  9
$LOFTANG2
 40
1.570796326794897
  9
$LOFTMAG1
 40
0
  9
$LOFTMAG2
 40
0
  9
$LOFTPARAM
 70
    7
  9
$LOFTNORMALS
280
    1
  9
$LATITUDE
 40
1
  9
$LONGITUDE
 40
1
  9
$NORTHDIRECTION
 40
0
  9
$TIMEZONE
 70
-8000
  9
$LIGHTGLYPHDISPLAY
280
    1
  9
$TILEMODELIGHTSYNCH
280
    1
  9
$SOLIDHIST
280
    1
  9
$SHOWHIST
280
    1
  9
$DWFFRAME
280
    2
  9
$DGNFRAME
280
    0
  9
$REALWORLDSCALE
290
    1
  9
$INTERFERECOLOR
 62
    1
  9
$CSHADOW
280
    0
  9
$SHADOWPLANELOCATION
 40
0
  0
ENDSEC
  0
SECTION
  2
CLASSES
  0
ENDSEC
  0
SECTION
  2
TABLES
  0
TABLE
  2
VPORT
  5
8
330
0
100
AcDbSymbolTable
 70
    1
  0
VPORT
  5
31
330
2
100
AcDbSymbolTableRecord
100
AcDbViewportTableRecord
  2
*ACTIVE
 70
    0
 10
0
 20
0
 11
1
 21
1
 12
74.46726878866978
 22
54.83401616981791
 13
0
 23
0
 14
10
 24
10
 15
10
 25
10
 16
0
 26
0
 36
1
 17
0
 27
0
 40
130.103733975607
 41
1.565789473684211
 42
50
 43
0
 44
0
 50
0
 51
0
 71
    0
 72
  100
 73
    1
 74
    3
 75
    0
 76
    1
 77
    0
 78
    1
281
    0
 65
    1
110
0
120
0
130
0
111
1
121
0
131
0
112
0
122
1
132
0
 79
    0
146
0
348
10020
 60
    7
 61
    5
292
1
282
    1
141
0
142
0
 63
  250
421
3358443
  0
ENDTAB
  0
TABLE
  2
LTYPE
  5
5
330
0
100
AcDbSymbolTable
 70
    4
  0
LTYPE
  5
14
330
5
100
AcDbSymbolTableRecord
100
AcDbLinetypeTableRecord
  2
ByBlock
 70
    0
  3

 72
   65
 73
    0
 40
0
  0
LTYPE
  5
15
330
5
100
AcDbSymbolTableRecord
100
AcDbLinetypeTableRecord
  2
ByLayer
 70
    0
  3

 72
   65
 73
    0
 40
0
  0
LTYPE
  5
16
330
5
100
AcDbSymbolTableRecord
100
AcDbLinetypeTableRecord
  2
Continuous
 70
    0
  3
Solid line
 72
   65
 73
    0
 40
0
  0
LTYPE
  5
32
330
5
100
AcDbSymbolTableRecord
100
AcDbLinetypeTableRecord
  2
DOT
 70
    0
  3
Dot . . . . . . . . . . . . . . . . . . . . . .
 72
   65
 73
    2
 40
6.35
 49
0
 74
    0
 49
-6.35
 74
    0
  0
LTYPE
  5
33
330
5
100
AcDbSymbolTableRecord
100
AcDbLinetypeTableRecord
  2
DOTTINY
 70
    0
  3
Dot (.15x) .....................................
 72
   65
 73
    2
 40
0.9525
 49
0
 74
    0
 49
-0.9525
 74
    0
  0
LTYPE
  5
34
330
5
100
AcDbSymbolTableRecord
100
AcDbLinetypeTableRecord
  2
DOT2
 70
    0
  3
Dot (.5x) .....................................
 72
   65
 73
    2
 40
3.175
 49
0
 74
    0
 49
-3.175
 74
    0
  0
LTYPE
  5
35
330
5
100
AcDbSymbolTableRecord
100
AcDbLinetypeTableRecord
  2
DOTX2
 70
    0
  3
Dot (2x) .  .  .  .  .  .  .  .  .  .  .  .  .
 72
   65
 73
    2
 40
12.7
 49
0
 74
    0
 49
-12.7
 74
    0
  0
LTYPE
  5
36
330
5
100
AcDbSymbolTableRecord
100
AcDbLinetypeTableRecord
  2
DASHED
 70
    0
  3
Dashed _ _ _ _ _ _ _ _ _ _ _ _ _ _ _ _ _
 72
   65
 73
    2
 40
19.05
 49
12.7
 74
    0
 49
-6.35
 74
    0
  0
LTYPE
  5
37
330
5
100
AcDbSymbolTableRecord
100
AcDbLinetypeTableRecord
  2
DASHEDTINY
 70
    0
  3
Dashed (.15x) _ _ _ _ _ _ _ _ _ _ _ _ _ _ _ _ _
 72
   65
 73
    2
 40
2.8575
 49
1.905
 74
    0
 49
-0.9525
 74
    0
  0
LTYPE
  5
38
330
5
100
AcDbSymbolTableRecord
100
AcDbLinetypeTableRecord
  2
DASHED2
 70
    0
  3
Dashed (.5x) _ _ _ _ _ _ _ _ _ _ _ _ _ _ _ _ _
 72
   65
 73
    2
 40
9.524999999999999
 49
6.35
 74
    0
 49
-3.175
 74
    0
  0
LTYPE
  5
39
330
5
100
AcDbSymbolTableRecord
100
AcDbLinetypeTableRecord
  2
DASHEDX2
 70
    0
  3
Dashed (2x) ____  ____  ____  ____  ____  ___
 72
   65
 73
    2
 40
38.09999999999999
 49
25.4
 74
    0
 49
-12.7
 74
    0
  0
LTYPE
  5
3A
330
5
100
AcDbSymbolTableRecord
100
AcDbLinetypeTableRecord
  2
DASHDOT
 70
    0
  3
Dash dot __ . __ . __ . __ . __ . __ . __ . __
 72
   65
 73
    4
 40
25.4
 49
12.7
 74
    0
 49
-6.35
 74
    0
 49
0
 74
    0
 49
-6.35
 74
    0
  0
LTYPE
  5
3B
330
5
100
AcDbSymbolTableRecord
100
AcDbLinetypeTableRecord
  2
DASHDOTTINY
 70
    0
  3
Dash dot (.15x) _._._._._._._._._._._._._._._.
 72
   65
 73
    4
 40
3.81
 49
1.905
 74
    0
 49
-0.9525
 74
    0
 49
0
 74
    0
 49
-0.9525
 74
    0
  0
LTYPE
  5
3C
330
5
100
AcDbSymbolTableRecord
100
AcDbLinetypeTableRecord
  2
DASHDOT2
 70
    0
  3
Dash dot (.5x) _._._._._._._._._._._._._._._.
 72
   65
 73
    4
 40
12.7
 49
6.35
 74
    0
 49
-3.175
 74
    0
 49
0
 74
    0
 49
-3.175
 74
    0
  0
LTYPE
  5
3D
330
5
100
AcDbSymbolTableRecord
100
AcDbLinetypeTableRecord
  2
DASHDOTX2
 70
    0
  3
Dash dot (2x) ____  .  ____  .  ____  .  ___
 72
   65
 73
    4
 40
50.8
 49
25.4
 74
    0
 49
-12.7
 74
    0
 49
0
 74
    0
 49
-12.7
 74
    0
  0
LTYPE
  5
3E
330
5
100
AcDbSymbolTableRecord
100
AcDbLinetypeTableRecord
  2
DIVIDE
 70
    0
  3
Divide ____ . . ____ . . ____ . . ____ . . ____
 72
   65
 73
    6
 40
31.75
 49
12.7
 74
    0
 49
-6.35
 74
    0
 49
0
 74
    0
 49
-6.35
 74
    0
 49
0
 74
    0
 49
-6.35
 74
    0
  0
LTYPE
  5
3F
330
5
100
AcDbSymbolTableRecord
100
AcDbLinetypeTableRecord
  2
DIVIDETINY
 70
    0
  3
Divide (.15x) __..__..__..__..__..__..__..__.._
 72
   65
 73
    6
 40
4.7625
 49
1.905
 74
    0
 49
-0.9525
 74
    0
 49
0
 74
    0
 49
-0.9525
 74
    0
 49
0
 74
    0
 49
-0.9525
 74
    0
  0
LTYPE
  5
40
330
5
100
AcDbSymbolTableRecord
100
AcDbLinetypeTableRecord
  2
DIVIDE2
 70
    0
  3
Divide (.5x) __..__..__..__..__..__..__..__.._
 72
   65
 73
    6
 40
15.875
 49
6.35
 74
    0
 49
-3.175
 74
    0
 49
0
 74
    0
 49
-3.175
 74
    0
 49
0
 74
    0
 49
-3.175
 74
    0
  0
LTYPE
  5
41
330
5
100
AcDbSymbolTableRecord
100
AcDbLinetypeTableRecord
  2
DIVIDEX2
 70
    0
  3
Divide (2x) ________  .  .  ________  .  .  _
 72
   65
 73
    6
 40
63.5
 49
25.4
 74
    0
 49
-12.7
 74
    0
 49
0
 74
    0
 49
-12.7
 74
    0
 49
0
 74
    0
 49
-12.7
 74
    0
  0
LTYPE
  5
42
330
5
100
AcDbSymbolTableRecord
100
AcDbLinetypeTableRecord
  2
BORDER
 70
    0
  3
Border __ __ . __ __ . __ __ . __ __ . __ __ .
 72
   65
 73
    6
 40
44.45
 49
12.7
 74
    0
 49
-6.35
 74
    0
 49
12.7
 74
    0
 49
-6.35
 74
    0
 49
0
 74
    0
 49
-6.35
 74
    0
  0
LTYPE
  5
43
330
5
100
AcDbSymbolTableRecord
100
AcDbLinetypeTableRecord
  2
BORDERTINY
 70
    0
  3
Border (.15x) __.__.__.__.__.__.__.__.__.__.__.
 72
   65
 73
    6
 40
6.6675
 49
1.905
 74
    0
 49
-0.9525
 74
    0
 49
1.905
 74
    0
 49
-0.9525
 74
    0
 49
0
 74
    0
 49
-0.9525
 74
    0
  0
LTYPE
  5
44
330
5
100
AcDbSymbolTableRecord
100
AcDbLinetypeTableRecord
  2
BORDER2
 70
    0
  3
Border (.5x) __.__.__.__.__.__.__.__.__.__.__.
 72
   65
 73
    6
 40
22.225
 49
6.35
 74
    0
 49
-3.175
 74
    0
 49
6.35
 74
    0
 49
-3.175
 74
    0
 49
0
 74
    0
 49
-3.175
 74
    0
  0
LTYPE
  5
45
330
5
100
AcDbSymbolTableRecord
100
AcDbLinetypeTableRecord
  2
BORDERX2
 70
    0
  3
Border (2x) ____  ____  .  ____  ____  .  ___
 72
   65
 73
    6
 40
88.89999999999999
 49
25.4
 74
    0
 49
-12.7
 74
    0
 49
25.4
 74
    0
 49
-12.7
 74
    0
 49
0
 74
    0
 49
-12.7
 74
    0
  0
LTYPE
  5
46
330
5
100
AcDbSymbolTableRecord
100
AcDbLinetypeTableRecord
  2
CENTER
 70
    0
  3
Center ____ _ ____ _ ____ _ ____ _ ____ _ ____
 72
   65
 73
    4
 40
50.8
 49
31.75
 74
    0
 49
-6.35
 74
    0
 49
6.35
 74
    0
 49
-6.35
 74
    0
  0
LTYPE
  5
47
330
5
100
AcDbSymbolTableRecord
100
AcDbLinetypeTableRecord
  2
CENTERTINY
 70
    0
  3
Center (.15x) ___ _ ___ _ ___ _ ___ _ ___ _ ___
 72
   65
 73
    4
 40
7.619999999999999
 49
4.7625
 74
    0
 49
-0.9525
 74
    0
 49
0.9525
 74
    0
 49
-0.9525
 74
    0
  0
LTYPE
  5
48
330
5
100
AcDbSymbolTableRecord
100
AcDbLinetypeTableRecord
  2
CENTER2
 70
    0
  3
Center (.5x) ___ _ ___ _ ___ _ ___ _ ___ _ ___
 72
   65
 73
    4
 40
28.575
 49
19.05
 74
    0
 49
-3.175
 74
    0
 49
3.175
 74
    0
 49
-3.175
 74
    0
  0
LTYPE
  5
49
330
5
100
AcDbSymbolTableRecord
100
AcDbLinetypeTableRecord
  2
CENTERX2
 70
    0
  3
Center (2x) ________  __  ________  __  _____
 72
   65
 73
    4
 40
101.6
 49
63.5
 74
    0
 49
-12.7
 74
    0
 49
12.7
 74
    0
 49
-12.7
 74
    0
  0
ENDTAB
  0
TABLE
  2
LAYER
  5
2
330
0
100
AcDbSymbolTable
 70
    1
  0
LAYER
  5
10
330
2
100
AcDbSymbolTableRecord
100
AcDbLayerTableRecord
  2
0
 70
    0
 62
    7
  6
CONTINUOUS
370
   25
390
F
  0
LAYER
  5
4A
330
2
100
AcDbSymbolTableRecord
100
AcDbLayerTableRecord
  2
DIM$ANGULAR
 70
    0
 62
    7
  6
CONTINUOUS
370
    0
390
F
  0
LAYER
  5
4B
330
2
100
AcDbSymbolTableRecord
100
AcDbLayerTableRecord
  2
DIM$DIAMETRIC
 70
    0
 62
    7
  6
CONTINUOUS
370
    0
390
F
  0
LAYER
  5
4C
330
2
100
AcDbSymbolTableRecord
100
AcDbLayerTableRecord
  2
DIM$LEADER
 70
    0
 62
    7
  6
CONTINUOUS
370
    0
390
F
  0
LAYER
  5
4D
330
2
100
AcDbSymbolTableRecord
100
AcDbLayerTableRecord
  2
DIM$LINEAR
 70
    0
 62
    7
  6
CONTINUOUS
370
    0
390
F
  0
LAYER
  5
4E
330
2
100
AcDbSymbolTableRecord
100
AcDbLayerTableRecord
  2
DIM$ORDINATE
 70
    0
 62
    7
  6
CONTINUOUS
370
    0
390
F
  0
LAYER
  5
4F
330
2
100
AcDbSymbolTableRecord
100
AcDbLayerTableRecord
  2
DIM$RADIAL
 70
    0
 62
    7
  6
CONTINUOUS
370
    0
390
F
  0
ENDTAB
  0
TABLE
  2
STYLE
  5
3
330
0
100
AcDbSymbolTable
 70
    3
  0
STYLE
  5
50
330
2
100
AcDbSymbolTableRecord
100
AcDbTextStyleTableRecord
  2
Standard
 70
    0
 40
0
 41
1
 50
0
 71
    0
 42
1
  3
Standard
  4

  0
ENDTAB
  0
TABLE
  2
UCS
  5
7
330
0
100
AcDbSymbolTable
 70
    0
  0
ENDTAB
  0
TABLE
  2
VIEW
  5
6
330
0
100
AcDbSymbolTable
 70
    0
  0
ENDTAB
  0
TABLE
  2
APPID
  5
9
330
0
100
AcDbSymbolTable
 70
    1
  0
APPID
  5
12
330
9
100
AcDbSymbolTableRecord
100
AcDbRegAppTableRecord
  2
ACAD
 70
    0
  0
APPID
  5
51
330
9
100
AcDbSymbolTableRecord
100
AcDbRegAppTableRecord
  2
LibreCad
 70
    0
  0
APPID
  5
52
330
9
100
AcDbSymbolTableRecord
100
AcDbRegAppTableRecord
  2
ACAD_DSTYLE_DIMTALN
 70
    0
  0
APPID
  5
53
330
9
100
AcDbSymbolTableRecord
100
AcDbRegAppTableRecord
  2
ACAD_DSTYLE_DIMJAG_POSITION
 70
    0
  0
APPID
  5
54
330
9
100
AcDbSymbolTableRecord
100
AcDbRegAppTableRecord
  2
ACAD_DSTYLE_DIMJAG
 70
    0
  0
ENDTAB
  0
TABLE
  2
BLOCK_RECORD
  5
1
330
0
100
AcDbSymbolTable
 70
    2
  0
BLOCK_RECORD
  5
1F
330
1
100
AcDbSymbolTableRecord
100
AcDbBlockTableRecord
  2
*Model_Space
 70
    0
280
    1
281
    0
  0
BLOCK_RECORD
  5
1E
330
1
100
AcDbSymbolTableRecord
100
AcDbBlockTableRecord
  2
*Paper_Space
 70
    0
280
    1
281
    0
  0
BLOCK_RECORD
  5
55
330
1
100
AcDbSymbolTableRecord
100
AcDbBlockTableRecord
  2
*D11
 70
    0
280
    1
281
    0
  0
BLOCK_RECORD
  5
58
330
1
100
AcDbSymbolTableRecord
100
AcDbBlockTableRecord
  2
*D13
 70
    0
280
    1
281
    0
  0
BLOCK_RECORD
  5
5B
330
1
100
AcDbSymbolTableRecord
100
AcDbBlockTableRecord
  2
*D18
 70
    0
280
    1
281
    0
  0
BLOCK_RECORD
  5
5E
330
1
100
AcDbSymbolTableRecord
100
AcDbBlockTableRecord
  2
*D9
 70
    0
280
    1
281
    0
  0
BLOCK_RECORD
  5
61
330
1
100
AcDbSymbolTableRecord
100
AcDbBlockTableRecord
  2
*D17
 70
    0
280
    1
281
    0
  0
BLOCK_RECORD
  5
64
330
1
100
AcDbSymbolTableRecord
100
AcDbBlockTableRecord
  2
*D7
 70
    0
280
    1
281
    0
  0
BLOCK_RECORD
  5
67
330
1
100
AcDbSymbolTableRecord
100
AcDbBlockTableRecord
  2
*D14
 70
    0
280
    1
281
    0
  0
BLOCK_RECORD
  5
6A
330
1
100
AcDbSymbolTableRecord
100
AcDbBlockTableRecord
  2
*D6
 70
    0
280
    1
281
    0
  0
BLOCK_RECORD
  5
6D
330
1
100
AcDbSymbolTableRecord
100
AcDbBlockTableRecord
  2
*D22
 70
    0
280
    1
281
    0
  0
BLOCK_RECORD
  5
70
330
1
100
AcDbSymbolTableRecord
100
AcDbBlockTableRecord
  2
*D1
 70
    0
280
    1
281
    0
  0
BLOCK_RECORD
  5
73
330
1
100
AcDbSymbolTableRecord
100
AcDbBlockTableRecord
  2
*D21
 70
    0
280
    1
281
    0
  0
BLOCK_RECORD
  5
76
330
1
100
AcDbSymbolTableRecord
100
AcDbBlockTableRecord
  2
*D12
 70
    0
280
    1
281
    0
  0
BLOCK_RECORD
  5
79
330
1
100
AcDbSymbolTableRecord
100
AcDbBlockTableRecord
  2
*D8
 70
    0
280
    1
281
    0
  0
BLOCK_RECORD
  5
7C
330
1
100
AcDbSymbolTableRecord
100
AcDbBlockTableRecord
  2
*D5
 70
    0
280
    1
281
    0
  0
BLOCK_RECORD
  5
7F
330
1
100
AcDbSymbolTableRecord
100
AcDbBlockTableRecord
  2
*D3
 70
    0
280
    1
281
    0
  0
BLOCK_RECORD
  5
82
330
1
100
AcDbSymbolTableRecord
100
AcDbBlockTableRecord
  2
*D2
 70
    0
280
    1
281
    0
  0
BLOCK_RECORD
  5
85
330
1
100
AcDbSymbolTableRecord
100
AcDbBlockTableRecord
  2
*D16
 70
    0
280
    1
281
    0
  0
BLOCK_RECORD
  5
88
330
1
100
AcDbSymbolTableRecord
100
AcDbBlockTableRecord
  2
*D15
 70
    0
280
    1
281
    0
  0
BLOCK_RECORD
  5
8B
330
1
100
AcDbSymbolTableRecord
100
AcDbBlockTableRecord
  2
*D19
 70
    0
280
    1
281
    0
  0
BLOCK_RECORD
  5
8E
330
1
100
AcDbSymbolTableRecord
100
AcDbBlockTableRecord
  2
*D4
 70
    0
280
    1
281
    0
  0
BLOCK_RECORD
  5
91
330
1
100
AcDbSymbolTableRecord
100
AcDbBlockTableRecord
  2
*D20
 70
    0
280
    1
281
    0
  0
BLOCK_RECORD
  5
94
330
1
100
AcDbSymbolTableRecord
100
AcDbBlockTableRecord
  2
*D10
 70
    0
280
    1
281
    0
  0
ENDTAB
  0
TABLE
  2
DIMSTYLE
  5
A
330
0
100
AcDbSymbolTable
 70
    1
100
AcDbDimStyleTable
 71
    1
  0
DIMSTYLE
105
97
330
A
100
AcDbSymbolTableRecord
100
AcDbDimStyleTableRecord
  2
Standard
 70
    0
  3

  4

 40
1
 41
2.5
 42
0.625
 43
0.38
 44
1.25
 45
0
 46
0
 47
0
 48
0
 49
1
 69
    0
 70
    0
140
2.5
141
0.09
142
0
143
25.4
144
1
145
0
146
1
147
0.625
148
0
 71
    0
 72
    0
 72
    0
 73
    0
 74
    1
 75
    0
 76
    0
 77
    0
 78
    8
 79
    0
170
    0
171
    2
172
    0
173
    0
174
    0
175
    0
176
    0
177
    0
178
    0
179
    0
271
    2
272
    4
273
    2
274
    2
275
    0
276
    0
277
    2
278
   44
279
    0
280
    0
281
    0
282
    0
283
    1
284
    0
285
    0
286
    0
288
    0
289
    3
290
    0
292
    0
340
50
345
14
347
14
348
14
371
   -2
372
   -2
 90
    0
1001
ACAD_DSTYLE_DIMTALN
1070
  392
1070
    0
  0
ENDTAB
  0
ENDSEC
  0
SECTION
  2
BLOCKS
  0
BLOCK
  5
20
330
1F
100
AcDbEntity
  8
0
100
AcDbBlockBegin
  2
*Model_Space
 70
    0
 10
0
 20
0
 30
0
  3
*Model_Space
  1

  0
ENDBLK
  5
21
330
1F
100
AcDbEntity
  8
0
100
AcDbBlockEnd
  0
BLOCK
  5
1C
330
1B
100
AcDbEntity
  8
0
100
AcDbBlockBegin
  2
*Paper_Space
 70
    0
 10
0
 20
0
 30
0
  3
*Paper_Space
  1

  0
ENDBLK
  5
1D
330
1F
100
AcDbEntity
  8
0
100
AcDbBlockEnd
  0
BLOCK
  5
56
330
55
100
AcDbEntity
  8
0
100
AcDbBlockBegin
  2
*D11
 70
    1
 10
0
 20
0
  3
*D11
  1

  0
LINE
  5
98
100
AcDbEntity
  8
DIM$LINEAR
  6
ByBlock
 62
    0
370
   -2
100
AcDbLine
 10
12.46950410139142
 20
104.9590479675853
 11
18.91620955384338
 21
104.9590479675853
  0
MTEXT
  5
99
100
AcDbEntity
  8
DIM$LINEAR
  6
CONTINUOUS
 62
    0
370
   -2
100
AcDbMText
 10
15.6928568276174
 20
106.8340479675853
 40
2.5
 41
7.083333333333488
 71
    5
 72
    1
  1
11,45
  7
Standard
210
0
220
0
230
1
 50
0
 73
    2
 44
1
  0
LINE
  5
9A
100
AcDbEntity
  8
DIM$LINEAR
  6
ByBlock
 62
    0
370
   -2
100
AcDbLine
 10
9.969504101391424
 20
90.22745661497477
 11
9.969504101391424
 21
106.2090479675853
  0
LINE
  5
9B
100
AcDbEntity
  8
DIM$LINEAR
  6
ByBlock
 62
    0
370
   -2
100
AcDbLine
 10
21.41620955384338
 20
58.44356653322064
 11
21.41620955384338
 21
106.2090479675853
  0
ENDBLK
  5
57
330
55
100
AcDbEntity
  8
0
100
AcDbBlockEnd
  0
BLOCK
  5
59
330
58
100
AcDbEntity
  8
0
100
AcDbBlockBegin
  2
*D13
 70
    1
 10
0
 20
0
  3
*D13
  1

  0
ARC
  5
9C
100
AcDbEntity
  8
DIM$ANGULAR
  6
ByBlock
 62
    0
370
   -2
100
AcDbCircle
 10
67.60000000000024
 20
73.36000000000027
 40
22.39188735123066
100
AcDbArc
 50
225
 51
270
  0
SOLID
  5
9D
100
AcDbEntity
  8
DIM$ANGULAR
  6
ByBlock
 62
    0
370
   -2
100
AcDbTrace
 10
51.76654461037975
 20
57.52654461037979
 11
53.90766558136373
 21
56.17048638747427
 12
53.35271449831714
 22
55.5498407876239
 13
53.35271449831714
 23
55.5498407876239
  0
SOLID
  5
9E
100
AcDbEntity
  8
DIM$ANGULAR
  6
ByBlock
 62
    0
370
   -2
100
AcDbTrace
 10
67.60000000000024
 20
50.9681126487696
 11
65.08066783865775
 21
50.69196345517599
 12
65.12712087697646
 22
51.52323584159284
 13
65.12712087697646
 23
51.52323584159284
  0
MTEXT
  5
9F
100
AcDbEntity
  8
DIM$ANGULAR
  6
CONTINUOUS
 62
    0
370
   -2
100
AcDbMText
 10
59.27017283652702
 20
53.25001828971944
 40
2.5
 41
5.000000000000155
 71
    5
 72
    1
  1
45%%D
  7
Standard
210
0
220
0
230
1
 50
-22.50000000000002
 73
    2
 44
1
  0
ENDBLK
  5
5A
330
58
100
AcDbEntity
  8
0
100
AcDbBlockEnd
  0
BLOCK
  5
5C
330
5B
100
AcDbEntity
  8
0
100
AcDbBlockBegin
  2
*D18
 70
    1
 10
0
 20
0
  3
*D18
  1

  0
LINE
  5
A0
100
AcDbEntity
  8
DIM$RADIAL
  6
ByBlock
 62
    0
370
   -2
100
AcDbLine
 10
70.62368071495483
 20
76.64836198203514
 11
76.37070948333049
 21
84.83198345027661
  0
MTEXT
  5
A1
100
AcDbEntity
  8
DIM$RADIAL
  6
CONTINUOUS
 62
    0
370
   -2
100
AcDbMText
 10
71.96276607384738
 20
81.81774061022631
 40
2.5
 41
2.500000000000155
 71
    5
 72
    1
  1
15
  7
Standard
210
0
220
0
230
1
 50
54.9211728656518
 73
    2
 44
1
  0
ENDBLK
  5
5D
330
5B
100
AcDbEntity
  8
0
100
AcDbBlockEnd
  0
BLOCK
  5
5F
330
5E
100
AcDbEntity
  8
0
100
AcDbBlockBegin
  2
*D9
 70
    1
 10
0
 20
0
  3
*D9
  1

  0
LINE
  5
A2
100
AcDbEntity
  8
DIM$ORDINATE
  6
ByBlock
 62
    0
370
   -2
100
AcDbLine
 10
77.625
 20
9.394448724536005
 11
90
 21
9.394448724536005
  0
LINE
  5
A3
100
AcDbEntity
  8
DIM$ORDINATE
  6
ByBlock
 62
    0
370
   -2
100
AcDbLine
 10
90
 20
9.394448724536005
 11
95
 21
13
  0
LINE
  5
A4
100
AcDbEntity
  8
DIM$ORDINATE
  6
ByBlock
 62
    0
370
   -2
100
AcDbLine
 10
95
 20
13
 11
100
 21
13
  0
MTEXT
  5
A5
100
AcDbEntity
  8
DIM$ORDINATE
  6
CONTINUOUS
 62
    0
370
   -2
100
AcDbMText
 10
103.6111111111113
 20
13
 40
2.5
 41
5.972222222222534
 71
    5
 72
    1
  1
7,55
  7
Standard
210
0
220
0
230
1
 50
0
 73
    2
 44
1
  0
ENDBLK
  5
60
330
5E
100
AcDbEntity
  8
0
100
AcDbBlockEnd
  0
BLOCK
  5
62
330
61
100
AcDbEntity
  8
0
100
AcDbBlockBegin
  2
*D17
 70
    1
 10
0
 20
0
  3
*D17
  1

  0
LINE
  5
A6
100
AcDbEntity
  8
DIM$RADIAL
  6
ByBlock
 62
    0
370
   -2
100
AcDbLine
 10
30.46515275858817
 20
77.95914495583035
 11
36.41259154800301
 21
78.58048897266691
  0
LINE
  5
A7
100
AcDbEntity
  8
DIM$RADIAL
  6
ByBlock
 62
    0
370
   -2
100
AcDbLine
 10
38.8990590843215
 20
78.84025654345714
 11
44.83895375441598
 21
79.46081240701159
  0
MTEXT
  5
A8
100
AcDbEntity
  8
DIM$RADIAL
  6
CONTINUOUS
 62
    0
370
   -2
100
AcDbMText
 10
41.67418074127607
 20
81.01538512747324
 40
2.5
 41
5.972222222222532
 71
    5
 72
    1
  1
5,98
  7
Standard
210
0
220
0
230
1
 50
5.964199447671315
 73
    2
 44
1
  0
ENDBLK
  5
63
330
61
100
AcDbEntity
  8
0
100
AcDbBlockEnd
  0
BLOCK
  5
65
330
64
100
AcDbEntity
  8
0
100
AcDbBlockBegin
  2
*D7
 70
    1
 10
0
 20
0
  3
*D7
  1

  0
ENDBLK
  5
66
330
64
100
AcDbEntity
  8
0
100
AcDbBlockEnd
  0
BLOCK
  5
68
330
67
100
AcDbEntity
  8
0
100
AcDbBlockBegin
  2
*D14
 70
    1
 10
0
 20
0
  3
*D14
  1

  0
ARC
  5
A9
100
AcDbEntity
  8
DIM$ANGULAR
  6
ByBlock
 62
    0
370
   -2
100
AcDbCircle
 10
37.60000000000025
 20
43.36000000000028
 40
7.84924831702288
100
AcDbArc
 50
180
 51
45
  0
SOLID
  5
AA
100
AcDbEntity
  8
DIM$ANGULAR
  6
ByBlock
 62
    0
370
   -2
100
AcDbTrace
 10
29.75075168297737
 20
43.36000000000028
 11
30.55821543934832
 21
40.95764798615127
 12
29.73618116553063
 22
40.82562026990489
 13
29.73618116553063
 23
40.82562026990489
  0
SOLID
  5
AB
100
AcDbEntity
  8
DIM$ANGULAR
  6
ByBlock
 62
    0
370
   -2
100
AcDbTrace
 10
43.15025671218422
 20
48.91025671218425
 11
44.95263671712839
 21
47.12848253062405
 12
44.27801301428175
 22
46.6405742147022
 13
44.27801301428175
 23
46.6405742147022
  0
MTEXT
  5
AC
100
AcDbEntity
  8
DIM$ANGULAR
  6
CONTINUOUS
 62
    0
370
   -2
100
AcDbMText
 10
40.36460014221629
 20
36.68566484212373
 40
2.5
 41
6.666666666666822
 71
    5
 72
    1
  1
225%%D
  7
Standard
210
0
220
0
230
1
 50
22.50000000000002
 73
    2
 44
1
  0
ENDBLK
  5
69
330
67
100
AcDbEntity
  8
0
100
AcDbBlockEnd
  0
BLOCK
  5
6B
330
6A
100
AcDbEntity
  8
0
100
AcDbBlockBegin
  2
*D6
 70
    1
 10
0
 20
0
  3
*D6
  1

  0
LINE
  5
AD
100
AcDbEntity
  8
DIM$RADIAL
  6
ByBlock
 62
    0
370
   -2
100
AcDbLine
 10
50.08415176799096
 20
33.07894841471997
 11
64.98906237593529
 21
31.39263890303809
  0
MTEXT
  5
AE
100
AcDbEntity
  8
DIM$RADIAL
  6
CONTINUOUS
 62
    0
370
   -2
100
AcDbMText
 10
57.74739576092336
 20
34.09890748487207
 40
2.5
 41
3.055555555555556
 71
    5
 72
    1
  1
20
  7
Standard
210
0
220
0
230
1
 50
353.5451265845065
 73
    2
 44
1
  0
ENDBLK
  5
6C
330
6A
100
AcDbEntity
  8
0
100
AcDbBlockEnd
  0
BLOCK
  5
6E
330
6D
100
AcDbEntity
  8
0
100
AcDbBlockBegin
  2
*D22
 70
    1
 10
0
 20
0
  3
*D22
  1

  0
LINE
  5
AF
100
AcDbEntity
  8
DIM$LINEAR
  6
ByBlock
 62
    0
370
   -2
100
AcDbLine
 10
76.19066125751817
 20
45.97016688083647
 11
76.19066125751817
 21
71.0503908179012
  0
MTEXT
  5
B0
100
AcDbEntity
  8
DIM$LINEAR
  6
CONTINUOUS
 62
    0
370
   -2
100
AcDbMText
 10
74.31566125751817
 20
58.51027884936884
 40
2.5
 41
7.916666666666822
 71
    5
 72
    1
  1
30,08
  7
Standard
210
0
220
0
230
1
 50
90
 73
    2
 44
1
  0
LINE
  5
B1
100
AcDbEntity
  8
DIM$LINEAR
  6
ByBlock
 62
    0
370
   -2
100
AcDbLine
 10
38.24885376454177
 20
43.47016688083648
 11
77.44066125751817
 21
43.47016688083647
  0
LINE
  5
B2
100
AcDbEntity
  8
DIM$LINEAR
  6
ByBlock
 62
    0
370
   -2
100
AcDbLine
 10
68.23478232876303
 20
73.5503908179012
 11
77.44066125751817
 21
73.5503908179012
  0
ENDBLK
  5
6F
330
6D
100
AcDbEntity
  8
0
100
AcDbBlockEnd
  0
BLOCK
  5
71
330
70
100
AcDbEntity
  8
0
100
AcDbBlockBegin
  2
*D1
 70
    1
 10
0
 20
0
  3
*D1
  1

  0
LINE
  5
B3
100
AcDbEntity
  8
DIM$LINEAR
  6
ByBlock
 62
    0
370
   -2
100
AcDbLine
 10
37.15805826175865
 20
43.80194173824187
 11
30.51611652351687
 21
50.44388347648363
  0
LINE
  5
B4
100
AcDbEntity
  8
DIM$LINEAR
  6
ByBlock
 62
    0
370
   -2
100
AcDbLine
 10
67.15805826175864
 20
73.80194173824187
 11
60.51611652351686
 21
80.44388347648362
  0
LINE
  5
B5
100
AcDbEntity
  8
DIM$LINEAR
  6
ByBlock
 62
    0
370
   -2
100
AcDbLine
 10
33.16776695296642
 20
51.32776695296682
 11
59.63223304703368
 21
77.79223304703407
  0
MTEXT
  5
B6
100
AcDbEntity
  8
DIM$LINEAR
  6
CONTINUOUS
 62
    0
370
   -2
100
AcDbMText
 10
45.07417478527528
 20
65.88582521472522
 40
2.5
 41
8.472222222222378
 71
    5
 72
    1
  1
42,43
  7
Standard
210
0
220
0
230
1
 50
45
 73
    2
 44
1
  0
ENDBLK
  5
72
330
70
100
AcDbEntity
  8
0
100
AcDbBlockEnd
  0
BLOCK
  5
74
330
73
100
AcDbEntity
  8
0
100
AcDbBlockBegin
  2
*D21
 70
    1
 10
0
 20
0
  3
*D21
  1

  0
LINE
  5
B7
100
AcDbEntity
  8
DIM$ORDINATE
  6
ByBlock
 62
    0
370
   -2
100
AcDbLine
 10
67.60000000000024
 20
73.98500000000027
 11
67.60000000000024
 21
90
  0
LINE
  5
B8
100
AcDbEntity
  8
DIM$ORDINATE
  6
ByBlock
 62
    0
370
   -2
100
AcDbLine
 10
67.60000000000024
 20
90
 11
60
 21
95
  0
LINE
  5
B9
100
AcDbEntity
  8
DIM$ORDINATE
  6
ByBlock
 62
    0
370
   -2
100
AcDbLine
 10
60
 20
95
 11
60
 21
100
  0
MTEXT
  5
BA
100
AcDbEntity
  8
DIM$ORDINATE
  6
CONTINUOUS
 62
    0
370
   -2
100
AcDbMText
 10
60
 20
104.5833333333336
 40
2.5
 41
7.916666666667133
 71
    5
 72
    1
  1
57,63
  7
Standard
210
0
220
0
230
1
 50
90
 73
    2
 44
1
  0
ENDBLK
  5
75
330
73
100
AcDbEntity
  8
0
100
AcDbBlockEnd
  0
BLOCK
  5
77
330
76
100
AcDbEntity
  8
0
100
AcDbBlockBegin
  2
*D12
 70
    1
 10
0
 20
0
  3
*D12
  1

  0
LINE
  5
BB
100
AcDbEntity
  8
DIM$DIAMETRIC
  6
ByBlock
 62
    0
370
   -2
100
AcDbLine
 10
14.23868002113355
 20
59.59971719028442
 11
28.59373908646751
 21
56.03741586640754
  0
MTEXT
  5
BC
100
AcDbEntity
  8
DIM$DIAMETRIC
  6
CONTINUOUS
 62
    0
370
   -2
100
AcDbMText
 10
21.86780571199167
 20
59.63837033917478
 40
2.5
 41
7.361111111111267
 71
    5
 72
    1
  1
19,79
  7
Standard
210
0
220
0
230
1
 50
346.0632107103593
 73
    2
 44
1
  0
ENDBLK
  5
78
330
76
100
AcDbEntity
  8
0
100
AcDbBlockEnd
  0
BLOCK
  5
7A
330
79
100
AcDbEntity
  8
0
100
AcDbBlockBegin
  2
*D8
 70
    1
 10
0
 20
0
  3
*D8
  1

  0
ENDBLK
  5
7B
330
79
100
AcDbEntity
  8
0
100
AcDbBlockEnd
  0
BLOCK
  5
7D
330
7C
100
AcDbEntity
  8
0
100
AcDbBlockBegin
  2
*D5
 70
    1
 10
0
 20
0
  3
*D5
  1

  0
LINE
  5
BD
100
AcDbEntity
  8
DIM$ORDINATE
  6
ByBlock
 62
    0
370
   -2
100
AcDbLine
 10
84.18692352286092
 20
1.221204463220634
 11
84.18692352286092
 21
-3.153795536779366
  0
LINE
  5
BE
100
AcDbEntity
  8
DIM$ORDINATE
  6
ByBlock
 62
    0
370
   -2
100
AcDbLine
 10
84.18692352286092
 20
-3.153795536779366
 11
79.65175243136981
 21
-5.32498104106603
  0
LINE
  5
BF
100
AcDbEntity
  8
DIM$ORDINATE
  6
ByBlock
 62
    0
370
   -2
100
AcDbLine
 10
79.65175243136981
 20
-5.32498104106603
 11
79.65175243136981
 21
-10.32498104106603
  0
MTEXT
  5
C0
100
AcDbEntity
  8
DIM$ORDINATE
  6
CONTINUOUS
 62
    0
370
   -2
100
AcDbMText
 10
79.65175243136981
 20
-15.18609215217722
 40
2.5
 41
8.472222222222378
 71
    5
 72
    1
  1
74,34
  7
Standard
210
0
220
0
230
1
 50
90
 73
    2
 44
1
  0
ENDBLK
  5
7E
330
7C
100
AcDbEntity
  8
0
100
AcDbBlockEnd
  0
BLOCK
  5
80
330
7F
100
AcDbEntity
  8
0
100
AcDbBlockBegin
  2
*D3
 70
    1
 10
0
 20
0
  3
*D3
  1

  0
LINE
  5
C1
100
AcDbEntity
  8
DIM$LINEAR
  6
ByBlock
 62
    0
370
   -2
100
AcDbLine
 10
30.10000000000024
 20
6.262400000000325
 11
41.58213504000035
 21
6.262400000000322
  0
MTEXT
  5
C2
100
AcDbEntity
  8
DIM$LINEAR
  6
CONTINUOUS
 62
    0
370
   -2
100
AcDbMText
 10
35.84106752000029
 20
8.137400000000323
 40
2.5
 41
7.638888888889044
 71
    5
 72
    1
  1
16,48
  7
Standard
210
0
220
0
230
1
 50
0
 73
    2
 44
1
  0
LINE
  5
C3
100
AcDbEntity
  8
DIM$LINEAR
  6
ByBlock
 62
    0
370
   -2
100
AcDbLine
 10
27.60000000000024
 20
12.73500000000027
 11
27.60000000000024
 21
5.012400000000325
  0
LINE
  5
C4
100
AcDbEntity
  8
DIM$LINEAR
  6
ByBlock
 62
    0
370
   -2
100
AcDbLine
 10
44.08213504000035
 20
12.83871584000011
 11
44.08213504000035
 21
5.012400000000322
  0
ENDBLK
  5
81
330
7F
100
AcDbEntity
  8
0
100
AcDbBlockEnd
  0
BLOCK
  5
83
330
82
100
AcDbEntity
  8
0
100
AcDbBlockBegin
  2
*D2
 70
    1
 10
0
 20
0
  3
*D2
  1

  0
LINE
  5
C5
100
AcDbEntity
  8
DIM$LINEAR
  6
ByBlock
 62
    0
370
   -2
100
AcDbLine
 10
21.99680000000006
 20
15.86000000000027
 11
21.99680000000006
 21
40.86000000000028
  0
MTEXT
  5
C6
100
AcDbEntity
  8
DIM$LINEAR
  6
CONTINUOUS
 62
    0
370
   -2
100
AcDbMText
 10
20.12180000000006
 20
28.36000000000027
 40
2.5
 41
3.055555555555711
 71
    5
 72
    1
  1
30
  7
Standard
210
0
220
0
230
1
 50
90
 73
    2
 44
1
  0
LINE
  5
C7
100
AcDbEntity
  8
DIM$LINEAR
  6
ByBlock
 62
    0
370
   -2
100
AcDbLine
 10
26.97500000000024
 20
13.36000000000027
 11
20.74680000000006
 21
13.36000000000027
  0
LINE
  5
C8
100
AcDbEntity
  8
DIM$LINEAR
  6
ByBlock
 62
    0
370
   -2
100
AcDbLine
 10
26.97500000000025
 20
43.36000000000028
 11
20.74680000000006
 21
43.36000000000028
  0
ENDBLK
  5
84
330
82
100
AcDbEntity
  8
0
100
AcDbBlockEnd
  0
BLOCK
  5
86
330
85
100
AcDbEntity
  8
0
100
AcDbBlockBegin
  2
*D16
 70
    1
 10
0
 20
0
  3
*D16
  1

  0
LINE
  5
C9
100
AcDbEntity
  8
DIM$LINEAR
  6
ByBlock
 62
    0
370
   -2
100
AcDbLine
 10
27.96515275858817
 20
99.38457176140827
 11
23.91620955384338
 21
99.38457176140827
  0
MTEXT
  5
CA
100
AcDbEntity
  8
DIM$LINEAR
  6
CONTINUOUS
 62
    0
370
   -2
100
AcDbMText
 10
25.94068115621577
 20
101.2595717614083
 40
2.5
 41
5.972222222222688
 71
    5
 72
    1
  1
9,05
  7
Standard
210
0
220
0
230
1
 50
0
 73
    2
 44
1
  0
LINE
  5
CB
100
AcDbEntity
  8
DIM$LINEAR
  6
ByBlock
 62
    0
370
   -2
100
AcDbLine
 10
30.46515275858817
 20
78.58414495583035
 11
30.46515275858817
 21
100.6345717614083
  0
LINE
  5
CC
100
AcDbEntity
  8
DIM$LINEAR
  6
ByBlock
 62
    0
370
   -2
100
AcDbLine
 10
21.41620955384338
 20
58.44356653322064
 11
21.41620955384338
 21
100.6345717614083
  0
ENDBLK
  5
87
330
85
100
AcDbEntity
  8
0
100
AcDbBlockEnd
  0
BLOCK
  5
89
330
88
100
AcDbEntity
  8
0
100
AcDbBlockBegin
  2
*D15
 70
    1
 10
0
 20
0
  3
*D15
  1

  0
LINE
  5
CD
100
AcDbEntity
  8
DIM$DIAMETRIC
  6
ByBlock
 62
    0
370
   -2
100
AcDbLine
 10
75.89455259129774
 20
9.379294541169534
 11
78.10544740870226
 21
9.409602907902476
  0
MTEXT
  5
CE
100
AcDbEntity
  8
DIM$DIAMETRIC
  6
CONTINUOUS
 62
    0
370
   -2
100
AcDbMText
 10
76.97429871011617
 20
11.26927256791391
 40
2.5
 41
5.416666666666668
 71
    5
 72
    1
  1
7,21
  7
Standard
210
0
220
0
230
1
 50
0.7853981633974582
 73
    2
 44
1
  0
ENDBLK
  5
8A
330
88
100
AcDbEntity
  8
0
100
AcDbBlockEnd
  0
BLOCK
  5
8C
330
8B
100
AcDbEntity
  8
0
100
AcDbBlockBegin
  2
*D19
 70
    1
 10
0
 20
0
  3
*D19
  1

  0
LINE
  5
CF
100
AcDbEntity
  8
DIM$ORDINATE
  6
ByBlock
 62
    0
370
   -2
100
AcDbLine
 10
9.344504101391424
 20
1.846204463220634
 11
4.969504101391424
 21
1.846204463220634
  0
LINE
  5
D0
100
AcDbEntity
  8
DIM$ORDINATE
  6
ByBlock
 62
    0
370
   -2
100
AcDbLine
 10
4.969504101391424
 20
1.846204463220634
 11
1
 21
2.999999999999999
  0
LINE
  5
D1
100
AcDbEntity
  8
DIM$ORDINATE
  6
ByBlock
 62
    0
370
   -2
100
AcDbLine
 10
1
 20
2.999999999999999
 11
-4
 21
2.999999999999999
  0
MTEXT
  5
D2
100
AcDbEntity
  8
DIM$ORDINATE
  6
CONTINUOUS
 62
    0
370
   -2
100
AcDbMText
 10
-5.180555555555555
 20
2.999999999999999
 40
2.5
 41
1.111111111111111
 71
    5
 72
    1
  1
0
  7
Standard
210
0
220
0
230
1
 50
0
 73
    2
 44
1
  0
ENDBLK
  5
8D
330
8B
100
AcDbEntity
  8
0
100
AcDbBlockEnd
  0
BLOCK
  5
8F
330
8E
100
AcDbEntity
  8
0
100
AcDbBlockBegin
  2
*D4
 70
    1
 10
0
 20
0
  3
*D4
  1

  0
LINE
  5
D3
100
AcDbEntity
  8
DIM$ORDINATE
  6
ByBlock
 62
    0
370
   -2
100
AcDbLine
 10
9.846423803843383
 20
1.147890969359519
 11
9.846423803843383
 21
-3.227109030640481
  0
LINE
  5
D4
100
AcDbEntity
  8
DIM$ORDINATE
  6
ByBlock
 62
    0
370
   -2
100
AcDbLine
 10
9.846423803843383
 20
-3.227109030640481
 11
17.85246209840083
 21
-7.093974124156089
  0
LINE
  5
D5
100
AcDbEntity
  8
DIM$ORDINATE
  6
ByBlock
 62
    0
370
   -2
100
AcDbLine
 10
17.85246209840083
 20
-7.093974124156089
 11
17.85246209840083
 21
-12.09397412415609
  0
MTEXT
  5
D6
100
AcDbEntity
  8
DIM$ORDINATE
  6
CONTINUOUS
 62
    0
370
   -2
100
AcDbMText
 10
17.85246209840083
 20
-13.27452967971164
 40
2.5
 41
1.111111111111111
 71
    5
 72
    1
  1
0
  7
Standard
210
0
220
0
230
1
 50
90
 73
    2
 44
1
  0
ENDBLK
  5
90
330
8E
100
AcDbEntity
  8
0
100
AcDbBlockEnd
  0
BLOCK
  5
92
330
91
100
AcDbEntity
  8
0
100
AcDbBlockBegin
  2
*D20
 70
    1
 10
0
 20
0
  3
*D20
  1

  0
LINE
  5
D7
100
AcDbEntity
  8
DIM$ORDINATE
  6
ByBlock
 62
    0
370
   -2
100
AcDbLine
 10
20.79120955384338
 20
57.81856653322064
 11
6.0587040137491
 21
57.81856653322064
  0
LINE
  5
D8
100
AcDbEntity
  8
DIM$ORDINATE
  6
ByBlock
 62
    0
370
   -2
100
AcDbLine
 10
6.0587040137491
 20
57.81856653322064
 11
1.0587040137491
 21
63.48682183258207
  0
LINE
  5
D9
100
AcDbEntity
  8
DIM$ORDINATE
  6
ByBlock
 62
    0
370
   -2
100
AcDbLine
 10
1.0587040137491
 20
63.48682183258207
 11
-3.9412959862509
 21
63.48682183258207
  0
MTEXT
  5
DA
100
AcDbEntity
  8
DIM$ORDINATE
  6
CONTINUOUS
 62
    0
370
   -2
100
AcDbMText
 10
-8.524629319584466
 20
63.48682183258207
 40
2.5
 41
7.916666666667131
 71
    5
 72
    1
  1
55,97
  7
Standard
210
0
220
0
230
1
 50
0
 73
    2
 44
1
  0
ENDBLK
  5
93
330
91
100
AcDbEntity
  8
0
100
AcDbBlockEnd
  0
BLOCK
  5
95
330
94
100
AcDbEntity
  8
0
100
AcDbBlockBegin
  2
*D10
 70
    1
 10
0
 20
0
  3
*D10
  1

  0
LINE
  5
DB
100
AcDbEntity
  8
DIM$LINEAR
  6
ByBlock
 62
    0
370
   -2
100
AcDbLine
 10
45.5
 20
26.2848351801154
 11
46.58213504000035
 21
26.2848351801154
  0
MTEXT
  5
DC
100
AcDbEntity
  8
DIM$LINEAR
  6
CONTINUOUS
 62
    0
370
   -2
100
AcDbMText
 10
51.61111111111126
 20
28.1598351801154
 40
2.5
 41
5.972222222222532
 71
    5
 72
    1
  1
3,92
  7
Standard
210
0
220
0
230
1
 50
0
 73
    2
 44
1
  0
LINE
  5
DD
100
AcDbEntity
  8
DIM$LINEAR
  6
ByBlock
 62
    0
370
   -2
100
AcDbLine
 10
48
 20
24.625
 11
48
 21
27.5348351801154
  0
LINE
  5
DE
100
AcDbEntity
  8
DIM$LINEAR
  6
ByBlock
 62
    0
370
   -2
100
AcDbLine
 10
44.08213504000035
 20
13.98500000000027
 11
44.08213504000035
 21
27.5348351801154
  0
ENDBLK
  5
96
330
94
100
AcDbEntity
  8
0
100
AcDbBlockEnd
  0
ENDSEC
  0
SECTION
  2
ENTITIES
  0
DIMENSION
  5
DF
100
AcDbEntity
  8
DIM$LINEAR
  6
ByLayer
 62
  256
370
   -1
100
AcDbDimension
  2
*D1
 10
61.40000000000005
 20
79.56000000000044
 11
45.07417478527528
 21
65.88582521472522
 70
  161
 71
    5
 72
    0
  3
Standard
 53
0
210
0
220
0
230
1
100
AcDbAlignedDimension
 13
37.60000000000024
 23
43.36000000000028
 14
67.60000000000024
 24
73.36000000000027
  0
DIMENSION
  5
E0
100
AcDbEntity
  8
DIM$LINEAR
  6
ByLayer
 62
  256
370
   -1
100
AcDbDimension
  2
*D2
 10
21.99680000000006
 20
43.36000000000028
 11
20.12180000000006
 21
28.36000000000027
 70
   32
 71
    5
 72
    0
  3
Standard
 53
0
210
0
220
0
230
1
100
AcDbAlignedDimension
 13
27.60000000000024
 23
13.36000000000027
 14
27.60000000000025
 24
43.36000000000028
100
AcDbRotatedDimension
 50
90
  0
DIMENSION
  5
E1
100
AcDbEntity
  8
DIM$LINEAR
  6
ByLayer
 62
  256
370
   -1
100
AcDbDimension
  2
*D3
 10
67.60000000000024
 20
6.262400000000319
 11
35.84106752000029
 21
8.137400000000323
 70
   32
 71
    5
 72
    0
  3
Standard
 53
0
210
0
220
0
230
1
100
AcDbAlignedDimension
 13
27.60000000000024
 23
13.36000000000027
 14
44.08213504000035
 24
13.46371584000011
100
AcDbRotatedDimension
 50
180
  0
DIMENSION
  5
E2
100
AcDbEntity
  8
DIM$ORDINATE
  6
ByLayer
 62
  256
370
   -1
100
AcDbDimension
  2
*D4
 10
9.846423803843383
 20
1.846204463220634
 11
17.85246209840083
 21
-13.27452967971164
 70
  102
 71
    5
 72
    0
  3
Standard
 53
0
210
0
220
0
230
1
100
AcDbOrdinateDimension
 13
9.846423803843383
 23
1.772890969359519
 14
17.85246209840083
 24
-12.09397412415609
  0
DIMENSION
  5
E3
100
AcDbEntity
  8
DIM$ORDINATE
  6
ByLayer
 62
  256
370
   -1
100
AcDbDimension
  2
*D5
 10
9.846423803843383
 20
1.846204463220634
 11
79.65175243136981
 21
-15.18609215217722
 70
  102
 71
    5
 72
    0
  3
Standard
 53
0
210
0
220
0
230
1
100
AcDbOrdinateDimension
 13
84.18692352286092
 23
1.846204463220634
 14
79.65175243136981
 24
-10.32498104106603
  0
DIMENSION
  5
E4
100
AcDbEntity
  8
DIM$RADIAL
  6
ByLayer
 62
  256
370
   -1
100
AcDbDimension
  2
*D6
 10
47.60000000000024
 20
33.36000000000028
 11
57.74739576092336
 21
34.09890748487207
 70
   36
 71
    5
 72
    0
  3
Standard
 53
0
210
0
220
0
230
1
100
AcDbRadialDimension
 15
67.47321414392601
 25
31.11158731775778
 40
0
  0
LEADER
  5
E5
100
AcDbEntity
  8
0
  6
ByLayer
 62
  256
370
   -1
100
AcDbLeader
  3
Standard
 71
    1
 72
    0
 73
    3
 74
    0
 75
    0
 40
1
 41
10
 76
0
 76
0
  0
LEADER
  5
E6
100
AcDbEntity
  8
0
  6
ByLayer
 62
  256
370
   -1
100
AcDbLeader
  3
Standard
 71
    1
 72
    0
 73
    3
 74
    0
 75
    0
 40
1
 41
10
 76
0
 76
0
  0
DIMENSION
  5
E7
100
AcDbEntity
  8
DIM$ORDINATE
  6
ByLayer
 62
  256
370
   -1
100
AcDbDimension
  2
*D9
 10
9.846423803843383
 20
1.846204463220634
 11
103.6111111111113
 21
13
 70
   38
 71
    5
 72
    0
  3
Standard
 53
0
210
0
220
0
230
1
100
AcDbOrdinateDimension
 13
77
 23
9.394448724536005
 14
100
 24
13
  0
DIMENSION
  5
E8
100
AcDbEntity
  8
DIM$LINEAR
  6
ByLayer
 62
  256
370
   -1
100
AcDbDimension
  2
*D10
 10
44.08213504000035
 20
26.2848351801154
 11
46.04106752000018
 21
28.1598351801154
 70
   32
 71
    5
 72
    0
  3
Standard
 53
0
210
0
220
0
230
1
100
AcDbAlignedDimension
 13
48
 23
24
 14
44.08213504000035
 24
13.36000000000027
100
AcDbRotatedDimension
  0
LINE
  5
E9
100
AcDbEntity
  8
0
  6
ByLayer
 62
  253
420
10526884
370
   -1
100
AcDbLine
 10
27.6
 20
43.36
 11
37.6
 21
43.36
  0
CIRCLE
  5
EA
100
AcDbEntity
  8
0
  6
ByLayer
 62
  253
420
10526884
370
   70
100
AcDbCircle
 10
21.41620955384338
 20
57.81856653322064
 40
9.895230076000001
  0
CIRCLE
  5
EB
100
AcDbEntity
  8
0
  6
ByLayer
 62
  253
420
10526884
370
   70
100
AcDbCircle
 10
77
 20
9.394448724536005
 40
3.605551275463989
  0
LWPOLYLINE
  5
EC
100
AcDbEntity
  8
0
  6
ByLayer
 62
  253
420
10526884
370
   70
100
AcDbPolyline
 90
    9
 70
    0
 43
0
 10
48.00000000000005
 20
17.99999999999999
 10
48
 20
24
 10
44.08213504000035
 20
13.36000000000027
 10
27.60000000000024
 20
13.36000000000027
 10
27.60000000000025
 20
43.36000000000028
 10
37.60000000000024
 20
43.36000000000028
 10
67.60000000000024
 20
73.36000000000027
 10
67.60000000000025
 20
33.36000000000027
 42
-0.4142135623730955
 10
48
 20
18
 42
-0.4142135623730955
  0
LINE
  5
ED
100
AcDbEntity
  8
0
  6
ByLayer
 62
  253
420
10526884
370
   70
100
AcDbLine
 10
9.969504101391424
 20
89.60245661497477
 11
9.969504101391424
 21
1.846204463220634
  0
LINE
  5
EE
100
AcDbEntity
  8
0
  6
ByLayer
 62
  253
420
10526884
370
   70
100
AcDbLine
 10
9.969504101391424
 20
1.846204463220634
 11
84.18692352286092
 21
1.846204463220634
  0
LINE
  5
EF
100
AcDbEntity
  8
0
  6
ByLayer
 62
  253
420
10526884
370
   70
100
AcDbLine
 10
69.18692352286092
 20
89.60245661497477
 11
9.969504101391424
 21
89.60245661497477
  0
LINE
  5
F0
100
AcDbEntity
  8
0
  6
ByLayer
 62
  253
420
10526884
370
   70
100
AcDbLine
 10
84.18692352286092
 20
1.846204463220634
 11
84.18692352286092
 21
74.60245661497477
  0
ARC
  5
F1
100
AcDbEntity
  8
0
  6
ByLayer
 62
  253
420
10526884
370
   70
100
AcDbCircle
 10
69.18692352286092
 20
74.60245661497477
 40
15
100
AcDbArc
 50
0
 51
90
  0
DIMENSION
  5
F2
100
AcDbEntity
  8
DIM$LINEAR
  6
ByLayer
 62
  256
370
   -1
100
AcDbDimension
  2
*D11
 10
21.41620955384338
 20
104.9590479675853
 11
15.6928568276174
 21
106.8340479675853
 70
   32
 71
    5
 72
    0
  3
Standard
 53
0
210
0
220
0
230
1
100
AcDbAlignedDimension
 13
9.969504101391424
 23
89.60245661497477
 14
21.41620955384338
 24
57.81856653322064
100
AcDbRotatedDimension
  0
DIMENSION
  5
F3
100
AcDbEntity
  8
DIM$DIAMETRIC
  6
ByLayer
 62
  256
370
   -1
100
AcDbDimension
  2
*D12
 10
11.81227494002849
 20
60.20184540120594
 11
21.86780571199167
 21
59.63837033917478
 70
   35
 71
    5
 72
    0
  3
Standard
 53
0
210
0
220
0
230
1
100
AcDbDiametricDimension
 15
31.02014416757257
 25
55.43528765548602
 40
0
  0
DIMENSION
  5
F4
100
AcDbEntity
  8
DIM$ANGULAR
  6
ByLayer
 62
  256
370
   -1
100
AcDbDimension
  2
*D13
 10
67.60000000000025
 20
33.36000000000027
 11
0
 21
0
 70
   34
 71
    5
  3
Standard
 53
0
210
0
220
0
230
1
100
AcDb2LineAngularDimension
 13
67.60000000000024
 23
73.36000000000027
 14
37.60000000000024
 24
43.36000000000028
 15
67.60000000000024
 25
73.36000000000027
 16
53.76007616381094
 26
55.75735453522188
  0
DIMENSION
  5
F5
100
AcDbEntity
  8
DIM$ANGULAR
  6
ByLayer
 62
  256
370
   -1
100
AcDbDimension
  2
*D14
 10
27.60000000000025
 20
43.36000000000028
 11
0
 21
0
 70
   34
 71
    5
  3
Standard
 53
0
210
0
220
0
230
1
100
AcDb2LineAngularDimension
 13
37.60000000000024
 23
43.36000000000028
 14
67.60000000000024
 24
73.36000000000027
 15
37.60000000000024
 25
43.36000000000028
 16
45.43808294959872
 26
42.94148498533506
  0
DIMENSION
  5
F6
100
AcDbEntity
  8
DIM$DIAMETRIC
  6
ByLayer
 62
  256
370
   -1
100
AcDbDimension
  2
*D15
 10
73.39478746679386
 20
9.345026154657765
 11
76.97429871011617
 21
11.26927256791391
 70
   35
 71
    5
  3
Standard
 53
0
210
0
220
0
230
1
100
AcDbDiametricDimension
 15
80.60521253320614
 25
9.443871294414246
 40
0
  0
CIRCLE
  5
F7
100
AcDbEntity
  8
0
  6
ByLayer
 62
  253
420
10526884
370
   70
100
AcDbCircle
 10
30.46515275858817
 20
77.95914495583035
 40
5.9798074
  0
DIMENSION
  5
F8
100
AcDbEntity
  8
DIM$LINEAR
  6
ByLayer
 62
  256
370
   -1
100
AcDbDimension
  2
*D16
 10
21.41620955384338
 20
99.38457176140827
 11
25.94068115621577
 21
101.2595717614083
 70
   32
 71
    5
  3
Standard
 53
0
210
0
220
0
230
1
100
AcDbAlignedDimension
 13
30.46515275858817
 23
77.95914495583035
 14
21.41620955384338
 24
57.81856653322064
100
AcDbRotatedDimension
  0
DIMENSION
  5
F9
100
AcDbEntity
  8
DIM$RADIAL
  6
ByLayer
 62
  256
370
   -1
100
AcDbDimension
  2
*D17
 10
30.46515275858817
 20
77.95914495583035
 11
41.67418074127607
 21
81.01538512747324
 70
   36
 71
    5
  3
Standard
 53
0
210
0
220
0
230
1
100
AcDbRadialDimension
 15
36.41259154800301
 25
78.58048897266691
 40
0
  0
DIMENSION
  5
FA
100
AcDbEntity
  8
DIM$RADIAL
  6
ByLayer
 62
  256
370
   -1
100
AcDbDimension
  2
*D18
 10
69.18692352286092
 20
74.60245661497477
 11
71.96276607384738
 21
81.81774061022631
 70
   36
 71
    5
  3
Standard
 53
0
210
0
220
0
230
1
100
AcDbRadialDimension
 15
77.80746667542439
 25
86.87788881733698
 40
0
  0
DIMENSION
  5
FB
100
AcDbEntity
  8
DIM$ORDINATE
  6
ByLayer
 62
  256
370
   -1
100
AcDbDimension
  2
*D19
 10
9.969504101391424
 20
1.846204463220634
 11
-5.180555555555555
 21
2.999999999999999
 70
   38
 71
    5
 72
    0
  3
Standard
 53
0
210
0
220
0
230
1
100
AcDbOrdinateDimension
 13
9.969504101391424
 23
1.846204463220634
 14
-4
 24
2.999999999999999
  0
DIMENSION
  5
FC
100
AcDbEntity
  8
DIM$ORDINATE
  6
ByLayer
 62
  256
370
   -1
100
AcDbDimension
  2
*D20
 10
9.969504101391424
 20
1.846204463220634
 11
-8.524629319584466
 21
63.48682183258207
 70
   38
 71
    5
 72
    0
  3
Standard
 53
0
210
0
220
0
230
1
100
AcDbOrdinateDimension
 13
21.41620955384338
 23
57.81856653322064
 14
-3.9412959862509
 24
63.48682183258207
  0
DIMENSION
  5
FD
100
AcDbEntity
  8
DIM$ORDINATE
  6
ByLayer
 62
  256
370
   -1
100
AcDbDimension
  2
*D21
 10
9.969504101391424
 20
1.846204463220634
 11
60
 21
104.5833333333336
 70
  102
 71
    5
 72
    0
  3
Standard
 53
0
210
0
220
0
230
1
100
AcDbOrdinateDimension
 13
67.60000000000024
 23
73.36000000000027
 14
60
 24
100
  0
DIMENSION
  5
FE
100
AcDbEntity
  8
DIM$LINEAR
  6
ByLayer
 62
  256
370
   -1
100
AcDbDimension
  2
*D22
 10
76.19066125751817
 20
73.5503908179012
 11
74.31566125751817
 21
58.51027884936884
 70
   32
 71
    5
 72
    0
  3
Standard
 53
0
210
0
220
0
230
1
100
AcDbAlignedDimension
 13
37.62385376454177
 23
43.47016688083648
 14
67.60978232876303
 24
73.5503908179012
100
AcDbRotatedDimension
 50
90
  0
ENDSEC
  0
SECTION
  2
OBJECTS
  0
DICTIONARY
  5
C
330
0
100
AcDbDictionary
281
    1
  3
ACAD_GROUP
350
D
  0
DICTIONARY
  5
D
330
C
100
AcDbDictionary
281
    1
  0
PLOTSETTINGS
  5
FF
100
AcDbPlotSettings
  6
1x1
 40
0
 41
0
 42
0
 43
0
  0
ENDSEC
  0
EOF
