999
dxfrw 0.5.10
0
SECTION
2
HEADER
9
$ACADVER
1
AC1021
9
$HANDSEED
5
20000
9
$DWGCODEPAGE
3
ANSI_1252
9
$INSBASE
10
0
20
0
30
0
9
$EXTMIN
10
0
20
0
30
0
9
$EXTMAX
10
0
20
0
30
0
9
$LIMMIN
10
0
20
0
9
$LIMMAX
10
420
20
297
9
$ORTHOMODE
70
0
9
$LTSCALE
40
1
9
$TEXTSTYLE
7
STANDARD
9
$CLAYER
8
0
9
$DIMASZ
40
2.5
9
$DIMLFAC
40
1
9
$DIMSCALE
40
1
9
$DIMEXO
40
0.625
9
$DIMEXE
40
1.25
9
$DIMTXT
40
2.5
9
$DIMTSZ
40
0
9
$DIMAUNIT
70
0
9
$DIMADEC
70
0
9
$DIMLUNIT
70
2
9
$DIMSTYLE
2
STANDARD
9
$DIMGAP
40
0.625
9
$DIMTIH
70
0
9
$LUNITS
70
2
9
$LUPREC
70
4
9
$AUNITS
70
0
9
$AUPREC
70
2
9
$SPLINESEGS
70
8
9
$SNAPSTYLE
70
0
9
$PINSBASE
10
0
20
0
30
0
9
$PLIMMIN
10
0
20
0
9
$PLIMMAX
10
210
20
297
9
$INSUNITS
70
0
9
$PSVPSCALE
40
1
0
ENDSEC
0
SECTION
2
CLASSES
0
ENDSEC
0
SECTION
2
TABLES
0
TABLE
2
VPORT
5
8
330
0
100
AcDbSymbolTable
70
1
0
VPORT
5
31
330
2
100
AcDbSymbolTableRecord
100
AcDbViewportTableRecord
2
*ACTIVE
70
0
10
0
20
0
11
1
21
1
12
143.125
22
69.5
13
0
23
0
14
10
24
10
15
10
25
10
16
0
26
0
36
1
17
0
27
0
37
0
40
151.5
41
1.97194719472
42
50
43
0
44
0
50
0
51
0
71
0
72
100
73
1
74
3
75
0
76
1
77
0
78
0
281
0
65
1
110
0
120
0
130
0
111
1
121
0
131
0
112
0
122
1
132
0
79
0
146
0
348
10020
60
7
61
5
292
1
282
1
141
0
142
0
63
250
421
3358443
0
ENDTAB
0
TABLE
2
LTYPE
5
5
330
0
100
AcDbSymbolTable
70
4
0
LTYPE
5
14
330
5
100
AcDbSymbolTableRecord
100
AcDbLinetypeTableRecord
2
ByBlock
70
0
3

72
65
73
0
40
0
0
LTYPE
5
15
330
5
100
AcDbSymbolTableRecord
100
AcDbLinetypeTableRecord
2
ByLayer
70
0
3

72
65
73
0
40
0
0
LTYPE
5
16
330
5
100
AcDbSymbolTableRecord
100
AcDbLinetypeTableRecord
2
Continuous
70
0
3
Solid line
72
65
73
0
40
0
0
LTYPE
5
32
330
5
100
AcDbSymbolTableRecord
100
AcDbLinetypeTableRecord
2
DOT
70
0
3
Dot . . . . . . . . . . . . . . . . . . . . . .
72
65
73
2
40
6.35
49
0
74
0
49
-6.35
74
0
0
LTYPE
5
33
330
5
100
AcDbSymbolTableRecord
100
AcDbLinetypeTableRecord
2
DOT2
70
0
3
Dot (.5x) .....................................
72
65
73
2
40
3.175
49
0
74
0
49
-3.175
74
0
0
LTYPE
5
34
330
5
100
AcDbSymbolTableRecord
100
AcDbLinetypeTableRecord
2
DOTX2
70
0
3
Dot (2x) .  .  .  .  .  .  .  .  .  .  .  .  .
72
65
73
2
40
12.7
49
0
74
0
49
-12.7
74
0
0
LTYPE
5
35
330
5
100
AcDbSymbolTableRecord
100
AcDbLinetypeTableRecord
2
DASHED
70
0
3
Dot . . . . . . . . . . . . . . . . . . . . . .
72
65
73
2
40
19.05
49
12.7
74
0
49
-6.35
74
0
0
LTYPE
5
36
330
5
100
AcDbSymbolTableRecord
100
AcDbLinetypeTableRecord
2
DASHED2
70
0
3
Dashed (.5x) _ _ _ _ _ _ _ _ _ _ _ _ _ _ _ _ _
72
65
73
2
40
9.525
49
6.35
74
0
49
-3.175
74
0
0
LTYPE
5
37
330
5
100
AcDbSymbolTableRecord
100
AcDbLinetypeTableRecord
2
DASHEDX2
70
0
3
Dashed (2x) ____  ____  ____  ____  ____  ___
72
65
73
2
40
38.1
49
25.4
74
0
49
-12.7
74
0
0
LTYPE
5
38
330
5
100
AcDbSymbolTableRecord
100
AcDbLinetypeTableRecord
2
DASHDOT
70
0
3
Dash dot __ . __ . __ . __ . __ . __ . __ . __
72
65
73
4
40
25.4
49
12.7
74
0
49
-6.35
74
0
49
0
74
0
49
-6.35
74
0
0
LTYPE
5
39
330
5
100
AcDbSymbolTableRecord
100
AcDbLinetypeTableRecord
2
DASHDOT2
70
0
3
Dash dot (.5x) _._._._._._._._._._._._._._._.
72
65
73
4
40
12.7
49
6.35
74
0
49
-3.175
74
0
49
0
74
0
49
-3.175
74
0
0
LTYPE
5
3A
330
5
100
AcDbSymbolTableRecord
100
AcDbLinetypeTableRecord
2
DASHDOTX2
70
0
3
Dash dot (2x) ____  .  ____  .  ____  .  ___
72
65
73
4
40
50.8
49
25.4
74
0
49
-12.7
74
0
49
0
74
0
49
-12.7
74
0
0
LTYPE
5
3B
330
5
100
AcDbSymbolTableRecord
100
AcDbLinetypeTableRecord
2
DIVIDE
70
0
3
Divide ____ . . ____ . . ____ . . ____ . . ____
72
65
73
6
40
31.75
49
12.7
74
0
49
-6.35
74
0
49
0
74
0
49
-6.35
74
0
49
0
74
0
49
-6.35
74
0
0
LTYPE
5
3C
330
5
100
AcDbSymbolTableRecord
100
AcDbLinetypeTableRecord
2
DIVIDE2
70
0
3
Divide (.5x) __..__..__..__..__..__..__..__.._
72
65
73
6
40
15.875
49
6.35
74
0
49
-3.175
74
0
49
0
74
0
49
-3.175
74
0
49
0
74
0
49
-3.175
74
0
0
LTYPE
5
3D
330
5
100
AcDbSymbolTableRecord
100
AcDbLinetypeTableRecord
2
DIVIDEX2
70
0
3
Divide (2x) ________  .  .  ________  .  .  _
72
65
73
6
40
63.5
49
25.4
74
0
49
-12.7
74
0
49
0
74
0
49
-12.7
74
0
49
0
74
0
49
-12.7
74
0
0
LTYPE
5
3E
330
5
100
AcDbSymbolTableRecord
100
AcDbLinetypeTableRecord
2
BORDER
70
0
3
Border __ __ . __ __ . __ __ . __ __ . __ __ .
72
65
73
6
40
44.45
49
12.7
74
0
49
-6.35
74
0
49
12.7
74
0
49
-6.35
74
0
49
0
74
0
49
-6.35
74
0
0
LTYPE
5
3F
330
5
100
AcDbSymbolTableRecord
100
AcDbLinetypeTableRecord
2
BORDER2
70
0
3
Border (.5x) __.__.__.__.__.__.__.__.__.__.__.
72
65
73
6
40
22.225
49
6.35
74
0
49
-3.175
74
0
49
6.35
74
0
49
-3.175
74
0
49
0
74
0
49
-3.175
74
0
0
LTYPE
5
40
330
5
100
AcDbSymbolTableRecord
100
AcDbLinetypeTableRecord
2
BORDERX2
70
0
3
Border (2x) ____  ____  .  ____  ____  .  ___
72
65
73
6
40
88.9
49
25.4
74
0
49
-12.7
74
0
49
25.4
74
0
49
-12.7
74
0
49
0
74
0
49
-12.7
74
0
0
LTYPE
5
41
330
5
100
AcDbSymbolTableRecord
100
AcDbLinetypeTableRecord
2
CENTER
70
0
3
Center ____ _ ____ _ ____ _ ____ _ ____ _ ____
72
65
73
4
40
50.8
49
31.75
74
0
49
-6.35
74
0
49
6.35
74
0
49
-6.35
74
0
0
LTYPE
5
42
330
5
100
AcDbSymbolTableRecord
100
AcDbLinetypeTableRecord
2
CENTER2
70
0
3
Center (.5x) ___ _ ___ _ ___ _ ___ _ ___ _ ___
72
65
73
4
40
28.575
49
19.05
74
0
49
-3.175
74
0
49
3.175
74
0
49
-3.175
74
0
0
LTYPE
5
43
330
5
100
AcDbSymbolTableRecord
100
AcDbLinetypeTableRecord
2
CENTERX2
70
0
3
Center (2x) ________  __  ________  __  _____
72
65
73
4
40
101.6
49
63.5
74
0
49
-12.7
74
0
49
12.7
74
0
49
-12.7
74
0
0
ENDTAB
0
TABLE
2
LAYER
5
2
330
0
100
AcDbSymbolTable
70
1
0
LAYER
5
10
330
2
100
AcDbSymbolTableRecord
100
AcDbLayerTableRecord
2
0
70
0
62
7
6
CONTINUOUS
370
0
390
F
0
ENDTAB
0
TABLE
2
STYLE
5
3
330
0
100
AcDbSymbolTable
70
3
0
STYLE
5
44
330
2
100
AcDbSymbolTableRecord
100
AcDbTextStyleTableRecord
2
Standard
70
0
40
0
41
1
50
0
71
0
42
1
3
txt
4

0
ENDTAB
0
TABLE
2
VIEW
5
6
330
0
100
AcDbSymbolTable
70
0
0
ENDTAB
0
TABLE
2
UCS
5
7
330
0
100
AcDbSymbolTable
70
0
0
ENDTAB
0
TABLE
2
APPID
5
9
330
0
100
AcDbSymbolTable
70
1
0
APPID
5
12
330
9
100
AcDbSymbolTableRecord
100
AcDbRegAppTableRecord
2
ACAD
70
0
0
ENDTAB
0
TABLE
2
DIMSTYLE
5
A
330
0
100
AcDbSymbolTable
70
1
100
AcDbDimStyleTable
71
1
0
DIMSTYLE
105
45
330
A
100
AcDbSymbolTableRecord
100
AcDbDimStyleTableRecord
2
Standard
70
0
40
1
41
2.5
42
0.625
43
0.38
44
1.25
45
0
46
0
47
0
48
0
140
2.5
141
0.09
142
0
143
25.4
144
1
145
0
146
1
147
0.625
148
0
71
0
72
0
73
0
74
1
75
0
76
0
77
0
78
0
79
0
170
0
171
2
172
0
173
0
174
0
175
0
176
0
177
0
178
0
179
0
271
4
272
4
273
2
274
2
275
0
276
0
277
2
278
46
279
0
280
0
281
0
282
0
283
1
284
0
285
0
286
0
288
0
289
3
340
Standard
341

371
-2
372
-2
0
ENDTAB
0
TABLE
2
BLOCK_RECORD
5
1
330
0
100
AcDbSymbolTable
70
2
0
BLOCK_RECORD
5
1F
330
1
100
AcDbSymbolTableRecord
100
AcDbBlockTableRecord
2
*Model_Space
70
0
280
1
281
0
0
BLOCK_RECORD
5
1E
330
1
100
AcDbSymbolTableRecord
100
AcDbBlockTableRecord
2
*Paper_Space
70
0
280
1
281
0
0
ENDTAB
0
ENDSEC
0
SECTION
2
BLOCKS
0
BLOCK
5
20
330
1F
100
AcDbEntity
8
0
100
AcDbBlockBegin
2
*Model_Space
70
0
10
0
20
0
30
0
3
*Model_Space
1

0
ENDBLK
5
21
330
1F
100
AcDbEntity
8
0
100
AcDbBlockEnd
0
BLOCK
5
1C
330
1B
100
AcDbEntity
8
0
100
AcDbBlockBegin
2
*Paper_Space
70
0
10
0
20
0
30
0
3
*Paper_Space
1

0
ENDBLK
5
1D
330
1F
100
AcDbEntity
8
0
100
AcDbBlockEnd
0
ENDSEC
0
SECTION
2
ENTITIES
0
HATCH
5
46
100
AcDbEntity
8
0
6
CONTINUOUS
62
7
370
70
100
AcDbHatch
10
0
20
0
30
0
210
0
220
0
230
1
2
SOLID
70
1
71
0
91
1
92
0
93
1
72
3
10
24.341159903
20
0.0823852372
11
-0
21
0.917614599156
40
0.942638558442
50
0
51
360
73
1
97
0
75
0
76
1
98
0
0
HATCH
5
47
100
AcDbEntity
8
0
6
CONTINUOUS
62
7
370
70
100
AcDbHatch
10
0
20
0
30
0
210
0
220
0
230
1
2
SOLID
70
1
71
0
91
1
92
0
93
1
72
3
10
7.476181
20
0.0823852372
11
-0
21
0.917614599156
40
0.942638558442
50
0
51
360
73
1
97
0
75
0
76
1
98
0
0
HATCH
5
48
100
AcDbEntity
8
0
6
CONTINUOUS
62
7
370
70
100
AcDbHatch
10
0
20
0
30
0
210
0
220
0
230
1
2
SOLID
70
1
71
0
91
1
92
0
93
1
72
3
10
24.341159903
20
15.5823852372
11
-0
21
0.917614599156
40
0.942638558442
50
0
51
360
73
1
97
0
75
0
76
1
98
0
0
HATCH
5
49
100
AcDbEntity
8
0
6
CONTINUOUS
62
7
370
70
100
AcDbHatch
10
0
20
0
30
0
210
0
220
0
230
1
2
SOLID
70
1
71
0
91
1
92
0
93
1
72
3
10
7.111202097
20
59.75
11
-0
21
0.917614599156
40
0.942638558442
50
0
51
360
73
1
97
0
75
0
76
1
98
0
0
ELLIPSE
5
4A
100
AcDbEntity
8
0
6
CONTINUOUS
62
7
370
70
100
AcDbEllipse
10
7.176181
20
19.762048
30
0
11
-5
21
0
31
0
40
0.99759
41
0
42
6.28318530718
0
ELLIPSE
5
4B
100
AcDbEntity
8
0
6
CONTINUOUS
62
7
370
70
100
AcDbEllipse
10
0.176181
20
15.262048
30
0
11
-5
21
0
31
0
40
0.99759
41
0
42
6.28318530718
0
ELLIPSE
5
4C
100
AcDbEntity
8
0
6
CONTINUOUS
62
7
370
70
100
AcDbEllipse
10
14.176181
20
15.262048
30
0
11
-5
21
0
31
0
40
0.99759
41
0
42
6.28318530718
0
LWPOLYLINE
5
4D
100
AcDbEntity
8
0
6
CONTINUOUS
62
7
370
70
100
AcDbPolyline
90
3
70
0
43
0
10
14.242848
20
16.942289
10
14.242848
20
14.947108
10
15.442848
20
13.75
0
LINE
5
4E
100
AcDbEntity
8
0
6
CONTINUOUS
62
7
370
70
100
AcDbLine
10
14.242848
20
14.947108
11
13.176181
21
13.883012
0
LWPOLYLINE
5
4F
100
AcDbEntity
8
0
6
CONTINUOUS
62
7
370
70
100
AcDbPolyline
90
3
70
0
43
0
10
7.242848
20
22.954337
10
7.242848
20
20.959157
10
8.442848
20
19.762048
0
LINE
5
50
100
AcDbEntity
8
0
6
CONTINUOUS
62
7
370
70
100
AcDbLine
10
7.242848
20
20.959157
11
6.176181
21
19.89506
0
LINE
5
51
100
AcDbEntity
8
0
6
CONTINUOUS
62
7
370
70
100
AcDbLine
10
0.176181
20
15.969277
11
1.976181
21
14.173614
0
LWPOLYLINE
5
52
100
AcDbEntity
8
0
6
CONTINUOUS
62
7
370
70
100
AcDbPolyline
90
3
70
0
43
0
10
-0.823819
20
15.969277
10
-2.823819
20
13.974096
10
2.176181
20
13.974096
0
LINE
5
53
100
AcDbEntity
8
0
6
CONTINUOUS
62
7
370
70
100
AcDbLine
10
7.176181
20
66.45
11
7.176181
21
24.741014
0
LWPOLYLINE
5
54
100
AcDbEntity
8
0
6
CONTINUOUS
62
7
370
70
100
AcDbPolyline
90
3
70
0
43
0
10
9.276181
20
66.75
10
7.126181
20
68.9
10
4.976181
20
66.75
0
LINE
5
55
100
AcDbEntity
8
0
6
CONTINUOUS
62
7
370
70
100
AcDbLine
10
7.188681
20
82.25
11
7.188681
21
68.7625
0
LWPOLYLINE
5
56
100
AcDbEntity
8
0
6
CONTINUOUS
62
7
370
70
100
AcDbPolyline
90
3
70
0
43
0
10
9.176181
20
64.75
10
7.176181
20
66.75
10
5.176181
20
64.75
0
ELLIPSE
5
57
100
AcDbEntity
8
0
6
CONTINUOUS
62
7
370
70
100
AcDbEllipse
10
7.376181
20
10.737952
30
0
11
-5
21
0
31
0
40
0.99759
41
0
42
6.28318530718
0
LWPOLYLINE
5
58
100
AcDbEntity
8
0
6
CONTINUOUS
62
7
370
70
100
AcDbPolyline
90
3
70
0
43
0
10
7.442848
20
12.418193
10
7.442848
20
10.423012
10
8.642848
20
9.225904
0
LINE
5
59
100
AcDbEntity
8
0
6
CONTINUOUS
62
7
370
70
100
AcDbLine
10
7.442848
20
10.423012
11
6.376181
21
9.358916
0
LINE
5
5A
100
AcDbEntity
8
0
6
CONTINUOUS
62
7
370
70
100
AcDbLine
10
20.686093
20
59.75
11
7.476181
21
59.75
0
LINE
5
5B
100
AcDbEntity
8
0
6
CONTINUOUS
62
7
370
70
100
AcDbLine
10
20.776181
20
47.35
11
23.749546
21
50.504301
0
LINE
5
5C
100
AcDbEntity
8
0
6
CONTINUOUS
62
7
370
70
100
AcDbLine
10
20.776181
20
37.46
11
20.776181
21
47.35
0
LINE
5
5D
100
AcDbEntity
8
0
6
CONTINUOUS
62
7
370
70
100
AcDbLine
10
17.776181
20
37.46
11
23.776181
21
37.46
0
LINE
5
5E
100
AcDbEntity
8
0
6
CONTINUOUS
62
7
370
70
100
AcDbLine
10
18.776181
20
36.53
11
22.776181
21
36.53
0
LINE
5
5F
100
AcDbEntity
8
0
6
CONTINUOUS
62
7
370
70
100
AcDbLine
10
19.776181
20
35.6
11
21.776181
21
35.6
0
LINE
5
60
100
AcDbEntity
8
0
6
CONTINUOUS
62
7
370
70
100
AcDbLine
10
20.686093
20
50.75
11
20.686093
21
59.75
0
LWPOLYLINE
5
61
100
AcDbEntity
8
0
6
CONTINUOUS
62
7
370
70
100
AcDbPolyline
90
4
70
1
43
0
10
4.676181
20
40.75
10
9.676181
20
40.75
10
9.676181
20
50.75
10
4.676181
20
50.75
0
LWPOLYLINE
5
62
100
AcDbEntity
8
0
6
CONTINUOUS
62
7
370
70
100
AcDbPolyline
90
4
70
1
43
0
10
-9.023819
20
53.75
10
-5.023819
20
53.75
10
-5.023819
20
43.75
10
-9.023819
20
43.75
0
LWPOLYLINE
5
63
100
AcDbEntity
8
0
6
CONTINUOUS
62
7
370
70
100
AcDbPolyline
90
2
70
1
43
0
10
-7.023819
20
43.75
10
-7.023819
20
39.15
0
LWPOLYLINE
5
64
100
AcDbEntity
8
0
6
CONTINUOUS
62
7
370
70
100
AcDbPolyline
90
2
70
1
43
0
10
-7.023819
20
59.75
10
-7.023819
20
53.75
0
LINE
5
65
100
AcDbEntity
8
0
6
CONTINUOUS
62
7
370
70
100
AcDbLine
10
-9.023819
20
44.75
11
-5.023819
21
44.75
0
LINE
5
66
100
AcDbEntity
8
0
6
CONTINUOUS
62
7
370
70
100
AcDbLine
10
-9.023819
20
45.75
11
-5.023819
21
45.75
0
LINE
5
67
100
AcDbEntity
8
0
6
CONTINUOUS
62
7
370
70
100
AcDbLine
10
-7.023819
20
50.15
11
-7.023819
21
53.75
0
LINE
5
68
100
AcDbEntity
8
0
6
CONTINUOUS
62
7
370
70
100
AcDbLine
10
-7.023819
20
59.75
11
7.176181
21
59.75
0
LINE
5
69
100
AcDbEntity
8
0
6
CONTINUOUS
62
7
370
70
100
AcDbLine
10
-7.023819
20
37.75
11
-7.023819
21
41.75
0
LINE
5
6A
100
AcDbEntity
8
0
6
CONTINUOUS
62
7
370
70
100
AcDbLine
10
-10.023819
20
37.55
11
-4.023819
21
37.55
0
LINE
5
6B
100
AcDbEntity
8
0
6
CONTINUOUS
62
7
370
70
100
AcDbLine
10
-9.023819
20
36.65
11
-5.023819
21
36.65
0
LINE
5
6C
100
AcDbEntity
8
0
6
CONTINUOUS
62
7
370
70
100
AcDbLine
10
-8.023819
20
35.75
11
-6.023819
21
35.75
0
ELLIPSE
5
6D
100
AcDbEntity
8
0
6
CONTINUOUS
62
7
370
70
100
AcDbEllipse
10
7.111202
20
59.75
30
0
11
0
21
-0.917614762849
31
0
40
0.942638
41
0
42
6.28318530718
0
LINE
5
6E
100
AcDbEntity
8
0
6
CONTINUOUS
62
7
370
70
100
AcDbLine
10
24.476181
20
22.326033
11
11.465025
21
22.326033
0
LINE
5
6F
100
AcDbEntity
8
0
6
CONTINUOUS
62
7
370
70
100
AcDbLine
10
24.476181
20
15.628543
11
19.162666
21
15.628543
0
LINE
5
70
100
AcDbEntity
8
0
6
CONTINUOUS
62
7
370
70
100
AcDbLine
10
7.446341
20
5.750491
11
7.446341
21
-0.058637
0
LINE
5
71
100
AcDbEntity
8
0
6
CONTINUOUS
62
7
370
70
100
AcDbLine
10
0
20
10.277194
11
0
21
0
0
LINE
5
72
100
AcDbEntity
8
0
6
CONTINUOUS
62
7
370
70
100
AcDbLine
10
24.476181
20
22.326033
11
24.476181
21
0
0
LINE
5
73
100
AcDbEntity
8
0
6
CONTINUOUS
62
7
370
70
100
AcDbLine
10
24.476181
20
0
11
0
21
0
0
LINE
5
74
100
AcDbEntity
8
0
6
CONTINUOUS
62
7
370
70
100
AcDbLine
10
24.576181
20
-9.14
11
24.476181
21
0
0
LINE
5
75
100
AcDbEntity
8
0
6
CONTINUOUS
62
7
370
70
100
AcDbLine
10
21.576181
20
-9.14
11
27.576181
21
-9.14
0
LINE
5
76
100
AcDbEntity
8
0
6
CONTINUOUS
62
7
370
70
100
AcDbLine
10
22.576181
20
-10.07
11
26.576181
21
-10.07
0
LINE
5
77
100
AcDbEntity
8
0
6
CONTINUOUS
62
7
370
70
100
AcDbLine
10
23.576181
20
-11
11
25.576181
21
-11
0
ELLIPSE
5
78
100
AcDbEntity
8
0
6
CONTINUOUS
62
7
370
70
100
AcDbEllipse
10
24.34116
20
15.582385
30
0
11
0
21
-0.917614762849
31
0
40
0.942638
41
0
42
6.28318530718
0
ELLIPSE
5
79
100
AcDbEntity
8
0
6
CONTINUOUS
62
7
370
70
100
AcDbEllipse
10
7.476181
20
0.082385
30
0
11
0
21
-0.917614762849
31
0
40
0.942638
41
0
42
6.28318530718
0
ELLIPSE
5
7A
100
AcDbEntity
8
0
6
CONTINUOUS
62
7
370
70
100
AcDbEllipse
10
24.34116
20
0.082385
30
0
11
0
21
-0.917614762849
31
0
40
0.942638
41
0
42
6.28318530718
0
LINE
5
7B
100
AcDbEntity
8
0
6
CONTINUOUS
62
7
370
70
100
AcDbLine
10
20.318093
20
50.75
11
21.054093
21
50.75
0
LINE
5
7C
100
AcDbEntity
8
0
6
CONTINUOUS
62
7
370
70
100
AcDbLine
10
-7.06192088809
20
50.15
11
-6.37608690245
21
51.9407887403
0
LINE
5
7D
100
AcDbEntity
8
0
6
CONTINUOUS
62
7
370
70
100
AcDbLine
10
-7.023819
20
50.15
11
-7.74775487373
21
51.9788906284
0
ENDSEC
0
SECTION
2
OBJECTS
0
DICTIONARY
5
C
330
0
100
AcDbDictionary
281
1
3
ACAD_GROUP
350
D
0
DICTIONARY
5
D
330
C
100
AcDbDictionary
281
1
0
ENDSEC
0
EOF
