999
dxfrw 0.5.10
0
SECTION
2
HEADER
9
$ACADVER
1
AC1021
9
$HANDSEED
5
20000
9
$DWGCODEPAGE
3
ANSI_1252
9
$INSBASE
10
0
20
0
30
0
9
$EXTMIN
10
0
20
0
30
0
9
$EXTMAX
10
0
20
0
30
0
9
$LIMMIN
10
0
20
0
9
$LIMMAX
10
420
20
297
9
$ORTHOMODE
70
0
9
$LTSCALE
40
1
9
$TEXTSTYLE
7
STANDARD
9
$CLAYER
8
0
9
$DIMASZ
40
2.5
9
$DIMLFAC
40
1
9
$DIMSCALE
40
1
9
$DIMEXO
40
0.625
9
$DIMEXE
40
1.25
9
$DIMTXT
40
2.5
9
$DIMTSZ
40
0
9
$DIMAUNIT
70
0
9
$DIMADEC
70
0
9
$DIMLUNIT
70
2
9
$DIMSTYLE
2
STANDARD
9
$DIMGAP
40
0.625
9
$DIMTIH
70
0
9
$LUNITS
70
2
9
$LUPREC
70
4
9
$AUNITS
70
0
9
$AUPREC
70
2
9
$SPLINESEGS
70
8
9
$SNAPSTYLE
70
0
9
$PINSBASE
10
0
20
0
30
0
9
$PLIMMIN
10
0
20
0
9
$PLIMMAX
10
210
20
297
9
$INSUNITS
70
0
9
$PSVPSCALE
40
1
0
ENDSEC
0
SECTION
2
CLASSES
0
ENDSEC
0
SECTION
2
TABLES
0
TABLE
2
VPORT
5
8
330
0
100
AcDbSymbolTable
70
1
0
VPORT
5
31
330
2
100
AcDbSymbolTableRecord
100
AcDbViewportTableRecord
2
*ACTIVE
70
0
10
0
20
0
11
1
21
1
12
143.125
22
69.5
13
0
23
0
14
10
24
10
15
10
25
10
16
0
26
0
36
1
17
0
27
0
37
0
40
151.5
41
1.97194719472
42
50
43
0
44
0
50
0
51
0
71
0
72
100
73
1
74
3
75
0
76
1
77
0
78
0
281
0
65
1
110
0
120
0
130
0
111
1
121
0
131
0
112
0
122
1
132
0
79
0
146
0
348
10020
60
7
61
5
292
1
282
1
141
0
142
0
63
250
421
3358443
0
ENDTAB
0
TABLE
2
LTYPE
5
5
330
0
100
AcDbSymbolTable
70
4
0
LTYPE
5
14
330
5
100
AcDbSymbolTableRecord
100
AcDbLinetypeTableRecord
2
ByBlock
70
0
3

72
65
73
0
40
0
0
LTYPE
5
15
330
5
100
AcDbSymbolTableRecord
100
AcDbLinetypeTableRecord
2
ByLayer
70
0
3

72
65
73
0
40
0
0
LTYPE
5
16
330
5
100
AcDbSymbolTableRecord
100
AcDbLinetypeTableRecord
2
Continuous
70
0
3
Solid line
72
65
73
0
40
0
0
LTYPE
5
32
330
5
100
AcDbSymbolTableRecord
100
AcDbLinetypeTableRecord
2
DOT
70
0
3
Dot . . . . . . . . . . . . . . . . . . . . . .
72
65
73
2
40
6.35
49
0
74
0
49
-6.35
74
0
0
LTYPE
5
33
330
5
100
AcDbSymbolTableRecord
100
AcDbLinetypeTableRecord
2
DOT2
70
0
3
Dot (.5x) .....................................
72
65
73
2
40
3.175
49
0
74
0
49
-3.175
74
0
0
LTYPE
5
34
330
5
100
AcDbSymbolTableRecord
100
AcDbLinetypeTableRecord
2
DOTX2
70
0
3
Dot (2x) .  .  .  .  .  .  .  .  .  .  .  .  .
72
65
73
2
40
12.7
49
0
74
0
49
-12.7
74
0
0
LTYPE
5
35
330
5
100
AcDbSymbolTableRecord
100
AcDbLinetypeTableRecord
2
DASHED
70
0
3
Dot . . . . . . . . . . . . . . . . . . . . . .
72
65
73
2
40
19.05
49
12.7
74
0
49
-6.35
74
0
0
LTYPE
5
36
330
5
100
AcDbSymbolTableRecord
100
AcDbLinetypeTableRecord
2
DASHED2
70
0
3
Dashed (.5x) _ _ _ _ _ _ _ _ _ _ _ _ _ _ _ _ _
72
65
73
2
40
9.525
49
6.35
74
0
49
-3.175
74
0
0
LTYPE
5
37
330
5
100
AcDbSymbolTableRecord
100
AcDbLinetypeTableRecord
2
DASHEDX2
70
0
3
Dashed (2x) ____  ____  ____  ____  ____  ___
72
65
73
2
40
38.1
49
25.4
74
0
49
-12.7
74
0
0
LTYPE
5
38
330
5
100
AcDbSymbolTableRecord
100
AcDbLinetypeTableRecord
2
DASHDOT
70
0
3
Dash dot __ . __ . __ . __ . __ . __ . __ . __
72
65
73
4
40
25.4
49
12.7
74
0
49
-6.35
74
0
49
0
74
0
49
-6.35
74
0
0
LTYPE
5
39
330
5
100
AcDbSymbolTableRecord
100
AcDbLinetypeTableRecord
2
DASHDOT2
70
0
3
Dash dot (.5x) _._._._._._._._._._._._._._._.
72
65
73
4
40
12.7
49
6.35
74
0
49
-3.175
74
0
49
0
74
0
49
-3.175
74
0
0
LTYPE
5
3A
330
5
100
AcDbSymbolTableRecord
100
AcDbLinetypeTableRecord
2
DASHDOTX2
70
0
3
Dash dot (2x) ____  .  ____  .  ____  .  ___
72
65
73
4
40
50.8
49
25.4
74
0
49
-12.7
74
0
49
0
74
0
49
-12.7
74
0
0
LTYPE
5
3B
330
5
100
AcDbSymbolTableRecord
100
AcDbLinetypeTableRecord
2
DIVIDE
70
0
3
Divide ____ . . ____ . . ____ . . ____ . . ____
72
65
73
6
40
31.75
49
12.7
74
0
49
-6.35
74
0
49
0
74
0
49
-6.35
74
0
49
0
74
0
49
-6.35
74
0
0
LTYPE
5
3C
330
5
100
AcDbSymbolTableRecord
100
AcDbLinetypeTableRecord
2
DIVIDE2
70
0
3
Divide (.5x) __..__..__..__..__..__..__..__.._
72
65
73
6
40
15.875
49
6.35
74
0
49
-3.175
74
0
49
0
74
0
49
-3.175
74
0
49
0
74
0
49
-3.175
74
0
0
LTYPE
5
3D
330
5
100
AcDbSymbolTableRecord
100
AcDbLinetypeTableRecord
2
DIVIDEX2
70
0
3
Divide (2x) ________  .  .  ________  .  .  _
72
65
73
6
40
63.5
49
25.4
74
0
49
-12.7
74
0
49
0
74
0
49
-12.7
74
0
49
0
74
0
49
-12.7
74
0
0
LTYPE
5
3E
330
5
100
AcDbSymbolTableRecord
100
AcDbLinetypeTableRecord
2
BORDER
70
0
3
Border __ __ . __ __ . __ __ . __ __ . __ __ .
72
65
73
6
40
44.45
49
12.7
74
0
49
-6.35
74
0
49
12.7
74
0
49
-6.35
74
0
49
0
74
0
49
-6.35
74
0
0
LTYPE
5
3F
330
5
100
AcDbSymbolTableRecord
100
AcDbLinetypeTableRecord
2
BORDER2
70
0
3
Border (.5x) __.__.__.__.__.__.__.__.__.__.__.
72
65
73
6
40
22.225
49
6.35
74
0
49
-3.175
74
0
49
6.35
74
0
49
-3.175
74
0
49
0
74
0
49
-3.175
74
0
0
LTYPE
5
40
330
5
100
AcDbSymbolTableRecord
100
AcDbLinetypeTableRecord
2
BORDERX2
70
0
3
Border (2x) ____  ____  .  ____  ____  .  ___
72
65
73
6
40
88.9
49
25.4
74
0
49
-12.7
74
0
49
25.4
74
0
49
-12.7
74
0
49
0
74
0
49
-12.7
74
0
0
LTYPE
5
41
330
5
100
AcDbSymbolTableRecord
100
AcDbLinetypeTableRecord
2
CENTER
70
0
3
Center ____ _ ____ _ ____ _ ____ _ ____ _ ____
72
65
73
4
40
50.8
49
31.75
74
0
49
-6.35
74
0
49
6.35
74
0
49
-6.35
74
0
0
LTYPE
5
42
330
5
100
AcDbSymbolTableRecord
100
AcDbLinetypeTableRecord
2
CENTER2
70
0
3
Center (.5x) ___ _ ___ _ ___ _ ___ _ ___ _ ___
72
65
73
4
40
28.575
49
19.05
74
0
49
-3.175
74
0
49
3.175
74
0
49
-3.175
74
0
0
LTYPE
5
43
330
5
100
AcDbSymbolTableRecord
100
AcDbLinetypeTableRecord
2
CENTERX2
70
0
3
Center (2x) ________  __  ________  __  _____
72
65
73
4
40
101.6
49
63.5
74
0
49
-12.7
74
0
49
12.7
74
0
49
-12.7
74
0
0
ENDTAB
0
TABLE
2
LAYER
5
2
330
0
100
AcDbSymbolTable
70
1
0
LAYER
5
10
330
2
100
AcDbSymbolTableRecord
100
AcDbLayerTableRecord
2
0
70
0
62
7
6
CONTINUOUS
370
0
390
F
0
ENDTAB
0
TABLE
2
STYLE
5
3
330
0
100
AcDbSymbolTable
70
3
0
STYLE
5
44
330
2
100
AcDbSymbolTableRecord
100
AcDbTextStyleTableRecord
2
Standard
70
0
40
0
41
1
50
0
71
0
42
1
3
txt
4

0
ENDTAB
0
TABLE
2
VIEW
5
6
330
0
100
AcDbSymbolTable
70
0
0
ENDTAB
0
TABLE
2
UCS
5
7
330
0
100
AcDbSymbolTable
70
0
0
ENDTAB
0
TABLE
2
APPID
5
9
330
0
100
AcDbSymbolTable
70
1
0
APPID
5
12
330
9
100
AcDbSymbolTableRecord
100
AcDbRegAppTableRecord
2
ACAD
70
0
0
ENDTAB
0
TABLE
2
DIMSTYLE
5
A
330
0
100
AcDbSymbolTable
70
1
100
AcDbDimStyleTable
71
1
0
DIMSTYLE
105
45
330
A
100
AcDbSymbolTableRecord
100
AcDbDimStyleTableRecord
2
Standard
70
0
40
1
41
2.5
42
0.625
43
0.38
44
1.25
45
0
46
0
47
0
48
0
140
2.5
141
0.09
142
0
143
25.4
144
1
145
0
146
1
147
0.625
148
0
71
0
72
0
73
0
74
1
75
0
76
0
77
0
78
0
79
0
170
0
171
2
172
0
173
0
174
0
175
0
176
0
177
0
178
0
179
0
271
4
272
4
273
2
274
2
275
0
276
0
277
2
278
46
279
0
280
0
281
0
282
0
283
1
284
0
285
0
286
0
288
0
289
3
340
Standard
341

371
-2
372
-2
0
ENDTAB
0
TABLE
2
BLOCK_RECORD
5
1
330
0
100
AcDbSymbolTable
70
2
0
BLOCK_RECORD
5
1F
330
1
100
AcDbSymbolTableRecord
100
AcDbBlockTableRecord
2
*Model_Space
70
0
280
1
281
0
0
BLOCK_RECORD
5
1E
330
1
100
AcDbSymbolTableRecord
100
AcDbBlockTableRecord
2
*Paper_Space
70
0
280
1
281
0
0
ENDTAB
0
ENDSEC
0
SECTION
2
BLOCKS
0
BLOCK
5
20
330
1F
100
AcDbEntity
8
0
100
AcDbBlockBegin
2
*Model_Space
70
0
10
0
20
0
30
0
3
*Model_Space
1

0
ENDBLK
5
21
330
1F
100
AcDbEntity
8
0
100
AcDbBlockEnd
0
BLOCK
5
1C
330
1B
100
AcDbEntity
8
0
100
AcDbBlockBegin
2
*Paper_Space
70
0
10
0
20
0
30
0
3
*Paper_Space
1

0
ENDBLK
5
1D
330
1F
100
AcDbEntity
8
0
100
AcDbBlockEnd
0
ENDSEC
0
SECTION
2
ENTITIES
0
LINE
5
46
100
AcDbEntity
8
0
6
CONTINUOUS
62
7
370
70
100
AcDbLine
10
7.326696
20
68.904016
11
7.326696
21
72.138418
0
LINE
5
47
100
AcDbEntity
8
0
6
CONTINUOUS
62
7
370
70
100
AcDbLine
10
6.248562
20
68.904016
11
6.248562
21
72.138418
0
LINE
5
48
100
AcDbEntity
8
0
6
CONTINUOUS
62
7
370
70
100
AcDbLine
10
6.248562
20
70.521217
11
-0.510491
21
70.521217
0
LINE
5
49
100
AcDbEntity
8
0
6
CONTINUOUS
62
7
370
70
100
AcDbLine
10
97.605336
20
62.431357
11
97.605336
21
16.88296
0
LINE
5
4A
100
AcDbEntity
8
0
6
CONTINUOUS
62
7
370
70
100
AcDbLine
10
91.136533
20
59.431357
11
91.136533
21
24.983896
0
ELLIPSE
5
4B
100
AcDbEntity
8
0
6
CONTINUOUS
62
7
370
70
100
AcDbEllipse
10
97.566351
20
52.831357
30
0
11
0
21
-0.127509761333
31
0
40
0.5
41
0
42
6.28318530718
0
LINE
5
4C
100
AcDbEntity
8
0
6
CONTINUOUS
62
7
370
70
100
AcDbLine
10
4.885824
20
59.291177
11
4.851611
21
23.619904
0
LINE
5
4D
100
AcDbEntity
8
0
6
CONTINUOUS
62
7
370
70
100
AcDbLine
10
4.885824
20
30.931357
11
24.125818
21
30.931357
0
ELLIPSE
5
4E
100
AcDbEntity
8
0
6
CONTINUOUS
62
7
370
70
100
AcDbEllipse
10
4.8867
20
0.067096
30
0
11
0.364527905929
21
0
31
0
40
0.895939
41
0
42
6.28318530718
0
ELLIPSE
5
4F
100
AcDbEntity
8
0
6
CONTINUOUS
62
7
370
70
100
AcDbEllipse
10
10.251228
20
7.667096
30
0
11
0.364527905929
21
0
31
0
40
0.895939
41
0
42
6.28318530718
0
ELLIPSE
5
50
100
AcDbEntity
8
0
6
CONTINUOUS
62
7
370
70
100
AcDbEllipse
10
91.095106
20
30.958867
30
0
11
0
21
-0.127509761333
31
0
40
0.5
41
0
42
6.28318530718
0
ELLIPSE
5
51
100
AcDbEntity
8
0
6
CONTINUOUS
62
7
370
70
100
AcDbEllipse
10
97.615755
20
0.120285
30
0
11
0.364527905929
21
0
31
0
40
0.895939
41
0
42
6.28318530718
0
ELLIPSE
5
52
100
AcDbEntity
8
0
6
CONTINUOUS
62
7
370
70
100
AcDbEllipse
10
91.115755
20
7.720285
30
0
11
0.364527905929
21
0
31
0
40
0.895939
41
0
42
6.28318530718
0
ELLIPSE
5
53
100
AcDbEntity
8
0
6
CONTINUOUS
62
7
370
70
100
AcDbEllipse
10
91.124428
20
49.931357
30
0
11
0
21
-0.127509761333
31
0
40
0.5
41
0
42
6.28318530718
0
ELLIPSE
5
54
100
AcDbEntity
8
0
6
CONTINUOUS
62
7
370
70
100
AcDbEllipse
10
97.627878
20
43.191177
30
0
11
0
21
-0.127509761333
31
0
40
0.5
41
0
42
6.28318530718
0
ELLIPSE
5
55
100
AcDbEntity
8
0
6
CONTINUOUS
62
7
370
70
100
AcDbEllipse
10
91.185956
20
40.291177
30
0
11
0
21
-0.127509761333
31
0
40
0.5
41
0
42
6.28318530718
0
ELLIPSE
5
56
100
AcDbEntity
8
0
6
CONTINUOUS
62
7
370
70
100
AcDbEllipse
10
10.324428
20
52.758867
30
0
11
0
21
0.127509761333
31
0
40
0.5
41
0
42
6.28318530718
0
ELLIPSE
5
57
100
AcDbEntity
8
0
6
CONTINUOUS
62
7
370
70
100
AcDbEllipse
10
4.924428
20
49.758867
30
0
11
0
21
0.127509761333
31
0
40
0.5
41
0
42
6.28318530718
0
ELLIPSE
5
58
100
AcDbEntity
8
0
6
CONTINUOUS
62
7
370
70
100
AcDbEllipse
10
10.366351
20
42.831357
30
0
11
0
21
0.127509761333
31
0
40
0.5
41
0
42
6.28318530718
0
LINE
5
59
100
AcDbEntity
8
0
6
CONTINUOUS
62
7
370
70
100
AcDbLine
10
75.625818
20
30.923677
11
90.978843
21
30.923677
0
LINE
5
5A
100
AcDbEntity
8
0
6
CONTINUOUS
62
7
370
70
100
AcDbLine
10
42.851929
20
30.931357
11
57.325818
21
30.931357
0
LINE
5
5B
100
AcDbEntity
8
0
6
CONTINUOUS
62
7
370
70
100
AcDbLine
10
0.625818
20
7.345293
11
108.125818
21
7.530533
0
LINE
5
5C
100
AcDbEntity
8
0
6
CONTINUOUS
62
7
370
70
100
AcDbLine
10
0.125818
20
-0.039947
11
107.625818
21
0.145293
0
LINE
5
5D
100
AcDbEntity
8
0
6
CONTINUOUS
62
7
370
70
100
AcDbLine
10
64.422762
20
30.923677
11
68.102762
21
32.763677
0
LINE
5
5E
100
AcDbEntity
8
0
6
CONTINUOUS
62
7
370
70
100
AcDbLine
10
68.102762
20
30.923677
11
75.625818
21
30.923677
0
LINE
5
5F
100
AcDbEntity
8
0
6
CONTINUOUS
62
7
370
70
100
AcDbLine
10
56.899706
20
30.923677
11
64.422762
21
30.923677
0
LINE
5
60
100
AcDbEntity
8
0
6
CONTINUOUS
62
7
370
70
100
AcDbLine
10
68.102762
20
31.291677
11
68.102762
21
30.555677
0
LINE
5
61
100
AcDbEntity
8
0
6
CONTINUOUS
62
7
370
70
100
AcDbLine
10
91.125818
20
20.54296
11
89.285818
21
24.22296
0
LINE
5
62
100
AcDbEntity
8
0
6
CONTINUOUS
62
7
370
70
100
AcDbLine
10
90.757818
20
24.22296
11
91.493818
21
24.22296
0
LINE
5
63
100
AcDbEntity
8
0
6
CONTINUOUS
62
7
370
70
100
AcDbLine
10
97.625818
20
12.816848
11
95.785818
21
16.496848
0
LINE
5
64
100
AcDbEntity
8
0
6
CONTINUOUS
62
7
370
70
100
AcDbLine
10
97.257818
20
16.496848
11
97.993818
21
16.496848
0
LINE
5
65
100
AcDbEntity
8
0
6
CONTINUOUS
62
7
370
70
100
AcDbLine
10
97.625818
20
12.5
11
97.625818
21
0.128492
0
CIRCLE
5
66
100
AcDbEntity
8
0
6
CONTINUOUS
62
7
370
70
100
AcDbCircle
10
97.625818
20
0.345293
40
0.745293
0
LINE
5
67
100
AcDbEntity
8
0
6
CONTINUOUS
62
7
370
70
100
AcDbLine
10
91.125818
20
19.872747
11
91.125818
21
7.501239
0
CIRCLE
5
68
100
AcDbEntity
8
0
6
CONTINUOUS
62
7
370
70
100
AcDbCircle
10
91.125818
20
7.6
40
0.745293
0
ELLIPSE
5
69
100
AcDbEntity
8
0
6
CONTINUOUS
62
7
370
70
100
AcDbEllipse
10
4.841549
20
-0.279715
30
0
11
0.364527905929
21
0
31
0
40
0.895939
41
0
42
6.28318530718
0
ELLIPSE
5
6A
100
AcDbEntity
8
0
6
CONTINUOUS
62
7
370
70
100
AcDbEllipse
10
10.275755
20
7.394174
30
0
11
0.364527905929
21
0
31
0
40
0.895939
41
0
42
6.28318530718
0
LINE
5
6B
100
AcDbEntity
8
0
6
CONTINUOUS
62
7
370
70
100
AcDbLine
10
10.285818
20
20.216848
11
8.445818
21
23.896848
0
LINE
5
6C
100
AcDbEntity
8
0
6
CONTINUOUS
62
7
370
70
100
AcDbLine
10
9.917818
20
23.896848
11
10.653818
21
23.896848
0
LINE
5
6D
100
AcDbEntity
8
0
6
CONTINUOUS
62
7
370
70
100
AcDbLine
10
4.851611
20
12.416848
11
3.011611
21
16.096848
0
LINE
5
6E
100
AcDbEntity
8
0
6
CONTINUOUS
62
7
370
70
100
AcDbLine
10
4.851611
20
16.096848
11
4.851611
21
23.619904
0
LINE
5
6F
100
AcDbEntity
8
0
6
CONTINUOUS
62
7
370
70
100
AcDbLine
10
4.483611
20
16.096848
11
5.219611
21
16.096848
0
LINE
5
70
100
AcDbEntity
8
0
6
CONTINUOUS
62
7
370
70
100
AcDbLine
10
4.851611
20
12.1
11
4.851611
21
-0.271508
0
LINE
5
71
100
AcDbEntity
8
0
6
CONTINUOUS
62
7
370
70
100
AcDbLine
10
10.285818
20
19.546635
11
10.285818
21
7.175127
0
LINE
5
72
100
AcDbEntity
8
0
6
CONTINUOUS
62
7
370
70
100
AcDbLine
10
31.648873
20
30.931357
11
35.328873
21
32.771357
0
LINE
5
73
100
AcDbEntity
8
0
6
CONTINUOUS
62
7
370
70
100
AcDbLine
10
35.328873
20
30.931357
11
42.851929
21
30.931357
0
LINE
5
74
100
AcDbEntity
8
0
6
CONTINUOUS
62
7
370
70
100
AcDbLine
10
24.125818
20
30.931357
11
31.648873
21
30.931357
0
LINE
5
75
100
AcDbEntity
8
0
6
CONTINUOUS
62
7
370
70
100
AcDbLine
10
35.328873
20
31.299357
11
35.328873
21
30.563357
0
LINE
5
76
100
AcDbEntity
8
0
6
CONTINUOUS
62
7
370
70
100
AcDbLine
10
51.348088
20
11.812686
11
49.896556
21
11.812686
0
LINE
5
77
100
AcDbEntity
8
0
6
CONTINUOUS
62
7
370
70
100
AcDbLine
10
52.073855
20
12.577745
11
49.412711
21
12.577745
0
LINE
5
78
100
AcDbEntity
8
0
6
CONTINUOUS
62
7
370
70
100
AcDbLine
10
48.928867
20
13.342804
11
52.322768
21
13.342804
0
LINE
5
79
100
AcDbEntity
8
0
6
CONTINUOUS
62
7
370
70
100
AcDbLine
10
50.622322
20
19.3229
11
50.622322
21
21.363056
0
LINE
5
7A
100
AcDbEntity
8
0
6
CONTINUOUS
62
7
370
70
100
AcDbLine
10
50.622322
20
13.393173
11
50.625818
21
30.931357
0
ELLIPSE
5
7B
100
AcDbEntity
8
0
6
CONTINUOUS
62
7
370
70
100
AcDbEllipse
10
50.525818
20
26.485071
30
0
11
0
21
2.89788915029
31
0
40
0.932768
41
0
42
6.28318530718
0
ELLIPSE
5
7C
100
AcDbEntity
8
0
6
CONTINUOUS
62
7
370
70
100
AcDbEllipse
10
50.622758
20
18.280849
30
0
11
0
21
2.89788915029
31
0
40
0.932768
41
0
42
6.28318530718
0
CIRCLE
5
7D
100
AcDbEntity
8
0
6
CONTINUOUS
62
7
370
70
100
AcDbCircle
10
10.380525
20
7.345293
40
0.745293
0
CIRCLE
5
7E
100
AcDbEntity
8
0
6
CONTINUOUS
62
7
370
70
100
AcDbCircle
10
4.87111
20
-0.254707
40
0.745293
0
ELLIPSE
5
7F
100
AcDbEntity
8
0
6
CONTINUOUS
62
7
370
70
100
AcDbEllipse
10
-2.334812
20
70.408888
30
0
11
0
21
-1.81046029587
31
0
40
0.929063392819
41
0
42
6.28318530718
0
ELLIPSE
5
80
100
AcDbEntity
8
0
6
CONTINUOUS
62
7
370
70
100
AcDbEllipse
10
-3.708186936
20
71.610591069
30
0
11
0
21
-1.81046029587
31
0
40
0.929063392819
41
0
42
6.28318530718
0
ELLIPSE
5
81
100
AcDbEntity
8
0
6
CONTINUOUS
62
7
370
70
100
AcDbEllipse
10
-3.942284936
20
69.519315598
30
0
11
0
21
-1.81046029587
31
0
40
0.929063392819
41
0
42
6.28318530718
0
ELLIPSE
5
82
100
AcDbEntity
8
0
6
CONTINUOUS
62
7
370
70
100
AcDbEllipse
10
4.885824
20
30.931357
30
0
11
0.364527905929
21
0
31
0
40
0.895939
41
0
42
6.28318530718
0
CIRCLE
5
83
100
AcDbEntity
8
0
6
CONTINUOUS
62
7
370
70
100
AcDbCircle
10
4.895887
20
30.811072
40
0.745293
0
ELLIPSE
5
84
100
AcDbEntity
8
0
6
CONTINUOUS
62
7
370
70
100
AcDbEllipse
10
4.89539
20
39.799959
30
0
11
0.364527905929
21
0
31
0
40
0.895939
41
0
42
6.28318530718
0
CIRCLE
5
85
100
AcDbEntity
8
0
6
CONTINUOUS
62
7
370
70
100
AcDbCircle
10
4.905453
20
39.679674
40
0.745293
0
ELLIPSE
5
86
100
AcDbEntity
8
0
6
CONTINUOUS
62
7
370
70
100
AcDbEllipse
10
4.84539
20
49.731357
30
0
11
0.364527905929
21
0
31
0
40
0.895939
41
0
42
6.28318530718
0
CIRCLE
5
87
100
AcDbEntity
8
0
6
CONTINUOUS
62
7
370
70
100
AcDbCircle
10
4.855453
20
49.611072
40
0.745293
0
ELLIPSE
5
88
100
AcDbEntity
8
0
6
CONTINUOUS
62
7
370
70
100
AcDbEllipse
10
97.662126
20
43.191177
30
0
11
0.364527905929
21
0
31
0
40
0.895939
41
0
42
6.28318530718
0
CIRCLE
5
89
100
AcDbEntity
8
0
6
CONTINUOUS
62
7
370
70
100
AcDbCircle
10
97.672189
20
43.070892
40
0.745293
0
ELLIPSE
5
8A
100
AcDbEntity
8
0
6
CONTINUOUS
62
7
370
70
100
AcDbEllipse
10
97.566351
20
52.703847239
30
0
11
0.364527905929
21
0
31
0
40
0.895939
41
0
42
6.28318530718
0
CIRCLE
5
8B
100
AcDbEntity
8
0
6
CONTINUOUS
62
7
370
70
100
AcDbCircle
10
97.576414
20
52.583562239
40
0.745293
0
ELLIPSE
5
8C
100
AcDbEntity
8
0
6
CONTINUOUS
62
7
370
70
100
AcDbEllipse
10
91.136533
20
50.056547316
30
0
11
0.364527905929
21
0
31
0
40
0.895939
41
0
42
6.28318530718
0
CIRCLE
5
8D
100
AcDbEntity
8
0
6
CONTINUOUS
62
7
370
70
100
AcDbCircle
10
91.146596
20
49.936262316
40
0.745293
0
ELLIPSE
5
8E
100
AcDbEntity
8
0
6
CONTINUOUS
62
7
370
70
100
AcDbEllipse
10
91.206917
20
40.271538
30
0
11
0.364527905929
21
0
31
0
40
0.895939
41
0
42
6.28318530718
0
CIRCLE
5
8F
100
AcDbEntity
8
0
6
CONTINUOUS
62
7
370
70
100
AcDbCircle
10
91.21698
20
40.151253
40
0.745293
0
ELLIPSE
5
90
100
AcDbEntity
8
0
6
CONTINUOUS
62
7
370
70
100
AcDbEllipse
10
10.366351
20
42.958866761
30
0
11
0.364527905929
21
0
31
0
40
0.895939
41
0
42
6.28318530718
0
CIRCLE
5
91
100
AcDbEntity
8
0
6
CONTINUOUS
62
7
370
70
100
AcDbCircle
10
10.376414
20
42.838581761
40
0.745293
0
ELLIPSE
5
92
100
AcDbEntity
8
0
6
CONTINUOUS
62
7
370
70
100
AcDbEllipse
10
10.223616
20
52.731357
30
0
11
0.364527905929
21
0
31
0
40
0.895939
41
0
42
6.28318530718
0
CIRCLE
5
93
100
AcDbEntity
8
0
6
CONTINUOUS
62
7
370
70
100
AcDbCircle
10
10.233679
20
52.611072
40
0.745293
0
ELLIPSE
5
94
100
AcDbEntity
8
0
6
CONTINUOUS
62
7
370
70
100
AcDbEllipse
10
50.625818
20
30.931357
30
0
11
0.364527905929
21
0
31
0
40
0.895939
41
0
42
6.28318530718
0
CIRCLE
5
95
100
AcDbEntity
8
0
6
CONTINUOUS
62
7
370
70
100
AcDbCircle
10
50.635881
20
30.811072
40
0.745293
0
LINE
5
96
100
AcDbEntity
8
0
6
CONTINUOUS
62
7
370
70
100
AcDbLine
10
10.30761
20
62.291177
11
10.30761
21
23.896848
0
LINE
5
97
100
AcDbEntity
8
0
6
CONTINUOUS
62
7
370
70
100
AcDbLine
10
30.930224334
20
70.518456
11
34.075212334
21
70.518456
0
LWPOLYLINE
5
98
100
AcDbEntity
8
0
6
CONTINUOUS
62
7
370
70
100
AcDbPolyline
90
3
70
0
43
0
10
35.526744334
20
72.048573
10
34.075212334
20
70.518456
10
35.526744334
20
68.988339
0
LWPOLYLINE
5
99
100
AcDbEntity
8
0
6
CONTINUOUS
62
7
370
70
100
AcDbPolyline
90
3
70
0
43
0
10
36.978277334
20
72.048573
10
35.526744334
20
70.518456
10
36.978277334
20
68.988339
0
LINE
5
9A
100
AcDbEntity
8
0
6
CONTINUOUS
62
7
370
70
100
AcDbLine
10
35.526744334
20
70.518456
11
39.397498334
21
70.518456
0
LWPOLYLINE
5
9B
100
AcDbEntity
8
0
6
CONTINUOUS
62
7
370
70
100
AcDbPolyline
90
4
70
1
43
0
10
23.188716334
20
71.509506
10
28.027159334
20
71.509506
10
28.027159334
20
69.46935
10
23.188716334
20
69.46935
0
LINE
5
9C
100
AcDbEntity
8
0
6
CONTINUOUS
62
7
370
70
100
AcDbLine
10
30.930224334
20
70.489428
11
28.027159334
21
70.489428
0
LINE
5
9D
100
AcDbEntity
8
0
6
CONTINUOUS
62
7
370
70
100
AcDbLine
10
20.285651334
20
70.489428
11
23.188716334
21
70.489428
0
LINE
5
9E
100
AcDbEntity
8
0
6
CONTINUOUS
62
7
370
70
100
AcDbLine
10
23.188716334
20
70.521217
11
28.287331334
21
70.521217
0
LINE
5
9F
100
AcDbEntity
8
0
6
CONTINUOUS
62
7
370
70
100
AcDbLine
10
44.710995334
20
70.521217
11
39.555295334
21
70.521217
0
LWPOLYLINE
5
A0
100
AcDbEntity
8
0
6
CONTINUOUS
62
7
370
70
100
AcDbPolyline
90
4
70
1
43
0
10
12.407378334
20
71.509506
10
17.245820334
20
71.509506
10
17.245820334
20
69.46935
10
12.407378334
20
69.46935
0
LINE
5
A1
100
AcDbEntity
8
0
6
CONTINUOUS
62
7
370
70
100
AcDbLine
10
20.148886334
20
70.489428
11
17.245820334
21
70.489428
0
ARC
5
A2
100
AcDbEntity
8
0
6
CONTINUOUS
62
7
370
70
100
AcDbCircle
10
36.793229334
20
60.86641
40
2.567306
100
AcDbArc
50
270
51
0
0
ELLIPSE
5
A3
100
AcDbEntity
8
0
6
CONTINUOUS
62
7
370
70
100
AcDbEllipse
10
36.793229334
20
61.080352
30
0
11
-1.93e-014
21
-2.781248445
31
0
40
0.923077
41
4.71238898038
42
4.14742025445e-013
0
ELLIPSE
5
A4
100
AcDbEntity
8
0
6
CONTINUOUS
62
7
370
70
100
AcDbEllipse
10
36.793229334
20
61.080352
30
0
11
-2.56730625692
21
0
31
0
40
0.916667
41
4.71238898038
42
4.13772315022e-013
0
LINE
5
A5
100
AcDbEntity
8
0
6
CONTINUOUS
62
7
370
70
100
AcDbLine
10
36.793229334
20
63.433716
11
36.793229334
21
60.86641
0
LINE
5
A6
100
AcDbEntity
8
0
6
CONTINUOUS
62
7
370
70
100
AcDbLine
10
36.793229334
20
60.86641
11
32.765950334
21
60.864164
0
LINE
5
A7
100
AcDbEntity
8
0
6
CONTINUOUS
62
7
370
70
100
AcDbLine
10
44.661360334
20
60.86641
11
39.540224334
21
60.86641
0
LWPOLYLINE
5
A8
100
AcDbEntity
8
0
6
CONTINUOUS
62
7
370
70
100
AcDbPolyline
90
4
70
1
43
0
10
21.982049334
20
58.291177
10
21.982049334
20
63.531173
10
13.896045334
20
63.531173
10
13.896045334
20
58.291177
0
LINE
5
A9
100
AcDbEntity
8
0
6
CONTINUOUS
62
7
370
70
100
AcDbLine
10
17.252858334
20
60.776251
11
18.769297334
21
61.855318
0
LINE
5
AA
100
AcDbEntity
8
0
6
CONTINUOUS
62
7
370
70
100
AcDbLine
10
18.769297334
20
59.697183
11
18.769297334
21
61.855318
0
LINE
5
AB
100
AcDbEntity
8
0
6
CONTINUOUS
62
7
370
70
100
AcDbLine
10
17.252858334
20
60.776251
11
18.769297334
21
59.697183
0
LINE
5
AC
100
AcDbEntity
8
0
6
CONTINUOUS
62
7
370
70
100
AcDbLine
10
19.630447334
20
60.776251
11
16.396045334
21
60.776251
0
LINE
5
AD
100
AcDbEntity
8
0
6
CONTINUOUS
62
7
370
70
100
AcDbLine
10
17.474179334
20
62.037731
11
17.474179334
21
59.544623
0
LINE
5
AE
100
AcDbEntity
8
0
6
CONTINUOUS
62
7
370
70
100
AcDbLine
10
23.086241334
20
60.853879
11
22.008107334
21
60.853879
0
ARC
5
AF
100
AcDbEntity
8
0
6
CONTINUOUS
62
7
370
70
100
AcDbCircle
10
36.752795334
20
51.30659
40
2.567306
100
AcDbArc
50
270
51
0
0
ELLIPSE
5
B0
100
AcDbEntity
8
0
6
CONTINUOUS
62
7
370
70
100
AcDbEllipse
10
36.752795334
20
51.520532
30
0
11
-1.93e-014
21
-2.781248445
31
0
40
0.923077
41
4.71238898038
42
4.14742025445e-013
0
ELLIPSE
5
B1
100
AcDbEntity
8
0
6
CONTINUOUS
62
7
370
70
100
AcDbEllipse
10
36.752795334
20
51.520532
30
0
11
-2.56730625692
21
0
31
0
40
0.916667
41
4.71238898038
42
4.13772315022e-013
0
LINE
5
B2
100
AcDbEntity
8
0
6
CONTINUOUS
62
7
370
70
100
AcDbLine
10
36.752795334
20
53.873896
11
36.752795334
21
51.30659
0
LINE
5
B3
100
AcDbEntity
8
0
6
CONTINUOUS
62
7
370
70
100
AcDbLine
10
36.752795334
20
51.30659
11
32.725515334
21
51.304344
0
LINE
5
B4
100
AcDbEntity
8
0
6
CONTINUOUS
62
7
370
70
100
AcDbLine
10
44.620926334
20
51.30659
11
39.499790334
21
51.30659
0
LWPOLYLINE
5
B5
100
AcDbEntity
8
0
6
CONTINUOUS
62
7
370
70
100
AcDbPolyline
90
4
70
1
43
0
10
21.941615334
20
48.731357
10
21.941615334
20
53.971353
10
13.855611334
20
53.971353
10
13.855611334
20
48.731357
0
LINE
5
B6
100
AcDbEntity
8
0
6
CONTINUOUS
62
7
370
70
100
AcDbLine
10
17.212423334
20
51.216431
11
18.728863334
21
52.295499
0
LINE
5
B7
100
AcDbEntity
8
0
6
CONTINUOUS
62
7
370
70
100
AcDbLine
10
18.728863334
20
50.137363
11
18.728863334
21
52.295499
0
LINE
5
B8
100
AcDbEntity
8
0
6
CONTINUOUS
62
7
370
70
100
AcDbLine
10
17.212423334
20
51.216431
11
18.728863334
21
50.137363
0
LINE
5
B9
100
AcDbEntity
8
0
6
CONTINUOUS
62
7
370
70
100
AcDbLine
10
19.590012334
20
51.216431
11
16.355611334
21
51.216431
0
LINE
5
BA
100
AcDbEntity
8
0
6
CONTINUOUS
62
7
370
70
100
AcDbLine
10
17.433745334
20
52.477911
11
17.433745334
21
49.984803
0
LINE
5
BB
100
AcDbEntity
8
0
6
CONTINUOUS
62
7
370
70
100
AcDbLine
10
23.045806334
20
51.294059
11
21.967672334
21
51.294059
0
ARC
5
BC
100
AcDbEntity
8
0
6
CONTINUOUS
62
7
370
70
100
AcDbCircle
10
36.802795334
20
41.375192
40
2.567306
100
AcDbArc
50
270
51
0
0
ELLIPSE
5
BD
100
AcDbEntity
8
0
6
CONTINUOUS
62
7
370
70
100
AcDbEllipse
10
36.802795334
20
41.589134
30
0
11
-1.93e-014
21
-2.781248445
31
0
40
0.923077
41
4.71238898038
42
4.14742025445e-013
0
ELLIPSE
5
BE
100
AcDbEntity
8
0
6
CONTINUOUS
62
7
370
70
100
AcDbEllipse
10
36.802795334
20
41.589134
30
0
11
-2.56730625692
21
0
31
0
40
0.916667
41
4.71238898038
42
4.13772315022e-013
0
LINE
5
BF
100
AcDbEntity
8
0
6
CONTINUOUS
62
7
370
70
100
AcDbLine
10
36.802795334
20
43.942498
11
36.802795334
21
41.375192
0
LINE
5
C0
100
AcDbEntity
8
0
6
CONTINUOUS
62
7
370
70
100
AcDbLine
10
36.802795334
20
41.375192
11
32.775515334
21
41.372946
0
LINE
5
C1
100
AcDbEntity
8
0
6
CONTINUOUS
62
7
370
70
100
AcDbLine
10
44.670926334
20
41.375192
11
39.549790334
21
41.375192
0
LWPOLYLINE
5
C2
100
AcDbEntity
8
0
6
CONTINUOUS
62
7
370
70
100
AcDbPolyline
90
4
70
1
43
0
10
21.991615334
20
38.799959
10
21.991615334
20
44.039955
10
13.905611334
20
44.039955
10
13.905611334
20
38.799959
0
LINE
5
C3
100
AcDbEntity
8
0
6
CONTINUOUS
62
7
370
70
100
AcDbLine
10
17.262423334
20
41.285033
11
18.778863334
21
42.3641
0
LINE
5
C4
100
AcDbEntity
8
0
6
CONTINUOUS
62
7
370
70
100
AcDbLine
10
18.778863334
20
40.205965
11
18.778863334
21
42.3641
0
LINE
5
C5
100
AcDbEntity
8
0
6
CONTINUOUS
62
7
370
70
100
AcDbLine
10
17.262423334
20
41.285033
11
18.778863334
21
40.205965
0
LINE
5
C6
100
AcDbEntity
8
0
6
CONTINUOUS
62
7
370
70
100
AcDbLine
10
19.640012334
20
41.285033
11
16.405611334
21
41.285033
0
LINE
5
C7
100
AcDbEntity
8
0
6
CONTINUOUS
62
7
370
70
100
AcDbLine
10
17.483745334
20
42.546513
11
17.483745334
21
40.053405
0
LINE
5
C8
100
AcDbEntity
8
0
6
CONTINUOUS
62
7
370
70
100
AcDbLine
10
23.095806334
20
41.362661
11
22.017672334
21
41.362661
0
LINE
5
C9
100
AcDbEntity
8
0
6
CONTINUOUS
62
7
370
70
100
AcDbLine
10
32.763073334
20
41.362661
11
23.095806334
21
41.362661
0
LINE
5
CA
100
AcDbEntity
8
0
6
CONTINUOUS
62
7
370
70
100
AcDbLine
10
32.508980334
20
51.294059
11
22.841713334
21
51.294059
0
LINE
5
CB
100
AcDbEntity
8
0
6
CONTINUOUS
62
7
370
70
100
AcDbLine
10
32.841713334
20
60.853879
11
23.174446334
21
60.853879
0
ELLIPSE
5
CC
100
AcDbEntity
8
0
6
CONTINUOUS
62
7
370
70
100
AcDbEllipse
10
27.869728334
20
60.985071
30
0
11
0
21
2.89788915029
31
0
40
0.932768
41
0
42
6.28318530718
0
ELLIPSE
5
CD
100
AcDbEntity
8
0
6
CONTINUOUS
62
7
370
70
100
AcDbEllipse
10
27.463609334
20
51.485071
30
0
11
0
21
2.89788915029
31
0
40
0.932768
41
0
42
6.28318530718
0
ELLIPSE
5
CE
100
AcDbEntity
8
0
6
CONTINUOUS
62
7
370
70
100
AcDbEllipse
10
27.463609334
20
41.485071
30
0
11
0
21
2.89788915029
31
0
40
0.932768
41
0
42
6.28318530718
0
LINE
5
CF
100
AcDbEntity
8
0
6
CONTINUOUS
62
7
370
70
100
AcDbLine
10
44.710995334
20
75.75796
11
44.710995334
21
41.411602
0
ELLIPSE
5
D0
100
AcDbEntity
8
0
6
CONTINUOUS
62
7
370
70
100
AcDbEllipse
10
44.710995334
20
70.521217
30
0
11
0.364527905929
21
0
31
0
40
0.895939
41
0
42
6.28318530718
0
CIRCLE
5
D1
100
AcDbEntity
8
0
6
CONTINUOUS
62
7
370
70
100
AcDbCircle
10
44.721058334
20
70.400932
40
0.745293
0
ELLIPSE
5
D2
100
AcDbEntity
8
0
6
CONTINUOUS
62
7
370
70
100
AcDbEllipse
10
44.661360334
20
60.86641
30
0
11
0.364527905929
21
0
31
0
40
0.895939
41
0
42
6.28318530718
0
CIRCLE
5
D3
100
AcDbEntity
8
0
6
CONTINUOUS
62
7
370
70
100
AcDbCircle
10
44.671423334
20
60.746125
40
0.745293
0
ELLIPSE
5
D4
100
AcDbEntity
8
0
6
CONTINUOUS
62
7
370
70
100
AcDbEllipse
10
44.620926334
20
51.30659
30
0
11
0.364527905929
21
0
31
0
40
0.895939
41
0
42
6.28318530718
0
CIRCLE
5
D5
100
AcDbEntity
8
0
6
CONTINUOUS
62
7
370
70
100
AcDbCircle
10
44.630989334
20
51.186305
40
0.745293
0
LINE
5
D6
100
AcDbEntity
8
0
6
CONTINUOUS
62
7
370
70
100
AcDbLine
10
13.896045334
20
59.291177
11
4.885824
21
59.291177
0
LINE
5
D7
100
AcDbEntity
8
0
6
CONTINUOUS
62
7
370
70
100
AcDbLine
10
13.855611334
20
52.731357
11
10.223616
21
52.731357
0
LINE
5
D8
100
AcDbEntity
8
0
6
CONTINUOUS
62
7
370
70
100
AcDbLine
10
13.855611334
20
49.731357
11
4.84539
21
49.731357
0
LINE
5
D9
100
AcDbEntity
8
0
6
CONTINUOUS
62
7
370
70
100
AcDbLine
10
13.905611334
20
42.799959
11
10.273616
21
42.799959
0
LINE
5
DA
100
AcDbEntity
8
0
6
CONTINUOUS
62
7
370
70
100
AcDbLine
10
13.905611334
20
39.799959
11
4.89539
21
39.799959
0
LINE
5
DB
100
AcDbEntity
8
0
6
CONTINUOUS
62
7
370
70
100
AcDbLine
10
13.896045334
20
62.291177
11
10.264051
21
62.291177
0
LINE
5
DC
100
AcDbEntity
8
0
6
CONTINUOUS
62
7
370
70
100
AcDbLine
10
7.463461
20
70.489428
11
12.407378334
21
70.489428
0
LWPOLYLINE
5
DD
100
AcDbEntity
8
0
6
CONTINUOUS
62
7
370
70
100
AcDbPolyline
90
4
70
1
43
0
10
-7.256819667
20
66.162617999
10
30.743180333
20
66.162617999
10
30.743180333
20
75.162617999
10
-7.256819667
20
75.162617999
0
LINE
5
DE
100
AcDbEntity
8
0
6
CONTINUOUS
62
7
370
70
100
AcDbLine
10
69.959339908
20
70.395804803
11
66.814352908
21
70.395804803
0
LWPOLYLINE
5
DF
100
AcDbEntity
8
0
6
CONTINUOUS
62
7
370
70
100
AcDbPolyline
90
3
70
0
43
0
10
65.362819908
20
68.865686803
10
66.814352908
20
70.395804803
10
65.362819908
20
71.925921803
0
LWPOLYLINE
5
E0
100
AcDbEntity
8
0
6
CONTINUOUS
62
7
370
70
100
AcDbPolyline
90
3
70
0
43
0
10
63.911286908
20
68.865686803
10
65.362819908
20
70.395804803
10
63.911286908
20
71.925921803
0
LINE
5
E1
100
AcDbEntity
8
0
6
CONTINUOUS
62
7
370
70
100
AcDbLine
10
65.362819908
20
70.395804803
11
61.492065908
21
70.395804803
0
LWPOLYLINE
5
E2
100
AcDbEntity
8
0
6
CONTINUOUS
62
7
370
70
100
AcDbPolyline
90
4
70
1
43
0
10
77.700847908
20
69.404753803
10
72.862405908
20
69.404753803
10
72.862405908
20
71.444910803
10
77.700847908
20
71.444910803
0
LINE
5
E3
100
AcDbEntity
8
0
6
CONTINUOUS
62
7
370
70
100
AcDbLine
10
69.959339908
20
70.424831803
11
72.862405908
21
70.424831803
0
LINE
5
E4
100
AcDbEntity
8
0
6
CONTINUOUS
62
7
370
70
100
AcDbLine
10
80.603912908
20
70.424831803
11
77.700847908
21
70.424831803
0
LINE
5
E5
100
AcDbEntity
8
0
6
CONTINUOUS
62
7
370
70
100
AcDbLine
10
77.700847908
20
70.393043803
11
72.602233908
21
70.393043803
0
LINE
5
E6
100
AcDbEntity
8
0
6
CONTINUOUS
62
7
370
70
100
AcDbLine
10
55.943599908
20
70.393043803
11
61.334268908
21
70.393043803
0
LINE
5
E7
100
AcDbEntity
8
0
6
CONTINUOUS
62
7
370
70
100
AcDbLine
10
91.522016908
20
72.010244803
11
91.522016908
21
68.775842803
0
LINE
5
E8
100
AcDbEntity
8
0
6
CONTINUOUS
62
7
370
70
100
AcDbLine
10
92.600150908
20
72.010244803
11
92.600150908
21
68.775842803
0
LINE
5
E9
100
AcDbEntity
8
0
6
CONTINUOUS
62
7
370
70
100
AcDbLine
10
92.721111908
20
70.430356803
11
99.480164908
21
70.430356803
0
LWPOLYLINE
5
EA
100
AcDbEntity
8
0
6
CONTINUOUS
62
7
370
70
100
AcDbPolyline
90
4
70
1
43
0
10
88.482186908
20
69.404753803
10
83.643743908
20
69.404753803
10
83.643743908
20
71.444910803
10
88.482186908
20
71.444910803
0
LINE
5
EB
100
AcDbEntity
8
0
6
CONTINUOUS
62
7
370
70
100
AcDbLine
10
80.740678908
20
70.424831803
11
83.643743908
21
70.424831803
0
LINE
5
EC
100
AcDbEntity
8
0
6
CONTINUOUS
62
7
370
70
100
AcDbLine
10
91.385251908
20
70.424831803
11
88.482186908
21
70.424831803
0
ARC
5
ED
100
AcDbEntity
8
0
6
CONTINUOUS
62
7
370
70
100
AcDbCircle
10
63.762095908
20
60.738236803
40
2.567306
100
AcDbArc
50
90
51
180
0
ELLIPSE
5
EE
100
AcDbEntity
8
0
6
CONTINUOUS
62
7
370
70
100
AcDbEllipse
10
63.762095908
20
60.524293803
30
0
11
1.93e-014
21
2.781248445
31
0
40
0.923077
41
4.71238898038
42
7.52349571531e-015
0
ELLIPSE
5
EF
100
AcDbEntity
8
0
6
CONTINUOUS
62
7
370
70
100
AcDbEllipse
10
63.762095908
20
60.524293803
30
0
11
2.56730625692
21
0
31
0
40
0.916667
41
4.71238898038
42
4.13638741315e-013
0
LINE
5
F0
100
AcDbEntity
8
0
6
CONTINUOUS
62
7
370
70
100
AcDbLine
10
63.762095908
20
58.170929803
11
63.762095908
21
60.738236803
0
LINE
5
F1
100
AcDbEntity
8
0
6
CONTINUOUS
62
7
370
70
100
AcDbLine
10
63.762095908
20
60.738236803
11
67.789374908
21
60.740482803
0
LINE
5
F2
100
AcDbEntity
8
0
6
CONTINUOUS
62
7
370
70
100
AcDbLine
10
55.893964908
20
60.738236803
11
61.015100908
21
60.738236803
0
LWPOLYLINE
5
F3
100
AcDbEntity
8
0
6
CONTINUOUS
62
7
370
70
100
AcDbPolyline
90
4
70
1
43
0
10
78.560833908
20
63.303183803
10
78.560833908
20
58.063188803
10
86.646837908
20
58.063188803
10
86.646837908
20
63.303183803
0
LINE
5
F4
100
AcDbEntity
8
0
6
CONTINUOUS
62
7
370
70
100
AcDbLine
10
83.290024908
20
60.818110803
11
81.773585908
21
59.739042803
0
LINE
5
F5
100
AcDbEntity
8
0
6
CONTINUOUS
62
7
370
70
100
AcDbLine
10
81.773585908
20
61.897177803
11
81.773585908
21
59.739042803
0
LINE
5
F6
100
AcDbEntity
8
0
6
CONTINUOUS
62
7
370
70
100
AcDbLine
10
83.290024908
20
60.818110803
11
81.773585908
21
61.897177803
0
LINE
5
F7
100
AcDbEntity
8
0
6
CONTINUOUS
62
7
370
70
100
AcDbLine
10
80.912435908
20
60.818110803
11
84.146837908
21
60.818110803
0
LINE
5
F8
100
AcDbEntity
8
0
6
CONTINUOUS
62
7
370
70
100
AcDbLine
10
83.068703908
20
59.556629803
11
83.068703908
21
62.049737803
0
LINE
5
F9
100
AcDbEntity
8
0
6
CONTINUOUS
62
7
370
70
100
AcDbLine
10
77.456641908
20
60.740482803
11
78.534775908
21
60.740482803
0
ARC
5
FA
100
AcDbEntity
8
0
6
CONTINUOUS
62
7
370
70
100
AcDbCircle
10
63.770952908
20
51.218596803
40
2.567306
100
AcDbArc
50
90
51
180
0
ELLIPSE
5
FB
100
AcDbEntity
8
0
6
CONTINUOUS
62
7
370
70
100
AcDbEllipse
10
63.770952908
20
51.004654803
30
0
11
1.93e-014
21
2.781248445
31
0
40
0.923077
41
4.71238898038
42
7.52349571531e-015
0
ELLIPSE
5
FC
100
AcDbEntity
8
0
6
CONTINUOUS
62
7
370
70
100
AcDbEllipse
10
63.770952908
20
51.004654803
30
0
11
2.56730625692
21
0
31
0
40
0.916667
41
4.71238898038
42
4.13638741315e-013
0
LINE
5
FD
100
AcDbEntity
8
0
6
CONTINUOUS
62
7
370
70
100
AcDbLine
10
63.770952908
20
48.651290803
11
63.770952908
21
51.218596803
0
LINE
5
FE
100
AcDbEntity
8
0
6
CONTINUOUS
62
7
370
70
100
AcDbLine
10
63.770952908
20
51.218596803
11
67.798231908
21
51.220842803
0
LINE
5
FF
100
AcDbEntity
8
0
6
CONTINUOUS
62
7
370
70
100
AcDbLine
10
55.902821908
20
51.218596803
11
61.023957908
21
51.218596803
0
LWPOLYLINE
5
100
100
AcDbEntity
8
0
6
CONTINUOUS
62
7
370
70
100
AcDbPolyline
90
4
70
1
43
0
10
78.569689908
20
53.783544803
10
78.569689908
20
48.543548803
10
86.655693908
20
48.543548803
10
86.655693908
20
53.783544803
0
LINE
5
101
100
AcDbEntity
8
0
6
CONTINUOUS
62
7
370
70
100
AcDbLine
10
83.298881908
20
51.298470803
11
81.782441908
21
50.219403803
0
LINE
5
102
100
AcDbEntity
8
0
6
CONTINUOUS
62
7
370
70
100
AcDbLine
10
81.782441908
20
52.377538803
11
81.782441908
21
50.219403803
0
LINE
5
103
100
AcDbEntity
8
0
6
CONTINUOUS
62
7
370
70
100
AcDbLine
10
83.298881908
20
51.298470803
11
81.782441908
21
52.377538803
0
LINE
5
104
100
AcDbEntity
8
0
6
CONTINUOUS
62
7
370
70
100
AcDbLine
10
80.921292908
20
51.298470803
11
84.155693908
21
51.298470803
0
LINE
5
105
100
AcDbEntity
8
0
6
CONTINUOUS
62
7
370
70
100
AcDbLine
10
83.077559908
20
50.036990803
11
83.077559908
21
52.530098803
0
LINE
5
106
100
AcDbEntity
8
0
6
CONTINUOUS
62
7
370
70
100
AcDbLine
10
77.465498908
20
51.220842803
11
78.543632908
21
51.220842803
0
ARC
5
107
100
AcDbEntity
8
0
6
CONTINUOUS
62
7
370
70
100
AcDbCircle
10
63.832479908
20
41.578416803
40
2.567306
100
AcDbArc
50
90
51
180
0
ELLIPSE
5
108
100
AcDbEntity
8
0
6
CONTINUOUS
62
7
370
70
100
AcDbEllipse
10
63.832479908
20
41.364474803
30
0
11
1.93e-014
21
2.781248445
31
0
40
0.923077
41
4.71238898038
42
7.52349571531e-015
0
ELLIPSE
5
109
100
AcDbEntity
8
0
6
CONTINUOUS
62
7
370
70
100
AcDbEllipse
10
63.832479908
20
41.364474803
30
0
11
2.56730625692
21
0
31
0
40
0.916667
41
4.71238898038
42
4.13638741315e-013
0
LINE
5
10A
100
AcDbEntity
8
0
6
CONTINUOUS
62
7
370
70
100
AcDbLine
10
63.832479908
20
39.011110803
11
63.832479908
21
41.578416803
0
LINE
5
10B
100
AcDbEntity
8
0
6
CONTINUOUS
62
7
370
70
100
AcDbLine
10
63.832479908
20
41.578416803
11
67.859758908
21
41.580662803
0
LINE
5
10C
100
AcDbEntity
8
0
6
CONTINUOUS
62
7
370
70
100
AcDbLine
10
55.964348908
20
41.578416803
11
61.085484908
21
41.578416803
0
LWPOLYLINE
5
10D
100
AcDbEntity
8
0
6
CONTINUOUS
62
7
370
70
100
AcDbPolyline
90
4
70
1
43
0
10
78.631217908
20
44.143364803
10
78.631217908
20
38.903368803
10
86.717221908
20
38.903368803
10
86.717221908
20
44.143364803
0
LINE
5
10E
100
AcDbEntity
8
0
6
CONTINUOUS
62
7
370
70
100
AcDbLine
10
83.360408908
20
41.658290803
11
81.843969908
21
40.579222803
0
LINE
5
10F
100
AcDbEntity
8
0
6
CONTINUOUS
62
7
370
70
100
AcDbLine
10
81.843969908
20
42.737358803
11
81.843969908
21
40.579222803
0
LINE
5
110
100
AcDbEntity
8
0
6
CONTINUOUS
62
7
370
70
100
AcDbLine
10
83.360408908
20
41.658290803
11
81.843969908
21
42.737358803
0
LINE
5
111
100
AcDbEntity
8
0
6
CONTINUOUS
62
7
370
70
100
AcDbLine
10
80.982819908
20
41.658290803
11
84.217221908
21
41.658290803
0
LINE
5
112
100
AcDbEntity
8
0
6
CONTINUOUS
62
7
370
70
100
AcDbLine
10
83.139087908
20
40.396810803
11
83.139087908
21
42.889918803
0
LINE
5
113
100
AcDbEntity
8
0
6
CONTINUOUS
62
7
370
70
100
AcDbLine
10
77.527025908
20
41.580662803
11
78.605159908
21
41.580662803
0
LINE
5
114
100
AcDbEntity
8
0
6
CONTINUOUS
62
7
370
70
100
AcDbLine
10
67.835387908
20
41.580648803
11
77.502654908
21
41.580648803
0
LINE
5
115
100
AcDbEntity
8
0
6
CONTINUOUS
62
7
370
70
100
AcDbLine
10
67.902309908
20
51.220842803
11
77.569576908
21
51.220842803
0
LINE
5
116
100
AcDbEntity
8
0
6
CONTINUOUS
62
7
370
70
100
AcDbLine
10
67.902309908
20
60.740359803
11
77.569576908
21
60.740359803
0
ELLIPSE
5
117
100
AcDbEntity
8
0
6
CONTINUOUS
62
7
370
70
100
AcDbEllipse
10
72.836442908
20
60.856897803
30
0
11
0
21
2.89788915029
31
0
40
0.932768
41
0
42
6.28318530718
0
ELLIPSE
5
118
100
AcDbEntity
8
0
6
CONTINUOUS
62
7
370
70
100
AcDbEllipse
10
72.430324908
20
51.356897803
30
0
11
0
21
2.89788915029
31
0
40
0.932768
41
0
42
6.28318530718
0
ELLIPSE
5
119
100
AcDbEntity
8
0
6
CONTINUOUS
62
7
370
70
100
AcDbEllipse
10
72.430324908
20
41.356897803
30
0
11
0
21
2.89788915029
31
0
40
0.932768
41
0
42
6.28318530718
0
ELLIPSE
5
11A
100
AcDbEntity
8
0
6
CONTINUOUS
62
7
370
70
100
AcDbEllipse
10
101.160734181
20
70.407240419
30
0
11
2.21710118166e-016
21
1.81046029587
31
0
40
0.929063392819
41
6.59194920871e-017
42
6.28318530718
0
ELLIPSE
5
11B
100
AcDbEntity
8
0
6
CONTINUOUS
62
7
370
70
100
AcDbEllipse
10
102.534109117
20
69.20553735
30
0
11
2.21710118166e-016
21
1.81046029587
31
0
40
0.929063392819
41
6.59194920871e-017
42
6.28318530718
0
ELLIPSE
5
11C
100
AcDbEntity
8
0
6
CONTINUOUS
62
7
370
70
100
AcDbEllipse
10
102.768207117
20
71.29681282
30
0
11
2.21710118166e-016
21
1.81046029587
31
0
40
0.929063392819
41
6.59194920871e-017
42
6.28318530718
0
LINE
5
11D
100
AcDbEntity
8
0
6
CONTINUOUS
62
7
370
70
100
AcDbLine
10
55.964348908
20
75.924774803
11
55.964348908
21
41.578416803
0
ELLIPSE
5
11E
100
AcDbEntity
8
0
6
CONTINUOUS
62
7
370
70
100
AcDbEllipse
10
55.943599908
20
70.393043803
30
0
11
0.364527905929
21
0
31
0
40
0.895939
41
0
42
6.28318530718
0
CIRCLE
5
11F
100
AcDbEntity
8
0
6
CONTINUOUS
62
7
370
70
100
AcDbCircle
10
55.953662908
20
70.272758803
40
0.745293
0
ELLIPSE
5
120
100
AcDbEntity
8
0
6
CONTINUOUS
62
7
370
70
100
AcDbEllipse
10
55.893964908
20
60.738236803
30
0
11
0.364527905929
21
0
31
0
40
0.895939
41
0
42
6.28318530718
0
CIRCLE
5
121
100
AcDbEntity
8
0
6
CONTINUOUS
62
7
370
70
100
AcDbCircle
10
55.904027908
20
60.617951803
40
0.745293
0
ELLIPSE
5
122
100
AcDbEntity
8
0
6
CONTINUOUS
62
7
370
70
100
AcDbEllipse
10
55.964348908
20
51.218596803
30
0
11
0.364527905929
21
0
31
0
40
0.895939
41
0
42
6.28318530718
0
CIRCLE
5
123
100
AcDbEntity
8
0
6
CONTINUOUS
62
7
370
70
100
AcDbCircle
10
55.974411908
20
51.098311803
40
0.745293
0
LWPOLYLINE
5
124
100
AcDbEntity
8
0
6
CONTINUOUS
62
7
370
70
100
AcDbPolyline
90
4
70
1
43
0
10
69.400543582
20
65.834661211
10
107.400543582
20
65.834661211
10
107.400543582
20
74.834661211
10
69.400543582
20
74.834661211
0
LINE
5
125
100
AcDbEntity
8
0
6
CONTINUOUS
62
7
370
70
100
AcDbLine
10
86.646837908
20
62.431357
11
97.605336
21
62.431357
0
LINE
5
126
100
AcDbEntity
8
0
6
CONTINUOUS
62
7
370
70
100
AcDbLine
10
86.646837908
20
59.631357
11
91.136533
21
59.631357
0
LINE
5
127
100
AcDbEntity
8
0
6
CONTINUOUS
62
7
370
70
100
AcDbLine
10
86.655693908
20
52.831357
11
97.600599
21
52.831357
0
LINE
5
128
100
AcDbEntity
8
0
6
CONTINUOUS
62
7
370
70
100
AcDbLine
10
86.655693908
20
49.911718
11
91.14539
21
49.911718
0
LINE
5
129
100
AcDbEntity
8
0
6
CONTINUOUS
62
7
370
70
100
AcDbLine
10
86.717221908
20
43.191177
11
97.662126
21
43.191177
0
LINE
5
12A
100
AcDbEntity
8
0
6
CONTINUOUS
62
7
370
70
100
AcDbLine
10
86.717221908
20
40.271538
11
91.206917
21
40.271538
0
ENDSEC
0
SECTION
2
OBJECTS
0
DICTIONARY
5
C
330
0
100
AcDbDictionary
281
1
3
ACAD_GROUP
350
D
0
DICTIONARY
5
D
330
C
100
AcDbDictionary
281
1
0
ENDSEC
0
EOF
