999
dxfrw 0.5.10
0
SECTION
2
HEADER
9
$ACADVER
1
AC1021
9
$HANDSEED
5
20000
9
$DWGCODEPAGE
3
ANSI_1252
9
$INSBASE
10
0
20
0
30
0
9
$EXTMIN
10
0
20
0
30
0
9
$EXTMAX
10
0
20
0
30
0
9
$LIMMIN
10
0
20
0
9
$LIMMAX
10
420
20
297
9
$ORTHOMODE
70
0
9
$LTSCALE
40
1
9
$TEXTSTYLE
7
STANDARD
9
$CLAYER
8
0
9
$DIMASZ
40
2.5
9
$DIMLFAC
40
1
9
$DIMSCALE
40
1
9
$DIMEXO
40
0.625
9
$DIMEXE
40
1.25
9
$DIMTXT
40
2.5
9
$DIMTSZ
40
0
9
$DIMAUNIT
70
0
9
$DIMADEC
70
0
9
$DIMLUNIT
70
2
9
$DIMSTYLE
2
STANDARD
9
$DIMGAP
40
0.625
9
$DIMTIH
70
0
9
$LUNITS
70
2
9
$LUPREC
70
4
9
$AUNITS
70
0
9
$AUPREC
70
2
9
$SPLINESEGS
70
8
9
$SNAPSTYLE
70
0
9
$PINSBASE
10
0
20
0
30
0
9
$PLIMMIN
10
0
20
0
9
$PLIMMAX
10
210
20
297
9
$INSUNITS
70
0
9
$PSVPSCALE
40
1
0
ENDSEC
0
SECTION
2
CLASSES
0
ENDSEC
0
SECTION
2
TABLES
0
TABLE
2
VPORT
5
8
330
0
100
AcDbSymbolTable
70
1
0
VPORT
5
31
330
2
100
AcDbSymbolTableRecord
100
AcDbViewportTableRecord
2
*ACTIVE
70
0
10
0
20
0
11
1
21
1
12
143.125
22
69.5
13
0
23
0
14
10
24
10
15
10
25
10
16
0
26
0
36
1
17
0
27
0
37
0
40
151.5
41
1.97194719472
42
50
43
0
44
0
50
0
51
0
71
0
72
100
73
1
74
3
75
0
76
1
77
0
78
0
281
0
65
1
110
0
120
0
130
0
111
1
121
0
131
0
112
0
122
1
132
0
79
0
146
0
348
10020
60
7
61
5
292
1
282
1
141
0
142
0
63
250
421
3358443
0
ENDTAB
0
TABLE
2
LTYPE
5
5
330
0
100
AcDbSymbolTable
70
4
0
LTYPE
5
14
330
5
100
AcDbSymbolTableRecord
100
AcDbLinetypeTableRecord
2
ByBlock
70
0
3

72
65
73
0
40
0
0
LTYPE
5
15
330
5
100
AcDbSymbolTableRecord
100
AcDbLinetypeTableRecord
2
ByLayer
70
0
3

72
65
73
0
40
0
0
LTYPE
5
16
330
5
100
AcDbSymbolTableRecord
100
AcDbLinetypeTableRecord
2
Continuous
70
0
3
Solid line
72
65
73
0
40
0
0
LTYPE
5
32
330
5
100
AcDbSymbolTableRecord
100
AcDbLinetypeTableRecord
2
DOT
70
0
3
Dot . . . . . . . . . . . . . . . . . . . . . .
72
65
73
2
40
6.35
49
0
74
0
49
-6.35
74
0
0
LTYPE
5
33
330
5
100
AcDbSymbolTableRecord
100
AcDbLinetypeTableRecord
2
DOT2
70
0
3
Dot (.5x) .....................................
72
65
73
2
40
3.175
49
0
74
0
49
-3.175
74
0
0
LTYPE
5
34
330
5
100
AcDbSymbolTableRecord
100
AcDbLinetypeTableRecord
2
DOTX2
70
0
3
Dot (2x) .  .  .  .  .  .  .  .  .  .  .  .  .
72
65
73
2
40
12.7
49
0
74
0
49
-12.7
74
0
0
LTYPE
5
35
330
5
100
AcDbSymbolTableRecord
100
AcDbLinetypeTableRecord
2
DASHED
70
0
3
Dot . . . . . . . . . . . . . . . . . . . . . .
72
65
73
2
40
19.05
49
12.7
74
0
49
-6.35
74
0
0
LTYPE
5
36
330
5
100
AcDbSymbolTableRecord
100
AcDbLinetypeTableRecord
2
DASHED2
70
0
3
Dashed (.5x) _ _ _ _ _ _ _ _ _ _ _ _ _ _ _ _ _
72
65
73
2
40
9.525
49
6.35
74
0
49
-3.175
74
0
0
LTYPE
5
37
330
5
100
AcDbSymbolTableRecord
100
AcDbLinetypeTableRecord
2
DASHEDX2
70
0
3
Dashed (2x) ____  ____  ____  ____  ____  ___
72
65
73
2
40
38.1
49
25.4
74
0
49
-12.7
74
0
0
LTYPE
5
38
330
5
100
AcDbSymbolTableRecord
100
AcDbLinetypeTableRecord
2
DASHDOT
70
0
3
Dash dot __ . __ . __ . __ . __ . __ . __ . __
72
65
73
4
40
25.4
49
12.7
74
0
49
-6.35
74
0
49
0
74
0
49
-6.35
74
0
0
LTYPE
5
39
330
5
100
AcDbSymbolTableRecord
100
AcDbLinetypeTableRecord
2
DASHDOT2
70
0
3
Dash dot (.5x) _._._._._._._._._._._._._._._.
72
65
73
4
40
12.7
49
6.35
74
0
49
-3.175
74
0
49
0
74
0
49
-3.175
74
0
0
LTYPE
5
3A
330
5
100
AcDbSymbolTableRecord
100
AcDbLinetypeTableRecord
2
DASHDOTX2
70
0
3
Dash dot (2x) ____  .  ____  .  ____  .  ___
72
65
73
4
40
50.8
49
25.4
74
0
49
-12.7
74
0
49
0
74
0
49
-12.7
74
0
0
LTYPE
5
3B
330
5
100
AcDbSymbolTableRecord
100
AcDbLinetypeTableRecord
2
DIVIDE
70
0
3
Divide ____ . . ____ . . ____ . . ____ . . ____
72
65
73
6
40
31.75
49
12.7
74
0
49
-6.35
74
0
49
0
74
0
49
-6.35
74
0
49
0
74
0
49
-6.35
74
0
0
LTYPE
5
3C
330
5
100
AcDbSymbolTableRecord
100
AcDbLinetypeTableRecord
2
DIVIDE2
70
0
3
Divide (.5x) __..__..__..__..__..__..__..__.._
72
65
73
6
40
15.875
49
6.35
74
0
49
-3.175
74
0
49
0
74
0
49
-3.175
74
0
49
0
74
0
49
-3.175
74
0
0
LTYPE
5
3D
330
5
100
AcDbSymbolTableRecord
100
AcDbLinetypeTableRecord
2
DIVIDEX2
70
0
3
Divide (2x) ________  .  .  ________  .  .  _
72
65
73
6
40
63.5
49
25.4
74
0
49
-12.7
74
0
49
0
74
0
49
-12.7
74
0
49
0
74
0
49
-12.7
74
0
0
LTYPE
5
3E
330
5
100
AcDbSymbolTableRecord
100
AcDbLinetypeTableRecord
2
BORDER
70
0
3
Border __ __ . __ __ . __ __ . __ __ . __ __ .
72
65
73
6
40
44.45
49
12.7
74
0
49
-6.35
74
0
49
12.7
74
0
49
-6.35
74
0
49
0
74
0
49
-6.35
74
0
0
LTYPE
5
3F
330
5
100
AcDbSymbolTableRecord
100
AcDbLinetypeTableRecord
2
BORDER2
70
0
3
Border (.5x) __.__.__.__.__.__.__.__.__.__.__.
72
65
73
6
40
22.225
49
6.35
74
0
49
-3.175
74
0
49
6.35
74
0
49
-3.175
74
0
49
0
74
0
49
-3.175
74
0
0
LTYPE
5
40
330
5
100
AcDbSymbolTableRecord
100
AcDbLinetypeTableRecord
2
BORDERX2
70
0
3
Border (2x) ____  ____  .  ____  ____  .  ___
72
65
73
6
40
88.9
49
25.4
74
0
49
-12.7
74
0
49
25.4
74
0
49
-12.7
74
0
49
0
74
0
49
-12.7
74
0
0
LTYPE
5
41
330
5
100
AcDbSymbolTableRecord
100
AcDbLinetypeTableRecord
2
CENTER
70
0
3
Center ____ _ ____ _ ____ _ ____ _ ____ _ ____
72
65
73
4
40
50.8
49
31.75
74
0
49
-6.35
74
0
49
6.35
74
0
49
-6.35
74
0
0
LTYPE
5
42
330
5
100
AcDbSymbolTableRecord
100
AcDbLinetypeTableRecord
2
CENTER2
70
0
3
Center (.5x) ___ _ ___ _ ___ _ ___ _ ___ _ ___
72
65
73
4
40
28.575
49
19.05
74
0
49
-3.175
74
0
49
3.175
74
0
49
-3.175
74
0
0
LTYPE
5
43
330
5
100
AcDbSymbolTableRecord
100
AcDbLinetypeTableRecord
2
CENTERX2
70
0
3
Center (2x) ________  __  ________  __  _____
72
65
73
4
40
101.6
49
63.5
74
0
49
-12.7
74
0
49
12.7
74
0
49
-12.7
74
0
0
ENDTAB
0
TABLE
2
LAYER
5
2
330
0
100
AcDbSymbolTable
70
1
0
LAYER
5
10
330
2
100
AcDbSymbolTableRecord
100
AcDbLayerTableRecord
2
0
70
0
62
7
6
CONTINUOUS
370
0
390
F
0
ENDTAB
0
TABLE
2
STYLE
5
3
330
0
100
AcDbSymbolTable
70
3
0
STYLE
5
44
330
2
100
AcDbSymbolTableRecord
100
AcDbTextStyleTableRecord
2
Standard
70
0
40
0
41
1
50
0
71
0
42
1
3
txt
4

0
ENDTAB
0
TABLE
2
VIEW
5
6
330
0
100
AcDbSymbolTable
70
0
0
ENDTAB
0
TABLE
2
UCS
5
7
330
0
100
AcDbSymbolTable
70
0
0
ENDTAB
0
TABLE
2
APPID
5
9
330
0
100
AcDbSymbolTable
70
1
0
APPID
5
12
330
9
100
AcDbSymbolTableRecord
100
AcDbRegAppTableRecord
2
ACAD
70
0
0
ENDTAB
0
TABLE
2
DIMSTYLE
5
A
330
0
100
AcDbSymbolTable
70
1
100
AcDbDimStyleTable
71
1
0
DIMSTYLE
105
45
330
A
100
AcDbSymbolTableRecord
100
AcDbDimStyleTableRecord
2
Standard
70
0
40
1
41
2.5
42
0.625
43
0.38
44
1.25
45
0
46
0
47
0
48
0
140
2.5
141
0.09
142
0
143
25.4
144
1
145
0
146
1
147
0.625
148
0
71
0
72
0
73
0
74
1
75
0
76
0
77
0
78
0
79
0
170
0
171
2
172
0
173
0
174
0
175
0
176
0
177
0
178
0
179
0
271
4
272
4
273
2
274
2
275
0
276
0
277
2
278
46
279
0
280
0
281
0
282
0
283
1
284
0
285
0
286
0
288
0
289
3
340
Standard
341

371
-2
372
-2
0
ENDTAB
0
TABLE
2
BLOCK_RECORD
5
1
330
0
100
AcDbSymbolTable
70
2
0
BLOCK_RECORD
5
1F
330
1
100
AcDbSymbolTableRecord
100
AcDbBlockTableRecord
2
*Model_Space
70
0
280
1
281
0
0
BLOCK_RECORD
5
1E
330
1
100
AcDbSymbolTableRecord
100
AcDbBlockTableRecord
2
*Paper_Space
70
0
280
1
281
0
0
ENDTAB
0
ENDSEC
0
SECTION
2
BLOCKS
0
BLOCK
5
20
330
1F
100
AcDbEntity
8
0
100
AcDbBlockBegin
2
*Model_Space
70
0
10
0
20
0
30
0
3
*Model_Space
1

0
ENDBLK
5
21
330
1F
100
AcDbEntity
8
0
100
AcDbBlockEnd
0
BLOCK
5
1C
330
1B
100
AcDbEntity
8
0
100
AcDbBlockBegin
2
*Paper_Space
70
0
10
0
20
0
30
0
3
*Paper_Space
1

0
ENDBLK
5
1D
330
1F
100
AcDbEntity
8
0
100
AcDbBlockEnd
0
ENDSEC
0
SECTION
2
ENTITIES
0
HATCH
5
46
100
AcDbEntity
8
0
6
CONTINUOUS
62
7
370
70
100
AcDbHatch
10
0
20
0
30
0
210
0
220
0
230
1
2
SOLID
70
1
71
0
91
1
92
0
93
1
72
2
10
0
20
32.316666667
40
1.5
50
0
51
360
73
1
97
0
75
0
76
1
98
0
0
LINE
5
47
100
AcDbEntity
8
0
6
CONTINUOUS
62
7
370
70
100
AcDbLine
10
0.058584
20
26.075904
11
0.058584
21
34.075904
0
LINE
5
48
100
AcDbEntity
8
0
6
CONTINUOUS
62
7
370
70
100
AcDbLine
10
0.058584
20
40.075904
11
0.158584
21
46.1
0
LINE
5
49
100
AcDbEntity
8
0
6
CONTINUOUS
62
7
370
70
100
AcDbLine
10
-0.941416
20
39.475904
11
1.058584
21
39.475904
0
LINE
5
4A
100
AcDbEntity
8
0
6
CONTINUOUS
62
7
370
70
100
AcDbLine
10
-1.541416
20
41.075904
11
0.058584
21
34.075904
0
ELLIPSE
5
4B
100
AcDbEntity
8
0
6
CONTINUOUS
62
7
370
70
100
AcDbEllipse
10
0.058584
20
16.551807
30
0
11
-5
21
0
31
0
40
0.99759
41
0
42
6.28318530718
0
ELLIPSE
5
4C
100
AcDbEntity
8
0
6
CONTINUOUS
62
7
370
70
100
AcDbEllipse
10
-4.941416
20
11.563855
30
0
11
-5
21
0
31
0
40
0.99759
41
0
42
6.28318530718
0
ELLIPSE
5
4D
100
AcDbEntity
8
0
6
CONTINUOUS
62
7
370
70
100
AcDbEllipse
10
5.058584
20
11.563855
30
0
11
-5
21
0
31
0
40
0.99759
41
0
42
6.28318530718
0
LWPOLYLINE
5
4E
100
AcDbEntity
8
0
6
CONTINUOUS
62
7
370
70
100
AcDbPolyline
90
3
70
0
43
0
10
5.125251
20
12.561446
10
5.125251
20
10.566265
10
6.325251
20
9.369157
0
LINE
5
4F
100
AcDbEntity
8
0
6
CONTINUOUS
62
7
370
70
100
AcDbLine
10
5.125251
20
10.566265
11
4.058584
21
9.502169
0
LWPOLYLINE
5
50
100
AcDbEntity
8
0
6
CONTINUOUS
62
7
370
70
100
AcDbPolyline
90
3
70
0
43
0
10
0.125251
20
19.744096
10
0.125251
20
17.748916
10
1.325251
20
16.551807
0
LINE
5
51
100
AcDbEntity
8
0
6
CONTINUOUS
62
7
370
70
100
AcDbLine
10
0.125251
20
17.748916
11
-0.941416
21
16.684819
0
LINE
5
52
100
AcDbEntity
8
0
6
CONTINUOUS
62
7
370
70
100
AcDbLine
10
-4.941416
20
11.563855
11
-3.141416
21
9.768193
0
LWPOLYLINE
5
53
100
AcDbEntity
8
0
6
CONTINUOUS
62
7
370
70
100
AcDbPolyline
90
3
70
0
43
0
10
-5.941416
20
11.563855
10
-7.941416
20
9.568675
10
-2.941416
20
9.568675
0
LINE
5
54
100
AcDbEntity
8
0
6
CONTINUOUS
62
7
370
70
100
AcDbLine
10
0.058584
20
29.575904
11
0.058584
21
21.575904
0
LWPOLYLINE
5
55
100
AcDbEntity
8
0
6
CONTINUOUS
62
7
370
70
100
AcDbPolyline
90
4
70
1
43
0
10
13.658584
20
26.175904
10
17.658584
20
26.175904
10
17.658584
20
16.175904
10
13.658584
20
16.175904
0
LWPOLYLINE
5
56
100
AcDbEntity
8
0
6
CONTINUOUS
62
7
370
70
100
AcDbPolyline
90
2
70
1
43
0
10
15.658584
20
15.775904
10
15.658584
20
6.175904
0
LINE
5
57
100
AcDbEntity
8
0
6
CONTINUOUS
62
7
370
70
100
AcDbLine
10
13.658584
20
17.175904
11
17.658584
21
17.175904
0
LINE
5
58
100
AcDbEntity
8
0
6
CONTINUOUS
62
7
370
70
100
AcDbLine
10
13.658584
20
18.175904
11
17.658584
21
18.175904
0
LINE
5
59
100
AcDbEntity
8
0
6
CONTINUOUS
62
7
370
70
100
AcDbLine
10
15.658584
20
22.575904
11
15.658584
21
26.175904
0
LINE
5
5A
100
AcDbEntity
8
0
6
CONTINUOUS
62
7
370
70
100
AcDbLine
10
15.658584
20
5.575904
11
15.658584
21
13.575904
0
LINE
5
5B
100
AcDbEntity
8
0
6
CONTINUOUS
62
7
370
70
100
AcDbLine
10
12.658584
20
5.575904
11
18.658584
21
5.575904
0
LINE
5
5C
100
AcDbEntity
8
0
6
CONTINUOUS
62
7
370
70
100
AcDbLine
10
13.658584
20
4.575904
11
17.658584
21
4.575904
0
LINE
5
5D
100
AcDbEntity
8
0
6
CONTINUOUS
62
7
370
70
100
AcDbLine
10
14.658584
20
3.575904
11
16.658584
21
3.575904
0
LWPOLYLINE
5
5E
100
AcDbEntity
8
0
6
CONTINUOUS
62
7
370
70
100
AcDbPolyline
90
3
70
0
43
0
10
0.058584
20
32.075904
10
15.658584
20
32.075904
10
15.658584
20
26.175904
0
ELLIPSE
5
5F
100
AcDbEntity
8
0
6
CONTINUOUS
62
7
370
70
100
AcDbEllipse
10
0.058584
20
5.087952
30
0
11
-5
21
0
31
0
40
0.99759
41
0
42
6.28318530718
0
LWPOLYLINE
5
60
100
AcDbEntity
8
0
6
CONTINUOUS
62
7
370
70
100
AcDbPolyline
90
3
70
0
43
0
10
0.125251
20
6.268193
10
0.125251
20
4.273012
10
1.325251
20
3.075904
0
LINE
5
61
100
AcDbEntity
8
0
6
CONTINUOUS
62
7
370
70
100
AcDbLine
10
0.125251
20
4.273012
11
-0.941416
21
3.208916
0
LINE
5
62
100
AcDbEntity
8
0
6
CONTINUOUS
62
7
370
70
100
AcDbLine
10
-14.941416
20
5.675904
11
-14.941416
21
13.675904
0
LINE
5
63
100
AcDbEntity
8
0
6
CONTINUOUS
62
7
370
70
100
AcDbLine
10
-17.941416
20
5.675904
11
-11.941416
21
5.675904
0
LINE
5
64
100
AcDbEntity
8
0
6
CONTINUOUS
62
7
370
70
100
AcDbLine
10
-16.941416
20
4.675904
11
-12.941416
21
4.675904
0
LINE
5
65
100
AcDbEntity
8
0
6
CONTINUOUS
62
7
370
70
100
AcDbLine
10
-15.941416
20
3.675904
11
-13.941416
21
3.675904
0
LINE
5
66
100
AcDbEntity
8
0
6
CONTINUOUS
62
7
370
70
100
AcDbLine
10
-14.941416
20
17.075904
11
-12.941416
21
17.075904
0
LINE
5
67
100
AcDbEntity
8
0
6
CONTINUOUS
62
7
370
70
100
AcDbLine
10
-10.941416
20
17.075904
11
-8.941416
21
17.075904
0
LINE
5
68
100
AcDbEntity
8
0
6
CONTINUOUS
62
7
370
70
100
AcDbLine
10
-6.941416
20
17.075904
11
-4.913738
21
17.075904
0
LINE
5
69
100
AcDbEntity
8
0
6
CONTINUOUS
62
7
370
70
100
AcDbLine
10
-14.941416
20
16.075904
11
-14.941416
21
15.14257
0
CIRCLE
5
6A
100
AcDbEntity
8
0
6
CONTINUOUS
62
7
370
70
100
AcDbCircle
10
0
20
32.316667
40
1.5
0
LINE
5
6B
100
AcDbEntity
8
0
6
CONTINUOUS
62
7
370
70
100
AcDbLine
10
15.6255672043
20
22.5313598584
11
16.3114011899
21
24.3221485987
0
LINE
5
6C
100
AcDbEntity
8
0
6
CONTINUOUS
62
7
370
70
100
AcDbLine
10
15.6636690923
20
22.5313598584
11
14.9397332186
21
24.3602504868
0
ENDSEC
0
SECTION
2
OBJECTS
0
DICTIONARY
5
C
330
0
100
AcDbDictionary
281
1
3
ACAD_GROUP
350
D
0
DICTIONARY
5
D
330
C
100
AcDbDictionary
281
1
0
ENDSEC
0
EOF
